<?xml version="1.0" encoding="UTF-8" standalone="no"?>
<svg
   xmlns:dc="http://purl.org/dc/elements/1.1/"
   xmlns:cc="http://creativecommons.org/ns#"
   xmlns:rdf="http://www.w3.org/1999/02/22-rdf-syntax-ns#"
   xmlns:svg="http://www.w3.org/2000/svg"
   xmlns="http://www.w3.org/2000/svg"
   xmlns:sodipodi="http://sodipodi.sourceforge.net/DTD/sodipodi-0.dtd"
   xmlns:inkscape="http://www.inkscape.org/namespaces/inkscape"
   version="1.1"
   id="Capa_1"
   x="0px"
   y="0px"
   viewBox="0 0 57.376 57.376"
   style="enable-background:new 0 0 57.376 57.376;"
   xml:space="preserve"
   sodipodi:docname="alphabet.svg"
   inkscape:version="1.0.2 (e86c870879, 2021-01-15)"><metadata
   id="metadata45"><rdf:RDF><cc:Work
       rdf:about=""><dc:format>image/svg+xml</dc:format><dc:type
         rdf:resource="http://purl.org/dc/dcmitype/StillImage" /><dc:title></dc:title></cc:Work></rdf:RDF></metadata><defs
   id="defs43" /><sodipodi:namedview
   pagecolor="#ffffff"
   bordercolor="#666666"
   borderopacity="1"
   objecttolerance="10"
   gridtolerance="10"
   guidetolerance="10"
   inkscape:pageopacity="0"
   inkscape:pageshadow="2"
   inkscape:window-width="1366"
   inkscape:window-height="704"
   id="namedview41"
   showgrid="false"
   inkscape:zoom="9.0651291"
   inkscape:cx="28.798313"
   inkscape:cy="28.688"
   inkscape:window-x="0"
   inkscape:window-y="312"
   inkscape:window-maximized="1"
   inkscape:current-layer="Capa_1" />
<g
   id="g8"
   style="fill:#ffffff">
	<g
   id="g6"
   style="fill:#ffffff">
		<path
   style="fill:#ffffff"
   d="M28.689,0C12.87,0,0,12.869,0,28.688c0,15.818,12.87,28.688,28.689,28.688    c15.817,0,28.686-12.869,28.686-28.688S44.507,0,28.689,0z M28.689,54.375c-14.165,0-25.689-11.523-25.689-25.688    c0-14.164,11.524-25.688,25.689-25.688c14.163,0,25.686,11.523,25.686,25.688C54.375,42.852,42.853,54.375,28.689,54.375z"
   id="path2" />
		<path
   style="fill:#ffffff"
   d="M31.341,14.779c-0.221-0.506-0.848-0.916-1.399-0.916h-2.575c-0.553,0-1.178,0.41-1.396,0.918    L15.912,38.053c-0.219,0.506,0.051,0.918,0.604,0.918h4.099c0.553,0,1.164-0.418,1.366-0.932l1.36-3.459    c0.202-0.514,0.813-0.93,1.366-0.93h7.751c0.554,0,1.17,0.414,1.377,0.926l1.41,3.467c0.207,0.512,0.824,0.928,1.377,0.928h4.24    c0.553,0,0.821-0.41,0.602-0.918L31.341,14.779z M30.579,28.971h-4.135c-0.553,0-0.837-0.418-0.636-0.932l2.321-5.939    c0.201-0.516,0.529-0.516,0.733-0.002l2.35,5.943C31.413,28.555,31.132,28.971,30.579,28.971z"
   id="path4" />
	</g>
</g>
<g
   id="g10">
</g>
<g
   id="g12">
</g>
<g
   id="g14">
</g>
<g
   id="g16">
</g>
<g
   id="g18">
</g>
<g
   id="g20">
</g>
<g
   id="g22">
</g>
<g
   id="g24">
</g>
<g
   id="g26">
</g>
<g
   id="g28">
</g>
<g
   id="g30">
</g>
<g
   id="g32">
</g>
<g
   id="g34">
</g>
<g
   id="g36">
</g>
<g
   id="g38">
</g>
</svg>
