<svg id="Layer_1_1_" enable-background="new 0 0 64 64" height="512" viewBox="0 0 64 64" width="512" xmlns="http://www.w3.org/2000/svg"><path d="m50 7c2.21 0 4 1.79 4 4v41c0 2.21-1.79 4-4 4h-44c-2.21 0-4-1.79-4-4v-41c0-2.21 1.79-4 4-4z" fill="#ded8d0"/><path d="m6 56h44c2.21002 0 4-1.79004 4-4v-21.64185c-9.46356 10.3537-25.47406 17.97064-52 19.3927v2.24915c0 2.20996 1.78998 4 4 4z" fill="#c9c4bd"/><circle cx="51" cy="51" fill="#f5a947" r="11"/><path d="m57.59154 42.20866c1.38051 1.83833 2.20846 4.1154 2.20846 6.59134 0 6.07511-4.92489 11-11 11-2.47601 0-4.75301-.82802-6.5914-2.20859 2.00684 2.67218 5.1923 4.40859 8.7914 4.40859 6.07511 0 11-4.92489 11-11 0-3.5991-1.73634-6.7845-4.40846-8.79134z" fill="#f09d3a"/><path d="m54 17h-52v-6c0-2.20914 1.79086-4 4-4h44c2.20914 0 4 1.79086 4 4z" fill="#e34e4b"/><path d="m11 12c-1.10457 0-2-.89543-2-2v-6c0-1.10457.89543-2 2-2 1.10457 0 2 .89543 2 2v6c0 1.10457-.89543 2-2 2z" fill="#f5a947"/><path d="m22 12c-1.10457 0-2-.89543-2-2v-6c0-1.10457.89543-2 2-2 1.10457 0 2 .89543 2 2v6c0 1.10457-.89543 2-2 2z" fill="#f5a947"/><path d="m34 12c-1.10458 0-2-.89543-2-2v-6c0-1.10457.89543-2 2-2 1.10457 0 2 .89543 2 2v6c0 1.10457-.89543 2-2 2z" fill="#f5a947"/><path d="m45 12c-1.10458 0-2-.89543-2-2v-6c0-1.10457.89543-2 2-2 1.10457 0 2 .89543 2 2v6c0 1.10457-.89543 2-2 2z" fill="#f5a947"/><g fill="#50b6cf"><path d="m8 22h6v6h-6z"/><path d="m19 22h6v6h-6z"/><path d="m30 22h6v6h-6z"/><path d="m41 22h6v6h-6z"/><path d="m8 33h6v6h-6z"/><path d="m19 33h6v6h-6z"/><path d="m30 33h6v6h-6z"/><path d="m41 33h6v6h-6z"/><path d="m8 44h6v6h-6z"/><path d="m19 44h6v6h-6z"/><path d="m30 44h6v6h-6z"/></g><path d="m46.625 55.78125-1.25-1.5625 4.625-3.69922v-7.51953h2v8.48047z" fill="#223b5a"/><circle cx="51" cy="51" fill="#223b5a" r="2"/></svg>