<?xml version="1.0" encoding="UTF-8" standalone="no"?>
<svg
   xmlns:dc="http://purl.org/dc/elements/1.1/"
   xmlns:cc="http://creativecommons.org/ns#"
   xmlns:rdf="http://www.w3.org/1999/02/22-rdf-syntax-ns#"
   xmlns:svg="http://www.w3.org/2000/svg"
   xmlns="http://www.w3.org/2000/svg"
   xmlns:sodipodi="http://sodipodi.sourceforge.net/DTD/sodipodi-0.dtd"
   xmlns:inkscape="http://www.inkscape.org/namespaces/inkscape"
   height="512"
   viewBox="0 0 512 512"
   width="512"
   version="1.1"
   id="svg67"
   sodipodi:docname="clock-unknown.svg"
   inkscape:version="1.0.1 (3bc2e813f5, 2020-09-07)">
  <metadata
     id="metadata73">
    <rdf:RDF>
      <cc:Work
         rdf:about="">
        <dc:format>image/svg+xml</dc:format>
        <dc:type
           rdf:resource="http://purl.org/dc/dcmitype/StillImage" />
      </cc:Work>
    </rdf:RDF>
  </metadata>
  <defs
     id="defs71" />
  <sodipodi:namedview
     pagecolor="#ffffff"
     bordercolor="#666666"
     borderopacity="1"
     objecttolerance="10"
     gridtolerance="10"
     guidetolerance="10"
     inkscape:pageopacity="0"
     inkscape:pageshadow="2"
     inkscape:window-width="1920"
     inkscape:window-height="1016"
     id="namedview69"
     showgrid="false"
     inkscape:zoom="1.1951944"
     inkscape:cx="203.0945"
     inkscape:cy="234.42662"
     inkscape:window-x="1366"
     inkscape:window-y="0"
     inkscape:window-maximized="1"
     inkscape:current-layer="svg67"
     inkscape:document-rotation="0" />
  <g
     id="Flat">
    <path
       d="m416 24a57.661 57.661 0 0 0 -54.7 75.9l22.7 68.1h-248v320h256a96 96 0 0 0 96-96v-224z"
       id="path2"
       style="fill:#f4e3d7" />
    <rect
       fill="#fdb683"
       height="80"
       rx="40"
       width="128"
       x="80"
       y="408"
       id="rect4"
       style="fill:#e9c6af" />
    <path
       d="m256 128a56 56 0 1 1 56-56 56.063 56.063 0 0 1 -56 56zm0-96a40 40 0 1 0 40 40 40.045 40.045 0 0 0 -40-40z"
       id="path6"
       style="fill:#e9c6af" />
    <path
       d="m240 88h32v56h-32z"
       id="path8"
       style="fill:#e9afaf" />
    <circle
       cx="272"
       cy="304"
       fill="#fdb683"
       r="168"
       id="circle10"
       style="fill:#e9c6af" />
    <path
       d="m176 176-50.343-50.343a8 8 0 0 0 -11.314 0l-20.686 20.686a8 8 0 0 0 0 11.314l50.343 50.343z"
       id="path12"
       style="fill:#e9afaf" />
    <path
       d="m336 176 50.343-50.343a8 8 0 0 1 11.314 0l20.686 20.686a8 8 0 0 1 0 11.314l-50.343 50.343z"
       id="path14"
       style="fill:#e9afaf" />
    <circle
       cx="256"
       cy="288"
       r="168"
       id="circle16"
       style="fill:#e9afaf" />
    <circle
       cx="256"
       cy="288"
       r="136"
       id="circle18"
       style="fill:#b3b3b3" />
    <circle
       cx="256"
       cy="288"
       r="112"
       id="circle20"
       style="fill:#cccccc" />
    <path
       d="m224 56h64v32h-64z"
       id="path22"
       style="fill:#e9afaf" />
    <g
       fill="#ffb431"
       id="g50">
      <path
         d="m248 368h16v32h-16z"
         id="path24"
         style="fill:#999999" />
      <path
         d="m248 176h16v32h-16z"
         id="path26"
         style="fill:#999999" />
      <path
         d="m296 355.139h16v32h-16z"
         transform="matrix(.866 -.5 .5 .866 -144.841 201.723)"
         id="path28"
         style="fill:#999999" />
      <path
         d="m200 188.861h16v32h-16z"
         transform="matrix(.866 -.5 .5 .866 -74.564 131.446)"
         id="path30"
         style="fill:#999999" />
      <path
         d="m331.139 320h15.999v32h-15.999z"
         transform="matrix(.5 -.866 .866 .5 -121.416 461.7)"
         id="path32"
         style="fill:#999999" />
      <path
         d="m164.862 224h15.999v32h-15.999z"
         transform="matrix(.5 -.866 .866 .5 -121.416 269.701)"
         id="path34"
         style="fill:#999999" />
      <path
         d="m336 280h32v16h-32z"
         id="path36"
         style="fill:#999999" />
      <path
         d="m144 280h32v16h-32z"
         id="path38"
         style="fill:#999999" />
      <path
         d="m156.862 328h32v15.999h-32z"
         transform="matrix(.866 -.5 .5 .866 -144.847 131.456)"
         id="path40"
         style="fill:#999999" />
      <path
         d="m288 196.861h32v16h-32z"
         transform="matrix(.5 -.866 .866 .5 -25.415 365.703)"
         id="path42"
         style="fill:#999999" />
      <path
         d="m192 363.139h32v16h-32z"
         transform="matrix(.5 -.866 .866 .5 -217.416 365.703)"
         id="path44"
         style="fill:#999999" />
      <circle
         cx="256"
         cy="288"
         r="24"
         id="circle46"
         style="fill:#999999" />
      <path
         d="m263.226 248h95.262v16h-95.262z"
         transform="matrix(.864 -.504 .504 .864 -86.645 191.498)"
         id="path48"
         style="fill:#999999" />
    </g>
    <rect
       height="80"
       rx="40"
       width="128"
       x="24"
       y="168"
       id="rect52"
       style="fill:#f4e3d7" />
    <rect
       height="80"
       rx="40"
       width="128"
       x="24"
       y="248"
       id="rect54"
       style="fill:#f4e3d7" />
    <rect
       height="80"
       rx="40"
       width="128"
       x="48"
       y="328"
       id="rect56"
       style="fill:#f4e3d7" />
    <rect
       height="80"
       rx="40"
       width="128"
       x="64"
       y="408"
       id="rect58"
       style="fill:#f4e3d7" />
    <rect
       height="16"
       rx="8"
       width="64"
       x="56"
       y="240"
       id="rect60"
       style="fill:#e9c6af" />
    <rect
       height="16"
       rx="6.928"
       width="48"
       x="72"
       y="320"
       id="rect62"
       style="fill:#e9c6af" />
    <rect
       height="16"
       rx="6.928"
       width="48"
       x="96"
       y="400"
       id="rect64"
       style="fill:#e9c6af" />
  </g>
  <g
     id="g893"
     transform="matrix(0.33629038,0,0,0.33969308,92.377793,90.722502)"
     style="fill:#333333">
    <g
       id="g836"
       style="fill:#333333">
      <path
         d="m 502.29,788.199 h -47 c -33.1,0 -60,26.9 -60,60 v 64.9 c 0,33.1 26.9,60 60,60 h 47 c 33.101,0 60,-26.9 60,-60 v -64.9 c 0,-33.199 -26.899,-60 -60,-60 z"
         id="path832"
         style="fill:#333333" />
      <path
         d="m 170.89,285.8 86.7,10.8 c 27.5,3.4 53.6,-12.4 63.5,-38.3 12.5,-32.7 29.9,-58.5 52.2,-77.3 31.601,-26.6 70.9,-40 117.9,-40 48.7,0 87.5,12.8 116.3,38.3 28.8,25.6 43.1,56.2 43.1,92.1 0,25.8 -8.1,49.4 -24.3,70.8 -10.5,13.6 -42.8,42.2 -96.7,85.9 -54,43.7 -89.899,83.099 -107.899,118.099 -18.4,35.801 -24.8,75.5 -26.4,115.301 -1.399,34.1 25.8,62.5 60,62.5 h 49 c 31.2,0 57,-23.9 59.8,-54.9 2,-22.299 5.7,-39.199 11.301,-50.699 9.399,-19.701 33.699,-45.701 72.699,-78.1 C 723.59,477.8 772.79,428.4 795.891,392 c 23,-36.3 34.6,-74.8 34.6,-115.5 0,-73.5 -31.3,-138 -94,-193.4 -62.6,-55.4 -147,-83.1 -253,-83.1 -100.8,0 -182.1,27.3 -244.1,82 -52.8,46.6 -84.9,101.8 -96.2,165.5 -3.501,18.6 9.199,36 27.699,38.3 z"
         id="path834"
         style="fill:#333333" />
    </g>
    <g
       id="g838"
       style="fill:#333333" />
    <g
       id="g840"
       style="fill:#333333" />
    <g
       id="g842"
       style="fill:#333333" />
    <g
       id="g844"
       style="fill:#333333" />
    <g
       id="g846"
       style="fill:#333333" />
    <g
       id="g848"
       style="fill:#333333" />
    <g
       id="g850"
       style="fill:#333333" />
    <g
       id="g852"
       style="fill:#333333" />
    <g
       id="g854"
       style="fill:#333333" />
    <g
       id="g856"
       style="fill:#333333" />
    <g
       id="g858"
       style="fill:#333333" />
    <g
       id="g860"
       style="fill:#333333" />
    <g
       id="g862"
       style="fill:#333333" />
    <g
       id="g864"
       style="fill:#333333" />
    <g
       id="g866"
       style="fill:#333333" />
  </g>
</svg>
