<svg height="512" viewBox="0 0 512 512" width="512" xmlns="http://www.w3.org/2000/svg"><g id="Flat"><path d="m416 24a57.661 57.661 0 0 0 -54.7 75.9l22.7 68.1h-248v320h256a96 96 0 0 0 96-96v-224z" fill="#fdbf92"/><rect fill="#fdb683" height="80" rx="40" width="128" x="80" y="408"/><path d="m256 128a56 56 0 1 1 56-56 56.063 56.063 0 0 1 -56 56zm0-96a40 40 0 1 0 40 40 40.045 40.045 0 0 0 -40-40z" fill="#ffb431"/><path d="m240 88h32v56h-32z" fill="#c7483c"/><circle cx="272" cy="304" fill="#fdb683" r="168"/><path d="m176 176-50.343-50.343a8 8 0 0 0 -11.314 0l-20.686 20.686a8 8 0 0 0 0 11.314l50.343 50.343z" fill="#c7483c"/><path d="m336 176 50.343-50.343a8 8 0 0 1 11.314 0l20.686 20.686a8 8 0 0 1 0 11.314l-50.343 50.343z" fill="#c7483c"/><circle cx="256" cy="288" fill="#d65246" r="168"/><circle cx="256" cy="288" fill="#2c86d1" r="136"/><circle cx="256" cy="288" fill="#348ed8" r="112"/><path d="m224 56h64v32h-64z" fill="#d65246"/><g fill="#ffb431"><path d="m248 368h16v32h-16z"/><path d="m248 176h16v32h-16z"/><path d="m296 355.139h16v32h-16z" transform="matrix(.866 -.5 .5 .866 -144.841 201.723)"/><path d="m200 188.861h16v32h-16z" transform="matrix(.866 -.5 .5 .866 -74.564 131.446)"/><path d="m331.139 320h15.999v32h-15.999z" transform="matrix(.5 -.866 .866 .5 -121.416 461.7)"/><path d="m164.862 224h15.999v32h-15.999z" transform="matrix(.5 -.866 .866 .5 -121.416 269.701)"/><path d="m336 280h32v16h-32z"/><path d="m144 280h32v16h-32z"/><path d="m156.862 328h32v15.999h-32z" transform="matrix(.866 -.5 .5 .866 -144.847 131.456)"/><path d="m288 196.861h32v16h-32z" transform="matrix(.5 -.866 .866 .5 -25.415 365.703)"/><path d="m192 363.139h32v16h-32z" transform="matrix(.5 -.866 .866 .5 -217.416 365.703)"/><circle cx="256" cy="288" r="24"/><path d="m263.226 248h95.262v16h-95.262z" transform="matrix(.864 -.504 .504 .864 -86.645 191.498)"/></g><rect fill="#fdc8a2" height="80" rx="40" width="128" x="24" y="168"/><rect fill="#fdc8a2" height="80" rx="40" width="128" x="24" y="248"/><rect fill="#fdc8a2" height="80" rx="40" width="128" x="48" y="328"/><rect fill="#fdc8a2" height="80" rx="40" width="128" x="64" y="408"/><rect fill="#fdb683" height="16" rx="8" width="64" x="56" y="240"/><rect fill="#fdb683" height="16" rx="6.928" width="48" x="72" y="320"/><rect fill="#fdb683" height="16" rx="6.928" width="48" x="96" y="400"/></g></svg>