<?xml version="1.0"?>
<svg xmlns="http://www.w3.org/2000/svg" id="Layer_1" data-name="Layer 1" viewBox="0 0 128 128" width="512" height="512"><title>LOCAL SEO</title><path d="M64,20.4A31.163,31.163,0,0,0,32.873,51.524c0,21.089,28.956,54.252,30.188,55.653a1.25,1.25,0,1,0,1.877-1.65c-.3-.337-29.565-33.855-29.565-54a28.627,28.627,0,0,1,57.254,0c0,15.452-17.729,39.344-25.352,48.9a1.25,1.25,0,1,0,1.955,1.559c9.671-12.124,25.9-34.8,25.9-50.458A31.163,31.163,0,0,0,64,20.4Z"/><path d="M55.507,41.74c.132-.115.267-.227.4-.336a1.251,1.251,0,0,0-1.562-1.953q-.247.2-.486.405a1.25,1.25,0,1,0,1.644,1.884Z"/><path d="M52.266,43.418a1.247,1.247,0,0,0-1.7.468,15.431,15.431,0,1,0,8.109-6.874,1.25,1.25,0,0,0,.861,2.348,12.953,12.953,0,1,1-6.8,5.763A1.249,1.249,0,0,0,52.266,43.418Z"/></svg>
