<?xml version="1.0" encoding="iso-8859-1"?>
<!-- Generator: Adobe Illustrator 19.0.0, SVG Export Plug-In . SVG Version: 6.00 Build 0)  -->
<svg version="1.1" id="Capa_1" xmlns="http://www.w3.org/2000/svg" xmlns:xlink="http://www.w3.org/1999/xlink" x="0px" y="0px"
	 viewBox="0 0 512 512" style="enable-background:new 0 0 512 512;" xml:space="preserve">
<g>
	<g>
		<path d="M180.76,54.437c-4.019-7.245-13.149-9.86-20.393-5.841c-33.812,18.755-62.845,45.82-83.96,78.271
			c-4.517,6.943-2.551,16.235,4.392,20.753c6.944,4.518,16.236,2.552,20.754-4.392c18.453-28.359,43.823-52.011,73.366-68.398
			C182.164,70.812,184.779,61.682,180.76,54.437z"/>
	</g>
</g>
<g>
	<g>
		<path d="M275.092,19c-8.284,0-15,6.716-15,15s6.716,15,15,15C389.182,49,482,141.86,482,256s-92.819,207-206.908,207
			C174.613,463,90.648,390.97,72.04,295.817l19.746,19.709c5.863,5.851,15.361,5.843,21.213-0.02
			c5.852-5.864,5.843-15.361-0.02-21.213l-49.002-48.909c-2.814-2.809-6.64-4.383-10.794-4.383c-5.967,0-11.105,3.493-13.521,8.538
			L2.516,305.331c-4.591,6.896-2.723,16.208,4.173,20.799c6.906,4.597,16.215,2.712,20.799-4.173L42.22,299.83
			C62.529,409.083,158.426,493,275.092,493C406.035,493,512,386.998,512,256C512,125.051,406.089,19,275.092,19z"/>
	</g>
</g>
<g>
	<g>
		<path d="M263.983,285.603h-43.456v-1.495c0-15.113,51.252-26.904,51.252-62.943c0-22.254-19.406-34.378-38.646-34.378
			c-18.908,0-37.485,11.625-37.485,31.887c0,10.463,4.976,13.452,11.61,13.452c8.459,0,13.601-4.65,13.601-9.466
			c0-9.134,5.805-12.456,12.439-12.456c9.289,0,12.605,6.477,12.605,11.792c0,21.092-52.246,36.039-52.246,62.113v16.109
			c0,4.816,6.634,7.971,11.279,7.971h59.047c4.146,0,7.796-5.48,7.796-11.459S268.13,285.603,263.983,285.603z"/>
	</g>
</g>
<g>
	<g>
		<path d="M352.383,258.696h-7.132v-11.625c0-5.48-6.468-7.806-12.937-7.806s-12.937,2.325-12.937,7.806v11.625h-14.264
			l29.358-58.958c0.498-1.16,0.829-2.156,0.829-3.153c0-5.979-8.459-9.798-12.937-9.798c-4.147,0-8.293,1.827-10.781,6.643
			l-38.314,75.232c-0.995,1.827-1.327,3.654-1.327,4.982c0,5.813,3.814,8.968,8.624,8.968h38.812v17.604
			c0,5.314,6.469,7.972,12.937,7.972c6.469,0,12.937-2.657,12.937-7.972v-17.604h7.132c3.98,0,7.961-5.979,7.961-11.958
			S357.69,258.696,352.383,258.696z"/>
	</g>
</g>
<g>
</g>
<g>
</g>
<g>
</g>
<g>
</g>
<g>
</g>
<g>
</g>
<g>
</g>
<g>
</g>
<g>
</g>
<g>
</g>
<g>
</g>
<g>
</g>
<g>
</g>
<g>
</g>
<g>
</g>
</svg>
