<?xml version="1.0" encoding="UTF-8" standalone="no"?>
<!-- Created with Inkscape (http://www.inkscape.org/) -->

<svg
   xmlns:dc="http://purl.org/dc/elements/1.1/"
   xmlns:cc="http://creativecommons.org/ns#"
   xmlns:rdf="http://www.w3.org/1999/02/22-rdf-syntax-ns#"
   xmlns:svg="http://www.w3.org/2000/svg"
   xmlns="http://www.w3.org/2000/svg"
   xmlns:sodipodi="http://sodipodi.sourceforge.net/DTD/sodipodi-0.dtd"
   xmlns:inkscape="http://www.inkscape.org/namespaces/inkscape"
   width="512"
   height="512"
   viewBox="0 0 135.46666 135.46666"
   version="1.1"
   id="svg8"
   inkscape:version="0.92.4 (unknown)"
   sodipodi:docname="drawing.svg">
  <defs
     id="defs2" />
  <sodipodi:namedview
     id="base"
     pagecolor="#ffffff"
     bordercolor="#666666"
     borderopacity="1.0"
     inkscape:pageopacity="0.0"
     inkscape:pageshadow="2"
     inkscape:zoom="0.49497475"
     inkscape:cx="134.16414"
     inkscape:cy="286.09947"
     inkscape:document-units="mm"
     inkscape:current-layer="layer1"
     showgrid="false"
     width="256mm"
     units="px"
     inkscape:window-width="1366"
     inkscape:window-height="708"
     inkscape:window-x="0"
     inkscape:window-y="0"
     inkscape:window-maximized="1" />
  <metadata
     id="metadata5">
    <rdf:RDF>
      <cc:Work
         rdf:about="">
        <dc:format>image/svg+xml</dc:format>
        <dc:type
           rdf:resource="http://purl.org/dc/dcmitype/StillImage" />
        <dc:title></dc:title>
      </cc:Work>
    </rdf:RDF>
  </metadata>
  <g
     inkscape:label="Layer 1"
     inkscape:groupmode="layer"
     id="layer1"
     transform="translate(0,-161.53335)">
    <g
       id="g60"
       transform="matrix(0.90714285,0,0,0.90714285,-1.8142857,160.62622)">
      <path
         id="path29"
         d="M 4,44 H 8 V 62 H 4 Z"
         inkscape:connector-curvature="0"
         style="fill:#976947" />
      <path
         id="path31"
         d="m 2,2 h 8 V 44 H 2 Z"
         inkscape:connector-curvature="0"
         style="fill:#f5cf88" />
      <path
         id="path33"
         d="m 10,37 h 8 v 2 h -8 z"
         inkscape:connector-curvature="0"
         style="fill:#4d5d7a" />
      <path
         id="path35"
         d="M 49.122,38.521 48.861,39 c -0.774,1.419 -1.453,2.883 -2.078,4.37 L 43.414,40 43.707,39.707 42.293,38.293 42,38.586 41.707,38.293 40.293,39.707 40.586,40 38.5,42.086 36.414,40 36.707,39.707 35.293,38.293 35,38.586 34.707,38.293 33.293,39.707 33.586,40 31.5,42.086 29.414,40 29.707,39.707 28.293,38.293 28,38.586 27.707,38.293 26.293,39.707 26.586,40 24.5,42.086 20.707,38.293 20,39 l -0.878,0.479 0.261,0.479 C 23.058,46.695 25,54.312 25,61.985 V 62 l 2,-0.015 c 0,-1.772 -0.116,-3.54 -0.312,-5.297 l 0.019,0.019 1.293,-1.293 2.086,2.086 -2.793,2.793 1.414,1.414 2.793,-2.793 2.793,2.793 L 35,61 l 0.707,0.707 2.793,-2.793 2.793,2.793 1.414,-1.414 -2.793,-2.793 3.832,-3.832 C 43.262,56.413 43,59.201 43,62 l 2,-0.015 c 0,-7.673 1.942,-15.29 5.617,-22.028 l 0.261,-0.479 z M 35,48.414 37.086,50.5 35,52.586 32.914,50.5 Z M 31.5,49.086 29.414,47 31.5,44.914 33.586,47 Z M 36.414,47 38.5,44.914 40.586,47 38.5,49.086 Z M 42,48.414 44.086,50.5 42,52.586 39.914,50.5 Z M 43.414,47 45.5,44.914 l 0.483,0.483 c -0.381,1.035 -0.723,2.082 -1.032,3.14 z M 42,41.414 44.086,43.5 42,45.586 39.914,43.5 Z m -7,0 L 37.086,43.5 35,45.586 32.914,43.5 Z m -7,0 L 30.086,43.5 28,45.586 25.914,43.5 Z M 26.586,47 25.049,48.536 C 24.583,46.94 24.042,45.368 23.413,43.827 Z m -0.241,7.241 C 26.154,53.074 25.926,51.914 25.649,50.764 L 28,48.414 30.086,50.5 Z M 29.414,54 31.5,51.914 33.586,54 31.5,56.086 Z M 35,59.586 32.914,57.5 35,55.414 37.086,57.5 Z M 36.414,54 38.5,51.914 40.586,54 38.5,56.086 Z"
         inkscape:connector-curvature="0"
         style="fill:#4d5d7a" />
      <path
         id="path37"
         d="m 18,36 h 34 v 4 H 18 Z"
         inkscape:connector-curvature="0"
         style="fill:#3d98f7" />
    </g>
    <g
       id="g147"
       transform="matrix(0.1873472,0,0,0.1873472,74.319563,200.91837)">
      <path
         id="path62"
         d="m 235.132,203.104 -47.047,-62.093 c -2.794,-3.687 -3.774,-8.438 -2.669,-12.93 L 203.4,54.987 c 2.024,-8.227 10.334,-13.258 18.563,-11.231 8.227,2.024 13.256,10.335 11.231,18.563 l -16.236,65.992 42.631,56.264 c 5.117,6.753 3.791,16.376 -2.962,21.492 -6.769,5.127 -16.388,3.778 -21.495,-2.963 z"
         style="fill:#ffb69e"
         inkscape:connector-curvature="0" />
      <circle
         id="circle64"
         r="35.504002"
         cy="116.209"
         cx="272.474"
         style="fill:#f0ab95" />
      <g
         id="g70">
	<path
   id="path66"
   d="m 286.191,493.258 -9.205,-109.435 c -0.059,-0.705 -0.082,-1.414 -0.068,-2.121 v -77.52 c 0.225,-11.295 11.131,-20.26 22.401,-20.044 11.295,0.225 18.748,9.564 18.523,20.858 v 76.458 l 9.116,108.376 c 0.947,11.257 -7.411,21.15 -18.669,22.098 -11.232,0.942 -21.15,-7.383 -22.098,-18.67 z"
   style="fill:#ffb69e"
   inkscape:connector-curvature="0" />

	<path
   id="path68"
   d="m 225.04,467.386 -14.046,-85.912 c -0.547,-3.34 -0.255,-6.763 0.847,-9.963 l 24.935,-72.385 c 3.68,-10.681 15.319,-16.358 26.002,-12.678 10.681,3.68 16.357,15.321 12.678,26.002 l -23.257,67.512 13.214,80.823 c 1.823,11.149 -5.738,21.665 -16.887,23.488 -11.147,1.823 -21.664,-5.738 -23.486,-16.887 z"
   style="fill:#ffb69e"
   inkscape:connector-curvature="0" />

</g>
      <path
         id="path72"
         d="m 317.842,380.671 v -75.676 c 0.225,-11.295 -7.227,-20.634 -18.523,-20.858 -11.27,-0.216 -22.175,8.75 -22.401,20.044 v 76.49 z"
         style="fill:#fa870a"
         inkscape:connector-curvature="0" />
      <path
         id="path74"
         d="m 252.316,380.671 -0.117,-0.71 23.257,-67.512 c 3.679,-10.681 -1.997,-22.322 -12.678,-26.002 -10.684,-3.68 -22.323,1.997 -26.002,12.678 l -24.935,72.385 z"
         style="fill:#e37b09"
         inkscape:connector-curvature="0" />
      <circle
         id="circle76"
         r="34.800999"
         cy="34.800999"
         cx="247.36099"
         style="fill:#ff640a" />
      <path
         id="path78"
         d="m 212.558,34.801 c 0,-0.832 0.039,-1.654 0.096,-2.471 h 14.174 c -0.508,-6.731 -3.072,-13.015 -7.439,-18.235 0.997,-1.344 2.087,-2.613 3.262,-3.798 l 0.05,0.057 c 5.336,6.129 8.543,13.905 9.078,21.976 h 13.107 V 0.096 C 245.706,0.039 246.528,0 247.36,0 c 0.832,0 1.654,0.04 2.472,0.096 v 32.233 h 13.106 c 0.536,-8.07 3.742,-15.846 9.078,-21.976 l 0.05,-0.058 c 1.176,1.185 2.266,2.454 3.262,3.798 -4.368,5.222 -6.931,11.505 -7.439,18.235 h 14.174 c 0.057,0.817 0.097,1.64 0.097,2.471 0,0.832 -0.039,1.654 -0.097,2.471 h -14.174 c 0.509,6.731 3.072,13.015 7.439,18.235 -0.996,1.344 -2.087,2.613 -3.262,3.798 l -0.05,-0.058 C 266.68,53.116 263.473,45.341 262.938,37.27 h -13.106 v 32.233 c -0.817,0.057 -1.64,0.097 -2.472,0.097 -0.832,0 -1.654,-0.039 -2.471,-0.097 V 37.272 h -13.107 c -0.536,8.07 -3.742,15.846 -9.078,21.975 l -0.05,0.058 c -1.176,-1.185 -2.266,-2.454 -3.262,-3.798 4.368,-5.221 6.931,-11.503 7.439,-18.235 h -14.174 c -0.058,-0.817 -0.099,-1.639 -0.099,-2.471 z"
         style="fill:#cd5014"
         inkscape:connector-curvature="0" />
      <path
         id="path80"
         d="m 227.109,327.182 h 90.732 V 197.006 c 0,-17.59 -14.26,-31.85 -31.85,-31.85 h -27.032 c -17.59,0 -31.85,14.26 -31.85,31.85 z"
         style="fill:#ffa50a"
         inkscape:connector-curvature="0" />
      <path
         id="path82"
         d="m 288.522,203.34 c -0.356,0 -0.712,-0.012 -1.072,-0.037 -8.452,-0.584 -14.832,-7.91 -14.248,-16.362 L 278.5,110.244 244.917,41.539 c -3.721,-7.612 -0.567,-16.8 7.046,-20.52 7.613,-3.721 16.8,-0.566 20.519,7.045 l 35.388,72.398 c 1.183,2.42 1.708,5.108 1.522,7.794 l -5.58,80.798 c -0.559,8.095 -7.299,14.286 -15.29,14.286 z"
         style="fill:#ffb69e"
         inkscape:connector-curvature="0" />
      <g
         id="g84">
</g>
      <g
         id="g86">
</g>
      <g
         id="g88">
</g>
      <g
         id="g90">
</g>
      <g
         id="g92">
</g>
      <g
         id="g94">
</g>
      <g
         id="g96">
</g>
      <g
         id="g98">
</g>
      <g
         id="g100">
</g>
      <g
         id="g102">
</g>
      <g
         id="g104">
</g>
      <g
         id="g106">
</g>
      <g
         id="g108">
</g>
      <g
         id="g110">
</g>
      <g
         id="g112">
</g>
    </g>
  </g>
</svg>
