<?xml version="1.0" encoding="iso-8859-1"?>
<!-- Generator: Adobe Illustrator 19.0.0, SVG Export Plug-In . SVG Version: 6.00 Build 0)  -->
<svg version="1.1" id="Capa_1" xmlns="http://www.w3.org/2000/svg" xmlns:xlink="http://www.w3.org/1999/xlink" x="0px" y="0px"
	 viewBox="0 0 512 512" style="enable-background:new 0 0 512 512;" xml:space="preserve">
<g>
	<g>
		<path d="M403.626,85.731H139.537c-8.181,0-14.813-6.632-14.813-14.813v-7.412c0-8.341-6.762-15.103-15.103-15.103H30.206
			C13.524,48.403,0,61.926,0,78.609v254.163l38.757-188.557c1.416-6.888,7.478-11.831,14.51-11.831h380.565v-16.447
			C433.832,99.254,420.308,85.731,403.626,85.731z"/>
	</g>
</g>
<g>
	<g>
		<path d="M481.79,162.01H65.345v0L7.058,445.577c-1.912,9.304,5.194,18.02,14.693,18.02h433.357
			c15.397,0,28.33-11.581,30.023-26.885l26.682-241.174C513.792,177.649,499.787,162.01,481.79,162.01z"/>
	</g>
</g>
<g>
</g>
<g>
</g>
<g>
</g>
<g>
</g>
<g>
</g>
<g>
</g>
<g>
</g>
<g>
</g>
<g>
</g>
<g>
</g>
<g>
</g>
<g>
</g>
<g>
</g>
<g>
</g>
<g>
</g>
</svg>
