<svg id="Capa_1" enable-background="new 0 0 512 512" height="512" viewBox="0 0 512 512" width="512" xmlns="http://www.w3.org/2000/svg"><g><g><path d="m112.343 93.388c-.082 0-.165-.001-.248-.004-3.522-.113-6.522-2.594-7.293-6.032l-12.896-57.54c-.933-4.164 1.686-8.296 5.85-9.229 4.161-.935 8.296 1.686 9.229 5.849l6.344 28.305 9.931-33.987c1.197-4.097 5.489-6.447 9.584-5.249 4.096 1.197 6.446 5.488 5.249 9.584l-18.334 62.744c-.967 3.302-3.995 5.559-7.416 5.559z" fill="#e27d47"/></g><path d="m414.501 355.393h-14.849-43.91-4.23-14.849-224.831v46.255h156.185c6.173 0 11.055 5.057 11.043 11.23v.117 76.481c0 4.052 3.285 7.336 7.336 7.336h178.371c4.052 0 7.336-3.284 7.336-7.336v-76.481c0-31.813-25.789-57.602-57.602-57.602z" fill="#80b4fb"/><path d="m414.501 355.393h-28.067c31.813 0 57.602 25.789 57.602 57.602v76.481c0 4.052-3.284 7.336-7.336 7.336h28.067c4.052 0 7.336-3.285 7.336-7.336v-76.481c0-31.813-25.789-57.602-57.602-57.602z" fill="#61a2f9"/><path d="m239.163 122.921v127.885c0 8.2 6.647 14.847 14.847 14.847h243.143c8.2 0 14.847-6.647 14.847-14.847v-127.885c0-30.12-24.417-54.537-54.537-54.537-9.269 0-18.256 3.188-25.454 9.028l-2.992 2.428c-.908.737-2.194.784-3.154.117l-6.239-4.34c-6.77-4.709-14.819-7.233-23.066-7.233h-102.858c-30.12-.001-54.537 24.417-54.537 54.537z" fill="#365e7d"/><g><path d="m457.463 68.383c-4.607 0-9.144.789-13.427 2.298 22.477 6.736 38.86 27.57 38.86 52.239v127.885c0 8.2-6.647 14.847-14.847 14.847h29.104c8.2 0 14.847-6.647 14.847-14.847v-127.884c0-30.12-24.417-54.538-54.537-54.538z" fill="#2b4d66"/></g><path d="m391.636 312.919-30.799-1.812c-7.863 0-8.209 36.842-8.209 36.842v22.554c0 12.665 10.267 22.933 22.933 22.933 12.665 0 22.933-10.267 22.933-22.933v-22.554s1.005-35.03-6.858-35.03z" fill="#eaac9d"/><path d="m375.582 355.393c-61.119 0-110.665-49.546-110.665-110.664v-66.934c0-1.607 1.307-2.904 2.914-2.907 51.218-.094 96.485-7.43 136.863-33.522 1.206-.78 2.819-.53 3.683.617 18.234 24.207 43.103 30.906 74.968 32.749 1.625.094 2.9 1.429 2.9 3.057v66.94c.001 61.118-49.545 110.664-110.663 110.664z" fill="#ffcbbe"/><path d="m483.346 174.731c-9.376-.543-18.142-1.512-26.316-3.217v73.214c0 56.166-41.843 102.553-96.056 109.703 4.78.631 9.655.961 14.608.961 61.118 0 110.664-49.546 110.664-110.664v-66.94c0-1.628-1.275-2.963-2.9-3.057z" fill="#eaac9d"/><g><g><path d="m326.309 252.294c-4.268 0-7.726-3.459-7.726-7.726v-6.444c0-4.268 3.459-7.726 7.726-7.726s7.726 3.459 7.726 7.726v6.444c0 4.267-3.459 7.726-7.726 7.726z" fill="#365e7d"/></g><g><path d="m424.855 252.294c-4.268 0-7.726-3.459-7.726-7.726v-6.444c0-4.268 3.459-7.726 7.726-7.726s7.726 3.459 7.726 7.726v6.444c0 4.267-3.459 7.726-7.726 7.726z" fill="#365e7d"/></g></g><g><path d="m375.582 307.227c-12.169 0-24.338-3.353-36.423-10.059-3.731-2.07-5.076-6.774-3.006-10.505 2.071-3.731 6.773-5.075 10.505-3.006 19.462 10.801 38.382 10.802 57.846 0 3.732-2.069 8.434-.725 10.505 3.006 2.07 3.731.724 8.435-3.006 10.505-12.084 6.706-24.253 10.059-36.421 10.059z" fill="#da4a54"/></g><path d="m260.768 289.249h-248.699c-6.665 0-12.069-5.403-12.069-12.069v-120.385c0-62.044 50.297-112.341 112.341-112.341h48.155c62.044 0 112.341 50.297 112.341 112.341v120.385c0 6.666-5.404 12.069-12.069 12.069z" fill="#e49542"/><path d="m160.496 44.454h-32.672c62.044 0 112.341 50.297 112.341 112.341v120.385c0 6.665-5.404 12.069-12.069 12.069h32.672c6.666 0 12.069-5.404 12.069-12.069v-120.385c0-62.044-50.297-112.341-112.341-112.341z" fill="#e27d47"/><path d="m175.338 355.393h-15.987-45.866-15.986c-31.813 0-57.602 25.789-57.602 57.602v76.481c0 4.052 3.285 7.336 7.336 7.336h178.371c4.052 0 7.336-3.285 7.336-7.336v-76.481c0-31.813-25.789-57.602-57.602-57.602z" fill="#95d6a4"/><path d="m175.338 355.393h-28.067c31.813 0 57.602 25.789 57.602 57.602v76.481c0 4.052-3.284 7.336-7.336 7.336h28.067c4.052 0 7.336-3.285 7.336-7.336v-76.481c0-31.813-25.789-57.602-57.602-57.602z" fill="#78c2a4"/><path d="m152.473 312.919-30.799-1.812c-7.864 0-8.209 36.842-8.209 36.842v22.554c0 12.665 10.267 22.933 22.933 22.933 12.665 0 22.933-10.267 22.933-22.933v-22.554c-.001 0 1.005-35.03-6.858-35.03z" fill="#eaac9d"/><path d="m136.419 355.393c-61.119 0-110.665-49.546-110.665-110.664v-66.934c0-1.607 1.307-2.904 2.914-2.907 51.218-.094 96.485-7.43 136.863-33.522 1.206-.78 2.819-.53 3.683.617 18.234 24.207 43.103 30.906 74.968 32.749 1.625.094 2.9 1.429 2.9 3.057v66.94c.001 61.118-49.545 110.664-110.663 110.664z" fill="#ffcbbe"/><path d="m244.183 174.731c-9.376-.543-18.142-1.512-26.316-3.217v73.214c0 56.166-41.843 102.553-96.056 109.703 4.78.631 9.656.961 14.608.961 61.118 0 110.664-49.546 110.664-110.664v-66.94c0-1.628-1.276-2.963-2.9-3.057z" fill="#eaac9d"/><g><g><path d="m87.146 252.294c-4.267 0-7.726-3.459-7.726-7.726v-6.444c0-4.268 3.459-7.726 7.726-7.726s7.726 3.459 7.726 7.726v6.444c0 4.267-3.459 7.726-7.726 7.726z" fill="#365e7d"/></g><g><path d="m185.691 252.294c-4.267 0-7.726-3.459-7.726-7.726v-6.444c0-4.268 3.459-7.726 7.726-7.726s7.726 3.459 7.726 7.726v6.444c.001 4.267-3.459 7.726-7.726 7.726z" fill="#365e7d"/></g></g><g><path d="m136.419 307.227c-12.169 0-24.338-3.353-36.422-10.059-3.731-2.07-5.077-6.774-3.006-10.505s6.774-5.075 10.505-3.006c19.461 10.801 38.383 10.801 57.846 0 3.73-2.07 8.434-.725 10.505 3.006s.725 8.435-3.006 10.505c-12.085 6.706-24.254 10.059-36.422 10.059z" fill="#da4a54"/></g><path d="m71.599 402.517h-25.256c-5.515 0-9.986-4.471-9.986-9.986v-44.903c0-5.515 4.471-9.986 9.986-9.986h25.256c5.515 0 9.986 4.471 9.986 9.986v44.903c0 5.515-4.471 9.986-9.986 9.986z" fill="#ffcbbe"/></g></svg>