<svg id="Capa_1" enable-background="new 0 0 512.084 512.084" height="512" viewBox="0 0 512.084 512.084" width="512" xmlns="http://www.w3.org/2000/svg"><g id="XMLID_1528_"><g id="XMLID_1385_"><path id="XMLID_1388_" d="m493.688 466.167c-4.395-3.347-10.668-2.497-14.015 1.896-11.587 15.212-29.185 23.937-48.282 23.937h-13.687c-33.443 0-60.652-27.208-60.652-60.651 0-18.133 8.012-35.164 21.981-46.726l26.467-21.905h38.094l26.466 21.904c3.446 2.853 6.578 6.09 9.309 9.621 1.971 2.549 4.928 3.883 7.918 3.883 2.137 0 4.29-.682 6.11-2.089 4.369-3.379 5.172-9.659 1.794-14.028-3.632-4.696-7.796-9.001-12.378-12.794l-13.254-10.969c1.053-1.584 1.67-3.483 1.67-5.528 0-5.522-4.478-10-10-10h-.71l9.777-28.314c2.001-5.795 1.072-12.235-2.486-17.229-2.829-3.971-7.068-6.662-11.768-7.601.029-2.796-.079-5.594-.341-8.38l-1.607-17.036c1.854-.379 3.621-1.283 5.059-2.721 3.905-3.905 3.905-10.237 0-14.143l-.466-.466 26.755-13.021c5.513-2.683 9.41-7.894 10.424-13.94 1.015-6.047-.968-12.245-5.303-16.579l-39.099-39.1c-4.336-4.335-10.535-6.314-16.58-5.302-6.046 1.015-11.257 4.912-13.939 10.424l-13.021 26.755-.465-.465c-3.906-3.904-10.236-3.904-14.143 0-1.438 1.438-2.342 3.205-2.721 5.059l-17.037-1.606c-23.941-2.254-47.407 6.197-64.403 23.194-2.737 2.737-5.245 5.656-7.542 8.722l-35.647-47.922c-11.479-15.431-29.068-23.991-48.318-23.578-19.227.447-36.419 9.852-47.169 25.8l-10.338 15.339h-9.04l-39.946-39.946c-7.408-7.408-19.462-7.406-26.871 0l-.707.707-14.849-14.849c-7.408-7.408-19.462-7.407-26.871 0l-15.556 15.557c-3.589 3.588-5.565 8.359-5.565 13.436 0 5.075 1.977 9.847 5.565 13.435l14.849 14.849-.707.707c-7.407 7.407-7.408 19.461 0 26.871l41.444 41.444-1.753 12.153-50.19 43.194c-1.423 1.225-2.473 2.824-3.028 4.618l-26.424 85.238c-1.636 5.274 1.315 10.877 6.59 12.513.986.306 1.983.451 2.964.451 4.267 0 8.219-2.753 9.548-7.042l25.576-82.495 50.853-43.763c1.831-1.576 3.03-3.762 3.375-6.152l6.139-42.563c2.332-16.169 16.41-28.362 32.746-28.362h27.18c3.326 0 6.434-1.653 8.292-4.411l13.311-19.75c7.076-10.498 18.393-16.688 31.049-16.982 12.654-.315 24.249 5.362 31.806 15.521l53.032 71.294c12.648 17.003 30.943 29.167 51.513 34.253 8.043 1.989 15.855 4.813 23.313 8.397.07 1.845.406 3.689 1.021 5.473l9.777 28.315h-.71c-5.522 0-10 4.478-10 10 0 2.044.616 3.944 1.67 5.528l-13.254 10.969c-18.576 15.375-29.229 38.021-29.229 62.134 0 44.472 36.181 80.651 80.652 80.651h13.687c25.393 0 48.789-11.598 64.192-31.818 3.345-4.395 2.497-10.669-1.897-14.016zm-452.534-290.655 14.142-14.142 14.142 14.141-14.142 14.143zm44.588 70.603-.286 1.983-30.16-30.16 42.426-42.427 26.914 26.914c-20.05 5.408-35.823 22.394-38.894 43.69zm323.992 96.603-11.573-33.517h52.772l-11.573 33.517zm28.581-163.393 37.113 37.114-31.702 15.429-20.84-20.84zm-119.315 75.017-4.753-6.39c2.523-4.185 5.551-8.061 9.052-11.563 12.768-12.77 30.397-19.126 48.383-17.424l34.07 3.212 26.824 26.824 3.214 34.071c.192 2.037.256 4.083.241 6.128h-39.271c-3.208 0-6.318.823-9.067 2.316-9.069-4.47-18.598-7.972-28.425-10.401-16.081-3.973-30.381-13.482-40.268-26.773z"/><path id="XMLID_1394_" d="m289.142 345.637c-4.231 0-8.419.701-12.391 2.057-8.279-6.718-18.682-10.466-29.474-10.466-25.791 0-46.773 20.982-46.773 46.772 0 5.522 4.477 10 10 10s10-4.478 10-10c0-14.763 12.01-26.772 26.773-26.772 7.627 0 14.918 3.274 20 8.985 3.177 3.569 8.435 4.391 12.553 1.963 2.813-1.661 6.033-2.539 9.312-2.539 10.126 0 18.363 8.237 18.363 18.363 0 5.522 4.478 10 10 10s10-4.478 10-10c.001-21.153-17.209-38.363-38.363-38.363z"/><path id="XMLID_1395_" d="m211.025 299.306c0-20.115-16.365-36.48-36.481-36.48s-36.481 16.365-36.481 36.48c0 5.522 4.477 10 10 10s10-4.478 10-10c0-9.087 7.394-16.48 16.481-16.48s16.481 7.394 16.481 16.48c0 5.522 4.477 10 10 10s10-4.478 10-10z"/><path id="XMLID_1396_" d="m264.006 438.76c-20.116 0-36.481 16.365-36.481 36.48 0 5.522 4.477 10 10 10s10-4.478 10-10c0-9.087 7.394-16.48 16.481-16.48s16.48 7.394 16.48 16.48c0 5.522 4.478 10 10 10s10-4.478 10-10c0-20.115-16.365-36.48-36.48-36.48z"/><path id="XMLID_1397_" d="m310.676 172.001c5.522 0 10-4.478 10-10v-5c0-5.522-4.478-10-10-10s-10 4.478-10 10v5c0 5.522 4.477 10 10 10z"/><path id="XMLID_1398_" d="m377.17 116.001h10.324c5.522 0 10-4.478 10-10s-4.478-10-10-10h-10.324c-5.522 0-10 4.478-10 10s4.477 10 10 10z"/><path id="XMLID_1399_" d="m323.703 125.36c2.332 0 4.676-.812 6.57-2.465 1.92-1.675 4.053-3.079 6.338-4.172 4.982-2.383 7.09-8.354 4.707-13.336-2.384-4.982-8.354-7.086-13.336-4.707-3.92 1.875-7.573 4.279-10.857 7.145-4.162 3.631-4.592 9.948-.961 14.109 1.977 2.267 4.751 3.426 7.539 3.426z"/><path id="XMLID_1400_" d="m440.944 62.031c1.708 1.534 3.119 3.334 4.193 5.35 1.8 3.375 5.258 5.297 8.833 5.297 1.587 0 3.198-.379 4.696-1.178 4.873-2.599 6.718-8.656 4.119-13.529-2.176-4.081-5.028-7.721-8.477-10.818-4.108-3.69-10.432-3.353-14.122.757-3.689 4.108-3.35 10.43.758 14.121z"/><path id="XMLID_1401_" d="m432.885 115.588c.555 0 1.116-.047 1.682-.143 4.573-.774 8.937-2.338 12.969-4.646 4.792-2.744 6.452-8.854 3.708-13.647-2.743-4.792-8.853-6.453-13.647-3.708-1.981 1.135-4.124 1.902-6.369 2.283-5.445.922-9.112 6.084-8.189 11.529.824 4.88 5.056 8.332 9.846 8.332z"/><path id="XMLID_1403_" d="m399.009 57.053h5c5.522 0 10-4.478 10-10s-4.478-10-10-10h-5c-5.522 0-10 4.478-10 10s4.477 10 10 10z"/><path id="XMLID_1404_" d="m160.01 101.322c5.523 0 10-4.478 10-10v-9.322c0-.292-.002-.582-.008-.872-.108-5.521-4.679-9.888-10.193-9.804-5.521.107-9.911 4.671-9.803 10.192l.004 9.806c0 5.523 4.477 10 10 10z"/><path id="XMLID_1405_" d="m125.383 56.035c2.416.126 4.792.583 7.062 1.36 1.074.368 2.167.543 3.241.543 4.156 0 8.038-2.611 9.46-6.763 1.79-5.225-.995-10.911-6.22-12.7-4.028-1.38-8.235-2.191-12.507-2.413-5.547-.309-10.219 3.952-10.505 9.469-.286 5.515 3.953 10.218 9.469 10.504z"/><path id="XMLID_1406_" d="m39.838 29.872c.905 0 1.827-.124 2.741-.385 5.312-1.511 8.393-7.042 6.882-12.354-.655-2.305-.988-4.704-.988-7.133 0-5.522-4.477-10-10-10s-10 4.478-10 10c0 4.279.589 8.521 1.751 12.605 1.252 4.398 5.258 7.267 9.614 7.267z"/><path id="XMLID_1407_" d="m71.205 55.885c1.073.075 2.168.114 3.269.115h7.429c5.523 0 10-4.478 10-10s-4.477-10-10-10h-7.418c-.631-.001-1.263-.023-1.878-.066-5.508-.382-10.29 3.766-10.676 9.275-.388 5.509 3.765 10.289 9.274 10.676z"/><path id="XMLID_1408_" d="m174.544 413.18h-23.679v-23.68c0-5.522-4.477-10-10-10s-10 4.478-10 10v29.575c-.132.119-.268.23-.396.357l-18.808 18.808v-23.985c0-5.522-4.477-10-10-10s-10 4.478-10 10v43.985l-19.701 19.701v-15.558c0-5.522-4.477-10-10-10s-10 4.478-10 10v39.7c0 5.522 4.477 10 10 10h39.701c5.523 0 10-4.478 10-10s-4.477-10-10-10h-15.558l19.7-19.7h43.985c5.523 0 10-4.478 10-10s-4.477-10-10-10h-23.985l18.809-18.809c.127-.127.239-.264.357-.396h29.575c5.523 0 10-4.478 10-10s-4.477-9.998-10-9.998z"/><path id="XMLID_1411_" d="m509.113 424.282c-1.859-1.86-4.439-2.931-7.069-2.931s-5.21 1.07-7.07 2.931c-1.86 1.85-2.93 4.43-2.93 7.069 0 2.63 1.069 5.21 2.93 7.07s4.44 2.93 7.07 2.93 5.21-1.069 7.069-2.93c1.86-1.86 2.931-4.44 2.931-7.07 0-2.639-1.071-5.209-2.931-7.069z"/></g></g></svg>