<?xml version="1.0" encoding="UTF-8" standalone="no"?>
<svg
   xmlns:dc="http://purl.org/dc/elements/1.1/"
   xmlns:cc="http://creativecommons.org/ns#"
   xmlns:rdf="http://www.w3.org/1999/02/22-rdf-syntax-ns#"
   xmlns:svg="http://www.w3.org/2000/svg"
   xmlns="http://www.w3.org/2000/svg"
   xmlns:sodipodi="http://sodipodi.sourceforge.net/DTD/sodipodi-0.dtd"
   xmlns:inkscape="http://www.inkscape.org/namespaces/inkscape"
   id="Layer_1"
   enable-background="new 0 0 512 512"
   height="512"
   viewBox="0 0 512 512"
   width="512"
   version="1.1"
   sodipodi:docname="map-unknown.svg"
   inkscape:version="1.0.1 (3bc2e813f5, 2020-09-07)">
  <metadata
     id="metadata85">
    <rdf:RDF>
      <cc:Work
         rdf:about="">
        <dc:format>image/svg+xml</dc:format>
        <dc:type
           rdf:resource="http://purl.org/dc/dcmitype/StillImage" />
      </cc:Work>
    </rdf:RDF>
  </metadata>
  <defs
     id="defs83" />
  <sodipodi:namedview
     pagecolor="#ffffff"
     bordercolor="#666666"
     borderopacity="1"
     objecttolerance="10"
     gridtolerance="10"
     guidetolerance="10"
     inkscape:pageopacity="0"
     inkscape:pageshadow="2"
     inkscape:window-width="1920"
     inkscape:window-height="1016"
     id="namedview81"
     showgrid="false"
     inkscape:zoom="1.1951944"
     inkscape:cx="188.69415"
     inkscape:cy="235.34749"
     inkscape:window-x="1366"
     inkscape:window-y="0"
     inkscape:window-maximized="1"
     inkscape:current-layer="Layer_1"
     inkscape:document-rotation="0" />
  <g
     id="g78">
    <g
       id="g4">
      <path
         clip-rule="evenodd"
         d="m170.657 121.842-135.761 51.222v142.451l155.414-25.348z"
         id="path2"
         style="fill:#a7ac93" />
    </g>
    <g
       id="g8">
      <path
         clip-rule="evenodd"
         d="m242.348 282.691-71.691-160.849v161.579z"
         id="path6"
         style="fill:#8a916f" />
    </g>
    <g
       id="g12">
      <path
         clip-rule="evenodd"
         d="m170.657 314.085-135.761 48.651v67.634l135.761-51.222 5.139-32.765z"
         id="path10"
         style="fill:#a7ac93" />
    </g>
    <g
       id="g16">
      <path
         clip-rule="evenodd"
         d="m170.657 283.421-135.761 32.094v47.221l135.761-34.751 11.214-25.056z"
         id="path14"
         style="fill:#c8b7b7" />
    </g>
    <g
       id="g20">
      <path
         clip-rule="evenodd"
         d="m34.896 315.515v-142.451l135.761-51.222 13.228-9.929-13.228-25.552-170.657 64.363v328.298l170.657-64.363 9.812-14.222-9.812-21.289-135.761 51.222v-67.634z"
         id="path18"
         style="fill:#dedbe3" />
    </g>
    <g
       id="g24">
      <path
         clip-rule="evenodd"
         d="m341.314 186.234-115.436-43.541 28.355 130.741 87.081-32.415 12.06-28.999z"
         id="path22"
         style="fill:#8a916f" />
    </g>
    <g
       id="g28">
      <path
         clip-rule="evenodd"
         d="m245.589 299.249-74.932 28.736v51.163l93.622 35.336z"
         id="path26"
         style="fill:#8a916f" />
    </g>
    <g
       id="g32">
      <path
         clip-rule="evenodd"
         d="m477.074 250.364-62.638 6.629-73.122 27.83-15.536 65.765 15.536 92.953 149.66-38.11z"
         id="path30"
         style="fill:#93a7ac" />
    </g>
    <g
       id="g36">
      <path
         clip-rule="evenodd"
         d="m490.974 121.9-149.66 64.334v54.785l72.596-7.447 63.164-27.334z"
         id="path34"
         style="fill:#a7ac93" />
    </g>
    <g
       id="g40">
      <path
         clip-rule="evenodd"
         d="m512 86.361-170.686 64.363-7.359 13.667 7.359 21.843 135.76-51.221v71.225 44.126 141.955l-135.76 51.222-12.528 16.558 12.528 18.923 170.686-64.363z"
         id="path38"
         style="fill:#dedbe3" />
    </g>
    <g
       id="g44">
      <path
         clip-rule="evenodd"
         d="m341.314 284.823-78.963 5.344 58.872 145.781 20.091 7.593z"
         id="path42"
         style="fill:#6f8a91" />
    </g>
    <g
       id="g48">
      <path
         clip-rule="evenodd"
         d="m477.074 206.238-135.76 34.781-11.272 24.735 11.272 19.069 135.76-34.459z"
         id="path46"
         style="fill:#c8b7b7" />
    </g>
    <g
       id="g52">
      <path
         clip-rule="evenodd"
         d="m261.826 261.403-35.948-118.71-24.471-17.522-30.75-3.329 46.898 150.482-46.898 11.097v44.564l61.061-15.623 32.561 102.122 22.923 17.492 34.021 3.972-40.883-135.647 60.974-15.478v-43.804z"
         id="path50"
         style="fill:#ac9d93" />
    </g>
    <g
       id="g56">
      <path
         clip-rule="evenodd"
         d="m341.314 150.724-170.657-64.363v35.481l55.221 20.851 115.436 43.541z"
     
         fill-rule="evenodd"
         id="path54"
         style="fill:#beb7c8" />
    </g>
    <g
       id="g60">
      <path
         clip-rule="evenodd"
         d="m264.279 414.484-93.622-35.336v35.511l170.657 64.363v-35.481l-20.091-7.593z"
         id="path58"
         style="fill:#beb7c8" />
    </g>
    <g
       id="g64">
      <path
         clip-rule="evenodd"
         d="m105.157 226.184-16.587-19.186c-14.893-19.858-31.597-39.073-39.948-62.786-19.945-56.42 9.87-111.234 69.443-111.234s89.388 54.814 69.443 111.234c-8.381 23.713-25.055 42.928-39.948 62.786l-16.587 19.186c-7.857 9.111-17.961 9.111-25.816 0z"
         id="path62"
         style="fill:#ac93a7" />
    </g>
    <g
       id="g68">
      <path
         clip-rule="evenodd"
         d="m157.458 109.635c0-21.756-17.638-39.395-39.394-39.395s-39.394 17.639-39.394 39.395c0 21.785 17.638 39.424 39.394 39.424s39.394-17.638 39.394-39.424z"
         fill="#f9f6f6"
         fill-rule="evenodd"
         id="path66" />
    </g>
    <g
       id="g72">
      <path
         clip-rule="evenodd"
         d="m157.458 109.635c0-21.756-17.638-39.395-39.394-39.395-1.343 0-2.657.058-3.971.204 13.024 18.953 22.456 43.688 26.515 71.518 10.192-7.125 16.85-18.952 16.85-32.327z"
         id="path70"
         style="fill:#dedbe3" />
    </g>
    <g
       id="g76">
      <path
         clip-rule="evenodd"
         d="m187.507 144.211c19.945-56.42-9.87-111.234-69.443-111.234-13.287 0-25.085 2.716-35.189 7.564 11.739 6.687 22.31 16.938 31.217 29.904 1.314-.146 2.628-.204 3.971-.204 21.756 0 39.394 17.639 39.394 39.395 0 13.375-6.658 25.202-16.85 32.328.672 4.585 1.197 9.257 1.577 14.017.438 5.607.672 11.301.672 17.084 0 15.682-1.665 30.751-4.731 44.856l9.432-10.922c12.352-16.47 25.931-32.503 35.013-51.017 1.841-3.798 3.506-7.711 4.937-11.771z"
         id="path74"
         style="fill:#ac93a7" />
    </g>
  </g>
  <g
     id="g893"
     transform="matrix(0.33629038,0,0,0.33969308,92.377793,90.722502)"
     style="fill:#333333">
    <g
       id="g836"
       style="fill:#333333">
      <path
         d="m 502.29,788.199 h -47 c -33.1,0 -60,26.9 -60,60 v 64.9 c 0,33.1 26.9,60 60,60 h 47 c 33.101,0 60,-26.9 60,-60 v -64.9 c 0,-33.199 -26.899,-60 -60,-60 z"
         id="path832"
         style="fill:#333333" />
      <path
         d="m 170.89,285.8 86.7,10.8 c 27.5,3.4 53.6,-12.4 63.5,-38.3 12.5,-32.7 29.9,-58.5 52.2,-77.3 31.601,-26.6 70.9,-40 117.9,-40 48.7,0 87.5,12.8 116.3,38.3 28.8,25.6 43.1,56.2 43.1,92.1 0,25.8 -8.1,49.4 -24.3,70.8 -10.5,13.6 -42.8,42.2 -96.7,85.9 -54,43.7 -89.899,83.099 -107.899,118.099 -18.4,35.801 -24.8,75.5 -26.4,115.301 -1.399,34.1 25.8,62.5 60,62.5 h 49 c 31.2,0 57,-23.9 59.8,-54.9 2,-22.299 5.7,-39.199 11.301,-50.699 9.399,-19.701 33.699,-45.701 72.699,-78.1 C 723.59,477.8 772.79,428.4 795.891,392 c 23,-36.3 34.6,-74.8 34.6,-115.5 0,-73.5 -31.3,-138 -94,-193.4 -62.6,-55.4 -147,-83.1 -253,-83.1 -100.8,0 -182.1,27.3 -244.1,82 -52.8,46.6 -84.9,101.8 -96.2,165.5 -3.501,18.6 9.199,36 27.699,38.3 z"
         id="path834"
         style="fill:#333333" />
    </g>
    <g
       id="g838"
       style="fill:#333333" />
    <g
       id="g840"
       style="fill:#333333" />
    <g
       id="g842"
       style="fill:#333333" />
    <g
       id="g844"
       style="fill:#333333" />
    <g
       id="g846"
       style="fill:#333333" />
    <g
       id="g848"
       style="fill:#333333" />
    <g
       id="g850"
       style="fill:#333333" />
    <g
       id="g852"
       style="fill:#333333" />
    <g
       id="g854"
       style="fill:#333333" />
    <g
       id="g856"
       style="fill:#333333" />
    <g
       id="g858"
       style="fill:#333333" />
    <g
       id="g860"
       style="fill:#333333" />
    <g
       id="g862"
       style="fill:#333333" />
    <g
       id="g864"
       style="fill:#333333" />
    <g
       id="g866"
       style="fill:#333333" />
  </g>
</svg>
