<svg id="Layer_1" enable-background="new 0 0 512 512" height="512" viewBox="0 0 512 512" width="512" xmlns="http://www.w3.org/2000/svg"><g><g><path clip-rule="evenodd" d="m170.657 121.842-135.761 51.222v142.451l155.414-25.348z" fill="#95d6a4" fill-rule="evenodd"/></g><g><path clip-rule="evenodd" d="m242.348 282.691-71.691-160.849v161.579z" fill="#78c2a4" fill-rule="evenodd"/></g><g><path clip-rule="evenodd" d="m170.657 314.085-135.761 48.651v67.634l135.761-51.222 5.139-32.765z" fill="#95d6a4" fill-rule="evenodd"/></g><g><path clip-rule="evenodd" d="m170.657 283.421-135.761 32.094v47.221l135.761-34.751 11.214-25.056z" fill="#ffd772" fill-rule="evenodd"/></g><g><path clip-rule="evenodd" d="m34.896 315.515v-142.451l135.761-51.222 13.228-9.929-13.228-25.552-170.657 64.363v328.298l170.657-64.363 9.812-14.222-9.812-21.289-135.761 51.222v-67.634z" fill="#f9f6f6" fill-rule="evenodd"/></g><g><path clip-rule="evenodd" d="m341.314 186.234-115.436-43.541 28.355 130.741 87.081-32.415 12.06-28.999z" fill="#78c2a4" fill-rule="evenodd"/></g><g><path clip-rule="evenodd" d="m245.589 299.249-74.932 28.736v51.163l93.622 35.336z" fill="#78c2a4" fill-rule="evenodd"/></g><g><path clip-rule="evenodd" d="m477.074 250.364-62.638 6.629-73.122 27.83-15.536 65.765 15.536 92.953 149.66-38.11z" fill="#90d8f9" fill-rule="evenodd"/></g><g><path clip-rule="evenodd" d="m490.974 121.9-149.66 64.334v54.785l72.596-7.447 63.164-27.334z" fill="#95d6a4" fill-rule="evenodd"/></g><g><path clip-rule="evenodd" d="m512 86.361-170.686 64.363-7.359 13.667 7.359 21.843 135.76-51.221v71.225 44.126 141.955l-135.76 51.222-12.528 16.558 12.528 18.923 170.686-64.363z" fill="#f9f6f6" fill-rule="evenodd"/></g><g><path clip-rule="evenodd" d="m341.314 284.823-78.963 5.344 58.872 145.781 20.091 7.593z" fill="#75cef8" fill-rule="evenodd"/></g><g><path clip-rule="evenodd" d="m477.074 206.238-135.76 34.781-11.272 24.735 11.272 19.069 135.76-34.459z" fill="#ffd772" fill-rule="evenodd"/></g><g><path clip-rule="evenodd" d="m261.826 261.403-35.948-118.71-24.471-17.522-30.75-3.329 46.898 150.482-46.898 11.097v44.564l61.061-15.623 32.561 102.122 22.923 17.492 34.021 3.972-40.883-135.647 60.974-15.478v-43.804z" fill="#fdb440" fill-rule="evenodd"/></g><g><path clip-rule="evenodd" d="m341.314 150.724-170.657-64.363v35.481l55.221 20.851 115.436 43.541z" fill="#ecdaec" fill-rule="evenodd"/></g><g><path clip-rule="evenodd" d="m264.279 414.484-93.622-35.336v35.511l170.657 64.363v-35.481l-20.091-7.593z" fill="#ecdaec" fill-rule="evenodd"/></g><g><path clip-rule="evenodd" d="m105.157 226.184-16.587-19.186c-14.893-19.858-31.597-39.073-39.948-62.786-19.945-56.42 9.87-111.234 69.443-111.234s89.388 54.814 69.443 111.234c-8.381 23.713-25.055 42.928-39.948 62.786l-16.587 19.186c-7.857 9.111-17.961 9.111-25.816 0z" fill="#dd636e" fill-rule="evenodd"/></g><g><path clip-rule="evenodd" d="m157.458 109.635c0-21.756-17.638-39.395-39.394-39.395s-39.394 17.639-39.394 39.395c0 21.785 17.638 39.424 39.394 39.424s39.394-17.638 39.394-39.424z" fill="#f9f6f6" fill-rule="evenodd"/></g><g><path clip-rule="evenodd" d="m157.458 109.635c0-21.756-17.638-39.395-39.394-39.395-1.343 0-2.657.058-3.971.204 13.024 18.953 22.456 43.688 26.515 71.518 10.192-7.125 16.85-18.952 16.85-32.327z" fill="#ecdaec" fill-rule="evenodd"/></g><g><path clip-rule="evenodd" d="m187.507 144.211c19.945-56.42-9.87-111.234-69.443-111.234-13.287 0-25.085 2.716-35.189 7.564 11.739 6.687 22.31 16.938 31.217 29.904 1.314-.146 2.628-.204 3.971-.204 21.756 0 39.394 17.639 39.394 39.395 0 13.375-6.658 25.202-16.85 32.328.672 4.585 1.197 9.257 1.577 14.017.438 5.607.672 11.301.672 17.084 0 15.682-1.665 30.751-4.731 44.856l9.432-10.922c12.352-16.47 25.931-32.503 35.013-51.017 1.841-3.798 3.506-7.711 4.937-11.771z" fill="#da4a54" fill-rule="evenodd"/></g></g></svg>