<?xml version="1.0" encoding="iso-8859-1"?>
<!-- Generator: Adobe Illustrator 19.0.0, SVG Export Plug-In . SVG Version: 6.00 Build 0)  -->
<svg version="1.1" id="Capa_1" xmlns="http://www.w3.org/2000/svg" xmlns:xlink="http://www.w3.org/1999/xlink" x="0px" y="0px"
	 viewBox="0 0 512 512" style="enable-background:new 0 0 512 512;" xml:space="preserve">
<g>
	<g>
		<path d="M467,74.5h-78v-12c0-8.284-6.716-15-15-15s-15,6.716-15,15v12H153v-12c0-8.284-6.716-15-15-15s-15,6.716-15,15v12H45
			c-24.813,0-45,20.187-45,45c0,4.472,0,294.927,0,300c0,24.813,20.187,45,45,45h422c24.813,0,45-20.187,45-45
			c0-5.116,0-295.532,0-300C512,94.687,491.813,74.5,467,74.5z M482,419.5c0,8.271-6.729,15-15,15H45c-8.271,0-15-6.729-15-15
			V191.162h452V419.5z M482,161.162H30V119.5c0-8.271,6.729-15,15-15h78v12c0,8.284,6.716,15,15,15s15-6.716,15-15v-12h206v12
			c0,8.284,6.716,15,15,15s15-6.716,15-15v-12h78c8.271,0,15,6.729,15,15V161.162z"/>
	</g>
</g>
<g>
	<g>
		<path d="M447,297.831H334.667v-71.669c0-8.284-6.716-15-15-15s-15,6.716-15,15v71.669h-97.333v-71.669c0-8.284-6.716-15-15-15
			s-15,6.716-15,15v71.669H65c-8.284,0-15,6.716-15,15s6.716,15,15,15h112.333V399.5c0,8.284,6.716,15,15,15s15-6.716,15-15v-71.669
			h97.333V399.5c0,8.284,6.716,15,15,15s15-6.716,15-15v-71.669H447c8.284,0,15-6.716,15-15S455.284,297.831,447,297.831z"/>
	</g>
</g>
<g>
</g>
<g>
</g>
<g>
</g>
<g>
</g>
<g>
</g>
<g>
</g>
<g>
</g>
<g>
</g>
<g>
</g>
<g>
</g>
<g>
</g>
<g>
</g>
<g>
</g>
<g>
</g>
<g>
</g>
</svg>
