<svg id="Capa_1" enable-background="new 0 0 511.938 511.938" height="512" viewBox="0 0 511.938 511.938" width="512" xmlns="http://www.w3.org/2000/svg"><g id="XMLID_1418_"><g id="XMLID_868_"><path id="XMLID_121_" d="m492.426 391-9.2-55.428c-.905-5.447-6.046-9.132-11.503-8.228-5.448.904-9.132 6.055-8.228 11.503l9.2 55.428c2.389 14.39-1.65 29.025-11.083 40.152-9.432 11.127-23.208 17.509-37.795 17.509h-160.781v-56.246c7.212 4.865 15.895 7.709 25.23 7.709h19.308c18.584 0 34.581-11.27 41.531-27.332h52.597c2.78 0 5.435-1.157 7.326-3.193 1.892-2.037 2.851-4.769 2.646-7.541l-13.349-181.218c-.275-3.743-2.587-6.879-5.803-8.356l-7.749-4.668c-6.361-3.83-11.206-9.804-13.642-16.82-4.326-12.459-3.646-25.906 1.916-37.866 2.417-5.196 7.682-8.555 13.414-8.555h36.813c8.157 0 14.793 6.637 14.793 14.794v62.206c0 .549.045 1.097.135 1.638l10.452 62.961c.905 5.447 6.054 9.13 11.503 8.228 5.448-.904 9.132-6.055 8.228-11.503l-10.317-62.147v-61.382c0-19.186-15.608-34.794-34.793-34.794h-36.813c-13.481 0-25.866 7.898-31.549 20.122-7.764 16.693-8.714 35.466-2.676 52.858 3.967 11.427 11.857 21.156 22.219 27.395l4.31 2.596 12.172 165.247h-38.186c-1.102-23.969-20.942-43.131-45.178-43.131h-19.308c-14.54 0-27.49 6.903-35.77 17.596-14.65-14.41-31.287-26.424-49.647-35.844l-4.23-39.258c12.79-1.149 25.179-5.744 36.031-13.626 19.013-13.809 29.917-35.206 29.917-58.704v-47.022c3.426 2.201 6.469 5.023 8.921 8.384 1.919 2.63 4.946 4.107 8.08 4.107 1.033 0 2.078-.161 3.099-.493 4.115-1.342 6.9-5.179 6.9-9.508v-38.365c0-45.77-36.416-83.174-81.793-84.814-2.022-3.077-4.382-5.996-7.086-8.7-1.875-1.875-4.419-2.929-7.071-2.929s-5.196 1.054-7.071 2.929l-2.687 2.687c-38.22-17.756-84.305-9.914-114.486 20.266-33.64 33.64-39.28 86.099-13.986 125.966-.073 1.075-.124 2.151-.124 3.231 0 13.299 5.596 26.275 15.753 36.604l9.327 11.027c1.679 1.985 3.549 3.719 5.558 5.207v57.003c-44.11 42.988-69.333 102.604-69.333 164.291v68.963c0 5.522 4.478 10 10 10s10-4.478 10-10v-68.963c0-55.748 22.557-109.65 62.08-148.797l89.235 26.387c20.355 9.86 38.45 23.182 53.869 39.64-.245 1.374-.428 2.768-.546 4.182-8.064-1.557-16.078-4.188-23.916-7.916-28.841-13.715-63.396-7.751-85.986 14.841-14.287 14.287-22.156 33.284-22.156 53.49 0 20.205 7.869 39.202 22.156 53.489 14.601 14.601 33.95 22.186 53.501 22.185 13.266 0 26.625-3.493 38.651-10.656 8.656-5.156 18.192-7.882 27.578-7.882h43.303l6.435 31.973c.956 4.749 5.129 8.029 9.793 8.029.654 0 1.318-.064 1.983-.198 5.415-1.09 8.921-6.362 7.831-11.776l-5.641-28.027h107.079c20.476 0 39.812-8.958 53.052-24.576 13.24-15.62 18.91-36.162 15.557-56.361zm-204.16-58.064h19.308c13.913 0 25.231 11.318 25.231 25.231s-11.318 25.231-25.231 25.231h-19.308c-13.912 0-25.23-11.318-25.23-25.231s11.318-25.231 25.23-25.231zm-85.577-248.463c13.083-13.083 18.167-31.169 15.287-48.156 30.411 5.365 53.592 31.961 53.592 63.887v16.813c-7.628-4.054-16.226-6.269-25.059-6.269h-21.943c-13.364 0-26.363-3.958-37.403-11.264l15.405-14.893c.041-.039.081-.078.121-.118zm-135.937 45.273c-10.88-29.258-4.152-63.044 18.764-85.96 22.445-22.446 55.849-29.514 85.036-19.101l-97.178 97.178c-2.481 2.482-4.687 5.123-6.622 7.883zm14.689 44.129c-2.752-4.731-4.177-9.814-4.177-15.033 0-8.232 3.545-16.129 10.252-22.835l107.072-107.074c7.149 13.24 5.155 30.149-5.984 41.34zm16.174 19.681-3.49-4.126 25.139-24.304v20.501c0 7.96-6.165 10.836-8.055 11.528s-8.455 2.48-13.594-3.599zm10.287 71.909v-33.427l61.671 20.059c2.92.95 5.864 1.705 8.818 2.281l3.554 32.982zm67.856-32.388-55.471-18.042c11.603-5.208 18.977-16.506 18.977-29.407v-39.837l33.26-32.155c15.031 11.07 33.255 17.113 52.042 17.113h20.002v52.351c0 17.021-7.898 32.52-21.67 42.522-13.772 10.003-30.952 12.719-47.14 7.455zm67.278 219.589c-9.617 1.393-19.082 4.768-27.814 9.97-21.876 13.03-49.747 9.539-67.774-8.488-10.511-10.51-16.299-24.483-16.299-39.347s5.788-28.838 16.299-39.348c16.62-16.621 42.042-21.009 63.254-10.921 10.533 5.009 21.381 8.411 32.335 10.16v77.974z"/></g><g id="XMLID_849_"><path id="XMLID_737_" d="m465.994 302.816c-2.63 0-5.21-1.07-7.069-2.93-1.87-1.86-2.931-4.44-2.931-7.07s1.061-5.21 2.931-7.08c1.859-1.86 4.439-2.92 7.069-2.92s5.21 1.06 7.07 2.92c1.86 1.87 2.93 4.44 2.93 7.08 0 2.63-1.069 5.21-2.93 7.07-1.86 1.86-4.44 2.93-7.07 2.93z"/></g></g></svg>