<svg id="Capa_1" enable-background="new 0 0 512.006 512.006" height="512" viewBox="0 0 512.006 512.006" width="512" xmlns="http://www.w3.org/2000/svg"><g><path d="m360.801 213.483 12.911-77.461h20.004l23.994 120h30.591l-27.589-137.944c-1.406-7.002-7.559-12.056-14.707-12.056h-27.295l12.09-72.539c1.362-8.174-4.16-15.894-12.334-17.256-8.145-1.509-15.894 4.146-17.256 12.334l-30 180c-1.621 9.727 4.953 15.926 12.344 17.209 7.392 1.283 15.6-2.35 17.247-12.287z"/><path d="m256.006 496.022h30c8.284 0 15-6.716 15-15v-135c0-33.138-26.863-60-60-60h-121c-10.977 0-21.14-3.177-30-8.344v38.344c0 16.567 13.431 30 30 30h121v135c0 8.284 6.716 15 15 15z"/><path d="m120.006 436.022v30h-15c-8.291 0-15 6.709-15 15s6.709 15 15 15h60c8.291 0 15-6.709 15-15s-6.709-15-15-15h-15v-30h31c16.569 0 30-13.433 30-30 0-16.569-13.431-30-30-30h-121v-45c0-151.802-30.293-214.131-31.582-216.709-3.721-7.397-12.7-10.371-20.127-6.709-7.412 3.706-10.415 12.715-6.709 20.127.292.571 28.418 58.506 28.418 203.291 0 5.235 0 63.704 0 60 0 24.853 20.147 45 45 45z"/><path d="m497.006 286.022c-6.442 0-196.41 0-189.408 0 7.817 8.668 13.885 18.792 17.88 30h95.528v165c0 8.291 6.709 15 15 15s15-6.709 15-15v-165h46c8.291 0 15-6.709 15-15s-6.709-15-15-15z"/></g><circle cx="121.006" cy="76.022" r="45"/><path d="m91.006 151.022v75c0 16.567 13.431 30 30 30h105c8.284 0 15-6.716 15-15 0-24.853-20.147-45-45-45h-45v-45c0-16.569-13.431-30-30-30s-30 13.431-30 30z"/></svg>