<svg id="Capa_1" enable-background="new 0 0 512 512" height="512" viewBox="0 0 512 512" width="512" xmlns="http://www.w3.org/2000/svg"><g><path d="m110 206c-27.57 0-50 22.43-50 50s22.43 50 50 50 50-22.43 50-50-22.43-50-50-50zm0 80c-16.542 0-30-13.458-30-30s13.458-30 30-30 30 13.458 30 30-13.458 30-30 30z"/><path d="m382 80h20c5.523 0 10-4.478 10-10s-4.477-10-10-10h-20c-5.523 0-10 4.478-10 10s4.477 10 10 10z"/><path d="m372 110c0 5.522 4.477 10 10 10h80c5.523 0 10-4.478 10-10s-4.477-10-10-10h-80c-5.523 0-10 4.478-10 10z"/><path d="m509.078 62.937c-.003-.003-.005-.006-.008-.008l-60-60c-.009-.009-.019-.016-.028-.025-1.794-1.782-4.328-2.904-7.042-2.904h-100c-5.523 0-10 4.478-10 10v110h-56c-5.523 0-10 4.478-10 10v116h-46v-10c0-5.522-4.477-10-10-10h-15.449c-1.035-2.906-2.224-5.764-3.562-8.562l10.934-10.939c3.903-3.906 3.902-10.236-.002-14.141l-28.28-28.279c-3.904-3.903-10.233-3.905-14.14-.002l-10.94 10.933c-2.798-1.338-5.655-2.526-8.561-3.562v-15.448c0-5.522-4.477-10-10-10h-40c-5.523 0-10 4.478-10 10v15.448c-2.906 1.035-5.763 2.224-8.561 3.562l-10.94-10.933c-3.905-3.902-10.235-3.901-14.14.002l-28.28 28.279c-3.905 3.904-3.906 10.234-.002 14.141l10.934 10.939c-1.338 2.798-2.527 5.655-3.562 8.562h-15.449c-5.523 0-10 4.478-10 10v40c0 5.522 4.477 10 10 10h15.449c1.035 2.906 2.224 5.764 3.562 8.562l-10.934 10.939c-3.903 3.906-3.902 10.236.002 14.141l28.28 28.279c3.905 3.903 10.234 3.905 14.14.002l10.94-10.933c2.798 1.338 5.655 2.526 8.561 3.562v15.448c0 5.522 4.477 10 10 10h40c5.523 0 10-4.478 10-10v-15.448c2.906-1.035 5.763-2.224 8.561-3.562l10.94 10.933c3.906 3.903 10.236 3.902 14.14-.002l28.28-28.279c3.905-3.904 3.906-10.234.002-14.141l-10.934-10.939c1.338-2.798 2.527-5.655 3.562-8.562h15.449c5.523 0 10-4.478 10-10v-10h46v116c0 5.522 4.477 10 10 10h56v110c0 5.522 4.477 10 10 10h35c5.523 0 10-4.478 10-10s-4.477-10-10-10h-25v-206h80v50c0 5.522 4.477 10 10 10h50v146h-25c-5.523 0-10 4.478-10 10s4.477 10 10 10h35c5.523 0 10-4.478 10-10v-166c0-2.594-1.029-5.166-2.922-7.063-.003-.003-.005-.006-.008-.008l-60-60c-.009-.009-.019-.016-.028-.025-1.81-1.797-4.358-2.904-7.042-2.904h-100c-5.523 0-10 4.478-10 10v96h-46v-232h46v96c0 5.522 4.477 10 10 10h160c5.523 0 10-4.478 10-10v-166c0-2.581-1.021-5.159-2.922-7.063zm-309.078 203.063h-12.83c-4.559 0-8.54 3.083-9.682 7.496-1.605 6.207-4.099 12.205-7.413 17.826-2.315 3.927-1.682 8.923 1.541 12.147l9.093 9.099-14.143 14.142-9.099-9.093c-3.225-3.222-8.22-3.855-12.147-1.541-5.622 3.313-11.619 5.808-17.825 7.412-4.414 1.142-7.497 5.123-7.497 9.682v12.83h-20v-12.83c0-4.559-3.083-8.54-7.497-9.682-6.207-1.604-12.204-4.099-17.825-7.412-3.928-2.314-8.923-1.682-12.147 1.541l-9.099 9.093-14.14-14.142 9.093-9.099c3.223-3.225 3.856-8.221 1.541-12.147-3.313-5.621-5.808-11.619-7.413-17.826-1.141-4.413-5.122-7.496-9.681-7.496h-12.83v-20h12.83c4.559 0 8.54-3.083 9.682-7.496 1.605-6.207 4.099-12.205 7.413-17.826 2.315-3.927 1.682-8.923-1.541-12.147l-9.093-9.099 14.143-14.142 9.099 9.093c3.225 3.224 8.221 3.856 12.147 1.541 5.622-3.313 11.619-5.808 17.825-7.412 4.414-1.142 7.497-5.123 7.497-9.682v-12.83h20v12.83c0 4.559 3.083 8.54 7.497 9.682 6.207 1.604 12.204 4.099 17.825 7.412 3.928 2.315 8.922 1.682 12.147-1.541l9.099-9.093 14.143 14.142-9.093 9.099c-3.223 3.225-3.856 8.221-1.541 12.147 3.313 5.621 5.808 11.619 7.413 17.826 1.142 4.413 5.123 7.496 9.682 7.496h12.826zm252 34.142 25.858 25.858h-25.858zm0-266 25.858 25.858h-25.858zm40 191.858h-140v-206h80v50c0 5.522 4.477 10 10 10h50z"/><path d="m382 346h20c5.523 0 10-4.478 10-10s-4.477-10-10-10h-20c-5.523 0-10 4.478-10 10s4.477 10 10 10z"/><path d="m382 386h80c5.523 0 10-4.478 10-10s-4.477-10-10-10h-80c-5.523 0-10 4.478-10 10s4.477 10 10 10z"/><path d="m449.071 148.929c-3.905-3.904-10.237-3.904-14.143 0l-12.928 12.928-12.929-12.929c-3.905-3.904-10.237-3.904-14.143 0-3.905 3.905-3.905 10.237 0 14.143l12.929 12.929-12.929 12.929c-3.905 3.905-3.905 10.237 0 14.143 3.906 3.905 10.237 3.905 14.143 0l12.929-12.929 12.929 12.929c3.906 3.905 10.237 3.905 14.143 0 3.905-3.905 3.905-10.237 0-14.143l-12.929-12.929 12.929-12.929c3.905-3.905 3.905-10.237-.001-14.142z"/><path d="m414.929 469.071c1.953 1.952 4.512 2.929 7.071 2.929s5.119-.977 7.071-2.929l40-40c3.905-3.905 3.905-10.237 0-14.143-3.905-3.904-10.237-3.904-14.143 0l-32.928 32.929-12.929-12.929c-3.905-3.904-10.237-3.904-14.143 0-3.905 3.905-3.905 10.237 0 14.143z"/><circle cx="422" cy="502" r="10"/></g></svg>