<?xml version="1.0" encoding="iso-8859-1"?>
<!-- Generator: Adobe Illustrator 19.0.0, SVG Export Plug-In . SVG Version: 6.00 Build 0)  -->
<svg version="1.1" id="Capa_1" xmlns="http://www.w3.org/2000/svg" xmlns:xlink="http://www.w3.org/1999/xlink" x="0px" y="0px"
	 viewBox="0 0 403.84 403.84" style="enable-background:new 0 0 403.84 403.84;" xml:space="preserve">
<g>
	<g>
		<g>
			<path d="M96.853,160.533l-30.187-30.187c-19.2,24.747-31.04,53.333-34.667,82.987h43.093
				C78.187,194.667,85.44,176.64,96.853,160.533z"/>
			<path d="M75.093,256H32c3.627,29.653,15.467,58.24,34.667,82.987L96.853,308.8C85.44,292.693,78.187,274.667,75.093,256z"/>
			<path d="M96.64,369.387c24.747,19.307,53.547,30.72,83.2,34.347V360.64c-18.667-3.093-36.587-10.453-52.587-21.867L96.64,369.387
				z"/>
			<path d="M222.507,65.493V0L125.44,97.067L222.507,192v-83.413c60.48,10.133,106.667,62.72,106.667,126.08
				s-46.187,115.947-106.667,126.08v43.093c84.16-10.56,149.333-82.133,149.333-169.173S306.667,76.053,222.507,65.493z"/>
		</g>
	</g>
</g>
<g>
</g>
<g>
</g>
<g>
</g>
<g>
</g>
<g>
</g>
<g>
</g>
<g>
</g>
<g>
</g>
<g>
</g>
<g>
</g>
<g>
</g>
<g>
</g>
<g>
</g>
<g>
</g>
<g>
</g>
</svg>
