<svg id="Capa_1" enable-background="new 0 0 488.471 488.471" height="512" viewBox="0 0 488.471 488.471" width="512" xmlns="http://www.w3.org/2000/svg"><path d="m274.765 63.496v-63.496l-91.588 76.324 91.588 76.324v-58.302c86.494 14.603 152.647 89.831 152.647 180.419 0 101.009-82.167 183.176-183.176 183.176-10.539 0-21.108-.909-31.424-2.683l-5.188 30.082c12.015 2.072 24.343 3.13 36.611 3.13 117.839 0 213.706-95.867 213.706-213.706 0-107.447-79.785-196.376-183.176-211.268z"/><path d="m131.584 130.316-18.783-24.06c-25.908 20.229-47.121 46.554-61.312 76.115l27.518 13.208c12.179-25.327 30.35-47.896 52.577-65.263z"/><path d="m62.803 249.304-30.231-4.204c-1.357 9.719-2.042 19.707-2.042 29.665 0 23.15 3.682 45.913 10.942 67.648l28.949-9.66c-6.216-18.619-9.362-38.132-9.362-57.988 0-8.646.596-17.143 1.744-25.461z"/><path d="m96.165 382.631-24.656 18.008c19.364 26.534 44.974 48.582 74.058 63.742l14.102-27.071c-24.925-12.999-46.883-31.901-63.504-54.679z"/></svg>