<?xml version="1.0" encoding="UTF-8" standalone="no"?>
<svg
   xmlns:dc="http://purl.org/dc/elements/1.1/"
   xmlns:cc="http://creativecommons.org/ns#"
   xmlns:rdf="http://www.w3.org/1999/02/22-rdf-syntax-ns#"
   xmlns:svg="http://www.w3.org/2000/svg"
   xmlns="http://www.w3.org/2000/svg"
   xmlns:sodipodi="http://sodipodi.sourceforge.net/DTD/sodipodi-0.dtd"
   xmlns:inkscape="http://www.inkscape.org/namespaces/inkscape"
   xml:space="preserve"
   width="110px"
   height="110px"
   version="1.1"
   style="shape-rendering:geometricPrecision; text-rendering:geometricPrecision; image-rendering:optimizeQuality; fill-rule:evenodd; clip-rule:evenodd"
   viewBox="0 0 1100 1100"
   id="svg47"
   sodipodi:docname="setting.svg"
   inkscape:version="0.92.3 (2405546, 2018-03-11)"><metadata
   id="metadata51"><rdf:RDF><cc:Work
       rdf:about=""><dc:format>image/svg+xml</dc:format><dc:type
         rdf:resource="http://purl.org/dc/dcmitype/StillImage" /></cc:Work></rdf:RDF></metadata><sodipodi:namedview
   pagecolor="#ffffff"
   bordercolor="#666666"
   borderopacity="1"
   objecttolerance="10"
   gridtolerance="10"
   guidetolerance="10"
   inkscape:pageopacity="0"
   inkscape:pageshadow="2"
   inkscape:window-width="805"
   inkscape:window-height="480"
   id="namedview49"
   showgrid="false"
   inkscape:zoom="2.1454545"
   inkscape:cx="54.999999"
   inkscape:cy="54.999999"
   inkscape:window-x="53"
   inkscape:window-y="19"
   inkscape:window-maximized="0"
   inkscape:current-layer="svg47" />
 <defs
   id="defs4">
  <style
   type="text/css"
   id="style2">
   <![CDATA[
    .fil0 {fill:white}
   ]]>
  </style>
 </defs>
 <g
   id="Layer_x0020_1"
   style="fill:#000000">
  <metadata
   id="CorelCorpID_0Corel-Layer" />
  <g
   id="_780215520"
   style="fill:#000000">
   <g
   id="g13"
   style="fill:#000000">
    <g
   id="g11"
   style="fill:#000000">
     <path
   class="fil0"
   d="M1037 436l-76 -13c-8,-25 -18,-50 -31,-74l45 -62c19,-27 16,-64 -7,-87l-68 -67c-12,-13 -29,-20 -47,-20 -14,0 -28,4 -39,12l-63 45c-24,-13 -50,-23 -76,-31l-13 -75c-6,-33 -33,-56 -66,-56l-96 0c-33,0 -60,23 -66,56l-13 77c-25,8 -50,18 -74,31l-62 -45c-11,-8 -25,-13 -39,-13 -18,0 -35,7 -47,20l-68 68c-23,23 -26,59 -7,86l45 64c-13,23 -22,48 -30,74l-75 12c-33,6 -56,34 -56,67l0 95c0,33 23,61 56,66l77 13c8,26 18,50 31,74l-45 62c-19,27 -16,63 7,86l68 68c13,13 29,20 47,20 14,0 28,-5 39,-13l64 -45c22,12 47,22 71,29l13 76c5,33 33,56 66,56l96 0c33,0 60,-23 66,-56l13 -76c25,-8 50,-18 74,-30l62 45c12,8 25,12 39,12l0 0c18,0 35,-7 48,-20l67 -67c23,-23 27,-60 8,-87l-45 -63c12,-23 23,-48 30,-73l76 -13c33,-6 56,-33 56,-66l0 -96c1,-33 -23,-60 -55,-66zm-5 162c0,3 -2,5 -5,6l-96 15c-12,3 -21,11 -24,23 -9,33 -22,65 -39,95 -7,10 -6,23 1,33l56 79c2,2 1,6 -1,8l-67 67c-2,2 -3,2 -5,2 -1,0 -2,0 -3,-1l-79 -56c-9,-7 -23,-8 -33,-1 -30,17 -62,30 -95,39 -12,3 -21,13 -22,24l-16 96c-1,3 -3,5 -6,5l-96 0c-3,0 -5,-2 -6,-5l-15 -96c-2,-12 -11,-21 -23,-24 -32,-8 -64,-21 -93,-38 -5,-3 -10,-4 -15,-4 -6,0 -13,2 -18,6l-79 56c-1,1 -2,1 -4,1 -1,0 -2,0 -4,-2l-67 -67c-2,-2 -3,-5 -1,-8l56 -78c7,-10 7,-23 1,-34 -18,-29 -31,-61 -40,-94 -3,-12 -13,-21 -24,-23l-96 -16c-3,-1 -5,-3 -5,-6l0 -95c0,-3 2,-6 5,-6l94 -16c12,-2 22,-11 25,-23 8,-33 21,-65 39,-95 6,-10 5,-23 -2,-33l-56 -79c-2,-3 -2,-6 0,-8l68 -68c2,-1 3,-1 4,-1 2,0 3,0 4,1l78 55c10,7 23,8 33,2 30,-18 62,-32 95,-40 12,-3 20,-13 23,-25l16 -95c0,-3 3,-5 6,-5l95 0c3,0 6,2 6,5l16 94c2,12 11,22 23,25 34,8 66,22 97,40 10,6 23,5 33,-2l78 -56c1,-1 3,-1 4,-1 1,0 2,0 4,2l67 67c3,2 3,5 1,8l-56 79c-7,9 -7,23 -1,33 17,30 31,62 39,95 3,12 13,21 25,22l95 16c3,1 5,3 5,6l0 96 0 0z"
   id="path7"
   style="fill:#000000" />
     <path
   class="fil0"
   d="M550 316c-129,0 -234,105 -234,234 0,129 105,234 234,234 129,0 234,-105 234,-234 0,-129 -105,-234 -234,-234zm0 407c-95,0 -173,-78 -173,-173 0,-96 78,-173 173,-173 96,0 173,77 173,173 0,95 -77,173 -173,173z"
   id="path9"
   style="fill:#000000" />
    </g>
   </g>
   <g
   id="g15"
   style="fill:#000000">
   </g>
   <g
   id="g17"
   style="fill:#000000">
   </g>
   <g
   id="g19"
   style="fill:#000000">
   </g>
   <g
   id="g21"
   style="fill:#000000">
   </g>
   <g
   id="g23"
   style="fill:#000000">
   </g>
   <g
   id="g25"
   style="fill:#000000">
   </g>
   <g
   id="g27"
   style="fill:#000000">
   </g>
   <g
   id="g29"
   style="fill:#000000">
   </g>
   <g
   id="g31"
   style="fill:#000000">
   </g>
   <g
   id="g33"
   style="fill:#000000">
   </g>
   <g
   id="g35"
   style="fill:#000000">
   </g>
   <g
   id="g37"
   style="fill:#000000">
   </g>
   <g
   id="g39"
   style="fill:#000000">
   </g>
   <g
   id="g41"
   style="fill:#000000">
   </g>
   <g
   id="g43"
   style="fill:#000000">
   </g>
  </g>
 </g>
</svg>