<?xml version="1.0" encoding="UTF-8" standalone="no"?>
<svg
   xmlns:dc="http://purl.org/dc/elements/1.1/"
   xmlns:cc="http://creativecommons.org/ns#"
   xmlns:rdf="http://www.w3.org/1999/02/22-rdf-syntax-ns#"
   xmlns:svg="http://www.w3.org/2000/svg"
   xmlns="http://www.w3.org/2000/svg"
   xmlns:sodipodi="http://sodipodi.sourceforge.net/DTD/sodipodi-0.dtd"
   xmlns:inkscape="http://www.inkscape.org/namespaces/inkscape"
   inkscape:version="1.0 (4035a4fb49, 2020-05-01)"
   sodipodi:docname="skip.svg"
   xml:space="preserve"
   style="enable-background:new 0 0 492.004 492.004;"
   viewBox="0 0 492.004 492.004"
   y="0px"
   x="0px"
   id="Layer_1"
   version="1.1"><metadata
   id="metadata43"><rdf:RDF><cc:Work
       rdf:about=""><dc:format>image/svg+xml</dc:format><dc:type
         rdf:resource="http://purl.org/dc/dcmitype/StillImage" /><dc:title></dc:title></cc:Work></rdf:RDF></metadata><defs
   id="defs41" /><sodipodi:namedview
   inkscape:current-layer="Layer_1"
   inkscape:window-maximized="1"
   inkscape:window-y="201"
   inkscape:window-x="0"
   inkscape:cy="264.13329"
   inkscape:cx="177.10202"
   inkscape:zoom="0.81632803"
   showgrid="false"
   id="namedview39"
   inkscape:window-height="717"
   inkscape:window-width="1366"
   inkscape:pageshadow="2"
   inkscape:pageopacity="0"
   guidetolerance="10"
   gridtolerance="10"
   objecttolerance="10"
   borderopacity="1"
   bordercolor="#666666"
   pagecolor="#ffffff" />
<g
   transform="translate(-99.917506)"
   id="g6">
	<g
   id="g4">
		<path
   id="path2"
   d="M 382.678,226.804 163.73,7.86 C 158.666,2.792 151.906,0 144.698,0 137.49,0 130.73,2.792 125.666,7.86 l -16.124,16.12 c -10.492,10.504 -10.492,27.576 0,38.064 L 293.398,245.9 109.338,429.96 c -5.064,5.068 -7.86,11.824 -7.86,19.028 0,7.212 2.796,13.968 7.86,19.04 l 16.124,16.116 c 5.068,5.068 11.824,7.86 19.032,7.86 7.208,0 13.968,-2.792 19.032,-7.86 L 382.678,265 c 5.076,-5.084 7.864,-11.872 7.848,-19.088 0.016,-7.244 -2.772,-14.028 -7.848,-19.108 z" />
	</g>
</g>
<g
   id="g8">
</g>
<g
   id="g10">
</g>
<g
   id="g12">
</g>
<g
   id="g14">
</g>
<g
   id="g16">
</g>
<g
   id="g18">
</g>
<g
   id="g20">
</g>
<g
   id="g22">
</g>
<g
   id="g24">
</g>
<g
   id="g26">
</g>
<g
   id="g28">
</g>
<g
   id="g30">
</g>
<g
   id="g32">
</g>
<g
   id="g34">
</g>
<g
   id="g36">
</g>
<g
   transform="translate(96.806901)"
   id="g872">
	<g
   id="g870">
		<path
   d="M 382.678,226.804 163.73,7.86 C 158.666,2.792 151.906,0 144.698,0 137.49,0 130.73,2.792 125.666,7.86 l -16.124,16.12 c -10.492,10.504 -10.492,27.576 0,38.064 L 293.398,245.9 109.338,429.96 c -5.064,5.068 -7.86,11.824 -7.86,19.028 0,7.212 2.796,13.968 7.86,19.04 l 16.124,16.116 c 5.068,5.068 11.824,7.86 19.032,7.86 7.208,0 13.968,-2.792 19.032,-7.86 L 382.678,265 c 5.076,-5.084 7.864,-11.872 7.848,-19.088 0.016,-7.244 -2.772,-14.028 -7.848,-19.108 z"
   id="path868" />
	</g>
</g></svg>
