<svg id="Capa_1" enable-background="new 0 0 511 511" height="512" viewBox="0 0 511 511" width="512" xmlns="http://www.w3.org/2000/svg"><g><path d="m255.5 89.833c91.073 0 165.167 74.094 165.167 165.167 0 2.663-.064 5.36-.191 8.018l14.982.717c.139-2.895.209-5.833.209-8.734 0-99.345-80.822-180.167-180.167-180.167-3.35 0-6.743.094-10.084.278l.827 14.977c3.067-.17 6.181-.256 9.257-.256z"/><path d="m92.818 226.294-14.774-2.59c-.904 5.158-1.59 10.425-2.04 15.653l14.945 1.285c.412-4.793 1.041-9.621 1.869-14.348z"/><path d="m436.075 276.906c-28.556 25.473-57.172 47.064-96.667 51.645-42.819 4.966-86.3-10.222-116.768-40.69-30.427-30.427-45.733-73.985-40.69-116.768 4.661-39.539 26.137-68.074 51.644-96.667-29.849 7.86-58.331 16.2-83.757 34.634-33.202 24.071-57.656 59.376-68.322 98.99l14.484 3.9c13.235-49.155 48.545-89.192 94.639-108.888-39.226 61.424-30.046 144.023 21.412 195.39 51.47 51.379 133.906 60.692 195.409 21.399-31.223 73.255-113.344 114.388-190.719 95.707-73.205-17.674-126.407-85.264-126.407-160.558h-15c0 98.096 82.112 180.174 180.167 180.166 48.13-.004 95.065-19.761 128.755-54.114 28.941-29.511 41.562-65.19 51.82-104.146z"/><path d="m450.5 247.5h60v15h-60z"/><path d="m384.599 88.4h60v15.001h-60z" transform="matrix(.707 -.707 .707 .707 53.621 321.255)"/><path d="m407.099 382.5h15.001v60h-15.001z" transform="matrix(.707 -.707 .707 .707 -170.248 413.991)"/><path d="m248 0h15v60h-15z"/><path d="m248 451h15v60h-15z"/><path d="m61 435.501h-15v15h-15v15h15v15h15v-15h15v-15h-15z"/><path d="m91 75h15v-15h15v-15h-15v-15h-15v15h-15v15h15z"/><path d="m45.5 262.5v-15h-15v-15h-15v15h-15v15h15v15h15v-15z"/><path d="m75.333 405h15v15h-15z"/><path d="m31 90.402h15v15h-15z"/></g></svg>