<?xml version="1.0" encoding="UTF-8" standalone="no"?>
<svg
   xmlns:dc="http://purl.org/dc/elements/1.1/"
   xmlns:cc="http://creativecommons.org/ns#"
   xmlns:rdf="http://www.w3.org/1999/02/22-rdf-syntax-ns#"
   xmlns:svg="http://www.w3.org/2000/svg"
   xmlns="http://www.w3.org/2000/svg"
   xmlns:sodipodi="http://sodipodi.sourceforge.net/DTD/sodipodi-0.dtd"
   xmlns:inkscape="http://www.inkscape.org/namespaces/inkscape"
   id="Layer_1"
   enable-background="new 0 0 511.428 511.428"
   height="512"
   viewBox="0 0 511.428 511.428"
   width="512"
   version="1.1"
   sodipodi:docname="todo.svg"
   inkscape:version="1.0.1 (3bc2e813f5, 2020-09-07)">
  <metadata
     id="metadata19">
    <rdf:RDF>
      <cc:Work
         rdf:about="">
        <dc:format>image/svg+xml</dc:format>
        <dc:type
           rdf:resource="http://purl.org/dc/dcmitype/StillImage" />
      </cc:Work>
    </rdf:RDF>
  </metadata>
  <defs
     id="defs17" />
  <sodipodi:namedview
     pagecolor="#ffffff"
     bordercolor="#666666"
     borderopacity="1"
     objecttolerance="10"
     gridtolerance="10"
     guidetolerance="10"
     inkscape:pageopacity="0"
     inkscape:pageshadow="2"
     inkscape:window-width="1920"
     inkscape:window-height="1016"
     id="namedview15"
     showgrid="false"
     inkscape:zoom="1.0761719"
     inkscape:cx="258.32305"
     inkscape:cy="256"
     inkscape:window-x="1366"
     inkscape:window-y="0"
     inkscape:window-maximized="1"
     inkscape:current-layer="Layer_1" />
  <g
     id="g12">
    <g
       id="g844"
       style="opacity:1;fill:#000000;fill-opacity:1;stroke-width:7.39173281;stroke-miterlimit:4;stroke-dasharray:none;stroke:#000000;stroke-opacity:1">
      <path
         style="color:#000000;font-style:normal;font-variant:normal;font-weight:normal;font-stretch:normal;font-size:medium;line-height:normal;font-family:sans-serif;font-variant-ligatures:normal;font-variant-position:normal;font-variant-caps:normal;font-variant-numeric:normal;font-variant-alternates:normal;font-variant-east-asian:normal;font-feature-settings:normal;font-variation-settings:normal;text-indent:0;text-align:start;text-decoration:none;text-decoration-line:none;text-decoration-style:solid;text-decoration-color:#000000;letter-spacing:normal;word-spacing:normal;text-transform:none;writing-mode:lr-tb;direction:ltr;text-orientation:mixed;dominant-baseline:auto;baseline-shift:baseline;text-anchor:start;white-space:normal;shape-padding:0;shape-margin:0;inline-size:0;clip-rule:nonzero;display:inline;overflow:visible;visibility:visible;isolation:auto;mix-blend-mode:normal;color-interpolation:sRGB;color-interpolation-filters:linearRGB;solid-color:#000000;solid-opacity:1;vector-effect:none;fill:#000000;fill-opacity:1;fill-rule:nonzero;stroke-width:7.39173281;stroke-linecap:butt;stroke-linejoin:miter;stroke-miterlimit:4;stroke-dasharray:none;stroke-dashoffset:0;stroke-opacity:1;color-rendering:auto;image-rendering:auto;shape-rendering:auto;text-rendering:auto;enable-background:accumulate;stop-color:#000000;stop-opacity:1;stroke:#000000"
         d="m 59.381,0 v 423.728 l 196.333,87.701 196.333,-87.701 V 0 Z m 362.666,404.272 -166.333,74.3 -166.333,-74.3 V 30 h 332.666 z"
         id="path846" />
      <path
         style="color:#000000;font-style:normal;font-variant:normal;font-weight:normal;font-stretch:normal;font-size:medium;line-height:normal;font-family:sans-serif;font-variant-ligatures:normal;font-variant-position:normal;font-variant-caps:normal;font-variant-numeric:normal;font-variant-alternates:normal;font-variant-east-asian:normal;font-feature-settings:normal;font-variation-settings:normal;text-indent:0;text-align:start;text-decoration:none;text-decoration-line:none;text-decoration-style:solid;text-decoration-color:#000000;letter-spacing:normal;word-spacing:normal;text-transform:none;writing-mode:lr-tb;direction:ltr;text-orientation:mixed;dominant-baseline:auto;baseline-shift:baseline;text-anchor:start;white-space:normal;shape-padding:0;shape-margin:0;inline-size:0;clip-rule:nonzero;display:inline;overflow:visible;visibility:visible;isolation:auto;mix-blend-mode:normal;color-interpolation:sRGB;color-interpolation-filters:linearRGB;solid-color:#000000;solid-opacity:1;vector-effect:none;fill-opacity:1;fill-rule:nonzero;stroke-width:4.99441406;stroke-linecap:butt;stroke-linejoin:miter;stroke-miterlimit:4;stroke-dasharray:none;stroke-dashoffset:0;stroke-opacity:1;color-rendering:auto;image-rendering:auto;shape-rendering:auto;text-rendering:auto;enable-background:accumulate;stop-color:#000000;stop-opacity:1;stroke:#000000;fill:#000000"
         d="M 58.880859 -0.5 L 58.880859 0 L 58.880859 424.05273 L 255.71484 511.97656 L 452.54688 424.05273 L 452.54688 -0.5 L 58.880859 -0.5 z M 59.880859 0.5 L 451.54688 0.5 L 451.54688 423.4043 L 255.71484 510.88086 L 59.880859 423.4043 L 59.880859 0.5 z M 88.880859 29.5 L 88.880859 404.5957 L 255.71484 479.11914 L 422.54688 404.5957 L 422.54688 404.27148 L 422.54688 29.5 L 88.880859 29.5 z M 89.880859 30.5 L 421.54688 30.5 L 421.54688 403.94922 L 255.71484 478.02344 L 89.880859 403.94727 L 89.880859 30.5 z "
         id="path848" />
    </g>
    <g
       id="g868"
       style="opacity:1;fill:#000000;fill-opacity:1;stroke-width:7.39173281;stroke-miterlimit:4;stroke-dasharray:none;stroke:#000000;stroke-opacity:1">
      <path
         style="color:#000000;font-style:normal;font-variant:normal;font-weight:normal;font-stretch:normal;font-size:medium;line-height:normal;font-family:sans-serif;font-variant-ligatures:normal;font-variant-position:normal;font-variant-caps:normal;font-variant-numeric:normal;font-variant-alternates:normal;font-variant-east-asian:normal;font-feature-settings:normal;font-variation-settings:normal;text-indent:0;text-align:start;text-decoration:none;text-decoration-line:none;text-decoration-style:solid;text-decoration-color:#000000;letter-spacing:normal;word-spacing:normal;text-transform:none;writing-mode:lr-tb;direction:ltr;text-orientation:mixed;dominant-baseline:auto;baseline-shift:baseline;text-anchor:start;white-space:normal;shape-padding:0;shape-margin:0;inline-size:0;clip-rule:nonzero;display:inline;overflow:visible;visibility:visible;isolation:auto;mix-blend-mode:normal;color-interpolation:sRGB;color-interpolation-filters:linearRGB;solid-color:#000000;solid-opacity:1;vector-effect:none;fill:#000000;fill-opacity:1;fill-rule:nonzero;stroke-width:7.39173281;stroke-linecap:butt;stroke-linejoin:miter;stroke-miterlimit:4;stroke-dasharray:none;stroke-dashoffset:0;stroke-opacity:1;color-rendering:auto;image-rendering:auto;shape-rendering:auto;text-rendering:auto;enable-background:accumulate;stop-color:#000000;stop-opacity:1;stroke:#000000"
         d="m 174.28,209.665 h 30 V 107.072 h 28.444 v -30 h -86.658 v 30 h 28.214 z"
         id="path870" />
      <path
         style="color:#000000;font-style:normal;font-variant:normal;font-weight:normal;font-stretch:normal;font-size:medium;line-height:normal;font-family:sans-serif;font-variant-ligatures:normal;font-variant-position:normal;font-variant-caps:normal;font-variant-numeric:normal;font-variant-alternates:normal;font-variant-east-asian:normal;font-feature-settings:normal;font-variation-settings:normal;text-indent:0;text-align:start;text-decoration:none;text-decoration-line:none;text-decoration-style:solid;text-decoration-color:#000000;letter-spacing:normal;word-spacing:normal;text-transform:none;writing-mode:lr-tb;direction:ltr;text-orientation:mixed;dominant-baseline:auto;baseline-shift:baseline;text-anchor:start;white-space:normal;shape-padding:0;shape-margin:0;inline-size:0;clip-rule:nonzero;display:inline;overflow:visible;visibility:visible;isolation:auto;mix-blend-mode:normal;color-interpolation:sRGB;color-interpolation-filters:linearRGB;solid-color:#000000;solid-opacity:1;vector-effect:none;fill-opacity:1;fill-rule:nonzero;stroke-width:4.99441406;stroke-linecap:butt;stroke-linejoin:miter;stroke-miterlimit:4;stroke-dasharray:none;stroke-dashoffset:0;stroke-opacity:1;color-rendering:auto;image-rendering:auto;shape-rendering:auto;text-rendering:auto;enable-background:accumulate;stop-color:#000000;stop-opacity:1;stroke:#000000;fill:#000000"
         d="M 145.56641 76.572266 L 145.56641 107.57227 L 173.7793 107.57227 L 173.7793 210.16406 L 174.2793 210.16406 L 204.7793 210.16406 L 204.7793 107.57227 L 233.22461 107.57227 L 233.22461 76.572266 L 145.56641 76.572266 z M 146.56641 77.572266 L 232.22461 77.572266 L 232.22461 106.57227 L 203.7793 106.57227 L 203.7793 209.16406 L 174.7793 209.16406 L 174.7793 106.57227 L 146.56641 106.57227 L 146.56641 77.572266 z "
         id="path872" />
    </g>
    <g
       id="g862"
       style="opacity:1;fill:#000000;fill-opacity:1;stroke-width:7.39173281;stroke-miterlimit:4;stroke-dasharray:none;stroke:#000000;stroke-opacity:1">
      <path
         style="color:#000000;font-style:normal;font-variant:normal;font-weight:normal;font-stretch:normal;font-size:medium;line-height:normal;font-family:sans-serif;font-variant-ligatures:normal;font-variant-position:normal;font-variant-caps:normal;font-variant-numeric:normal;font-variant-alternates:normal;font-variant-east-asian:normal;font-feature-settings:normal;font-variation-settings:normal;text-indent:0;text-align:start;text-decoration:none;text-decoration-line:none;text-decoration-style:solid;text-decoration-color:#000000;letter-spacing:normal;word-spacing:normal;text-transform:none;writing-mode:lr-tb;direction:ltr;text-orientation:mixed;dominant-baseline:auto;baseline-shift:baseline;text-anchor:start;white-space:normal;shape-padding:0;shape-margin:0;inline-size:0;clip-rule:nonzero;display:inline;overflow:visible;visibility:visible;isolation:auto;mix-blend-mode:normal;color-interpolation:sRGB;color-interpolation-filters:linearRGB;solid-color:#000000;solid-opacity:1;vector-effect:none;fill:#000000;fill-opacity:1;fill-rule:nonzero;stroke-width:7.39173281;stroke-linecap:butt;stroke-linejoin:miter;stroke-miterlimit:4;stroke-dasharray:none;stroke-dashoffset:0;stroke-opacity:1;color-rendering:auto;image-rendering:auto;shape-rendering:auto;text-rendering:auto;enable-background:accumulate;stop-color:#000000;stop-opacity:1;stroke:#000000"
         d="m 305.066,209.665 c 36.556,0 66.297,-29.741 66.297,-66.297 0,-36.556 -29.741,-66.297 -66.297,-66.297 -36.556,0 -66.297,29.741 -66.297,66.297 0,36.557 29.741,66.297 66.297,66.297 z m 0,-102.593 c 20.014,0 36.297,16.283 36.297,36.297 0,20.014 -16.283,36.297 -36.297,36.297 -20.014,0 -36.297,-16.283 -36.297,-36.297 0,-20.015 16.283,-36.297 36.297,-36.297 z"
         id="path864" />
      <path
         style="color:#000000;font-style:normal;font-variant:normal;font-weight:normal;font-stretch:normal;font-size:medium;line-height:normal;font-family:sans-serif;font-variant-ligatures:normal;font-variant-position:normal;font-variant-caps:normal;font-variant-numeric:normal;font-variant-alternates:normal;font-variant-east-asian:normal;font-feature-settings:normal;font-variation-settings:normal;text-indent:0;text-align:start;text-decoration:none;text-decoration-line:none;text-decoration-style:solid;text-decoration-color:#000000;letter-spacing:normal;word-spacing:normal;text-transform:none;writing-mode:lr-tb;direction:ltr;text-orientation:mixed;dominant-baseline:auto;baseline-shift:baseline;text-anchor:start;white-space:normal;shape-padding:0;shape-margin:0;inline-size:0;clip-rule:nonzero;display:inline;overflow:visible;visibility:visible;isolation:auto;mix-blend-mode:normal;color-interpolation:sRGB;color-interpolation-filters:linearRGB;solid-color:#000000;solid-opacity:1;vector-effect:none;fill-opacity:1;fill-rule:nonzero;stroke-width:4.99441406;stroke-linecap:butt;stroke-linejoin:miter;stroke-miterlimit:4;stroke-dasharray:none;stroke-dashoffset:0;stroke-opacity:1;color-rendering:auto;image-rendering:auto;shape-rendering:auto;text-rendering:auto;enable-background:accumulate;stop-color:#000000;stop-opacity:1;stroke:#000000;fill:#000000"
         d="M 305.06641 76.570312 C 268.23922 76.570312 238.26953 106.54 238.26953 143.36719 C 238.26953 180.19537 268.23922 210.16406 305.06641 210.16406 C 341.8936 210.16406 371.86328 180.19438 371.86328 143.36719 C 371.86328 106.54 341.8936 76.570313 305.06641 76.570312 z M 305.06641 77.570312 C 341.35122 77.570312 370.86328 107.08238 370.86328 143.36719 C 370.86328 179.652 341.35122 209.16406 305.06641 209.16406 C 268.78159 209.16406 239.26953 179.653 239.26953 143.36719 C 239.26953 107.08238 268.7816 77.570312 305.06641 77.570312 z M 305.06641 106.57227 C 284.78123 106.57227 268.26953 123.08296 268.26953 143.36914 C 268.26953 163.65433 284.78121 180.16602 305.06641 180.16602 C 325.3516 180.16602 341.86328 163.65433 341.86328 143.36914 C 341.86328 123.08395 325.3516 106.57227 305.06641 106.57227 z M 305.06641 107.57227 C 324.80921 107.57227 340.86328 123.62633 340.86328 143.36914 C 340.86328 163.11195 324.80921 179.16602 305.06641 179.16602 C 285.3236 179.16602 269.26953 163.11195 269.26953 143.36914 C 269.26953 123.62532 285.32358 107.57227 305.06641 107.57227 z "
         id="path866" />
    </g>
    <g
       id="g856"
       style="opacity:1;fill:#000000;fill-opacity:1;stroke-width:7.39173281;stroke-miterlimit:4;stroke-dasharray:none;stroke:#000000;stroke-opacity:1">
      <path
         style="color:#000000;font-style:normal;font-variant:normal;font-weight:normal;font-stretch:normal;font-size:medium;line-height:normal;font-family:sans-serif;font-variant-ligatures:normal;font-variant-position:normal;font-variant-caps:normal;font-variant-numeric:normal;font-variant-alternates:normal;font-variant-east-asian:normal;font-feature-settings:normal;font-variation-settings:normal;text-indent:0;text-align:start;text-decoration:none;text-decoration-line:none;text-decoration-style:solid;text-decoration-color:#000000;letter-spacing:normal;word-spacing:normal;text-transform:none;writing-mode:lr-tb;direction:ltr;text-orientation:mixed;dominant-baseline:auto;baseline-shift:baseline;text-anchor:start;white-space:normal;shape-padding:0;shape-margin:0;inline-size:0;clip-rule:nonzero;display:inline;overflow:visible;visibility:visible;isolation:auto;mix-blend-mode:normal;color-interpolation:sRGB;color-interpolation-filters:linearRGB;solid-color:#000000;solid-opacity:1;vector-effect:none;fill:#000000;fill-opacity:1;fill-rule:nonzero;stroke-width:7.39173281;stroke-linecap:butt;stroke-linejoin:miter;stroke-miterlimit:4;stroke-dasharray:none;stroke-dashoffset:0;stroke-opacity:1;color-rendering:auto;image-rendering:auto;shape-rendering:auto;text-rendering:auto;enable-background:accumulate;stop-color:#000000;stop-opacity:1;stroke:#000000"
         d="m 135.073,369.133 c 0,0 35.979,-0.138 44.029,-0.279 31.358,-0.548 54.118,-27.699 54.118,-64.558 0,-17.377 -4.548,-32.646 -13.153,-44.157 -9.94,-13.298 -24.875,-20.622 -42.052,-20.622 h -43.226 z m 42.942,-99.616 c 5.913,0 25.205,2.508 25.205,34.779 0,23.578 -12.376,34.348 -24.641,34.563 -3.181,0.055 -8.452,0.101 -13.61,0.137 -0.036,-11.583 -0.104,-57.432 -0.125,-69.479 z"
         id="path858" />
      <path
         style="color:#000000;font-style:normal;font-variant:normal;font-weight:normal;font-stretch:normal;font-size:medium;line-height:normal;font-family:sans-serif;font-variant-ligatures:normal;font-variant-position:normal;font-variant-caps:normal;font-variant-numeric:normal;font-variant-alternates:normal;font-variant-east-asian:normal;font-feature-settings:normal;font-variation-settings:normal;text-indent:0;text-align:start;text-decoration:none;text-decoration-line:none;text-decoration-style:solid;text-decoration-color:#000000;letter-spacing:normal;word-spacing:normal;text-transform:none;writing-mode:lr-tb;direction:ltr;text-orientation:mixed;dominant-baseline:auto;baseline-shift:baseline;text-anchor:start;white-space:normal;shape-padding:0;shape-margin:0;inline-size:0;clip-rule:nonzero;display:inline;overflow:visible;visibility:visible;isolation:auto;mix-blend-mode:normal;color-interpolation:sRGB;color-interpolation-filters:linearRGB;solid-color:#000000;solid-opacity:1;vector-effect:none;fill-opacity:1;fill-rule:nonzero;stroke-width:4.99441406;stroke-linecap:butt;stroke-linejoin:miter;stroke-miterlimit:4;stroke-dasharray:none;stroke-dashoffset:0;stroke-opacity:1;color-rendering:auto;image-rendering:auto;shape-rendering:auto;text-rendering:auto;enable-background:accumulate;stop-color:#000000;stop-opacity:1;stroke:#000000;fill:#000000"
         d="M 134.28711 239.01758 L 134.57422 369.63477 L 135.07422 369.63281 C 135.07422 369.63281 171.04096 369.49487 179.11133 369.35352 C 210.75358 368.80055 233.7207 341.3617 233.7207 304.29688 C 233.7207 286.83263 229.14817 271.45301 220.4668 259.83984 C 210.43571 246.41999 195.33475 239.01758 178.01562 239.01758 L 134.28711 239.01758 z M 135.29102 240.01758 L 178.01562 240.01758 C 195.0505 240.01758 209.8171 247.26136 219.66602 260.4375 C 228.19464 271.84634 232.7207 287.00712 232.7207 304.29688 C 232.7207 340.95005 210.1675 367.81048 179.09375 368.35352 C 171.15532 368.49256 136.37045 368.62582 135.57031 368.62891 L 135.29102 240.01758 z M 164.34375 269.01758 L 164.34375 269.51758 C 164.36475 281.56425 164.43274 327.4129 164.46875 338.99805 L 164.4707 339.5 L 164.97266 339.49609 C 170.13125 339.46009 175.40216 339.41446 178.58789 339.35938 C 184.86373 339.24936 191.17214 336.42802 195.88672 330.6543 C 200.6013 324.88057 203.7207 316.17336 203.7207 304.29688 C 203.7207 288.06174 198.84394 279.18797 193.15625 274.42188 C 187.46856 269.65578 181.04282 269.01758 178.01562 269.01758 L 164.34375 269.01758 z M 165.34375 270.01758 L 178.01562 270.01758 C 180.90143 270.01758 187.07712 270.63185 192.51367 275.1875 C 197.95023 279.74315 202.7207 288.26101 202.7207 304.29688 C 202.7207 315.99839 199.651 324.46196 195.11133 330.02148 C 190.57165 335.58101 184.55948 338.25439 178.57031 338.35938 C 175.51168 338.41226 170.44033 338.45486 165.46875 338.49023 C 165.43282 326.59067 165.36511 282.36834 165.34375 270.01758 z "
         id="path860" />
    </g>
    <g
       id="g850"
       style="opacity:1;fill:#000000;fill-opacity:1;stroke-width:7.39173281;stroke-miterlimit:4;stroke-dasharray:none;stroke:#000000;stroke-opacity:1">
      <path
         style="color:#000000;font-style:normal;font-variant:normal;font-weight:normal;font-stretch:normal;font-size:medium;line-height:normal;font-family:sans-serif;font-variant-ligatures:normal;font-variant-position:normal;font-variant-caps:normal;font-variant-numeric:normal;font-variant-alternates:normal;font-variant-east-asian:normal;font-feature-settings:normal;font-variation-settings:normal;text-indent:0;text-align:start;text-decoration:none;text-decoration-line:none;text-decoration-style:solid;text-decoration-color:#000000;letter-spacing:normal;word-spacing:normal;text-transform:none;writing-mode:lr-tb;direction:ltr;text-orientation:mixed;dominant-baseline:auto;baseline-shift:baseline;text-anchor:start;white-space:normal;shape-padding:0;shape-margin:0;inline-size:0;clip-rule:nonzero;display:inline;overflow:visible;visibility:visible;isolation:auto;mix-blend-mode:normal;color-interpolation:sRGB;color-interpolation-filters:linearRGB;solid-color:#000000;solid-opacity:1;vector-effect:none;fill:#000000;fill-opacity:1;fill-rule:nonzero;stroke-width:4.99441406;stroke-linecap:butt;stroke-linejoin:miter;stroke-miterlimit:4;stroke-dasharray:none;stroke-dashoffset:0;stroke-opacity:1;color-rendering:auto;image-rendering:auto;shape-rendering:auto;text-rendering:auto;enable-background:accumulate;stop-color:#000000;stop-opacity:1;stroke:#000000"
         d="m 316.314,237.999 c -36.556,0 -66.297,29.741 -66.297,66.297 0,36.556 29.741,66.297 66.297,66.297 36.556,0 66.297,-29.741 66.297,-66.297 0,-36.556 -29.74,-66.297 -66.297,-66.297 z m 0,102.594 c -20.014,0 -36.297,-16.283 -36.297,-36.297 0,-20.014 16.283,-36.297 36.297,-36.297 20.014,0 36.297,16.283 36.297,36.297 0,20.014 -16.282,36.297 -36.297,36.297 z"
         id="path852" />
      <path
         style="color:#000000;font-style:normal;font-variant:normal;font-weight:normal;font-stretch:normal;font-size:medium;line-height:normal;font-family:sans-serif;font-variant-ligatures:normal;font-variant-position:normal;font-variant-caps:normal;font-variant-numeric:normal;font-variant-alternates:normal;font-variant-east-asian:normal;font-feature-settings:normal;font-variation-settings:normal;text-indent:0;text-align:start;text-decoration:none;text-decoration-line:none;text-decoration-style:solid;text-decoration-color:#000000;letter-spacing:normal;word-spacing:normal;text-transform:none;writing-mode:lr-tb;direction:ltr;text-orientation:mixed;dominant-baseline:auto;baseline-shift:baseline;text-anchor:start;white-space:normal;shape-padding:0;shape-margin:0;inline-size:0;clip-rule:nonzero;display:inline;overflow:visible;visibility:visible;isolation:auto;mix-blend-mode:normal;color-interpolation:sRGB;color-interpolation-filters:linearRGB;solid-color:#000000;solid-opacity:1;vector-effect:none;fill-opacity:1;fill-rule:nonzero;stroke-width:7.39173281;stroke-linecap:butt;stroke-linejoin:miter;stroke-miterlimit:4;stroke-dasharray:none;stroke-dashoffset:0;stroke-opacity:1;color-rendering:auto;image-rendering:auto;shape-rendering:auto;text-rendering:auto;enable-background:accumulate;stop-color:#000000;stop-opacity:1;stroke:#000000;fill:#000000"
         d="M 316.31445 237.49805 C 279.48726 237.49805 249.51758 267.46968 249.51758 304.29688 C 249.51758 341.12407 279.48726 371.09375 316.31445 371.09375 C 353.14164 371.09375 383.11133 341.12407 383.11133 304.29688 C 383.11133 267.46969 353.14264 237.49805 316.31445 237.49805 z M 316.31445 238.49805 C 352.60027 238.49805 382.11133 268.01206 382.11133 304.29688 C 382.11133 340.58168 352.59926 370.09375 316.31445 370.09375 C 280.02964 370.09375 250.51758 340.58168 250.51758 304.29688 C 250.51758 268.01207 280.02964 238.49805 316.31445 238.49805 z M 316.31445 267.49805 C 296.02926 267.49805 279.51758 284.01168 279.51758 304.29688 C 279.51758 324.58207 296.02926 341.09375 316.31445 341.09375 C 336.60063 341.09375 353.11133 324.58205 353.11133 304.29688 C 353.11133 284.01168 336.59965 267.49805 316.31445 267.49805 z M 316.31445 268.49805 C 336.05726 268.49805 352.11133 284.55407 352.11133 304.29688 C 352.11133 324.0397 336.05827 340.09375 316.31445 340.09375 C 296.57165 340.09375 280.51758 324.03968 280.51758 304.29688 C 280.51758 284.55407 296.57165 268.49805 316.31445 268.49805 z "
         id="path854" />
    </g>
  </g>
</svg>
