<?xml version="1.0" encoding="UTF-8" standalone="no"?>
<svg
   xmlns:dc="http://purl.org/dc/elements/1.1/"
   xmlns:cc="http://creativecommons.org/ns#"
   xmlns:rdf="http://www.w3.org/1999/02/22-rdf-syntax-ns#"
   xmlns:svg="http://www.w3.org/2000/svg"
   xmlns="http://www.w3.org/2000/svg"
   xmlns:sodipodi="http://sodipodi.sourceforge.net/DTD/sodipodi-0.dtd"
   xmlns:inkscape="http://www.inkscape.org/namespaces/inkscape"
   inkscape:version="1.0.2 (e86c870879, 2021-01-15)"
   sodipodi:docname="translate (copy).svg"
   version="1.1"
   width="110"
   viewBox="0 0 109.99656 109.99656"
   height="110"
   enable-background="new 0 0 511.984 511.984"
   id="Layer_1">
  <metadata
     id="metadata19">
    <rdf:RDF>
      <cc:Work
         rdf:about="">
        <dc:format>image/svg+xml</dc:format>
        <dc:type
           rdf:resource="http://purl.org/dc/dcmitype/StillImage" />
        <dc:title></dc:title>
      </cc:Work>
    </rdf:RDF>
  </metadata>
  <defs
     id="defs17" />
  <sodipodi:namedview
     pagecolor="#ffffff"
     bordercolor="#666666"
     borderopacity="1"
     objecttolerance="10"
     gridtolerance="10"
     guidetolerance="10"
     inkscape:pageopacity="1"
     inkscape:pageshadow="2"
     inkscape:window-width="1920"
     inkscape:window-height="1016"
     id="namedview15"
     showgrid="false"
     inkscape:zoom="5.6568543"
     inkscape:cx="45.875741"
     inkscape:cy="50.352902"
     inkscape:window-x="1366"
     inkscape:window-y="0"
     inkscape:window-maximized="1"
     inkscape:current-layer="Layer_1"
     inkscape:document-rotation="0"
     showguides="false" />
  <g
     id="g852"
     transform="matrix(0.21649291,0,0,0.21093919,-0.42195654,0.99996927)">
    <g
       id="g12">
      <path
         d="M 449.552,0 H 218.879 c -30.803,0 -55.92182,25.170061 -55.862,56.107 l 0.17373,89.85277 c 0.0188,9.69698 14.37159,9.00734 14.41619,-0.68956 L 178.017,56.107 C 178.016,33.44 196.347,15 218.879,15 h 230.674 c 22.532,0 40.863,18.44 40.863,41.107 v 126.209 c 0,22.667 -18.331,41.107 -40.863,41.107 l -164.19,-0.041 c -2.31,0 -4.375,1.046 -5.75,2.688 l -36.677,36.871 v -32.019 c 0,-0.007 -0.001,-0.014 -0.001,-0.021 0,-0.007 0.001,-0.014 0.001,-0.021 0,-4.143 -3.357,-7.5 -7.5,-7.5 h -18.164 c -21.788,-0.853 -39.255,-18.942 -39.255,-41.066 v -37.392 c 0,-9.697 -15,-9.697 -15,0 v 37.392 c 0,16.203 6.882,30.815 17.854,41.066 H 62.431 c -30.803,0 -55.863,25.17 -55.863,56.107 v 126.209 c 0,30.938 25.061,56.107 55.863,56.107 h 161.072 l 47.728,47.982 c 4.754,4.78 12.817,1.179 12.817,-5.289 v -42.693 h 9.057 c 30.803,0 55.862,-25.17 55.862,-56.107 v -51.207 c 0,-9.697 -15,-9.697 -15,0 v 51.207 c 0,22.667 -18.331,41.107 -40.862,41.107 h -16.557 c -4.143,0 -7.5,3.357 -7.5,7.5 v 32.019 l -37.109,-37.308 c -1.407,-1.415 -3.321,-2.211 -5.317,-2.211 H 62.431 c -22.532,0 -40.863,-18.44 -40.863,-41.107 V 279.49 c 0,-22.667 18.331,-41.107 40.863,-41.107 l 165.504,0.041 v 42.693 c 0,6.468 8.063,10.069 12.817,5.289 l 47.729,-47.982 h 6.231 c 21.788,0.853 39.16715,18.94218 39.255,41.066 l 0.29954,75.43181 c 0.0385,9.69692 14.16361,9.34401 14.22502,-0.35278 L 348.967,279.49 c 0.1026,-16.20266 -6.882,-30.815 -17.854,-41.066 h 118.438 c 30.803,0 55.863,-25.17 55.863,-56.107 V 56.107 C 505.416,25.17 480.355,0 449.552,0 Z"
         id="path2"
         sodipodi:nodetypes="ssssscssssccccsssscsssscssssccscssssssssccssssccscccsssscsscs"
         style="fill:#000000;fill-opacity:0.996078;stroke:none;stroke-width:0;stroke-miterlimit:4;stroke-dasharray:none" />
      <path
         d="m 56.071,192.024 c 4.143,0 7.5,-3.357 7.5,-7.5 0,-26.254 19.111,-48.1 44.097,-52.283 l -7.065,6.852 c -7.082,6.868 3.042,16.748 10.443,10.768 l 21.105,-20.47 c 3.038,-3.589 3.038,-7.178 0,-10.768 l -21.105,-20.47 c -6.962,-6.751 -17.405,4.017 -10.443,10.768 l 8.262,8.013 c -33.865,3.764 -60.294,32.633 -60.294,67.59 0,4.143 3.357,7.5 7.5,7.5 z"
         id="path4"
         style="stroke:#000000;stroke-width:4.67935;stroke-miterlimit:4;stroke-dasharray:none;stroke-opacity:0.977094" />
      <path
         d="m 455.814,266.007 c -4.143,0 -7.5,3.357 -7.5,7.5 0,26.254 -19.11,48.099 -44.097,52.282 l 7.064,-6.851 c 6.961,-6.751 -3.482,-17.519 -10.443,-10.768 l -21.105,20.469 c -3.038,3.589 -3.038,7.178 0,10.768 l 21.105,20.47 c 6.938,6.729 17.42,-4.002 10.443,-10.768 l -8.262,-8.013 c 33.865,-3.763 60.294,-32.632 60.294,-67.588 0.001,-4.144 -3.356,-7.501 -7.499,-7.501 z"
         id="path6"
         style="stroke:#000000;stroke-width:4.67935;stroke-miterlimit:4;stroke-dasharray:none;stroke-opacity:0.977094" />
      <path
         d="m 176.875,261.989 c -2.971,0 -6.192,2.379 -7.109,5.112 l -44.933,133.782 c -3.088,9.192 11.133,13.969 14.219,4.775 l 13.208,-39.324 h 50.491 l 13.762,39.409 c 3.138,8.984 17.359,4.211 14.162,-4.945 L 183.956,267.016 c -1.053,-3.012 -3.894,-5.027 -7.081,-5.027 z m -19.578,89.346 19.716,-58.701 20.499,58.701 z"
         id="path10"
         style="fill:none;fill-opacity:0.995242;stroke:none;stroke-width:9.82664;stroke-miterlimit:4;stroke-dasharray:none;stroke-opacity:0.996078" />
    </g>
    <text
       xml:space="preserve"
       style="font-style:normal;font-weight:normal;font-size:191.994px;line-height:1000;font-family:sans-serif;letter-spacing:0px;word-spacing:0px;fill:none;fill-opacity:0.996078;stroke:none;stroke-width:9.82664432;stroke-miterlimit:4;stroke-dasharray:none;stroke-opacity:0.996078;"
       x="215.06418"
       y="173.65552"
       id="text857"><tspan
         sodipodi:role="line"
         id="tspan855"
         x="215.06418"
         y="173.65552"
         style="font-style:normal;font-variant:normal;font-weight:normal;font-stretch:normal;font-size:191.994px;font-family:'B Yekan';-inkscape-font-specification:'B Yekan';fill:none;fill-opacity:0.996078;stroke:none;stroke-width:9.82664432;stroke-miterlimit:4;stroke-dasharray:none;stroke-opacity:0.996078;">الف</tspan></text>
  </g>
  <path
     style="fill:#000000;fill-opacity:0.996078;fill-rule:evenodd;stroke:none;stroke-width:0.125;stroke-linejoin:bevel;stroke-miterlimit:4;stroke-dasharray:none;stroke-opacity:0.996078;paint-order:markers stroke fill"
     d="m 61.521633,50.475666 c -3.666336,3.423329 -7.087919,7.105716 -10.860351,10.416748 -0.507341,0.04363 -0.858068,-0.354768 -0.754639,-0.861084 -0.142686,-2.929152 0.0097,-5.875987 -0.09775,-8.798323 -0.217912,-1.227156 -1.699151,-0.814386 -2.589511,-0.87995 -11.179116,0.03602 -22.359443,-0.07147 -33.537784,0.06805 -1.797559,0.03319 -3.6946169,0.089 -5.2539641,1.10534 -3.0364461,1.603837 -5.2281318,4.928984 -5.0323235,8.421117 -0.088018,9.489679 0.013021,18.980239 0.011572,28.47024 0.8805326,4.017077 4.4538186,7.336483 8.5842286,7.699952 12.302389,0.234326 24.632965,-0.01382 36.920411,0.211913 2.85287,2.540215 5.486257,5.330311 8.281392,7.920261 0.768462,0.61903 1.782063,-0.25127 1.595084,-1.13139 0.03726,-2.19671 0.07453,-4.393426 0.111804,-6.590139 0.521972,-0.53214 1.435337,-0.154655 2.12357,-0.300394 2.24239,-0.05645 4.623442,0.0077 6.622861,-1.180588 1.727744,-0.910431 3.149561,-2.401888 4.110746,-4.090796 0.617723,-1.305029 1.213084,-2.68893 1.024903,-4.16626 -0.01363,-9.498877 0.02726,-19.002244 -0.02044,-28.498317 -0.738479,-3.229295 -3.013576,-6.165352 -6.190494,-7.284154 -1.5433,-0.556172 -3.245835,-0.761869 -4.862578,-0.579449 l -0.121184,0.03065 z m -23.482666,5.763183 c 0.822184,0.01498 1.330784,0.732933 1.505325,1.466384 3.413397,9.049229 6.639729,18.22716 9.861812,27.375025 0.428253,0.737808 0.381643,1.790506 -0.437938,2.239158 -0.908077,0.62229 -2.383043,0.280043 -2.614209,-0.897944 -1.003224,-2.450826 -1.790909,-4.99472 -2.756418,-7.452523 -0.563566,-0.966598 -1.846962,-0.47479 -2.761941,-0.598098 -2.54901,0.02751 -5.112135,-0.01737 -7.652087,0.0808 -1.108028,0.255265 -1.03161,1.68222 -1.472518,2.52689 -0.757482,2.062109 -1.354055,4.209791 -2.308256,6.1856 -0.842879,0.923859 -2.610426,0.474181 -2.914551,-0.71997 0.524427,-2.734441 1.628833,-5.324008 2.466201,-7.973265 2.46392,-7.042669 4.779537,-14.145976 7.38707,-21.118532 0.191311,-0.7478 0.961662,-1.156854 1.69751,-1.113526 z"
     id="path1168"
     transform="scale(0.99996873)" />
  <path
     style="fill:#000000;fill-opacity:0.996078;fill-rule:evenodd;stroke:none;stroke-width:0.125;stroke-linejoin:bevel;stroke-miterlimit:4;stroke-dasharray:none;stroke-opacity:0.996078;paint-order:markers stroke fill"
     d="m 54.598537,3.2434883 c -3.201846,0.062705 -6.421001,-0.1165033 -9.611572,0.1882324 -3.118256,0.5847245 -5.826979,2.8738984 -7.087891,5.7602539 -0.534327,1.3033154 -0.89312,2.6804194 -0.739879,4.0998514 0.05201,8.812927 -0.06073,17.628148 0.116316,26.439575 -0.02164,1.653633 0.373341,3.299312 1.301356,4.682186 1.737818,2.837457 4.983906,4.698866 8.328436,4.631732 1.369819,0.135505 2.815134,-0.09358 4.140744,0.266284 0.362002,1.666765 0.08476,3.413529 0.17334,5.10962 0.123417,0.950774 -0.375561,2.250149 0.592529,2.864745 1.194476,0.315904 1.800895,-1.08363 2.625218,-1.685977 2.171399,-2.118182 4.320529,-4.259989 6.532985,-6.335507 11.836798,-0.258636 23.706748,-0.07376 35.555598,-0.277022 1.712025,-0.03353 3.516453,-0.09429 4.998173,-1.066331 1.7264,-0.910799 3.14746,-2.401355 4.10809,-4.089508 0.61773,-1.305029 1.21309,-2.68893 1.02491,-4.16626 -0.0136,-9.498877 0.0272,-19.002244 -0.0205,-28.498317 C 105.92842,8.0545027 103.7899,5.2548095 100.80655,4.0205879 99.692239,3.5214377 98.521347,3.1345576 97.283108,3.2886438 83.054919,3.2740541 68.826735,3.2455099 54.598537,3.2434883 Z M 71.274318,14.672199 c 1.17971,-0.104538 2.524197,0.641355 2.531495,1.944092 0.13139,1.641758 -1.497458,3.017371 -3.102051,2.687012 -1.260687,0.01516 -2.358568,-1.00902 -2.355958,-2.278565 -0.18619,-1.23873 0.868221,-2.384594 2.110108,-2.337402 0.271788,-0.01629 0.544215,-0.01947 0.816406,-0.01514 z m 13.833985,0.05566 c 0.602789,0.1856 2.03474,-0.454964 1.865376,0.499997 -0.02206,6.086914 -0.04407,12.173831 -0.06606,18.260746 -0.430259,1.647507 -1.553077,3.12331 -3.186035,3.711913 -2.07475,0.798543 -4.356991,0.418477 -6.524415,0.441815 -1.87174,0.01628 -3.712811,-0.357436 -5.573974,-0.44743 -1.752102,0.218057 -3.500433,0.35003 -5.244482,0.365228 -4.94522,0.09334 -9.897012,0.251866 -14.845605,0.04761 -2.403248,-0.639608 -4.024843,-3.129964 -3.909509,-5.575375 -0.05086,-1.890312 -0.0207,-3.781667 -0.02921,-5.672428 1.276691,0.01485 2.553384,0.02957 3.830077,0.04419 0.08429,2.071939 -0.01874,4.174411 0.182842,6.227199 0.361007,0.8894 1.39502,1.528792 2.375997,1.346531 3.49824,-0.05127 7.007016,0.109513 10.499024,-0.109864 0.935168,-0.08813 1.157753,-1.294387 0.660887,-1.919921 -1.028742,-2.183242 -0.812346,-5.053725 1.058106,-6.723877 1.885797,-1.82843 4.885972,-2.315482 7.322265,-1.437012 2.614952,1.019875 4.060498,3.947807 3.793702,6.665284 0.04272,0.893604 -0.395747,1.721596 -0.420654,2.589111 0.278405,1.203708 1.737914,0.901494 2.645195,0.91837 1.126764,-0.114623 2.76016,0.268385 3.378486,-0.97965 0.387004,-1.650783 0.16316,-3.38709 0.251626,-5.071526 0.02753,-4.393601 0.04068,-8.787277 0.06136,-13.180915 0.625,0 1.25,0 1.875,0 z m 11.986084,11.497559 c 0,3.834147 0,7.668294 0,11.502441 -1.237045,-0.0041 -2.474423,0.01199 -3.711182,-0.02075 -0.04262,-7.642769 0.0093,-15.285669 0.021,-22.928467 1.23006,-0.01458 2.460122,-0.02906 3.690185,-0.04346 0,3.830079 0,7.660156 0,11.490235 z"
     id="path1170"
     transform="scale(0.99996873)" />
  <path
     style="fill:#000000;fill-opacity:0.996078;fill-rule:evenodd;stroke:none;stroke-width:0.125;stroke-linejoin:bevel;stroke-miterlimit:4;stroke-dasharray:none;stroke-opacity:0.996078;paint-order:markers stroke fill"
     d="m 70.672512,26.980549 c -1.167973,0.01979 -2.285536,1.020551 -2.494629,2.155761 -0.224166,1.730879 1.381817,2.878227 2.677001,3.661047 0.919158,0.775529 1.877755,-0.204401 2.396729,-0.96256 1.282467,-1.659522 0.276353,-4.433359 -1.78125,-4.826172 -0.264241,-0.03627 -0.531839,-0.03175 -0.797851,-0.02808 z"
     id="path1172"
     transform="scale(0.99996873)" />
  <path
     style="fill:#000000;fill-opacity:0.996078;fill-rule:evenodd;stroke:none;stroke-width:0.125;stroke-linejoin:bevel;stroke-miterlimit:4;stroke-dasharray:none;stroke-opacity:0.996078;paint-order:markers stroke fill"
     d="m 37.681057,65.295002 c -0.979601,0.488971 -0.988462,1.763642 -1.445113,2.641593 -0.686061,1.992757 -1.502734,3.955354 -2.016069,5.99952 -0.02767,0.994319 1.053733,1.218888 1.835205,1.155518 1.66037,-0.0135 3.354048,0.118467 4.99292,-0.175049 0.908226,-0.364264 0.668949,-1.445414 0.336267,-2.138457 -0.853792,-2.344373 -1.58885,-4.753588 -2.574168,-7.038231 -0.213423,-0.389509 -0.715417,-0.538879 -1.129042,-0.444894 z"
     id="path1174"
     transform="scale(0.99996873)" />
</svg>
