<?xml version="1.0" encoding="UTF-8" standalone="no"?>
<svg
   xmlns:dc="http://purl.org/dc/elements/1.1/"
   xmlns:cc="http://creativecommons.org/ns#"
   xmlns:rdf="http://www.w3.org/1999/02/22-rdf-syntax-ns#"
   xmlns:svg="http://www.w3.org/2000/svg"
   xmlns="http://www.w3.org/2000/svg"
   xmlns:sodipodi="http://sodipodi.sourceforge.net/DTD/sodipodi-0.dtd"
   xmlns:inkscape="http://www.inkscape.org/namespaces/inkscape"
   id="Layer_1"
   enable-background="new 0 0 511.984 511.984"
   height="110"
   viewBox="0 0 109.99656 109.99656"
   width="110"
   version="1.1"
   sodipodi:docname="translate.svg"
   inkscape:version="1.0.2 (e86c870879, 2021-01-15)">
  <metadata
     id="metadata19">
    <rdf:RDF>
      <cc:Work
         rdf:about="">
        <dc:format>image/svg+xml</dc:format>
        <dc:type
           rdf:resource="http://purl.org/dc/dcmitype/StillImage" />
        <dc:title />
      </cc:Work>
    </rdf:RDF>
  </metadata>
  <defs
     id="defs17" />
  <sodipodi:namedview
     pagecolor="#ffffff"
     bordercolor="#666666"
     borderopacity="1"
     objecttolerance="10"
     gridtolerance="10"
     guidetolerance="10"
     inkscape:pageopacity="0"
     inkscape:pageshadow="2"
     inkscape:window-width="1920"
     inkscape:window-height="1016"
     id="namedview15"
     showgrid="false"
     inkscape:zoom="4.8602803"
     inkscape:cx="68.882624"
     inkscape:cy="58.727152"
     inkscape:window-x="1366"
     inkscape:window-y="0"
     inkscape:window-maximized="1"
     inkscape:current-layer="Layer_1"
     inkscape:document-rotation="0"
     showguides="false" />
  <g
     id="g852"
     transform="matrix(0.21649291,0,0,0.21093919,-0.42195654,0.99996927)">
    <g
       id="g12">
      <path
         d="M 449.552,0 H 218.879 c -30.803,0 -55.862,25.17 -55.862,56.107 v 48.96 c 0,9.697 15,9.697 15,0 V 56.107 C 178.016,33.44 196.347,15 218.879,15 h 230.674 c 22.532,0 40.863,18.44 40.863,41.107 v 126.209 c 0,22.667 -18.331,41.107 -40.863,41.107 l -164.19,-0.041 c -2.31,0 -4.375,1.046 -5.75,2.688 l -36.677,36.871 v -32.019 c 0,-0.007 -0.001,-0.014 -0.001,-0.021 0,-0.007 0.001,-0.014 0.001,-0.021 0,-4.143 -3.357,-7.5 -7.5,-7.5 h -18.164 c -21.788,-0.853 -39.255,-18.942 -39.255,-41.066 v -37.392 c 0,-9.697 -15,-9.697 -15,0 v 37.392 c 0,16.203 6.882,30.815 17.854,41.066 H 62.431 c -30.803,0 -55.863,25.17 -55.863,56.107 v 126.209 c 0,30.938 25.061,56.107 55.863,56.107 h 161.072 l 47.728,47.982 c 4.754,4.78 12.817,1.179 12.817,-5.289 v -42.693 h 9.057 c 30.803,0 55.862,-25.17 55.862,-56.107 v -51.207 c 0,-9.697 -15,-9.697 -15,0 v 51.207 c 0,22.667 -18.331,41.107 -40.862,41.107 h -16.557 c -4.143,0 -7.5,3.357 -7.5,7.5 v 32.019 l -37.109,-37.308 c -1.407,-1.415 -3.321,-2.211 -5.317,-2.211 H 62.431 c -22.532,0 -40.863,-18.44 -40.863,-41.107 V 279.49 c 0,-22.667 18.331,-41.107 40.863,-41.107 l 165.504,0.041 v 42.693 c 0,6.468 8.063,10.069 12.817,5.289 l 47.729,-47.982 h 6.231 c 21.788,0.853 39.255,18.942 39.255,41.066 v 34.063 c 0,9.697 15,9.697 15,0 V 279.49 c 0,-16.203 -6.882,-30.815 -17.854,-41.066 h 118.438 c 30.803,0 55.863,-25.17 55.863,-56.107 V 56.107 C 505.416,25.17 480.355,0 449.552,0 Z"
         id="path2" />
      <path
         d="m 56.071,192.024 c 4.143,0 7.5,-3.357 7.5,-7.5 0,-26.254 19.111,-48.1 44.097,-52.283 l -7.065,6.852 c -7.082,6.868 3.042,16.748 10.443,10.768 l 21.105,-20.47 c 3.038,-3.589 3.038,-7.178 0,-10.768 l -21.105,-20.47 c -6.962,-6.751 -17.405,4.017 -10.443,10.768 l 8.262,8.013 c -33.865,3.764 -60.294,32.633 -60.294,67.59 0,4.143 3.357,7.5 7.5,7.5 z"
         id="path4" />
      <path
         d="m 455.814,266.007 c -4.143,0 -7.5,3.357 -7.5,7.5 0,26.254 -19.11,48.099 -44.097,52.282 l 7.064,-6.851 c 6.961,-6.751 -3.482,-17.519 -10.443,-10.768 l -21.105,20.469 c -3.038,3.589 -3.038,7.178 0,10.768 l 21.105,20.47 c 6.938,6.729 17.42,-4.002 10.443,-10.768 l -8.262,-8.013 c 33.865,-3.763 60.294,-32.632 60.294,-67.588 0.001,-4.144 -3.356,-7.501 -7.499,-7.501 z"
         id="path6" />
      <path
         d="m 176.875,261.989 c -2.971,0 -6.192,2.379 -7.109,5.112 l -44.933,133.782 c -3.088,9.192 11.133,13.969 14.219,4.775 l 13.208,-39.324 h 50.491 l 13.762,39.409 c 3.138,8.984 17.359,4.211 14.162,-4.945 L 183.956,267.016 c -1.053,-3.012 -3.894,-5.027 -7.081,-5.027 z m -19.578,89.346 19.716,-58.701 20.499,58.701 z"
         id="path10" />
    </g>
    <text
       xml:space="preserve"
       style="font-style:normal;font-weight:normal;font-size:191.994px;line-height:1000;font-family:sans-serif;letter-spacing:0px;word-spacing:0px;fill:#000000;fill-opacity:1;stroke:none;stroke-width:0.999969"
       x="215.06418"
       y="173.65552"
       id="text857"><tspan
         sodipodi:role="line"
         id="tspan855"
         x="215.06418"
         y="173.65552"
         style="font-style:normal;font-variant:normal;font-weight:normal;font-stretch:normal;font-size:191.994px;font-family:'B Yekan';-inkscape-font-specification:'B Yekan';stroke-width:0.999969">الف</tspan></text>
  </g>
</svg>
