<?xml version="1.0" encoding="UTF-8" standalone="no"?>
<svg
   xmlns:dc="http://purl.org/dc/elements/1.1/"
   xmlns:cc="http://creativecommons.org/ns#"
   xmlns:rdf="http://www.w3.org/1999/02/22-rdf-syntax-ns#"
   xmlns:svg="http://www.w3.org/2000/svg"
   xmlns="http://www.w3.org/2000/svg"
   xmlns:sodipodi="http://sodipodi.sourceforge.net/DTD/sodipodi-0.dtd"
   xmlns:inkscape="http://www.inkscape.org/namespaces/inkscape"
   id="_x31_"
   enable-background="new 0 0 24 24"
   height="512"
   viewBox="0 0 24 24"
   width="512"
   version="1.1"
   sodipodi:docname="unprocess.svg"
   inkscape:version="1.0.1 (3bc2e813f5, 2020-09-07)">
  <metadata
     id="metadata25">
    <rdf:RDF>
      <cc:Work
         rdf:about="">
        <dc:format>image/svg+xml</dc:format>
        <dc:type
           rdf:resource="http://purl.org/dc/dcmitype/StillImage" />
      </cc:Work>
    </rdf:RDF>
  </metadata>
  <defs
     id="defs23" />
  <sodipodi:namedview
     pagecolor="#ffffff"
     bordercolor="#666666"
     borderopacity="1"
     objecttolerance="10"
     gridtolerance="10"
     guidetolerance="10"
     inkscape:pageopacity="0"
     inkscape:pageshadow="2"
     inkscape:window-width="1366"
     inkscape:window-height="704"
     id="namedview21"
     showgrid="false"
     inkscape:zoom="0.53808594"
     inkscape:cx="136.85118"
     inkscape:cy="368.60793"
     inkscape:window-x="0"
     inkscape:window-y="230"
     inkscape:window-maximized="1"
     inkscape:current-layer="_x31_"
     inkscape:document-rotation="0" />
  <path
     d="m17.5 24c-3.584 0-6.5-2.916-6.5-6.5s2.916-6.5 6.5-6.5 6.5 2.916 6.5 6.5-2.916 6.5-6.5 6.5zm0-12c-3.033 0-5.5 2.468-5.5 5.5s2.467 5.5 5.5 5.5 5.5-2.468 5.5-5.5-2.467-5.5-5.5-5.5z"
     id="path2"
     style="opacity:1;stroke-width:0.515625;stroke-miterlimit:4;stroke-dasharray:none;stroke:#000000;stroke-opacity:1" />
  <path
     d="m17.5 20c-.276 0-.5-.224-.5-.5v-.263c0-.961.505-1.882 1.386-2.526.39-.286.614-.728.614-1.211 0-.827-.673-1.5-1.5-1.5s-1.5.673-1.5 1.5c0 .276-.224.5-.5.5s-.5-.224-.5-.5c0-1.379 1.122-2.5 2.5-2.5s2.5 1.121 2.5 2.5c0 .793-.382 1.548-1.023 2.018-.365.267-.977.845-.977 1.719v.263c0 .276-.224.5-.5.5z"
     id="path4"
     style="opacity:1;stroke-width:0.515625;stroke-miterlimit:4;stroke-dasharray:none;stroke:#000000;stroke-opacity:1" />
  <path
     d="m17.5 22c-.13 0-.26-.05-.35-.15-.1-.09-.15-.22-.15-.35 0-.07.01-.13.04-.19.02-.06.06-.12.11-.16.04-.05.1-.09.16-.109.18-.08.4-.03.54.109.1.09.15.22.15.35 0 .06-.01.13-.04.189-.02.061-.06.12-.11.16-.09.101-.22.151-.35.151z"
     id="path6"
     style="opacity:1;stroke-width:0.515625;stroke-miterlimit:4;stroke-dasharray:none;stroke:#000000;stroke-opacity:1" />
  <path
     d="m9.5 21h-7c-1.378 0-2.5-1.121-2.5-2.5v-13c0-1.379 1.122-2.5 2.5-2.5h2c.276 0 .5.224.5.5s-.224.5-.5.5h-2c-.827 0-1.5.673-1.5 1.5v13c0 .827.673 1.5 1.5 1.5h7c.276 0 .5.224.5.5s-.224.5-.5.5z"
     id="path8"
     style="opacity:1;stroke-width:0.515625;stroke-miterlimit:4;stroke-dasharray:none;stroke:#000000;stroke-opacity:1" />
  <path
     d="m11.5 6h-6c-.827 0-1.5-.673-1.5-1.5v-2c0-.276.224-.5.5-.5h1.55c.233-1.14 1.242-2 2.45-2s2.217.86 2.45 2h1.55c.276 0 .5.224.5.5v2c0 .827-.673 1.5-1.5 1.5zm-6.5-3v1.5c0 .275.224.5.5.5h6c.276 0 .5-.225.5-.5v-1.5h-1.5c-.276 0-.5-.224-.5-.5 0-.827-.673-1.5-1.5-1.5s-1.5.673-1.5 1.5c0 .276-.224.5-.5.5z"
     id="path10"
     style="opacity:1;stroke-width:0.515625;stroke-miterlimit:4;stroke-dasharray:none;stroke:#000000;stroke-opacity:1" />
  <path
     d="m13.5 9h-10c-.276 0-.5-.224-.5-.5s.224-.5.5-.5h10c.276 0 .5.224.5.5s-.224.5-.5.5z"
     id="path12"
     style="opacity:1;stroke-width:0.515625;stroke-miterlimit:4;stroke-dasharray:none;stroke:#000000;stroke-opacity:1" />
  <path
     d="m10.5 12h-7c-.276 0-.5-.224-.5-.5s.224-.5.5-.5h7c.276 0 .5.224.5.5s-.224.5-.5.5z"
     id="path14"
     style="opacity:1;stroke-width:0.515625;stroke-miterlimit:4;stroke-dasharray:none;stroke:#000000;stroke-opacity:1" />
  <path
     d="m8.5 15h-5c-.276 0-.5-.224-.5-.5s.224-.5.5-.5h5c.276 0 .5.224.5.5s-.224.5-.5.5z"
     id="path16"
     style="opacity:1;stroke-width:0.515625;stroke-miterlimit:4;stroke-dasharray:none;stroke:#000000;stroke-opacity:1" />
  <path
     d="m16.5 9c-.276 0-.5-.224-.5-.5v-3c0-.827-.673-1.5-1.5-1.5h-2c-.276 0-.5-.224-.5-.5s.224-.5.5-.5h2c1.378 0 2.5 1.121 2.5 2.5v3c0 .276-.224.5-.5.5z"
     id="path18"
     style="opacity:1;stroke-width:0.515625;stroke-miterlimit:4;stroke-dasharray:none;stroke:#000000;stroke-opacity:1" />
</svg>
