<?xml version="1.0" encoding="UTF-8" standalone="no"?>
<svg
   xmlns:dc="http://purl.org/dc/elements/1.1/"
   xmlns:cc="http://creativecommons.org/ns#"
   xmlns:rdf="http://www.w3.org/1999/02/22-rdf-syntax-ns#"
   xmlns:svg="http://www.w3.org/2000/svg"
   xmlns="http://www.w3.org/2000/svg"
   xmlns:sodipodi="http://sodipodi.sourceforge.net/DTD/sodipodi-0.dtd"
   xmlns:inkscape="http://www.inkscape.org/namespaces/inkscape"
   version="1.1"
   id="Capa_1"
   x="0px"
   y="0px"
   viewBox="0 0 512 512"
   style="enable-background:new 0 0 512 512;"
   xml:space="preserve"
   sodipodi:docname="user.svg"
   inkscape:version="1.0 (4035a4fb49, 2020-05-01)"><metadata
   id="metadata39"><rdf:RDF><cc:Work
       rdf:about=""><dc:format>image/svg+xml</dc:format><dc:type
         rdf:resource="http://purl.org/dc/dcmitype/StillImage" /><dc:title></dc:title></cc:Work></rdf:RDF></metadata><defs
   id="defs37" /><sodipodi:namedview
   inkscape:document-rotation="0"
   pagecolor="#ffffff"
   bordercolor="#666666"
   borderopacity="1"
   objecttolerance="10"
   gridtolerance="10"
   guidetolerance="10"
   inkscape:pageopacity="0"
   inkscape:pageshadow="2"
   inkscape:window-width="1280"
   inkscape:window-height="992"
   id="namedview35"
   showgrid="false"
   inkscape:zoom="0.78444659"
   inkscape:cx="220.24244"
   inkscape:cy="254.39737"
   inkscape:window-x="1366"
   inkscape:window-y="0"
   inkscape:window-maximized="1"
   inkscape:current-layer="Capa_1" />
<path
   style="fill:#455a64;stroke-width:0.905303"
   d="m 487.46357,500.00473 -11.58788,-46.35154 c -5.49791,-22.48594 -22.16636,-40.56937 -44.13083,-47.87698 l -84.97812,-28.31337 c -20.7233,-8.63297 -30.20545,-42.00607 -32.25324,-54.6758 15.7903,-13.13051 25.95052,-31.81236 28.39031,-52.20341 -0.34854,-3.48271 0.47348,-6.98261 2.33659,-9.94657 3.01104,-0.75412 5.47618,-2.91055 6.62411,-5.79394 5.56037,-13.46368 9.05032,-27.69143 10.35214,-42.19891 0.003,-0.78852 -0.0941,-1.57342 -0.2897,-2.33659 -1.3833,-5.63733 -4.69762,-10.61197 -9.36717,-14.06027 v -51.19943 c 0,-31.11347 -9.50206,-43.87915 -19.50657,-51.276386 -1.91019,-14.986393 -17.95941,-45.288709 -77.05762,-45.288709 -52.43246,2.111168 -94.45483,44.133542 -96.566,96.566005 v 51.19943 c -4.66956,3.4483 -7.98387,8.42295 -9.36718,14.06026 -0.19554,0.76318 -0.29241,1.54898 -0.28969,2.33659 1.30001,14.51474 4.78996,28.74882 10.35214,42.21883 0.8365,2.72949 3.03005,4.82889 5.79394,5.54317 1.08184,0.54047 3.10972,3.34148 3.10972,10.17833 2.45428,20.44899 12.67334,39.17339 28.54512,52.30028 -2.02788,12.64981 -11.45299,46.0039 -31.59599,54.42413 l -85.731328,28.46726 c -21.947271,7.30671 -38.604854,25.37204 -44.110909,47.83895 L 24.547528,499.9676 c -1.311784,5.16929 1.815134,10.42366 6.984416,11.73545 0.772224,0.19645 1.566175,0.29603 2.362842,0.29695 H 478.0973 c 5.33314,-0.002 9.65506,-4.32645 9.65416,-9.65959 -9.1e-4,-0.78853 -0.0978,-1.57252 -0.28789,-2.33568 z"
   id="path2" />
<g
   id="g4">
</g>
<g
   id="g6">
</g>
<g
   id="g8">
</g>
<g
   id="g10">
</g>
<g
   id="g12">
</g>
<g
   id="g14">
</g>
<g
   id="g16">
</g>
<g
   id="g18">
</g>
<g
   id="g20">
</g>
<g
   id="g22">
</g>
<g
   id="g24">
</g>
<g
   id="g26">
</g>
<g
   id="g28">
</g>
<g
   id="g30">
</g>
<g
   id="g32">
</g>
</svg>
