<?xml version="1.0" encoding="UTF-8" standalone="no"?>
<svg
   xmlns:dc="http://purl.org/dc/elements/1.1/"
   xmlns:cc="http://creativecommons.org/ns#"
   xmlns:rdf="http://www.w3.org/1999/02/22-rdf-syntax-ns#"
   xmlns:svg="http://www.w3.org/2000/svg"
   xmlns="http://www.w3.org/2000/svg"
   xmlns:sodipodi="http://sodipodi.sourceforge.net/DTD/sodipodi-0.dtd"
   xmlns:inkscape="http://www.inkscape.org/namespaces/inkscape"
   inkscape:version="1.0 (4035a4fb49, 2020-05-01)"
   sodipodi:docname="user.svg"
   xml:space="preserve"
   style="enable-background:new 0 0 512 512;"
   viewBox="0 0 512 512"
   y="0px"
   x="0px"
   id="Capa_1"
   version="1.1"><metadata
   id="metadata49"><rdf:RDF><cc:Work
       rdf:about=""><dc:format>image/svg+xml</dc:format><dc:type
         rdf:resource="http://purl.org/dc/dcmitype/StillImage" /></cc:Work></rdf:RDF></metadata><defs
   id="defs47" /><sodipodi:namedview
   inkscape:current-layer="Capa_1"
   inkscape:window-maximized="1"
   inkscape:window-y="201"
   inkscape:window-x="0"
   inkscape:cy="491.93207"
   inkscape:cx="169.80903"
   inkscape:zoom="1.109375"
   showgrid="false"
   id="namedview45"
   inkscape:window-height="717"
   inkscape:window-width="1366"
   inkscape:pageshadow="2"
   inkscape:pageopacity="0"
   guidetolerance="10"
   gridtolerance="10"
   objecttolerance="10"
   borderopacity="1"
   bordercolor="#666666"
   pagecolor="#ffffff" />
<g
   transform="matrix(0.87857046,0,0,0.87857046,23.13467,90.626479)"
   id="g6">
	<g
   id="g4">
		<path
   id="path2"
   d="m 255.999,0 c -74.443,0 -135,60.557 -135,135 0,74.443 60.557,135 135,135 74.443,0 135,-60.557 135,-135 0,-74.443 -60.557,-135 -135,-135 z" />
	</g>
</g>
<g
   transform="matrix(0.87857046,0,0,0.87857046,31.086402,62.171919)"
   id="g12">
	<g
   id="g10">
		<path
   id="path8"
   d="M 478.48,398.68 C 438.124,338.138 370.579,302 297.835,302 h -83.672 c -72.744,0 -140.288,36.138 -180.644,96.68 l -2.52,3.779 V 512 h 450 H 481 V 402.459 Z" />
	</g>
</g>
<g
   transform="matrix(0.87857046,0,0,0.87857046,47.814848,64.92845)"
   id="g14">
</g>
<g
   transform="matrix(0.87857046,0,0,0.87857046,47.814848,64.92845)"
   id="g16">
</g>
<g
   transform="matrix(0.87857046,0,0,0.87857046,47.814848,64.92845)"
   id="g18">
</g>
<g
   transform="matrix(0.87857046,0,0,0.87857046,47.814848,64.92845)"
   id="g20">
</g>
<g
   transform="matrix(0.87857046,0,0,0.87857046,47.814848,64.92845)"
   id="g22">
</g>
<g
   transform="matrix(0.87857046,0,0,0.87857046,47.814848,64.92845)"
   id="g24">
</g>
<g
   transform="matrix(0.87857046,0,0,0.87857046,47.814848,64.92845)"
   id="g26">
</g>
<g
   transform="matrix(0.87857046,0,0,0.87857046,47.814848,64.92845)"
   id="g28">
</g>
<g
   transform="matrix(0.87857046,0,0,0.87857046,47.814848,64.92845)"
   id="g30">
</g>
<g
   transform="matrix(0.87857046,0,0,0.87857046,47.814848,64.92845)"
   id="g32">
</g>
<g
   transform="matrix(0.87857046,0,0,0.87857046,47.814848,64.92845)"
   id="g34">
</g>
<g
   transform="matrix(0.87857046,0,0,0.87857046,47.814848,64.92845)"
   id="g36">
</g>
<g
   transform="matrix(0.87857046,0,0,0.87857046,47.814848,64.92845)"
   id="g38">
</g>
<g
   transform="matrix(0.87857046,0,0,0.87857046,47.814848,64.92845)"
   id="g40">
</g>
<g
   transform="matrix(0.87857046,0,0,0.87857046,47.814848,64.92845)"
   id="g42">
</g>
<path
   id="path874"
   d="m 224.91194,324.91955 c -43.0126,-9.21846 -76.24799,-39.62844 -89.91524,-82.27133 -4.6653,-14.55609 -5.82966,-40.06887 -2.56417,-56.18471 4.56136,-22.51127 14.91778,-42.12848 31.14148,-58.98844 15.65164,-16.26548 35.06638,-27.476905 57.03299,-32.934829 15.5875,-3.872943 41.13007,-3.826289 55.93369,0.102164 12.04767,3.197101 27.99556,10.585745 39.04606,18.089995 34.40886,23.36661 54.82025,68.59622 49.60357,109.91659 -6.06444,48.03516 -38.82282,86.3721 -85.7576,100.36157 -11.95499,3.56333 -41.90827,4.61212 -54.52078,1.90899 z"
   style="opacity:0.998;fill:#333333;fill-opacity:0.768627;stroke-width:1.27478" /><path
   id="path876"
   d="m 59.190009,463.37837 v -48.2493 l 7.871229,-10.57317 c 25.75823,-34.60019 64.331902,-60.16949 106.733722,-70.7505 21.05244,-5.25346 33.84374,-6.01285 90.74716,-5.38742 47.10452,0.51773 54.12135,0.86358 65.13471,3.21043 21.89238,4.66507 47.28523,14.77612 64.01886,25.49135 18.47597,11.83093 41.49839,33.49188 53.35955,50.20404 l 6.04304,8.51453 v 47.89466 47.89467 H 256.14415 59.190009 Z"
   style="opacity:0.998;fill:#333333;fill-opacity:0.768627;stroke-width:1.27478" /><path
   id="path878"
   d="m 204.37895,328.53668 v -0.41908 l 0.23944,-0.0309 c 0.48961,-0.0633 4.0836,-0.28173 6.09859,-0.37071 3.24228,-0.14317 5.65445,-0.16833 16.84507,-0.17572 6.83482,-0.005 11.73883,-0.0281 11.46479,-0.0552 -0.26338,-0.026 -0.93521,-0.0872 -1.49296,-0.13593 -9.99507,-0.87377 -20.06556,-3.0911 -29.54929,-6.50619 -1.35575,-0.48821 -3.42595,-1.27501 -3.53787,-1.34462 -0.0514,-0.032 -0.0681,-0.1626 -0.0563,-0.44069 l 0.0167,-0.39525 1.21127,0.47296 c 8.00865,3.12713 17.34789,5.71143 23.36913,6.46656 7.12598,0.89368 16.84813,1.09578 27.08157,0.56294 7.13525,-0.37151 13.70176,-1.08629 18.64733,-2.0298 0.55744,-0.10635 1.02012,-0.19336 1.02817,-0.19336 0.008,0 0.0146,0.13517 0.0146,0.30039 v 0.30038 l -1.02816,0.23999 c -5.11644,1.19426 -10.68874,2.07857 -16.15493,2.56377 -0.8831,0.0784 -1.69437,0.15164 -1.80282,0.1628 -0.10845,0.0111 4.11901,0.0243 9.39437,0.0293 l 9.59154,0.009 4e-5,0.49296 4e-5,0.49296 -3.28173,-0.0383 c -19.91417,-0.23259 -28.78587,-0.28977 -39.14088,-0.25225 -8.77282,0.0318 -11.8936,0.0697 -16.87324,0.20508 -3.70418,0.1007 -7.59118,0.26101 -10.30986,0.42522 -0.74366,0.0449 -1.44718,0.0819 -1.56338,0.0822 l -0.21127,5.7e-4 z"
   style="opacity:0.998;fill:#333333;fill-opacity:0.768627;stroke-width:0.056338" /><path
   id="path880"
   d="m 188.64172,107.11498 c 0,-0.35964 0.0323,-0.48811 0.13943,-0.55467 0.0767,-0.0476 0.78941,-0.44892 1.58384,-0.89173 13.75764,-7.668359 28.5514,-12.435601 44.16895,-14.233307 6.99327,-0.804981 14.63263,-0.972579 21.83068,-0.478936 9.60186,0.658497 19.33714,2.557842 28.44362,5.549326 1.59264,0.523184 3.9669,1.35153 4.64101,1.619189 0.10918,0.04335 0.13943,0.150433 0.13943,0.493568 0,0.384277 -0.0172,0.431728 -0.13943,0.385567 -0.0767,-0.02895 -0.82415,-0.318993 -1.66103,-0.644536 -4.26857,-1.660459 -8.56798,-3.066401 -12.02298,-3.931616 -12.85815,-3.21999 -33.71928,-3.698182 -49.11902,-1.125938 -4.81119,0.80362 -9.60623,2.03016 -15.09823,3.862026 -7.56743,2.524129 -14.29175,5.507037 -21.07065,9.346927 -0.80897,0.45824 -1.55292,0.88694 -1.65324,0.95267 l -0.18238,0.1195 z"
   style="opacity:0.998;fill:#333333;fill-opacity:0.768627;stroke-width:0.079674" /></svg>
