<?xml version="1.0" encoding="UTF-8" standalone="no"?>
<!-- Generator: Adobe Illustrator 19.0.0, SVG Export Plug-In . SVG Version: 6.00 Build 0)  -->

<svg
   xmlns:dc="http://purl.org/dc/elements/1.1/"
   xmlns:cc="http://creativecommons.org/ns#"
   xmlns:rdf="http://www.w3.org/1999/02/22-rdf-syntax-ns#"
   xmlns:svg="http://www.w3.org/2000/svg"
   xmlns="http://www.w3.org/2000/svg"
   xmlns:sodipodi="http://sodipodi.sourceforge.net/DTD/sodipodi-0.dtd"
   xmlns:inkscape="http://www.inkscape.org/namespaces/inkscape"
   version="1.1"
   id="Capa_1"
   x="0px"
   y="0px"
   viewBox="0 0 59.2 59.2"
   style="enable-background:new 0 0 59.2 59.2;"
   xml:space="preserve"
   sodipodi:docname="view.svg"
   inkscape:version="0.92.4 5da689c313, 2019-01-14"><metadata
   id="metadata43"><rdf:RDF><cc:Work
       rdf:about=""><dc:format>image/svg+xml</dc:format><dc:type
         rdf:resource="http://purl.org/dc/dcmitype/StillImage" /></cc:Work></rdf:RDF></metadata><defs
   id="defs41" /><sodipodi:namedview
   pagecolor="#ffffff"
   bordercolor="#666666"
   borderopacity="1"
   objecttolerance="10"
   gridtolerance="10"
   guidetolerance="10"
   inkscape:pageopacity="0"
   inkscape:pageshadow="2"
   inkscape:window-width="1920"
   inkscape:window-height="1052"
   id="namedview39"
   showgrid="false"
   inkscape:zoom="11.275486"
   inkscape:cx="12.374418"
   inkscape:cy="36.213305"
   inkscape:window-x="0"
   inkscape:window-y="0"
   inkscape:window-maximized="1"
   inkscape:current-layer="Capa_1" />
<g
   id="g6">
	<path
   d="M51.062,21.561c-5.759-5.759-13.416-8.931-21.561-8.931S13.7,15.801,7.941,21.561L0,29.501l8.138,8.138   c5.759,5.759,13.416,8.931,21.561,8.931s15.802-3.171,21.561-8.931l7.941-7.941L51.062,21.561z M49.845,36.225   c-5.381,5.381-12.536,8.345-20.146,8.345s-14.765-2.963-20.146-8.345l-6.724-6.724l6.527-6.527   c5.381-5.381,12.536-8.345,20.146-8.345s14.765,2.963,20.146,8.345l6.724,6.724L49.845,36.225z"
   id="path2" />
	<path
   d="m 29.838064,16.924752 c -7.168,0 -13,5.832 -13,13 0,7.168 5.832,13 13,13 7.168,0 13,-5.832 13,-13 0,-7.168 -5.831,-13 -13,-13 z m 0,8 c -2.757,0 -5,2.243 -5,5 0,0.552 -0.448,1 -1,1 -0.552,0 -1,-0.448 -1,-1 0,-3.86 3.14,-7 7,-7 0.552,0 1,0.448 1,1 0,0.552 -0.447,1 -1,1 z"
   id="path4"
   style="fill:#000000"
   inkscape:connector-curvature="0" />
</g>
<g
   id="g8">
</g>
<g
   id="g10">
</g>
<g
   id="g12">
</g>
<g
   id="g14">
</g>
<g
   id="g16">
</g>
<g
   id="g18">
</g>
<g
   id="g20">
</g>
<g
   id="g22">
</g>
<g
   id="g24">
</g>
<g
   id="g26">
</g>
<g
   id="g28">
</g>
<g
   id="g30">
</g>
<g
   id="g32">
</g>
<g
   id="g34">
</g>
<g
   id="g36">
</g>
<ellipse
   style="fill:#000000;fill-opacity:1"
   id="path850"
   cx="27.848022"
   cy="27.893147"
   rx="9.0461731"
   ry="9.134861" /></svg>