<svg id="Capa_1" enable-background="new 0 0 512 512" height="512" viewBox="0 0 512 512" width="512" xmlns="http://www.w3.org/2000/svg"><g><path d="m384.512 254.535c-6.116-13.668-20.351-20.03-34.612-15.463-3.584 1.147-6.766 2.855-9.475 5.002l-14.622-72.609c32.523-30.575 49.035-76.766 39.595-123.654l-8.415-41.79c-.817-4.06-4.771-6.687-8.833-5.872l-187.506 37.754c-18.742 3.774-34.893 14.62-45.476 30.54-5.713 8.594-9.415 18.114-11.038 28.001-2.867-.022-5.74.249-8.597.824l-41.149 8.285c-29.573 5.955-48.789 34.86-42.835 64.434l12.622 62.689c2.724 13.529 13.916 23.23 26.945 24.711l8.696 43.185c-3.326-.929-6.919-1.272-10.667-.944-14.918 1.311-25.582 12.683-25.933 27.653-.086 3.686.242 7.404.977 11.051 4.763 23.655 25.628 40.04 48.885 40.04 2.063 0 4.148-.145 6.24-.409 3.756 7.442 8.37 14.44 13.777 20.802 1.483 1.746 3.594 2.643 5.719 2.643 1.717 0 3.442-.586 4.854-1.785 3.156-2.683 3.54-7.415.857-10.572-9.938-11.694-16.804-25.879-19.852-41.024l-18.552-92.137 23.534-4.739c24.215-4.875 44.525-20.969 54.977-42.959 11.203 7.059 24.357 11.053 38.096 11.053 4.667 0 9.404-.46 14.15-1.416l64.073-12.901c19.284-3.883 36.76-11.77 51.741-22.618l17.992 89.344c.006.033.011.065.017.098h.002l5.175 25.697c9.937 49.374-22.15 97.634-71.528 107.577l-72.089 14.52c-23.241 4.674-47.052.244-67.044-12.475-3.496-2.223-8.13-1.194-10.354 2.302-2.224 3.495-1.192 8.13 2.302 10.354 7.333 4.665 15.109 8.362 23.163 11.083-16.595 9.093-28.754 25.131-32.681 44.296l-5.729 27.884c-.453 2.207.109 4.502 1.534 6.249s3.559 2.76 5.812 2.76h234.664c2.254 0 4.388-1.014 5.812-2.76 1.424-1.747 1.987-4.041 1.534-6.249l-5.728-27.884c-5.246-25.546-25.105-45.536-50.579-50.923-4.439-.949-9.019-1.43-13.609-1.43h-14.803v-2.87l.754-.152c47.886-9.644 81.797-50.241 85.102-96.757 24.914-6.943 40.667-32.123 35.481-57.876-.734-3.643-1.871-7.198-3.376-10.563zm-330.736 103c-7.759-5.158-13.045-13.029-14.884-22.163-.516-2.559-.746-5.163-.686-7.739.207-8.864 6.729-12.576 12.25-13.062 5.492-.481 12.523 2.014 14.31 10.615l.073.362c-6.083-1.246-11.976-.19-17.034 3.139-3.46 2.277-4.418 6.929-2.141 10.388s6.929 4.419 10.389 2.141c4.316-2.843 9.695.211 12.373 2.147l1.535 7.625c.845 4.2 1.951 8.335 3.29 12.386-6.879.049-13.618-1.944-19.475-5.839zm32.912-121.086-28.923 5.824c-8.662 1.745-17.144-3.887-18.89-12.557l-12.622-62.689c-4.322-21.466 9.625-42.446 31.091-46.768l41.149-8.285c1.588-.32 3.182-.488 4.775-.52.177 3.577.619 7.166 1.339 10.742l7.973 39.599c2.922 14.509 10.075 27.102 19.903 36.778-7.927 19.381-25.093 33.708-45.795 37.876zm171.296-46.223-64.073 12.901c-30.584 6.155-60.469-13.712-66.627-44.293l-7.973-39.599c-2.983-14.814-.019-29.903 8.348-42.487 8.365-12.584 21.131-21.157 35.945-24.14l180.154-36.274 6.935 34.438c12.888 64.007-28.701 126.566-92.709 139.454zm33.859 248.631c19.65 4.155 34.961 19.569 39.006 39.268l3.877 18.875h-216.27l3.879-18.879c4.036-19.696 19.343-35.109 39.012-39.268 3.41-.729 6.937-1.099 10.481-1.099h15.513c3.521 18.461 19.776 32.463 39.247 32.463s35.726-14.001 39.247-32.463h15.519c3.539 0 7.062.37 10.489 1.103zm-40.292-8.603c0 13.765-11.198 24.963-24.963 24.963-12.86 0-23.477-9.775-24.817-22.285l49.78-10.027zm116.486-135.995c-3.893 5.856-9.333 10.301-15.693 12.92-.332-4.211-.913-8.447-1.767-12.689l-1.536-7.627c1.718-2.822 5.494-7.719 10.58-6.769 4.075.761 7.989-1.923 8.75-5.995.762-4.072-1.923-7.989-5.994-8.75-5.957-1.112-11.797.196-16.923 3.7l-.06-.3c-1.721-8.662 3.809-13.704 9.077-15.39 5.278-1.689 12.728-.79 16.35 7.303 1.053 2.354 1.849 4.845 2.364 7.402 1.838 9.133.01 18.436-5.148 26.195z"/><path d="m203.101 308.804c.49 0 .989-.048 1.488-.149l26.29-5.293c4.061-.818 6.689-4.772 5.872-8.833-.817-4.06-4.77-6.689-8.833-5.872l-26.29 5.293c-4.061.818-6.689 4.772-5.872 8.833.717 3.561 3.847 6.021 7.345 6.021z"/><path d="m162.317 258.637c-.714-4.079-4.594-6.81-8.681-6.095l-38.224 6.689c-4.08.714-6.809 4.601-6.095 8.681.638 3.643 3.804 6.208 7.379 6.208.429 0 .864-.037 1.302-.114l13.439-2.352c-1.957 4.373-2.546 10.431-1.263 16.807 2.141 10.63 8.733 18.455 15.188 18.454.518 0 1.036-.05 1.55-.154 3.363-.677 6.082-3.487 7.656-7.914 1.566-4.404 1.812-9.887.694-15.439-1.117-5.552-3.467-10.512-6.615-13.967-.223-.244-.452-.457-.678-.681l8.252-1.444c4.081-.713 6.81-4.599 6.096-8.679z"/><path d="m300.782 228.757c-1.259-3.946-5.479-6.124-9.425-4.866l-36.97 11.793c-3.946 1.259-6.125 5.479-4.866 9.425 1.018 3.188 3.967 5.223 7.144 5.223.755 0 1.523-.115 2.281-.356l7.773-2.479c-.992 3.903-1.115 8.605-.129 13.499 2.141 10.63 8.732 18.455 15.187 18.454.518 0 1.036-.05 1.55-.154 3.363-.677 6.083-3.487 7.657-7.914 1.566-4.404 1.812-9.887.694-15.439-1.185-5.887-3.739-10.902-6.876-14.215l11.113-3.545c3.947-1.26 6.126-5.479 4.867-9.426z"/><path d="m169.704 367.11c0 4.142 3.357 7.5 7.5 7.5h21.66c4.143 0 7.5-3.358 7.5-7.5s-3.357-7.5-7.5-7.5h-21.66c-4.142 0-7.5 3.358-7.5 7.5z"/><path d="m428.094 94.301c-40.495 0-73.439 32.945-73.439 73.44s32.944 73.44 73.439 73.44c13.93 0 27.489-3.922 39.212-11.343 3.5-2.215 4.541-6.849 2.325-10.349-2.216-3.499-6.848-4.541-10.349-2.325-9.318 5.899-20.103 9.017-31.188 9.017-32.224 0-58.439-26.216-58.439-58.44s26.216-58.44 58.439-58.44c32.225 0 58.44 26.216 58.44 58.44 0 10.819-2.98 21.387-8.62 30.562-2.169 3.529-1.066 8.148 2.463 10.317 3.528 2.169 8.147 1.067 10.316-2.462 7.092-11.539 10.841-24.823 10.841-38.417 0-40.495-32.945-73.44-73.44-73.44z"/><path d="m428.093 121.025c-4.143 0-7.5 3.358-7.5 7.5v39.214c0 4.142 3.357 7.5 7.5 7.5h19.231c4.143 0 7.5-3.358 7.5-7.5s-3.357-7.5-7.5-7.5h-11.731v-31.714c0-4.142-3.358-7.5-7.5-7.5z"/></g></svg>