<?xml version="1.0" encoding="UTF-8" standalone="no"?>
<svg
   xmlns:dc="http://purl.org/dc/elements/1.1/"
   xmlns:cc="http://creativecommons.org/ns#"
   xmlns:rdf="http://www.w3.org/1999/02/22-rdf-syntax-ns#"
   xmlns:svg="http://www.w3.org/2000/svg"
   xmlns="http://www.w3.org/2000/svg"
   xmlns:xlink="http://www.w3.org/1999/xlink"
   xmlns:sodipodi="http://sodipodi.sourceforge.net/DTD/sodipodi-0.dtd"
   xmlns:inkscape="http://www.inkscape.org/namespaces/inkscape"
   id="svg"
   version="1.1"
   width="512"
   height="512"
   viewBox="0 0 512 511.99998"
   sodipodi:docname="image2vector(3).svg"
   inkscape:version="1.0.2 (e86c870879, 2021-01-15)">
  <metadata
     id="metadata9">
    <rdf:RDF>
      <cc:Work
         rdf:about="">
        <dc:format>image/svg+xml</dc:format>
        <dc:type
           rdf:resource="http://purl.org/dc/dcmitype/StillImage" />
        <dc:title></dc:title>
      </cc:Work>
    </rdf:RDF>
  </metadata>
  <defs
     id="defs7">
    <linearGradient
       inkscape:collect="always"
       id="linearGradient910">
      <stop
         style="stop-color:#0070ff;stop-opacity:1"
         offset="0"
         id="stop906" />
      <stop
         style="stop-color:#ff44ff;stop-opacity:1"
         offset="1"
         id="stop908" />
    </linearGradient>
    <linearGradient
       inkscape:collect="always"
       xlink:href="#linearGradient910"
       id="linearGradient912"
       x1="1.9005846"
       y1="-0.053931363"
       x2="399.15646"
       y2="380.43509"
       gradientUnits="userSpaceOnUse"
       gradientTransform="translate(55.992721,24.67073)" />
    <linearGradient
       inkscape:collect="always"
       xlink:href="#linearGradient910"
       id="linearGradient920"
       x1="-1.0760554"
       y1="2.1116273"
       x2="403.33655"
       y2="375.11508"
       gradientUnits="userSpaceOnUse"
       gradientTransform="translate(56.465919,26.161022)" />
    <linearGradient
       inkscape:collect="always"
       xlink:href="#linearGradient910"
       id="linearGradient955"
       x1="-596.41541"
       y1="159.86179"
       x2="692.73108"
       y2="585.72583"
       gradientUnits="userSpaceOnUse"
       gradientTransform="translate(32.039951,2)" />
    <linearGradient
       inkscape:collect="always"
       xlink:href="#linearGradient910"
       id="linearGradient963"
       x1="-596.41541"
       y1="159.86179"
       x2="692.73108"
       y2="585.72583"
       gradientUnits="userSpaceOnUse"
       gradientTransform="translate(32.039951,2)" />
  </defs>
  <sodipodi:namedview
     pagecolor="#ffffff"
     bordercolor="#666666"
     borderopacity="1"
     objecttolerance="10"
     gridtolerance="10"
     guidetolerance="10"
     inkscape:pageopacity="0"
     inkscape:pageshadow="2"
     inkscape:window-width="1920"
     inkscape:window-height="1016"
     id="namedview5"
     showgrid="false"
     inkscape:zoom="1.0778153"
     inkscape:cx="306.36414"
     inkscape:cy="327.2735"
     inkscape:window-x="1366"
     inkscape:window-y="0"
     inkscape:window-maximized="1"
     inkscape:current-layer="svg" />
  <g
     id="g1579"
     transform="translate(0,-10)">
    <g
       id="svgg"
       transform="translate(55.992721,24.67073)">
      <path
         id="path0"
         d="m 127.114,8.315 c -5.435,4.573 -12.09,12.585 -14.789,17.805 -4.178,8.078 -6.26,9.22 -13.988,7.674 C 73.214,28.77 41.27,50.328 41.27,72.308 c 0,7.143 -1.793,10.373 -6.607,11.901 -17.626,5.594 -24.706,27.027 -24.973,75.61 -0.165,30.022 -1.815,50.117 -4.969,60.527 -5.866,19.362 -5.821,37.732 0.132,54.257 3.133,8.695 4.59,26.427 4.623,56.238 0.044,39.769 0.579,43.823 6.188,46.825 9.594,5.134 362.49,4.483 369.331,-0.682 4.355,-3.288 5.471,-11.857 6.511,-50 0.69,-25.317 3.166,-53.532 5.501,-62.698 3.498,-13.728 3.525,-19.606 0.151,-33.334 -3.499,-14.238 -8.403,-71.316 -9.526,-110.867 -0.37,-13.041 -12.398,-29.906 -24.652,-34.565 -6.064,-2.306 -7.424,-5.135 -7.424,-15.439 0,-22.128 -21.103,-36.191 -54.762,-36.496 -6.548,-0.059 -11.926,-1.568 -11.952,-3.354 -0.026,-1.786 -4.88,-8.96 -10.787,-15.943 L 267.315,1.591 239.95,0.468 c -20.414,-0.839 -29.199,0.078 -34.589,3.609 -6.192,4.057 -8.084,4.104 -13.248,0.328 -11.485,-8.398 -53.367,-5.879 -64.999,3.91 m 56.38,19.463 c 10.917,15.499 15.194,67.02 8.302,100 l -1.824,8.73 H 110.859 31.746 v -9.28 c 0,-10.598 13.684,-28.79 21.711,-28.864 11.053,-0.102 14.755,-5.145 10.55,-14.374 -9.043,-19.847 7.74,-31.917 39.629,-28.502 17.411,1.864 20.174,1.452 20.174,-3.012 0,-27.271 44.812,-45.814 59.684,-24.698 m 71.477,-5.037 c 9.133,4.864 14.215,11.659 17.42,23.291 l 2.624,9.524 h 24.298 c 31.466,0 41.064,7.112 34.415,25.5 -4.999,13.824 -1.726,18.979 13.913,21.913 12.554,2.355 20.613,12.021 20.613,24.721 v 8.818 h -77.611 -77.61 l 0.123,-51.587 c 0.151,-63.48 0.888,-65.873 20.284,-65.873 8.028,0 17.717,1.662 21.531,3.693 m 116.458,145.513 c 0,15.092 1.352,14.787 -17.855,4.026 -83.021,-46.514 -166.759,67.951 -99.067,135.418 27.3,27.209 85.192,31.144 111.25,7.562 5.402,-4.889 5.672,-3.901 5.672,20.756 v 25.889 H 200 28.571 v -25.889 c 0,-24.657 0.27,-25.645 5.672,-20.756 27.444,24.837 86.004,19.466 112.891,-10.352 C 210.058,235.121 127.745,126.719 46.426,172.28 27.219,183.041 28.571,183.346 28.571,168.254 V 155.556 H 200 371.429 v 12.698 m -252.513,19.92 c 16.915,9.581 30.576,29.659 32.64,47.976 l 1.651,14.644 H 119.46 c -31.307,0 -33.746,-0.446 -33.746,-6.173 0,-14.872 -16.628,-24.673 -38.765,-22.847 -7.091,0.585 -18.378,12.811 -18.378,19.907 0,7.113 -6.315,11.129 -9.471,6.022 -5.25,-8.494 6.165,-37.606 19.487,-49.698 20.662,-18.754 56.773,-23.173 80.329,-9.831 m 227.058,-0.902 c 61.869,31.563 37.765,128.523 -31.812,127.966 -72.239,-0.577 -94.257,-100.68 -28.425,-129.229 16.168,-7.011 45.212,-6.402 60.237,1.263 m 0.693,48.284 c -5.244,5.244 -4.788,19.997 0.76,24.602 13.242,10.99 33.585,-5.143 26.392,-20.929 -3.797,-8.333 -20.265,-10.561 -27.152,-3.673 M 168.254,323.81 v 25.396 H 200 231.746 V 323.81 298.413 H 200 168.254 v 25.397 m 47.619,1.587 v 11.111 H 200 184.127 V 325.397 314.286 H 200 215.873 v 11.111"
         stroke="none"
         fill="#000000"
         fill-rule="evenodd" />
    </g>
    <g
       id="g1563">
      <path
         style="fill:none;fill-rule:evenodd;stroke-width:4.17511;stroke-linecap:square;paint-order:markers fill stroke"
         d="m 84.625357,180.46958 c 0.76758,7.70659 -0.754708,15.95263 1.299286,23.40709 4.271488,1.07703 8.319857,-3.1501 12.203892,-4.55704 15.736095,-9.63109 34.325505,-14.80592 52.769185,-12.39348 26.89257,2.75368 50.57795,21.31171 63.39713,44.66681 8.76321,15.64126 12.31726,33.81403 10.33268,51.6054 -2.02322,20.72872 -13.40536,40.20651 -29.33271,53.43926 -17.68397,14.22384 -40.96189,20.00681 -63.37252,18.4355 -16.3158,0.18297 -31.81559,-6.71745 -44.3287,-16.8662 -2.965346,-1.07979 -2.205899,4.36271 -2.586502,6.00191 -0.381017,14.1352 -0.601822,28.59516 -0.02475,42.52652 114.119742,0 228.239472,0 342.359212,0 0.34719,-15.47243 0.93888,-31.58492 -0.94592,-47.17297 -0.592,-3.79546 -4.22889,0.49285 -5.79333,1.33915 -20.43335,16.08789 -48.81845,16.98911 -73.19675,11.17894 -18.02851,-5.04075 -35.80386,-14.58598 -46.19981,-30.71081 -10.23294,-14.16837 -16.262,-31.46906 -15.13999,-49.0529 -0.20824,-18.69443 7.69888,-36.61978 18.39268,-51.62186 16.69059,-21.38292 43.4072,-37.07873 71.15813,-33.96285 17.3306,-0.21876 31.81198,10.37595 47.19652,16.75682 4.02605,1.83029 5.31064,-3.41062 4.80392,-6.36414 -0.12168,-5.61864 0.4102,-11.55949 -0.27545,-16.96321 -114.13846,0 -228.27692,0 -342.415387,0 z M 256.16195,322.71696 c 10.56946,0 21.13892,0 31.70838,0 0,17.11845 0,34.23689 0,51.35533 -21.13892,0 -42.27785,0 -63.41676,0 0,-17.11844 0,-34.23688 0,-51.35533 10.56946,0 21.13891,0 31.70838,0 z"
         id="path834" />
      <path
         style="fill:#ffffff;fill-rule:evenodd;stroke-width:2.95225;stroke-linecap:square;paint-order:markers fill stroke"
         d="m 218.3659,43.611637 c -13.45896,0.219533 -26.46001,7.903006 -34.02648,18.887226 -3.58188,4.938518 -3.89318,11.165151 -5.27535,16.793486 -2.84312,2.938821 -7.70339,0.935401 -11.34771,1.25445 -10.6627,-0.22054 -21.50471,-1.371512 -32.07753,0.389533 -7.82291,1.78806 -16.42521,6.437244 -17.83523,15.108499 -1.6549,7.520839 4.7674,14.185089 3.31359,21.578079 -2.13718,4.93604 -8.25861,5.10674 -12.83281,5.69308 -9.678519,3.70262 -15.67967,13.36967 -19.402328,22.57369 -1.008319,4.90008 -0.985388,10.28332 -0.680402,15.06365 51.13203,-0.17313 102.27229,0.37508 153.39913,-0.35237 1.87709,-0.22728 5.26495,0.39995 5.08571,-2.51787 6.08051,-28.61194 5.85876,-58.550974 -0.12814,-87.152888 -2.25669,-9.961681 -6.02843,-21.642651 -16.35654,-25.825782 -3.79767,-1.249358 -7.86294,-1.510855 -11.83591,-1.492783 z"
         id="path836" />
      <path
         style="fill:#ffffff;fill-rule:evenodd;stroke-width:2.95225;stroke-linecap:square;paint-order:markers fill stroke"
         d="m 284.69671,43.976824 c -5.2375,-0.64111 -10.47772,2.39054 -12.06912,7.513887 -4.14573,11.936647 -2.34509,24.860078 -3.0934,37.247443 -0.30894,23.969816 -0.38655,47.941876 -0.57897,71.912776 13.18764,0.70578 26.92155,0.10067 40.31923,0.3024 38.31476,0 76.62952,0 114.94427,0 1.43528,-10.94638 -1.46999,-24.69709 -12.23184,-30.34385 -7.22535,-4.21658 -17.60591,-2.80942 -22.91198,-10.12145 -3.77009,-7.44603 2.18186,-15.19308 2.38333,-22.799215 1.05444,-5.989162 -2.76892,-11.866806 -8.49669,-13.69388 -12.17879,-4.863467 -25.62757,-2.931771 -38.40887,-3.752327 -4.50606,-0.08397 -9.01212,-0.167946 -13.51819,-0.251919 -2.783,-10.235295 -5.41225,-21.538199 -14.23845,-28.43591 -8.5939,-8.054869 -21.13505,-7.601419 -32.09932,-7.577955 z"
         id="path838" />
      <path
         style="fill:#ffffff;fill-rule:evenodd;stroke-width:2.95225;stroke-linecap:square;paint-order:markers fill stroke"
         d="m 369.06648,205.8342 c -15.65651,0.002 -31.78022,4.2665 -43.69048,14.8471 -14.02576,11.75588 -23.50965,29.77153 -22.42711,48.35463 -0.59114,10.14862 1.12215,20.33599 5.46833,29.55967 5.57189,13.84813 16.10961,25.59271 29.03431,32.97704 24.17262,13.48117 56.83018,10.68761 77.22876,-8.49541 24.51879,-22.10777 30.58081,-62.50752 11.65139,-90.00135 -9.78246,-14.00115 -25.19203,-24.49418 -42.40144,-26.31398 -4.91976,-0.70134 -9.89512,-0.99403 -14.86376,-0.9277 z m 45.54205,50.31511 c 7.15515,0.1966 15.58932,4.21944 16.28735,12.13318 1.81046,10.77166 -8.37819,20.82981 -19.05893,19.84056 -7.46834,0.1472 -12.63204,-7.29336 -12.68416,-14.17952 -1.07631,-7.13994 2.55955,-15.62582 10.24446,-17.06769 1.69057,-0.4568 3.4307,-0.7706 5.21128,-0.72653 z"
         id="path840" />
      <path
         style="fill:#ffffff;fill-rule:evenodd;stroke-width:2.95225;stroke-linecap:square;paint-order:markers fill stroke"
         d="m 142.30702,205.20633 c -19.40218,0.62304 -40.09697,7.25348 -52.67153,22.78 -8.372959,11.22913 -14.855217,24.6016 -15.846562,38.73291 -0.433507,3.40004 1.371766,8.6474 5.673856,7.63048 4.493705,-1.11022 5.263111,-6.35265 5.516249,-10.22652 2.796921,-7.51018 8.804216,-14.21781 16.311697,-17.18173 12.35339,-1.30854 26.48904,0.12974 35.3719,9.77932 3.98513,4.01599 4.64749,9.70992 5.57776,14.94449 2.15178,4.22421 8.07161,2.77819 11.91791,3.46351 18.3032,0.62121 36.62102,0.50662 54.93185,0.63427 -0.8299,-11.00017 -1.87111,-23.00489 -7.11795,-33.20897 -8.61296,-17.80067 -24.85702,-32.51114 -44.69475,-36.05987 -4.9206,-0.99234 -9.95479,-1.37815 -14.97043,-1.28789 z"
         id="path842" />
      <path
         style="opacity:0.659595;fill:url(#linearGradient920);fill-opacity:1;fill-rule:evenodd;stroke:none;stroke-width:3.72658;stroke-linecap:square;paint-order:markers fill stroke"
         id="path850"
         transform="rotate(0.79507351)"
         sodipodi:type="arc"
         sodipodi:arc-type="slice"
         sodipodi:start="0"
         sodipodi:end="3.1375326"
         sodipodi:ry="66.188736"
         sodipodi:rx="67.516785"
         sodipodi:cy="280.45755"
         sodipodi:cx="145.07559"
         d="m 212.59238,280.45755 a 67.516785,66.188736 0 0 1 -67.37973,66.1886 67.516785,66.188736 0 0 1 -67.653286,-65.91987 l 67.516226,-0.26873 z" />
      <path
         style="fill:url(#linearGradient912);fill-opacity:1;fill-rule:evenodd;stroke-width:2.08756;stroke-linecap:square;paint-order:markers fill stroke"
         d="m 84.393331,180.10571 c -0.209456,7.56107 -0.374891,15.2652 0.141345,22.85348 0.198387,2.62702 3.454016,2.68539 5.159091,1.42251 12.725113,-6.56661 25.239613,-14.48147 39.687123,-16.58175 16.45618,-2.54719 33.89877,-0.1241 48.61556,8.08911 31.95928,17.13894 51.98762,55.23963 45.62709,91.2492 -4.48553,26.09027 -22.50863,50.07338 -47.24077,60.16697 -20.15378,8.34684 -43.1202,10.53322 -64.04275,4.09713 -8.88459,-2.64968 -16.826482,-7.60178 -23.878453,-13.48711 -1.32909,-1.6025 -3.636865,-0.42339 -3.505574,1.55326 -1.032326,13.44023 -0.426039,26.96305 -0.720733,40.43524 0.446651,2.29619 -0.963633,5.64546 0.661839,7.3158 114.162321,0 228.324641,0 342.486961,0 1.65826,-1.77903 0.17296,-5.25748 0.63637,-7.66496 -0.25868,-13.44923 0.0709,-26.94435 -0.84748,-40.36242 -0.26214,-1.54194 -1.98832,-2.68014 -3.25002,-1.36362 -6.17396,4.58699 -12.34592,9.27806 -19.69999,11.8241 -9.70829,3.80175 -20.20501,5.15895 -30.58525,4.99861 -17.18091,0.34352 -34.52169,-4.09538 -49.48605,-12.6346 -17.82365,-10.44642 -30.40129,-28.86866 -35.60365,-48.73895 -3.73523,-15.87057 -2.69727,-32.65529 3.09961,-47.84459 7.13262,-20.27464 21.88051,-37.57364 40.38473,-48.46236 9.15866,-5.04261 19.28185,-8.73456 29.72169,-9.78224 9.76856,-0.27584 19.7648,-0.62402 29.19367,2.50545 11.54679,3.17962 21.51984,10.04332 32.26941,15.03838 1.77579,1.06613 4.45922,0.15471 4.3228,-2.18088 0.44646,-7.44403 0.57098,-15.02913 0.3225,-22.41686 -4.89285,-0.68635 -10.27503,-0.0856 -15.35127,-0.28804 -109.19139,0 -218.38278,0 -327.574164,0 l -0.418761,0.19961 z M 256.11657,323.66506 c 10.43627,0 20.87254,0 31.30881,0 0,16.54279 0,33.08559 0,49.62838 -20.87254,0 -41.74508,0 -62.61762,0 0,-16.54279 0,-33.08559 0,-49.62838 10.43627,0 20.87254,0 31.30881,0 z"
         id="path894" />
      <path
         style="fill:#ffffff;fill-rule:evenodd;stroke-width:2.95225;stroke-linecap:square;paint-order:markers fill stroke"
         d="m 239.70612,338.714 c -0.13647,7.47435 -0.42308,15.22653 0.13711,22.63008 10.75605,0.14404 21.78554,0.41708 32.4709,-0.13711 0.13647,-7.47434 0.42308,-15.22652 -0.1371,-22.63007 -10.74876,-0.14411 -21.79446,-0.4166 -32.47091,0.1371 z"
         id="path896" />
      <path
         style="fill:#ffffff;fill-rule:evenodd;stroke-width:2.08756;stroke-linecap:square;paint-order:markers fill stroke"
         d="m 142.12171,204.67402 c -16.94898,0.64886 -34.65851,5.48454 -47.346029,17.25677 -10.721125,10.30273 -17.785366,24.21607 -20.80942,38.70043 -0.596839,4.38294 -1.609483,9.86979 1.804866,13.3589 2.968765,2.57796 7.25534,-0.0433 8.335728,-3.30348 1.400517,-3.463 1.248388,-7.41942 3.481072,-10.59272 3.08634,-5.30611 7.474153,-10.1641 13.368873,-12.21184 6.19741,-0.72594 12.52661,-0.63485 18.65605,0.24345 7.1289,1.81419 14.60369,5.2311 18.54395,11.75456 2.73496,4.03423 2.18924,9.30191 4.60821,13.41056 3.24469,2.77385 8.03958,1.84224 11.97837,2.34692 18.10123,0.49295 36.20996,0.63569 54.31694,0.798 1.58706,-1.33967 -0.0653,-4.24695 0.15066,-6.20668 -1.08793,-11.85935 -3.45949,-23.95741 -10.10904,-34.06569 -9.77472,-16.43332 -26.8621,-28.81523 -46.09921,-30.90382 -3.60517,-0.47085 -7.24643,-0.65496 -10.88102,-0.58536 z"
         id="path898" />
      <path
         style="fill:#ffffff;fill-rule:evenodd;stroke-width:2.08756;stroke-linecap:square;paint-order:markers fill stroke"
         d="m 278.74972,43.90773 c -4.1728,2.194512 -6.90159,6.300728 -7.67936,10.903817 -2.32327,10.287392 -1.57412,20.954377 -2.07761,31.420851 -0.4304,24.808082 -0.3217,49.621642 -0.36641,74.432602 1.95883,1.60635 5.52921,0.36651 8.10679,0.85063 26.65952,0.0409 53.35267,-0.20225 80.03537,-0.12676 22.50043,-0.002 45.00085,-2.8e-4 67.50128,-8.3e-4 1.60788,-1.53317 0.28633,-4.68812 0.68045,-6.86067 0.105,-9.99126 -4.54982,-20.85767 -14.13902,-25.0543 -6.70599,-3.167 -15.24028,-2.94242 -20.62912,-8.56949 -3.55793,-4.88089 -0.76647,-11.20578 0.53005,-16.39239 1.20092,-5.46178 2.83395,-12.126071 -1.41809,-16.732452 -4.84937,-5.711211 -13.02956,-6.471736 -20.00188,-7.311527 -12.43682,-1.278641 -24.98202,-0.213236 -37.406,-1.264126 -1.4848,-1.419862 -1.4337,-4.527593 -2.33744,-6.598707 -2.3931,-7.653395 -5.33558,-15.654122 -11.79868,-20.846567 -6.18908,-6.173539 -15.19254,-8.37069 -23.71415,-7.957549 -5.08769,0.04149 -10.23265,-0.182716 -15.28618,0.107468 z"
         id="path902" />
      <path
         style="fill:#ffffff;fill-rule:evenodd;stroke-width:2.08756;stroke-linecap:square;paint-order:markers fill stroke"
         d="m 218.0167,43.326947 c -8.81848,-0.413244 -17.12785,3.602477 -24.19174,8.517845 -6.58899,5.108996 -12.49493,11.912325 -13.90888,20.391727 -0.92448,2.395166 -0.34294,5.81427 -2.47988,7.508497 -6.50232,0.950878 -13.24461,-0.165616 -19.85896,-0.131378 -11.24667,-0.221346 -23.75232,-1.276361 -33.37825,5.731719 -5.46841,3.703796 -8.34027,10.696056 -6.64503,17.144423 0.83973,5.20915 4.37675,10.39087 2.59586,15.72553 -3.54684,5.0839 -10.50363,3.108 -15.2571,6.14669 -8.291759,4.6564 -13.397019,13.42373 -16.614377,22.08877 -0.743867,4.84572 -1.675628,10.11583 -0.173057,14.83397 50.613624,0.43256 101.287434,0.32788 151.920454,-0.19208 2.05978,-0.44495 5.20587,0.6544 6.59337,-1.34278 5.37782,-20.64462 5.52633,-42.26213 4.21498,-63.434886 -1.40175,-13.685823 -2.82177,-27.844648 -8.87219,-40.393729 -3.34351,-7.001712 -10.28047,-12.742378 -18.34486,-12.517303 -1.86541,-0.08676 -3.73333,-0.09151 -5.60034,-0.07701 z"
         id="path904" />
    </g>
  </g>
  <text
     xml:space="preserve"
     style="font-style:normal;font-weight:normal;font-size:73.3333px;line-height:1000;font-family:sans-serif;letter-spacing:0px;word-spacing:0px;fill:url(#linearGradient955);fill-opacity:1;stroke:url(#linearGradient963);stroke-width:6;stroke-miterlimit:4;stroke-dasharray:none"
     x="60.200409"
     y="486.95468"
     id="text947"><tspan
       sodipodi:role="line"
       id="tspan945"
       x="60.200409"
       y="486.95468"
       style="font-style:normal;font-variant:normal;font-weight:normal;font-stretch:normal;font-size:73.3333px;font-family:Lombok;-inkscape-font-specification:Lombok;fill:url(#linearGradient955);fill-opacity:1;stroke:url(#linearGradient963);stroke-width:6;stroke-miterlimit:4;stroke-dasharray:none">MEMORITO</tspan></text>
</svg>
