<?xml version="1.0" encoding="UTF-8" standalone="no"?>
<svg
   xmlns:dc="http://purl.org/dc/elements/1.1/"
   xmlns:cc="http://creativecommons.org/ns#"
   xmlns:rdf="http://www.w3.org/1999/02/22-rdf-syntax-ns#"
   xmlns:svg="http://www.w3.org/2000/svg"
   xmlns="http://www.w3.org/2000/svg"
   xmlns:sodipodi="http://sodipodi.sourceforge.net/DTD/sodipodi-0.dtd"
   xmlns:inkscape="http://www.inkscape.org/namespaces/inkscape"
   version="1.1"
   id="Capa_1"
   x="0px"
   y="0px"
   width="512"
   height="512"
   viewBox="0 0 512.00001 512.00001"
   xml:space="preserve"
   sodipodi:docname="none.svg"
   inkscape:version="1.0.1 (3bc2e813f5, 2020-09-07)"><metadata
   id="metadata47"><rdf:RDF><cc:Work
       rdf:about=""><dc:format>image/svg+xml</dc:format><dc:type
         rdf:resource="http://purl.org/dc/dcmitype/StillImage" /><dc:title /></cc:Work></rdf:RDF></metadata><defs
   id="defs45">
	

		
		
		
	</defs><sodipodi:namedview
   pagecolor="#ffffff"
   bordercolor="#666666"
   borderopacity="1"
   objecttolerance="10"
   gridtolerance="10"
   guidetolerance="10"
   inkscape:pageopacity="0"
   inkscape:pageshadow="2"
   inkscape:window-width="1920"
   inkscape:window-height="1016"
   id="namedview43"
   showgrid="false"
   showguides="true"
   inkscape:guide-bbox="true"
   inkscape:zoom="1.285491"
   inkscape:cx="30.507266"
   inkscape:cy="231.11089"
   inkscape:window-x="1366"
   inkscape:window-y="0"
   inkscape:window-maximized="1"
   inkscape:current-layer="Capa_1"
   inkscape:document-rotation="0"><sodipodi:guide
     position="256,225.751"
     orientation="1,0"
     id="guide125" /></sodipodi:namedview>
<polygon
   points="257.336,87.897 191.49,0 125.645,87.896 191.491,118.328 "
   id="polygon2"
   transform="translate(64.509)"
   style="fill:#b3b3b3;stroke:#000000;stroke-opacity:1;stroke-width:0;stroke-miterlimit:4;stroke-dasharray:none" /><polygon
   points="112.745,115.116 60.115,185.372 191.491,251.631 322.867,185.372 270.236,115.116 191.491,151.509 "
   id="polygon4"
   transform="translate(64.509)"
   style="fill:#999999;stroke:#000000;stroke-opacity:1;stroke-width:0;stroke-miterlimit:4;stroke-dasharray:none" /><polygon
   points="1.491,273.629 191.49,382.982 381.491,273.629 336.252,213.24 191.491,286.249 46.73,213.24 "
   id="polygon6"
   transform="translate(64.509)" /><polygon
   points="1.491,273.629 191.49,382.982 381.491,273.629 336.252,213.24 191.491,286.249 46.73,213.24 "
   id="polygon49"
   transform="translate(64.509)"
   style="fill:#808080;stroke:none;stroke-opacity:1;stroke-width:5;stroke-miterlimit:4;stroke-dasharray:none" /><g
   id="g66"
   style="opacity:1;fill:#666666;stroke:none;stroke-opacity:1;stroke-width:5;stroke-miterlimit:4;stroke-dasharray:none"
   transform="translate(320.55943,151.31901)"><path
     style="color:#000000;font-style:normal;font-variant:normal;font-weight:normal;font-stretch:normal;font-size:medium;line-height:normal;font-family:sans-serif;font-variant-ligatures:normal;font-variant-position:normal;font-variant-caps:normal;font-variant-numeric:normal;font-variant-alternates:normal;font-variant-east-asian:normal;font-feature-settings:normal;font-variation-settings:normal;text-indent:0;text-align:start;text-decoration:none;text-decoration-line:none;text-decoration-style:solid;text-decoration-color:#000000;letter-spacing:normal;word-spacing:normal;text-transform:none;writing-mode:lr-tb;direction:ltr;text-orientation:mixed;dominant-baseline:auto;baseline-shift:baseline;text-anchor:start;white-space:normal;shape-padding:0;shape-margin:0;inline-size:0;clip-rule:nonzero;display:inline;overflow:visible;visibility:visible;isolation:auto;mix-blend-mode:normal;color-interpolation:sRGB;color-interpolation-filters:linearRGB;solid-color:#000000;solid-opacity:1;vector-effect:none;fill:#666666;fill-opacity:1;fill-rule:nonzero;stroke:none;stroke-width:5;stroke-linecap:butt;stroke-linejoin:miter;stroke-miterlimit:4;stroke-dasharray:none;stroke-dashoffset:0;stroke-opacity:1;color-rendering:auto;image-rendering:auto;shape-rendering:auto;text-rendering:auto;enable-background:accumulate;stop-color:#000000;stop-opacity:1"
     d="M -273.91408,150.04262 -309.10174,200.8431 -64.559435,348.8996 186.93038,196.86418 145.26867,150.04262 -64.559435,275.49631 Z"
     id="path68"
     sodipodi:nodetypes="ccccccc" /></g>
<g
   id="g12"
   transform="translate(64.509,64.509)">
</g>
<g
   id="g14"
   transform="translate(64.509,64.509)">
</g>
<g
   id="g16"
   transform="translate(64.509,64.509)">
</g>
<g
   id="g18"
   transform="translate(64.509,64.509)">
</g>
<g
   id="g20"
   transform="translate(64.509,64.509)">
</g>
<g
   id="g22"
   transform="translate(64.509,64.509)">
</g>
<g
   id="g24"
   transform="translate(64.509,64.509)">
</g>
<g
   id="g26"
   transform="translate(64.509,64.509)">
</g>
<g
   id="g28"
   transform="translate(64.509,64.509)">
</g>
<g
   id="g30"
   transform="translate(64.509,64.509)">
</g>
<g
   id="g32"
   transform="translate(64.509,64.509)">
</g>
<g
   id="g34"
   transform="translate(64.509,64.509)">
</g>
<g
   id="g36"
   transform="translate(64.509,64.509)">
</g>
<g
   id="g38"
   transform="translate(64.509,64.509)">
</g>
<g
   id="g40"
   transform="translate(64.509,64.509)">
</g>
<g
   id="g893"
   transform="matrix(0.30465507,0,0,0.30465507,107.76996,165.77023)"
   style="fill:#333333"><g
     id="g836"
     style="fill:#333333"><path
       d="m 502.29,788.199 h -47 c -33.1,0 -60,26.9 -60,60 v 64.9 c 0,33.1 26.9,60 60,60 h 47 c 33.101,0 60,-26.9 60,-60 v -64.9 c 0,-33.199 -26.899,-60 -60,-60 z"
       id="path832"
       style="fill:#333333" /><path
       d="m 170.89,285.8 86.7,10.8 c 27.5,3.4 53.6,-12.4 63.5,-38.3 12.5,-32.7 29.9,-58.5 52.2,-77.3 31.601,-26.6 70.9,-40 117.9,-40 48.7,0 87.5,12.8 116.3,38.3 28.8,25.6 43.1,56.2 43.1,92.1 0,25.8 -8.1,49.4 -24.3,70.8 -10.5,13.6 -42.8,42.2 -96.7,85.9 -54,43.7 -89.899,83.099 -107.899,118.099 -18.4,35.801 -24.8,75.5 -26.4,115.301 -1.399,34.1 25.8,62.5 60,62.5 h 49 c 31.2,0 57,-23.9 59.8,-54.9 2,-22.299 5.7,-39.199 11.301,-50.699 9.399,-19.701 33.699,-45.701 72.699,-78.1 C 723.59,477.8 772.79,428.4 795.891,392 c 23,-36.3 34.6,-74.8 34.6,-115.5 0,-73.5 -31.3,-138 -94,-193.4 -62.6,-55.4 -147,-83.1 -253,-83.1 -100.8,0 -182.1,27.3 -244.1,82 -52.8,46.6 -84.9,101.8 -96.2,165.5 -3.501,18.6 9.199,36 27.699,38.3 z"
       id="path834"
       style="fill:#333333" /></g><g
     id="g838"
     style="fill:#333333" /><g
     id="g840"
     style="fill:#333333" /><g
     id="g842"
     style="fill:#333333" /><g
     id="g844"
     style="fill:#333333" /><g
     id="g846"
     style="fill:#333333" /><g
     id="g848"
     style="fill:#333333" /><g
     id="g850"
     style="fill:#333333" /><g
     id="g852"
     style="fill:#333333" /><g
     id="g854"
     style="fill:#333333" /><g
     id="g856"
     style="fill:#333333" /><g
     id="g858"
     style="fill:#333333" /><g
     id="g860"
     style="fill:#333333" /><g
     id="g862"
     style="fill:#333333" /><g
     id="g864"
     style="fill:#333333" /><g
     id="g866"
     style="fill:#333333" /></g></svg>
