<?xml version="1.0" encoding="iso-8859-1"?>
<!-- Generator: Adobe Illustrator 19.1.0, SVG Export Plug-In . SVG Version: 6.00 Build 0)  -->
<svg version="1.1" id="Capa_1" xmlns="http://www.w3.org/2000/svg" xmlns:xlink="http://www.w3.org/1999/xlink" x="0px" y="0px"
	 viewBox="0 0 351.136 351.136" style="enable-background:new 0 0 351.136 351.136;" xml:space="preserve">
<g>
	<g id="Clips_2_">
		<g>
			<path d="M324.572,42.699c-35.419-35.419-92.855-35.419-128.273,0L19.931,219.066c-26.575,26.575-26.575,69.635,0,96.211
				c21.904,21.904,54.942,25.441,80.769,11.224c2.698-0.136,5.351-1.156,7.415-3.197l176.367-176.367
				c17.709-17.709,17.709-46.416,0-64.125s-46.416-17.709-64.125,0L76.052,227.116c-4.422,4.422-4.422,11.61,0,16.031
				c4.422,4.422,11.61,4.422,16.031,0L236.388,98.843c8.866-8.866,23.219-8.866,32.063,0c8.866,8.866,8.866,23.219,0,32.063
				L100.088,299.268c-17.709,17.709-46.416,17.709-64.125,0s-17.709-46.416,0-64.125L212.33,58.73
				c26.575-26.575,69.635-26.575,96.211,0c26.575,26.575,26.575,69.635,0,96.211L148.205,315.277c-4.422,4.422-4.422,11.61,0,16.031
				c4.422,4.422,11.61,4.422,16.031,0l160.336-160.336C359.991,135.554,359.991,78.118,324.572,42.699z"/>
		</g>
	</g>
</g>
<g>
</g>
<g>
</g>
<g>
</g>
<g>
</g>
<g>
</g>
<g>
</g>
<g>
</g>
<g>
</g>
<g>
</g>
<g>
</g>
<g>
</g>
<g>
</g>
<g>
</g>
<g>
</g>
<g>
</g>
</svg>
