<?xml version="1.0" encoding="iso-8859-1"?>
<!-- Generator: Adobe Illustrator 19.0.0, SVG Export Plug-In . SVG Version: 6.00 Build 0)  -->
<svg version="1.1" id="Layer_1" xmlns="http://www.w3.org/2000/svg" xmlns:xlink="http://www.w3.org/1999/xlink" x="0px" y="0px"
	 viewBox="0 0 512 512" style="enable-background:new 0 0 512 512;" xml:space="preserve">
<polygon style="fill:#E2E2E2;" points="338.856,0 445.88,107.024 445.88,512 59.24,512 59.24,0 "/>
<polygon style="fill:#999999;" points="445.88,107.024 338.84,107.024 338.84,0 "/>
<polygon style="fill:#333333;" points="407.528,422.896 22.04,422.896 22.04,293.008 489.96,293.008 "/>
<polygon style="fill:#999999;" points="59.24,460.08 59.24,422.896 22.04,422.896 "/>
<g>
	<path style="fill:#FFFFFF;" d="M182.232,381.12h-32.208l-4.656,14.336h-14.976l24.832-74.656h21.28l25.2,74.656H187L182.232,381.12
		z M178.952,370.672l-12.912-38.88l-12.688,38.88H178.952z"/>
	<path style="fill:#FFFFFF;" d="M253.336,381.12h-32.208l-4.656,14.336H201.48l24.832-74.656h21.28l25.2,74.656h-14.704
		L253.336,381.12z M250.056,370.672l-12.912-38.88l-12.688,38.88H250.056z"/>
	<path style="fill:#FFFFFF;" d="M325.352,368.832h14.208v2.56c0,10.384-1.888,17.104-5.68,20.16
		c-3.776,3.04-12.176,4.56-25.152,4.56c-14.72,0-23.776-2.4-27.168-7.216s-5.072-17.68-5.072-38.608
		c0-12.336,2.304-20.416,6.896-24.32c4.592-3.872,14.208-5.824,28.816-5.824c10.64,0,17.744,1.616,21.328,4.8s5.36,9.52,5.36,19.008
		l0.048,1.696h-14.224v-1.92c0-4.896-0.912-8.016-2.752-9.376c-1.84-1.376-6.048-2.048-12.608-2.048
		c-8.784,0-14.064,1.056-15.824,3.216s-2.656,8.528-2.656,19.136c0,14.304,0.8,22.752,2.368,25.376
		c1.6,2.624,6.72,3.936,15.408,3.936c7.024,0,11.6-0.736,13.68-2.192s3.152-4.672,3.152-9.632L325.352,368.832z"/>
</g>
<g>
</g>
<g>
</g>
<g>
</g>
<g>
</g>
<g>
</g>
<g>
</g>
<g>
</g>
<g>
</g>
<g>
</g>
<g>
</g>
<g>
</g>
<g>
</g>
<g>
</g>
<g>
</g>
<g>
</g>
</svg>
