<?xml version="1.0" encoding="iso-8859-1"?>
<!-- Generator: Adobe Illustrator 19.0.0, SVG Export Plug-In . SVG Version: 6.00 Build 0)  -->
<svg version="1.1" id="Layer_1" xmlns="http://www.w3.org/2000/svg" xmlns:xlink="http://www.w3.org/1999/xlink" x="0px" y="0px"
	 viewBox="0 0 512 512" style="enable-background:new 0 0 512 512;" xml:space="preserve">
<polygon style="fill:#E2E2E2;" points="338.856,0 445.88,107.024 445.88,512 59.24,512 59.24,0 "/>
<polygon style="fill:#999999;" points="445.88,107.024 338.84,107.024 338.84,0 "/>
<polygon style="fill:#333333;" points="407.528,422.896 22.04,422.896 22.04,293.008 489.96,293.008 "/>
<polygon style="fill:#999999;" points="59.24,460.08 59.24,422.896 22.04,422.896 "/>
<g>
	<path style="fill:#FFFFFF;" d="M183.464,381.136H151.24l-4.64,14.336h-14.976l24.832-74.656h21.264l25.216,74.656h-14.72
		L183.464,381.136z M180.184,370.688l-12.912-38.88l-12.688,38.88H180.184z"/>
	<path style="fill:#FFFFFF;" d="M257.4,320.8h14.16v49.664c0,10.4-1.984,17.264-5.984,20.624c-3.984,3.36-12.16,5.024-24.464,5.024
		c-13.008,0-21.552-1.6-25.6-4.752c-4.048-3.184-6.08-9.872-6.08-20.08V320.8h14.176v50.48c0,5.504,0.992,8.992,2.96,10.464
		c1.968,1.488,6.592,2.224,13.888,2.224c7.472,0,12.176-0.752,14.08-2.24c1.92-1.504,2.88-5.168,2.88-11.008V320.8H257.4z"/>
	<path style="fill:#FFFFFF;" d="M314.376,333.488v61.968H300.2v-61.968h-21.552V320.8h58.032v12.688L314.376,333.488
		L314.376,333.488z"/>
</g>
<g>
</g>
<g>
</g>
<g>
</g>
<g>
</g>
<g>
</g>
<g>
</g>
<g>
</g>
<g>
</g>
<g>
</g>
<g>
</g>
<g>
</g>
<g>
</g>
<g>
</g>
<g>
</g>
<g>
</g>
</svg>
