<?xml version="1.0" encoding="iso-8859-1"?>
<!-- Generator: Adobe Illustrator 19.0.0, SVG Export Plug-In . SVG Version: 6.00 Build 0)  -->
<svg version="1.1" id="Layer_1" xmlns="http://www.w3.org/2000/svg" xmlns:xlink="http://www.w3.org/1999/xlink" x="0px" y="0px"
	 viewBox="0 0 512 512" style="enable-background:new 0 0 512 512;" xml:space="preserve">
<polygon style="fill:#E2E2E2;" points="338.856,0 445.88,107.024 445.88,512 59.24,512 59.24,0 "/>
<polygon style="fill:#999999;" points="445.88,107.024 338.84,107.024 338.84,0 "/>
<polygon style="fill:#333333;" points="407.528,422.896 22.04,422.896 22.04,293.008 489.96,293.008 "/>
<polygon style="fill:#999999;" points="59.24,460.08 59.24,422.896 22.04,422.896 "/>
<g>
	<path style="fill:#FFFFFF;" d="M201.064,381.136h-32.208l-4.656,14.336h-14.992l24.832-74.656h21.28l25.2,74.656h-14.704
		L201.064,381.136z M197.784,370.688l-12.912-38.88l-12.688,38.88H197.784z"/>
	<path style="fill:#FFFFFF;" d="M274.792,320.8h14.992l-24.064,74.656h-21.76L220.12,320.8h14.72l14,42.288
		c1.312,4.048,3.264,10.832,5.84,20.336h0.384l1.424-5.088c1.744-6.336,3.232-11.408,4.48-15.184L274.792,320.8z"/>
	<path style="fill:#FFFFFF;" d="M310.12,320.8v74.656h-14.16V320.8H310.12z"/>
</g>
<g>
</g>
<g>
</g>
<g>
</g>
<g>
</g>
<g>
</g>
<g>
</g>
<g>
</g>
<g>
</g>
<g>
</g>
<g>
</g>
<g>
</g>
<g>
</g>
<g>
</g>
<g>
</g>
<g>
</g>
</svg>
