<?xml version="1.0" encoding="iso-8859-1"?>
<!-- Generator: Adobe Illustrator 19.0.0, SVG Export Plug-In . SVG Version: 6.00 Build 0)  -->
<svg version="1.1" id="Layer_1" xmlns="http://www.w3.org/2000/svg" xmlns:xlink="http://www.w3.org/1999/xlink" x="0px" y="0px"
	 viewBox="0 0 512 512" style="enable-background:new 0 0 512 512;" xml:space="preserve">
<polygon style="fill:#E2E2E2;" points="338.856,0 445.88,107.024 445.88,512 59.24,512 59.24,0 "/>
<polygon style="fill:#999999;" points="445.88,107.024 338.84,107.024 338.84,0 "/>
<polygon style="fill:#333333;" points="407.528,422.896 22.04,422.896 22.04,293.008 489.96,293.008 "/>
<polygon style="fill:#999999;" points="59.24,460.08 59.24,422.896 22.04,422.896 "/>
<g>
	<path style="fill:#FFFFFF;" d="M151.64,395.456V320.8h36.704c8.592,0,14.448,1.392,17.584,4.144
		c3.104,2.752,4.672,7.936,4.672,15.552c0,9.232-3.664,14.656-10.992,16.32v0.272c8.528,1.312,12.8,7.232,12.8,17.76
		c0,7.632-1.648,12.976-4.928,16.032s-9.008,4.592-17.168,4.592H151.64V395.456z M165.816,352.144h17.328
		c5.632,0,9.2-0.624,10.752-1.856s2.336-4.112,2.336-8.576c0-5.984-3.392-8.976-10.176-8.976h-20.24V352.144z M165.816,383.536
		h15.536l4.976-0.112c4.784,0,7.92-0.672,9.44-2.032c1.52-1.344,2.272-4.192,2.272-8.528c0-4.512-0.8-7.36-2.368-8.528
		c-1.6-1.152-5.504-1.744-11.728-1.744h-18.096v20.944H165.816z"/>
	<path style="fill:#FFFFFF;" d="M236.856,320.8v74.656h-14.16V320.8H236.856z"/>
	<path style="fill:#FFFFFF;" d="M319.368,320.8v74.656h-24L274.04,354.48c-1.04-2.032-2.72-5.616-4.976-10.72l-2.4-5.344
		l-2.352-5.376h-0.544l0.224,4.944l0.176,4.864l0.112,9.792v42.816h-14.176V320.8h24.016l19.408,37.84
		c1.712,3.36,3.696,7.424,5.968,12.208l2.848,6.08l2.848,6.128h0.48l-0.16-4.816l-0.192-4.8l-0.112-9.632V320.8H319.368z"/>
</g>
<g>
</g>
<g>
</g>
<g>
</g>
<g>
</g>
<g>
</g>
<g>
</g>
<g>
</g>
<g>
</g>
<g>
</g>
<g>
</g>
<g>
</g>
<g>
</g>
<g>
</g>
<g>
</g>
<g>
</g>
</svg>
