<?xml version="1.0" encoding="iso-8859-1"?>
<!-- Generator: Adobe Illustrator 19.0.0, SVG Export Plug-In . SVG Version: 6.00 Build 0)  -->
<svg version="1.1" id="Layer_1" xmlns="http://www.w3.org/2000/svg" xmlns:xlink="http://www.w3.org/1999/xlink" x="0px" y="0px"
	 viewBox="0 0 512 512" style="enable-background:new 0 0 512 512;" xml:space="preserve">
<polygon style="fill:#E2E2E2;" points="338.856,0 445.88,107.024 445.88,512 59.24,512 59.24,0 "/>
<polygon style="fill:#999999;" points="445.88,107.024 338.84,107.024 338.84,0 "/>
<polygon style="fill:#333333;" points="407.528,422.896 22.04,422.896 22.04,293.008 489.96,293.008 "/>
<polygon style="fill:#999999;" points="59.24,460.08 59.24,422.896 22.04,422.896 "/>
<g>
	<path style="fill:#FFFFFF;" d="M117.48,395.456V320.8h36.704c8.592,0,14.448,1.392,17.584,4.144
		c3.104,2.752,4.672,7.936,4.672,15.552c0,9.232-3.664,14.656-10.992,16.32v0.272c8.528,1.312,12.8,7.232,12.8,17.76
		c0,7.632-1.648,12.976-4.928,16.032s-9.008,4.592-17.168,4.592H117.48V395.456z M131.64,352.144h17.328
		c5.632,0,9.2-0.624,10.752-1.856s2.336-4.112,2.336-8.576c0-5.984-3.392-8.976-10.176-8.976h-20.24V352.144z M131.64,383.536
		h15.536l4.976-0.112c4.784,0,7.92-0.672,9.44-2.032c1.52-1.344,2.272-4.192,2.272-8.528c0-4.512-0.8-7.36-2.368-8.528
		c-1.6-1.152-5.504-1.744-11.728-1.744H131.64V383.536z"/>
	<path style="fill:#FFFFFF;" d="M275.8,320.8v74.656h-14.176v-40.688c0-3.248,0.096-6.928,0.288-11.04l0.272-5.584l0.288-5.536
		h-0.432l-1.696,5.2l-1.648,5.2c-1.536,4.656-2.72,8.112-3.552,10.336l-16.4,42.112h-12.912l-16.576-41.776
		c-0.912-2.304-2.112-5.744-3.616-10.336l-1.68-5.184l-1.696-5.136H201.8l0.288,5.424l0.272,5.472
		c0.224,4.224,0.336,7.84,0.336,10.88v40.688H188.52V320.8h23.072l13.344,34.56c0.912,2.4,2.112,5.856,3.616,10.336l1.648,5.184
		l1.68,5.152h0.496l1.584-5.136l1.648-5.12c1.36-4.336,2.512-7.776,3.504-10.288l13.12-34.688L275.8,320.8L275.8,320.8z"/>
	<path style="fill:#FFFFFF;" d="M288.92,395.456V320.8h30.096h3.712c10.096,0,16.912,1.76,20.4,5.28
		c3.536,3.52,5.28,10.32,5.28,20.368c0,9.984-1.664,16.624-5.024,19.904c-3.344,3.28-10.128,4.928-20.336,4.928l-3.28,0.048H303.08
		v24.128H288.92z M303.064,359.424h16.16c6.4,0,10.464-0.752,12.224-2.224c1.712-1.488,2.592-4.976,2.592-10.464
		c0-6.32-0.72-10.224-2.16-11.728s-5.184-2.272-11.248-2.272h-17.568L303.064,359.424L303.064,359.424z"/>
</g>
<g>
</g>
<g>
</g>
<g>
</g>
<g>
</g>
<g>
</g>
<g>
</g>
<g>
</g>
<g>
</g>
<g>
</g>
<g>
</g>
<g>
</g>
<g>
</g>
<g>
</g>
<g>
</g>
<g>
</g>
</svg>
