<?xml version="1.0" encoding="iso-8859-1"?>
<!-- Generator: Adobe Illustrator 19.0.0, SVG Export Plug-In . SVG Version: 6.00 Build 0)  -->
<svg version="1.1" id="Layer_1" xmlns="http://www.w3.org/2000/svg" xmlns:xlink="http://www.w3.org/1999/xlink" x="0px" y="0px"
	 viewBox="0 0 512 512" style="enable-background:new 0 0 512 512;" xml:space="preserve">
<polygon style="fill:#E2E2E2;" points="338.856,0 445.88,107.024 445.88,512 59.24,512 59.24,0 "/>
<polygon style="fill:#999999;" points="445.88,107.024 338.84,107.024 338.84,0 "/>
<polygon style="fill:#333333;" points="407.528,422.896 22.04,422.896 22.04,293.008 489.96,293.008 "/>
<polygon style="fill:#999999;" points="59.24,460.08 59.24,422.896 22.04,422.896 "/>
<g>
	<path style="fill:#FFFFFF;" d="M178.312,368.832h14.224v2.56c0,10.384-1.904,17.104-5.68,20.16
		c-3.792,3.04-12.192,4.56-25.152,4.56c-14.736,0-23.792-2.4-27.184-7.216c-3.392-4.816-5.104-17.696-5.104-38.608
		c0-12.336,2.304-20.416,6.896-24.32c4.592-3.872,14.208-5.824,28.816-5.824c10.656,0,17.76,1.616,21.328,4.8
		c3.584,3.184,5.36,9.52,5.36,19.008l0.064,1.696h-14.224v-1.92c0-4.896-0.928-8.016-2.768-9.376
		c-1.84-1.376-6.048-2.048-12.608-2.048c-8.784,0-14.064,1.056-15.824,3.216s-2.656,8.528-2.656,19.136
		c0,14.304,0.8,22.752,2.368,25.376c1.6,2.624,6.72,3.936,15.408,3.936c7.024,0,11.6-0.736,13.68-2.192
		c2.112-1.456,3.152-4.672,3.152-9.632L178.312,368.832z"/>
	<path style="fill:#FFFFFF;" d="M246.616,381.12h-32.208l-4.656,14.336H194.76l24.832-74.656h21.28l25.2,74.656h-14.704
		L246.616,381.12z M243.336,370.672l-12.912-38.88l-12.688,38.88H243.336z"/>
	<path style="fill:#FFFFFF;" d="M272.536,395.456V320.8h36.704c10.416,0,17.712,2.288,21.888,6.848s6.272,12.544,6.272,23.952
		c0,18.624-1.664,30.592-5.024,35.904c-3.36,5.296-10.928,7.952-22.688,7.952L272.536,395.456L272.536,395.456z M286.712,383.536
		h20.176c6.784,0,11.168-1.568,13.152-4.672c1.984-3.12,2.976-10,2.976-20.656c0-11.008-0.896-18-2.672-20.992
		s-5.984-4.464-12.576-4.464h-21.04v50.784H286.712z"/>
</g>
<g>
</g>
<g>
</g>
<g>
</g>
<g>
</g>
<g>
</g>
<g>
</g>
<g>
</g>
<g>
</g>
<g>
</g>
<g>
</g>
<g>
</g>
<g>
</g>
<g>
</g>
<g>
</g>
<g>
</g>
</svg>
