<?xml version="1.0" encoding="iso-8859-1"?>
<!-- Generator: Adobe Illustrator 19.0.0, SVG Export Plug-In . SVG Version: 6.00 Build 0)  -->
<svg version="1.1" id="Layer_1" xmlns="http://www.w3.org/2000/svg" xmlns:xlink="http://www.w3.org/1999/xlink" x="0px" y="0px"
	 viewBox="0 0 512 512" style="enable-background:new 0 0 512 512;" xml:space="preserve">
<polygon style="fill:#E2E2E2;" points="338.856,0 445.88,107.024 445.88,512 59.24,512 59.24,0 "/>
<polygon style="fill:#999999;" points="445.88,107.024 338.84,107.024 338.84,0 "/>
<polygon style="fill:#333333;" points="407.528,422.896 22.04,422.896 22.04,293.008 489.96,293.008 "/>
<polygon style="fill:#999999;" points="59.24,460.08 59.24,422.896 22.04,422.896 "/>
<g>
	<path style="fill:#FFFFFF;" d="M177.704,368.832h14.224v2.56c0,10.384-1.888,17.104-5.68,20.16
		c-3.776,3.04-12.176,4.56-25.152,4.56c-14.72,0-23.776-2.4-27.168-7.216s-5.12-17.696-5.12-38.608
		c0-12.336,2.304-20.416,6.896-24.32c4.592-3.872,14.208-5.824,28.832-5.824c10.64,0,17.744,1.616,21.328,4.8
		c3.568,3.184,5.36,9.52,5.36,19.008l0.048,1.696h-14.224v-1.92c0-4.896-0.928-8.016-2.752-9.376
		c-1.84-1.376-6.048-2.048-12.608-2.048c-8.8,0-14.064,1.056-15.824,3.216c-1.776,2.16-2.656,8.528-2.656,19.136
		c0,14.304,0.8,22.752,2.368,25.376c1.6,2.624,6.72,3.936,15.392,3.936c7.04,0,11.616-0.736,13.696-2.192
		c2.08-1.456,3.136-4.672,3.136-9.632L177.704,368.832z"/>
	<path style="fill:#FFFFFF;" d="M200.84,395.456V320.8h36.688c10.432,0,17.728,2.288,21.904,6.848s6.272,12.544,6.272,23.952
		c0,18.624-1.68,30.592-5.024,35.904c-3.36,5.296-10.928,7.952-22.704,7.952L200.84,395.456L200.84,395.456z M215,383.536h20.192
		c6.784,0,11.152-1.568,13.152-4.672c1.984-3.12,2.976-10,2.976-20.656c0-11.008-0.896-18-2.672-20.992
		c-1.792-2.992-5.984-4.464-12.576-4.464h-21.056v50.784H215z"/>
	<path style="fill:#FFFFFF;" d="M276.04,395.456V320.8h36.832c9.12,0,15.44,1.6,18.912,4.768s5.184,8.928,5.184,17.232
		c0,7.536-0.848,12.704-2.592,15.472c-1.712,2.768-5.28,4.688-10.624,5.744v0.48c8.288,0.512,12.4,5.344,12.4,14.48v16.464h-14.16
		v-13.632c0-7.68-3.808-11.536-11.376-11.536h-20.4v25.152H276.04V395.456z M290.2,358.368h20.336c4.848,0,8.064-0.864,9.664-2.592
		s2.368-5.2,2.368-10.416c0-5.328-0.688-8.768-2.064-10.32c-1.344-1.552-4.336-2.32-8.976-2.32h-21.344v25.648H290.2z"/>
</g>
<g>
</g>
<g>
</g>
<g>
</g>
<g>
</g>
<g>
</g>
<g>
</g>
<g>
</g>
<g>
</g>
<g>
</g>
<g>
</g>
<g>
</g>
<g>
</g>
<g>
</g>
<g>
</g>
<g>
</g>
</svg>
