<?xml version="1.0" encoding="iso-8859-1"?>
<!-- Generator: Adobe Illustrator 19.0.0, SVG Export Plug-In . SVG Version: 6.00 Build 0)  -->
<svg version="1.1" id="Layer_1" xmlns="http://www.w3.org/2000/svg" xmlns:xlink="http://www.w3.org/1999/xlink" x="0px" y="0px"
	 viewBox="0 0 512 512" style="enable-background:new 0 0 512 512;" xml:space="preserve">
<polygon style="fill:#E2E2E2;" points="338.856,0 445.88,107.024 445.88,512 59.24,512 59.24,0 "/>
<polygon style="fill:#999999;" points="445.88,107.024 338.84,107.024 338.84,0 "/>
<polygon style="fill:#333333;" points="407.528,422.896 22.04,422.896 22.04,293.008 489.96,293.008 "/>
<polygon style="fill:#999999;" points="59.24,460.08 59.24,422.896 22.04,422.896 "/>
<g>
	<path style="fill:#FFFFFF;" d="M183.768,368.832h14.224v2.56c0,10.384-1.888,17.104-5.68,20.16
		c-3.776,3.04-12.176,4.56-25.152,4.56c-14.72,0-23.776-2.4-27.168-7.216s-5.088-17.68-5.088-38.608
		c0-12.336,2.304-20.416,6.896-24.32c4.592-3.872,14.208-5.824,28.832-5.824c10.64,0,17.744,1.616,21.328,4.8
		c3.568,3.184,5.36,9.52,5.36,19.008l0.048,1.696h-14.224v-1.92c0-4.896-0.928-8.016-2.752-9.376
		c-1.84-1.376-6.048-2.048-12.608-2.048c-8.8,0-14.064,1.056-15.824,3.216c-1.776,2.16-2.656,8.528-2.656,19.136
		c0,14.304,0.8,22.752,2.368,25.376c1.6,2.624,6.72,3.936,15.392,3.936c7.04,0,11.616-0.736,13.696-2.192
		c2.08-1.456,3.136-4.672,3.136-9.632L183.768,368.832z"/>
	<path style="fill:#FFFFFF;" d="M262.296,342.592h-13.824c-0.08-0.704-0.112-1.216-0.112-1.536c-0.336-4.208-1.264-6.832-2.8-7.904
		s-5.136-1.632-10.832-1.632c-6.704,0-11.088,0.624-13.136,1.872c-2.064,1.232-3.088,3.84-3.088,7.808
		c0,4.704,0.832,7.536,2.512,8.464c1.664,0.96,7.216,1.68,16.624,2.192c11.104,0.624,18.32,2.224,21.584,4.768
		c3.248,2.544,4.896,7.856,4.896,15.92c0,9.904-1.92,16.32-5.744,19.216c-3.824,2.896-12.272,4.336-25.312,4.336
		c-11.744,0-19.536-1.424-23.376-4.272c-3.856-2.848-5.776-8.608-5.776-17.28l-0.048-2.736h13.776l0.048,1.6
		c0,5.2,0.928,8.384,2.736,9.568c1.824,1.168,6.8,1.744,14.944,1.744c6.336,0,10.384-0.672,12.144-2.032
		c1.744-1.344,2.624-4.448,2.624-9.344c0-3.616-0.672-6-2-7.184s-4.208-1.904-8.608-2.16l-7.824-0.496
		c-11.808-0.688-19.36-2.336-22.64-4.928s-4.928-8.144-4.928-16.672c0-8.72,1.984-14.528,5.936-17.424
		c3.952-2.912,11.856-4.352,23.696-4.352c11.232,0,18.8,1.344,22.704,4c3.888,2.656,5.84,7.856,5.84,15.6v2.864H262.296z"/>
	<path style="fill:#FFFFFF;" d="M329.368,342.592h-13.84c-0.08-0.704-0.112-1.216-0.112-1.536c-0.336-4.208-1.264-6.832-2.8-7.904
		s-5.12-1.632-10.832-1.632c-6.704,0-11.088,0.624-13.136,1.872c-2.064,1.232-3.088,3.84-3.088,7.808
		c0,4.704,0.832,7.536,2.512,8.464c1.664,0.96,7.216,1.68,16.624,2.192c11.12,0.624,18.32,2.224,21.584,4.768
		s4.896,7.856,4.896,15.92c0,9.904-1.92,16.32-5.728,19.216c-3.84,2.896-12.288,4.336-25.328,4.336
		c-11.744,0-19.536-1.424-23.376-4.272c-3.856-2.848-5.776-8.608-5.776-17.28l-0.048-2.736h13.776l0.048,1.6
		c0,5.2,0.928,8.384,2.736,9.568c1.824,1.168,6.8,1.744,14.944,1.744c6.336,0,10.384-0.672,12.144-2.032
		c1.744-1.344,2.624-4.448,2.624-9.344c0-3.616-0.672-6-2-7.184s-4.208-1.904-8.608-2.16l-7.824-0.496
		c-11.808-0.688-19.36-2.336-22.64-4.928s-4.928-8.144-4.928-16.672c0-8.72,1.984-14.528,5.936-17.424
		c3.952-2.912,11.856-4.352,23.696-4.352c11.232,0,18.8,1.344,22.704,4s5.856,7.856,5.856,15.6v2.864H329.368z"/>
</g>
<g>
</g>
<g>
</g>
<g>
</g>
<g>
</g>
<g>
</g>
<g>
</g>
<g>
</g>
<g>
</g>
<g>
</g>
<g>
</g>
<g>
</g>
<g>
</g>
<g>
</g>
<g>
</g>
<g>
</g>
</svg>
