<?xml version="1.0" encoding="iso-8859-1"?>
<!-- Generator: Adobe Illustrator 19.0.0, SVG Export Plug-In . SVG Version: 6.00 Build 0)  -->
<svg version="1.1" id="Layer_1" xmlns="http://www.w3.org/2000/svg" xmlns:xlink="http://www.w3.org/1999/xlink" x="0px" y="0px"
	 viewBox="0 0 512 512" style="enable-background:new 0 0 512 512;" xml:space="preserve">
<polygon style="fill:#E2E2E2;" points="338.856,0 445.88,107.024 445.88,512 59.24,512 59.24,0 "/>
<polygon style="fill:#999999;" points="445.88,107.024 338.84,107.024 338.84,0 "/>
<polygon style="fill:#333333;" points="407.528,422.896 22.04,422.896 22.04,293.008 489.96,293.008 "/>
<polygon style="fill:#999999;" points="59.24,460.08 59.24,422.896 22.04,422.896 "/>
<g>
	<path style="fill:#FFFFFF;" d="M168.968,395.456V320.8h36.688c10.432,0,17.728,2.288,21.904,6.848
		c4.176,4.56,6.272,12.544,6.272,23.952c0,18.624-1.68,30.592-5.024,35.904c-3.36,5.296-10.928,7.952-22.704,7.952L168.968,395.456
		L168.968,395.456z M183.112,383.536h20.192c6.784,0,11.152-1.568,13.152-4.672c1.984-3.12,2.976-10,2.976-20.656
		c0-11.008-0.896-18-2.672-20.992c-1.792-2.992-5.984-4.464-12.576-4.464h-21.056v50.784H183.112z"/>
	<path style="fill:#FFFFFF;" d="M244.152,395.456V320.8h36.704c8.592,0,14.448,1.392,17.584,4.144
		c3.104,2.752,4.672,7.936,4.672,15.552c0,9.232-3.664,14.656-10.992,16.32v0.272c8.528,1.312,12.8,7.232,12.8,17.76
		c0,7.632-1.648,12.976-4.928,16.032s-9.008,4.592-17.168,4.592h-38.672V395.456z M258.312,352.144h17.328
		c5.632,0,9.2-0.624,10.752-1.856s2.336-4.112,2.336-8.576c0-5.984-3.392-8.976-10.176-8.976h-20.24L258.312,352.144
		L258.312,352.144z M258.312,383.536h15.536l4.976-0.112c4.784,0,7.92-0.672,9.44-2.032c1.52-1.344,2.272-4.192,2.272-8.528
		c0-4.512-0.8-7.36-2.368-8.528c-1.6-1.152-5.504-1.744-11.728-1.744h-18.096v20.944H258.312z"/>
</g>
<g>
</g>
<g>
</g>
<g>
</g>
<g>
</g>
<g>
</g>
<g>
</g>
<g>
</g>
<g>
</g>
<g>
</g>
<g>
</g>
<g>
</g>
<g>
</g>
<g>
</g>
<g>
</g>
<g>
</g>
</svg>
