<?xml version="1.0" encoding="iso-8859-1"?>
<!-- Generator: Adobe Illustrator 19.0.0, SVG Export Plug-In . SVG Version: 6.00 Build 0)  -->
<svg version="1.1" id="Layer_1" xmlns="http://www.w3.org/2000/svg" xmlns:xlink="http://www.w3.org/1999/xlink" x="0px" y="0px"
	 viewBox="0 0 512 512" style="enable-background:new 0 0 512 512;" xml:space="preserve">
<polygon style="fill:#E2E2E2;" points="338.856,0 445.88,107.008 445.88,512 59.24,512 59.24,0 "/>
<polygon style="fill:#999999;" points="445.88,107.008 338.84,107.008 338.84,0 "/>
<polygon style="fill:#333333;" points="407.528,422.896 22.04,422.896 22.04,293.008 489.96,293.008 "/>
<polygon style="fill:#999999;" points="59.24,460.08 59.24,422.896 22.04,422.896 "/>
<g>
	<path style="fill:#FFFFFF;" d="M113.384,395.616V320.96h36.688c10.432,0,17.728,2.288,21.904,6.848s6.272,12.544,6.272,23.952
		c0,18.624-1.68,30.592-5.024,35.904c-3.36,5.296-10.928,7.952-22.704,7.952L113.384,395.616L113.384,395.616z M127.544,383.696
		h20.192c6.784,0,11.152-1.568,13.152-4.672c1.984-3.12,2.976-10,2.976-20.656c0-11.008-0.896-18-2.672-20.992
		c-1.792-2.992-5.984-4.464-12.576-4.464h-21.072V383.696z"/>
	<path style="fill:#FFFFFF;" d="M275.848,320.96v74.656h-14.16v-40.688c0-3.248,0.096-6.928,0.272-11.04l0.288-5.584l0.272-5.536
		h-0.432l-1.68,5.2l-1.648,5.2c-1.536,4.656-2.72,8.112-3.568,10.336l-16.4,42.112H225.88l-16.56-41.776
		c-0.928-2.304-2.128-5.744-3.616-10.336l-1.696-5.184l-1.68-5.136h-0.432l0.272,5.424l0.288,5.472
		c0.224,4.224,0.336,7.84,0.336,10.88v40.688h-14.176V320.96h23.072l13.344,34.56c0.928,2.4,2.128,5.856,3.616,10.336l1.648,5.184
		l1.696,5.152h0.48l1.6-5.152l1.648-5.12c1.344-4.336,2.512-7.776,3.504-10.288l13.12-34.688h23.504V320.96z"/>
	<path style="fill:#FFFFFF;" d="M318.36,355.904h32.864l0.224,14.832c0,10.784-2.032,17.728-6.096,20.864
		c-4.064,3.104-13.136,4.672-27.2,4.672c-12.912,0-21.472-2.08-25.664-6.24s-6.288-12.64-6.288-25.424
		c0-16.336,0.832-26.656,2.496-30.976c2.096-5.248,5.232-8.784,9.472-10.592c4.24-1.824,11.408-2.752,21.552-2.752
		c13.264,0,21.84,1.424,25.696,4.256s5.792,9.072,5.792,18.784h-14.336c-0.256-4.896-1.328-7.92-3.2-9.104s-6.576-1.76-14.144-1.76
		c-8.192,0-13.408,1.008-15.616,3.056c-2.208,2.032-3.296,6.832-3.296,14.368l-0.064,7.504l0.112,9.568
		c0,7.408,1.088,12.112,3.28,14.144c2.192,2.016,7.248,3.024,15.2,3.024c7.728,0,12.64-0.864,14.736-2.576
		c2.096-1.696,3.136-5.744,3.136-12.128l0.064-3.056h-18.752v-10.464H318.36z"/>
</g>
<g>
</g>
<g>
</g>
<g>
</g>
<g>
</g>
<g>
</g>
<g>
</g>
<g>
</g>
<g>
</g>
<g>
</g>
<g>
</g>
<g>
</g>
<g>
</g>
<g>
</g>
<g>
</g>
<g>
</g>
</svg>
