<?xml version="1.0" encoding="iso-8859-1"?>
<!-- Generator: Adobe Illustrator 19.0.0, SVG Export Plug-In . SVG Version: 6.00 Build 0)  -->
<svg version="1.1" id="Layer_1" xmlns="http://www.w3.org/2000/svg" xmlns:xlink="http://www.w3.org/1999/xlink" x="0px" y="0px"
	 viewBox="0 0 512 512" style="enable-background:new 0 0 512 512;" xml:space="preserve">
<polygon style="fill:#E2E2E2;" points="338.856,0 445.88,107.024 445.88,512 59.24,512 59.24,0 "/>
<polygon style="fill:#999999;" points="445.88,107.024 338.84,107.024 338.84,0 "/>
<polygon style="fill:#333333;" points="407.528,422.896 22.04,422.896 22.04,293.008 489.96,293.008 "/>
<polygon style="fill:#999999;" points="59.24,460.08 59.24,422.896 22.04,422.896 "/>
<g>
	<path style="fill:#FFFFFF;" d="M87.864,395.456V320.8h36.704c10.416,0,17.712,2.288,21.888,6.848
		c4.192,4.56,6.272,12.544,6.272,23.952c0,18.624-1.664,30.592-5.024,35.904c-3.344,5.296-10.928,7.952-22.688,7.952L87.864,395.456
		L87.864,395.456z M102.04,383.536h20.176c6.784,0,11.168-1.568,13.152-4.672c1.984-3.12,2.992-10,2.992-20.656
		c0-11.008-0.896-18-2.688-20.992c-1.776-2.992-5.968-4.464-12.576-4.464H102.04V383.536z"/>
	<path style="fill:#FFFFFF;" d="M194.072,320.144c13.568,0,22.304,2.272,26.208,6.768c3.888,4.496,5.84,14.576,5.84,30.208
		c0,17.104-1.952,27.872-5.872,32.336c-3.92,4.464-13.408,6.672-28.464,6.672c-13.568,0-22.336-2.208-26.304-6.592
		c-3.984-4.384-5.968-14.064-5.968-28.992c0-17.792,1.952-28.976,5.856-33.536C169.256,322.416,178.84,320.144,194.072,320.144z
		 M192.968,332.304c-9.52,0-15.072,1.216-16.672,3.664c-1.616,2.432-2.4,10.912-2.4,25.376c0,10.72,0.944,17.168,2.816,19.36
		c1.872,2.192,7.408,3.28,16.592,3.28c8.8,0,14.064-1.232,15.808-3.68c1.744-2.464,2.624-9.92,2.624-22.384
		c0-12.512-0.832-19.904-2.48-22.192C207.592,333.424,202.168,332.304,192.968,332.304z"/>
	<path style="fill:#FFFFFF;" d="M281.768,368.832h14.224v2.56c0,10.384-1.872,17.104-5.68,20.16c-3.776,3.04-12.16,4.56-25.152,4.56
		c-14.704,0-23.76-2.4-27.152-7.216s-5.088-17.68-5.088-38.608c0-12.336,2.304-20.416,6.896-24.32
		c4.592-3.872,14.208-5.824,28.832-5.824c10.624,0,17.744,1.616,21.312,4.8c3.6,3.184,5.376,9.52,5.376,19.008l0.032,1.696h-14.224
		v-1.92c0-4.896-0.912-8.016-2.752-9.376c-1.84-1.376-6.032-2.048-12.592-2.048c-8.8,0-14.064,1.056-15.824,3.216
		c-1.776,2.16-2.656,8.528-2.656,19.136c0,14.304,0.8,22.752,2.368,25.376c1.6,2.624,6.704,3.936,15.392,3.936
		c7.024,0,11.6-0.736,13.68-2.192s3.152-4.672,3.152-9.632L281.768,368.832z"/>
	<path style="fill:#FFFFFF;" d="M367.816,320.8L345.4,356.96l23.904,38.496H352.68l-10.72-17.936
		c-1.664-2.768-3.216-5.584-4.72-8.416l-1.536-2.96l-1.584-2.912h-0.224l-1.584,2.976c-1.904,3.568-4.064,7.344-6.464,11.312
		l-10.768,17.936h-17.056l24.496-38.496l-22.752-36.16h16.896l9.968,16.624c1.568,2.624,3.024,5.216,4.416,7.776l1.36,2.624
		l1.376,2.624h0.224c0.624-1.168,1.072-2.048,1.376-2.624l1.36-2.576c1.168-2.272,2.624-4.848,4.368-7.76l9.952-16.688
		L367.816,320.8L367.816,320.8z"/>
</g>
<g>
</g>
<g>
</g>
<g>
</g>
<g>
</g>
<g>
</g>
<g>
</g>
<g>
</g>
<g>
</g>
<g>
</g>
<g>
</g>
<g>
</g>
<g>
</g>
<g>
</g>
<g>
</g>
<g>
</g>
</svg>
