<?xml version="1.0" encoding="iso-8859-1"?>
<!-- Generator: Adobe Illustrator 19.0.0, SVG Export Plug-In . SVG Version: 6.00 Build 0)  -->
<svg version="1.1" id="Layer_1" xmlns="http://www.w3.org/2000/svg" xmlns:xlink="http://www.w3.org/1999/xlink" x="0px" y="0px"
	 viewBox="0 0 512 512" style="enable-background:new 0 0 512 512;" xml:space="preserve">
<polygon style="fill:#E2E2E2;" points="338.856,0 445.88,107.024 445.88,512 59.24,512 59.24,0 "/>
<polygon style="fill:#999999;" points="445.88,107.024 338.84,107.024 338.84,0 "/>
<polygon style="fill:#333333;" points="407.528,422.896 22.04,422.896 22.04,293.008 489.96,293.008 "/>
<polygon style="fill:#999999;" points="59.24,460.08 59.24,422.896 22.04,422.896 "/>
<g>
	<path style="fill:#FFFFFF;" d="M116.872,395.456V320.8h36.688c10.432,0,17.728,2.288,21.904,6.848
		c4.192,4.56,6.272,12.544,6.272,23.952c0,18.624-1.664,30.592-5.024,35.904c-3.36,5.296-10.928,7.952-22.704,7.952L116.872,395.456
		L116.872,395.456z M131.016,383.536h20.192c6.784,0,11.152-1.568,13.152-4.672c1.984-3.12,2.976-10,2.976-20.656
		c0-11.008-0.88-18-2.672-20.992c-1.792-2.992-5.984-4.464-12.576-4.464h-21.072V383.536z"/>
	<path style="fill:#FFFFFF;" d="M297,320.8l-19.952,74.656h-20.96l-10.384-38.288c-0.944-3.472-2.064-8.096-3.344-13.888
		l-1.024-4.592h-0.496l-1.088,4.64l-1.024,4.592c-0.768,3.104-1.6,6.208-2.464,9.312l-10.656,38.224h-20.72L185.512,320.8h14.432
		l10.784,40.976c0.656,2.624,1.472,6.256,2.464,10.88l1.136,5.472l1.088,5.472h0.48c0.592-2.4,1.024-4.224,1.312-5.472l1.312-5.408
		c0.704-2.848,1.664-6.464,2.912-10.88l11.488-41.024h16.624l11.2,41.024c0.96,3.504,1.872,7.12,2.8,10.88l1.264,5.408l1.312,5.472
		h0.432l1.184-5.472l1.152-5.472c0.944-4.4,1.808-8.048,2.56-10.944l11.056-40.912L297,320.8L297,320.8z"/>
	<path style="fill:#FFFFFF;" d="M317.768,332.736v20.128h33.472v11.904h-33.472v30.688h-14.16V320.8h49.44v11.936H317.768z"/>
</g>
<g>
</g>
<g>
</g>
<g>
</g>
<g>
</g>
<g>
</g>
<g>
</g>
<g>
</g>
<g>
</g>
<g>
</g>
<g>
</g>
<g>
</g>
<g>
</g>
<g>
</g>
<g>
</g>
<g>
</g>
</svg>
