<?xml version="1.0" encoding="iso-8859-1"?>
<!-- Generator: Adobe Illustrator 19.0.0, SVG Export Plug-In . SVG Version: 6.00 Build 0)  -->
<svg version="1.1" id="Layer_1" xmlns="http://www.w3.org/2000/svg" xmlns:xlink="http://www.w3.org/1999/xlink" x="0px" y="0px"
	 viewBox="0 0 512 512" style="enable-background:new 0 0 512 512;" xml:space="preserve">
<polygon style="fill:#E2E2E2;" points="338.856,0 445.88,107.024 445.88,512 59.24,512 59.24,0 "/>
<polygon style="fill:#999999;" points="445.88,107.024 338.84,107.024 338.84,0 "/>
<polygon style="fill:#333333;" points="407.528,422.896 22.04,422.896 22.04,293.008 489.96,293.008 "/>
<polygon style="fill:#999999;" points="59.24,460.08 59.24,422.896 22.04,422.896 "/>
<g>
	<path style="fill:#FFFFFF;" d="M108.104,395.456V320.8h36.704c10.416,0,17.712,2.288,21.888,6.848
		c4.192,4.56,6.272,12.544,6.272,23.952c0,18.624-1.664,30.592-5.024,35.904c-3.344,5.296-10.928,7.952-22.688,7.952
		L108.104,395.456L108.104,395.456z M122.28,383.536h20.176c6.784,0,11.168-1.568,13.152-4.672c1.984-3.12,2.992-10,2.992-20.656
		c0-11.008-0.896-18-2.688-20.992c-1.776-2.992-5.968-4.464-12.576-4.464H122.28V383.536z"/>
	<path style="fill:#FFFFFF;" d="M288.248,320.8l-19.952,74.656h-20.96l-10.384-38.288c-0.944-3.472-2.064-8.096-3.328-13.888
		l-1.04-4.592h-0.48l-1.088,4.64l-1.04,4.592c-0.768,3.104-1.584,6.208-2.448,9.312l-10.672,38.224h-20.72l-19.36-74.656h14.432
		l10.768,40.976c0.656,2.624,1.488,6.256,2.464,10.88l1.136,5.472l1.088,5.472h0.496c0.576-2.4,1.008-4.224,1.312-5.472l1.312-5.408
		c0.688-2.848,1.664-6.464,2.896-10.88l11.488-41.024h16.624l11.216,41.024c0.944,3.504,1.872,7.12,2.784,10.88l1.264,5.408
		l1.312,5.472h0.432l1.2-5.472l1.136-5.472c0.96-4.4,1.808-8.048,2.576-10.944l11.04-40.912L288.248,320.8L288.248,320.8z"/>
	<path style="fill:#FFFFFF;" d="M324.232,355.744h32.864l0.224,14.832c0,10.784-2.032,17.728-6.096,20.864
		c-4.064,3.104-13.136,4.672-27.2,4.672c-12.912,0-21.472-2.08-25.664-6.24s-6.288-12.64-6.288-25.424
		c0-16.336,0.832-26.656,2.496-30.976c2.096-5.248,5.232-8.784,9.472-10.592c4.24-1.824,11.408-2.752,21.552-2.752
		c13.264,0,21.84,1.424,25.696,4.256s5.792,9.072,5.792,18.784h-14.32c-0.256-4.896-1.328-7.92-3.2-9.104s-6.576-1.76-14.144-1.76
		c-8.192,0-13.408,1.008-15.616,3.056c-2.208,2.032-3.296,6.832-3.296,14.368l-0.064,7.504l0.112,9.568
		c0,7.408,1.088,12.112,3.28,14.144c2.192,2.016,7.248,3.024,15.2,3.024c7.728,0,12.64-0.864,14.736-2.576
		c2.096-1.696,3.136-5.744,3.136-12.128l0.064-3.056h-18.752v-10.464H324.232z"/>
</g>
<g>
</g>
<g>
</g>
<g>
</g>
<g>
</g>
<g>
</g>
<g>
</g>
<g>
</g>
<g>
</g>
<g>
</g>
<g>
</g>
<g>
</g>
<g>
</g>
<g>
</g>
<g>
</g>
<g>
</g>
</svg>
