<?xml version="1.0" encoding="iso-8859-1"?>
<!-- Generator: Adobe Illustrator 19.0.0, SVG Export Plug-In . SVG Version: 6.00 Build 0)  -->
<svg version="1.1" id="Layer_1" xmlns="http://www.w3.org/2000/svg" xmlns:xlink="http://www.w3.org/1999/xlink" x="0px" y="0px"
	 viewBox="0 0 512 512" style="enable-background:new 0 0 512 512;" xml:space="preserve">
<polygon style="fill:#E2E2E2;" points="338.856,0 445.88,107.024 445.88,512 59.24,512 59.24,0 "/>
<polygon style="fill:#999999;" points="445.88,107.024 338.84,107.024 338.84,0 "/>
<polygon style="fill:#333333;" points="407.528,422.896 22.04,422.896 22.04,293.008 489.96,293.008 "/>
<polygon style="fill:#999999;" points="59.24,460.08 59.24,422.896 22.04,422.896 "/>
<g>
	<path style="fill:#FFFFFF;" d="M209.224,320.8v74.656h-14.176v-32.272H160.04v32.272h-14.16V320.8h14.16v30.464h35.008V320.8
		H209.224z"/>
	<path style="fill:#FFFFFF;" d="M236.504,320.8v61.968h35.008v12.688H222.36V320.8H236.504z"/>
	<path style="fill:#FFFFFF;" d="M278.68,395.456V320.8h30.08h3.712c10.096,0,16.912,1.76,20.416,5.28s5.28,10.32,5.28,20.368
		c0,9.984-1.664,16.624-5.024,19.904S323,371.28,312.808,371.28l-3.28,0.048H292.84v24.128H278.68z M292.84,359.424h16.144
		c6.416,0,10.48-0.752,12.224-2.224c1.728-1.488,2.608-4.976,2.608-10.464c0-6.32-0.736-10.224-2.176-11.728
		s-5.168-2.272-11.232-2.272H292.84V359.424z"/>
</g>
<g>
</g>
<g>
</g>
<g>
</g>
<g>
</g>
<g>
</g>
<g>
</g>
<g>
</g>
<g>
</g>
<g>
</g>
<g>
</g>
<g>
</g>
<g>
</g>
<g>
</g>
<g>
</g>
<g>
</g>
</svg>
