<?xml version="1.0" encoding="iso-8859-1"?>
<!-- Generator: Adobe Illustrator 19.0.0, SVG Export Plug-In . SVG Version: 6.00 Build 0)  -->
<svg version="1.1" id="Layer_1" xmlns="http://www.w3.org/2000/svg" xmlns:xlink="http://www.w3.org/1999/xlink" x="0px" y="0px"
	 viewBox="0 0 512 512" style="enable-background:new 0 0 512 512;" xml:space="preserve">
<polygon style="fill:#E2E2E2;" points="338.856,0 445.88,107.024 445.88,512 59.24,512 59.24,0 "/>
<polygon style="fill:#999999;" points="445.88,107.024 338.84,107.024 338.84,0 "/>
<polygon style="fill:#333333;" points="407.528,422.896 22.04,422.896 22.04,293.008 489.96,293.008 "/>
<polygon style="fill:#999999;" points="59.24,460.08 59.24,422.896 22.04,422.896 "/>
<g>
	<path style="fill:#FFFFFF;" d="M181.576,320.8v74.656H167.4v-32.272h-34.992v32.272h-14.16V320.8h14.16v30.464h35.008V320.8
		H181.576z"/>
	<path style="fill:#FFFFFF;" d="M224.456,333.488v61.968H210.28v-61.968h-21.552V320.8h58.032v12.688L224.456,333.488
		L224.456,333.488z"/>
	<path style="fill:#FFFFFF;" d="M341.208,320.8v74.656h-14.16v-40.688c0-3.248,0.064-6.928,0.256-11.04l0.288-5.584l0.288-5.536
		h-0.432l-1.68,5.2l-1.664,5.2c-1.536,4.656-2.72,8.112-3.568,10.336l-16.4,42.112h-12.912l-16.56-41.776
		c-0.928-2.304-2.128-5.744-3.616-10.336l-1.696-5.184l-1.68-5.136h-0.432l0.272,5.424l0.288,5.472
		c0.224,4.224,0.336,7.84,0.336,10.88v40.688H253.96V320.8h23.072l13.344,34.56c0.928,2.4,2.128,5.856,3.632,10.336l1.632,5.184
		l1.712,5.152h0.464l1.6-5.152l1.664-5.12c1.344-4.336,2.496-7.776,3.504-10.288l13.12-34.688h23.504V320.8z"/>
</g>
<g>
</g>
<g>
</g>
<g>
</g>
<g>
</g>
<g>
</g>
<g>
</g>
<g>
</g>
<g>
</g>
<g>
</g>
<g>
</g>
<g>
</g>
<g>
</g>
<g>
</g>
<g>
</g>
<g>
</g>
</svg>
