<?xml version="1.0" encoding="iso-8859-1"?>
<!-- Generator: Adobe Illustrator 19.0.0, SVG Export Plug-In . SVG Version: 6.00 Build 0)  -->
<svg version="1.1" id="Layer_1" xmlns="http://www.w3.org/2000/svg" xmlns:xlink="http://www.w3.org/1999/xlink" x="0px" y="0px"
	 viewBox="0 0 512 512" style="enable-background:new 0 0 512 512;" xml:space="preserve">
<polygon style="fill:#E2E2E2;" points="338.856,0 445.88,107.024 445.88,512 59.24,512 59.24,0 "/>
<polygon style="fill:#999999;" points="445.88,107.024 338.84,107.024 338.84,0 "/>
<polygon style="fill:#333333;" points="407.528,422.896 22.04,422.896 22.04,293.008 489.96,293.008 "/>
<polygon style="fill:#999999;" points="59.24,460.08 59.24,422.896 22.04,422.896 "/>
<g>
	<path style="fill:#FFFFFF;" d="M189.512,320.8v74.656h-14.176V320.8H189.512z"/>
	<path style="fill:#FFFFFF;" d="M272.024,320.8v74.656h-24l-21.328-40.976c-1.056-2.032-2.72-5.616-4.992-10.72l-2.4-5.344
		l-2.336-5.376h-0.544l0.224,4.944l0.16,4.864l0.112,9.792v42.816h-14.16V320.8h24l19.424,37.84
		c1.696,3.36,3.696,7.424,5.952,12.208l2.848,6.08l2.848,6.128h0.496l-0.176-4.816l-0.16-4.816l-0.112-9.632V320.8H272.024z"/>
	<path style="fill:#FFFFFF;" d="M299.32,320.8v74.656h-14.176V320.8H299.32z"/>
</g>
<g>
</g>
<g>
</g>
<g>
</g>
<g>
</g>
<g>
</g>
<g>
</g>
<g>
</g>
<g>
</g>
<g>
</g>
<g>
</g>
<g>
</g>
<g>
</g>
<g>
</g>
<g>
</g>
<g>
</g>
</svg>
