<?xml version="1.0" encoding="iso-8859-1"?>
<!-- Generator: Adobe Illustrator 19.0.0, SVG Export Plug-In . SVG Version: 6.00 Build 0)  -->
<svg version="1.1" id="Layer_1" xmlns="http://www.w3.org/2000/svg" xmlns:xlink="http://www.w3.org/1999/xlink" x="0px" y="0px"
	 viewBox="0 0 512 512" style="enable-background:new 0 0 512 512;" xml:space="preserve">
<polygon style="fill:#E2E2E2;" points="338.856,0 445.88,107.024 445.88,512 59.24,512 59.24,0 "/>
<polygon style="fill:#999999;" points="445.88,107.024 338.84,107.024 338.84,0 "/>
<polygon style="fill:#333333;" points="407.528,422.896 22.04,422.896 22.04,293.008 489.96,293.008 "/>
<polygon style="fill:#999999;" points="59.24,460.08 59.24,422.896 22.04,422.896 "/>
<g>
	<path style="fill:#FFFFFF;" d="M176.744,320.8v74.656h-14.16V320.8H176.744z"/>
	<path style="fill:#FFFFFF;" d="M245.384,342.576h-13.84c-0.064-0.704-0.112-1.216-0.112-1.536
		c-0.336-4.208-1.264-6.832-2.784-7.904s-5.136-1.632-10.832-1.632c-6.704,0-11.088,0.624-13.152,1.872
		c-2.064,1.232-3.088,3.84-3.088,7.808c0,4.704,0.832,7.536,2.512,8.464c1.68,0.96,7.216,1.68,16.624,2.192
		c11.12,0.624,18.32,2.224,21.584,4.768c3.264,2.544,4.896,7.856,4.896,15.92c0,9.904-1.92,16.32-5.744,19.216
		c-3.824,2.896-12.272,4.336-25.328,4.336c-11.744,0-19.536-1.424-23.376-4.272c-3.856-2.848-5.776-8.608-5.776-17.28l-0.048-2.688
		h13.776l0.048,1.6c0,5.2,0.912,8.384,2.736,9.568s6.8,1.744,14.928,1.744c6.336,0,10.384-0.672,12.144-2.032
		c1.744-1.344,2.624-4.448,2.624-9.344c0-3.616-0.672-6-2-7.184s-4.192-1.904-8.608-2.16l-7.824-0.496
		c-11.808-0.688-19.36-2.336-22.64-4.928s-4.928-8.144-4.928-16.672c0-8.72,1.984-14.528,5.936-17.424
		c3.968-2.912,11.856-4.352,23.712-4.352c11.232,0,18.8,1.344,22.688,4s5.856,7.856,5.856,15.6v2.816H245.384z"/>
	<path style="fill:#FFFFFF;" d="M288.04,320.144c13.568,0,22.304,2.272,26.208,6.768c3.888,4.496,5.84,14.576,5.84,30.208
		c0,17.104-1.952,27.872-5.872,32.336s-13.408,6.672-28.464,6.672c-13.568,0-22.336-2.208-26.304-6.592
		c-3.984-4.384-5.968-14.064-5.968-28.992c0-17.792,1.952-28.976,5.856-33.536C263.224,322.432,272.792,320.144,288.04,320.144z
		 M286.936,332.304c-9.52,0-15.072,1.216-16.672,3.664c-1.616,2.432-2.4,10.912-2.4,25.376c0,10.72,0.944,17.168,2.816,19.36
		s7.408,3.28,16.592,3.28c8.8,0,14.064-1.232,15.808-3.68c1.744-2.464,2.624-9.92,2.624-22.384c0-12.512-0.832-19.904-2.48-22.192
		C301.544,333.424,296.12,332.304,286.936,332.304z"/>
</g>
<g>
</g>
<g>
</g>
<g>
</g>
<g>
</g>
<g>
</g>
<g>
</g>
<g>
</g>
<g>
</g>
<g>
</g>
<g>
</g>
<g>
</g>
<g>
</g>
<g>
</g>
<g>
</g>
<g>
</g>
</svg>
