<?xml version="1.0" encoding="iso-8859-1"?>
<!-- Generator: Adobe Illustrator 19.0.0, SVG Export Plug-In . SVG Version: 6.00 Build 0)  -->
<svg version="1.1" id="Layer_1" xmlns="http://www.w3.org/2000/svg" xmlns:xlink="http://www.w3.org/1999/xlink" x="0px" y="0px"
	 viewBox="0 0 512 512" style="enable-background:new 0 0 512 512;" xml:space="preserve">
<polygon style="fill:#E2E2E2;" points="338.856,0 445.88,107.024 445.88,512 59.24,512 59.24,0 "/>
<polygon style="fill:#999999;" points="445.88,107.024 338.84,107.024 338.84,0 "/>
<polygon style="fill:#333333;" points="407.528,422.896 22.04,422.896 22.04,293.008 489.96,293.008 "/>
<polygon style="fill:#999999;" points="59.24,460.08 59.24,422.896 22.04,422.896 "/>
<g>
	<path style="fill:#FFFFFF;" d="M228.216,320.8v51.536c0,9.584-1.584,15.936-4.752,19.072s-9.632,4.704-19.36,4.704
		c-10.352,0-17.072-1.52-20.16-4.528c-3.072-3.024-4.624-9.664-4.624-19.856l0.176-5.52H193c0.224,2.768,0.336,4.848,0.336,6.224
		c0,1.312,0.064,2.912,0.176,4.768c0.224,4.512,3.808,6.784,10.768,6.784c4.16,0,6.832-0.816,8.016-2.432
		c1.184-1.616,1.776-5.264,1.776-10.96V320.8H228.216z"/>
	<path style="fill:#FFFFFF;" d="M296.744,342.576h-13.84c-0.064-0.704-0.112-1.216-0.112-1.536
		c-0.336-4.208-1.248-6.832-2.784-7.904s-5.136-1.632-10.832-1.632c-6.72,0-11.088,0.624-13.152,1.872
		c-2.064,1.232-3.088,3.84-3.088,7.808c0,4.704,0.848,7.536,2.512,8.464c1.68,0.96,7.216,1.68,16.624,2.192
		c11.12,0.624,18.32,2.224,21.584,4.768s4.896,7.856,4.896,15.92c0,9.904-1.904,16.32-5.728,19.216s-12.272,4.336-25.328,4.336
		c-11.728,0-19.536-1.424-23.376-4.272s-5.76-8.608-5.76-17.28l-0.064-2.736h13.776l0.064,1.6c0,5.2,0.912,8.384,2.736,9.568
		c1.808,1.168,6.8,1.744,14.928,1.744c6.336,0,10.384-0.672,12.144-2.032c1.744-1.344,2.624-4.448,2.624-9.344
		c0-3.616-0.656-6-2-7.184c-1.328-1.184-4.192-1.904-8.608-2.16l-7.84-0.464c-11.808-0.688-19.36-2.336-22.64-4.928
		s-4.928-8.144-4.928-16.672c0-8.72,1.968-14.528,5.92-17.424c3.968-2.912,11.856-4.352,23.712-4.352c11.216,0,18.8,1.344,22.688,4
		c3.904,2.656,5.856,7.856,5.856,15.6v2.832H296.744z"/>
</g>
<g>
</g>
<g>
</g>
<g>
</g>
<g>
</g>
<g>
</g>
<g>
</g>
<g>
</g>
<g>
</g>
<g>
</g>
<g>
</g>
<g>
</g>
<g>
</g>
<g>
</g>
<g>
</g>
<g>
</g>
</svg>
