<?xml version="1.0" encoding="iso-8859-1"?>
<!-- Generator: Adobe Illustrator 19.0.0, SVG Export Plug-In . SVG Version: 6.00 Build 0)  -->
<svg version="1.1" id="Layer_1" xmlns="http://www.w3.org/2000/svg" xmlns:xlink="http://www.w3.org/1999/xlink" x="0px" y="0px"
	 viewBox="0 0 512 512" style="enable-background:new 0 0 512 512;" xml:space="preserve">
<polygon style="fill:#E2E2E2;" points="338.856,0 445.88,107.024 445.88,512 59.24,512 59.24,0 "/>
<polygon style="fill:#999999;" points="445.88,107.024 338.84,107.024 338.84,0 "/>
<polygon style="fill:#333333;" points="407.528,422.896 22.04,422.896 22.04,293.008 489.96,293.008 "/>
<polygon style="fill:#999999;" points="59.24,460.08 59.24,422.896 22.04,422.896 "/>
<g>
	<path style="fill:#FFFFFF;" d="M201.88,320.8v74.656h-14.176v-40.688c0-3.248,0.096-6.928,0.288-11.04l0.272-5.584l0.288-5.536
		h-0.432l-1.696,5.2l-1.648,5.2c-1.536,4.656-2.72,8.112-3.552,10.336l-16.4,42.112h-12.912l-16.576-41.776
		c-0.912-2.304-2.112-5.744-3.616-10.336l-1.68-5.184l-1.696-5.136h-0.464l0.288,5.424l0.272,5.472
		c0.224,4.224,0.336,7.84,0.336,10.88v40.688H114.6V320.8h23.072l13.344,34.56c0.912,2.4,2.112,5.856,3.616,10.336l1.648,5.184
		l1.68,5.152h0.496l1.584-5.152l1.648-5.12c1.36-4.336,2.512-7.776,3.504-10.288l13.12-34.688h23.568V320.8z"/>
	<path style="fill:#FFFFFF;" d="M229.16,320.8v30.4h6.672l24.832-30.4h17.616l-30.128,36.272l33.296,38.384h-18.16l-27.344-32.32
		h-6.784v32.32H215V320.8H229.16z"/>
	<path style="fill:#FFFFFF;" d="M334.984,320.8h14.992l-24.064,74.656h-21.76l-23.84-74.656h14.704l14,42.288
		c1.312,4.048,3.264,10.832,5.856,20.336h0.384l1.408-5.088c1.744-6.336,3.248-11.408,4.496-15.184L334.984,320.8z"/>
</g>
<g>
</g>
<g>
</g>
<g>
</g>
<g>
</g>
<g>
</g>
<g>
</g>
<g>
</g>
<g>
</g>
<g>
</g>
<g>
</g>
<g>
</g>
<g>
</g>
<g>
</g>
<g>
</g>
<g>
</g>
</svg>
