<?xml version="1.0" encoding="iso-8859-1"?>
<!-- Generator: Adobe Illustrator 19.0.0, SVG Export Plug-In . SVG Version: 6.00 Build 0)  -->
<svg version="1.1" id="Layer_1" xmlns="http://www.w3.org/2000/svg" xmlns:xlink="http://www.w3.org/1999/xlink" x="0px" y="0px"
	 viewBox="0 0 512 512" style="enable-background:new 0 0 512 512;" xml:space="preserve">
<polygon style="fill:#E2E2E2;" points="338.856,0 445.88,107.024 445.88,512 59.24,512 59.24,0 "/>
<polygon style="fill:#999999;" points="445.88,107.024 338.84,107.024 338.84,0 "/>
<polygon style="fill:#333333;" points="407.528,422.896 22.04,422.896 22.04,293.008 489.96,293.008 "/>
<polygon style="fill:#999999;" points="59.24,460.08 59.24,422.896 22.04,422.896 "/>
<g>
	<path style="fill:#FFFFFF;" d="M205.32,320.8v74.656h-14.176v-40.688c0-3.248,0.096-6.928,0.288-11.04l0.272-5.584l0.288-5.536
		h-0.432l-1.696,5.2l-1.648,5.2c-1.536,4.656-2.72,8.112-3.552,10.336l-16.4,42.112h-12.912l-16.576-41.776
		c-0.912-2.304-2.112-5.744-3.616-10.336l-1.68-5.184l-1.696-5.136h-0.464l0.288,5.424l0.272,5.472
		c0.224,4.224,0.336,7.84,0.336,10.88v40.688H118.04V320.8h23.072l13.344,34.56c0.912,2.4,2.112,5.856,3.616,10.336l1.648,5.184
		l1.68,5.152h0.496l1.584-5.152l1.648-5.12c1.36-4.336,2.512-7.776,3.504-10.288l13.12-34.688h23.568V320.8z"/>
	<path style="fill:#FFFFFF;" d="M249.448,320.144c13.568,0,22.304,2.272,26.208,6.768c3.888,4.496,5.84,14.576,5.84,30.208
		c0,17.104-1.952,27.872-5.872,32.336s-13.408,6.672-28.464,6.672c-13.568,0-22.336-2.208-26.304-6.592
		c-3.984-4.384-5.968-14.064-5.968-28.992c0-17.792,1.952-28.976,5.856-33.536C224.632,322.416,234.216,320.144,249.448,320.144z
		 M248.344,332.304c-9.52,0-15.072,1.216-16.672,3.664c-1.616,2.432-2.4,10.912-2.4,25.376c0,10.72,0.944,17.168,2.816,19.36
		c1.872,2.192,7.408,3.28,16.592,3.28c8.8,0,14.064-1.232,15.808-3.68c1.744-2.464,2.624-9.92,2.624-22.384
		c0-12.512-0.832-19.904-2.48-22.192C262.952,333.424,257.544,332.304,248.344,332.304z"/>
	<path style="fill:#FFFFFF;" d="M338.872,320.8h14.992L329.8,395.456h-21.76L284.2,320.8h14.704l14,42.288
		c1.312,4.048,3.264,10.832,5.856,20.336h0.384l1.408-5.088c1.744-6.336,3.248-11.408,4.496-15.184L338.872,320.8z"/>
</g>
<g>
</g>
<g>
</g>
<g>
</g>
<g>
</g>
<g>
</g>
<g>
</g>
<g>
</g>
<g>
</g>
<g>
</g>
<g>
</g>
<g>
</g>
<g>
</g>
<g>
</g>
<g>
</g>
<g>
</g>
</svg>
