<?xml version="1.0" encoding="iso-8859-1"?>
<!-- Generator: Adobe Illustrator 19.0.0, SVG Export Plug-In . SVG Version: 6.00 Build 0)  -->
<svg version="1.1" id="Layer_1" xmlns="http://www.w3.org/2000/svg" xmlns:xlink="http://www.w3.org/1999/xlink" x="0px" y="0px"
	 viewBox="0 0 512 512" style="enable-background:new 0 0 512 512;" xml:space="preserve">
<polygon style="fill:#E2E2E2;" points="338.856,0 445.88,107.024 445.88,512 59.24,512 59.24,0 "/>
<polygon style="fill:#999999;" points="445.88,107.024 338.84,107.024 338.84,0 "/>
<polygon style="fill:#333333;" points="407.528,422.896 22.04,422.896 22.04,293.008 489.96,293.008 "/>
<polygon style="fill:#999999;" points="59.24,460.08 59.24,422.896 22.04,422.896 "/>
<g>
	<path style="fill:#FFFFFF;" d="M204.296,320.8v74.656h-14.16v-40.688c0-3.248,0.096-6.928,0.272-11.04l0.288-5.584l0.272-5.536
		h-0.432l-1.68,5.2l-1.648,5.2c-1.536,4.656-2.72,8.112-3.568,10.336l-16.4,42.112h-12.912l-16.56-41.776
		c-0.928-2.304-2.128-5.744-3.616-10.336l-1.696-5.184l-1.696-5.168h-0.448l0.272,5.424l0.288,5.472
		c0.224,4.224,0.336,7.84,0.336,10.88v40.688h-14.192V320.8h23.072l13.344,34.56c0.928,2.4,2.128,5.856,3.616,10.336l1.648,5.184
		l1.696,5.152h0.48l1.6-5.152l1.648-5.12c1.344-4.336,2.512-7.776,3.504-10.288l13.12-34.688h23.552V320.8z"/>
	<path style="fill:#FFFFFF;" d="M217.432,395.456V320.8h30.08h3.712c10.112,0,16.912,1.76,20.416,5.28
		c3.536,3.52,5.28,10.32,5.28,20.368c0,9.984-1.664,16.624-5.024,19.904c-3.344,3.28-10.128,4.928-20.336,4.928l-3.28,0.048h-16.672
		v24.128H217.432z M231.608,359.424h16.128c6.416,0,10.496-0.752,12.224-2.224c1.728-1.488,2.608-4.976,2.608-10.464
		c0-6.32-0.72-10.224-2.176-11.728c-1.44-1.52-5.168-2.272-11.232-2.272h-17.552V359.424L231.608,359.424z"/>
	<path style="fill:#FFFFFF;" d="M315.336,355.744h32.848l0.224,14.832c0,10.784-2.032,17.728-6.096,20.864
		c-4.064,3.104-13.12,4.672-27.184,4.672c-12.912,0-21.472-2.08-25.664-6.24c-4.208-4.16-6.304-12.64-6.304-25.424
		c0-16.336,0.848-26.656,2.512-30.976c2.08-5.248,5.232-8.784,9.472-10.592c4.224-1.824,11.408-2.752,21.536-2.752
		c13.28,0,21.84,1.424,25.712,4.256c3.84,2.832,5.776,9.072,5.776,18.784h-14.32c-0.256-4.896-1.344-7.92-3.216-9.104
		s-6.56-1.76-14.128-1.76c-8.192,0-13.408,1.008-15.632,3.056c-2.192,2.032-3.28,6.832-3.28,14.368l-0.064,7.504l0.096,9.568
		c0,7.408,1.088,12.112,3.28,14.144c2.192,2.016,7.248,3.024,15.216,3.024c7.712,0,12.624-0.864,14.72-2.576
		c2.096-1.696,3.152-5.744,3.152-12.128l0.064-3.056h-18.752v-10.464H315.336z"/>
</g>
<g>
</g>
<g>
</g>
<g>
</g>
<g>
</g>
<g>
</g>
<g>
</g>
<g>
</g>
<g>
</g>
<g>
</g>
<g>
</g>
<g>
</g>
<g>
</g>
<g>
</g>
<g>
</g>
<g>
</g>
</svg>
