<?xml version="1.0" encoding="iso-8859-1"?>
<!-- Generator: Adobe Illustrator 19.0.0, SVG Export Plug-In . SVG Version: 6.00 Build 0)  -->
<svg version="1.1" id="Layer_1" xmlns="http://www.w3.org/2000/svg" xmlns:xlink="http://www.w3.org/1999/xlink" x="0px" y="0px"
	 viewBox="0 0 512 512" style="enable-background:new 0 0 512 512;" xml:space="preserve">
<polygon style="fill:#E2E2E2;" points="338.856,0 445.88,107.024 445.88,512 59.24,512 59.24,0 "/>
<polygon style="fill:#999999;" points="445.88,107.024 338.84,107.024 338.84,0 "/>
<polygon style="fill:#333333;" points="407.528,422.896 22.04,422.896 22.04,293.008 489.96,293.008 "/>
<polygon style="fill:#999999;" points="59.24,460.08 59.24,422.896 22.04,422.896 "/>
<g>
	<path style="fill:#FFFFFF;" d="M126.136,395.456V320.8h30.08h3.712c10.112,0,16.912,1.76,20.416,5.28
		c3.536,3.52,5.28,10.32,5.28,20.368c0,9.984-1.664,16.624-5.024,19.904c-3.344,3.28-10.128,4.928-20.336,4.928l-3.28,0.048h-16.672
		v24.128H126.136z M140.312,359.424h16.128c6.416,0,10.496-0.752,12.224-2.224c1.728-1.488,2.608-4.976,2.608-10.464
		c0-6.32-0.72-10.224-2.176-11.728c-1.44-1.52-5.168-2.272-11.232-2.272h-17.552V359.424L140.312,359.424z"/>
	<path style="fill:#FFFFFF;" d="M263.944,320.8v74.656h-24l-21.328-40.976c-1.056-2.032-2.72-5.616-4.992-10.72l-2.4-5.344
		l-2.336-5.376h-0.544l0.224,4.944l0.16,4.864l0.112,9.792v42.816h-14.16V320.8h24l19.424,37.84
		c1.696,3.36,3.696,7.424,5.952,12.208l2.848,6.08l2.848,6.128h0.496l-0.176-4.816l-0.16-4.816l-0.112-9.632V320.8H263.944z"/>
	<path style="fill:#FFFFFF;" d="M306.456,355.76h32.864l0.224,14.832c0,10.784-2.032,17.728-6.096,20.864
		c-4.064,3.104-13.136,4.672-27.2,4.672c-12.912,0-21.456-2.08-25.664-6.24c-4.192-4.16-6.288-12.64-6.288-25.424
		c0-16.336,0.832-26.656,2.512-30.976c2.08-5.248,5.232-8.784,9.456-10.592c4.24-1.824,11.408-2.752,21.552-2.752
		c13.264,0,21.84,1.424,25.696,4.256s5.792,9.072,5.792,18.784h-14.336c-0.256-4.896-1.328-7.92-3.2-9.104s-6.576-1.76-14.144-1.76
		c-8.192,0-13.408,1.008-15.616,3.056c-2.208,2.032-3.296,6.832-3.296,14.368l-0.064,7.504l0.112,9.568
		c0,7.408,1.088,12.112,3.28,14.144c2.192,2.016,7.264,3.024,15.2,3.024c7.728,0,12.64-0.864,14.736-2.576
		c2.096-1.696,3.136-5.744,3.136-12.128l0.064-3.056h-18.752V355.76H306.456z"/>
</g>
<g>
</g>
<g>
</g>
<g>
</g>
<g>
</g>
<g>
</g>
<g>
</g>
<g>
</g>
<g>
</g>
<g>
</g>
<g>
</g>
<g>
</g>
<g>
</g>
<g>
</g>
<g>
</g>
<g>
</g>
</svg>
