<?xml version="1.0" encoding="iso-8859-1"?>
<!-- Generator: Adobe Illustrator 19.0.0, SVG Export Plug-In . SVG Version: 6.00 Build 0)  -->
<svg version="1.1" id="Layer_1" xmlns="http://www.w3.org/2000/svg" xmlns:xlink="http://www.w3.org/1999/xlink" x="0px" y="0px"
	 viewBox="0 0 512 512" style="enable-background:new 0 0 512 512;" xml:space="preserve">
<polygon style="fill:#E2E2E2;" points="338.856,0 445.88,107.024 445.88,512 59.24,512 59.24,0 "/>
<polygon style="fill:#999999;" points="445.88,107.024 338.84,107.024 338.84,0 "/>
<polygon style="fill:#333333;" points="407.528,422.896 22.04,422.896 22.04,293.008 489.96,293.008 "/>
<polygon style="fill:#999999;" points="59.24,460.08 59.24,422.896 22.04,422.896 "/>
<g>
	<path style="fill:#FFFFFF;" d="M135.848,395.456V320.8h30.08h3.712c10.112,0,16.912,1.76,20.416,5.28
		c3.536,3.52,5.28,10.32,5.28,20.368c0,9.984-1.664,16.624-5.024,19.904c-3.344,3.28-10.128,4.928-20.336,4.928l-3.28,0.048h-16.672
		v24.128H135.848z M150.024,359.424h16.128c6.416,0,10.496-0.752,12.224-2.224c1.728-1.488,2.608-4.976,2.608-10.464
		c0-6.32-0.72-10.224-2.176-11.728c-1.44-1.52-5.168-2.272-11.232-2.272h-17.552L150.024,359.424L150.024,359.424z"/>
	<path style="fill:#FFFFFF;" d="M259.768,342.576h-13.824c-0.08-0.704-0.112-1.216-0.112-1.536c-0.336-4.208-1.264-6.832-2.8-7.904
		s-5.136-1.632-10.832-1.632c-6.704,0-11.088,0.624-13.136,1.872c-2.064,1.232-3.088,3.84-3.088,7.808
		c0,4.704,0.832,7.536,2.512,8.464c1.664,0.96,7.216,1.68,16.624,2.192c11.104,0.624,18.32,2.224,21.584,4.768
		c3.248,2.544,4.896,7.856,4.896,15.92c0,9.904-1.92,16.32-5.744,19.216c-3.824,2.896-12.272,4.336-25.312,4.336
		c-11.744,0-19.536-1.424-23.376-4.272c-3.856-2.848-5.776-8.608-5.776-17.28l-0.048-2.736h13.776l0.048,1.6
		c0,5.2,0.928,8.384,2.736,9.568c1.824,1.168,6.8,1.744,14.944,1.744c6.336,0,10.384-0.672,12.144-2.032
		c1.744-1.344,2.624-4.448,2.624-9.344c0-3.616-0.672-6-2-7.184s-4.208-1.904-8.608-2.16l-7.824-0.496
		c-11.808-0.688-19.36-2.336-22.64-4.928s-4.928-8.144-4.928-16.672c0-8.72,1.984-14.528,5.936-17.424
		c3.952-2.912,11.856-4.352,23.696-4.352c11.232,0,18.8,1.344,22.704,4c3.888,2.656,5.84,7.856,5.84,15.6v2.864H259.768z"/>
	<path style="fill:#FFFFFF;" d="M271.432,395.456V320.8h36.688c10.416,0,17.728,2.288,21.888,6.848
		c4.192,4.56,6.288,12.544,6.288,23.952c0,18.624-1.68,30.592-5.024,35.904c-3.376,5.296-10.944,7.952-22.704,7.952L271.432,395.456
		L271.432,395.456z M285.592,383.536h20.176c6.784,0,11.184-1.568,13.152-4.672c2-3.12,2.976-10,2.976-20.656
		c0-11.008-0.88-18-2.656-20.992s-6-4.464-12.592-4.464h-21.04v50.784H285.592z"/>
</g>
<g>
</g>
<g>
</g>
<g>
</g>
<g>
</g>
<g>
</g>
<g>
</g>
<g>
</g>
<g>
</g>
<g>
</g>
<g>
</g>
<g>
</g>
<g>
</g>
<g>
</g>
<g>
</g>
<g>
</g>
</svg>
