<?xml version="1.0" encoding="iso-8859-1"?>
<!-- Generator: Adobe Illustrator 19.0.0, SVG Export Plug-In . SVG Version: 6.00 Build 0)  -->
<svg version="1.1" id="Layer_1" xmlns="http://www.w3.org/2000/svg" xmlns:xlink="http://www.w3.org/1999/xlink" x="0px" y="0px"
	 viewBox="0 0 512 512" style="enable-background:new 0 0 512 512;" xml:space="preserve">
<polygon style="fill:#E2E2E2;" points="338.856,0 445.88,107.024 445.88,512 59.24,512 59.24,0 "/>
<polygon style="fill:#999999;" points="445.88,107.024 338.84,107.024 338.84,0 "/>
<polygon style="fill:#333333;" points="407.528,422.896 22.04,422.896 22.04,293.008 489.96,293.008 "/>
<polygon style="fill:#999999;" points="59.24,460.08 59.24,422.896 22.04,422.896 "/>
<g>
	<path style="fill:#FFFFFF;" d="M136.456,395.456V320.8h36.816c9.136,0,15.456,1.6,18.928,4.768
		c3.456,3.168,5.184,8.928,5.184,17.232c0,7.536-0.864,12.704-2.592,15.472s-5.28,4.688-10.64,5.744v0.48
		c8.288,0.512,12.416,5.344,12.416,14.48v16.464h-14.176v-13.632c0-7.68-3.776-11.536-11.376-11.536h-20.384v25.152h-14.176V395.456
		z M150.632,358.368h20.336c4.848,0,8.064-0.864,9.648-2.592c1.6-1.728,2.384-5.2,2.384-10.416c0-5.328-0.688-8.768-2.064-10.32
		c-1.36-1.552-4.352-2.32-8.992-2.32h-21.328v25.648H150.632z"/>
	<path style="fill:#FFFFFF;" d="M253.816,381.12h-32.208l-4.656,14.336H201.96l24.832-74.656h21.28l25.2,74.656h-14.704
		L253.816,381.12z M250.536,370.672l-12.912-38.88l-12.688,38.88H250.536z"/>
	<path style="fill:#FFFFFF;" d="M279.736,395.456V320.8h36.816c9.136,0,15.456,1.6,18.912,4.768c3.472,3.168,5.2,8.928,5.2,17.232
		c0,7.536-0.864,12.704-2.592,15.472s-5.28,4.688-10.64,5.744v0.48c8.288,0.512,12.4,5.344,12.4,14.48v16.464h-14.16v-13.632
		c0-7.68-3.792-11.536-11.376-11.536h-20.384v25.152h-14.176V395.456z M293.912,358.368h20.336c4.864,0,8.08-0.864,9.664-2.592
		c1.6-1.728,2.368-5.2,2.368-10.416c0-5.328-0.672-8.768-2.048-10.32c-1.36-1.552-4.352-2.32-8.992-2.32h-21.328V358.368z"/>
</g>
<g>
</g>
<g>
</g>
<g>
</g>
<g>
</g>
<g>
</g>
<g>
</g>
<g>
</g>
<g>
</g>
<g>
</g>
<g>
</g>
<g>
</g>
<g>
</g>
<g>
</g>
<g>
</g>
<g>
</g>
</svg>
