<?xml version="1.0" encoding="iso-8859-1"?>
<!-- Generator: Adobe Illustrator 19.0.0, SVG Export Plug-In . SVG Version: 6.00 Build 0)  -->
<svg version="1.1" id="Layer_1" xmlns="http://www.w3.org/2000/svg" xmlns:xlink="http://www.w3.org/1999/xlink" x="0px" y="0px"
	 viewBox="0 0 512 512" style="enable-background:new 0 0 512 512;" xml:space="preserve">
<polygon style="fill:#E2E2E2;" points="338.856,0 445.88,107.024 445.88,512 59.24,512 59.24,0 "/>
<polygon style="fill:#999999;" points="445.88,107.024 338.84,107.024 338.84,0 "/>
<polygon style="fill:#333333;" points="407.528,422.896 22.04,422.896 22.04,293.008 489.96,293.008 "/>
<polygon style="fill:#999999;" points="59.24,460.08 59.24,422.896 22.04,422.896 "/>
<g>
	<path style="fill:#FFFFFF;" d="M136.456,395.456V320.8h36.816c9.136,0,15.456,1.6,18.928,4.768
		c3.456,3.168,5.184,8.928,5.184,17.232c0,7.536-0.864,12.704-2.592,15.472s-5.28,4.688-10.64,5.744v0.48
		c8.288,0.512,12.416,5.344,12.416,14.48v16.464h-14.176v-13.632c0-7.68-3.776-11.536-11.376-11.536h-20.384v25.152h-14.176V395.456
		z M150.632,358.368h20.336c4.848,0,8.064-0.864,9.648-2.592c1.6-1.728,2.384-5.2,2.384-10.416c0-5.328-0.688-8.768-2.064-10.32
		c-1.36-1.552-4.352-2.32-8.992-2.32h-21.328v25.648H150.632z"/>
	<path style="fill:#FFFFFF;" d="M264.056,342.576h-13.84c-0.064-0.704-0.112-1.216-0.112-1.536
		c-0.336-4.208-1.248-6.832-2.784-7.904s-5.136-1.632-10.832-1.632c-6.72,0-11.088,0.624-13.152,1.872
		c-2.064,1.232-3.088,3.84-3.088,7.808c0,4.704,0.848,7.536,2.512,8.464c1.68,0.96,7.216,1.68,16.624,2.192
		c11.12,0.624,18.32,2.224,21.584,4.768s4.896,7.856,4.896,15.92c0,9.904-1.904,16.32-5.728,19.216s-12.272,4.336-25.328,4.336
		c-11.728,0-19.536-1.424-23.376-4.272c-3.84-2.848-5.76-8.608-5.76-17.28l-0.064-2.736h13.776l0.064,1.6
		c0,5.2,0.912,8.384,2.736,9.568c1.808,1.168,6.8,1.744,14.928,1.744c6.336,0,10.384-0.672,12.144-2.032
		c1.744-1.344,2.624-4.448,2.624-9.344c0-3.616-0.656-6-2-7.184c-1.328-1.184-4.192-1.904-8.608-2.16l-7.808-0.496
		c-11.808-0.688-19.36-2.336-22.64-4.928s-4.928-8.144-4.928-16.672c0-8.72,1.968-14.528,5.92-17.424
		c3.968-2.912,11.856-4.352,23.712-4.352c11.216,0,18.8,1.344,22.688,4c3.904,2.656,5.856,7.856,5.856,15.6v2.864H264.056z"/>
	<path style="fill:#FFFFFF;" d="M331.096,342.576h-13.84c-0.08-0.704-0.112-1.216-0.112-1.536c-0.336-4.208-1.248-6.832-2.784-7.904
		s-5.152-1.632-10.832-1.632c-6.72,0-11.088,0.624-13.152,1.872c-2.064,1.232-3.088,3.84-3.088,7.808
		c0,4.704,0.848,7.536,2.512,8.464c1.68,0.96,7.216,1.68,16.624,2.192c11.12,0.624,18.32,2.224,21.584,4.768
		s4.896,7.856,4.896,15.92c0,9.904-1.92,16.32-5.728,19.216c-3.84,2.896-12.272,4.336-25.328,4.336
		c-11.728,0-19.536-1.424-23.376-4.272s-5.76-8.608-5.76-17.28l-0.064-2.736h13.776l0.064,1.6c0,5.2,0.912,8.384,2.736,9.568
		c1.808,1.168,6.8,1.744,14.928,1.744c6.336,0,10.384-0.672,12.144-2.032c1.744-1.344,2.624-4.448,2.624-9.344
		c0-3.616-0.672-6-2-7.184s-4.192-1.904-8.608-2.16l-7.808-0.496c-11.808-0.688-19.36-2.336-22.64-4.928s-4.928-8.144-4.928-16.672
		c0-8.72,1.968-14.528,5.92-17.424c3.968-2.912,11.856-4.352,23.712-4.352c11.216,0,18.784,1.344,22.688,4s5.856,7.856,5.856,15.6
		v2.864H331.096z"/>
</g>
<g>
</g>
<g>
</g>
<g>
</g>
<g>
</g>
<g>
</g>
<g>
</g>
<g>
</g>
<g>
</g>
<g>
</g>
<g>
</g>
<g>
</g>
<g>
</g>
<g>
</g>
<g>
</g>
<g>
</g>
</svg>
