<?xml version="1.0" encoding="iso-8859-1"?>
<!-- Generator: Adobe Illustrator 19.0.0, SVG Export Plug-In . SVG Version: 6.00 Build 0)  -->
<svg version="1.1" id="Layer_1" xmlns="http://www.w3.org/2000/svg" xmlns:xlink="http://www.w3.org/1999/xlink" x="0px" y="0px"
	 viewBox="0 0 512 512" style="enable-background:new 0 0 512 512;" xml:space="preserve">
<polygon style="fill:#E2E2E2;" points="338.856,0 445.88,107.024 445.88,512 59.24,512 59.24,0 "/>
<polygon style="fill:#999999;" points="445.88,107.024 338.84,107.024 338.84,0 "/>
<polygon style="fill:#333333;" points="407.528,422.896 22.04,422.896 22.04,293.008 489.96,293.008 "/>
<polygon style="fill:#999999;" points="59.24,460.08 59.24,422.896 22.04,422.896 "/>
<g>
	<path style="fill:#FFFFFF;" d="M190.648,342.592h-13.84c-0.064-0.704-0.112-1.216-0.112-1.536
		c-0.336-4.208-1.248-6.832-2.784-7.904c-1.536-1.072-5.136-1.632-10.832-1.632c-6.72,0-11.088,0.624-13.152,1.872
		c-2.064,1.232-3.088,3.84-3.088,7.808c0,4.704,0.848,7.536,2.512,8.464c1.68,0.96,7.216,1.68,16.624,2.192
		c11.12,0.624,18.32,2.224,21.584,4.768c3.264,2.544,4.896,7.856,4.896,15.92c0,9.904-1.904,16.32-5.728,19.216
		c-3.824,2.896-12.272,4.336-25.328,4.336c-11.728,0-19.536-1.424-23.376-4.272s-5.76-8.608-5.76-17.28l-0.08-2.704h13.776
		l0.064,1.6c0,5.2,0.912,8.384,2.736,9.568c1.808,1.168,6.8,1.744,14.928,1.744c6.336,0,10.384-0.672,12.144-2.032
		c1.744-1.344,2.624-4.448,2.624-9.344c0-3.616-0.656-6-2-7.184c-1.328-1.184-4.192-1.904-8.608-2.16l-7.808-0.496
		c-11.808-0.688-19.36-2.336-22.64-4.928s-4.928-8.144-4.928-16.672c0-8.72,1.968-14.528,5.92-17.424
		c3.968-2.912,11.856-4.352,23.712-4.352c11.216,0,18.8,1.344,22.688,4c3.904,2.656,5.856,7.856,5.856,15.6L190.648,342.592
		L190.648,342.592z"/>
	<path style="fill:#FFFFFF;" d="M250.088,320.8h14.992l-24.064,74.656h-21.76l-23.84-74.656h14.72l14,42.288
		c1.312,4.048,3.264,10.832,5.84,20.336h0.384l1.424-5.088c1.744-6.336,3.232-11.408,4.48-15.184L250.088,320.8z"/>
	<path style="fill:#FFFFFF;" d="M300.616,355.76h32.88l0.224,14.832c0,10.784-2.032,17.728-6.096,20.864
		c-4.064,3.104-13.152,4.672-27.216,4.672c-12.912,0-21.456-2.08-25.648-6.24c-4.208-4.16-6.304-12.64-6.304-25.424
		c0-16.336,0.848-26.656,2.512-30.976c2.08-5.248,5.232-8.784,9.472-10.592c4.224-1.824,11.408-2.752,21.552-2.752
		c13.248,0,21.84,1.424,25.68,4.256c3.872,2.832,5.808,9.072,5.808,18.784h-14.336c-0.256-4.896-1.312-7.92-3.184-9.104
		s-6.592-1.76-14.144-1.76c-8.208,0-13.408,1.008-15.616,3.056c-2.208,2.032-3.312,6.832-3.312,14.368l-0.048,7.504l0.112,9.568
		c0,7.408,1.088,12.112,3.28,14.144c2.192,2.016,7.248,3.024,15.2,3.024c7.712,0,12.64-0.864,14.736-2.576
		c2.096-1.696,3.12-5.744,3.12-12.128l0.064-3.056H300.6V355.76H300.616z"/>
</g>
<g>
</g>
<g>
</g>
<g>
</g>
<g>
</g>
<g>
</g>
<g>
</g>
<g>
</g>
<g>
</g>
<g>
</g>
<g>
</g>
<g>
</g>
<g>
</g>
<g>
</g>
<g>
</g>
<g>
</g>
</svg>
