<?xml version="1.0" encoding="iso-8859-1"?>
<!-- Generator: Adobe Illustrator 19.0.0, SVG Export Plug-In . SVG Version: 6.00 Build 0)  -->
<svg version="1.1" id="Layer_1" xmlns="http://www.w3.org/2000/svg" xmlns:xlink="http://www.w3.org/1999/xlink" x="0px" y="0px"
	 viewBox="0 0 512 512" style="enable-background:new 0 0 512 512;" xml:space="preserve">
<polygon style="fill:#E2E2E2;" points="338.856,0 445.88,107.024 445.88,512 59.24,512 59.24,0 "/>
<polygon style="fill:#999999;" points="445.88,107.024 338.84,107.024 338.84,0 "/>
<polygon style="fill:#333333;" points="407.528,422.896 22.04,422.896 22.04,293.008 489.96,293.008 "/>
<polygon style="fill:#999999;" points="59.24,460.08 59.24,422.896 22.04,422.896 "/>
<g>
	<path style="fill:#FFFFFF;" d="M173.032,342.576h-13.84c-0.064-0.704-0.112-1.216-0.112-1.536
		c-0.336-4.208-1.248-6.832-2.784-7.904c-1.536-1.072-5.136-1.632-10.832-1.632c-6.72,0-11.088,0.624-13.152,1.872
		c-2.064,1.232-3.088,3.84-3.088,7.808c0,4.704,0.848,7.536,2.512,8.464c1.68,0.96,7.216,1.68,16.624,2.192
		c11.12,0.624,18.32,2.224,21.584,4.768c3.264,2.544,4.896,7.856,4.896,15.92c0,9.904-1.904,16.32-5.728,19.216
		c-3.824,2.896-12.272,4.336-25.328,4.336c-11.728,0-19.536-1.424-23.376-4.272s-5.76-8.608-5.76-17.28l-0.064-2.736h13.776
		l0.064,1.6c0,5.2,0.912,8.384,2.736,9.568c1.808,1.168,6.8,1.744,14.928,1.744c6.336,0,10.384-0.672,12.144-2.032
		c1.744-1.344,2.624-4.448,2.624-9.344c0-3.616-0.656-6-2-7.184c-1.328-1.184-4.192-1.904-8.608-2.16l-7.808-0.496
		c-11.808-0.688-19.36-2.336-22.64-4.928s-4.928-8.144-4.928-16.672c0-8.72,1.968-14.528,5.92-17.424
		c3.968-2.912,11.856-4.352,23.712-4.352c11.216,0,18.8,1.344,22.688,4c3.904,2.656,5.856,7.856,5.856,15.6v2.864H173.032z"/>
	<path style="fill:#FFFFFF;" d="M289.624,320.8l-19.968,74.656h-20.944l-10.384-38.288c-0.96-3.472-2.064-8.096-3.344-13.888
		l-1.024-4.592h-0.496l-1.088,4.64l-1.024,4.592c-0.768,3.104-1.6,6.208-2.464,9.312l-10.656,38.224H197.48L178.12,320.8h14.432
		l10.784,40.976c0.656,2.624,1.472,6.256,2.448,10.88l1.152,5.472l1.088,5.472h0.48c0.592-2.4,1.024-4.224,1.312-5.472l1.312-5.408
		c0.704-2.848,1.664-6.464,2.912-10.88l11.488-41.024h16.624l11.2,41.024c0.96,3.504,1.872,7.12,2.8,10.88l1.248,5.408l1.312,5.472
		h0.432l1.2-5.472l1.152-5.472c0.944-4.4,1.792-8.048,2.56-10.944l11.04-40.912L289.624,320.8L289.624,320.8z"/>
	<path style="fill:#FFFFFF;" d="M310.392,332.736v20.128h33.472v11.904h-33.472v30.688h-14.16V320.8h49.44v11.936H310.392z"/>
</g>
<g>
</g>
<g>
</g>
<g>
</g>
<g>
</g>
<g>
</g>
<g>
</g>
<g>
</g>
<g>
</g>
<g>
</g>
<g>
</g>
<g>
</g>
<g>
</g>
<g>
</g>
<g>
</g>
<g>
</g>
</svg>
