<?xml version="1.0" encoding="iso-8859-1"?>
<!-- Generator: Adobe Illustrator 19.0.0, SVG Export Plug-In . SVG Version: 6.00 Build 0)  -->
<svg version="1.1" id="Layer_1" xmlns="http://www.w3.org/2000/svg" xmlns:xlink="http://www.w3.org/1999/xlink" x="0px" y="0px"
	 viewBox="0 0 512 512" style="enable-background:new 0 0 512 512;" xml:space="preserve">
<polygon style="fill:#E2E2E2;" points="338.856,0 445.88,107.024 445.88,512 59.24,512 59.24,0 "/>
<polygon style="fill:#999999;" points="445.88,107.024 338.84,107.024 338.84,0 "/>
<polygon style="fill:#333333;" points="407.528,422.896 22.04,422.896 22.04,293.008 489.96,293.008 "/>
<polygon style="fill:#999999;" points="59.24,460.08 59.24,422.896 22.04,422.896 "/>
<g>
	<path style="fill:#FFFFFF;" d="M167.432,333.488v61.968h-14.176v-61.968h-21.552V320.8h58.032v12.688L167.432,333.488
		L167.432,333.488z"/>
	<path style="fill:#FFFFFF;" d="M211.064,320.8v74.656h-14.176V320.8H211.064z"/>
	<path style="fill:#FFFFFF;" d="M238.456,332.752v20.128h33.472v11.904h-33.472v30.688h-14.16V320.8h49.44v11.936h-35.28V332.752z"
		/>
	<path style="fill:#FFFFFF;" d="M296.536,332.752v20.128h33.472v11.904h-33.472v30.688h-14.16V320.8h49.44v11.936h-35.28V332.752z"
		/>
</g>
<g>
</g>
<g>
</g>
<g>
</g>
<g>
</g>
<g>
</g>
<g>
</g>
<g>
</g>
<g>
</g>
<g>
</g>
<g>
</g>
<g>
</g>
<g>
</g>
<g>
</g>
<g>
</g>
<g>
</g>
</svg>
