<?xml version="1.0" encoding="iso-8859-1"?>
<!-- Generator: Adobe Illustrator 19.0.0, SVG Export Plug-In . SVG Version: 6.00 Build 0)  -->
<svg version="1.1" id="Layer_1" xmlns="http://www.w3.org/2000/svg" xmlns:xlink="http://www.w3.org/1999/xlink" x="0px" y="0px"
	 viewBox="0 0 512 512" style="enable-background:new 0 0 512 512;" xml:space="preserve">
<polygon style="fill:#E2E2E2;" points="338.856,0 445.88,107.024 445.88,512 59.24,512 59.24,0 "/>
<polygon style="fill:#999999;" points="445.88,107.024 338.84,107.024 338.84,0 "/>
<polygon style="fill:#333333;" points="407.528,422.896 22.04,422.896 22.04,293.008 489.96,293.008 "/>
<polygon style="fill:#999999;" points="59.24,460.08 59.24,422.896 22.04,422.896 "/>
<g>
	<path style="fill:#FFFFFF;" d="M207.864,320.8l-22.432,36.16l23.904,38.496h-16.624l-10.72-17.936
		c-1.648-2.768-3.216-5.584-4.704-8.416l-1.536-2.96l-1.584-2.912h-0.208l-1.6,2.976c-1.904,3.568-4.048,7.344-6.448,11.312
		l-10.768,17.936h-17.056l24.496-38.496l-22.752-36.16h16.896l9.952,16.624c1.568,2.624,3.04,5.216,4.432,7.776l1.36,2.624
		l1.36,2.624h0.224c0.624-1.168,1.088-2.048,1.376-2.624l1.376-2.576c1.152-2.272,2.624-4.848,4.368-7.76l9.936-16.688
		L207.864,320.8L207.864,320.8z"/>
	<path style="fill:#FFFFFF;" d="M229.672,320.8v61.968h35.008v12.688h-49.152V320.8H229.672z"/>
	<path style="fill:#FFFFFF;" d="M327.24,342.576H313.4c-0.064-0.704-0.096-1.216-0.096-1.536c-0.336-4.208-1.264-6.832-2.8-7.904
		s-5.136-1.632-10.832-1.632c-6.72,0-11.088,0.624-13.152,1.872c-2.064,1.232-3.088,3.84-3.088,7.808
		c0,4.704,0.848,7.536,2.528,8.464c1.664,0.96,7.216,1.68,16.624,2.192c11.12,0.624,18.32,2.224,21.568,4.768
		c3.28,2.544,4.912,7.856,4.912,15.92c0,9.904-1.936,16.32-5.744,19.216c-3.84,2.896-12.272,4.336-25.312,4.336
		c-11.744,0-19.536-1.424-23.376-4.272c-3.856-2.848-5.776-8.608-5.776-17.28l-0.064-2.736h13.776l0.064,1.6
		c0,5.2,0.912,8.384,2.736,9.568s6.8,1.744,14.928,1.744c6.336,0,10.4-0.672,12.16-2.032c1.744-1.344,2.624-4.448,2.624-9.344
		c0-3.616-0.688-6-2-7.184c-1.344-1.184-4.208-1.904-8.624-2.16l-7.808-0.496c-11.808-0.688-19.36-2.336-22.64-4.928
		s-4.928-8.144-4.928-16.672c0-8.72,1.968-14.528,5.936-17.424c3.952-2.912,11.84-4.352,23.696-4.352c11.232,0,18.8,1.344,22.704,4
		s5.84,7.856,5.84,15.6v2.864H327.24z"/>
</g>
<g>
</g>
<g>
</g>
<g>
</g>
<g>
</g>
<g>
</g>
<g>
</g>
<g>
</g>
<g>
</g>
<g>
</g>
<g>
</g>
<g>
</g>
<g>
</g>
<g>
</g>
<g>
</g>
<g>
</g>
</svg>
