<?xml version="1.0" encoding="iso-8859-1"?>
<!-- Generator: Adobe Illustrator 19.0.0, SVG Export Plug-In . SVG Version: 6.00 Build 0)  -->
<svg version="1.1" id="Layer_1" xmlns="http://www.w3.org/2000/svg" xmlns:xlink="http://www.w3.org/1999/xlink" x="0px" y="0px"
	 viewBox="0 0 512 512" style="enable-background:new 0 0 512 512;" xml:space="preserve">
<polygon style="fill:#E2E2E2;" points="338.856,0 445.88,107.024 445.88,512 59.24,512 59.24,0 "/>
<polygon style="fill:#999999;" points="445.88,107.024 338.84,107.024 338.84,0 "/>
<polygon style="fill:#333333;" points="407.528,422.896 22.04,422.896 22.04,293.008 489.96,293.008 "/>
<polygon style="fill:#999999;" points="59.24,460.08 59.24,422.896 22.04,422.896 "/>
<g>
	<path style="fill:#FFFFFF;" d="M165.944,320.8l-22.416,36.16l23.904,38.496h-16.624l-10.72-17.936
		c-1.648-2.768-3.216-5.584-4.704-8.416l-1.536-2.96l-1.6-2.912h-0.208l-1.584,2.976c-1.904,3.568-4.048,7.344-6.448,11.312
		l-10.784,17.936H96.168l24.496-38.496L97.912,320.8h16.912l9.952,16.624c1.568,2.624,3.04,5.216,4.416,7.776l1.376,2.624
		l1.36,2.624h0.224c0.624-1.168,1.072-2.048,1.376-2.624l1.36-2.576c1.168-2.272,2.624-4.848,4.368-7.76l9.952-16.688L165.944,320.8
		L165.944,320.8z"/>
	<path style="fill:#FFFFFF;" d="M187.768,320.8v61.968h35.008v12.688h-49.168V320.8H187.768z"/>
	<path style="fill:#FFFFFF;" d="M285.336,342.576h-13.84c-0.08-0.704-0.112-1.216-0.112-1.536c-0.336-4.208-1.248-6.832-2.784-7.904
		s-5.136-1.632-10.832-1.632c-6.72,0-11.088,0.624-13.152,1.872c-2.064,1.232-3.088,3.84-3.088,7.808
		c0,4.704,0.848,7.536,2.512,8.464c1.68,0.96,7.216,1.68,16.624,2.192c11.12,0.624,18.32,2.224,21.584,4.768
		s4.896,7.856,4.896,15.92c0,9.904-1.92,16.32-5.728,19.216c-3.84,2.896-12.272,4.336-25.328,4.336
		c-11.728,0-19.536-1.424-23.376-4.272s-5.76-8.608-5.76-17.28l-0.064-2.736h13.776l0.064,1.6c0,5.2,0.912,8.384,2.736,9.568
		c1.808,1.168,6.8,1.744,14.928,1.744c6.336,0,10.384-0.672,12.144-2.032c1.744-1.344,2.624-4.448,2.624-9.344
		c0-3.616-0.672-6-2-7.184s-4.192-1.904-8.608-2.16l-7.808-0.496c-11.808-0.688-19.36-2.336-22.64-4.928
		c-3.28-2.592-4.928-8.144-4.928-16.672c0-8.72,1.968-14.528,5.92-17.424c3.968-2.912,11.856-4.352,23.712-4.352
		c11.216,0,18.784,1.344,22.688,4s5.856,7.856,5.856,15.6v2.864H285.336z"/>
	<path style="fill:#FFFFFF;" d="M359.864,320.8l-22.416,36.16l23.904,38.496h-16.624l-10.72-17.936
		c-1.664-2.768-3.216-5.584-4.72-8.416l-1.536-2.96l-1.584-2.912h-0.208l-1.584,2.976c-1.904,3.568-4.064,7.344-6.464,11.312
		l-10.768,17.936h-17.056l24.496-38.496l-22.752-36.16h16.896l9.968,16.624c1.568,2.624,3.024,5.216,4.416,7.776l1.36,2.624
		l1.376,2.624h0.224c0.624-1.168,1.072-2.048,1.376-2.624l1.36-2.576c1.168-2.272,2.624-4.848,4.368-7.76l9.952-16.688
		L359.864,320.8L359.864,320.8z"/>
</g>
<g>
</g>
<g>
</g>
<g>
</g>
<g>
</g>
<g>
</g>
<g>
</g>
<g>
</g>
<g>
</g>
<g>
</g>
<g>
</g>
<g>
</g>
<g>
</g>
<g>
</g>
<g>
</g>
<g>
</g>
</svg>
