<?xml version="1.0" encoding="iso-8859-1"?>
<!-- Generator: Adobe Illustrator 19.0.0, SVG Export Plug-In . SVG Version: 6.00 Build 0)  -->
<svg version="1.1" id="Layer_1" xmlns="http://www.w3.org/2000/svg" xmlns:xlink="http://www.w3.org/1999/xlink" x="0px" y="0px"
	 viewBox="0 0 512 512" style="enable-background:new 0 0 512 512;" xml:space="preserve">
<polygon style="fill:#E2E2E2;" points="338.856,0 445.88,107.024 445.88,512 59.24,512 59.24,0 "/>
<polygon style="fill:#999999;" points="445.88,107.024 338.84,107.024 338.84,0 "/>
<polygon style="fill:#333333;" points="407.528,422.896 22.04,422.896 22.04,293.008 489.96,293.008 "/>
<polygon style="fill:#999999;" points="59.24,460.08 59.24,422.896 22.04,422.896 "/>
<g>
	<path style="fill:#FFFFFF;" d="M225.544,320.8v11.872l-41.232,50.416v0.432h41.728v11.92h-59.664v-12.096l40.912-50.192v-0.432
		h-39.104V320.8H225.544z"/>
	<path style="fill:#FFFFFF;" d="M249.224,320.8v74.656h-14.16V320.8H249.224z"/>
	<path style="fill:#FFFFFF;" d="M262.472,395.456V320.8h30.08h3.712c10.096,0,16.912,1.76,20.416,5.28s5.28,10.32,5.28,20.368
		c0,9.984-1.68,16.624-5.024,19.904c-3.36,3.28-10.144,4.928-20.336,4.928l-3.28,0.048h-16.688v24.128H262.472z M276.632,359.44
		h16.144c6.4,0,10.48-0.752,12.224-2.224c1.728-1.488,2.592-4.976,2.592-10.464c0-6.32-0.72-10.224-2.16-11.728
		s-5.184-2.272-11.232-2.272h-17.568L276.632,359.44L276.632,359.44z"/>
</g>
<g>
</g>
<g>
</g>
<g>
</g>
<g>
</g>
<g>
</g>
<g>
</g>
<g>
</g>
<g>
</g>
<g>
</g>
<g>
</g>
<g>
</g>
<g>
</g>
<g>
</g>
<g>
</g>
<g>
</g>
</svg>
