<svg height="512" viewBox="0 0 56 56" width="512" xmlns="http://www.w3.org/2000/svg"><g id="Page-1" fill="none" fill-rule="evenodd"><g id="028---Throw-Paper" fill="rgb(0,0,0)" fill-rule="nonzero"><path id="Shape" d="m52.313 45.446 3.526-5.421c.1924057-.2983535.2136773-.6759235.056-.994l-2.767-5.516c-.1077867-.2145442-.2891666-.383146-.511-.475l-8.317-3.453c-.3089878-.1285578-.6618014-.0940272-.94.092l-3 2 4.541 3.851c.4048363.3611215.4479075.9791694.0970735 1.3929528-.3508341.4137833-.9676045.4723722-1.3900735.1320472l-5.531-4.69-3.677-2.86c-.3766988-.2924797-.9075162-.2782465-1.268.034l-4.047 3.5c-.2524783.2189132-.3789237.5494722-.337.881l.7 5.56 1.391 7.463c.1010032.5428822-.2571403 1.0648763-.8 1.166-.0606518.0115151-.1222652.0172076-.184.017-.4816664-.0000544-.894855-.3434675-.983-.817l-1.072-5.734-2.886 2.588c-.3161036.2830902-.4191237.7348553-.257 1.127l3.012 7.29c.1086347.2632189.3243328.4676411.593.562l7.647 2.689c.2970552.1020614.6246382.060698.887-.112l4.157-2.779 2.494-1.667c.4595009-.3070703 1.0809297-.1835009 1.388.276s.1835009 1.0809297-.276 1.388l-1.062.709 4.513 2.254c.3530618.175754.776448.1275797 1.081-.123l5.359-4.413c.3976353-.3252908.4840966-.8989613.2-1.327l-1.507-2.256-2.215 3.219c-.316942.442625-.9297219.5504009-1.37867.2424808-.448948-.3079201-.5691021-.9183936-.27033-1.3734808zm-11.542.763-2.443 2.449c-.250712.2602871-.6223558.3650501-.9720992.2740261-.3497435-.0910241-.6231628-.363671-.7151758-.7131556-.0920131-.3494845.0116982-.7214232.271275-.9728705l2.443-2.446c.3373988-.3374828.3893217-.8663427.124-1.263l-2.422-3.627c-.2147151-.296696-.250063-.6870316-.0921398-1.0174727.1579232-.3304412.4838499-.5481178.8495805-.5674094.3657307-.0192915.712749.1628887.9045593.4748821l2.423 3.625c.7898508 1.1895837.6348532 2.770475-.371 3.784zm7.473-2.952c-.3597756.2397096-.5247746.6834722-.409 1.1l.455 1.659c.0701803.2558022.0358538.5290074-.0954261.7594974s-.3487562.3993787-.6045739.4695026c-.0866937.0236654-.1761346.0357702-.266.036-.4504171-.0002354-.8450899-.3015624-.964-.736l-.455-1.659c-.3413906-1.2460849.1533539-2.5707756 1.228-3.288l1.295-.865c.2967641-.2112181.6849045-.2443645 1.0131856-.0865242.328281.1578403.5447708.481698.5651158.8453848.0203451.3636868-.158673.7096697-.4673014.9031394z"/><path id="Shape" d="m26.53 22.76c-.0011635-.5539117-.1997087-1.0892747-.56-1.51l-2.834-2.981c-.65319-.7392463-.9012082-1.7523687-.6633617-2.709746.2378466-.9573773.931157-1.7366401 1.8543617-2.084254l4.8-2.288c1.2015103-.5669431 2.605792-.5021589 3.75.173l12.66 7.44c1.4289199.8431056 3.2299792.7165898 4.527-.318.3798551-.2992255.6010907-.7564459.6-1.24-.0022399-.4306834-.1833458-.8410695-.5-1.133l-14.492-13.743c-1.2259176-1.16288723-2.9568112-1.62684197-4.6-1.233l-16.495 3.925c-.1682105.04035499-.3036127.16478881-.358.329l-3.262 9.784c-.0684573.2060299.0038651.4326938.179.561l12.058 8.84c.7898814.5958761 1.8929859.5411419 2.62-.13.4580221-.4395883.7166555-1.0471601.716-1.682z"/><path id="Shape" d="m12.851 3.167c.0854879-.25667145.0633338-.53702815-.0614064-.7770871s-.3414218-.41933469-.6005936-.4969129l-6.167-1.85c-.09440048-.02837387-.19242766-.04285899-.291-.043-.42876579.00204222-.80851334.27719828-.944.684l-4.735 14.2c-.08552538.2565379-.06350822.5367769.06103066.776811s.34098124.4193979.59996934.497189l6.167 1.85c.51811912.1586703 1.06786166-.1268756 1.236-.642l4.736-14.2zm-4.851 2.833c-.55228475 0-1-.44771525-1-1s.44771525-1 1-1 1 .44771525 1 1-.44771525 1-1 1z"/></g></g></svg>