<?xml version="1.0" encoding="UTF-8" standalone="no"?>
<svg
   xmlns:dc="http://purl.org/dc/elements/1.1/"
   xmlns:cc="http://creativecommons.org/ns#"
   xmlns:rdf="http://www.w3.org/1999/02/22-rdf-syntax-ns#"
   xmlns:svg="http://www.w3.org/2000/svg"
   xmlns="http://www.w3.org/2000/svg"
   xmlns:sodipodi="http://sodipodi.sourceforge.net/DTD/sodipodi-0.dtd"
   xmlns:inkscape="http://www.inkscape.org/namespaces/inkscape"
   id="afc98551-3d88-4acb-87ed-36f06011ac7a"
   data-name="Layer 1"
   width="821.67627"
   height="821.67627"
   viewBox="0 0 821.67627 821.67627"
   version="1.1"
   sodipodi:docname="undraw_Scrum_board_re_wk7v.svg"
   inkscape:version="1.0.2 (e86c870879, 2021-01-15)">
  <metadata
     id="metadata101">
    <rdf:RDF>
      <cc:Work
         rdf:about="">
        <dc:format>image/svg+xml</dc:format>
        <dc:type
           rdf:resource="http://purl.org/dc/dcmitype/StillImage" />
        <dc:title></dc:title>
      </cc:Work>
    </rdf:RDF>
  </metadata>
  <defs
     id="defs99" />
  <sodipodi:namedview
     pagecolor="#ffff46"
     bordercolor="#666666"
     borderopacity="1"
     objecttolerance="10"
     gridtolerance="10"
     guidetolerance="10"
     inkscape:pageopacity="0"
     inkscape:pageshadow="2"
     inkscape:window-width="1366"
     inkscape:window-height="704"
     id="namedview97"
     showgrid="false"
     inkscape:zoom="0.33344114"
     inkscape:cx="584.63564"
     inkscape:cy="374.76188"
     inkscape:window-x="0"
     inkscape:window-y="312"
     inkscape:window-maximized="1"
     inkscape:current-layer="afc98551-3d88-4acb-87ed-36f06011ac7a" />
  <g
     id="g973"
     transform="translate(0.00173508,121.33335)">
    <path
       d="m 371.238,218.49521 h -52.3999 a 19.01722,19.01722 0 0 0 -19,19 v 56.81 c -0.66992,-0.04 -1.33985,-0.1 -2,-0.18 a 66.99888,66.99888 0 1 1 73.10009,-77.63 c 0.10991,0.65997 0.21001,1.33002 0.29981,2 z"
       transform="translate(-189.16186,-160.49521)"
       fill="#f2f2f2"
       id="path2" />
    <path
       d="m 989.83814,216.49521 h -671 a 21.023,21.023 0 0 0 -21,21 v 354 a 21.023,21.023 0 0 0 21,21 h 671 a 21.023,21.023 0 0 0 20.99996,-21 v -354 a 21.023,21.023 0 0 0 -20.99996,-21 z m 18.99996,375 a 19.01722,19.01722 0 0 1 -18.99996,19 h -671 a 19.01722,19.01722 0 0 1 -19,-19 v -354 a 19.01722,19.01722 0 0 1 19,-19 h 671 a 19.01722,19.01722 0 0 1 18.99996,19 z"
       transform="translate(-189.16186,-160.49521)"
       fill="#3f3d56"
       id="path4" />
    <path
       d="m 956.83814,273.86484 h -605 a 1,1 0 0 1 0,-2 h 605 a 1,1 0 0 1 0,2 z"
       transform="translate(-189.16186,-160.49521)"
       fill="#3f3d56"
       id="path6" />
    <path
       d="m 522.83814,569.49521 a 1,1 0 0 1 -1,-1 v -329 a 1,1 0 1 1 2,0 v 329 a 1.00005,1.00005 0 0 1 -1,1 z"
       transform="translate(-189.16186,-160.49521)"
       fill="#3f3d56"
       id="path8" />
    <path
       d="m 673.83814,569.49521 a 1,1 0 0 1 -1,-1 v -329 a 1,1 0 1 1 2,0 v 329 a 1.00005,1.00005 0 0 1 -1,1 z"
       transform="translate(-189.16186,-160.49521)"
       fill="#3f3d56"
       id="path10" />
    <path
       d="m 824.83814,569.49521 a 1,1 0 0 1 -1,-1 v -329 a 1,1 0 1 1 2,0 v 329 a 1.00005,1.00005 0 0 1 -1,1 z"
       transform="translate(-189.16186,-160.49521)"
       fill="#3f3d56"
       id="path12" />
    <path
       d="m 425.75379,377.08261 h -36.54 a 4.505,4.505 0 0 1 -4.5,-4.5 V 329.463 a 4.505,4.505 0 0 1 4.5,-4.5 h 36.54 a 4.505,4.505 0 0 1 4.5,4.5 v 43.11963 a 4.505,4.505 0 0 1 -4.5,4.49998 z"
       transform="translate(-189.16186,-160.49521)"
       fill="#091454"
       id="path14" />
    <path
       d="m 477.75379,500.08261 h -36.54 a 4.505,4.505 0 0 1 -4.5,-4.5 V 452.463 a 4.505,4.505 0 0 1 4.5,-4.5 h 36.54 a 4.505,4.505 0 0 1 4.5,4.5 v 43.11963 a 4.505,4.505 0 0 1 -4.5,4.49998 z"
       transform="translate(-189.16186,-160.49521)"
       fill="#091454"
       id="path16" />
    <path
       d="m 595.75391,403.08261 h -36.54 a 4.50508,4.50508 0 0 1 -4.5,-4.5 V 355.463 a 4.50508,4.50508 0 0 1 4.5,-4.5 h 36.54 a 4.50508,4.50508 0 0 1 4.5,4.5 v 43.11963 a 4.50508,4.50508 0 0 1 -4.5,4.49998 z"
       transform="translate(-189.16186,-160.49521)"
       fill="#091454"
       id="path18" />
    <path
       d="m 748.75391,356.08261 h -36.54 a 4.50508,4.50508 0 0 1 -4.5,-4.5 V 308.463 a 4.50508,4.50508 0 0 1 4.5,-4.5 h 36.54 a 4.50508,4.50508 0 0 1 4.5,4.5 v 43.11963 a 4.50508,4.50508 0 0 1 -4.5,4.49998 z"
       transform="translate(-189.16186,-160.49521)"
       fill="#091454"
       id="path20" />
    <path
       d="m 889.75391,356.08261 h -36.54 a 4.50508,4.50508 0 0 1 -4.5,-4.5 V 308.463 a 4.50508,4.50508 0 0 1 4.5,-4.5 h 36.54 a 4.50508,4.50508 0 0 1 4.5,4.5 v 43.11963 a 4.50508,4.50508 0 0 1 -4.5,4.49998 z"
       transform="translate(-189.16186,-160.49521)"
       fill="#091454"
       id="path22" />
    <path
       d="m 954.75391,368.08261 h -36.54 a 4.50508,4.50508 0 0 1 -4.5,-4.5 V 320.463 a 4.50508,4.50508 0 0 1 4.5,-4.5 h 36.54 a 4.50508,4.50508 0 0 1 4.5,4.5 v 43.11963 a 4.50508,4.50508 0 0 1 -4.5,4.49998 z"
       transform="translate(-189.16186,-160.49521)"
       fill="#e6e6e6"
       id="path24" />
    <path
       d="m 925.75391,445.08261 h -36.54 a 4.50508,4.50508 0 0 1 -4.5,-4.5 V 397.463 a 4.50508,4.50508 0 0 1 4.5,-4.5 h 36.54 a 4.50508,4.50508 0 0 1 4.5,4.5 v 43.11963 a 4.50508,4.50508 0 0 1 -4.5,4.49998 z"
       transform="translate(-189.16186,-160.49521)"
       fill="#e6e6e6"
       id="path26" />
    <path
       d="m 801.75391,429.08261 h -36.54 a 4.50508,4.50508 0 0 1 -4.5,-4.5 V 381.463 a 4.50508,4.50508 0 0 1 4.5,-4.5 h 36.54 a 4.50508,4.50508 0 0 1 4.5,4.5 v 43.11963 a 4.50508,4.50508 0 0 1 -4.5,4.49998 z"
       transform="translate(-189.16186,-160.49521)"
       fill="#ff6584"
       id="path28" />
    <path
       d="m 730.75391,445.08261 h -36.54 a 4.50508,4.50508 0 0 1 -4.5,-4.5 V 397.463 a 4.50508,4.50508 0 0 1 4.5,-4.5 h 36.54 a 4.50508,4.50508 0 0 1 4.5,4.5 v 43.11963 a 4.50508,4.50508 0 0 1 -4.5,4.49998 z"
       transform="translate(-189.16186,-160.49521)"
       fill="#e6e6e6"
       id="path30" />
    <path
       d="m 577.75391,513.08261 h -36.54 a 4.50508,4.50508 0 0 1 -4.5,-4.5 V 465.463 a 4.50508,4.50508 0 0 1 4.5,-4.5 h 36.54 a 4.50508,4.50508 0 0 1 4.5,4.5 v 43.11963 a 4.50508,4.50508 0 0 1 -4.5,4.49998 z"
       transform="translate(-189.16186,-160.49521)"
       fill="#e6e6e6"
       id="path32" />
    <path
       d="m 392.75379,456.08261 h -36.54 a 4.505,4.505 0 0 1 -4.5,-4.5 V 408.463 a 4.505,4.505 0 0 1 4.5,-4.5 h 36.54 a 4.505,4.505 0 0 1 4.5,4.5 v 43.11963 a 4.505,4.505 0 0 1 -4.5,4.49998 z"
       transform="translate(-189.16186,-160.49521)"
       fill="#ff6584"
       id="path34" />
    <path
       d="m 495.75379,377.08261 h -36.54 a 4.505,4.505 0 0 1 -4.5,-4.5 V 329.463 a 4.505,4.505 0 0 1 4.5,-4.5 h 36.54 a 4.505,4.505 0 0 1 4.5,4.5 v 43.11963 a 4.505,4.505 0 0 1 -4.5,4.49998 z"
       transform="translate(-189.16186,-160.49521)"
       fill="#e6e6e6"
       id="path36" />
    <path
       d="m 465.83814,257.49521 h -57 a 4,4 0 0 1 0,-8 h 57 a 4,4 0 0 1 0,8 z"
       transform="translate(-189.16186,-160.49521)"
       fill="#cccccc"
       id="path38" />
    <path
       d="m 626.83814,257.49521 h -57 a 4,4 0 0 1 0,-8 h 57 a 4,4 0 0 1 0,8 z"
       transform="translate(-189.16186,-160.49521)"
       fill="#cccccc"
       id="path40" />
    <path
       d="m 777.83814,257.49521 h -57 a 4,4 0 0 1 0,-8 h 57 a 4,4 0 0 1 0,8 z"
       transform="translate(-189.16186,-160.49521)"
       fill="#cccccc"
       id="path42" />
    <path
       d="m 918.83814,257.49521 h -57 a 4,4 0 0 1 0,-8 h 57 a 4,4 0 0 1 0,8 z"
       transform="translate(-189.16186,-160.49521)"
       fill="#cccccc"
       id="path44" />
    <path
       d="M 338.17107,550.38656 A 10.05577,10.05577 0 0 1 329.471,537.6561 l -25.63286,-23.8611 13.55277,-3.43814 25.20573,20.44382 a 10.11027,10.11027 0 0 1 -4.42557,19.58585 z"
       transform="translate(-189.16186,-160.49521)"
       fill="#ffb8b8"
       id="path46" />
    <polygon
       points="202.496,518.965 184.402,518.965 184.404,566.253 196.664,566.253 "
       fill="#ffb8b8"
       id="polygon48" />
    <path
       d="m 370.93892,723.24476 h 38.53073 v 14.88687 h -23.64388 a 14.88686,14.88686 0 0 1 -14.88686,-14.88686 v 0 z"
       transform="rotate(179.99738,295.62515,650.43844)"
       fill="#2f2e41"
       id="path50" />
    <polygon
       points="129.994,516.359 112.509,511.705 100.345,557.401 112.193,560.555 "
       fill="#ffb8b8"
       id="polygon52" />
    <path
       d="m 285.30672,718.54064 h 38.53073 v 14.88687 h -23.64387 a 14.88686,14.88686 0 0 1 -14.88686,-14.88686 v 0 z"
       transform="matrix(-0.96635,-0.25722,0.25722,-0.96635,222.9961,1345.3878)"
       fill="#2f2e41"
       id="path54" />
    <path
       d="m 389.12281,717.795 h -18.70728 a 4.72981,4.72981 0 0 1 -4.72607,-4.293 L 354.333,595.5704 a 3.74767,3.74767 0 0 0 -7.321,-0.71484 l -32.97342,110.19922 a 4.74216,4.74216 0 0 1 -5.7,3.24609 l -17.40308,-4.35156 a 4.74747,4.74747 0 0 1 -3.44727,-5.78711 c 0.28418,-1.11035 28.41065,-111.02832 28.65625,-112.1582 6.37281,-46.96778 13.99707,-59.55371 18.093,-66.31445 0.33911,-0.55958 0.65064,-1.07422 0.93115,-1.56055 0.35108,-0.6084 2.51245,-6.64453 3.88355,-10.56445 a 4.79,4.79 0 0 1 2.43506,-2.97754 c 17.21069,-8.80176 37.34741,-2.709 43.10913,-0.63184 a 4.6821,4.6821 0 0 1 2.33813,1.81543 c 17.28467,26.07129 8.80225,177.49121 6.92627,207.581 a 4.75127,4.75127 0 0 1 -4.73796,4.4434 z"
       transform="translate(-189.16186,-160.49521)"
       fill="#2f2e41"
       id="path56" />
    <circle
       cx="151.68414"
       cy="234.02423"
       r="24.561029"
       fill="#ffb8b8"
       id="circle58" />
    <path
       d="m 338.24365,512.3331 -0.17651,-0.1709 c -0.33105,-0.32031 -33.05566,-32.37988 -28.82056,-62.02441 1.81128,-12.67969 12.07032,-20.78125 29.66773,-23.43067 a 27.13473,27.13473 0 0 1 29.99976,19.1211 l 17.3999,59.48437 z"
       transform="translate(-189.16186,-160.49521)"
       fill="#cccccc"
       id="path60" />
    <path
       d="m 321.49463,535.13583 -23.31836,-23.17089 a 13.13671,13.13671 0 0 1 -3.47973,-12.39161 l 11.28857,-45.91894 a 10.35411,10.35411 0 0 1 13.17989,-7.40039 10.41072,10.41072 0 0 1 6.80908,12.79394 l -11.88448,40.39649 19.21826,20.63672 z"
       transform="translate(-189.16186,-160.49521)"
       fill="#cccccc"
       id="path62" />
    <path
       d="m 446.56619,456.05763 a 10.05577,10.05577 0 0 1 -14.88374,4.02868 l -31.12945,16.13447 1.37589,-13.70578 27.59693,-17.07886 a 10.11028,10.11028 0 0 1 17.04041,10.62149 z"
       transform="translate(-189.16186,-160.49521)"
       fill="#ffb8b8"
       id="path64" />
    <path
       d="m 428.283,466.25982 -30.34625,13.11355 a 12.80885,12.80885 0 0 1 -12.477,-1.33846 L 346.87082,450.38585 A 10.355,10.355 0 0 1 344.89728,435.4 a 10.41025,10.41025 0 0 1 14.40861,-1.568 l 33.08845,26.042 26.30022,-10.17517 z"
       transform="translate(-189.16186,-160.49521)"
       fill="#cccccc"
       id="path66" />
    <path
       d="m 344.91778,402.38974 c 3.03,-3.79642 8.69082,-4.00051 12.85285,-6.50478 5.45181,-3.28033 7.70574,-10.61077 5.94888,-16.726 -1.75686,-6.11523 -6.93808,-10.881 -12.8784,-13.16029 -5.94032,-2.27929 -12.5494,-2.30748 -18.81589,-1.20568 -9.33021,1.64048 -18.51612,5.99512 -24.20655,13.56895 -5.69043,7.57383 -7.13858,18.66583 -1.98149,26.61243 2.37026,3.65236 6.02921,6.66714 6.97549,10.91712 1.2423,5.57954 -2.6714,10.96083 -6.86421,14.846 -4.77673,4.42628 -10.257,8.1334 -14.44192,13.12294 -4.18492,4.98954 -6.97564,11.80621 -5.066,18.03215 1.6,5.21635 6.25591,9.05948 11.36143,10.98408 5.10552,1.9246 10.66607,2.2027 16.12124,2.30939 5.29718,0.10361 10.92363,-0.0252 15.386,-2.88141 4.77715,-3.05764 7.32781,-8.8583 7.51626,-14.52705 0.18845,-5.66875 -1.70587,-11.22252 -4.24464,-16.2945 -1.51323,-3.02314 -3.27267,-5.95256 -4.27818,-9.18027 -1.00551,-3.22771 -1.1797,-6.89016 0.43058,-9.86274 1.69267,-3.12465 5.1171,-5.009 8.6041,-5.69419 0.18117,-0.0356 0.37286,-0.0674 0.57335,-0.0957 a 7.39847,7.39847 0 0 0 6.33328,-8.62766 c -0.39726,-2.21434 -0.36296,-4.33384 0.67382,-5.63279 z"
       transform="translate(-189.16186,-160.49521)"
       fill="#2f2e41"
       id="path68" />
    <polygon
       points="465.137,520.012 483.231,520.013 483.229,567.3 470.969,567.3 "
       fill="#a0616a"
       id="polygon70" />
    <path
       d="m 462.212,563.79684 h 23.64386 v 14.88687 h -38.53077 v 0 A 14.88687,14.88687 0 0 1 462.212,563.79684 Z"
       fill="#2f2e41"
       id="path72" />
    <polygon
       points="536.079,517.917 552.538,510.399 572.184,553.413 561.033,558.506 "
       fill="#a0616a"
       id="polygon74" />
    <path
       d="m 743.47033,716.96167 h 23.64388 v 14.88687 h -38.53073 v 0 a 14.88685,14.88685 0 0 1 14.88685,-14.88687 z"
       transform="rotate(-24.54855,284.42348,1078.8824)"
       fill="#2f2e41"
       id="path76" />
    <path
       d="m 725.64338,568.3522 a 10.05579,10.05579 0 0 0 0.80112,-15.39851 l 14.4116,-32.69992 -18.30864,3.10281 -10.87858,30.57671 a 10.11028,10.11028 0 0 0 13.9745,14.41891 z"
       transform="translate(-189.16186,-160.49521)"
       fill="#a0616a"
       id="path78" />
    <path
       d="m 671.6094,715.32658 h -11.71192 a 4.51686,4.51686 0 0 1 -4.48828,-4.17383 l -6.387,-170.5586 a 4.49977,4.49977 0 0 1 4.92529,-4.80468 l 67.73487,7.19336 a 4.5013,4.5013 0 0 1 4.06225,4.39355 l 1.41943,75.23535 a 3.49205,3.49205 0 0 0 0.23389,1.19336 l 27.78516,72.05274 a 4.49892,4.49892 0 0 1 -2.64307,5.84082 l -11.86841,4.373 a 4.50108,4.50108 0 0 1 -5.55737,-2.16406 l -34.13257,-66.36914 a 4.475,4.475 0 0 1 -0.4043,-1.14258 l -5.83081,-28.09375 a 3.49992,3.49992 0 0 0 -6.904,0.3125 l -11.76222,102.72367 a 4.499,4.499 0 0 1 -4.47094,3.98829 z"
       transform="translate(-189.16186,-160.49521)"
       fill="#2f2e41"
       id="path80" />
    <circle
       cx="488.27942"
       cy="222.17783"
       r="24.561029"
       fill="#a0616a"
       id="circle82" />
    <path
       d="m 694.28491,556.18955 a 87.66432,87.66432 0 0 1 -46.8728,-14.19825 l -0.239,-0.165 0.0247,-0.28955 9.395,-109.416 a 15.4205,15.4205 0 0 1 14.59887,-14.06153 c 12.176,-0.55957 28.531,0.146 37.28589,6.66651 13.23071,9.85449 19.60767,24.69385 17.49561,40.7124 -4.38013,33.21875 0.58178,78.0293 1.16186,83.0293 l 0.042,0.36035 -0.32959,0.15137 a 77.26611,77.26611 0 0 1 -32.5625,7.2104 z"
       transform="translate(-189.16186,-160.49521)"
       fill="#091454"
       id="path84" />
    <path
       d="m 727.02173,548.65292 a 5.007,5.007 0 0 1 -3.68066,-1.62207 l -5.37256,-5.86132 a 5.02581,5.02581 0 0 1 -1.10913,-4.79493 l 12.25073,-41.46386 -18.63989,-39.14356 a 8.8323,8.8323 0 0 1 -0.60376,-5.87939 8.809,8.809 0 0 1 16.31323,-2.084 l 25.29468,41.042 a 11.95092,11.95092 0 0 1 0.72,11.19824 l -20.60986,45.665 a 4.98754,4.98754 0 0 1 -3.76636,2.87988 5.05373,5.05373 0 0 1 -0.79642,0.064 z"
       transform="translate(-189.16186,-160.49521)"
       fill="#091454"
       id="path86" />
    <path
       d="m 553.89965,469.44778 a 10.05577,10.05577 0 0 0 14.99854,-3.57767 l 35.438,4.59612 -8.14419,-16.68847 -32.404,-1.806 a 10.11028,10.11028 0 0 0 -9.88836,17.476 z"
       transform="translate(-189.16186,-160.49521)"
       fill="#a0616a"
       id="path88" />
    <path
       d="m 632.01123,478.5621 a 13.42535,13.42535 0 0 1 -1.84472,-0.12744 l -55.751,-7.73242 a 5.54112,5.54112 0 0 1 -4.25073,-3.11133 5.65746,5.65746 0 0 1 -0.31787,-0.8291 h -2.5e-4 a 5.56408,5.56408 0 0 1 0.575,-4.43164 l 4.61353,-7.64893 a 5.58411,5.58411 0 0 1 4.75586,-2.686 h 0.008 l 48.59594,0.0557 36.29395,-32.51709 a 9.86788,9.86788 0 0 1 6.10718,-2.49951 9.83491,9.83491 0 0 1 7.37256,16.81543 L 641.95313,474.128 a 13.364,13.364 0 0 1 -9.9419,4.4341 z"
       transform="translate(-189.16186,-160.49521)"
       fill="#091454"
       id="path90" />
    <path
       d="m 680.2335,404.52319 c 2.2445,-5.19457 4.14379,-12.11253 -0.16123,-15.78514 -2.49712,-2.13029 -6.09385,-2.13469 -9.36546,-2.39972 -9.21732,-0.74668 -18.70553,-4.98771 -23.21077,-13.06356 -4.50524,-8.07585 -1.98923,-20.08442 6.51023,-23.728 5.72923,-2.456 12.29743,-0.78291 18.29443,0.91767 l 18.0058,5.10593 c 5.35006,1.51712 10.96737,3.19025 14.819,7.20149 6.14268,6.39729 5.6835,17.21166 0.80459,24.618 -4.87891,7.40634 -12.22635,15.13079 -20.63767,17.94281 z"
       transform="translate(-189.16186,-160.49521)"
       fill="#2f2e41"
       id="path92" />
    <path
       d="m 928.64656,739.50479 h -738.294 a 1.19069,1.19069 0 1 1 0,-2.38137 h 738.294 a 1.19069,1.19069 0 1 1 0,2.38137 z"
       transform="translate(-189.16186,-160.49521)"
       fill="#3f3d56"
       id="path94" />
  </g>
  <path
     style="fill:#ffffff;fill-rule:evenodd;stroke-width:2.22667;stroke-linejoin:bevel;stroke-opacity:0.996078;paint-order:markers stroke fill"
     d="m 258.73571,179.24091 c -44.74508,0.35532 -89.57513,-0.45446 -134.26888,0.9899 -7.8139,2.36149 -14.16441,9.83217 -12.81297,18.34622 -1.1996,65.81466 -0.36876,131.6522 -0.62117,197.47597 5.93412,-4.49565 15.95394,-12.8934 11.32179,-21.94566 -4.52191,-6.78345 -10.33381,-14.06071 -8.45562,-22.80097 1.35656,-11.60978 11.92629,-19.91964 22.14241,-23.93376 12.63411,-4.02801 29.8975,-3.1693 37.14838,9.60291 3.51235,8.84965 0.71767,19.1026 2.29252,28.16882 10.19925,0.62129 21.01,-1.23107 30.89002,1.24877 1.91432,15.91261 1.58262,32.28592 0.20088,48.25479 -0.70706,3.29144 -7.15818,0.13341 -6.90448,3.26586 3.23508,5.05729 9.72322,-0.21854 13.85362,-1.00441 6.46553,-2.89035 13.40877,-4.58755 20.1138,-6.35775 6.03537,-2.9232 13.11225,-10.90057 20.12739,-5.71991 6.89306,6.54763 17.4686,2.62486 25.90725,3.82435 4.45754,0.37705 13.28765,-1.34004 13.32242,5.41822 0.45865,14.44909 1.08803,29.09625 -0.41833,43.46058 -2.06474,5.26246 -9.41768,2.60095 -13.68048,3.46863 -9.82296,-0.56383 -20.18837,1.31238 -29.70348,-1.31694 -3.37696,-6.4169 -1.01996,-14.58585 -1.83999,-21.62467 -0.78532,-5.17634 1.44295,-11.63964 -1.51284,-16.21747 -3.73959,-1.85626 -8.59884,0.79238 -8.74555,4.87705 -9.2779,5.87015 -20.03557,10.12866 -30.54832,13.52319 -7.30991,2.61649 -12.36715,-4.87841 -18.55141,-6.56901 1.13225,8.00158 4.48606,16.38929 6.75538,24.42458 4.33968,11.37724 9.14396,22.67729 10.06266,34.97804 3.50401,25.74976 2.94326,52.07239 4.41108,77.77593 84.44986,0 168.89971,0 253.34955,0 -1.3786,-21.66997 -1.01077,-44.04157 -3.13332,-65.89085 -1.31192,-13.53197 1.16123,-27.30172 1.72713,-40.87121 1.09735,-13.8213 2.38055,-27.62715 3.75464,-41.42349 -6.68535,4.08416 -11.00986,14.81967 -19.95137,16.24025 -17.37897,-0.44913 -34.86719,-4.47416 -51.89134,-6.14238 -0.63599,12.88975 1.2875,26.17837 -1.15559,38.84654 -4.62136,3.61376 -11.65247,1.29643 -17.15352,2.13993 -8.4445,-0.39803 -17.44611,0.90129 -25.54495,-1.29085 -1.47141,-16.06651 -1.74832,-32.49051 -0.51567,-48.56335 3.49604,-3.67885 12.23264,1.46797 13.11729,-5.69093 2.48756,-5.70512 9.34808,-6.91753 14.81752,-5.59151 20.91347,0.58007 41.8755,0.27207 62.76996,0.0973 13.62611,-11.38867 25.82679,-24.80661 40.80564,-34.42718 4.89829,-0.19181 4.14975,-6.88702 2.73155,-9.98603 -6.53344,-4.05513 -14.26839,-7.77357 -17.24465,-15.46986 -2.48858,-5.48265 -1.42112,-12.24883 -5.99741,-16.98165 -6.31376,-8.38451 -3.56611,-24.03689 7.85297,-26.03368 5.42941,-1.15272 11.10942,0.66088 16.24439,1.05617 -0.20194,-25.18384 0.40137,-50.70122 -0.30028,-75.67807 -49.54009,0.20023 -99.41192,-0.40042 -148.7447,0.30029 -0.2781,96.06366 0.63322,192.1392 -0.67306,288.19505 -0.057,6.30425 -0.66613,4.7738 -0.71447,-0.51567 -1.47579,-95.87809 -0.75267,-191.77934 -1.20114,-287.66696 -55.69614,-1.14206 -111.94856,0.18014 -167.83455,-1.6029 55.87123,-1.77904 112.09795,-0.4688 167.78692,-1.59669 0.83829,-10.63329 -0.87946,-22.13377 1.76237,-32.3024 1.99209,10.6068 0.0292,22.02794 1.17421,32.6089 49.54009,-0.20022 99.41192,0.40043 148.7447,-0.30029 0.32164,-10.4747 -0.70549,-22.37718 0.81594,-32.145 1.45182,10.70196 0.0747,21.88122 1.00441,32.44529 49.54009,-0.20022 99.41192,0.40043 148.7447,-0.30029 0.63855,-10.73965 -1.239,-22.02367 1.00855,-32.48671 2.4023,0.78509 0.94295,5.52343 1.51178,7.62725 0.30473,8.34892 -0.36328,17.02187 0.36034,25.15975 43.23506,0.37483 86.57002,-0.81974 129.74596,0.81181 2.63408,0.40572 -3.24961,0.63841 -3.66762,0.69997 -42.07234,1.42837 -84.5018,0.30127 -126.37863,1.38545 -0.27209,95.60053 0.60397,191.21199 -0.5985,286.80546 -0.20509,1.66606 -0.0192,7.47099 -0.86979,6.90035 -1.87357,-38.00292 -0.69429,-76.18698 -1.1045,-114.25747 -0.0153,-59.82163 -0.004,-119.64327 -0.008,-179.4649 -49.33278,-0.70071 -99.20461,-0.10006 -148.7447,-0.30029 -0.55411,25.31967 -0.39279,51.37647 -0.0808,76.77981 10.50484,3.82297 23.42636,4.46383 31.30213,13.21669 6.71588,8.96691 2.45633,21.11911 -4.15429,28.88122 10.01026,1.64501 21.73693,-0.98152 31.92963,1.71473 2.10007,14.75293 0.97584,29.98266 0.8408,44.90609 0.86396,5.81494 -6.0289,4.55848 -9.23014,5.93322 8.37426,15.88898 19.74334,30.28691 27.28039,46.62497 0.84498,7.40874 -4.61679,13.98417 -6.62471,20.87398 -5.88164,12.9192 -10.86317,26.61239 -18.96166,38.25734 0.20722,4.26477 4.41449,8.5256 1.31711,12.87499 -3.40224,10.09467 -1.21778,21.27597 -1.93918,31.77844 1.10178,5.22483 -3.63092,16.50682 5.57781,13.81934 83.36065,-0.27682 166.73183,0.58784 250.08577,-0.4991 7.52267,-0.98054 18.23218,1.37988 22.55245,-6.73881 6.49743,-8.37368 2.78267,-19.72346 3.99673,-29.42773 0.60652,-113.98265 -0.004,-227.98731 -0.17172,-341.95874 -3.47102,-6.46338 -9.45335,-12.88711 -17.53114,-11.77754 -83.56117,-1.61243 -167.1562,-0.75102 -250.73119,-1.12327 -97.44906,-0.0836 -194.89819,-0.17665 -292.34728,-0.0881 z m 19.98036,31.1054 c 2.09761,2.16759 2.73744,7.41466 -1.46622,7.25447 -19.41923,0.96134 -39.11186,1.02153 -58.51626,0.0104 -3.91251,-0.40528 -3.73464,-6.23657 0.16981,-6.47374 19.80584,-1.63638 39.91725,-0.38985 59.81267,-0.79109 z m 138.87463,0.0124 c 7.43034,0.7309 15.65953,-1.17953 22.68914,1.57391 3.77228,2.63095 -1.15086,7.17009 -4.52914,6.00363 -18.80645,0.13415 -37.94081,1.17139 -56.56544,-0.67926 -4.10007,-0.5305 -2.75426,-6.83853 1.21978,-6.19416 12.3078,-1.21933 24.82149,-0.50221 37.18566,-0.70412 z m 132.79644,0.15118 c 13.55856,0.58591 27.47633,-0.88927 40.81602,1.49521 3.00639,2.21984 -0.31475,6.27041 -3.48332,5.31609 -19.40348,0.69513 -39.09096,1.00491 -58.42306,0.11804 -2.18711,-2.57669 -0.86624,-7.73545 3.16024,-6.73467 5.97387,-0.20206 11.95356,-0.18973 17.93012,-0.19467 z m 141.0222,0 c 13.55855,0.58591 27.47633,-0.88927 40.81601,1.49521 3.00639,2.21984 -0.31475,6.27041 -3.48331,5.31609 -19.40349,0.69513 -39.09096,1.00491 -58.42307,0.11804 -2.1869,-2.57426 -0.86649,-7.7369 3.16024,-6.73467 5.97387,-0.20206 11.95356,-0.18973 17.93013,-0.19467 z m -150.11772,53.91258 c 6.96411,0.63405 14.76423,-0.9629 21.29746,1.58633 2.48424,9.7731 0.55273,20.41181 1.1825,30.48412 -0.51064,6.32691 0.68705,13.26019 -1.32539,19.26588 -13.18416,1.89869 -26.84781,1.11701 -40.14295,0.50324 -5.06795,-0.13277 -2.37394,-7.22257 -3.34662,-10.38987 0.24767,-13.13075 -1.23448,-26.59815 0.82008,-39.5403 3.67565,-2.8874 9.5021,-0.92494 13.86696,-1.82657 2.54912,-0.0549 5.09829,-0.0777 7.64796,-0.0828 z m 141.02219,0 c 6.96411,0.63405 14.76424,-0.9629 21.29747,1.58633 2.48424,9.7731 0.55272,20.41181 1.18249,30.48412 -0.51063,6.32691 0.68705,13.26019 -1.32539,19.26588 -13.18416,1.89869 -26.84781,1.11701 -40.14294,0.50324 -5.06796,-0.13277 -2.37395,-7.22257 -3.34663,-10.38987 0.24767,-13.13075 -1.23448,-26.59815 0.82008,-39.5403 3.67565,-2.8874 9.50211,-0.92494 13.86697,-1.82657 2.54912,-0.0549 5.09828,-0.0777 7.64795,-0.0828 z m 64.50539,12.7238 c 7.08601,0.56582 15.07596,-0.98923 21.65988,1.49729 1.74078,15.49711 1.18858,31.39952 0.32513,46.96459 -0.39168,4.02258 -6.35207,1.89364 -9.01061,2.72743 -11.09019,-0.24098 -22.55056,1.23645 -33.43313,-0.82009 -2.88453,-4.71815 -0.9743,-11.32223 -1.79932,-16.68748 0.20858,-10.66074 -0.78526,-21.63861 1.1801,-32.09747 4.39299,-3.01001 10.77205,-0.70733 15.77015,-1.57564 1.76927,-0.003 3.53854,-0.006 5.3078,-0.009 z m -522.46925,8.49497 c 4.97275,1.00171 12.11076,-1.79711 15.89648,2.5079 2.41418,12.89767 0.73999,26.3823 1.0799,39.49846 0.0113,3.71182 0.34938,10.13358 -5.17207,9.66133 -12.92286,1.07021 -26.35054,1.95702 -39.07227,-0.75797 -2.83526,-10.61146 -1.562,-22.33904 -1.76857,-33.3917 0.84836,-5.25763 -0.79003,-11.89514 2.22625,-16.36865 8.61413,-2.11364 17.98374,-0.70799 26.81028,-1.14937 z m 63.59626,-0.0124 c 6.94662,0.62072 14.70972,-0.94519 21.22705,1.58634 2.46259,9.96981 0.56405,20.74165 1.19217,30.98321 -0.70965,5.99213 1.22141,12.92629 -1.42411,18.48722 -11.19162,2.368 -23.13322,1.0235 -34.597,1.20528 -4.98709,0.92099 -9.69623,-2.86489 -8.74347,-8.1367 0.0913,-13.53293 -1.29116,-27.34931 0.8118,-40.72488 3.51699,-5.46511 11.53436,-2.406 16.8429,-3.39202 1.56355,-0.003 3.12711,-0.006 4.69066,-0.008 z m 99.89141,26.50793 c 7.29854,0.48416 15.27286,-0.8487 22.17761,1.37717 1.74379,15.98497 1.63248,32.39289 0.0663,48.39562 -5.59984,2.51897 -12.92815,0.998 -19.16026,1.57237 -7.96546,0.0213 -15.931,0.004 -23.89649,0.01 -3.23814,-10.21079 -1.40527,-21.38754 -1.92313,-31.97703 0.54524,-6.43301 -0.61778,-13.28799 1.92313,-19.37795 6.93762,0 13.87524,0 20.81287,0 z m 206.46986,25.2571 c 6.92567,0.51836 14.67509,-0.69519 21.08416,2.03364 2.52918,15.12923 1.86019,31.11066 0.56743,46.40545 -0.22964,5.56929 -8.01905,3.41601 -11.6842,4.10252 -10.13301,-0.50856 -20.79941,1.35825 -30.62287,-1.29226 -3.1133,-5.64873 -1.09102,-13.00441 -1.82888,-19.26174 0.62221,-9.95443 -1.30231,-20.50375 1.46026,-30.10514 6.48664,-2.37051 14.18627,-1.48287 21.0241,-1.88247 z m 124.05711,17.08104 c 7.02316,0.52017 14.96078,-0.77522 21.49007,1.58426 1.74391,14.9036 1.10062,30.18193 0.49081,45.15875 -0.22898,6.40837 -8.87409,3.87913 -12.97434,4.61623 -9.98531,-0.3318 -20.44805,0.89206 -30.15904,-1.30274 -2.6315,-8.23884 -0.66794,-17.62199 -1.33806,-26.26562 0.48066,-7.44992 -0.82566,-15.57342 1.3712,-22.63531 6.91478,-1.34373 14.09243,-0.9713 21.11936,-1.15557 z"
     id="path979" />
  <path
     style="fill:#ffffff;fill-rule:evenodd;stroke-width:2.22667;stroke-linejoin:bevel;stroke-opacity:0.996078;paint-order:markers stroke fill"
     d="m 111.03269,475.87501 c 0.48177,27.15481 -1.03301,54.4069 0.97541,81.5036 0.26108,4.62291 4.23661,10.82176 9.15973,10.45614 7.32618,-22.7324 8.9326,-46.88336 15.66867,-69.80284 1.41399,-3.07279 -1.67772,-4.48143 -4.13772,-3.48124 -8.24802,-4.70926 -14.26923,-13.69247 -21.66609,-18.67566 z"
     id="path981" />
  <path
     style="fill:#ffffff;fill-rule:evenodd;stroke-width:0.393623;stroke-linejoin:bevel;stroke-opacity:0.996078;paint-order:markers stroke fill"
     d="m 161.36861,552.84251 c -1.80103,5.3e-4 -3.49587,1.32958 -3.74539,3.14821 -1.60443,5.06584 -3.23896,10.1272 -4.67218,15.24355 0.35739,0.75494 1.56592,0.17567 2.25404,0.37488 3.84568,-0.0292 7.73815,0.11664 11.55396,-0.0659 0.194,-1.23547 -0.24859,-2.6799 -0.27239,-3.99205 -0.48,-4.0241 -0.59805,-8.10457 -1.33704,-12.09073 -0.50723,-1.57977 -2.12285,-2.69366 -3.781,-2.61793 z"
     id="path983" />
  <path
     style="fill:#ffffff;fill-rule:evenodd;stroke-width:1.11333;stroke-linejoin:bevel;stroke-opacity:0.996078;paint-order:markers stroke fill"
     d="m 128.85995,447.26835 c -1.90524,4.11837 -2.90575,8.83515 -4.0145,13.19494 6.33992,7.10545 13.56424,13.96185 19.14059,21.47453 2.6036,-2.27695 3.25282,-6.23816 4.51774,-9.35543 -6.76227,-7.64466 -13.15224,-15.81853 -18.63632,-24.51984 -0.29198,-0.25244 -0.50186,-0.93632 -1.00751,-0.7942 z"
     id="path985" />
  <path
     style="fill:#ffffff;fill-rule:evenodd;stroke-width:1.11333;stroke-linejoin:bevel;stroke-opacity:0.996078;paint-order:markers stroke fill"
     d="m 158.9713,378.43057 c -4.98447,1.70329 -10.36995,0.3969 -15.49885,0.62438 -3.50854,2.4155 -6.27189,7.23901 -4.88222,11.30833 7.67936,-2.08945 15.90537,-4.2175 23.71527,-1.52628 0.85506,-3.37015 0.12057,-7.50899 0.36863,-11.17268 -0.95588,-0.61282 -2.59855,0.65939 -3.70283,0.76625 z"
     id="path987" />
  <path
     style="fill:#ffffff;fill-rule:evenodd;stroke-width:1.11333;stroke-linejoin:bevel;stroke-opacity:0.996078;paint-order:markers stroke fill"
     d="m 497.52832,365.97184 c -3.7017,1.9386 -8.25296,1.26497 -12.058,2.18794 0.1992,3.53131 -0.39375,7.38344 0.29096,10.71811 5.00666,-0.0707 10.35135,0.693 15.15405,0.26611 0,-4.75175 0,-9.50351 0,-14.25526 -0.90354,-0.61937 -2.38595,0.89802 -3.38701,1.0831 z"
     id="path989" />
</svg>
