<?xml version="1.0" encoding="UTF-8" standalone="no"?>
<svg
   xmlns:dc="http://purl.org/dc/elements/1.1/"
   xmlns:cc="http://creativecommons.org/ns#"
   xmlns:rdf="http://www.w3.org/1999/02/22-rdf-syntax-ns#"
   xmlns:svg="http://www.w3.org/2000/svg"
   xmlns="http://www.w3.org/2000/svg"
   xmlns:sodipodi="http://sodipodi.sourceforge.net/DTD/sodipodi-0.dtd"
   xmlns:inkscape="http://www.inkscape.org/namespaces/inkscape"
   id="2cf41747-0c0c-4d70-aad4-093c093adad4"
   data-name="Layer 1"
   width="1022.84"
   height="1022.84"
   viewBox="0 0 1022.84 1022.8401"
   version="1.1"
   sodipodi:docname="undraw_book_lover_mkck.svg"
   inkscape:version="1.0.2 (e86c870879, 2021-01-15)">
  <metadata
     id="metadata372">
    <rdf:RDF>
      <cc:Work
         rdf:about="">
        <dc:format>image/svg+xml</dc:format>
        <dc:type
           rdf:resource="http://purl.org/dc/dcmitype/StillImage" />
        <dc:title>book lover</dc:title>
      </cc:Work>
    </rdf:RDF>
  </metadata>
  <sodipodi:namedview
     pagecolor="#ffffff"
     bordercolor="#666666"
     borderopacity="1"
     objecttolerance="10"
     gridtolerance="10"
     guidetolerance="10"
     inkscape:pageopacity="0"
     inkscape:pageshadow="2"
     inkscape:window-width="1366"
     inkscape:window-height="704"
     id="namedview370"
     showgrid="false"
     inkscape:zoom="0.3149053"
     inkscape:cx="395.40821"
     inkscape:cy="434.60953"
     inkscape:window-x="0"
     inkscape:window-y="312"
     inkscape:window-maximized="1"
     inkscape:current-layer="2cf41747-0c0c-4d70-aad4-093c093adad4" />
  <defs
     id="defs9">
    <linearGradient
       id="3cf802be-0480-4c68-848a-073112220499"
       x1="635.21997"
       y1="545.34003"
       x2="635.21997"
       y2="43.419998"
       gradientUnits="userSpaceOnUse"
       gradientTransform="translate(-88.58,61.41126)">
      <stop
         offset="0"
         stop-color="gray"
         stop-opacity="0.25"
         id="stop2" />
      <stop
         offset="0.54"
         stop-color="gray"
         stop-opacity="0.12"
         id="stop4" />
      <stop
         offset="1"
         stop-color="gray"
         stop-opacity="0.1"
         id="stop6" />
    </linearGradient>
  </defs>
  <title
     id="title11">book lover</title>
  <path
     d="m 599.86,242.25126 c -64.72,-2.25 -126.37,-23.14 -185.23,-46 -58.86,-22.86 -117.16,-48.19 -180.33,-60.3 -40.63,-7.79 -87.1,-8.89 -119.83,12.89 -31.51,21 -41.69,57.15 -47.16,90.73 -4.12,25.26 -6.54,51.84 4.75,75.49 7.83,16.42 21.74,30.22 31.35,46 33.47,54.72 9.82,122.2 -26.45,175.63 -17,25.07 -36.75,49 -49.87,75.66 -13.12,26.66 -19.2,57.25 -7.72,84.47 11.39,27 38.52,47.24 67.9,61.49 59.69,28.95 130,37.23 198.61,41.92 151.83,10.39 304.46,5.89 456.69,1.39 56.34,-1.67 112.92,-3.36 168.34,-12.07 30.78,-4.84 62.55,-12.51 84.9,-31.05 28.36,-23.53 35.39,-63.38 16.39,-92.88 -31.89,-49.49 -120,-61.78 -142.32,-114.9 -12.26,-29.23 0.34,-61.79 18.16,-88.91 38.24,-58.16 102.33,-109.19 105.71,-175.67 2.32,-45.67 -28.5,-91.39 -76.14,-113 -49.93,-22.73 -119.19,-19.85 -156.01,17.64 -37.94,38.63 -104.6,53.45 -161.74,51.47 z"
     fill="#e3eef9"
     opacity="0.1"
     id="path13" />
  <polygon
     points="435.45,690.5 93.17,688.83 59.16,609.06 179.42,600.33 158.46,512.87 396.32,482.04 168.55,402.86 188.67,398.08 554.92,457.83 534.75,594.32 505.92,669.33 "
     fill="#e3eef9"
     id="polygon15"
     transform="translate(0,104.83126)" />
  <path
     d="m 98.42,760.25126 c 0,0 21,-3.36 33.6,11.48 0,0 -9.24,7.28 -29.12,-2.8 z"
     fill="#e3eef9"
     id="path17" />
  <path
     d="m 96.22,759.92126 c 0,0 -13.4,16.49 -6.8,34.85 0,0 10.92,-4.37 12.11,-26.63 z"
     fill="#e3eef9"
     id="path19" />
  <path
     d="m 84.18,732.81126 c 0,0 8.4,-15.41 42,6.16 0,0 -4.48,10.36 -19.32,9.52 -14.84,-0.84 -18.76,-7.56 -22.68,-15.68 z"
     fill="#e3eef9"
     id="path21" />
  <path
     d="m 82.01,731.70126 c 0,0 -17.43,-2 -19.12,37.9 0,0 11.05,2.29 18.9,-10.33 7.85,-12.62 4.63,-19.7 0.22,-27.57 z"
     fill="#e3eef9"
     id="path23" />
  <path
     d="m 71.86,699.87126 c 0,0 9.8,-27.16 45.36,-7.84 0,0 -8.12,24.92 -41.72,17.08 z"
     fill="#e3eef9"
     id="path25" />
  <path
     d="m 60.94,659.27126 c 0,0 18.48,-27.44 51.24,-2 0,0 -11.48,25.76 -48.44,11.76 z"
     fill="#e3eef9"
     id="path27" />
  <path
     d="m 57.02,620.63126 c 0,0 21.56,-25.21 54,0 0,0 -20.44,22.12 -54,6.44 z"
     fill="#e3eef9"
     id="path29" />
  <path
     d="m 53.66,583.10126 c 0,0 21.84,-26.32 52.92,-1.4 0,0 -24.64,23.24 -52.92,7.56 z"
     fill="#e3eef9"
     id="path31" />
  <path
     d="m 55.62,549.78126 c 0,0 23,-33.88 52.08,-10.92 0,0 -24.64,29.12 -52.08,17.36 z"
     fill="#e3eef9"
     id="path33" />
  <path
     d="m 60.94,510.86126 c 0,0 24.36,-33.6 52.64,-7.84 0,0 -28.84,29.12 -52.64,14 z"
     fill="#e3eef9"
     id="path35" />
  <path
     d="m 69.06,476.07126 c 0,0 28.84,-31.58 54,-19 0,0 -30.05,33.54 -55.26,27.38 z"
     fill="#e3eef9"
     id="path37" />
  <path
     d="m 79.14,443.09126 c 0,0 33.28,-38.68 52.64,-25.76 0,0 -24.52,30 -55,33 z"
     fill="#e3eef9"
     id="path39" />
  <path
     d="m 93.69,404.84126 c 0,0 29.13,-31.58 50.41,-23.74 0,0 -24.92,32.76 -54.32,33.6 z"
     fill="#e3eef9"
     id="path41" />
  <path
     d="m 106.86,369.06126 c 0,0 32.2,-30.24 46.2,-24.92 0,0 -23.24,33.6 -47.6,31.64 z"
     fill="#e3eef9"
     id="path43" />
  <path
     d="m 119.74,336.02126 c 0,0 27.72,-36.13 42.85,-33.33 0,0 -16.81,32.21 -42.85,37 z"
     fill="#e3eef9"
     id="path45" />
  <path
     d="m 133.72,291.47126 c 0,0 24.5,-27.69 37.74,-27.63 0,0 -19.34,37 -38.75,36.66 z"
     fill="#e3eef9"
     id="path47" />
  <path
     d="m 142,261.81126 23.67,-57.68 c 0,0 1.18,52.14 -26.68,68.38 z"
     fill="#e3eef9"
     id="path49" />
  <path
     d="m 151.61,198.20126 c 0,0 3.92,-48.17 1.4,-52.09 0,0 16.92,40.05 -1.56,73.37 z"
     fill="#e3eef9"
     id="path51" />
  <path
     d="m 70.94,699.23126 c 0,0 -24.54,-15.21 -40.43,22 0,0 21.84,14.5 43.32,-12.51 z"
     fill="#e3eef9"
     id="path53" />
  <path
     d="m 60.15,657.72126 c 0,0 -30.1,-13.73 -44.7,25.12 0,0 23.25,16 47.44,-15.3 z"
     fill="#e3eef9"
     id="path55" />
  <path
     d="m 55.62,622.94126 c 0,0 -21.56,-25.21 -54,0 0,0 20.44,22.12 54,6.44 z"
     fill="#e3eef9"
     id="path57" />
  <path
     d="m 52.92,583.10126 c 0,0 -21.84,-26.32 -52.92,-1.4 0,0 24.64,23.24 52.92,7.56 z"
     fill="#e3eef9"
     id="path59" />
  <path
     d="m 55.62,550.74126 c 0,0 -15.32,-37.95 -48.62,-21.63 0,0 18,33.65 47.26,27.93 z"
     fill="#e3eef9"
     id="path61" />
  <path
     d="m 62.87,510.67126 c 0,0 -15.23,-38.61 -49,-20.71 0,0 20.68,35.39 47.5,26.67 z"
     fill="#e3eef9"
     id="path63" />
  <path
     d="m 72.31,476.26126 c 0,0 -6,-42.33 -34,-46.12 0,0 5.94,44.64 30.23,53.75 z"
     fill="#e3eef9"
     id="path65" />
  <path
     d="m 79.85,443.17126 c 0,0 -2.34,-51 -25.49,-52.78 0,0 0.78,38.71 22.88,60 z"
     fill="#e3eef9"
     id="path67" />
  <path
     d="m 96.09,403.41126 c 0,0 -6.9,-42.41 -29,-47.59 0,0 2.74,41.07 26.81,58 z"
     fill="#e3eef9"
     id="path69" />
  <path
     d="m 109.48,369.41126 c 0,0 -0.23,-44.18 -13.73,-50.67 0,0 -8.37,40 9.82,56.31 z"
     fill="#e3eef9"
     id="path71" />
  <path
     d="m 120.77,335.52126 c 0,0 -1.89,-45.49 -15.87,-51.9 0,0 -4.78,36 13.78,54.88 z"
     fill="#e3eef9"
     id="path73" />
  <path
     d="m 135.67,295.10126 c 0,0 -0.08,-37 -10.06,-45.68 0,0 -9.92,40.53 4.85,53.12 z"
     fill="#e3eef9"
     id="path75" />
  <path
     d="m 140.83,259.99126 -9.71,-61.58 c 0,0 -13.19,50.46 10.17,72.7 z"
     fill="#e3eef9"
     id="path77" />
  <path
     d="m 142.72,198.78126 c 0,0 -24.92,-41.4 -24.41,-46 0,0 2.65,43.39 34,65 z"
     fill="#e3eef9"
     id="path79" />
  <path
     d="m 145.64,186.55126 c 0,0 -23.52,-58.8 -34.16,-63.56 0,0 33.6,17.08 36.12,61.88 z"
     fill="#e3eef9"
     id="path81" />
  <path
     d="m 132.59,300.85126 -1.61,-0.49 c 19.85,-64.73 24.8,-106 13.95,-116.35 l 1.15,-1.22 c 11.51,10.92 6.84,51.74 -13.49,118.06 z"
     fill="#444053"
     id="path83" />
  <path
     d="m 77.93,452.41126 -2.38,-0.85 c 2.11,-5.93 4.38,-11.95 6.76,-17.88 20.72,-51.64 38.36,-99.68 49.67,-136.56 l 2.07,-1 c -11.33,36.95 -28.66,86.83 -49.4,138.54 -2.37,5.82 -4.63,11.81 -6.72,17.75 z"
     fill="#444053"
     id="path85" />
  <path
     d="m 128.01,808.69126 c -0.32,-0.35 -32.49,-36.58 -54.92,-98.43 a 364.18,364.18 0 0 1 -21.67,-112.78 c -1.54,-48.13 8.56,-101.87 25.86,-150.69 l 1.88,2.2 c -38.84,109.57 -23.41,203.46 -2.94,260 22.19,61.29 54,97.12 54.31,97.48 z"
     fill="#444053"
     id="path87" />
  <path
     d="m 630.73,731.77126 c 0,0 -22.67,27.67 -4.67,69.5 l -181,78.5 -17.37,3.64 -8,-35 5.35,-44.17 v -24.14 z"
     fill="#d5d6db"
     id="path89" />
  <polygon
     points="435.45,690.5 59.16,609.06 309.68,563.39 641.63,616.27 "
     fill="#e3eef9"
     id="polygon91"
     transform="translate(0,104.83126)" />
  <polygon
     points="435.45,690.5 59.16,609.06 309.68,563.39 641.63,616.27 "
     fill="#e3eef9"
     id="polygon93"
     transform="translate(0,104.83126)" />
  <path
     d="m 59.16,713.88126 c 0,0 -23.43,44.39 3.57,85.39 l 371.5,80.5 c 0,0 -23.06,-35.36 1.19,-84.44 z"
     fill="#e3eef9"
     id="path95" />
  <path
     d="m 59.16,713.88126 c 0,0 -23.43,44.39 3.57,85.39 l 371.5,80.5 c 0,0 -23.06,-35.36 1.19,-84.44 z"
     opacity="0.1"
     id="path97" />
  <path
     d="m 70.23,729.27126 c 0,0 -13.39,32.48 0,53.5"
     opacity="0.1"
     id="path99" />
  <path
     d="m 434.23,879.77126 207.4,-88.5 c 0,0 11.6,2.5 4.1,11 -7.5,8.5 -207.5,86 -207.5,86 l -375.5,-89 z"
     fill="#e3eef9"
     id="path101" />
  <path
     d="m 434.23,879.77126 207.4,-88.5 c 0,0 11.6,2.5 4.1,11 -7.5,8.5 -207.5,86 -207.5,86 l -375.5,-89 z"
     opacity="0.1"
     id="path103" />
  <path
     d="m 417.23,804.27126 c 0,0 -20,24 0,60"
     opacity="0.1"
     id="path105" />
  <rect
     x="138.65994"
     y="925.23419"
     width="94.57"
     height="1"
     transform="rotate(-18.45)"
     opacity="0.1"
     id="rect107" />
  <rect
     x="97.393181"
     y="937.69012"
     width="115.23"
     height="1"
     transform="rotate(-20.82)"
     opacity="0.1"
     id="rect109" />
  <rect
     x="70.758102"
     y="948.85541"
     width="133.56"
     height="1"
     transform="rotate(-22.26)"
     opacity="0.1"
     id="rect111" />
  <rect
     x="34.642204"
     y="958.99579"
     width="153.74001"
     height="1"
     transform="rotate(-24.31)"
     opacity="0.1"
     id="rect113" />
  <rect
     x="45.739552"
     y="962.67975"
     width="168.14999"
     height="1"
     transform="rotate(-23.61)"
     opacity="0.1"
     id="rect115" />
  <rect
     x="49.360691"
     y="969.67102"
     width="201.22"
     height="1"
     transform="rotate(-23.36)"
     opacity="0.1"
     id="rect117" />
  <polygon
     points="291.23,643.94 152.23,613.94 328.23,576.94 435.45,597.44 "
     fill="#ffffff"
     opacity="0.3"
     id="polygon119"
     transform="translate(0,104.83126)" />
  <path
     d="m 641.63,721.10126 c 0,0 9.1,3.67 3.76,9.34 -5.34,5.67 -209.97,64.89 -209.97,64.89 z"
     fill="#e3eef9"
     id="path121" />
  <path
     d="m 730.02,635.59126 c 0,0 -22.66,27.66 -4.66,69.5 l -181,78.5 -17.37,3.66 -8,-35 5.43,-44.16 v -24.17 z"
     fill="#d5d6db"
     id="path123" />
  <polygon
     points="534.75,594.32 158.46,512.87 408.97,467.21 740.93,520.09 "
     fill="#3a3768"
     id="polygon125"
     transform="translate(0,104.83126)" />
  <path
     d="m 158.42,617.70126 c 0,0 -23.44,44.39 3.56,85.39 l 371.5,80.5 c 0,0 -23.05,-35.39 1.23,-84.45 z"
     fill="#3a3768"
     id="path127" />
  <path
     d="m 158.42,617.70126 c 0,0 -23.44,44.39 3.56,85.39 l 371.5,80.5 c 0,0 -23.05,-35.39 1.23,-84.45 l -117.48,-25.43 z"
     opacity="0.1"
     id="path129" />
  <path
     d="m 169.52,633.09126 c 0,0 -13.38,32.47 0,53.5"
     opacity="0.1"
     id="path131" />
  <path
     d="m 533.52,783.59126 207.41,-88.5 c 0,0 11.59,2.5 4.09,11 -7.5,8.5 -207.5,86 -207.5,86 l -375.5,-89 z"
     fill="#3a3768"
     id="path133" />
  <path
     d="m 533.52,783.59126 207.41,-88.5 c 0,0 11.59,2.5 4.09,11 -7.5,8.5 -207.5,86 -207.5,86 l -375.5,-89 z"
     opacity="0.1"
     id="path135" />
  <path
     d="m 516.52,708.09126 c 0,0 -20,24 0,60"
     opacity="0.1"
     id="path137" />
  <rect
     x="263.28915"
     y="865.43335"
     width="94.57"
     height="1"
     transform="rotate(-18.45)"
     opacity="0.1"
     id="rect139" />
  <rect
     x="224.40219"
     y="883.09418"
     width="115.23"
     height="1"
     transform="rotate(-20.82)"
     opacity="0.1"
     id="rect141" />
  <rect
     x="199.09065"
     y="897.45007"
     width="133.56"
     height="1"
     transform="rotate(-22.26)"
     opacity="0.1"
     id="rect143" />
  <rect
     x="164.7412"
     y="912.22058"
     width="153.74001"
     height="1"
     transform="rotate(-24.31)"
     opacity="0.1"
     id="rect145" />
  <rect
     x="175.24942"
     y="914.30121"
     width="168.14999"
     height="1"
     transform="rotate(-23.61)"
     opacity="0.1"
     id="rect147" />
  <rect
     x="178.66519"
     y="920.73102"
     width="201.22"
     height="1"
     transform="rotate(-23.36)"
     opacity="0.1"
     id="rect149" />
  <polygon
     points="390.53,547.76 251.53,517.76 427.53,480.76 534.75,501.26 "
     fill="#ffffff"
     opacity="0.45"
     id="polygon151"
     transform="translate(0,104.83126)" />
  <path
     d="m 740.93,624.92126 c 0,0 9.09,3.67 3.76,9.33 -5.33,5.66 -209.94,64.89 -209.94,64.89 z"
     fill="#3a3768"
     id="path153" />
  <path
     d="m 739.42,525.56126 c 0,0 -22.67,49.67 -4.67,91.5 l -181,56.5 -17.33,3.67 -8,-35 5.35,-44.17 v -24.17 z"
     fill="#d5d6db"
     id="path155" />
  <polygon
     points="544.18,484.29 167.89,402.85 418.41,357.18 750.37,410.06 "
     fill="#e3eef9"
     id="polygon157"
     transform="translate(0,104.83126)" />
  <path
     d="m 167.89,507.67126 c 0,0 -23.47,44.39 3.53,85.39 l 371.5,80.5 c 0,0 -23.06,-35.39 1.22,-84.44 z"
     fill="#e3eef9"
     id="path159" />
  <path
     d="m 167.89,507.67126 c 0,0 -23.47,44.39 3.53,85.39 l 371.5,80.5 c 0,0 -23.06,-35.39 1.22,-84.44 z"
     opacity="0.1"
     id="path161" />
  <path
     d="m 178.96,523.06126 c 0,0 -13.39,32.48 0,53.5"
     opacity="0.1"
     id="path163" />
  <path
     d="m 542.96,673.56126 207.4,-66.5 c 0,0 11.6,2.5 4.1,11 -7.5,8.5 -207.5,64 -207.5,64 l -375.5,-89 z"
     fill="#e3eef9"
     id="path165" />
  <path
     d="m 542.96,673.56126 207.4,-66.5 c 0,0 11.6,2.5 4.1,11 -7.5,8.5 -207.5,64 -207.5,64 l -375.5,-89 z"
     opacity="0.1"
     id="path167" />
  <path
     d="m 525.96,598.06126 c 0,0 -20,24 0,60"
     opacity="0.1"
     id="path169" />
  <rect
     x="307.06924"
     y="764.04541"
     width="94.57"
     height="1"
     transform="rotate(-18.45)"
     opacity="0.1"
     id="rect171" />
  <rect
     x="272.32919"
     y="783.60565"
     width="115.23"
     height="1"
     transform="rotate(-20.82)"
     opacity="0.1"
     id="rect173" />
  <rect
     x="249.49236"
     y="799.19843"
     width="133.56"
     height="1"
     transform="rotate(-22.26)"
     opacity="0.1"
     id="rect175" />
  <rect
     x="218.64156"
     y="815.83246"
     width="153.74001"
     height="1"
     transform="rotate(-24.31)"
     opacity="0.1"
     id="rect177" />
  <rect
     x="227.96909"
     y="817.27252"
     width="168.14999"
     height="1"
     transform="rotate(-23.61)"
     opacity="0.1"
     id="rect179" />
  <rect
     x="230.95538"
     y="823.47791"
     width="201.22"
     height="1"
     transform="rotate(-23.36)"
     opacity="0.1"
     id="rect181" />
  <polygon
     points="399.96,437.73 260.96,407.73 436.96,370.73 544.18,391.23 "
     fill="#ffffff"
     opacity="0.3"
     id="polygon183"
     transform="translate(0,104.83126)" />
  <path
     d="m 750.36,514.89126 c 0,0 9.1,3.67 3.76,9.34 -5.34,5.67 -209.94,64.89 -209.94,64.89 z"
     fill="#e3eef9"
     id="path185" />
  <path
     d="m 310.42,211.33126 c 0,0 -38,-2.29 -33.56,24.37 0,0 -0.89,4.71 3.38,6.85 0,0 0.07,-2 3.9,-1.31 a 17.05,17.05 0 0 0 4.14,0.2 8.62,8.62 0 0 0 5.05,-2.08 v 0 c 0,0 10.69,-4.42 14.85,-21.9 0,0 3.08,-3.81 3,-4.79 l -6.44,2.74 c 0,0 2.19,4.63 0.47,8.48 0,0 -0.21,-8.31 -1.45,-8.12 -0.25,0 -3.33,1.61 -3.33,1.61 0,0 3.77,8.07 0.92,13.93 0,0 1.08,-9.94 -2.1,-13.35 l -4.52,2.64 c 0,0 4.41,8.33 1.42,15.13 0,0 0.77,-10.43 -2.37,-14.49 l -4.1,3.2 c 0,0 4.15,8.21 1.62,13.85 0,0 -0.33,-12.14 -2.5,-13.06 0,0 -3.59,3.16 -4.13,4.46 0,0 2.84,6 1.07,9.11 0,0 -1.07,-8.09 -2,-8.13 0,0 -3.57,5.36 -3.94,9 a 19.46,19.46 0 0 1 3.07,-9.54 10.71,10.71 0 0 0 -5.46,2.83 c 0,0 0.55,-3.79 6.35,-4.12 0,0 2.95,-4.07 3.74,-4.31 0,0 -5.77,-0.49 -9.26,1.06 0,0 3.08,-3.57 10.31,-2 l 4,-3.3 c 0,0 -7.58,-1 -10.8,0.11 0,0 3.71,-3.16 11.89,-0.86 l 4.41,-2.63 c 0,0 -6.47,-1.39 -10.32,-0.89 0,0 4.06,-2.19 11.61,0.18 l 3.14,-1.41 c 0,0 -4.73,-0.93 -6.12,-1.08 -1.39,-0.15 -1.46,-0.53 -1.46,-0.53 a 16.51,16.51 0 0 1 8.9,1 c 0,0 6.75,-2.43 6.62,-2.85 z"
     fill="#e3eef9"
     id="path187" />
  <path
     d="m 845.02,320.91126 c 0,0 -38,-2.29 -33.56,24.37 0,0 -0.89,4.71 3.38,6.85 0,0 0.07,-2 3.9,-1.31 a 17.62,17.62 0 0 0 4.14,0.2 8.59,8.59 0 0 0 5,-2.08 v 0 c 0,0 10.7,-4.42 14.85,-21.9 0,0 3.08,-3.81 3,-4.79 l -6.42,2.74 c 0,0 2.19,4.63 0.47,8.48 0,0 -0.21,-8.31 -1.44,-8.12 -0.25,0 -3.34,1.61 -3.34,1.61 0,0 3.77,8.07 0.93,13.93 0,0 1.08,-9.94 -2.11,-13.35 l -4.52,2.64 c 0,0 4.41,8.33 1.42,15.13 0,0 0.77,-10.43 -2.37,-14.49 l -4.09,3.2 c 0,0 4.14,8.21 1.61,13.85 0,0 -0.33,-12.14 -2.5,-13.06 0,0 -3.58,3.16 -4.13,4.46 0,0 2.84,6 1.08,9.11 0,0 -1.08,-8.09 -2,-8.13 0,0 -3.57,5.36 -3.94,9 a 19.4,19.4 0 0 1 3.08,-9.54 10.76,10.76 0 0 0 -5.47,2.83 c 0,0 0.56,-3.79 6.35,-4.12 0,0 2.95,-4.07 3.74,-4.32 0,0 -5.76,-0.48 -9.26,1.07 0,0 3.08,-3.57 10.31,-2 l 4,-3.3 c 0,0 -7.59,-1 -10.8,0.11 0,0 3.7,-3.16 11.89,-0.86 l 4.4,-2.63 c 0,0 -6.47,-1.39 -10.32,-0.89 0,0 4.06,-2.19 11.61,0.18 l 3.15,-1.41 c 0,0 -4.74,-0.93 -6.13,-1.08 -1.39,-0.15 -1.46,-0.53 -1.46,-0.53 a 16.39,16.39 0 0 1 8.9,1 c 0,0 6.77,-2.43 6.65,-2.85 z"
     fill="#e3eef9"
     opacity="0.1"
     id="path189" />
  <path
     d="m 374.42,376.03126 c 0,0 -16.56,-34.33 -37.64,-17.41 0,0 -4.55,1.52 -4.33,6.29 0,0 1.75,-0.91 3,2.77 a 17.72,17.72 0 0 0 1.84,3.7 8.63,8.63 0 0 0 4.29,3.4 v 0 c 0,0 9.07,7.18 26.36,2.28 0,0 4.83,0.83 5.62,0.25 l -5.52,-4.27 c 0,0 -3,4.17 -7.18,4.54 0,0 7.16,-4.23 6.39,-5.21 -0.16,-0.2 -3,-2.13 -3,-2.13 0,0 -5.21,7.23 -11.71,7.6 0,0 9.2,-3.9 10.62,-8.35 l -4.5,-2.66 c 0,0 -5.13,7.92 -12.52,8.62 0,0 9.48,-4.41 11.49,-9.13 l -4.78,-2 c 0,0 -5.15,7.62 -11.31,8.17 0,0 10.44,-6.21 10.18,-8.56 0,0 -4.51,-1.58 -5.91,-1.43 0,0 -3.82,5.39 -7.42,5.39 0,0 6.53,-4.89 6.13,-5.68 0,0 -6.42,-0.5 -9.8,1 a 19.47,19.47 0 0 1 9.83,-2 10.77,10.77 0 0 0 -5.14,-3.39 c 0,0 3.58,-1.36 6.69,3.53 0,0 5,0.59 5.59,1.16 0,0 -2.39,-5.26 -5.44,-7.55 0,0 4.62,0.93 6.73,8 l 4.85,1.92 c 0,0 -2.79,-7.12 -5.36,-9.37 0,0 4.56,1.69 6.55,10 l 4.44,2.56 c 0,0 -1.93,-6.33 -4.25,-9.44 0,0 3.89,2.48 5.5,10.22 l 2.77,2.06 c 0,0 -1.5,-4.59 -2,-5.87 -0.5,-1.28 -0.25,-1.54 -0.25,-1.54 a 16.41,16.41 0 0 1 3.48,8.25 c 0,0 5.35,4.58 5.71,4.28 z"
     fill="#e3eef9"
     opacity="0.1"
     id="path191" />
  <path
     d="m 758.2,272.41126 c 0,0 -16.55,-34.33 -37.64,-17.41 0,0 -4.54,1.52 -4.33,6.29 0,0 1.76,-0.9 3,2.77 a 17.34,17.34 0 0 0 1.85,3.71 8.58,8.58 0 0 0 4.28,3.39 v 0 c 0,0 9.08,7.18 26.36,2.29 0,0 4.83,0.82 5.63,0.24 l -5.49,-4.28 c 0,0 -3,4.18 -7.17,4.55 0,0 7.15,-4.24 6.38,-5.22 -0.16,-0.2 -3,-2.13 -3,-2.13 0,0 -5.2,7.23 -11.71,7.6 0,0 9.21,-3.9 10.63,-8.34 l -4.57,-2.64 c 0,0 -5.12,7.91 -12.52,8.62 0,0 9.48,-4.42 11.5,-9.14 l -4.79,-2 c 0,0 -5.15,7.63 -11.3,8.17 0,0 10.43,-6.21 10.17,-8.55 0,0 -4.5,-1.59 -5.9,-1.43 0,0 -3.82,5.38 -7.43,5.38 0,0 6.54,-4.89 6.14,-5.68 0,0 -6.42,-0.5 -9.81,1 a 19.46,19.46 0 0 1 9.83,-2 10.71,10.71 0 0 0 -5.13,-3.39 c 0,0 3.58,-1.36 6.69,3.53 0,0 5,0.6 5.59,1.17 0,0 -2.39,-5.27 -5.45,-7.56 0,0 4.62,0.94 6.73,8.05 l 4.86,1.92 c 0,0 -2.79,-7.13 -5.36,-9.38 0,0 4.56,1.69 6.54,10 l 4.45,2.56 c 0,0 -1.94,-6.32 -4.26,-9.44 0,0 3.9,2.48 5.5,10.22 l 2.77,2.06 c 0,0 -1.49,-4.59 -2,-5.87 -0.51,-1.28 -0.25,-1.53 -0.25,-1.53 a 16.45,16.45 0 0 1 3.47,8.25 c 0,0 5.43,4.54 5.74,4.22 z"
     fill="#e3eef9"
     opacity="0.1"
     id="path193" />
  <path
     d="m 811.09,442.22126 c 0,0 -16.55,-34.34 -37.67,-17.42 0,0 -4.54,1.52 -4.33,6.29 0,0 1.76,-0.9 3,2.77 a 17.33,17.33 0 0 0 1.84,3.71 8.58,8.58 0 0 0 4.28,3.39 v 0 c 0,0 9.08,7.19 26.37,2.29 0,0 4.82,0.83 5.62,0.24 l -5.52,-4.27 c 0,0 -3,4.18 -7.18,4.55 0,0 7.15,-4.24 6.38,-5.22 -0.16,-0.2 -3,-2.13 -3,-2.13 0,0 -5.2,7.23 -11.71,7.61 0,0 9.21,-3.91 10.63,-8.35 l -4.51,-2.66 c 0,0 -5.12,7.92 -12.52,8.62 0,0 9.48,-4.42 11.5,-9.14 l -4.79,-2 c 0,0 -5.15,7.62 -11.3,8.17 0,0 10.44,-6.21 10.18,-8.56 0,0 -4.51,-1.59 -5.91,-1.43 0,0 -3.82,5.38 -7.43,5.38 0,0 6.54,-4.89 6.14,-5.68 0,0 -6.42,-0.5 -9.81,1 a 19.52,19.52 0 0 1 9.84,-2 10.69,10.69 0 0 0 -5.14,-3.39 c 0,0 3.58,-1.37 6.69,3.53 0,0 5,0.59 5.59,1.16 0,0 -2.39,-5.26 -5.44,-7.56 0,0 4.62,0.94 6.73,8.05 l 4.85,1.92 c 0,0 -2.79,-7.13 -5.36,-9.37 0,0 4.56,1.68 6.54,10 l 4.45,2.55 c 0,0 -1.94,-6.32 -4.26,-9.44 0,0 3.9,2.48 5.51,10.23 l 2.77,2 c 0,0 -1.5,-4.59 -2,-5.87 -0.5,-1.28 -0.25,-1.53 -0.25,-1.53 a 16.35,16.35 0 0 1 3.47,8.25 c 0,0 5.44,4.61 5.75,4.31 z"
     fill="#e3eef9"
     opacity="0.1"
     id="path195" />
  <ellipse
     cx="201.95"
     cy="886.42126"
     rx="22.99"
     ry="2.5699999"
     fill="#e3eef9"
     opacity="0.1"
     id="ellipse197" />
  <ellipse
     cx="51.240002"
     cy="842.74121"
     rx="22.99"
     ry="2.5699999"
     fill="#e3eef9"
     opacity="0.1"
     id="ellipse199" />
  <ellipse
     cx="316.82999"
     cy="915.43121"
     rx="22.99"
     ry="2.5699999"
     fill="#e3eef9"
     opacity="0.1"
     id="ellipse201" />
  <ellipse
     cx="905.53003"
     cy="852.24121"
     rx="22.99"
     ry="2.5699999"
     fill="#e3eef9"
     opacity="0.1"
     id="ellipse203" />
  <ellipse
     cx="714.21997"
     cy="839.77124"
     rx="22.99"
     ry="2.5699999"
     fill="#e3eef9"
     opacity="0.1"
     id="ellipse205" />
  <ellipse
     cx="590.46002"
     cy="898.49121"
     rx="27.190001"
     ry="4.6700001"
     fill="#e3eef9"
     opacity="0.1"
     id="ellipse207" />
  <path
     d="m 602.59,851.55126 c 0,0 -37.86,19.56 -18.3,42.6 0,0 1.84,5 7.16,4.65 0,0 -1.06,-1.94 3,-3.49 a 19.51,19.51 0 0 0 4.09,-2.17 9.61,9.61 0 0 0 3.66,-4.89 v 0 c 0,0 7.74,-10.36 1.74,-29.53 0,0 0.78,-5.42 0.1,-6.3 l -4.6,6.31 c 0,0 4.75,3.19 5.3,7.88 0,0 -5,-7.87 -6,-7 -0.22,0.18 -2.28,3.45 -2.28,3.45 0,0 8.24,5.59 8.85,12.85 0,0 -4.64,-10.17 -9.65,-11.62 l -2.87,5.12 c 0,0 9,5.48 10,13.72 0,0 -5.23,-10.45 -10.57,-12.56 l -2.11,5.41 c 0,0 8.68,5.52 9.48,12.38 0,0 -7.26,-11.47 -9.87,-11.11 0,0 -1.64,5.08 -1.42,6.65 0,0 6.13,4.1 6.24,8.13 0,0 -5.66,-7.15 -6.53,-6.68 0,0 -0.36,7.19 1.38,10.93 0,0 -3,-5.34 -2.51,-10.93 a 12,12 0 0 0 -3.63,5.84 c 0,0 -1.63,-3.95 3.74,-7.59 0,0 0.51,-5.59 1.13,-6.28 0,0 -5.81,2.84 -8.28,6.32 0,0 0.91,-5.19 8.79,-7.77 l 2,-5.48 c 0,0 -7.88,3.34 -10.31,6.28 0,0 1.75,-5.15 10.93,-7.62 l 2.72,-5 c 0,0 -7,2.36 -10.42,5 0,0 2.65,-4.43 11.26,-6.47 l 2.21,-3.15 c 0,0 -5.08,1.81 -6.5,2.46 -1.42,0.65 -1.7,0.33 -1.7,0.33 a 18.39,18.39 0 0 1 9.11,-4.14 c 0,0 5.01,-6.19 4.66,-6.53 z"
     fill="#e3eef9"
     id="path209" />
  <path
     d="m 714.96,482.12126 c -6.54,-17.77 -42.54,-19.44 -58.16,-14.91 -11.1,3.23 -34.5,6.87 -47,8.7 l -0.81,-0.77 c 1.62,-0.48 1.66,-1.66 1.46,-3.41 a 53.37,53.37 0 0 1 0.1,-6.92 c 7.66,2.38 14.48,-3.25 14.48,-3.25 v 0 c 9,-4 6.58,-21.12 8.3,-25.8 1.29,-3.5 2.68,-24.12 3.3,-34.4 h 0.13 l 0.07,-3.45 c 0.09,-1.49 0.13,-2.36 0.13,-2.36 0,0 0.88,-25.14 2.6,-30.23 1.6,-4.68 2.9,-28.26 3.1,-32 0,-0.32 0,-0.49 0,-0.49 l -0.13,-2.18 c 0.09,-1.59 0.13,-3.36 0.12,-5.22 0,-8.55 -0.89,-19.32 -1,-21.06 0,-0.25 0,-0.55 0,-0.91 0.07,-3.65 -0.39,-21.93 -15.94,-28.84 -5.73,-2.56 -12.62,-5.61 -19.29,-8.58 -1.72,-14.85 -5.65,-29.62 -5.31,-44.58 0,-2.25 0.2,-4.5 0.42,-6.74 0,0.65 -0.07,1.31 -0.08,2 0,1.45 0,2.91 0,4.36 0.59,-18.71 7.66,-37.52 7,-55.83 -0.06,1.79 -0.19,3.59 -0.36,5.39 a 58.13,58.13 0 0 0 -1.92,-18.39 c -0.6,-2.11 -1.41,-4.29 -3.14,-5.7 a 12.93,12.93 0 0 0 -5.48,-2.17 110.21,110.21 0 0 0 -14.39,-2.68 22.22,22.22 0 0 0 -3.24,-6.29 c -10.14,-13.92 -25.16,-27 -42.92,-30 -8.91,-1.5 -19.16,-0.25 -25.22,6.12 a 18.92,18.92 0 0 0 -1.78,1.8 c -3.26,3.89 -4.66,9 -8,12.88 -0.22,0.26 -0.47,0.5 -0.71,0.75 -6.54,5.85 -16.73,7.07 -24,12.32 a 28.81,28.81 0 0 0 -3.59,3.13 60.88,60.88 0 0 0 -7.84,9.53 c -3.27,4.6 -6.63,9.39 -7.67,14.88 -2.09,11 5.4,21.43 6.79,32.5 3.1,24.77 -24.31,46.75 -19.12,71.19 a 32.6,32.6 0 0 0 8.82,15.83 c -10.69,9.68 -19.79,19.07 -19.79,19.07 v 0.56 h -1.69 l 0.17,2 h -0.17 l 0.93,10.85 -0.93,15.8 c 0,0 0,0.17 0,0.49 v 0.08 0.43 c 0,0 0,0.17 0,0.49 h 0.06 c 0.31,5.79 1.54,26.61 3,31 1.72,5.09 2.59,30.23 2.59,30.23 0,0 1.9,35.53 3.64,40.23 1.74,4.7 -0.73,21.77 8.3,25.8 v 0 a 19,19 0 0 0 9.07,3.76 c -0.46,3.74 -0.17,6.45 1.32,7.3 a 4.36,4.36 0 0 0 2.1,0.6 22.29,22.29 0 0 0 -1.63,2.85 42.36,42.36 0 0 1 -10.48,-2.47 c -9.7,-4 -41.89,-13 -51.24,-6.67 -9.35,6.33 -31.85,12.07 -21.46,37.55 10.39,25.48 15.23,26.12 15.23,26.12 a 37,37 0 0 1 8.31,8.35 c 3.12,4.69 32.19,15.42 39.46,15.42 a 71.19,71.19 0 0 1 9.25,0.46 c 0,0 -7.89,6.92 -6.84,10.94 1.05,4.02 -2.4,36.2 -2.4,36.2 0,0 8,8.06 11.42,-2.51 l 0.12,0.16 c 0.64,0.87 4.1,4.8 10.61,-0.16 a 59.48,59.48 0 0 1 8.46,-5.36 l 31.52,-4.46 a 89.24,89.24 0 0 1 9.87,-0.07 c 5,0.41 9.91,-2.55 13,-4.84 6.53,2.48 13.87,5.19 17.36,6.18 7.08,2 39.62,10.73 47.23,8 a 10.57,10.57 0 0 0 4.1,-2.92 l 7.26,0.23 -3.4,0.68 c 0,0 6.62,0.11 15.62,0.23 l -0.38,0.22 11.29,-0.1 c 16.52,0.15 35.08,0.2 37.52,-0.35 3.82,-0.85 23.67,-0.25 29.52,0 h 1.63 c 0,0 21.81,-4.35 12.81,-26.48 -6.92,-17 -28.19,-21.94 -37.63,-23.3 2.66,-0.53 4.95,-0.94 6.47,-1.18 6.59,-1 19.39,-7 20.43,-9.05 1.04,-2.05 11.77,-8 14.54,-11.39 2.77,-3.39 10.68,-27.42 4.11,-45.19 z m -180.65,49.73 -1.07,0.35 -0.72,0.24 -1.38,1.36 c -1.1,-0.74 -2.28,-1.52 -3.51,-2.32 2.17,0.13 4.4,0.26 6.68,0.37 z m 95.31,28.18 z"
     fill="url(#3cf802be-0480-4c68-848a-073112220499)"
     id="path211"
     style="fill:url(#3cf802be-0480-4c68-848a-073112220499)" />
  <path
     d="m 598.07,426.41126 c 0,0 15.3,40 24,36 8.7,-4 6.34,-21 8,-25.66 1.66,-4.66 3.5,-40 3.5,-40 0,0 0.84,-25 2.5,-30.06 1.54,-4.65 2.79,-28.1 3,-31.79 0,-0.32 0,-0.49 0,-0.49 l -1.65,-29 -9.34,-2.33 -21.66,8 -3,17.13 -1.17,6.69 -0.5,2.85 z"
     fill="#be6f72"
     id="path213" />
  <path
     d="m 603.11,419.71126 c 0,0 14.6,11.95 19,13 4.4,1.05 7.1,10.37 7.1,10.37"
     opacity="0.1"
     id="path215" />
  <path
     d="m 478.42,428.16126 c 0,0 -15.3,40 -24,36 -8.7,-4 -6.34,-21 -8,-25.66 -1.66,-4.66 -3.5,-40 -3.5,-40 0,0 -0.84,-25 -2.5,-30.06 -1.54,-4.65 -2.79,-28.1 -3,-31.79 0,-0.32 0,-0.49 0,-0.49 l 1.66,-29 9.34,-2.33 21.66,8 3,17.13 1.17,6.69 0.5,2.85 z"
     fill="#be6f72"
     id="path217" />
  <rect
     x="543.90002"
     y="214.10126"
     width="34.150002"
     height="53.23"
     fill="#3e373a"
     id="rect219" />
  <rect
     x="543.90002"
     y="214.10126"
     width="34.150002"
     height="53.23"
     opacity="0.1"
     id="rect221" />
  <path
     d="m 472.42,468.00126 c 0,0 -11.67,12.83 -7.34,15.16 4.33,2.33 32.34,46 32.34,46 0,0 92,11.33 109.35,-5.67 17.35,-17 17,-47.37 17,-47.37 0,0 -13.94,3 -15.46,1.37 -1.52,-1.63 -9.87,-9.49 -9.87,-9.49 0,0 -118.02,-7.16 -126.02,0 z"
     fill="#4b4b5b"
     id="path223" />
  <path
     d="m 472.42,468.00126 c 0,0 -11.67,12.83 -7.34,15.16 4.33,2.33 32.34,46 32.34,46 0,0 92,11.33 109.35,-5.67 17.35,-17 17,-47.37 17,-47.37 0,0 -13.94,3 -15.46,1.37 -1.52,-1.63 -9.87,-9.49 -9.87,-9.49 0,0 -118.02,-7.16 -126.02,0 z"
     opacity="0.02"
     id="path225" />
  <path
     d="m 638.04,305.83126 -30,24 -9.07,0.66 -3.33,0.24 -55.93,4.1 -58,-4.24 -8.63,-0.63 -11,-0.8 -23,-22 c 0,0 16.28,-17.44 30.54,-29.21 5.62,-4.65 10.93,-8.41 14.8,-9.89 l 0.66,-0.23 a 16.46,16.46 0 0 0 6.34,-4.42 c 11.26,-11.61 21.67,-40.26 21.67,-40.26 0,0 49.67,-25.66 43.67,8 -6,33.66 22.33,25.34 22.33,25.34 l 9.34,4.26 3.69,1.69 9.41,4.31 21.23,9.74 c 16.66,7.67 15.28,29.34 15.28,29.34 z"
     fill="#be6f72"
     id="path227" />
  <circle
     cx="537.38"
     cy="205.89125"
     r="44.669998"
     opacity="0.1"
     id="circle229" />
  <path
     d="M 638.11,337.65126 H 437.42 c 0,-0.32 0,-0.49 0,-0.49 l 1.66,-29 c 0,0 16.28,-17.44 30.54,-29.21 l 126,-5 5.86,-6.18 21.23,9.74 c 16.67,7.66 15.33,29.33 15.33,29.33 0,0 2.28,25.11 0.07,30.81 z"
     opacity="0.1"
     id="path231" />
  <path
     d="M 638.11,336.65126 H 437.42 c 0,-0.32 0,-0.49 0,-0.49 l 1.66,-29 c 0,0 16.28,-17.44 30.54,-29.21 l 126,-5 5.86,-6.18 21.23,9.74 c 16.67,7.66 15.33,29.33 15.33,29.33 0,0 2.28,25.11 0.07,30.81 z"
     fill="#e7c7ca"
     id="path233" />
  <path
     d="m 505.21,255.33126 c 0,0 31.66,40.34 73.83,-0.83 42.17,-41.17 4.67,91.83 4.67,91.83 l -91,10.8 z"
     opacity="0.1"
     id="path235" />
  <path
     d="m 505.21,257.33126 c 0,0 31.66,40.34 73.83,-0.83 42.17,-41.17 4.67,91.83 4.67,91.83 l -91,10.8 z"
     fill="#e7c7ca"
     id="path237" />
  <path
     d="m 592.07,264.41126 3.35,51.09 3.59,17 2.74,13 c 0,0 7,100 5,105 -2,5 1,9 1.42,11.66 0.42,2.66 -0.42,9.34 -0.09,12.34 0.33,3 0,4.33 -7.66,3.26 -7.66,-1.07 -18.34,-2.93 -18.34,-2.93 0,0 -27,2 -36.33,-1.33 -9.33,-3.33 -27,-3.34 -27,-3.34 0,0 -26.67,0.67 -35.33,-0.33 -8.66,-1 -13.34,10.67 -19,7.33 -5.66,-3.34 6.66,-35.66 10.66,-45 4,-9.34 -5.33,-33 -5.33,-33 l 12,-66.57 2.67,-15.09 v -47.44 l 0.66,-0.23 a 16.46,16.46 0 0 0 6.34,-4.42 l 3,47.74 94,3.34 v -53.73"
     opacity="0.1"
     id="path239" />
  <path
     d="m 592.07,262.41126 3.35,51.09 3.59,17 2.74,13 c 0,0 7,100 5,105 -2,5 1,9 1.42,11.66 0.42,2.66 -0.42,9.34 -0.09,12.34 0.33,3 0,4.33 -7.66,3.26 -7.66,-1.07 -18.34,-2.93 -18.34,-2.93 0,0 -27,2 -36.33,-1.33 -9.33,-3.33 -27,-3.34 -27,-3.34 0,0 -26.67,0.67 -35.33,-0.33 -8.66,-1 -13.34,10.67 -19,7.33 -5.66,-3.34 6.66,-35.66 10.66,-45 4,-9.34 -5.33,-33 -5.33,-33 l 12,-66.57 2.67,-15.09 v -47.44 l 0.66,-0.23 a 16.46,16.46 0 0 0 6.34,-4.42 l 3,47.74 94,3.34 v -53.73"
     fill="#e7c7ca"
     id="path241" />
  <path
     d="m 602.88,155.79126 c -0.57,-2.09 -1.36,-4.26 -3,-5.66 a 12.28,12.28 0 0 0 -5.28,-2.16 104.32,104.32 0 0 0 -13.88,-2.66 22.22,22.22 0 0 0 -3,-6.23 c -9.8,-13.84 -24.3,-26.89 -41.36,-29.84 -8.93,-1.55 -19.28,-0.16 -25,6.88 -3.14,3.87 -4.49,9 -7.66,12.8 -6.11,7.38 -17.14,8.29 -24.84,14 -4.11,3 -7.09,7.35 -10,11.57 -3.15,4.57 -6.39,9.33 -7.39,14.79 -2,10.91 5.21,21.31 6.54,32.32 3,24.63 -23.4,46.48 -18.41,70.78 2.91,14.17 16,24.15 29.54,29.21 4.77,1.79 10.22,3.57 12.45,8.15 1,2 1.17,4.31 2.11,6.33 3.16,6.74 13.55,7 19.13,2.09 5.58,-4.91 7.34,-12.85 8,-20.26 2.68,-32.36 -10.28,-64.33 -8.77,-96.77 0.45,-9.81 3.21,-20.94 12,-25.38 11.83,-6 26.06,4 39.08,2.09 a 77.53,77.53 0 0 1 3.74,47.31 c -2.07,8.63 -5.65,17 -5.91,25.9 -0.39,13.55 6.92,25.93 13.24,37.91 a 20.17,20.17 0 0 1 2.67,7.31 17.62,17.62 0 0 1 -1.43,7.65 c -3.57,9.61 -9.73,18.53 -10.43,28.76 a 4.65,4.65 0 0 0 0.75,3.42 4.3,4.3 0 0 0 2.58,1.16 c 10.8,1.85 20.14,-7.72 25.41,-17.33 a 81.24,81.24 0 0 0 10.02,-34.52 c 1.09,-20.36 -6.21,-40.39 -5.76,-60.77 0.52,-23.17 10.99,-46.5 4.86,-68.85 z"
     opacity="0.1"
     id="path243" />
  <path
     d="m 603.88,154.79126 c -0.57,-2.09 -1.36,-4.26 -3,-5.66 a 12.28,12.28 0 0 0 -5.28,-2.16 104.32,104.32 0 0 0 -13.88,-2.66 22.22,22.22 0 0 0 -3,-6.23 c -9.8,-13.84 -24.3,-26.89 -41.36,-29.84 -8.93,-1.55 -19.28,-0.16 -25,6.88 -3.14,3.87 -4.49,9 -7.66,12.8 -6.11,7.38 -17.14,8.29 -24.84,14 -4.11,3 -7.09,7.35 -10,11.57 -3.15,4.57 -6.39,9.33 -7.39,14.79 -2,10.91 5.21,21.31 6.54,32.32 3,24.63 -23.4,46.48 -18.41,70.78 2.91,14.17 16,24.15 29.54,29.21 4.77,1.79 10.22,3.57 12.45,8.15 1,2 1.17,4.31 2.11,6.33 3.16,6.74 13.55,7 19.13,2.09 5.58,-4.91 7.34,-12.85 8,-20.26 2.68,-32.36 -10.28,-64.33 -8.77,-96.77 0.45,-9.81 3.21,-20.94 12,-25.38 11.83,-6 26.06,4 39.08,2.09 a 77.53,77.53 0 0 1 3.74,47.31 c -2.07,8.63 -5.65,17 -5.91,25.9 -0.39,13.55 6.92,25.93 13.24,37.91 a 20.17,20.17 0 0 1 2.67,7.31 17.62,17.62 0 0 1 -1.43,7.65 c -3.57,9.61 -9.73,18.53 -10.43,28.76 a 4.65,4.65 0 0 0 0.75,3.42 4.3,4.3 0 0 0 2.58,1.16 c 10.8,1.85 20.14,-7.72 25.41,-17.33 a 81.24,81.24 0 0 0 10.02,-34.52 c 1.09,-20.36 -6.21,-40.39 -5.76,-60.77 0.52,-23.17 10.99,-46.5 4.86,-68.85 z"
     fill="#3e373a"
     id="path245" />
  <polygon
     points="585.38,467.47 581.79,492.73 621.46,494 615.77,464.58 "
     fill="#c3c7d9"
     id="polygon247"
     transform="translate(0,104.83126)" />
  <path
     d="m 704.71,527.83126 c -2.67,3.33 -13,9.33 -14,11.33 -1,2 -13.33,8 -19.67,9 -6.34,1 -26.33,5.34 -30,7.67 -2.63,1.68 -23.74,7 -37.61,9.95 a 106.75,106.75 0 0 1 -11.39,2.05 c -6,0.33 -71.66,-22 -71.66,-22 l 12.66,-13 0.7,-0.24 c 3.58,-1.21 20.12,-6.8 29.3,-9.46 10.34,-3 22.34,-15.33 22.34,-15.33 0,0 17.66,-6 20,-6.67 2.34,-0.67 -6,-23.33 -6,-23.33 0,0 38.33,-5.32 53.33,-9.83 15,-4.51 49.67,-2.84 56,14.83 6.33,17.67 -1.29,41.7 -4,45.03 z"
     fill="#4b4b5b"
     id="path249" />
  <path
     d="m 530.04,584.16126 c 0,0 -7.66,8 -15.33,7.34 -7.67,-0.66 -34.49,2 -34.49,2 a 53.77,53.77 0 0 0 -13.51,7.83 c -6.27,4.94 -9.6,1 -10.22,0.16 l -0.11,-0.16 c -3.34,10.51 -11,2.5 -11,2.5 0,0 3.33,-32 2.31,-36 -1.02,-4 6.59,-10.87 6.59,-10.87 l 9,-2.29 22.8,-5.84 32.67,11.33 z"
     fill="#e7c7ca"
     id="path251" />
  <path
     d="m 463.24,554.67126 -6.75,46.82 -0.11,-0.16 c -3.34,10.51 -11,2.5 -11,2.5 0,0 3.33,-32 2.31,-36 -1.02,-4 6.59,-10.87 6.59,-10.87 z"
     opacity="0.1"
     id="path253" />
  <path
     d="m 510.42,421.49126 c 0,0 17.66,6 33,0"
     opacity="0.1"
     id="path255" />
  <path
     d="m 570.71,432.83126 c 0,0 7.33,3.66 13,0"
     opacity="0.1"
     id="path257" />
  <path
     d="m 570.71,441.51126 c 0,0 12.33,1.65 14.67,-1.68"
     opacity="0.1"
     id="path259" />
  <path
     d="m 566.71,460.16126 c 0,0 23.16,-3 28.91,-7"
     opacity="0.1"
     id="path261" />
  <path
     d="m 496.04,453.16126 c 0,0 13,7.33 22.67,7"
     opacity="0.1"
     id="path263" />
  <path
     d="m 603.42,565.78126 a 106.75,106.75 0 0 1 -11.39,2.05 c -6,0.33 -71.66,-22 -71.66,-22 l 12.66,-13 0.7,-0.24 c 2,1.41 3.64,2.62 4.81,3.54 5.51,4.34 10.83,-1.33 12.83,-1.33 2,0 19.33,14.33 19.33,14.33 0,0 16,3.67 18.67,7 2.67,3.33 12,2.67 13.66,5 0.5,0.72 0.56,2.49 0.39,4.65 z"
     opacity="0.1"
     id="path265" />
  <path
     d="m 480.22,479.16126 c 0,0 -16.18,0.93 -25.51,-3 -9.33,-3.93 -40.33,-13 -49.33,-6.63 -9,6.37 -30.67,12 -20.67,37.34 10,25.34 14.67,26 14.67,26 a 36.1,36.1 0 0 1 8,8.3 c 3,4.67 31,15.33 38,15.33 7,0 19.33,0 36.66,12 17.33,12 33,13.34 33,13.34 0,0 22,9 28.85,11 6.85,2 38.15,10.66 45.49,8 7.34,-2.66 12,-19.34 12,-19.34 0,0 3.33,-15 1.66,-17.33 -1.67,-2.33 -11,-1.67 -13.66,-5 -2.66,-3.33 -18.67,-7 -18.67,-7 0,0 -17.29,-14.34 -19.29,-14.34 -2,0 -7.32,5.66 -12.83,1.33 a 292.69,292.69 0 0 0 -34.51,-22 c -12.66,-6.67 -23.86,-38 -23.86,-38 z"
     fill="#4b4b5b"
     id="path267" />
  <path
     d="m 447.69,488.83126 a 19.1,19.1 0 0 1 16.39,4.33 c 8,6.67 34.92,20.06 34.92,20.06"
     opacity="0.1"
     id="path269" />
  <path
     d="m 647.71,488.41126 c 0,0 -35.67,5.4 -42.33,12.73"
     opacity="0.1"
     id="path271" />
  <path
     d="m 688.71,598.83126 h -1.57 c -5.64,-0.2 -24.75,-0.8 -28.43,0 -4.33,1 -61.67,0 -61.67,0 l 11.21,-2.33 c 0,0 -4.16,-14.58 -1.52,-15.79 0,0 -15,-9.88 -3.69,-16.55 11.31,-6.67 23.5,-3.86 23.5,-3.86 l 28.39,-9.62 5.45,-1.85 c 0,0 32,1.67 40.66,23.67 8.66,22 -12.33,26.33 -12.33,26.33 z"
     fill="#e7c7ca"
     id="path273" />
  <path
     d="m 688.71,598.83126 h -1.57 c 9.31,-7.68 30.37,-31.06 -32.21,-48.1 l 5.45,-1.85 c 0,0 32,1.67 40.66,23.67 8.66,22 -12.33,26.28 -12.33,26.28 z"
     opacity="0.1"
     id="path275" />
  <circle
     cx="629.88"
     cy="571.16125"
     r="1.75"
     fill="#4b4b5b"
     id="circle277" />
  <circle
     cx="619.71002"
     cy="574.05127"
     r="1.75"
     fill="#4b4b5b"
     id="circle279" />
  <g
     opacity="0.1"
     id="g293"
     transform="translate(0,104.83126)">
    <path
       d="M 658.74,142.83 A 77.59,77.59 0 0 0 653,110.69 c -13,1.94 -27.24,-8.09 -39.08,-2.09 -8.76,4.44 -11.51,15.57 -12,25.38 -0.12,2.59 -0.14,5.18 -0.09,7.77 0,-0.92 0,-1.85 0.09,-2.77 0.46,-9.81 3.21,-20.94 12,-25.38 11.84,-6 26.06,4 39.08,2.09 a 77.38,77.38 0 0 1 5.74,27.14 z"
       transform="translate(-88.58,-43.42)"
       id="path281" />
    <path
       d="m 558,141 a 33.32,33.32 0 0 0 -0.13,-6.54 c -1.06,-8.8 -5.87,-17.21 -6.74,-25.79 -1.12,10.35 5.47,20.29 6.74,30.79 C 558,140 558,140.48 558,141 Z"
       transform="translate(-88.58,-43.42)"
       id="path283" />
    <path
       d="m 610.69,230.74 c -0.62,7.42 -2.37,15.35 -8,20.27 -5.63,4.92 -16,4.65 -19.13,-2.09 -1,-2 -1.15,-4.33 -2.12,-6.33 -2.22,-4.58 -7.68,-6.36 -12.45,-8.15 -13.55,-5.07 -26.62,-15 -29.53,-29.21 a 30.68,30.68 0 0 1 -0.53,-3.9 31.52,31.52 0 0 0 0.53,8.9 c 2.91,14.17 16,24.14 29.53,29.21 4.77,1.79 10.23,3.57 12.45,8.15 1,2 1.17,4.31 2.12,6.33 3.15,6.74 13.54,7 19.13,2.09 5.59,-4.91 7.33,-12.85 8,-20.27 A 114.29,114.29 0 0 0 611,224 c 0,2.27 -0.13,4.51 -0.31,6.74 z"
       transform="translate(-88.58,-43.42)"
       id="path285" />
    <path
       d="m 687.93,157.49 c 0,1.45 0,2.89 0,4.33 0.56,-18.6 7.38,-37.3 6.71,-55.51 -0.52,16.84 -6.33,34.06 -6.71,51.18 z"
       transform="translate(-88.58,-43.42)"
       id="path287" />
    <path
       d="m 666.47,232.73 a 12.89,12.89 0 0 0 0.23,-3.61 20,20 0 0 0 -2.67,-7.31 c -5.78,-11 -12.37,-22.26 -13.15,-34.47 0,0.52 -0.07,1 -0.08,1.56 -0.4,13.54 6.91,25.93 13.23,37.91 a 24,24 0 0 1 2.44,5.92 z"
       transform="translate(-88.58,-43.42)"
       id="path289" />
    <path
       d="m 693.68,218.26 a 81.37,81.37 0 0 1 -10.09,34.52 c -5.28,9.61 -14.61,19.18 -25.42,17.33 a 4.25,4.25 0 0 1 -2.58,-1.17 2.5,2.5 0 0 1 -0.47,-0.78 c -0.12,0.78 -0.22,1.57 -0.28,2.37 a 4.61,4.61 0 0 0 0.75,3.41 4.25,4.25 0 0 0 2.58,1.17 c 10.81,1.85 20.14,-7.72 25.42,-17.33 a 81.37,81.37 0 0 0 10.09,-34.52 c 0.12,-2.34 0.13,-4.67 0.06,-7 -0.02,0.67 -0.02,1.33 -0.06,2 z"
       transform="translate(-88.58,-43.42)"
       id="path291" />
  </g>
  <path
     d="m 606.73,580.71126 c 0,0 25.31,10.62 42,-12.88"
     fill="none"
     stroke="#000000"
     stroke-miterlimit="10"
     opacity="0.1"
     id="path295" />
  <path
     d="m 611.71,599.27126 c 0,0 20.67,-13.44 47,-0.44"
     fill="none"
     stroke="#000000"
     stroke-miterlimit="10"
     opacity="0.1"
     id="path297" />
  <path
     d="m 473.35,596.22126 c 0,0 8.68,-19.58 31.86,-4.65"
     fill="none"
     stroke="#000000"
     stroke-miterlimit="10"
     opacity="0.1"
     id="path299" />
  <path
     d="m 445.21,306.66126 17.7,-16 c 0,0 68.63,-4.5 71.47,18.83 0,0 24.33,-27.66 75.5,-21.5 l 21.65,17.24 -59.84,26.26 -58.15,20.17 -42.83,-19.17 z"
     opacity="0.1"
     id="path301" />
  <path
     d="m 445.21,307.66126 17.7,-16 c 0,0 68.63,-4.5 71.47,18.83 0,0 24.33,-27.66 75.5,-21.5 l 21.65,17.24 -59.84,26.26 -58.15,20.17 -42.83,-19.17 z"
     fill="#d5d6db"
     id="path303" />
  <polygon
     points="445.21,298.5 528.21,302.67 524.61,209.4 524.54,207.83 437.38,204.83 "
     opacity="0.1"
     id="polygon305"
     transform="translate(0,104.83126)" />
  <polygon
     points="445.21,296.5 528.21,300.67 524.61,207.4 524.54,205.83 437.38,202.83 "
     fill="#e3eef9"
     id="polygon307"
     transform="translate(0,104.83126)" />
  <polygon
     points="633.38,297.67 635.33,202.83 549.71,215.67 549.71,309.76 "
     opacity="0.1"
     id="polygon309"
     transform="translate(0,104.83126)" />
  <polygon
     points="633.38,295.67 635.33,200.83 549.71,213.67 549.71,307.76 "
     fill="#e3eef9"
     id="polygon311"
     transform="translate(0,104.83126)" />
  <polygon
     points="615.11,239.75 615.14,223.79 568.89,228.93 569.9,244.69 "
     fill="#ffffff"
     opacity="0.3"
     id="polygon313"
     transform="translate(0,104.83126)" />
  <path
     d="m 449.71,451.49126 4.71,12.67 c 0,0 7,6 14.66,3 7.66,-3 14.34,-4.49 17.67,-7.41 3.33,-2.92 8,-17.59 8,-17.59 0,0 4.67,-16 9.33,-20 4.66,-4 17,-59.11 0,-53.72 -17,5.39 -30,55.39 -30,55.39 0,0 -3,3.66 -7.33,4 -4.33,0.34 -13,-0.67 -14.67,3 -1.67,3.67 -7.37,13.33 -2.37,20.66 z"
     fill="#be6f72"
     id="path315" />
  <path
     d="m 549.71,320.49126 a 28.8,28.8 0 0 1 -25.11,-6.26 l 3.61,93.26 c 0,0 8.5,9.2 21.5,7.1 z"
     opacity="0.1"
     id="path317" />
  <path
     d="m 549.71,318.49126 a 28.8,28.8 0 0 1 -25.11,-6.26 l 3.61,93.26 c 0,0 8.5,9.2 21.5,7.1 z"
     fill="#e3eef9"
     id="path319" />
  <path
     d="m 549.71,318.49126 a 28.8,28.8 0 0 1 -25.11,-6.26 l 3.61,93.26 c 0,0 8.5,9.2 21.5,7.1 z"
     opacity="0.1"
     id="path321" />
  <path
     d="m 551.71,307.98126 c 0,0 34.83,-10.65 43.91,-9.15"
     opacity="0.1"
     id="path323" />
  <path
     d="m 512.75,303.33126 c 0,0 -33.76,-8 -39.4,-5.73"
     opacity="0.1"
     id="path325" />
  <path
     d="m 573.67,309.31126 c 0,0 23.29,-8.54 31.71,-4.48"
     opacity="0.1"
     id="path327" />
  <path
     d="m 561.94,523.54126 a 76.56,76.56 0 0 1 11.48,-7.13 c 6,-2.89 17,-10.39 17,-10.39"
     opacity="0.1"
     id="path329" />
  <path
     d="m 473.35,421.49126 c 0,0 -14.61,11.95 -19,13 -4.39,1.05 -7.1,10.37 -7.1,10.37"
     opacity="0.1"
     id="path331" />
  <path
     d="m 626.74,449.71126 -4.66,12.7 c 0,0 -7,6 -14.67,3 -7.67,-3 -14.33,-4.49 -17.67,-7.41 -3.34,-2.92 -8,-17.59 -8,-17.59 0,0 -4.66,-16 -9.33,-20 -4.67,-4 -17,-59.11 0,-53.72 17,5.39 30,55.39 30,55.39 0,0 3,3.66 7.33,4 4.33,0.34 13,-0.67 14.67,3 1.67,3.67 7.33,13.33 2.33,20.63 z"
     fill="#be6f72"
     id="path333" />
  <path
     d="m 618.57,426.35126 c 0,0 9.55,6.14 9.51,13.48"
     opacity="0.1"
     id="path335" />
  <circle
     cx="537.53998"
     cy="203.70126"
     r="44.669998"
     fill="#be6f72"
     id="circle337" />
  <path
     d="m 509.49,191.71126 c 5.42,-0.85 10.17,-4 15.35,-5.81 11.59,-4.07 24.41,-1.28 36.14,2.39 4.5,1.41 9.07,3 13.79,3 4.72,0 9.73,-1.93 12.14,-6 2.22,-3.74 1.79,-8.6 -0.08,-12.53 -1.87,-3.93 -5,-7.09 -8.16,-10.07 -10.4,-9.82 -23.3,-19 -37.57,-18 -5.74,0.41 -11.23,2.46 -16.51,4.73 a 182,182 0 0 0 -19.38,9.76 c -4.81,2.79 -13.72,6.52 -16.49,11.62 -6.3,11.49 10.97,22.45 20.77,20.91 z"
     fill="#3e373a"
     id="path339" />
  <path
     d="m 586.91,181.09126 c -2.41,4.07 -7.42,6 -12.14,6 -4.72,0 -9.29,-1.53 -13.8,-2.94 -11.73,-3.67 -24.54,-6.47 -36.14,-2.39 -5.17,1.81 -9.93,5 -15.35,5.8 -7.9,1.24 -20.62,-5.64 -22,-14.39 -1.55,10.11 13.2,18.77 22,17.39 5.42,-0.85 10.18,-4 15.35,-5.8 11.6,-4.08 24.41,-1.28 36.14,2.39 4.51,1.41 9.07,3 13.8,2.94 4.73,-0.06 9.73,-1.92 12.14,-6 a 11.71,11.71 0 0 0 1.4,-7.31 10.78,10.78 0 0 1 -1.4,4.31 z"
     opacity="0.1"
     id="path341" />
  <path
     d="m 949.42,723.04126 c 0,0 5.93,7.75 -2.74,19.46 -8.67,11.71 -15.81,21.59 -12.93,28.89 0,0 13.08,-21.74 23.72,-22.05 10.64,-0.31 3.64,-13.23 -8.05,-26.3 z"
     fill="#e3eef9"
     id="path343" />
  <path
     d="m 949.42,723.04126 a 9.6,9.6 0 0 1 1.21,2.43 c 10.38,12.2 15.92,23.59 5.93,23.87 -9.3,0.27 -20.45,16.9 -23.12,21.09 a 9.78,9.78 0 0 0 0.31,1 c 0,0 13.08,-21.74 23.72,-22.05 10.64,-0.31 3.64,-13.27 -8.05,-26.34 z"
     opacity="0.1"
     id="path345" />
  <path
     d="m 960.42,732.92126 c 0,2.73 -0.31,4.94 -0.68,4.94 -0.37,0 -0.69,-2.21 -0.69,-4.94 0,-2.73 0.38,-1.44 0.76,-1.44 0.38,0 0.61,-1.29 0.61,1.44 z"
     fill="#ffd037"
     id="path347" />
  <path
     d="m 964.21,736.18126 c -2.39,1.3 -4.48,2.09 -4.66,1.76 -0.18,-0.33 1.61,-1.66 4,-3 2.39,-1.34 1.45,-0.36 1.63,0 0.18,0.36 1.43,-0.07 -0.97,1.24 z"
     fill="#ffd037"
     id="path349" />
  <path
     d="m 918.08,723.04126 c 0,0 -5.93,7.75 2.74,19.46 8.67,11.71 15.81,21.59 12.92,28.89 0,0 -13.07,-21.74 -23.72,-22.05 -10.65,-0.31 -3.6,-13.23 8.06,-26.3 z"
     fill="#e3eef9"
     id="path351" />
  <path
     d="m 918.08,723.04126 a 9.6,9.6 0 0 0 -1.21,2.43 c -10.38,12.2 -15.92,23.59 -5.93,23.87 9.29,0.27 20.45,16.9 23.12,21.09 a 7.72,7.72 0 0 1 -0.32,1 c 0,0 -13.07,-21.74 -23.72,-22.05 -10.65,-0.31 -3.6,-13.27 8.06,-26.34 z"
     opacity="0.1"
     id="path353" />
  <path
     d="m 907.06,732.92126 c 0,2.73 0.3,4.94 0.68,4.94 0.38,0 0.69,-2.21 0.69,-4.94 0,-2.73 -0.39,-1.44 -0.76,-1.44 -0.37,0 -0.61,-1.29 -0.61,1.44 z"
     fill="#ffd037"
     id="path355" />
  <path
     d="m 903.28,736.18126 c 2.39,1.3 4.48,2.09 4.66,1.76 0.18,-0.33 -1.61,-1.66 -4,-3 -2.39,-1.34 -1.45,-0.36 -1.63,0 -0.18,0.36 -1.43,-0.07 0.97,1.24 z"
     fill="#ffd037"
     id="path357" />
  <ellipse
     cx="933.75"
     cy="821.20123"
     rx="62"
     ry="9.5100002"
     fill="#e3eef9"
     opacity="0.1"
     id="ellipse359" />
  <path
     d="m 965.66,760.94126 -0.3,2.42 -0.42,3.42 -0.17,1.43 -0.42,3.42 -0.18,1.43 -0.41,3.41 -4.75,38.9 c -0.42,3.47 -6.09,6.18 -12.94,6.18 h -24.65 c -6.85,0 -12.51,-2.71 -12.94,-6.18 l -4.75,-38.9 -0.42,-3.41 -0.17,-1.43 -0.42,-3.42 -0.18,-1.43 -0.41,-3.42 -0.3,-2.42 c -0.23,-2 2.83,-3.62 6.71,-3.62 h 50.42 c 3.87,0 6.94,1.65 6.7,3.62 z"
     fill="#65617d"
     id="path361" />
  <polygon
     points="902.13,658.53 965.36,658.53 964.95,661.95 902.55,661.95 "
     fill="#9d9cb5"
     id="polygon363"
     transform="translate(0,104.83126)" />
  <polygon
     points="902.72,663.38 964.77,663.38 964.36,666.8 903.14,666.8 "
     fill="#9d9cb5"
     id="polygon365"
     transform="translate(0,104.83126)" />
  <polygon
     points="903.32,668.23 964.18,668.23 963.76,671.65 903.73,671.65 "
     fill="#9d9cb5"
     id="polygon367"
     transform="translate(0,104.83126)" />
</svg>
