<?xml version="1.0" encoding="UTF-8" standalone="no"?>
<svg
   xmlns:dc="http://purl.org/dc/elements/1.1/"
   xmlns:cc="http://creativecommons.org/ns#"
   xmlns:rdf="http://www.w3.org/1999/02/22-rdf-syntax-ns#"
   xmlns:svg="http://www.w3.org/2000/svg"
   xmlns="http://www.w3.org/2000/svg"
   xmlns:xlink="http://www.w3.org/1999/xlink"
   xmlns:sodipodi="http://sodipodi.sourceforge.net/DTD/sodipodi-0.dtd"
   xmlns:inkscape="http://www.inkscape.org/namespaces/inkscape"
   id="b07e16be-2c10-4721-ba95-38a6ee556ecd"
   data-name="Layer 1"
   width="1132.39"
   height="1132.39"
   viewBox="0 0 1132.39 1132.39"
   version="1.1"
   sodipodi:docname="undraw_schedule_pnbk.svg"
   inkscape:version="1.0.2 (e86c870879, 2021-01-15)">
  <metadata
     id="metadata256">
    <rdf:RDF>
      <cc:Work
         rdf:about="">
        <dc:format>image/svg+xml</dc:format>
        <dc:type
           rdf:resource="http://purl.org/dc/dcmitype/StillImage" />
        <dc:title>schedule</dc:title>
      </cc:Work>
    </rdf:RDF>
  </metadata>
  <sodipodi:namedview
     pagecolor="#ffffff"
     bordercolor="#666666"
     borderopacity="1"
     objecttolerance="10"
     gridtolerance="10"
     guidetolerance="10"
     inkscape:pageopacity="0"
     inkscape:pageshadow="2"
     inkscape:window-width="1366"
     inkscape:window-height="704"
     id="namedview254"
     showgrid="false"
     inkscape:zoom="0.25167262"
     inkscape:cx="601.0669"
     inkscape:cy="4.8916983"
     inkscape:window-x="0"
     inkscape:window-y="312"
     inkscape:window-maximized="1"
     inkscape:current-layer="b07e16be-2c10-4721-ba95-38a6ee556ecd" />
  <defs
     id="defs21">
    <linearGradient
       id="f0ea422a-a980-4a9e-8fad-43c87f6ba738"
       x1="421.85999"
       y1="330.48001"
       x2="421.85999"
       y2="285.82001"
       gradientUnits="userSpaceOnUse">
      <stop
         offset="0"
         stop-color="gray"
         stop-opacity="0.25"
         id="stop2" />
      <stop
         offset="0.54"
         stop-color="gray"
         stop-opacity="0.12"
         id="stop4" />
      <stop
         offset="1"
         stop-color="gray"
         stop-opacity="0.1"
         id="stop6" />
    </linearGradient>
    <linearGradient
       id="ad2c5ae7-cdf4-4789-99a0-6bde37321e66"
       x1="516.90002"
       y1="320.79999"
       x2="516.90002"
       y2="276.14001"
       xlink:href="#f0ea422a-a980-4a9e-8fad-43c87f6ba738" />
    <linearGradient
       id="af61e5a9-3371-4284-9366-60d451e53b7c"
       x1="699.90002"
       y1="472.79999"
       x2="699.90002"
       y2="428.14001"
       xlink:href="#f0ea422a-a980-4a9e-8fad-43c87f6ba738" />
    <linearGradient
       id="afe800ea-76fc-42fa-87d3-444aeaebb97e"
       x1="293.63"
       y1="250.89"
       x2="293.63"
       y2="206.23"
       xlink:href="#f0ea422a-a980-4a9e-8fad-43c87f6ba738" />
    <linearGradient
       id="a0a14e29-1e29-4199-9658-2a5ebd9bc7a2"
       x1="385.29001"
       y1="314.89001"
       x2="385.29001"
       y2="270.23001"
       xlink:href="#f0ea422a-a980-4a9e-8fad-43c87f6ba738" />
    <linearGradient
       id="b9eaa648-e9e9-4a67-ba92-603c001fbd1d"
       x1="753.85999"
       y1="472.48001"
       x2="753.85999"
       y2="427.82001"
       xlink:href="#f0ea422a-a980-4a9e-8fad-43c87f6ba738" />
    <linearGradient
       id="f05d82f5-c8d6-44fc-8266-fef5229bfdcd"
       x1="834.85999"
       y1="251.48"
       x2="834.85999"
       y2="206.82001"
       xlink:href="#f0ea422a-a980-4a9e-8fad-43c87f6ba738" />
    <linearGradient
       id="fed5a35b-50d2-4029-b1da-9e4ece87a2f7"
       x1="829.85999"
       y1="393.48001"
       x2="829.85999"
       y2="348.82001"
       xlink:href="#f0ea422a-a980-4a9e-8fad-43c87f6ba738" />
    <linearGradient
       id="a057bd9d-3da5-4ef9-9b1f-12de91a9714e"
       x1="864.85999"
       y1="403.48001"
       x2="864.85999"
       y2="358.82001"
       xlink:href="#f0ea422a-a980-4a9e-8fad-43c87f6ba738" />
    <linearGradient
       id="eb119f49-f305-49d7-b722-178b1b910dac"
       x1="717.28998"
       y1="456.89001"
       x2="717.28998"
       y2="412.23001"
       xlink:href="#f0ea422a-a980-4a9e-8fad-43c87f6ba738" />
    <linearGradient
       id="f18d0c9f-76a8-47d5-9395-c2e15513d6af"
       x1="722.28998"
       y1="321.89001"
       x2="722.28998"
       y2="277.23001"
       xlink:href="#f0ea422a-a980-4a9e-8fad-43c87f6ba738" />
    <linearGradient
       id="e96273f1-ace8-4241-9189-48d1ceb051fa"
       x1="122.28"
       y1="564.79999"
       x2="344.94"
       y2="564.79999"
       xlink:href="#f0ea422a-a980-4a9e-8fad-43c87f6ba738" />
    <linearGradient
       id="fa251bcb-f561-47ff-8b25-b5a12635a0f6"
       x1="277.85999"
       y1="393.48001"
       x2="277.85999"
       y2="348.82001"
       xlink:href="#f0ea422a-a980-4a9e-8fad-43c87f6ba738" />
    <linearGradient
       inkscape:collect="always"
       xlink:href="#f0ea422a-a980-4a9e-8fad-43c87f6ba738"
       id="linearGradient1197"
       gradientUnits="userSpaceOnUse"
       x1="421.85999"
       y1="330.48001"
       x2="421.85999"
       y2="285.82001" />
  </defs>
  <title
     id="title23">schedule</title>
  <g
     id="g1195"
     transform="translate(0.00600166,182.62253)">
    <path
       d="M 646.49,178.73 C 576.9,178.62 509.85,157 445.7,132.94 381.55,108.88 317.91,82.05 249.58,70.54 c -44,-7.4 -93.9,-6.9 -128.17,19.38 C 88.44,115.21 79,157.18 74.48,196 c -3.39,29.18 -4.91,59.83 8.17,86.57 9.09,18.57 24.59,33.89 35.56,51.6 38.17,61.6 15.52,140 -21.24,202.82 C 79.72,566.4 59.51,594.63 46.5,625.79 33.49,656.95 28.22,692.31 41.66,723.14 55,753.71 85,776 117.09,791.21 c 65.29,31 141.16,37.82 215,40.59 163.48,6.14 327.21,-4.8 490.51,-15.8 60.43,-4.06 121.13,-8.16 180.29,-20.29 32.85,-6.73 66.66,-16.76 89.9,-38.92 29.5,-28.12 35.42,-74.17 13.81,-107.34 C 1070.34,593.76 975.18,583 949.08,522.82 c -14.37,-33.13 -2.17,-71 15.86,-102.86 38.69,-68.29 105.44,-129.37 106.35,-205.89 0.62,-52.56 -34.33,-103.93 -86.37,-126.93 -54.56,-24.14 -128.8,-18.2 -166.83,26.28 -39.16,45.8 -110.15,65.41 -171.6,65.31 z"
       transform="translate(-33.81,-66.43)"
       fill="#091454"
       opacity="0.1"
       id="path25" />
    <path
       d="m 992.65,692.43 c 0,0 -12.29,-8.11 -24.47,-2.34 0,0 3.75,7.23 19.17,6.54 z"
       transform="translate(-33.81,-66.43)"
       fill="#091454"
       id="path27" />
    <path
       d="m 994.16,692.87 c 0,0 3.74,14.24 -5.63,23.93 0,0 -5.64,-5.88 0,-20.26 z"
       transform="translate(-33.81,-66.43)"
       fill="#091454"
       id="path29" />
    <path
       d="m 1009.49,679.2 c 0,0 -0.91,-12.12 -28.25,-8.1 0,0 -0.13,7.82 9.47,11.52 9.6,3.7 13.99,0.58 18.78,-3.42 z"
       transform="translate(-33.81,-66.43)"
       fill="#091454"
       id="path31" />
    <path
       d="m 1011.17,679.11 c 0,0 11.57,3.72 1.26,29.37 0,0 -7.63,-1.71 -9,-11.91 -1.37,-10.2 2.73,-13.74 7.74,-17.46 z"
       transform="translate(-33.81,-66.43)"
       fill="#091454"
       id="path33" />
    <path
       d="m 1026.66,661.93 c 0,0 1.56,-19.93 -26.39,-17.88 0,0 -2,18 21.45,22.67 z"
       transform="translate(-33.81,-66.43)"
       fill="#091454"
       id="path35" />
    <path
       d="m 1045.13,639.43 c 0,0 -3.84,-22.58 -31.77,-15.85 0,0 -0.11,19.53 27.2,21.24 z"
       transform="translate(-33.81,-66.43)"
       fill="#091454"
       id="path37" />
    <path
       d="m 1058.62,616.17 c 0,0 -6.41,-22 -34.09,-15.41 0,0 6.58,19.78 32.25,19.48 z"
       transform="translate(-33.81,-66.43)"
       fill="#091454"
       id="path39" />
    <path
       d="m 1071.44,593.46 c 0,0 -6.27,-22.83 -33,-16 0,0 8.92,21.69 31.24,19.87 z"
       transform="translate(-33.81,-66.43)"
       fill="#091454"
       id="path41" />
    <path
       d="m 1079.71,571.88 c 0,0 -4.82,-27.88 -29.71,-21.74 0,0 7.24,25.4 27.9,25.8 z"
       transform="translate(-33.81,-66.43)"
       fill="#091454"
       id="path43" />
    <path
       d="m 1087.45,545.81 c 0,0 -5.78,-28.15 -31,-20 0,0 9.89,26.59 29.22,23.84 z"
       transform="translate(-33.81,-66.43)"
       fill="#091454"
       id="path45" />
    <path
       d="m 1092.25,521.54 c 0,0 -9.19,-28.14 -28.68,-27.38 0,0 9.4,29.73 27,33 z"
       transform="translate(-33.81,-66.43)"
       fill="#091454"
       id="path47" />
    <path
       d="m 1095.3,497.87 c 0,0 -10,-33.88 -25.86,-31.27 0,0 6.92,25.9 25.3,36.54 z"
       transform="translate(-33.81,-66.43)"
       fill="#091454"
       id="path49" />
    <path
       d="m 1097,469.59 c 0,0 -9.37,-28.24 -25,-29.36 0,0 6.38,27.78 24.68,36.69 z"
       transform="translate(-33.81,-66.43)"
       fill="#091454"
       id="path51" />
    <path
       d="m 1098.93,443.26 c 0,0 -11.69,-28.27 -22,-28.9 0,0 5.07,27.82 21,33.54 z"
       transform="translate(-33.81,-66.43)"
       fill="#091454"
       id="path53" />
    <path
       d="m 1100.22,418.74 c 0,0 -7.22,-30.74 -17.52,-33.24 0,0 1.42,25.1 16.49,35.53 z"
       transform="translate(-33.81,-66.43)"
       fill="#091454"
       id="path55" />
    <path
       d="m 1104.11,386.65 c 0,0 -7.56,-24.46 -15.93,-28.19 0,0 1.66,28.84 14,34.18 z"
       transform="translate(-33.81,-66.43)"
       fill="#091454"
       id="path57" />
    <path
       d="m 1107.34,365.58 1.53,-43.14 c 0,0 -15.62,32.55 -2.68,50.75 z"
       transform="translate(-33.81,-66.43)"
       fill="#091454"
       id="path59" />
    <path
       d="m 1119.43,322.71 c 0,0 11.26,-31.51 14,-33.26 0,0 -22.1,20.43 -19.94,46.73 z"
       transform="translate(-33.81,-66.43)"
       fill="#091454"
       id="path61" />
    <path
       d="m 1027.42,661.79 c 0,0 19.82,-2.6 19.22,25.42 0,0 -17.91,2.91 -23.75,-20.25 z"
       transform="translate(-33.81,-66.43)"
       fill="#091454"
       id="path63" />
    <path
       d="m 1046.06,638.68 c 0,0 22.91,-0.08 21,28.6 0,0 -19.22,3.43 -25.57,-23.19 z"
       transform="translate(-33.81,-66.43)"
       fill="#091454"
       id="path65" />
    <path
       d="m 1058.84,618 c 0,0 20.79,-9.75 34.1,15.41 0,0 -19.21,8.13 -35.93,-11.35 z"
       transform="translate(-33.81,-66.43)"
       fill="#091454"
       id="path67" />
    <path
       d="m 1071.91,593.67 c 0,0 21.28,-10.38 33.78,14.21 0,0 -22.17,7.64 -35.54,-10.32 z"
       transform="translate(-33.81,-66.43)"
       fill="#091454"
       id="path69" />
    <path
       d="m 1079.44,572.48 c 0,0 20.49,-19.57 36.84,0.23 0,0 -20.93,16.1 -37.79,4.13 z"
       transform="translate(-33.81,-66.43)"
       fill="#091454"
       id="path71" />
    <path
       d="m 1086.29,545.14 c 0,0 20.62,-20 36.84,0.92 0,0 -23.14,16.43 -37.57,3.28 z"
       transform="translate(-33.81,-66.43)"
       fill="#091454"
       id="path73" />
    <path
       d="m 1090.15,520.74 c 0,0 15.88,-25 34.57,-19.41 0,0 -16.47,26.47 -34.39,25.29 z"
       transform="translate(-33.81,-66.43)"
       fill="#091454"
       id="path75" />
    <path
       d="m 1094.83,497.71 c 0,0 16,-31.49 31.13,-26 0,0 -11.53,24.2 -31.54,31.31 z"
       transform="translate(-33.81,-66.43)"
       fill="#091454"
       id="path77" />
    <path
       d="m 1095.93,468 c 0,0 16.45,-24.78 31.86,-21.76 0,0 -13.44,25.13 -33.45,28.93 z"
       transform="translate(-33.81,-66.43)"
       fill="#091454"
       id="path79" />
    <path
       d="m 1097.19,442.7 c 0,0 12.74,-27.8 23.11,-28.05 0,0 -6.12,27.62 -22.26,32.73 z"
       transform="translate(-33.81,-66.43)"
       fill="#091454"
       id="path81" />
    <path
       d="m 1099.71,418.13 c 0,0 14.17,-28.16 24.82,-28.21 0,0 -7.25,24.07 -24.34,30.69 z"
       transform="translate(-33.81,-66.43)"
       fill="#091454"
       id="path83" />
    <path
       d="m 1101.85,388.38 c 0,0 10.6,-23.3 19.37,-25.94 0,0 -5.3,28.4 -18.21,32.12 z"
       transform="translate(-33.81,-66.43)"
       fill="#091454"
       id="path85" />
    <path
       d="m 1108.61,364.76 23.68,-36.08 c 0,0 -6.06,35.59 -27.14,43 z"
       transform="translate(-33.81,-66.43)"
       fill="#091454"
       id="path87" />
    <path
       d="m 1124.87,325.61 c 0,0 27.53,-19 28.52,-22.08 0,0 -14,26.62 -40,31.32 z"
       transform="translate(-33.81,-66.43)"
       fill="#091454"
       id="path89" />
    <path
       d="m 1126.51,317.06 c 0,0 31.61,-30.39 39.68,-30.35 0,0 -26.07,1.19 -40.44,28.73 z"
       transform="translate(-33.81,-66.43)"
       fill="#091454"
       id="path91" />
    <path
       d="m 1102.15,392.89 1.15,0.15 c 5.94,-46.5 14.6,-74 24.39,-77.38 l -0.38,-1.09 c -10.37,3.6 -19.07,30.68 -25.16,78.32 z"
       transform="translate(-33.81,-66.43)"
       fill="#444053"
       id="path93" />
    <path
       d="m 1093.42,504.06 1.74,0.15 c 0.36,-4.34 0.64,-8.79 0.83,-13.21 1.66,-38.49 4.24,-73.82 7.62,-100.31 l -1,-1.25 c -3.39,26.54 -6.69,62.95 -8.35,101.48 -0.2,4.4 -0.48,8.82 -0.84,13.14 z"
       transform="translate(-33.81,-66.43)"
       fill="#444053"
       id="path95" />
    <path
       d="m 960.19,714.57 c 0.31,-0.14 30.94,-13.81 62.73,-46.44 a 252.42,252.42 0 0 0 45.85,-65 c 14.69,-29.93 23.65,-66.71 26.66,-102.44 l -1.81,0.85 c -6.75,80.19 -43.26,135 -72.3,164.84 -31.48,32.34 -61.76,45.88 -62.06,46 z"
       transform="translate(-33.81,-66.43)"
       fill="#444053"
       id="path97" />
    <path
       d="M 1082.52,115.31 H 121.64 a 8.56,8.56 0 0 0 -8.56,8.56 v 24.94 h 978 v -24.94 a 8.56,8.56 0 0 0 -8.56,-8.56 z"
       transform="translate(-33.81,-66.43)"
       fill="#3f3d56"
       id="path99" />
    <path
       d="m 113.08,148.81 v 561.24 a 17.26,17.26 0 0 0 17.26,17.26 h 943.48 a 17.26,17.26 0 0 0 17.26,-17.26 V 148.81 Z"
       transform="translate(-33.81,-66.43)"
       fill="#ffffff"
       id="path101" />
    <circle
       cx="94.769997"
       cy="65.370003"
       r="4"
       fill="#fa5959"
       opacity="0.8"
       id="circle103" />
    <circle
       cx="105.77"
       cy="65.370003"
       r="4"
       fill="#fed253"
       opacity="0.8"
       id="circle105" />
    <circle
       cx="116.77"
       cy="65.370003"
       r="4"
       fill="#8ccf4d"
       opacity="0.8"
       id="circle107" />
    <g
       opacity="0.3"
       id="g125">
      <rect
         x="116.77"
         y="116.37"
         width="904"
         height="510"
         fill="none"
         stroke="#3f3d56"
         stroke-miterlimit="10"
         id="rect109" />
      <rect
         x="234.77"
         y="116.37"
         width="668"
         height="510"
         fill="none"
         stroke="#3f3d56"
         stroke-miterlimit="10"
         id="rect111" />
      <rect
         x="352.76999"
         y="116.37"
         width="432"
         height="510"
         fill="none"
         stroke="#3f3d56"
         stroke-miterlimit="10"
         id="rect113" />
      <rect
         x="470.76999"
         y="116.37"
         width="196"
         height="510"
         fill="none"
         stroke="#3f3d56"
         stroke-miterlimit="10"
         id="rect115" />
      <line
         x1="568.77002"
         y1="116.37"
         x2="568.77002"
         y2="626.37"
         fill="none"
         stroke="#3f3d56"
         stroke-miterlimit="10"
         id="line117" />
      <rect
         x="116.77"
         y="190.37"
         width="904"
         height="362"
         fill="none"
         stroke="#3f3d56"
         stroke-miterlimit="10"
         id="rect119" />
      <rect
         x="116.77"
         y="263.37"
         width="904"
         height="216"
         fill="none"
         stroke="#3f3d56"
         stroke-miterlimit="10"
         id="rect121" />
      <rect
         x="116.77"
         y="336.37"
         width="904"
         height="70"
         fill="none"
         stroke="#3f3d56"
         stroke-miterlimit="10"
         id="rect123" />
    </g>
    <rect
       x="258.26999"
       y="144.87"
       width="71"
       height="26"
       fill="#3f3d56"
       opacity="0.1"
       id="rect127" />
    <rect
       x="147.27"
       y="215.87"
       width="53"
       height="26"
       fill="#3f3d56"
       opacity="0.1"
       id="rect129" />
    <rect
       x="373.26999"
       y="144.87"
       width="71"
       height="26"
       fill="#3f3d56"
       opacity="0.1"
       id="rect131" />
    <rect
       x="481.26999"
       y="144.87"
       width="71"
       height="26"
       fill="#3f3d56"
       opacity="0.1"
       id="rect133" />
    <rect
       x="581.27002"
       y="144.87"
       width="71"
       height="26"
       fill="#3f3d56"
       opacity="0.1"
       id="rect135" />
    <rect
       x="693.27002"
       y="144.87"
       width="71"
       height="26"
       fill="#3f3d56"
       opacity="0.1"
       id="rect137" />
    <rect
       x="807.27002"
       y="144.87"
       width="71"
       height="26"
       fill="#3f3d56"
       opacity="0.1"
       id="rect139" />
    <rect
       x="928.27002"
       y="144.87"
       width="71"
       height="26"
       fill="#3f3d56"
       opacity="0.1"
       id="rect141" />
    <rect
       x="398.79001"
       y="285.82001"
       width="46.130001"
       height="44.66"
       fill="url(#f0ea422a-a980-4a9e-8fad-43c87f6ba738)"
       id="rect143"
       style="fill:url(#linearGradient1197)" />
    <rect
       x="399.59"
       y="286.59"
       width="44.540001"
       height="43.119999"
       fill="#7cfcff"
       id="rect145" />
    <rect
       x="493.82999"
       y="276.14001"
       width="46.130001"
       height="44.66"
       fill="url(#ad2c5ae7-cdf4-4789-99a0-6bde37321e66)"
       id="rect147"
       style="fill:url(#ad2c5ae7-cdf4-4789-99a0-6bde37321e66)" />
    <rect
       x="494.63"
       y="276.91"
       width="44.540001"
       height="43.119999"
       fill="#ffffa5"
       id="rect149" />
    <rect
       x="676.83002"
       y="428.14001"
       width="46.130001"
       height="44.66"
       fill="url(#af61e5a9-3371-4284-9366-60d451e53b7c)"
       id="rect151"
       style="fill:url(#af61e5a9-3371-4284-9366-60d451e53b7c)" />
    <rect
       x="677.63"
       y="428.91"
       width="44.540001"
       height="43.119999"
       fill="#ffffa5"
       id="rect153" />
    <rect
       x="270.57001"
       y="206.23"
       width="46.130001"
       height="44.66"
       fill="url(#afe800ea-76fc-42fa-87d3-444aeaebb97e)"
       id="rect155"
       style="fill:url(#afe800ea-76fc-42fa-87d3-444aeaebb97e)" />
    <rect
       x="271.35999"
       y="207"
       width="44.540001"
       height="43.119999"
       fill="#ffffa5"
       id="rect157" />
    <rect
       x="362.23001"
       y="270.23001"
       width="46.130001"
       height="44.66"
       fill="url(#a0a14e29-1e29-4199-9658-2a5ebd9bc7a2)"
       id="rect159"
       style="fill:url(#a0a14e29-1e29-4199-9658-2a5ebd9bc7a2)" />
    <rect
       x="363.01999"
       y="271"
       width="44.540001"
       height="43.119999"
       fill="#ff69b4"
       id="rect161" />
    <rect
       x="730.78998"
       y="427.82001"
       width="46.130001"
       height="44.66"
       fill="url(#b9eaa648-e9e9-4a67-ba92-603c001fbd1d)"
       id="rect163"
       style="fill:url(#b9eaa648-e9e9-4a67-ba92-603c001fbd1d)" />
    <rect
       x="731.59003"
       y="428.59"
       width="44.540001"
       height="43.119999"
       fill="#7cfcff"
       id="rect165" />
    <rect
       x="811.78998"
       y="206.82001"
       width="46.130001"
       height="44.66"
       fill="url(#f05d82f5-c8d6-44fc-8266-fef5229bfdcd)"
       id="rect167"
       style="fill:url(#f05d82f5-c8d6-44fc-8266-fef5229bfdcd)" />
    <rect
       x="812.59003"
       y="207.59"
       width="44.540001"
       height="43.119999"
       fill="#7cfcff"
       id="rect169" />
    <rect
       x="806.78998"
       y="348.82001"
       width="46.130001"
       height="44.66"
       fill="url(#fed5a35b-50d2-4029-b1da-9e4ece87a2f7)"
       id="rect171"
       style="fill:url(#fed5a35b-50d2-4029-b1da-9e4ece87a2f7)" />
    <rect
       x="807.59003"
       y="349.59"
       width="44.540001"
       height="43.119999"
       fill="#7cfcff"
       id="rect173" />
    <rect
       x="841.78998"
       y="358.82001"
       width="46.130001"
       height="44.66"
       fill="url(#a057bd9d-3da5-4ef9-9b1f-12de91a9714e)"
       id="rect175"
       style="fill:url(#a057bd9d-3da5-4ef9-9b1f-12de91a9714e)" />
    <rect
       x="842.59003"
       y="359.59"
       width="44.540001"
       height="43.119999"
       fill="#7cfcff"
       id="rect177" />
    <rect
       x="694.22998"
       y="412.23001"
       width="46.130001"
       height="44.66"
       fill="url(#eb119f49-f305-49d7-b722-178b1b910dac)"
       id="rect179"
       style="fill:url(#eb119f49-f305-49d7-b722-178b1b910dac)" />
    <rect
       x="695.02002"
       y="413"
       width="44.540001"
       height="43.119999"
       fill="#ff69b4"
       id="rect181" />
    <rect
       x="699.22998"
       y="277.23001"
       width="46.130001"
       height="44.66"
       fill="url(#f18d0c9f-76a8-47d5-9395-c2e15513d6af)"
       id="rect183"
       style="fill:url(#f18d0c9f-76a8-47d5-9395-c2e15513d6af)" />
    <rect
       x="700.02002"
       y="278"
       width="44.540001"
       height="43.119999"
       fill="#ff69b4"
       id="rect185" />
    <rect
       x="147.27"
       y="285.87"
       width="53"
       height="26"
       fill="#3f3d56"
       opacity="0.1"
       id="rect187" />
    <rect
       x="147.27"
       y="358.87"
       width="53"
       height="26"
       fill="#3f3d56"
       opacity="0.1"
       id="rect189" />
    <rect
       x="147.27"
       y="431.87"
       width="53"
       height="26"
       fill="#3f3d56"
       opacity="0.1"
       id="rect191" />
    <rect
       x="147.27"
       y="504.87"
       width="53"
       height="26"
       fill="#3f3d56"
       opacity="0.1"
       id="rect193" />
    <rect
       x="147.27"
       y="577.87"
       width="53"
       height="26"
       fill="#3f3d56"
       opacity="0.1"
       id="rect195" />
    <path
       d="m 342.08,417.51 c 1.48,-0.94 0.89,-3.46 -0.63,-4.33 -1.52,-0.87 -3.41,-0.58 -5.12,-0.24 a 2.09,2.09 0 0 0 -1.1,-2.2 v -0.38 c 1,-1 0.62,-3 -0.6,-3.88 -1.22,-0.88 -3.12,-0.92 -4.76,-0.84 a 6.34,6.34 0 0 0 -2,-5.4 1.67,1.67 0 0 0 -1.1,-0.53 c -1,0 -1.28,1.28 -1.35,2.23 a 42.23,42.23 0 0 1 -1.23,7.39 l -31.08,52 c -3.46,5 7.29,-10 3.83,-4.95 a 44,44 0 0 1 -6.12,7.59 30.16,30.16 0 0 1 -6.91,4.63 8.15,8.15 0 0 1 -4.72,-1.34 19,19 0 0 1 -4.54,-4.49 88.63,88.63 0 0 1 -7.33,-10.89 14.11,14.11 0 0 1 -1.68,-3.89 c -0.46,-2.16 0,-4.5 -0.85,-6.53 a 10.67,10.67 0 0 0 -1.34,-2.12 l -2.15,-2.85 v -0.13 c -0.24,-4.22 -3.67,-7.48 -6.87,-10.26 -2.72,-2.38 -5.67,-4.86 -9.26,-5.32 -1.92,-0.25 -3.89,0.12 -5.81,-0.12 -1.57,-0.2 -3.06,-0.79 -4.62,-1.05 a 19.6,19.6 0 0 0 -4.53,-0.09 l -0.64,-0.59 a 17.92,17.92 0 0 0 8.09,-6.8 c 1.48,-2.39 2.29,-5.15 3.66,-7.61 1.67,-3 4.15,-5.48 6,-8.36 4.47,-6.83 5.29,-15.62 3.48,-23.58 -1.81,-7.96 -6.05,-15.19 -11,-21.64 -9.6,-12.42 -25.7,-17 -40.86,-14.6 -1,0.16 -2,0.35 -3,0.57 a 38.52,38.52 0 0 0 -7.43,2.37 19,19 0 0 0 -8.11,6.33 14.61,14.61 0 0 0 -1.41,2.62 15.43,15.43 0 0 0 -0.68,2.16 22.41,22.41 0 0 0 -0.37,6.76 c 0.06,0.77 0.14,1.54 0.23,2.31 l 0.15,1.16 c 0.1,0.77 0.21,1.54 0.32,2.31 0.16,1.16 0.31,2.32 0.42,3.46 a 22,22 0 0 1 0.13,2.43 c 0,0.21 0,0.41 0,0.61 a 9.93,9.93 0 0 1 -0.27,1.79 7.5,7.5 0 0 1 -0.3,0.95 11.84,11.84 0 0 1 -1.41,2.59 32.71,32.71 0 0 1 -2.53,3.11 l -0.87,1 c -0.29,0.33 -0.57,0.67 -0.86,1 a 36.66,36.66 0 0 0 -3.13,4.23 20.58,20.58 0 0 0 -1.23,2.32 16.6,16.6 0 0 0 -0.71,1.86 15.4,15.4 0 0 0 -0.54,2.6 c 0,0.22 0,0.44 -0.06,0.66 0,0.43 0,0.87 0,1.31 a 11.47,11.47 0 0 0 0.14,1.3 9.23,9.23 0 0 0 0.3,1.26 8.55,8.55 0 0 0 0.47,1.22 c 0,0.11 0.1,0.22 0.16,0.33 l 0.16,0.33 c 0.11,0.22 0.22,0.43 0.32,0.65 a 4.26,4.26 0 0 1 0.33,1 c 0,0.11 0,0.23 0,0.35 0,0.12 0,0.26 0,0.38 a 4.09,4.09 0 0 1 -1.48,2.55 c -0.2,0.19 -0.4,0.36 -0.61,0.54 l -0.32,0.26 -0.65,0.51 -0.62,0.5 a 12.59,12.59 0 0 0 -1.51,1.5 55.87,55.87 0 0 0 -16.74,1.64 22.64,22.64 0 0 1 -6,1.09 3,3 0 0 1 -2.6,-1.09 3.83,3.83 0 0 1 -0.27,-2.4 20.7,20.7 0 0 0 -1.6,-9.8 5.45,5.45 0 0 0 -1.6,-2.33 2.26,2.26 0 0 0 -2.66,-0.14 24.93,24.93 0 0 1 -0.69,16.67 53.85,53.85 0 0 1 -3.85,7.23 c -2.28,3.89 -3.56,8.34 -5.59,12.37 2.27,7.69 1.76,15.9 3,23.84 1.11,7.39 3.69,14.47 6.28,21.48 2,5.29 4.08,10.81 8.32,14.53 a 7.58,7.58 0 0 0 5.15,2.24 9,9 0 0 0 4,-1.52 15.67,15.67 0 0 0 3.39,-2.49 8.76,8.76 0 0 0 1,-1.33 5.19,5.19 0 0 0 0.75,1.88 c 2.44,-5.26 5.12,-10.4 8,-15.43 a 13.22,13.22 0 0 0 2.4,-1.64 c 0,0.18 0.09,0.36 0.14,0.54 -0.13,0.48 -0.25,1 -0.38,1.45 -0.13,0.45 -0.28,0.93 -0.42,1.38 -0.14,0.45 -0.21,0.67 -0.32,1 -0.11,0.33 -0.27,0.8 -0.42,1.2 -0.15,0.4 -0.32,0.87 -0.49,1.3 -0.17,0.43 -0.23,0.62 -0.36,0.92 -0.31,0.76 -0.63,1.5 -1,2.24 a 7,7 0 0 0 0.86,0.35 l 0.19,0.06 a 7,7 0 0 0 0.79,0.2 h 0.29 a 5.61,5.61 0 0 0 0.59,0.06 h 0.22 0.65 a 8.56,8.56 0 0 0 2.11,-0.36 l 0.39,1.6 a 57.15,57.15 0 0 1 1.92,11 c 0.19,4.2 -0.54,8.47 0.27,12.6 0.41,2.15 1.24,4.21 1.54,6.37 a 27.15,27.15 0 0 1 -0.11,6.11 q -0.7,7.36 -1.4,14.73 a 12.6,12.6 0 0 1 -1.26,5.2 c -0.69,1.2 -1.81,2.57 -1.11,3.76 a 25,25 0 0 1 3.51,-0.67 c -0.43,1.56 -0.82,3.13 -1.19,4.71 a 8.3,8.3 0 0 0 -0.28,3.63 c 0.25,1.14 1,2.17 1.08,3.33 0.18,1.8 -1.07,3.39 -1.76,5.06 -1.76,4.26 0.11,9.06 2,13.28 l 5.52,12.52 4.53,10.27 c 1.34,3 2.69,6.1 4,9.18 a 298,298 0 0 1 14.42,43.24 5.16,5.16 0 0 0 0.75,1.88 c 0.76,1 2.15,1.32 3.28,1.94 3.39,1.87 3.78,7.45 0.68,9.77 0.63,7.52 -5,14.79 -7.9,21.75 -6.68,16 -5.47,34.06 -7.76,51.26 l 2.59,-1.51 a 3.21,3.21 0 0 1 0.84,0.55 q -0.09,0.48 -0.21,1 a 15.67,15.67 0 0 1 -1.66,4.17 c -1.51,2.59 -3.82,4.9 -4.17,7.88 -0.21,1.8 0.34,3.6 0.33,5.41 0,0.17 0,0.33 0,0.5 -0.23,-0.22 -0.58,-0.2 -1.1,0.21 a 6.45,6.45 0 0 0 -1.63,3.07 c -0.45,1.29 -0.81,2.6 -1.17,3.91 l -1.34,4.62 a 53.71,53.71 0 0 1 -2.71,8.15 34.92,34.92 0 0 0 -2.4,5.52 17.13,17.13 0 0 0 -0.41,4.74 14.21,14.21 0 0 0 0.65,4.5 11.18,11.18 0 0 0 6.55,6.21 30.75,30.75 0 0 0 9.1,1.72 7.65,7.65 0 0 0 2.39,-0.07 6.49,6.49 0 0 0 2.31,-1.21 c 4.22,-3.1 6.4,-8.8 6.78,-14 a 20.67,20.67 0 0 0 -0.57,-3.18 c 0.26,-5.69 -0.57,-11.41 -0.14,-17.08 0.09,0.65 0.18,1.29 0.28,1.93 l 1,6.37 a 1.33,1.33 0 0 0 -0.34,-0.6 14.64,14.64 0 0 0 -0.38,7.29 43.5,43.5 0 0 0 2.1,7.07 l 1.36,3.8 a 9.07,9.07 0 0 0 1.62,3.15 c 1.19,1.31 3,1.8 4.74,2.22 a 52.25,52.25 0 0 0 11.48,2 2.6,2.6 0 0 0 1.51,-0.28 7.33,7.33 0 0 0 0.68,-0.57 6.71,6.71 0 0 1 1.1,-0.64 7.26,7.26 0 0 0 3.52,-4.17 6.58,6.58 0 0 0 -0.65,-5.39 12.59,12.59 0 0 0 -1.55,-1.88 l -6.84,-7.25 a 43.1,43.1 0 0 0 -3.34,-3.54 1.25,1.25 0 0 0 -1.1,-0.36 c -1.86,-4.64 -1.62,-10.06 -1.3,-15.15 0.1,-1.52 0.93,-4.67 1.26,-7.26 a 11.71,11.71 0 0 0 3.63,-2 5.48,5.48 0 0 0 2.09,-3.12 c 3.45,-17.62 9,-34.7 14.24,-51.87 0.52,-1.69 1,-3.39 1.53,-5.08 0.22,-0.72 0.42,-1.45 0.63,-2.18 0.21,-0.73 0.35,-1.18 0.52,-1.77 0.28,-1 0.56,-2 0.83,-3 0.08,-0.27 0.15,-0.54 0.23,-0.81 a 0.94,0.94 0 0 1 0,-0.16 c 0.33,-1.23 0.65,-2.46 1,-3.69 0.12,-0.48 0.25,-0.94 0.37,-1.42 0.39,-1.56 0.78,-3.14 1.15,-4.71 a 5.18,5.18 0 0 0 0.14,-0.66 2.79,2.79 0 0 0 -0.11,-1.67 v 0 0 a 2.17,2.17 0 0 0 -0.39,-0.56 c -0.11,-0.13 -0.23,-0.26 -0.35,-0.38 -0.12,-0.12 -0.26,-0.28 -0.38,-0.43 a 3.87,3.87 0 0 1 -0.7,-1.31 c 0,-0.48 0,-1 0,-1.44 0,-0.44 -0.06,-1 -0.09,-1.52 a 16,16 0 0 1 0.45,-2 c 0.12,-0.39 0.25,-0.78 0.37,-1.17 0.12,-0.39 0.3,-1 0.46,-1.45 a 3.67,3.67 0 0 0 0.91,-2.47 q 0.93,-2.32 2.05,-4.55 a 13.72,13.72 0 0 0 1.83,-4.92 19.52,19.52 0 0 0 -0.58,-4.67 c -1,-6.5 2,-12.83 4.21,-19 a 84.27,84.27 0 0 0 3.72,-14 c 0.65,-3.65 1.1,-7.48 3.05,-10.64 a 15.84,15.84 0 0 0 1.64,-2.84 11.18,11.18 0 0 0 0.44,-3.22 35.53,35.53 0 0 1 3.15,-12.77 8.1,8.1 0 0 0 0.82,-2.49 0.91,0.91 0 0 0 0,-0.17 v -0.24 l 0.51,-0.08 c 0.87,-5.51 1.75,-11.65 1.15,-17.2 a 26.23,26.23 0 0 0 -8.79,-16.6 h 0.1 c 1.72,-0.87 2.49,-3 2.52,-4.88 a 9.51,9.51 0 0 0 -3.54,-7.43 3.55,3.55 0 0 1 -1.2,-1.24 3.77,3.77 0 0 1 -0.15,-1.61 8.23,8.23 0 0 0 -5.07,-7.64 1.91,1.91 0 0 1 -0.83,-0.48 2,2 0 0 1 -0.22,-1.46 8.93,8.93 0 0 0 -4.31,-8.16 c 0.4,-2.14 0.8,-4.38 0.19,-6.48 -0.61,-2.1 -2.58,-4 -4.74,-3.7 1.76,-4.8 -0.74,-10.14 -0.08,-15.21 0.29,-2.18 1.16,-4.27 1.27,-6.46 0.1,-2 -0.39,-4.14 0.58,-5.88 0.97,-1.74 3.26,-3.1 2.67,-5 -0.25,-0.81 -1,-1.37 -1.35,-2.16 -0.35,-0.79 1.05,-2 1.77,-1.56 0.34,-0.26 0.68,-0.53 1,-0.81 a 16.11,16.11 0 0 0 0.6,3 c 0.49,1.64 1.24,3.18 1.75,4.81 0.78,2.49 1,5.19 2.26,7.47 2,3.65 6.23,5.46 9.09,8.49 1.68,1.77 2.89,4 4.62,5.68 a 25.18,25.18 0 0 0 4.3,3.23 l 9.24,6 a 10.62,10.62 0 0 0 3.16,1.57 5.39,5.39 0 0 0 6.35,-4.57 6.24,6.24 0 0 1 -2.27,-1.41 c 0.13,0 0.26,0 0.39,-0.06 a 14.57,14.57 0 0 0 5.93,-3.15 c 6.58,-5.24 11.31,-12.39 15.93,-19.42 4.84,-7.37 28.13,-26.87 28.13,-26.87 v -7.9 a 28.44,28.44 0 0 0 7.76,-6.61 8.57,8.57 0 0 0 1.95,-5 4.45,4.45 0 0 0 -2.86,-4.37 z m -193.7,18.95 q -0.67,4.31 -1.65,8.56 a 81.34,81.34 0 0 1 -2.76,9.67 l -0.36,1 c -0.33,-0.62 -0.66,-1.23 -1,-1.86 -0.75,-1.57 -1.36,-3.2 -2,-4.83 l -3.86,-10.4 c -0.5,-1.35 -1,-2.91 -0.25,-4.15 a 4.64,4.64 0 0 1 2.2,-1.65 43.48,43.48 0 0 1 8.46,-2.87 23.17,23.17 0 0 0 2.72,-0.72 41,41 0 0 0 -1.5,7.25 z m 4.27,-13 a 1.55,1.55 0 0 1 0,-1.51 3.44,3.44 0 0 1 1,-0.7 l 0.29,-0.2 c -0.4,0.83 -0.85,1.63 -1.29,2.44 z m 8,-11.31 a 20.92,20.92 0 0 0 -3.08,3.16 33,33 0 0 0 -2.64,4.08 3,3 0 0 0 -1.1,-3 6.37,6.37 0 0 1 -1,-0.68 2.1,2.1 0 0 1 0.42,-2.94 6.1,6.1 0 0 1 3.11,-1.06 l 4.61,-0.68 c -0.14,0.39 -0.23,0.77 -0.33,1.15 z m 43.16,334.65 a 16.73,16.73 0 0 0 -0.27,-4.13 c 0.57,0 1.14,0 1.7,0 -0.47,1.33 -0.95,2.74 -1.43,4.13 z"
       transform="translate(-33.81,-66.43)"
       fill="url(#e96273f1-ace8-4241-9189-48d1ceb051fa)"
       id="path197"
       style="fill:url(#e96273f1-ace8-4241-9189-48d1ceb051fa)" />
    <path
       d="m 199.11,339.34 c -8,1.29 -16.9,4.37 -20,11.87 -2.31,5.67 -0.52,12.05 0.07,18.14 a 14,14 0 0 1 -0.17,4.83 c -0.66,2.57 -2.48,4.65 -4.24,6.64 a 35.21,35.21 0 0 0 -6.09,8.54 c -1.44,3.2 -1.9,7 -0.41,10.2 a 7.35,7.35 0 0 1 1,2.69 c 0.1,2.08 -2.08,3.4 -3.68,4.73 -6,5 -5.75,14 -5.8,21.83 A 110.71,110.71 0 0 1 149.4,475 a 14.11,14.11 0 0 0 15.77,-2.06 52.55,52.55 0 0 1 -3.58,10.32 c 5.08,2.46 11.21,-1.58 13.76,-6.62 2.55,-5.04 2.85,-10.9 4.66,-16.25 1.81,-5.35 5,-10 6.41,-15.39 0.45,-1.78 0.73,-3.68 1.82,-5.16 a 13.58,13.58 0 0 1 3.2,-2.73 31.23,31.23 0 0 0 11.31,-15.33 c 6.22,1.37 12.57,2.75 18.91,2.17 6.34,-0.58 12.82,-3.45 16.17,-8.87 1.48,-2.39 2.28,-5.14 3.65,-7.6 1.68,-3 4.15,-5.48 6,-8.35 4.46,-6.83 5.28,-15.6 3.47,-23.56 -1.81,-7.96 -6,-15.16 -11,-21.61 -9.58,-12.44 -25.68,-17.05 -40.84,-14.62 z"
       transform="translate(-33.81,-66.43)"
       fill="#303d5c"
       id="path199" />
    <path
       d="m 148.62,439.36 c -0.45,2.86 -1,5.72 -1.64,8.55 a 83.67,83.67 0 0 1 -2.76,9.66 9.22,9.22 0 0 0 -0.87,4.44 8.07,8.07 0 0 0 1.07,2.64 c 3.65,6.49 8.59,12.76 9,20.2 0.1,1.85 0,3.86 1,5.39 q 4.23,-9.11 9.34,-17.76 c 3.56,-6 7.52,-12.14 8.54,-19.08 a 35.75,35.75 0 0 0 -0.13,-9.8 c -0.47,-3.65 -1.29,-7.39 -3.51,-10.31 -2.42,-3.16 -9,-7.93 -13.33,-6.94 -5.03,1.15 -6.07,8.94 -6.71,13.01 z"
       transform="translate(-33.81,-66.43)"
       fill="#091454"
       id="path201" />
    <path
       d="m 277.51,474.34 c 4.78,-1.95 9.66,-4 13.45,-7.52 a 44,44 0 0 0 6.12,-7.59 L 308.33,443 c 2.66,-3.86 5.41,-7.91 6,-12.56 a 41.36,41.36 0 0 0 11.23,-25.54 c 0.08,-0.95 0.4,-2.2 1.35,-2.23 a 1.67,1.67 0 0 1 1.1,0.53 6.33,6.33 0 0 1 2,5.39 c 1.64,-0.08 3.42,-0.12 4.76,0.84 1.34,0.96 1.7,3.34 0.26,4.13 a 2.06,2.06 0 0 1 1.43,2.33 c 1.72,-0.34 3.61,-0.62 5.13,0.24 1.52,0.86 2.1,3.38 0.63,4.32 a 4.46,4.46 0 0 1 2.85,4.27 8.48,8.48 0 0 1 -1.95,5 c -4.32,5.8 -11.94,8.14 -16.95,13.36 a 40.37,40.37 0 0 0 -4.41,5.89 l -14.51,22.08 c -4.61,7 -9.34,14.17 -15.92,19.39 a 14.57,14.57 0 0 1 -5.93,3.15 6.53,6.53 0 0 1 -6.23,-1.73 c -1.45,-1.65 -1.67,-4 -1.81,-6.21 -0.24,-3.72 0.4,-7.56 0.15,-11.31 z"
       transform="translate(-33.81,-66.43)"
       fill="#ee8e9e"
       id="path203" />
    <path
       d="m 228.92,781 a 12.1,12.1 0 0 1 1.55,1.88 6.56,6.56 0 0 1 0.65,5.38 7.19,7.19 0 0 1 -3.51,4.16 6.41,6.41 0 0 0 -1.11,0.64 6.3,6.3 0 0 1 -0.68,0.58 2.77,2.77 0 0 1 -1.51,0.28 53.37,53.37 0 0 1 -11.47,-2 c -1.72,-0.43 -3.54,-0.92 -4.74,-2.22 a 9.07,9.07 0 0 1 -1.62,-3.15 l -1.36,-3.79 a 43.94,43.94 0 0 1 -2.09,-7.06 14.48,14.48 0 0 1 0.38,-7.28 2.29,2.29 0 0 1 0.5,1.49 16.3,16.3 0 0 0 2.92,7.06 7.17,7.17 0 0 0 1.14,1.43 7.26,7.26 0 0 0 3.41,1.43 42.3,42.3 0 0 0 7.26,0.93 2,2 0 0 0 1,-0.12 1.79,1.79 0 0 0 0.83,-1 4.42,4.42 0 0 0 0,-3 c -0.66,-1.85 -2.47,-3.06 -3.33,-4.82 -0.65,-1.3 0.24,-2.73 1.56,-1.63 a 41.57,41.57 0 0 1 3.35,3.54 z"
       transform="translate(-33.81,-66.43)"
       fill="#303d5c"
       id="path205" />
    <path
       d="m 216.35,754.73 c -0.39,6.11 -0.66,12.71 2.68,17.84 1.21,1.84 2.82,3.39 4.19,5.12 a 6.1,6.1 0 0 1 1.5,3.09 c 0.19,2.24 -1.91,4.16 -4.12,4.58 -2.21,0.42 -4.47,-0.28 -6.61,-1 a 15.92,15.92 0 0 1 -5.61,-2.64 c -2.91,-2.46 -3.68,-6.56 -4.26,-10.32 l -1.36,-8.74 a 20.9,20.9 0 0 1 1.24,-13.2 l 2.24,-6.56 a 3,3 0 0 1 1,-1.63 2.78,2.78 0 0 1 1.71,-0.32 c 2.14,0.11 7.55,0.89 8.59,3.16 0.88,1.97 -1.04,8.27 -1.19,10.62 z"
       transform="translate(-33.81,-66.43)"
       fill="#ee8e9e"
       id="path207" />
    <path
       d="m 216.35,754.73 c -0.39,6.11 -0.66,12.71 2.68,17.84 1.21,1.84 2.82,3.39 4.19,5.12 a 6.1,6.1 0 0 1 1.5,3.09 c 0.19,2.24 -1.91,4.16 -4.12,4.58 -2.21,0.42 -4.47,-0.28 -6.61,-1 a 15.92,15.92 0 0 1 -5.61,-2.64 c -2.91,-2.46 -3.68,-6.56 -4.26,-10.32 l -1.36,-8.74 a 20.9,20.9 0 0 1 1.24,-13.2 l 2.24,-6.56 a 3,3 0 0 1 1,-1.63 2.78,2.78 0 0 1 1.71,-0.32 c 2.14,0.11 7.55,0.89 8.59,3.16 0.88,1.97 -1.04,8.27 -1.19,10.62 z"
       transform="translate(-33.81,-66.43)"
       opacity="0.05"
       id="path209" />
    <path
       d="m 264.42,573.62 a 1.11,1.11 0 0 1 0,0.17 7.49,7.49 0 0 1 -0.82,2.47 35.52,35.52 0 0 0 -3.16,12.74 11.18,11.18 0 0 1 -0.44,3.22 16,16 0 0 1 -1.64,2.83 c -1.95,3.17 -2.4,7 -3.05,10.63 a 84,84 0 0 1 -3.72,13.94 c -2.23,6.18 -5.23,12.5 -4.21,19 a 19.52,19.52 0 0 1 0.58,4.67 13.56,13.56 0 0 1 -1.83,4.91 q -1.12,2.22 -2,4.55 c -0.65,1.66 -1.23,3.36 -1.74,5.08 -0.6,2.09 -1,4.57 0.38,6.25 a 7.62,7.62 0 0 1 1.13,1.37 3.67,3.67 0 0 1 0,2.36 q -1.19,5 -2.54,10 c -0.7,2.6 -1.44,5.18 -2.2,7.76 -5.62,18.87 -12,37.55 -15.76,56.88 -0.54,2.78 -4.11,4.77 -6.87,5.38 a 9,9 0 0 1 -7.9,-2.11 c -0.19,-0.17 -0.37,-0.36 -0.54,-0.54 -2.9,-3.12 -3.33,-7.91 -3.11,-12.23 1,-19.89 11,-38.1 15.76,-57.43 a 111.1,111.1 0 0 0 3.1,-21.32 c 1.11,-24 1.56,-49.38 -5.23,-72.45 -1.41,-4.8 -3.08,-10.22 -0.54,-14.52 1.6,-2.72 4.57,-4.33 7.51,-5.49 a 48.31,48.31 0 0 1 37.46,1 11.64,11.64 0 0 1 -0.06,1.44 14.76,14.76 0 0 0 0.76,6.62 8.41,8.41 0 0 1 0.68,2.82 z"
       transform="translate(-33.81,-66.43)"
       fill="#303d5c"
       id="path211" />
    <path
       d="m 182.2,760.88 -1.27,4.62 a 52.36,52.36 0 0 1 -2.7,8.13 34.92,34.92 0 0 0 -2.4,5.52 17.13,17.13 0 0 0 -0.41,4.74 14.15,14.15 0 0 0 0.65,4.49 11.15,11.15 0 0 0 6.54,6.2 30.48,30.48 0 0 0 9.1,1.71 7.36,7.36 0 0 0 2.39,-0.06 6.49,6.49 0 0 0 2.31,-1.21 c 4.22,-3.09 6.39,-8.79 6.77,-14 a 17.2,17.2 0 0 0 -0.71,-3.58 c -0.33,-0.44 -3.52,1.36 -2.15,2.87 2,2.22 -3.89,1.07 -6.89,0.88 a 25.91,25.91 0 0 1 -3.91,-0.64 l -4.86,-1 c -1.59,-0.34 -3.42,-0.89 -4,-2.41 -0.58,-1.52 0.66,-3.34 1.62,-4.82 2.54,-3.93 3.2,-8.74 3.79,-13.38 0.11,-0.91 1.25,-6.82 -1.1,-5 a 6.63,6.63 0 0 0 -1.63,3.07 c -0.43,1.25 -0.79,2.56 -1.14,3.87 z"
       transform="translate(-33.81,-66.43)"
       fill="#303d5c"
       id="path213" />
    <path
       d="m 242.72,664.09 c -1.38,-1.68 -1,-4.16 -0.37,-6.25 0.22,-0.78 0.47,-1.55 0.73,-2.32 L 224,649.06 c -0.07,1.72 -0.15,3.42 -0.23,5.12 a 110.52,110.52 0 0 1 -3.09,21.33 c -4.77,19.32 -14.78,37.53 -15.76,57.41 -0.23,4.58 0.26,9.7 3.65,12.78 a 9,9 0 0 0 7.89,2.12 c 2.77,-0.61 6.33,-2.61 6.88,-5.39 3.78,-19.33 10.13,-38 15.76,-56.89 q 2.63,-8.79 4.74,-17.72 a 3.64,3.64 0 0 0 0,-2.35 7,7 0 0 0 -1.12,-1.38 z"
       transform="translate(-33.81,-66.43)"
       opacity="0.05"
       id="path215" />
    <path
       d="m 190,739.92 c -1.51,2.6 -3.81,4.9 -4.16,7.88 -0.21,1.79 0.34,3.59 0.33,5.4 a 17.55,17.55 0 0 1 -0.79,4.41 q -2.79,10.07 -6.42,19.86 a 5.45,5.45 0 0 0 -0.51,2.7 c 0.24,1.53 1.73,2.54 3.15,3.15 4.55,1.94 9.67,1.81 14.61,1.61 a 7.67,7.67 0 0 0 4.11,-1 c 1.77,-1.21 2.21,-3.6 2.32,-5.74 0.34,-6.2 -0.71,-12.43 0,-18.59 0.25,-2.25 0.72,-4.46 1.07,-6.69 0.49,-3.1 0.74,-6.36 -0.28,-9.33 a 21.39,21.39 0 0 0 -3.5,-5.87 18.45,18.45 0 0 0 -4.85,-4.84 c -0.58,-0.34 -2.23,-1.4 -2.82,-0.74 -0.3,0.34 -0.17,1.25 -0.21,1.67 a 17.51,17.51 0 0 1 -0.34,1.92 15.83,15.83 0 0 1 -1.71,4.2 z"
       transform="translate(-33.81,-66.43)"
       fill="#ee8e9e"
       id="path217" />
    <path
       d="m 226.66,581.36 c -0.89,1.21 -0.71,2.89 -0.35,4.35 0.63,2.64 1.69,5.17 2.55,7.74 a 107.7,107.7 0 0 1 3.28,14.08 c 0.8,4.3 2.5,9.09 1.81,13.42 a 95.62,95.62 0 0 1 10.13,31.81 c 0.39,2.85 -5.94,6.53 -5.82,9.4 0.24,5.72 4.8,6.18 1.44,10.74 -0.17,0.23 1.26,5.34 1.07,5.56 -1.37,1.65 -3.11,3 -4.58,4.51 a 34.67,34.67 0 0 0 -4.83,7.07 c -8.7,15.72 -21.28,33.54 -17.4,51.09 a 3.11,3.11 0 0 1 -1.66,3.15 8.6,8.6 0 0 1 -3.68,0.85 h -0.6 c -2.9,-3.12 -3.33,-7.91 -3.11,-12.23 1,-19.89 11,-38.1 15.76,-57.43 a 111.1,111.1 0 0 0 3.1,-21.32 c 1.11,-24 1.56,-49.38 -5.23,-72.45 -1.41,-4.8 -3.08,-10.22 -0.54,-14.52 1.6,-2.72 4.57,-4.33 7.51,-5.49 a 48.31,48.31 0 0 1 37.46,1 11.64,11.64 0 0 1 -0.06,1.44 14.76,14.76 0 0 0 0.76,6.62 8.41,8.41 0 0 1 0.75,2.88 c 0,0 0.34,-3.87 0.33,-3.81 -7.75,1.11 -15.93,6.18 -23.75,7.33 a 55.43,55.43 0 0 0 -11.91,2.62 5.36,5.36 0 0 0 -2.43,1.59 z"
       transform="translate(-33.81,-66.43)"
       opacity="0.05"
       id="path219" />
    <path
       d="m 172.67,538.78 q -1.57,5 -2.77,10.1 a 8.45,8.45 0 0 0 -0.28,3.63 c 0.25,1.14 1,2.16 1.08,3.32 0.18,1.8 -1.07,3.39 -1.76,5.06 -1.76,4.25 0.12,9.05 2,13.26 l 5.52,12.5 4.54,10.26 c 1.35,3.05 2.69,6.1 4,9.17 a 297.33,297.33 0 0 1 14.41,43.19 5.32,5.32 0 0 0 0.74,1.88 c 0.77,1 2.16,1.32 3.28,1.94 3.4,1.86 3.79,7.44 0.68,9.76 0.64,7.51 -5,14.76 -7.89,21.72 -6.68,16 -5.47,34 -7.76,51.2 l 2.59,-1.52 c 2.49,1.14 2.4,4.67 3.74,7.06 2,3.59 6.92,4.09 11,3.82 a 8.52,8.52 0 0 0 3.67,-0.85 3.1,3.1 0 0 0 1.66,-3.15 c -3.87,-17.55 8.7,-35.37 17.41,-51.09 a 34.63,34.63 0 0 1 4.82,-7.07 c 1.48,-1.56 3.21,-2.87 4.59,-4.51 3.84,-4.61 4.33,-11.11 4.07,-17.11 a 95.78,95.78 0 0 0 -10.9,-40.41 c 0.7,-4.32 -1,-9.11 -1.8,-13.41 A 105.27,105.27 0 0 0 226,593.46 c -0.86,-2.59 -1.91,-5.11 -2.55,-7.75 -0.35,-1.46 -0.54,-3.14 0.35,-4.35 a 5.39,5.39 0 0 1 2.46,-1.59 55.43,55.43 0 0 1 11.91,-2.62 L 265,573.3 c 0.86,-5.51 1.74,-11.65 1.14,-17.19 A 26.43,26.43 0 0 0 247.21,534 c -1.17,-0.31 -2.54,-0.51 -3.5,0.23 a 139.6,139.6 0 0 0 -71.04,4.55 z"
       transform="translate(-33.81,-66.43)"
       fill="#303d5c"
       id="path221" />
    <path
       d="m 197,393.87 a 13.17,13.17 0 0 1 -1.17,7.68 12.06,12.06 0 0 1 -3,3.37 23,23 0 0 1 -8.84,4.39 c -1.9,0.48 -4,0.8 -5.29,2.31 -1.88,2.27 -0.62,5.71 1,8.19 2.78,4.32 6.64,8.23 11.59,9.58 4,1.08 8.17,0.42 12.21,1.12 2.93,0.51 5.69,1.72 8.58,2.41 a 25.34,25.34 0 0 0 23.27,-6.49 c -4.3,-3.3 -8.76,-6.81 -11,-11.75 a 16.67,16.67 0 0 1 -0.84,-11.24 c 1,-3.66 3.35,-7.22 2.63,-11 -0.72,-3.78 -4.4,-6.31 -8,-7.57 A 52.2,52.2 0 0 0 208,382.86 c -1.89,-0.26 -13.89,-2.91 -14.64,-1.6 -0.42,0.74 2.07,5.12 2.38,6.09 a 23.16,23.16 0 0 1 1.26,6.52 z"
       transform="translate(-33.81,-66.43)"
       fill="#ee8e9e"
       id="path223" />
    <circle
       cx="178.32001"
       cy="311.85999"
       r="24.34"
       fill="#ee8e9e"
       id="circle225" />
    <path
       d="m 199.27,418.52 16.51,2.78 a 61.77,61.77 0 0 0 12.33,1.24 34.35,34.35 0 0 1 6.8,0 c 1.56,0.26 3.05,0.85 4.61,1.05 1.93,0.24 3.89,-0.13 5.82,0.12 3.58,0.46 6.53,2.94 9.25,5.31 3.19,2.78 6.62,6 6.87,10.25 a 3.11,3.11 0 0 1 -0.2,1.42 4.17,4.17 0 0 1 -1.23,1.28 c -3,2.49 -4.73,6.2 -6.89,9.48 a 36.53,36.53 0 0 1 -8.2,8.85 c -0.72,-0.46 -2.09,0.75 -1.78,1.55 0.31,0.8 1.1,1.35 1.36,2.16 0.59,1.87 -1.72,3.25 -2.68,5 -0.96,1.75 -0.47,3.88 -0.57,5.87 -0.12,2.19 -1,4.28 -1.27,6.45 -0.67,5.07 1.84,10.41 0.07,15.2 2.17,-0.27 4.13,1.6 4.74,3.69 0.61,2.09 0.22,4.34 -0.19,6.48 a 8.91,8.91 0 0 1 4.32,8.14 1.4,1.4 0 0 0 1,1.94 8.24,8.24 0 0 1 5.07,7.63 3.82,3.82 0 0 0 0.15,1.62 3.58,3.58 0 0 0 1.19,1.23 9.48,9.48 0 0 1 3.54,7.42 c 0,1.93 -0.8,4 -2.51,4.87 -3.5,1.78 -7.25,2.47 -11.09,3.3 a 97.58,97.58 0 0 1 -10.73,1.91 98.85,98.85 0 0 1 -10,0.31 l -22.08,-0.09 c -6.21,0 -12.42,0 -18.61,-0.47 -5.78,-0.39 -11.69,-1.11 -17.29,0.41 -0.7,-1.19 0.42,-2.56 1.11,-3.75 a 12.48,12.48 0 0 0 1.26,-5.2 l 1.4,-14.71 a 27.07,27.07 0 0 0 0.11,-6.1 c -0.3,-2.17 -1.12,-4.22 -1.54,-6.37 -0.8,-4.12 -0.07,-8.38 -0.26,-12.58 a 57.61,57.61 0 0 0 -1.93,-11 l -4.38,-18 c -0.7,-2.89 -1.07,-6.25 -2.15,-9 q -5.05,-13 -10.59,-25.72 a 2.73,2.73 0 0 1 0.2,-2.28 l 3.65,-6.54 a 41.39,41.39 0 0 1 3.34,-5.33 21,21 0 0 1 12.32,-7.56 21.72,21.72 0 0 1 14.33,2.12 c 1.7,0.91 3.28,2 5,2.9 2.95,1.4 6.55,2.94 9.82,2.72 z"
       transform="translate(-33.81,-66.43)"
       fill="#091454"
       id="path227" />
    <path
       d="m 257.85,434.55 5.75,7.67 a 10.67,10.67 0 0 1 1.34,2.12 c 0.86,2 0.39,4.36 0.85,6.51 a 13.72,13.72 0 0 0 1.69,3.89 87.5,87.5 0 0 0 7.31,10.87 18.83,18.83 0 0 0 4.55,4.49 7.48,7.48 0 0 0 6.12,1.09 3.77,3.77 0 0 0 -2,1.82 c -2.19,4.34 -2.35,9.48 -1.42,14.24 a 14.4,14.4 0 0 0 1.6,4.66 6.92,6.92 0 0 0 3.66,3.17 5.38,5.38 0 0 1 -6.35,4.56 10.33,10.33 0 0 1 -3.15,-1.57 l -9.24,-6 a 25.71,25.71 0 0 1 -4.3,-3.23 c -1.73,-1.72 -2.93,-3.9 -4.61,-5.67 -2.86,-3 -7.06,-4.84 -9.08,-8.48 -1.27,-2.28 -1.49,-5 -2.27,-7.46 -0.51,-1.63 -1.26,-3.17 -1.75,-4.81 -1.52,-5.06 -0.42,-10.61 1.89,-15.36 2.31,-4.75 5.99,-8.47 9.41,-12.51 z"
       transform="translate(-33.81,-66.43)"
       fill="#091454"
       id="path229" />
    <path
       d="m 236.18,364.41 a 32.26,32.26 0 0 0 -8.56,-8.91 c -4.55,-3.39 -9.78,-6.21 -15.45,-6.53 a 16.72,16.72 0 0 0 -6.95,1.13 c -0.11,-6.87 -1.81,-11.45 -6.11,-10.76 -8,1.29 -16.9,4.37 -20,11.87 -2.31,5.67 -0.52,12.05 0.07,18.14 a 14,14 0 0 1 -0.17,4.83 c -0.66,2.57 -2.48,4.65 -4.24,6.64 a 35.21,35.21 0 0 0 -6.09,8.54 c -1.44,3.2 -1.9,7 -0.41,10.2 a 7.35,7.35 0 0 1 1,2.69 c 0.1,2.08 -2.08,3.4 -3.68,4.73 -6,5 -5.75,14 -5.8,21.83 A 110.71,110.71 0 0 1 149.4,475 a 14.11,14.11 0 0 0 15.77,-2.06 52.55,52.55 0 0 1 -3.58,10.32 c 5.08,2.46 11.21,-1.58 13.76,-6.62 2.55,-5.04 2.85,-10.9 4.66,-16.25 1.81,-5.35 5,-10 6.41,-15.39 0.45,-1.78 0.73,-3.68 1.82,-5.16 a 13.58,13.58 0 0 1 3.2,-2.73 c 5.24,-3.76 -2.48,-32.25 -0.43,-38.37 3,0.67 8.65,-14 11.84,-29 a 15.1,15.1 0 0 0 6.93,0.69 8.58,8.58 0 0 1 2.47,-0.17 6.36,6.36 0 0 1 2.16,0.88 54.67,54.67 0 0 0 7.38,3.79 c 5.28,2 11.08,1.71 16.71,1.43 a 16.65,16.65 0 0 0 -2.32,-11.95 z"
       transform="translate(-33.81,-66.43)"
       fill="#303d5c"
       id="path231" />
    <g
       opacity="0.1"
       id="g243">
      <path
         d="m 152.26,475 a 110.41,110.41 0 0 0 10.44,-46.15 c 0.05,-7.8 -0.21,-16.86 5.8,-21.83 1.6,-1.33 3.78,-2.65 3.68,-4.73 a 7.51,7.51 0 0 0 -1,-2.69 c -1.49,-3.18 -1,-7 0.4,-10.2 a 35,35 0 0 1 6.1,-8.54 c 1.75,-2 3.58,-4.07 4.23,-6.64 a 14.22,14.22 0 0 0 0.18,-4.83 c -0.6,-6.09 -2.38,-12.47 -0.07,-18.14 3,-7.26 11.39,-10.37 19.19,-11.73 a 4.39,4.39 0 0 0 -2.1,-0.14 c -8,1.29 -16.9,4.37 -20,11.87 -2.31,5.67 -0.52,12.05 0.07,18.14 a 14,14 0 0 1 -0.17,4.83 c -0.66,2.57 -2.48,4.65 -4.24,6.64 a 35.21,35.21 0 0 0 -6.09,8.54 c -1.44,3.2 -1.9,7 -0.41,10.2 a 7.35,7.35 0 0 1 1,2.69 c 0.1,2.08 -2.08,3.4 -3.68,4.73 -6,5 -5.75,14 -5.8,21.83 A 110.71,110.71 0 0 1 149.4,475 a 13.68,13.68 0 0 0 7.73,1.45 13.2,13.2 0 0 1 -4.87,-1.45 z"
         transform="translate(-33.81,-66.43)"
         id="path233" />
      <path
         d="m 164.45,483.22 a 52.55,52.55 0 0 0 3.55,-10.32 13.34,13.34 0 0 1 -3.46,2.29 52.32,52.32 0 0 1 -3,8 7.6,7.6 0 0 0 4.7,0.6 7.47,7.47 0 0 1 -1.79,-0.57 z"
         transform="translate(-33.81,-66.43)"
         id="path235" />
      <path
         d="m 208.08,350.1 a 16.77,16.77 0 0 1 4.64,-1.08 h -0.55 a 16.29,16.29 0 0 0 -4.11,0.31 c 0.01,0.22 0.02,0.49 0.02,0.77 z"
         transform="translate(-33.81,-66.43)"
         id="path237" />
      <path
         d="m 224.65,374.9 a 54.55,54.55 0 0 1 -7.37,-3.79 6.4,6.4 0 0 0 -2.17,-0.88 7.49,7.49 0 0 0 -2.26,0.14 9.26,9.26 0 0 1 1.56,0.74 54.67,54.67 0 0 0 7.38,3.79 33,33 0 0 0 12.34,1.6 28.94,28.94 0 0 1 -9.48,-1.6 z"
         transform="translate(-33.81,-66.43)"
         id="path239" />
      <path
         d="m 205.71,369.71 c 0,0.22 -0.09,0.44 -0.14,0.66 a 15.12,15.12 0 0 0 3.62,0.1 16,16 0 0 1 -3.48,-0.76 z"
         transform="translate(-33.81,-66.43)"
         id="path241" />
    </g>
    <path
       d="m 155.05,482.59 a 8.94,8.94 0 0 1 -2.4,7.11 15.76,15.76 0 0 1 -3.39,2.49 9,9 0 0 1 -4,1.51 7.61,7.61 0 0 1 -5.14,-2.23 c -4.24,-3.72 -6.36,-9.23 -8.32,-14.52 -2.59,-7 -5.17,-14.07 -6.28,-21.46 -1.19,-7.92 -0.68,-16.12 -2.95,-23.81 2,-4 3.3,-8.46 5.59,-12.34 a 57.47,57.47 0 0 0 3.85,-7.22 25,25 0 0 0 0.68,-16.66 2.26,2.26 0 0 1 2.66,0.14 5.51,5.51 0 0 1 1.6,2.33 20.66,20.66 0 0 1 1.6,9.79 3.8,3.8 0 0 0 0.27,2.39 3,3 0 0 0 2.6,1.1 23.47,23.47 0 0 0 6,-1.09 55.75,55.75 0 0 1 18.51,-1.53 8.93,8.93 0 0 1 3.61,0.88 3.36,3.36 0 0 1 1.86,3 l -14.8,2.17 a 6.1,6.1 0 0 0 -3.11,1.06 2.1,2.1 0 0 0 -0.42,2.93 6.87,6.87 0 0 0 1,0.68 3,3 0 0 1 -0.12,4.87 3.44,3.44 0 0 0 -1,0.7 c -0.6,0.81 0.2,1.88 0.46,2.86 a 3.61,3.61 0 0 1 -1.78,3.69 12.37,12.37 0 0 1 -4.13,1.39 44.3,44.3 0 0 0 -8.45,2.87 4.64,4.64 0 0 0 -2.2,1.65 c -0.73,1.24 -0.25,2.8 0.25,4.15 l 3.86,10.38 c 0.6,1.63 1.21,3.26 2,4.83 1,2 2.19,3.94 3.2,6 1.01,2.06 1.67,3.85 2.41,5.81 1.93,5.29 5.82,8.49 6.48,14.08 z"
       transform="translate(-33.81,-66.43)"
       fill="#ee8e9e"
       id="path245" />
    <rect
       x="254.78999"
       y="348.82001"
       width="46.130001"
       height="44.66"
       fill="url(#fa251bcb-f561-47ff-8b25-b5a12635a0f6)"
       id="rect247"
       style="fill:url(#fa251bcb-f561-47ff-8b25-b5a12635a0f6)" />
    <rect
       x="255.59"
       y="349.59"
       width="44.540001"
       height="43.119999"
       fill="#7cfcff"
       id="rect249" />
    <path
       d="m 326.22,412.62 a 4.6,4.6 0 0 0 -1.69,2.47 1,1 0 0 0 0.39,1.12 1.12,1.12 0 0 0 0.68,0 6.35,6.35 0 0 0 3,-1.41 3,3 0 0 0 -0.89,0.72 1,1 0 0 0 -0.12,1.08 1.41,1.41 0 0 0 1,0.51 9.57,9.57 0 0 0 4.29,-0.2 5.89,5.89 0 0 0 -1.78,1.05 2.39,2.39 0 0 0 -0.81,1.85 0.92,0.92 0 0 0 0.32,0.69 1.15,1.15 0 0 0 0.48,0.17 11.56,11.56 0 0 0 4,0 2.05,2.05 0 0 0 1.68,-1 2.52,2.52 0 0 0 -0.39,-1.93 10.79,10.79 0 0 1 -1,-4.88 1.92,1.92 0 0 0 -0.14,-1 1.78,1.78 0 0 0 -0.89,-0.65 c -1.41,-0.62 -3.33,-1.48 -4.9,-1 a 10.31,10.31 0 0 0 -3.23,2.41 z"
       transform="translate(-33.81,-66.43)"
       fill="#ee8e9e"
       id="path251" />
  </g>
</svg>
