<?xml version="1.0" encoding="UTF-8" standalone="no"?>
<svg
   xmlns:dc="http://purl.org/dc/elements/1.1/"
   xmlns:cc="http://creativecommons.org/ns#"
   xmlns:rdf="http://www.w3.org/1999/02/22-rdf-syntax-ns#"
   xmlns:svg="http://www.w3.org/2000/svg"
   xmlns="http://www.w3.org/2000/svg"
   xmlns:sodipodi="http://sodipodi.sourceforge.net/DTD/sodipodi-0.dtd"
   xmlns:inkscape="http://www.inkscape.org/namespaces/inkscape"
   id="b7beff1d-4669-4e7a-8a2b-595f3c3ac055"
   data-name="Layer 1"
   width="748.18506"
   height="748.18506"
   viewBox="0 0 748.18504 748.18505"
   version="1.1"
   sodipodi:docname="contexts.svg"
   inkscape:version="1.0.2 (e86c870879, 2021-01-15)">
  <metadata
     id="metadata51">
    <rdf:RDF>
      <cc:Work
         rdf:about="">
        <dc:format>image/svg+xml</dc:format>
        <dc:type
           rdf:resource="http://purl.org/dc/dcmitype/StillImage" />
        <dc:title />
      </cc:Work>
    </rdf:RDF>
  </metadata>
  <defs
     id="defs49" />
  <sodipodi:namedview
     pagecolor="#ffffff"
     bordercolor="#666666"
     borderopacity="1"
     objecttolerance="10"
     gridtolerance="10"
     guidetolerance="10"
     inkscape:pageopacity="0"
     inkscape:pageshadow="2"
     inkscape:window-width="1920"
     inkscape:window-height="1016"
     id="namedview47"
     showgrid="false"
     inkscape:zoom="1.8536127"
     inkscape:cx="331.94702"
     inkscape:cy="405.2505"
     inkscape:window-x="1366"
     inkscape:window-y="0"
     inkscape:window-maximized="1"
     inkscape:current-layer="b7beff1d-4669-4e7a-8a2b-595f3c3ac055"
     inkscape:document-rotation="0" />
  <path
     d="m 176.01026,512.37242 c -1.91992,15.13 -8.62011,29.08 -16.09033,42.5 -0.36963,0.67 -0.73974,1.33 -1.11963,2 H 62.02003 c -1.71973,-0.61 -3.41016,-1.28 -5.08984,-2 a 89.66,89.66 0 0 1 -17.53028,-9.81 c -31.48,-22.68 -43.59961,-65.54 -38.11963,-103.94 3.38965,-23.87 13.86963,-48.23 34.25977,-61.08 a 51.491,51.491 0 0 1 36.98,-6.48 q 0.49512,0.09 0.99023,0.21 c 10.65967,2.4 20.15967,8.36 25.56983,17.97 9.72021,17.27 3.93017,38.66 -0.8501,57.88 -4.77,19.23 -7.34961,42.23 6.48,56.41 a 35.276,35.276 0 0 1 41.02,-45.86 c 1,0.21 1.99024,0.45 2.97022,0.75 a 32.7144,32.7144 0 0 1 6.75,2.83 c 16.31003,9.10999 22.90964,30.08997 20.56003,48.62 z"
     id="path2"
     style="fill:#999999" />
  <path
     d="m 112.91017,554.87242 c 2.16015,0.73 4.33984,1.39 6.52978,2 h -9.46972 q -2.64039,-0.93 -5.24024,-2 c -0.37988,-0.15 -0.77,-0.31 -1.1499,-0.47 -14.29,-5.99005 -27.44971,-14.99005 -37.3999,-26.97 a 75.652,75.652 0 0 1 -11.79981,-19.27 87.28893,87.28893 0 0 1 -6.04,-24.66 c -1.80029,-17.38 0.0298,-35.24 3.46973,-52.31 a 218.1105,218.1105 0 0 1 17.06006,-51.16 q 1.40991,-2.92493 2.8999,-5.81994 a 1.17575,1.17575 0 0 1 0.75,-0.65 1.31373,1.31373 0 0 1 0.99023,0.21 1.54512,1.54512 0 0 1 0.60987,2.04 215.66664,215.66664 0 0 0 -18.1001,49.31 c -3.91992,16.7 -6.1499,34.17 -5.37988,51.33 0.71972,16.04 4.91015,31.81 14.41992,44.93 a 90.58321,90.58321 0 0 0 33.93017,27.84 113.94076,113.94076 0 0 0 13.91989,5.64994 z"
     fill="#ffffff"
     id="path4" />
  <path
     d="m 151.08009,556.87242 h -3.66992 c -0.52,-0.66 -1.02,-1.33 -1.51026,-2 a 81.26322,81.26322 0 0 1 -14.3999,-33.09 79.4038,79.4038 0 0 1 6.84033,-49.37 81.55406,81.55406 0 0 1 7.38965,-12.24 c 1,0.21 1.99024,0.45 2.97022,0.75 a 78.05127,78.05127 0 0 0 -14.56006,33.39 77.43711,77.43711 0 0 0 15.31982,60.56 c 0.53027,0.67999 1.07031,1.34998 1.62012,2 z"
     fill="#ffffff"
     id="path6" />
  <path
     d="m 338.69128,373.57113 a 10.74269,10.74269 0 0 0 -9.60349,-13.3836 l -61.11578,-76.40981 -15.1219,14.0947 64.56173,72.989 a 10.80091,10.80091 0 0 0 21.27944,2.7097 z"
     fill="#ffb8b8"
     id="path8" />
  <path
     d="m 279.69636,295.91564 -19.31454,14.79158 a 4.81688,4.81688 0 0 1 -7.14065,-1.48734 l -11.76564,-21.20924 a 13.37737,13.37737 0 0 1 21.28884,-16.20481 l 17.35724,16.8283 a 4.81688,4.81688 0 0 1 -0.42524,7.2815 z"
     fill="#cccccc"
     id="path10" />
  <circle
     cx="247.25957"
     cy="225.22675"
     r="24.561029"
     fill="#ffb8b8"
     id="circle12" />
  <polygon
     points="310.78,333.56 292.686,333.561 299.688,356.506 311.948,356.506 "
     fill="#ffb8b8"
     id="polygon14"
     transform="translate(9.296875e-6,187.31264)" />
  <path
     d="m 296.56086,539.81612 24.1438,-10e-4 h 0.001 a 15.38605,15.38605 0 0 1 15.38647,15.38623 v 0.5 l -39.53052,10e-4 z"
     fill="#2f2e41"
     id="path16" />
  <polygon
     points="190.472,325.456 177.85,317.56 168.975,339.148 179.405,345.591 "
     fill="#ffb8b8"
     id="polygon18"
     transform="translate(9.296875e-6,187.31264)" />
  <path
     d="m 168.41835,521.4121 20.5409,12.68835 8.3e-4,5.2e-4 a 15.38605,15.38605 0 0 1 5.00359,21.17649 l -0.26278,0.42537 -33.63145,-20.77468 z"
     fill="#2f2e41"
     id="path20" />
  <path
     d="m 298.80177,537.09117 a 4.49106,4.49106 0 0 1 -4.19776,-2.90137 L 250.25782,428.16344 a 1.50038,1.50038 0 0 0 -2.65039,-0.32227 l -60.92309,95.97168 a 4.48346,4.48346 0 0 1 -5.63843,1.56934 l -8.33618,-3.89063 a 4.51835,4.51835 0 0 1 -2.20288,-5.91992 L 220.4192,404.31285 c -1.0896,-2.65137 -11.72,-29.876 4.613,-43.32617 l 0.11425,-0.0713 44.28931,-19.75586 1.11677,33.97461 44.14429,153.165 a 4.4997,4.4997 0 0 1 -3.179,5.59863 l -11.563,3.043 a 4.51506,4.51506 0 0 1 -1.15305,0.1504 z"
     fill="#2f2e41"
     id="path22" />
  <path
     d="m 270.10597,291.46214 c -1.68653,-6.76849 -4.07715,-13.59082 -7.28076,-16.74047 a 40.5553,40.5553 0 0 1 -3.3147,-3.65052 24.27345,24.27345 0 0 0 -7.95093,-6.51507 c 1.12891,-0.62812 1.79053,-1.37732 1.79053,-2.18366 0,-2.20917 -4.92481,-4 -11,-4 -6.07519,0 -11,1.79083 -11,4 a 1.95226,1.95226 0 0 0 0.65381,1.34754 23.40759,23.40759 0 0 0 -14.47193,19.515 c -1.42065,15.21588 -1.83545,34.66553 3.14356,46.96814 a 45.29092,45.29092 0 0 1 0.93432,31.91888 3.99439,3.99439 0 0 0 5.28858,4.96918 l 43.94678,-17.70935 a 3.99981,3.99981 0 0 0 2.50488,-3.71008 v -26.89715 a 112.9544,112.9544 0 0 0 -3.24414,-27.31244 z"
     fill="#cccccc"
     id="path24" />
  <path
     d="m 186.02083,402.24292 a 10.74267,10.74267 0 0 0 7.44457,-14.69441 l 34.38471,-90.67609 -17.43694,-4.502 -31.80418,89.74234 a 10.80091,10.80091 0 0 0 7.41184,20.13012 z"
     fill="#ffb8b8"
     id="path26" />
  <path
     d="m 227.70672,314.07796 -22.03343,-10.31358 a 4.81687,4.81687 0 0 1 -1.97428,-7.02163 l 13.39052,-20.22269 a 13.37737,13.37737 0 0 1 24.198,11.41336 l -6.92415,23.16294 a 4.81688,4.81688 0 0 1 -6.65666,2.9816 z"
     fill="#cccccc"
     id="path28" />
  <path
     d="m 269.81987,219.18149 a 5.59983,5.59983 0 0 0 3.222,-0.58237 c 1.81174,-1.18564 1.63324,-3.88069 1.02032,-5.95734 A 31.00136,31.00136 0 0 0 252.7098,191.86331 c -3.49667,-0.92929 -7.921,-0.89338 -9.92127,2.12142 a 25.2576,25.2576 0 0 0 -32.67681,4.01363 c -4.1021,4.50415 -6.45332,10.37571 -7.6717,16.34481 -2.09876,10.28225 -11.08664,31.49243 -6.10786,40.73045 3.3131,6.14738 18.56032,1.35765 25.00993,4.03522 6.44961,2.67757 14.28865,2.37728 20.01763,-1.61592 5.72898,-3.9932 8.73813,-11.878 6.2821,-18.41523 -0.9498,-2.52809 -2.5966,-4.7236 -3.89569,-7.09124 -1.29909,-2.36764 -2.27115,-5.10461 -1.69135,-7.74226 0.90289,-4.10745 20.28863,-5.21666 27.76509,-5.0627 z"
     fill="#2f2e41"
     id="path30" />
  <path
     d="m 477.00001,555.87242 a 0.9965,0.9965 0 0 1 -1,1 h -475 a 1,1 0 1 1 0,-2 h 475 a 0.9965,0.9965 0 0 1 1,1 z"
     fill="#091454"
     id="path32"
     style="fill:#091454;fill-opacity:1" />
  <ellipse
     cx="548.8501"
     cy="554.87244"
     rx="35"
     ry="6"
     fill="#091454"
     style="isolation:isolate;fill:#091454;fill-opacity:1"
     id="ellipse34" />
  <path
     d="m 747.18505,557.31264 h -134 a 1,1 0 0 1 0,-2 h 134 a 1,1 0 1 1 0,2 z"
     fill="#091454"
     id="path36"
     style="fill:#091454;fill-opacity:1" />
  <path
     d="m 522.83496,294.5779 a 47.63856,47.63856 0 0 1 37.62769,-46.56726 47.62759,47.62759 0 1 0 0,93.13458 47.63858,47.63858 0 0 1 -37.62769,-46.56732 z"
     fill="#091454"
     style="isolation:isolate;fill:#091454;fill-opacity:1"
     id="path38" />
  <path
     d="M 471.00098,294.5779 A 106.47621,106.47621 0 0 1 564.46265,188.90764 106.50239,106.50239 0 0 0 445.00098,294.5779 c 0,47.75561 70.231,182.42474 96.60852,231.31982 a 11.19028,11.19028 0 0 0 19.70617,0 c 0.98731,-1.82995 2.04285,-3.794 3.147,-5.85522 -28.39626,-53.01245 -93.46169,-179.49634 -93.46169,-225.4646 z"
     fill="#091454"
     style="isolation:isolate;fill:#091454;fill-opacity:1"
     id="path40" />
  <path
     d="m 551.55347,532.97964 a 12.02658,12.02658 0 0 1 -10.73242,-6.41113 C 511.73706,472.65737 444.09253,342.15004 444.09253,294.77455 a 107.46191,107.46191 0 0 1 214.92383,0 c 0,47.37989 -67.64551,177.88379 -96.72949,231.794 a 12.027,12.027 0 0 1 -10.7334,6.41109 z m 0.001,-343.667 A 105.58109,105.58109 0 0 0 446.09253,294.77455 c 0,46.91993 67.47754,177.06641 96.48828,230.84473 a 10.19063,10.19063 0 0 0 17.94629,0 c 29.01172,-53.77637 96.48926,-183.92041 96.48926,-230.84473 A 105.5811,105.5811 0 0 0 551.55444,189.31264 Z"
     fill="#091454"
     id="path42"
     style="fill:#091454;fill-opacity:1" />
  <path
     d="m 551.55444,343.402 a 48.62769,48.62769 0 1 1 48.627,-48.62745 48.68267,48.68267 0 0 1 -48.627,48.62745 z m 0,-95.25538 a 46.62769,46.62769 0 1 0 46.627,46.62793 46.68048,46.68048 0 0 0 -46.627,-46.62791 z"
     fill="#091454"
     id="path44"
     style="fill:#091454;fill-opacity:1" />
</svg>
