<?xml version="1.0" encoding="UTF-8" standalone="no"?>
<svg
   xmlns:dc="http://purl.org/dc/elements/1.1/"
   xmlns:cc="http://creativecommons.org/ns#"
   xmlns:rdf="http://www.w3.org/1999/02/22-rdf-syntax-ns#"
   xmlns:svg="http://www.w3.org/2000/svg"
   xmlns="http://www.w3.org/2000/svg"
   xmlns:sodipodi="http://sodipodi.sourceforge.net/DTD/sodipodi-0.dtd"
   xmlns:inkscape="http://www.inkscape.org/namespaces/inkscape"
   id="a31e7729-94ce-4b70-883a-94bdaa3e886c"
   data-name="Layer 1"
   width="951.57086"
   height="951.57086"
   viewBox="0 0 951.57086 951.57084"
   version="1.1"
   sodipodi:docname="undraw_happy_announcement_ac67.svg"
   inkscape:version="1.0.2 (e86c870879, 2021-01-15)">
  <metadata
     id="metadata69">
    <rdf:RDF>
      <cc:Work
         rdf:about="">
        <dc:format>image/svg+xml</dc:format>
        <dc:type
           rdf:resource="http://purl.org/dc/dcmitype/StillImage" />
        <dc:title></dc:title>
      </cc:Work>
    </rdf:RDF>
  </metadata>
  <defs
     id="defs67" />
  <sodipodi:namedview
     pagecolor="#ffffff"
     bordercolor="#666666"
     borderopacity="1"
     objecttolerance="10"
     gridtolerance="10"
     guidetolerance="10"
     inkscape:pageopacity="0"
     inkscape:pageshadow="2"
     inkscape:window-width="1920"
     inkscape:window-height="1016"
     id="namedview65"
     showgrid="false"
     inkscape:zoom="0.61120079"
     inkscape:cx="486.99429"
     inkscape:cy="387.66551"
     inkscape:window-x="1366"
     inkscape:window-y="0"
     inkscape:window-maximized="1"
     inkscape:current-layer="a31e7729-94ce-4b70-883a-94bdaa3e886c" />
  <path
     d="m 42.38574,398.47108 c 0.90983,56.17389 21.9053,62.25537 47.68851,56.39652 29.45433,-6.693 53.6295,-27.67107 65.54457,-55.4269 l 8.21721,-19.14177 a 52.21662,52.21662 0 0 0 -27.38436,-68.5802 h -1e-4 a 52.21661,52.21661 0 0 0 -68.58022,27.38436 c -26.44194,10.38705 -31.66422,31.89112 -25.48561,59.36799 z"
     fill="#2f2e41"
     id="path2" />
  <path
     d="m 208.175,285.41102 7.91365,-13.39131 a 12.57983,12.57983 0 0 0 -7.10867,-18.41687 v 0 a 12.57983,12.57983 0 0 0 -16.2947,12.423 l 0.46505,14.39458 -37.19064,101.9211 20.28071,4.23409 z"
     fill="#9f616a"
     id="path4" />
  <path
     d="M 12.51663,536.66418 2.7759,548.79146 a 12.57982,12.57982 0 0 0 4.41236,19.24175 v 0 a 12.57983,12.57983 0 0 0 17.89835,-9.97482 l 1.59045,-14.314 51.33163,-95.583 -19.47062,-7.08022 z"
     fill="#9f616a"
     id="path6" />
  <path
     d="m 72.69855,637.55739 1.43374,17.22261 0.33632,4.01806 95.3352,-9.16888 A 21.02015,21.02015 0 0 0 186.63707,620.1577 L 155.89124,554.15234 145.2709,531.35401 99.24943,520.73367 c -37.95,29.04658 -3.80566,61.10227 39.15364,93.52972 q 2.52237,1.91174 5.09777,3.82338 z"
     fill="#2f2e41"
     id="path8" />
  <path
     d="m 40.57478,697.19604 v 0 a 6.84954,6.84954 0 0 0 6.2494,-2.41836 l 31.18452,-37.74967 -1.77006,-17.70057 -10.633,-6.37978 a 6.987,6.987 0 0 0 -10.09383,3.42593 l -20.33954,51.52682 a 6.84955,6.84955 0 0 0 5.40251,9.29563 z"
     fill="#2f2e41"
     id="path10" />
  <path
     d="m 67.38838,634.01728 1.77006,21.24067 4.97385,-0.47795 90.36135,-8.69093 a 21.02015,21.02015 0 0 0 16.83326,-29.47148 l -25.43566,-56.94268 v -5.52257 L 145.2709,531.35401 99.24943,520.73367 c -37.95,29.04658 -3.80566,61.10227 39.15364,93.52972 l -0.2124,0.28327 z"
     opacity="0.2"
     id="path12" />
  <path
     d="m 31.7245,690.11583 v 0 a 6.84951,6.84951 0 0 0 6.2494,-2.41835 l 31.18454,-37.74965 -1.77006,-17.70056 -10.633,-6.37978 a 6.987,6.987 0 0 0 -10.09384,3.42593 l -20.3395,51.52677 a 6.84954,6.84954 0 0 0 5.40246,9.29564 z"
     fill="#2f2e41"
     id="path14" />
  <path
     d="m 63.84824,630.47716 1.77,21.24068 95.33529,-9.17139 a 21.0234,21.0234 0 0 0 16.84071,-29.46749 l -25.44316,-56.94413 v -31.861 l -61.952,-10.62033 c -39.44328,30.18689 -1.01208,63.62728 44.25141,97.35309 z"
     fill="#2f2e41"
     id="path16" />
  <circle
     cx="124.03019"
     cy="354.34839"
     r="26.55084"
     fill="#9f616a"
     id="circle18" />
  <path
     d="m 88.62906,398.59983 37.17118,24.78074 31.861,-7.08022 -17.70055,-17.70052 v -26.55089 l -28.3209,-1.77005 c -0.59463,10.60256 -6.67002,20.30481 -23.01073,28.32094 z"
     fill="#9f616a"
     id="path20" />
  <path
     d="m 83.31889,522.50373 69.03219,8.85028 15.93051,-74.34237 c 7.40077,-19.73352 3.15453,-37.16842 -10.54741,-52.737 A 11.8239,11.8239 0 0 0 146.498,394.77499 l -6.53731,0.28464 c 0.7395,23.47551 -16.55636,17.82135 -42.48135,-1.77 l -3.13044,0.93913 a 17.58322,17.58322 0 0 0 -12.34088,19.41846 l 2.8545,19.26788 a 131.83032,131.83032 0 0 0 5.61911,22.46529 c 7.07752,21.1521 4.54835,43.5448 -7.16274,67.12334 z"
     fill="#e3eef9"
     id="path22" />
  <path
     d="m 51.45787,442.85119 31.861,10.62034 14.16045,-51.33163 -4.79727,-2.18058 a 17.20447,17.20447 0 0 0 -22.28465,7.538 z"
     fill="#e3eef9"
     id="path24" />
  <polygon
     points="184.211,237.678 157.66,223.518 145.27,251.839 162.971,271.309 "
     fill="#e3eef9"
     id="polygon26"
     transform="translate(8.1430873e-4,143.22094)" />
  <path
     d="m 93.05424,346.38313 c 16.68448,6.2914 34.49038,5.63913 53.10169,0 V 325.14245 H 93.05424 Z"
     fill="#2f2e41"
     id="path28" />
  <polygon
     points="692.327,578.457 669.447,573.881 736.563,340.5 814.356,340.5 921.132,567.779 902.827,575.406 780.798,409.141 "
     fill="#2f2e41"
     id="polygon30"
     transform="translate(8.1430873e-4,143.22094)" />
  <path
     d="m 945.68964,749.78629 v 0 a 7.976,7.976 0 0 1 -6.0783,-0.78277 l -38.6028,-22.22585 a 7.83329,7.83329 0 0 1 -1.6305,-12.32748 l 3.4501,-3.45006 18.3044,-1.52536 27.9821,26.86284 a 7.976,7.976 0 0 1 -3.425,13.44868 z"
     fill="#2f2e41"
     id="path32" />
  <path
     d="m 646.41579,755.88774 v 0 a 7.976,7.976 0 0 0 6.07834,-0.78278 l 38.60279,-22.22585 a 7.83329,7.83329 0 0 0 1.63043,-12.32748 l -3.45008,-3.45006 -18.30436,-1.52536 -27.98213,26.86284 a 7.976,7.976 0 0 0 3.42501,13.44869 z"
     fill="#2f2e41"
     id="path34" />
  <path
     d="m 684.70124,241.18822 -7.62682,4.57609 -15.80509,-25.68327 a 11.5509,11.5509 0 0 1 7.45781,-17.35692 v 0 a 11.55089,11.55089 0 0 1 13.89894,10.44984 z"
     fill="#ffb9b9"
     id="path36" />
  <path
     d="m 895.97404,441.14537 3.1643,-8.31241 28.3025,10.41136 a 11.55089,11.55089 0 0 1 4.8717,18.25236 v 0 a 11.55089,11.55089 0 0 1 -17.3849,0.38192 z"
     fill="#ffb9b9"
     id="path38" />
  <circle
     cx="776.22296"
     cy="309.82959"
     r="22.880449"
     fill="#ffb9b9"
     id="circle40" />
  <polygon
     points="764.019,180.337 791.476,177.286 796.052,215.42 764.019,215.42 "
     fill="#ffb9b9"
     id="polygon42"
     transform="translate(8.1430873e-4,143.22094)" />
  <path
     d="m 818.93317,492.87317 h -86.94571 c 3.06581,-48.51189 5.4936,-95.39321 0,-122.02906 l 5.05559,-24.26683 a 13.6723,13.6723 0 0 1 15.08076,-10.7782 l 11.89628,1.487 c 8.05639,14.16347 17.79287,14.02685 28.98191,1.52537 h 14.32935 a 14.36528,14.36528 0 0 1 14.36246,14.64968 v 0 a 181.4649,181.4649 0 0 1 3.68663,52.08078 z"
     fill="#3f3d56"
     id="path44" />
  <polygon
     points="750.291,200.167 731.987,227.623 672.497,97.967 684.7,91.866 "
     fill="#3f3d56"
     id="polygon46"
     transform="translate(8.1430873e-4,143.22094)" />
  <path
     d="m 896.14724,445.48543 10.4286,-8.79682 -55.41305,-77.64818 a 49.111,49.111 0 0 0 -48.84414,-19.77546 l -1.74815,0.321 20.95313,36.66813 27.59739,20.89445 z"
     fill="#3f3d56"
     id="path48" />
  <path
     d="m 802.68424,296.32283 c 0,0 4.27546,-9.406 -6.84076,-13.6815 0,0 -9.406,-15.39169 -28.21809,-5.13056 0,0 -12.82641,5.13056 -12.82641,18.81206 0,13.6815 -4.27547,16.24678 -4.27547,16.24678 0,0 6.36692,-6.53187 8.07711,-11.66243 1.71019,-5.13056 15.01043,-6.29454 20.141,-1.164 5.13057,5.13054 17.957,4.27546 17.957,4.27546 l -0.8551,18.81207 c 0,0 4.27547,-11.11622 5.98566,-11.11622 1.71019,0 3.42035,-15.39166 0.85506,-15.39166 z"
     fill="#2f2e41"
     id="path50" />
  <ellipse
     cx="800.57166"
     cy="801.05707"
     rx="140"
     ry="7.2916698"
     fill="#e6e6e6"
     id="ellipse52" />
  <ellipse
     cx="101.57168"
     cy="801.05707"
     rx="74"
     ry="3.8541701"
     fill="#e6e6e6"
     id="ellipse54" />
  <path
     d="m 666.95513,271.50961 -449.86851,40.31886 a 8.37412,8.37412 0 0 1 -9.07753,-7.58424 L 198.0077,192.65108 a 8.37413,8.37413 0 0 1 7.58424,-9.07753 l 449.86852,-40.31887 a 8.37412,8.37412 0 0 1 9.07752,7.58424 l 10.00139,111.59316 a 8.37412,8.37412 0 0 1 -7.58424,9.07753 z"
     fill="#e3eef9"
     id="path56" />
  <circle
     cx="269.65546"
     cy="242.47408"
     r="35.129951"
     fill="#ffffff"
     id="circle58" />
  <path
     d="m 348.37439,211.90515 a 5.855,5.855 0 0 0 1.04531,11.66323 l 274.91914,-24.63926 a 5.855,5.855 0 1 0 -1.0453,-11.66324 z"
     fill="#ffffff"
     id="path60" />
  <path
     d="m 351.5103,246.89483 a 5.855,5.855 0 1 0 1.0453,11.66323 l 274.91915,-24.63923 a 5.855,5.855 0 1 0 -1.0453,-11.66324 z"
     fill="#ffffff"
     id="path62" />
</svg>
