<?xml version="1.0" encoding="UTF-8" standalone="no"?>
<svg
   xmlns:dc="http://purl.org/dc/elements/1.1/"
   xmlns:cc="http://creativecommons.org/ns#"
   xmlns:rdf="http://www.w3.org/1999/02/22-rdf-syntax-ns#"
   xmlns:svg="http://www.w3.org/2000/svg"
   xmlns="http://www.w3.org/2000/svg"
   xmlns:sodipodi="http://sodipodi.sourceforge.net/DTD/sodipodi-0.dtd"
   xmlns:inkscape="http://www.inkscape.org/namespaces/inkscape"
   id="a8897f4c-2937-4134-8b3a-fee1040aeff6"
   data-name="Layer 1"
   width="1066.1058"
   height="1066.1058"
   viewBox="0 0 1066.1058 1066.1058"
   version="1.1"
   sodipodi:docname="undraw_people_tax5.svg"
   inkscape:version="1.0.2 (e86c870879, 2021-01-15)">
  <metadata
     id="metadata284">
    <rdf:RDF>
      <cc:Work
         rdf:about="">
        <dc:format>image/svg+xml</dc:format>
        <dc:type
           rdf:resource="http://purl.org/dc/dcmitype/StillImage" />
        <dc:title>people</dc:title>
      </cc:Work>
    </rdf:RDF>
  </metadata>
  <defs
     id="defs282" />
  <sodipodi:namedview
     pagecolor="#ffffff"
     bordercolor="#666666"
     borderopacity="1"
     objecttolerance="10"
     gridtolerance="10"
     guidetolerance="10"
     inkscape:pageopacity="0"
     inkscape:pageshadow="2"
     inkscape:window-width="1920"
     inkscape:window-height="1016"
     id="namedview280"
     showgrid="false"
     inkscape:zoom="0.17438598"
     inkscape:cx="-468.80276"
     inkscape:cy="1724.8645"
     inkscape:window-x="1366"
     inkscape:window-y="0"
     inkscape:window-maximized="1"
     inkscape:current-layer="a8897f4c-2937-4134-8b3a-fee1040aeff6" />
  <title
     id="title209">people</title>
  <g
     id="g8700"
     transform="translate(2.2132052e-5,120.95304)">
    <polygon
       points="346.914,576.48 308.572,558.76 260.039,536.33 221.683,518.61 175.551,497.29 201.704,459.24 223.452,427.6 250.965,387.57 272.707,355.95 517.369,0 776.55,229.8 822.703,270.72 859.505,303.35 905.666,344.27 962.551,394.71 946.672,466.13 933.782,524.07 923.508,570.28 910.626,628.22 868.531,817.51 "
       fill="#f2f2f2"
       id="polygon211" />
    <path
       d="M 271.30076,642.73135 C 236.42088,623.287 214.707,596.74014 206.7617,563.829 c -5.89942,-24.43555 -4.2041,-51.93262 5.03808,-81.72754 a 218.88823,218.88823 0 0 1 30.439,-61.48437 c 70.63818,-99.98633 77.01367,-165.1377 69.92334,-202.18653 -7.77393,-40.623 -33.03125,-57.49414 -33.28565,-57.65967 l 1.09034,-1.67675 c 0.26074,0.16943 26.18359,17.43261 34.14453,58.87988 4.58935,23.89453 2.43017,51.14062 -6.41748,80.981 -11.01172,37.13769 -32.48438,78.459 -63.82129,122.8164 a 216.90408,216.90408 0 0 0 -30.1626,60.92188 c -15.1582,48.86718 -17.30273,115.99707 58.56445,158.292 z"
       transform="translate(-66.94711,-37.90015)"
       fill="#2f2e41"
       id="path213" />
    <path
       d="M 288.07412,642.73135 C 322.954,623.287 344.66787,596.74014 352.61318,563.829 c 5.89942,-24.43555 4.2041,-51.93262 -5.03808,-81.72754 a 218.88823,218.88823 0 0 0 -30.439,-61.48437 c -70.63818,-99.98633 -77.01367,-165.1377 -69.92334,-202.18653 7.77393,-40.623 33.03125,-57.49414 33.28565,-57.65967 l -1.09034,-1.67675 c -0.26074,0.16943 -26.18359,17.43261 -34.14453,58.87988 -4.58935,23.89453 -2.43017,51.14062 6.41748,80.981 11.01172,37.13769 32.48438,78.459 63.82129,122.8164 a 216.90408,216.90408 0 0 1 30.1626,60.92188 c 15.1582,48.86718 17.30273,115.99707 -58.56445,158.292 z"
       transform="translate(-66.94711,-37.90015)"
       fill="#2f2e41"
       id="path215" />
    <path
       d="M 1048.3008,558.73135 C 1013.4209,539.287 991.707,512.74014 983.7617,479.829 c -5.89942,-24.43555 -4.2041,-51.93262 5.03808,-81.72754 a 218.88823,218.88823 0 0 1 30.43902,-61.48437 c 70.6382,-99.98633 77.0137,-165.1377 69.9233,-202.18653 -7.7739,-40.623 -33.0312,-57.49414 -33.2856,-57.65967 l 1.0903,-1.67675 c 0.2607,0.16943 26.1836,17.43261 34.1445,58.87988 4.5894,23.89453 2.4302,51.14062 -6.4174,80.981 -11.0118,37.13769 -32.4844,78.459 -63.8213,122.8164 a 216.90408,216.90408 0 0 0 -30.16263,60.92188 c -15.1582,48.86718 -17.30273,115.99707 58.56443,158.292 z"
       transform="translate(-66.94711,-37.90015)"
       fill="#2f2e41"
       id="path217" />
    <path
       d="m 1065.0741,558.73135 c 34.8799,-19.44433 56.5938,-45.99121 64.5391,-78.90234 5.8994,-24.43555 4.2041,-51.93262 -5.0381,-81.72754 a 218.88823,218.88823 0 0 0 -30.439,-61.48437 c -70.6382,-99.98633 -77.0137,-165.1377 -69.9233,-202.18653 7.7739,-40.623 33.0312,-57.49414 33.2856,-57.65967 l -1.0903,-1.67675 c -0.2608,0.16943 -26.1836,17.43261 -34.1446,58.87988 -4.5893,23.89453 -2.4301,51.14062 6.4175,80.981 11.0117,37.13769 32.4844,78.459 63.8213,122.8164 a 216.90408,216.90408 0 0 1 30.1626,60.92188 c 15.1582,48.86718 17.3027,115.99707 -58.5644,158.292 z"
       transform="translate(-66.94711,-37.90015)"
       fill="#2f2e41"
       id="path219" />
    <path
       d="m 534.762,337.84484 c -26.20687,-44.2815 -78.05507,-46.34521 -78.05507,-46.34521 0,0 -50.52312,-6.46085 -82.93338,60.98042 -30.209,62.86081 -71.90115,123.55421 -6.71211,138.26947 l 11.775,-36.64918 7.29222,39.37767 a 255.06843,255.06843 0 0 0 27.892,0.47669 c 69.81221,-2.25395 136.29778,0.65944 134.157,-24.39211 -2.84566,-33.3025 11.8006,-89.11009 -13.41566,-131.71775 z"
       transform="translate(-66.94711,-37.90015)"
       fill="#2f2e41"
       id="path221" />
    <path
       d="m 427.19425,430.52233 c 9.03031,19.97526 14.72473,43.78567 18.12479,70.23353 l 72.49913,-4.5312 c -16.66786,-23.6189 -22.20214,-50.72822 -15.85919,-81.56152 z"
       transform="translate(-66.94711,-37.90015)"
       fill="#ffb8b8"
       id="path223" />
    <path
       d="m 427.19425,430.52233 c 9.03031,19.97526 14.72473,43.78567 18.12479,70.23353 l 72.49913,-4.5312 c -16.66786,-23.6189 -22.20214,-50.72822 -15.85919,-81.56152 z"
       transform="translate(-66.94711,-37.90015)"
       opacity="0.2"
       id="path225" />
    <path
       d="m 90.81926,810.84366 c 0,0 -37.5228,20.09888 -18.48195,37.25877 19.04085,17.15989 44.19287,-22.71411 44.19287,-22.71411 z"
       transform="translate(-66.94711,-37.90015)"
       fill="#ffb8b8"
       id="path227" />
    <polygon
       points="250.19,764.163 250.2,764.123 258.932,715.656 262.829,693.951 262.829,693.941 459.937,666.755 482.591,714.334 482.005,741.792 480.754,801.122 480.754,801.132 480.39,818.314 240.438,818.314 "
       fill="#2f2e41"
       id="polygon229" />
    <path
       d="m 549.53654,752.23722 -0.58908,27.459 C 479.21229,777.90631 371.12071,761.07293 325.87679,753.55113 l 3.89676,-21.70432 197.107,-27.18718 z"
       transform="translate(-66.94711,-37.90015)"
       fill="#3f3d56"
       id="path231" />
    <circle
       cx="395.36392"
       cy="355.23981"
       r="56.63995"
       fill="#ffb8b8"
       id="circle233" />
    <path
       d="m 571.05972,782.82279 c 0,0 6.79679,61.17114 -33.984,56.63994 l -6.7968,-61.17114 -36.24953,-36.24959 -101.9519,-2.2656 -74.76473,70.2336 c 0,0 -2.2656,-72.49913 6.79679,-79.29592 9.06239,-6.79679 29.45278,-22.656 29.45278,-22.656 v -11.328 L 292.39118,572.12219 c 0,0 36.24957,-74.76473 65.70234,-77.03033 l 38.51516,-2.26559 c 0,0 13.59359,-6.7968 13.59359,-9.0624 0,-2.2656 -2.2656,-20.39038 9.06239,-15.85918 0,0 1.01941,-23.24506 12.95916,-16.15372 0,0 37.58646,29.45277 75.73905,1.2914 0,0 17.78489,-3.26246 15.51929,5.79993 -2.2656,9.06239 0,15.85918 4.5312,15.85918 4.5312,0 24.92157,6.7968 24.92157,11.328 0,0.97419 1.4727,10.3538 3.78337,24.46843 v 0.0227 c 8.40556,51.45164 27.935,165.81911 27.935,165.81911 0,0 20.39038,29.45276 -13.59358,106.48309 z"
       transform="translate(-66.94711,-37.90015)"
       fill="#e3eef9"
       id="path235" />
    <path
       d="m 308.25037,560.7942 -15.85919,11.328 -144.99826,185.779 -77.03032,61.17115 c 0,0 43.04636,-6.79679 33.984,29.45277 L 369.42151,696.73007 Z"
       transform="translate(-66.94711,-37.90015)"
       fill="#e3eef9"
       id="path237" />
    <path
       d="m 556.7183,510.4979 v 0.0227 c -3.01286,17.717 -101.20407,14.02406 -114.79766,14.02406 -13.59359,0 -24.92158,-2.2656 -38.51516,-11.328 -13.59358,-9.0624 -6.7968,-20.39038 -6.7968,-20.39038 0,0 11.57456,-8.81583 11.57456,-11.08143 0,-2.2656 -2.2656,-20.39038 9.06239,-15.85919 0,0 1.01941,-23.245 12.95915,-16.15372 0,0 39.6055,31.47181 77.75809,3.31044 0,0 17.78489,-3.26246 15.51929,5.79993 -2.2656,9.06239 0,15.85918 4.5312,15.85918 4.5312,0 24.92157,6.7968 24.92157,11.328 0,0.97419 1.4727,10.3538 3.78337,24.46843 z"
       transform="translate(-66.94711,-37.90015)"
       fill="#3f3d56"
       id="path239" />
    <path
       d="m 545.00534,425.99113 c 0,0 -18.12478,-38.51516 -36.24956,-20.39038 -18.12478,18.12478 20.39038,45.312 20.39038,45.312 z"
       transform="translate(-66.94711,-37.90015)"
       fill="#ffb8b8"
       id="path241" />
    <path
       d="m 545.00534,416.92874 c 0,0 -27.98762,35.36953 -36.64979,38.07515 0,0 25.3218,100.12632 57.04017,127.31349 l 18.12478,92.88951 c 0,0 77.03033,-31.71837 58.90555,-83.82712 q -0.27187,-0.78163 -0.541,-1.55376 A 513.98548,513.98548 0 0 0 579.7866,467.41762 Z"
       transform="translate(-66.94711,-37.90015)"
       fill="#e3eef9"
       id="path243" />
    <polygon
       points="463.102,483.933 518.839,637.307 498.449,544.417 "
       opacity="0.2"
       id="polygon245" />
    <polygon
       points="366.242,342.668 383.052,342.021 392.809,304.213 398.907,344.46 458.668,343.241 456.229,295.676 405.005,268.845 334.268,279.821 319.632,344.46 356.064,343.059 366.242,319.311 "
       fill="#2f2e41"
       id="polygon247" />
    <path
       d="m 1007.0759,682.23771 29.0622,103.67129 c 0,0 -5.9887,91.827 21.9587,73.86082 28.5998,-18.3856 17.9661,-95.81944 17.9661,-95.81944 l -16.7519,-93.00676 z"
       transform="translate(-66.94711,-37.90015)"
       fill="#a0616a"
       id="path249" />
    <path
       d="m 1022.6053,391.41495 23.9999,23.99994 v 114.35264 c 0,0 14.1176,21.17641 11.2941,26.82345 -2.8236,5.64704 -5.647,5.64705 -2.8235,9.88233 2.8234,4.23528 5.647,7.0588 2.8235,9.88233 -2.8236,2.82353 -2.8235,9.88232 0,12.70584 2.8235,2.82352 8.4705,7.05881 4.2353,11.29409 -4.2353,4.23528 -9.8824,1.41176 -4.2353,16.94113 5.647,15.52937 15.5293,19.76466 12.7058,25.4117 -2.8235,5.64704 -2.8235,19.76465 -2.8235,19.76465 l -60.7057,8.47057 L 994.37,511.41463 Z"
       transform="translate(-66.94711,-37.90015)"
       fill="#d0cde1"
       id="path251" />
    <polygon
       points="935.893,655.632 998.011,644.338 1003.658,623.161 933.07,625.985 "
       fill="#3f3d56"
       id="polygon253" />
    <polygon
       points="801.07,290.691 887.188,303.397 893.541,254.692 899.894,205.986 809.541,205.986 "
       fill="#a0616a"
       id="polygon255" />
    <polygon
       points="801.07,290.233 887.188,302.939 893.541,254.233 899.894,205.527 809.541,205.527 "
       opacity="0.1"
       id="polygon257" />
    <path
       d="m 689.42968,646.94368 47.99987,103.05855 c 0,0 8.47057,47.99987 21.17642,49.41163 12.70585,1.41176 25.41169,-49.41163 25.41169,-49.41163 l -16.94113,-26.82346 -19.76465,-76.23509 z"
       transform="translate(-66.94711,-37.90015)"
       fill="#a0616a"
       id="path259" />
    <path
       d="M 1018.0031,857.214 H 746.6346 c 2.15028,-34.01065 3.503,-54.97836 3.503,-54.97836 l 3.604,-5.67348 17.47475,-27.45889 12.47765,-19.60484 4.351,-6.84456 1.61527,-2.53384 17.09113,-3.11943 176.3223,-32.17333 a 215.42643,215.42643 0 0 0 12.32623,38.1093 c 1.20133,2.73581 2.49348,5.47156 3.87652,8.17706 4.43175,8.65158 9.84275,16.84886 16.27345,22.88581 1.4638,1.37293 2.5238,5.03749 3.2103,10.67061 1.696,13.80009 1.2114,39.46202 -0.7571,72.54395 z"
       transform="translate(-66.94711,-37.90015)"
       fill="#2f2e41"
       id="path261" />
    <circle
       cx="856.8349"
       cy="165.7506"
       r="67.764519"
       fill="#a0616a"
       id="circle263" />
    <path
       d="m 772.72358,342.00332 -9.88233,-5.647 c 0,0 -43.76459,29.647 -57.8822,95.99974 -14.11761,66.35274 -23.99993,83.2939 -23.99993,83.2939 0,0 -14.11761,2.82352 -4.23529,12.70584 9.88232,9.88232 9.88233,8.47057 1.41176,14.11761 -8.47057,5.64704 -14.11761,-5.647 -8.47056,5.647 5.64705,11.294 12.70585,8.47056 7.0588,15.52937 -5.64705,7.05881 -15.52937,7.0588 -9.88232,12.70585 5.64705,5.64705 -5.647,18.35289 1.41176,23.99993 7.05876,5.64704 9.88232,7.05881 9.88232,16.94113 a 49.9927,49.9927 0 0 0 2.82353,16.94113 h 73.41156 c 0,0 -14.11761,-26.82345 -9.88232,-32.4705 4.23529,-5.64705 5.647,-11.29408 2.82352,-14.11761 -2.82348,-2.82353 -11.29409,2.82353 -2.82352,-4.23528 8.47057,-7.05881 11.29408,-2.82352 8.47056,-11.29409 -2.82352,-8.47057 -8.47056,-4.23528 -2.82352,-8.47056 5.64704,-4.23528 9.88233,-2.82352 7.05881,-7.05881 -2.82352,-4.23529 -8.47057,-4.23528 -2.82353,-7.0588 5.64704,-2.82352 9.88233,0 8.47057,-7.05881 -1.41176,-7.05881 -2.82352,-4.23528 0,-7.0588 2.82352,-2.82352 32.4705,-98.82327 32.4705,-101.64679 0,-2.82352 -22.58817,-91.76445 -22.58817,-91.76445 z"
       transform="translate(-66.94711,-37.90015)"
       fill="#d0cde1"
       id="path265" />
    <polygon
       points="625.306,617.514 687.424,618.926 691.659,590.691 602.718,596.338 "
       fill="#3f3d56"
       id="polygon267" />
    <path
       d="m 784.01766,734.47286 -18.35289,33.88226 c 0,0 55.05868,7.05881 74.82333,14.11761 19.76465,7.0588 70.588,16.94113 70.588,16.94113 l 12.7059,-49.41163 z"
       transform="translate(-66.94711,-37.90015)"
       fill="#3f3d56"
       id="path269" />
    <polygon
       points="955.658,745.984 948.599,702.22 878.011,712.102 893.541,758.69 "
       fill="#3f3d56"
       id="polygon271" />
    <path
       d="m 970.37011,294.00345 c 0,0 -4.23529,-2.82352 -14.11761,2.82352 -9.88232,5.64704 -42.35283,8.47057 -57.8822,-8.47056 -15.52937,-16.94113 -26.82346,-31.05874 -31.05874,-28.23522 -4.23528,2.82352 -7.05881,35.294 -7.05881,35.294 l -14.11761,11.29411 -83.29389,29.647 7.0588,190.58772 12.70585,43.76459 c 0,0 -9.88232,33.88227 2.82352,53.64692 12.70584,19.76465 -7.0588,26.82346 -7.0588,26.82346 0,0 -4.23528,5.647 -1.41176,19.76465 2.82352,14.11765 -2.82352,66.35276 -2.82352,66.35276 0,0 119.99968,53.64692 245.64636,7.05881 l -14.1176,-53.64692 -7.05878,-119.99968 c 0,0 7.05878,-19.76465 5.64708,-28.23522 -1.4118,-8.47057 42.3528,-127.05848 42.3528,-127.05848 0,0 -7.0588,-59.294 -43.7646,-71.99981 -36.70577,-12.70581 -42.35282,-25.41169 -42.35282,-25.41169 0,0 16.94113,-18.35292 9.88233,-23.99996 z"
       transform="translate(-66.94711,-37.90015)"
       fill="#d0cde1"
       id="path273" />
    <path
       d="m 855.54758,212.33147 c 0,0 -7.037,-10.55549 -4.33045,-21.92294 a 66.44367,66.44367 0 0 0 1.89457,-19.7577 c 0,0 5.68372,-18.40444 11.36745,-28.68928 5.68373,-10.28484 2.97719,-14.61529 20.84032,-17.86313 17.86313,-3.24784 10.55549,-26.524 57.6492,-1.35327 a 13.81105,13.81105 0 0 0 14.34464,5.41307 c 9.74353,-1.89457 13.262,11.6381 13.262,11.6381 0,0 6.49569,-3.78914 8.93157,1.62393 2.43588,5.41307 19.8043,-3.24882 19.8043,33.2894 0,36.53822 -19.76465,69.17629 -19.76465,69.17629 0,0 1.44894,-61.46168 -30.75883,-67.68672 -32.20777,-6.22504 -66.85142,-24.35881 -75.24168,-1.08261 -8.39026,23.2762 -17.99844,37.21486 -17.99844,37.21486 z"
       transform="translate(-66.94711,-37.90015)"
       fill="#2f2e41"
       id="path275" />
    <ellipse
       cx="913.3053"
       cy="180.5741"
       rx="6.3529201"
       ry="8.4705696"
       fill="#a0616a"
       id="ellipse277" />
  </g>
</svg>
