<?xml version="1.0" encoding="UTF-8" standalone="no"?>
<svg
   xmlns:dc="http://purl.org/dc/elements/1.1/"
   xmlns:cc="http://creativecommons.org/ns#"
   xmlns:rdf="http://www.w3.org/1999/02/22-rdf-syntax-ns#"
   xmlns:svg="http://www.w3.org/2000/svg"
   xmlns="http://www.w3.org/2000/svg"
   xmlns:sodipodi="http://sodipodi.sourceforge.net/DTD/sodipodi-0.dtd"
   xmlns:inkscape="http://www.inkscape.org/namespaces/inkscape"
   id="f7bb3db6-0aca-42e3-bcc4-5e9b3a55e19d"
   data-name="Layer 1"
   width="879.5"
   height="879.5"
   viewBox="0 0 879.5 879.49996"
   version="1.1"
   sodipodi:docname="undraw_Mobile_application_mr4r.svg">
  <metadata
     id="metadata81">
    <rdf:RDF>
      <cc:Work
         rdf:about="">
        <dc:format>image/svg+xml</dc:format>
        <dc:type
           rdf:resource="http://purl.org/dc/dcmitype/StillImage" />
        <dc:title>Mobile_application</dc:title>
      </cc:Work>
    </rdf:RDF>
  </metadata>
  <defs
     id="defs79" />
  <sodipodi:namedview
     pagecolor="#ffffff"
     bordercolor="#666666"
     borderopacity="1"
     objecttolerance="10"
     gridtolerance="10"
     guidetolerance="10"
     inkscape:pageopacity="0"
     inkscape:pageshadow="2"
     inkscape:window-width="1366"
     inkscape:window-height="704"
     id="namedview77"
     showgrid="false"
     inkscape:zoom="0.1557302"
     inkscape:cx="767.5648"
     inkscape:cy="-68.90117"
     inkscape:window-x="0"
     inkscape:window-y="312"
     inkscape:window-maximized="1"
     inkscape:current-layer="f7bb3db6-0aca-42e3-bcc4-5e9b3a55e19d" />
  <title
     id="title2">Mobile_application</title>
  <path
     d="m 643,730.42528 q -36.47625,-5.71034 -70.14288,-9.71417 L 581.5,703.42528 c -3,-1 -16,9 -16,9 l 11,-50 c -15,2 -22,53 -22,53 l -17,-17 8.36835,19.24713 C 477.18707,710.45574 417.92157,708.2036 368.10254,708.72014 L 375.5,693.92528 c -3,-1 -16,9 -16,9 l 11,-50 c -15,2 -22,53 -22,53 l -17,-17 8.8634,20.38586 A 997.85166,997.85166 0 0 0 238.34082,717.527 C 245.72235,694.53122 271.5,672.42526 271.5,672.42526 c -19.82056,6.16638 -30.13214,16.2124 -35.4693,25.5246 A 401.561,401.561 0 0 1 257.5,558.92528 c 0,0 -40,90 -34,150 l 0.76129,10.65808 C 189.46191,725.01213 172,730.42528 172,730.42528 Z"
     fill="#3f3d56"
     id="path4" />
  <path
     d="m 734.67236,606.561 a 12,12 0 1 1 12,-12 12.01375,12.01375 0 0 1 -12,12 z m 0,-22 a 10,10 0 1 0 10,10 10.01114,10.01114 0 0 0 -10,-10 z"
     fill="#3f3d56"
     id="path6" />
  <path
     d="M 830.5,728.85087 H 810.75885 V 709.10972 H 830.5 Z m -18.2226,-1.51855 h 16.70405 v -16.704 H 812.2774 Z"
     fill="#3f3d56"
     id="path8" />
  <path
     d="m 162.14387,729.931 -13.4651,-14.43621 14.43623,-13.46514 13.46509,14.43621 z M 150.825,715.56944 162.21854,727.7847 174.43379,716.39116 163.04028,704.1759 Z"
     fill="#3f3d56"
     id="path10" />
  <rect
     x="21.672359"
     y="727.73627"
     width="857.82764"
     height="2"
     fill="#3f3d56"
     id="rect12" />
  <path
     d="m 553.475,282.83473 v 65.68 a 2.29614,2.29614 0 0 1 -2.29,2.29 h -1.62989 v 342.15 a 35.702,35.702 0 0 1 -35.70007,35.7 H 300.06509 a 35.69346,35.69346 0 0 1 -35.69006,-35.7 v -330.15 h -1.18 a 1.6176,1.6176 0 0 1 -1.62,-1.61 v -37.38 a 1.61971,1.61971 0 0 1 1.62,-1.62 h 1.18 v -14.08 H 263.185 a 1.69647,1.69647 0 0 1 -1.68994,-1.7 v -36.87 a 1.69432,1.69432 0 0 1 1.68994,-1.69 h 1.19 v -19.22 h -1.21 a 1.498,1.498 0 0 1 -1.5,-1.5 v -20.12 a 1.50661,1.50661 0 0 1 1.5,-1.51 h 1.21 v -40.74 a 35.69136,35.69136 0 0 1 35.69006,-35.69 H 513.855 a 35.69991,35.69991 0 0 1 35.70007,35.69 v 95.78 h 1.62993 a 2.29609,2.29609 0 0 1 2.29,2.29 z"
     fill="#3f3d56"
     id="path14" />
  <rect
     x="379.97864"
     y="167.38152"
     width="39.823429"
     height="8.0864201"
     rx="2.5418899"
     fill="#e6e8ec"
     id="rect16" />
  <circle
     cx="430.41006"
     cy="171.42471"
     r="4.5866499"
     fill="#e6e8ec"
     id="circle18" />
  <path
     d="m 532.46,191.82524 v 504.09 a 22.58,22.58 0 0 1 -7.96,17.23 22.6419,22.6419 0 0 1 -14.69,5.41 H 305.16 a 22.58668,22.58668 0 0 1 -10.46,-2.55 21.15539,21.15539 0 0 1 -2.2,-1.3 22.66834,22.66834 0 0 1 -9.99,-18.79 v -504.09 a 22.649,22.649 0 0 1 22.65,-22.65 h 30.63 v 3.93 a 18.65015,18.65015 0 0 0 18.65,18.65 h 104.08 a 18.65009,18.65009 0 0 0 18.65,-18.65 v -3.93 h 32.64 a 22.64264,22.64264 0 0 1 22.65,22.65 z"
     fill="#e3eef9"
     id="path20" />
  <path
     d="m 532.46,623.75524 v 72.16 a 22.58,22.58 0 0 1 -7.96,17.23 22.6419,22.6419 0 0 1 -14.69,5.41 H 305.16 a 22.58668,22.58668 0 0 1 -10.46,-2.55 21.15539,21.15539 0 0 1 -2.2,-1.3 22.66834,22.66834 0 0 1 -9.99,-18.79 v -72.13 a 186.97056,186.97056 0 0 1 249.95,-0.03 z"
     fill="#ffffff"
     opacity="0.3"
     id="path22" />
  <path
     d="m 520.29,715.98528 a 22.40961,22.40961 0 0 1 -10.48,2.57 H 305.16 a 22.58668,22.58668 0 0 1 -10.46,-2.55 122.16129,122.16129 0 0 1 225.59,-0.02 z"
     fill="#ffffff"
     opacity="0.3"
     id="path24" />
  <path
     d="M 475.75,717.19483 A 13.56058,13.56058 0 0 1 469.40831,718.75 H 345.56957 a 13.66765,13.66765 0 0 1 -6.32958,-1.5431 73.92279,73.92279 0 0 1 136.51001,-0.0121 z"
     fill="#ffffff"
     opacity="0.3"
     id="path26" />
  <path
     d="m 459.5459,364.3252 c -20.52881,0 -43.05811,-3.90918 -60.646,-17.1001 -24.4873,-18.36524 -54.65674,-17.38526 -75.65332,-13.32813 a 164.86282,164.86282 0 0 0 -40.27441,13.415 l -0.92481,-1.77344 a 166.95707,166.95707 0 0 1 40.76758,-13.59521 c 21.40918,-4.14356 52.19678,-5.13379 77.28516,13.68213 46.99951,35.24951 131.15771,3.59033 132.00146,3.26758 l 0.7168,1.86718 a 242.3548,242.3548 0 0 1 -48.70606,11.85694 186.20165,186.20165 0 0 1 -24.5664,1.70805 z"
     fill="#ffffff"
     id="path28" />
  <path
     d="m 282.5,346.42528 c 0,0 69,-16.71229 117,6.16983 48,22.88212 133,-0.16983 133,-0.16983"
     fill="#ffffff"
     opacity="0.3"
     id="path30" />
  <path
     d="m 347.64111,372.38623 a 131.45576,131.45576 0 0 1 -24.82617,-2.479 166.95732,166.95732 0 0 1 -40.76758,-13.59523 l 0.92481,-1.77344 a 164.86232,164.86232 0 0 0 40.27441,13.415 c 20.99561,4.05664 51.16553,5.03711 75.65332,-13.32812 25.06641,-18.79981 60.17725,-18.74707 85.2124,-15.39209 a 242.3552,242.3552 0 0 1 48.70606,11.85693 l -0.7168,1.86719 c -0.84472,-0.32373 -85.001,-31.9834 -132.00146,3.26758 -16.4521,12.3394 -35.35694,16.16118 -52.45899,16.16118 z"
     fill="#ffffff"
     opacity="0.3"
     id="path32" />
  <path
     d="m 347.981,364.3335 c -34.63428,0 -65.39063,-12.4253 -65.852,-12.61524 l 0.76172,-1.84961 c 0.68457,0.28223 69.08837,27.89942 116.10009,0.0645 47.82471,-28.31983 132.90576,-3.041 133.75928,-2.78223 l -0.58008,1.91406 c -0.84472,-0.25586 -85.09277,-25.28125 -132.16064,2.58887 -16.06259,9.51119 -34.54062,12.67969 -52.02837,12.67969 z"
     fill="#ffffff"
     opacity="0.3"
     id="path34" />
  <path
     d="m 282.51,349.25545 c 0,0 68.99,22.88212 116.99,0 48,-22.88212 132.96,-2.16209 132.96,-2.16209"
     fill="#ffffff"
     opacity="0.3"
     id="path36" />
  <path
     d="m 550.26913,410.47469 v 29.15278 c 0,0 2.33223,32.65113 15.15945,48.97669 0,0 20.99,29.73584 23.90529,23.32223 l -3.59045,-21.11522 -12.15205,-11.5359 -6.41362,-36.14946 -1.74917,-32.65112 z"
     fill="#ffb8b8"
     id="path38" />
  <polygon
     points="679.124,524.941 679.124,546.514 661.633,552.928 661.633,527.856 "
     fill="#ffb8b8"
     id="polygon40"
     transform="translate(0,149.07472)" />
  <polygon
     points="643.558,522.609 655.219,548.846 638.894,555.843 635.395,530.189 "
     fill="#ffb8b8"
     id="polygon42"
     transform="translate(0,149.07472)" />
  <path
     d="m 672.71085,470.52943 c 0,0 23.32223,210.48313 14.57639,211.06619 -8.74584,0.58306 -25.65445,11.66112 -25.65445,4.08139 0,-7.57973 -13.41029,-106.11615 -13.41029,-106.11615 L 635.39528,528.835 v 69.9667 l 13.41028,79.29559 c 0,0 -12.82723,16.90861 -22.15612,6.99667 l -19.8239,-77.54642 c 0,0 -26.23754,-117.77727 -25.07139,-127.10616 0,0 60.05474,-51.30891 90.9567,-9.91195 z"
     fill="#2f2e41"
     id="path44" />
  <path
     d="m 668.0464,696.75507 c 0,0 4.66445,-9.912 15.15945,-3.49833 l 8.74584,10.495 c 0,0 22.54831,18.67354 6.54831,22.67354 -16.49131,4.12283 -26.37221,-0.26326 -26.37221,-0.26326 0,0 -2.91528,-1.74916 -5.2475,-1.74916 -2.33222,0 -7.57973,-4.08139 -7.57973,-5.24751 0,-1.16612 1.74917,-21.82722 1.74917,-21.82722 a 3.67667,3.67667 0 0 1 4.08139,0.58305 c 1.74917,1.74917 2.91528,-1.16611 2.91528,-1.16611 z"
     fill="#2f2e41"
     id="path46" />
  <path
     d="m 633.64611,693.25674 c 0,0 11.07806,-8.74584 16.32556,1.16611 0,0 3.304,1.16611 3.69269,0 0.38869,-1.16611 3.304,-1.74917 3.304,4.66444 0,6.41361 3.16611,22.41029 0.25083,22.99334 -2.91528,0.58305 -5.83055,2.33223 -5.2475,4.66445 0.58305,2.33222 -3.16611,2.66111 -16.57639,2.07806 -13.41028,-0.58305 -13.99334,-5.83056 -13.99334,-5.83056 0,0 0,-7.57972 3.49833,-11.66111 3.49833,-4.08139 8.74582,-18.07473 8.74582,-18.07473 z"
     fill="#2f2e41"
     id="path48" />
  <path
     d="m 612.07305,311.3552 c 0,0 -2.91528,21.57307 15.7425,29.15279 18.65778,7.57972 -41.397,32.65113 -47.22752,18.07473 -5.83052,-14.5764 1.16612,-19.24084 1.16612,-19.24084 0,0 5.83055,-5.83056 0.58305,-21.57306 z"
     fill="#ffb8b8"
     id="path50" />
  <circle
     cx="593.41528"
     cy="300.8602"
     r="25.654449"
     fill="#ffb8b8"
     id="circle52" />
  <path
     d="m 623.15111,347.50466 c 0,0 -17.49168,9.32889 -34.40029,2.33223 -16.90861,-6.99666 -16.32557,23.32223 -16.32557,23.32223 l 8.74584,22.73917 60.6378,-5.83056 -4.08139,-34.98334 z"
     fill="#f2f2f2"
     id="path54" />
  <path
     d="m 614.46069,327.55432 a 21.16638,21.16638 0 0 1 14.521,11.20451 l 27.98668,8.74583 6.99667,9.91195 -8.16278,71.71586 c 0,0 15.15945,14.57639 15.15945,22.73918 0,8.16279 18.65778,36.14945 9.32889,32.65112 -9.32889,-3.49833 -26.23751,-15.74251 -26.23751,-15.74251 0,0 -42.56307,1.74917 -55.97335,13.41029 -13.41028,11.66112 -18.65779,8.16278 -18.65779,8.16278 0,0 -13.99334,-60.6378 -14.57639,-69.9667 -0.58305,-9.3289 -16.90862,-65.30224 -16.90862,-65.30224 l 29.15279,-16.32556 7.42538,-8.42509 20.5613,32.91343 18.65775,-22.73917 c 0,0 -9.21806,-7.24957 -9.27347,-12.95368 z"
     fill="#3f3d56"
     id="path56" />
  <path
     d="m 672.71085,402.3119 3.49833,18.65779 c 0,0 15.74251,58.30558 13.41028,78.12947 0,0 1.74917,44.31224 -8.16278,39.06474 -9.91195,-5.2475 -4.66444,-37.31557 -4.66444,-37.31557 l -13.99334,-57.72252 -7.57973,-33.81724 z"
     fill="#ffb8b8"
     id="path58" />
  <path
     d="m 658.13445,353.91828 5.83056,3.49833 c 0,0 22.15612,46.06141 16.90862,49.55974 -5.2475,3.49833 -27.98663,11.07806 -27.98663,11.07806 z"
     fill="#3f3d56"
     id="path60" />
  <polygon
     points="549.103,267.814 570.093,272.478 561.93,206.01 548.228,205.718 545.022,211.257 "
     fill="#3f3d56"
     id="polygon62"
     transform="translate(0,149.07472)" />
  <path
     d="m 614.30608,279.16318 4.62409,-1.68149 c 0,0 -9.6685,-9.66851 -23.12045,-8.82773 l 3.78344,-3.78338 c 0,0 -9.24818,-3.36292 -17.65558,5.46481 -4.4196,4.64055 -9.53315,10.09526 -12.72091,16.23994 h -4.95208 l 2.06681,4.13363 -7.23384,4.13362 7.42483,-0.7425 a 20.85851,20.85851 0 0 0 0.70227,10.70563 l 1.68143,4.624 c 0,0 6.726,-13.45182 6.726,-15.13331 v 4.2037 c 0,0 4.62409,-3.78332 4.62409,-6.30552 l 2.52221,2.94259 1.2611,-4.62409 15.5537,4.62409 -2.52221,-3.78331 9.66851,1.26111 -3.78344,-4.62409 c 0,0 10.92961,5.4648 11.35006,10.08889 0.42045,4.62409 3.306,10.65165 3.306,10.65165 l 3.49833,-4.08139 c 0,0 5.38636,-19.18133 -6.80436,-25.48685 z"
     fill="#2f2e41"
     id="path64" />
  <ellipse
     cx="614.98834"
     cy="301.15173"
     rx="2.0407"
     ry="5.2474999"
     fill="#ffb8b8"
     id="ellipse66" />
  <path
     d="m 41.634,696.0911 c 12.42842,23.049 38.806,32.94351 38.806,32.94351 0,0 6.22712,-27.47543 -6.2013,-50.52448 -12.42842,-23.04905 -38.806,-32.9435 -38.806,-32.9435 0,0 -6.22711,27.47543 6.2013,50.52447 z"
     fill="#3f3d56"
     id="path68" />
  <path
     d="m 50.17653,688.50813 c 22.43841,13.49969 31.08016,40.3138 31.08016,40.3138 0,0 -27.73812,4.92679 -50.17653,-8.57291 C 8.64175,706.74932 0,679.93522 0,679.93522 c 0,0 27.73811,-4.92678 50.17653,8.57291 z"
     fill="#e3eef9"
     id="path70" />
  <path
     d="m 282.51,346.42528 c 0,0 68.99,-36 116.99,0 48,36 132.96,3.40157 132.96,3.40157"
     fill="#ffffff"
     opacity="0.3"
     id="path72" />
  <circle
     cx="407.75"
     cy="701.75"
     r="11"
     fill="#ffffff"
     id="circle74" />
</svg>
