<?xml version="1.0" encoding="UTF-8" standalone="no"?>
<svg
   xmlns:dc="http://purl.org/dc/elements/1.1/"
   xmlns:cc="http://creativecommons.org/ns#"
   xmlns:rdf="http://www.w3.org/1999/02/22-rdf-syntax-ns#"
   xmlns:svg="http://www.w3.org/2000/svg"
   xmlns="http://www.w3.org/2000/svg"
   xmlns:sodipodi="http://sodipodi.sourceforge.net/DTD/sodipodi-0.dtd"
   xmlns:inkscape="http://www.inkscape.org/namespaces/inkscape"
   id="a379d9a4-f6fe-40d1-beba-a0916853bd02"
   data-name="Layer 1"
   width="938.75922"
   height="938.75922"
   viewBox="0 0 938.75919 938.75923"
   version="1.1"
   sodipodi:docname="undraw_working_from_anywhere_ub67.svg"
   inkscape:version="1.0.2 (e86c870879, 2021-01-15)">
  <metadata
     id="metadata1256">
    <rdf:RDF>
      <cc:Work
         rdf:about="">
        <dc:format>image/svg+xml</dc:format>
        <dc:type
           rdf:resource="http://purl.org/dc/dcmitype/StillImage" />
        <dc:title></dc:title>
      </cc:Work>
    </rdf:RDF>
  </metadata>
  <defs
     id="defs1254" />
  <sodipodi:namedview
     pagecolor="#ffffff"
     bordercolor="#666666"
     borderopacity="1"
     objecttolerance="10"
     gridtolerance="10"
     guidetolerance="10"
     inkscape:pageopacity="0"
     inkscape:pageshadow="2"
     inkscape:window-width="1920"
     inkscape:window-height="1016"
     id="namedview1252"
     showgrid="false"
     inkscape:zoom="0.3563165"
     inkscape:cx="1167.7214"
     inkscape:cy="434.97671"
     inkscape:window-x="1366"
     inkscape:window-y="0"
     inkscape:window-maximized="1"
     inkscape:current-layer="a379d9a4-f6fe-40d1-beba-a0916853bd02" />
  <g
     id="g8319"
     transform="translate(1.5258789e-5,65.998625)">
    <circle
       cx="75.365318"
       cy="147.52379"
       r="75.365318"
       fill="#ff6584"
       id="circle1165" />
    <path
       d="m 1004.987,679.01278 a 136.64937,136.64937 0 0 1 -6.38326,37.7743 c -0.0889,0.28379 -0.18213,0.56334 -0.2753,0.84715 h -23.82178 c 0.0254,-0.25416 0.0508,-0.538 0.0763,-0.84715 1.5884,-18.26028 10.74606,-129.39752 -0.20334,-148.4033 0.95728,1.54182 32.45418,52.60786 30.60738,110.629 z"
       transform="translate(-130.62041,-46.62582)"
       fill="#e6e6e6"
       id="path1167" />
    <path
       d="m 1003.1996,716.78708 c -0.1991,0.28379 -0.4067,0.56758 -0.6185,0.84715 h -17.87054 c 0.13555,-0.24144 0.29227,-0.52523 0.4744,-0.84715 2.95233,-5.32856 11.69063,-21.25916 19.80204,-37.7743 8.7172,-17.74774 16.7143,-36.169 16.0408,-42.836 0.2075,1.50367 6.2392,47.34281 -17.8282,80.6103 z"
       transform="translate(-130.62041,-46.62582)"
       fill="#e6e6e6"
       id="path1169" />
    <rect
       x="253.75919"
       y="669.38464"
       width="685"
       height="2.24072"
       fill="#e6e6e6"
       id="rect1171" />
    <path
       d="m 822.84364,785.9808 3.32758,-27.45259 94.00433,-24.125 -10.81466,-32.444 c 7.53317,-21.60748 20.759,-32.2 44.92242,-21.62931 l 41.56416,25.82015 a 26.533,26.533 0 0 1 12.49333,23.97036 v 0 a 26.51238,26.51238 0 0 1 -15.09495,22.535 c -46.53041,22.05608 -105.83473,30.49585 -170.40221,33.32539 z"
       transform="translate(-130.62041,-46.62582)"
       fill="#ffb8b8"
       id="path1173" />
    <path
       d="m 828.66691,794.29977 -29.11638,-4.15948 -27.23329,5.55781 a 11.76263,11.76263 0 0 1 -14.1045,-11.0354 v 0 a 11.76267,11.76267 0 0 1 4.67429,-9.88433 l 42.67473,-32.15219 A 19.2662,19.2662 0 0 1 830.519,744.136 l 10.62634,10.23277 c -7.60426,4.71745 -13.25855,11.79578 -16.63793,21.62931 q 10.96223,6.02632 4.1595,18.30169 z"
       transform="translate(-130.62041,-46.62582)"
       fill="#2f2e41"
       id="path1175" />
    <circle
       cx="725.85547"
       cy="432.5256"
       r="26.927271"
       fill="#ffb8b8"
       id="circle1177" />
    <path
       d="m 898.54623,532.25232 -60.31251,25.37284 c 4.90182,-24.6117 7.3447,-47.03168 0,-60.72845 l 38.6832,-4.57544 c -1.9201,10.52596 7.86687,24.62227 21.62931,39.93105 z"
       transform="translate(-130.62041,-46.62582)"
       fill="#ffb8b8"
       id="path1179" />
    <path
       d="m 796.22294,785.14891 -22.46121,-1.6638 c -13.76,-57.37964 -20.805,-111.61522 -17.73,-161.1123 a 27.99719,27.99719 0 0 1 28.55155,-26.31008 v 0 a 27.95972,27.95972 0 0 1 18.63912,7.698 l 29.04629,27.64082 a 119.53382,119.53382 0 0 1 29.4304,43.81895 c 8.2263,21.54543 5.27317,33.62388 -14.36545,31.57272 a 48.46037,48.46037 0 0 1 -31.55432,-16.7762 l -21.22016,-24.66128 z"
       transform="translate(-130.62041,-46.62582)"
       fill="#ffb8b8"
       id="path1181" />
    <path
       d="m 778.829,853.33321 v 0 a 19.21665,19.21665 0 0 1 -16.93815,-25.37662 l 4.38389,-12.8594 3.32759,-32.444 c 5.12583,-10.45979 12.38523,-8.895 20.79742,-0.8319 5.348,-0.52506 6.49594,-5.87278 5.82327,-13.31035 l 16.86453,22.70225 a 13.53384,13.53384 0 0 1 1.45034,13.68454 l -16.97287,37.23082 A 19.21666,19.21666 0 0 1 778.829,853.33321 Z"
       transform="translate(-130.62041,-46.62582)"
       fill="#2f2e41"
       id="path1183" />
    <path
       d="m 991.30271,703.20708 c -30.78017,17.46983 -40.42721,17.97672 -71.12716,30.36423 l -26.6207,-14.97414 c -31.26416,11.56034 -53.19528,-4.287 -76.95044,-27.86854 15.54546,-25.89253 8.67013,-59.53966 18.30173,-59.06466 l 115.21769,36.1875 4.99138,12.47846 z"
       transform="translate(-130.62041,-46.62582)"
       fill="#2f2e41"
       id="path1185" />
    <path
       d="m 954.28331,676.17044 c -40.6823,17.60906 -84.48565,-1.03464 -121.87286,-42.01078 l -24.75581,-99.97937 a 8.344,8.344 0 0 1 6.42773,-10.32486 l 28.72679,-5.74536 14.14224,22.46121 28.28449,-24.9569 30.03793,9.8201 A 23.19158,23.19158 0 0 1 930.9073,543.455 Z"
       transform="translate(-130.62041,-46.62582)"
       fill="#e3eef9"
       id="path1187" />
    <path
       d="m 889.66449,760.92835 v 0 a 14.69073,14.69073 0 0 1 -5.97562,-23.22858 l 19.01689,-22.43017 13.31034,7.48707 -6.854,27.943 a 14.69072,14.69072 0 0 1 -19.49761,10.22868 z"
       transform="translate(-130.62041,-46.62582)"
       opacity="0.2"
       id="path1189" />
    <path
       d="m 889.66449,757.60077 v 0 a 14.69073,14.69073 0 0 1 -5.97562,-23.22858 l 19.01685,-22.43019 13.31034,7.48707 -6.854,27.943 a 14.69073,14.69073 0 0 1 -19.49757,10.2287 z"
       transform="translate(-130.62041,-46.62582)"
       fill="#ffb8b8"
       id="path1191" />
    <path
       d="m 919.34365,726.08424 -19.96552,-13.31034 29.11638,-77.3664 -10.81465,-108.9785 9.86544,6.1659 a 46.09758,46.09758 0 0 1 20.72563,29.82761 l 15.99514,77.97633 c -6.99882,35.9419 -18.66426,67.5654 -44.92242,85.6854 z"
       transform="translate(-130.62041,-46.62582)"
       fill="#e3eef9"
       id="path1193" />
    <polygon
       points="776.661,555.922 786.644,605.836 778.433,635.028 "
       opacity="0.2"
       id="polygon1195" />
    <path
       d="m 830.14152,476.84239 c 0,0 -15.517,-50.78312 31.90729,-40.13255 7.3558,1.652 13.71081,5.92791 18.76625,11.52072 a 4.56981,4.56981 0 0 0 3.57247,1.45942 c 7.57575,0 12.25524,27.07165 -2.89626,38.97641 0,0 3.0916,-16.01961 -2.528,-21.47812 a 12.0563,12.0563 0 0 1 -2.5013,-3.22058 c -3.65758,-7.37809 -15.95243,-9.79984 -24.432,-9.17173 -4.329,0.32067 -4.70747,7.8684 -9.4997,6.81418 -10.90415,-2.3988 -14.38487,10.23286 -12.38875,15.23225 z"
       transform="translate(-130.62041,-46.62582)"
       fill="#2f2e41"
       id="path1197" />
    <path
       d="m 877.87455,552.21622 -0.3135,2.29926 -1.93792,14.18773 -3.17365,23.23436 -0.79455,5.81721 a 1.85307,1.85307 0 0 1 -1.83645,1.60276 h -21.16309 a 1.85358,1.85358 0 0 1 -1.83647,-1.59825 l -0.80823,-5.82172 -3.22718,-23.23436 -1.97213,-14.19807 -0.31689,-2.2845 a 1.85321,1.85321 0 0 1 1.83531,-2.10888 h 33.70831 a 1.85417,1.85417 0 0 1 1.83644,2.10446 z"
       transform="translate(-130.62041,-46.62582)"
       fill="#e6e6e6"
       id="path1199" />
    <path
       d="M 713.94258,497.33038 H 743.294 a 1.85356,1.85356 0 0 1 1.85356,1.85356 v 2.44864 a 1.85351,1.85351 0 0 1 -1.85351,1.85351 h -29.35142 a 1.85356,1.85356 0 0 1 -1.85356,-1.85356 v -2.44863 a 1.85351,1.85351 0 0 1 1.85351,-1.85352 z"
       fill="#3f3d56"
       id="path1201" />
    <path
       d="m 880.52618,553.18977 a 196.18942,196.18942 0 0 1 -42.57495,0 1.85342,1.85342 0 0 1 -1.85346,-1.85341 v 0 -2.44879 a 1.85343,1.85343 0 0 1 1.85346,-1.85341 174.44189,174.44189 0 0 0 42.57495,0 1.85344,1.85344 0 0 1 1.85341,1.85341 v 2.44879 a 1.85344,1.85344 0 0 1 -1.85341,1.85341 z"
       transform="translate(-130.62041,-46.62582)"
       fill="#3f3d56"
       id="path1203" />
    <circle
       cx="727.75922"
       cy="527.00842"
       r="8"
       fill="#ffffff"
       id="circle1205" />
    <path
       d="m 878.94621,590.46462 v 0 A 14.69073,14.69073 0 0 1 860.9047,606.269 l -28.59415,-6.865 0.68373,-15.25628 28.0328,-6.47708 a 14.69073,14.69073 0 0 1 17.91913,12.79398 z"
       transform="translate(-130.62041,-46.62582)"
       fill="#ffb8b8"
       id="path1207" />
    <path
       d="m 840.31347,602.13164 -77.1686,1.92921 a 19.16715,19.16715 0 0 1 -19.45354,-21.8718 v 0 a 19.16712,19.16712 0 0 1 5.88033,-11.28657 l 36.33349,-33.9894 a 48.51883,48.51883 0 0 1 24.20448,-12.25587 l 12.734,-2.38762 7.48707,56.569 -43.25863,-4.99138 50.7457,5.82328 z"
       transform="translate(-130.62041,-46.62582)"
       fill="#e3eef9"
       id="path1209" />
    <path
       d="M 738.65069,768.1268 H 541.64343 a 6.60576,6.60576 0 0 1 -6.60576,-6.60576 v 0 q 107.12263,-12.44971 210.21878,0 v 0 a 6.60576,6.60576 0 0 1 -6.60576,6.60576 z"
       transform="translate(-130.62041,-46.62582)"
       fill="#2f2e41"
       id="path1211" />
    <path
       d="m 745.25645,761.90961 -210.21878,-0.38861 24.36362,-40.99461 0.11657,-0.19429 v -90.34741 a 8.34976,8.34976 0 0 1 8.35046,-8.35046 h 143.39176 a 8.34976,8.34976 0 0 1 8.35046,8.35046 v 90.96916 z"
       transform="translate(-130.62041,-46.62582)"
       fill="#3f3d56"
       id="path1213" />
    <path
       d="m 567.67792,627.46285 a 2.72307,2.72307 0 0 0 -2.72,2.72 v 82.37778 a 2.7232,2.7232 0 0 0 2.72,2.72 H 712.6162 a 2.72333,2.72333 0 0 0 2.72,-2.72 v -82.37776 a 2.7232,2.7232 0 0 0 -2.72,-2.72 z"
       transform="translate(-130.62041,-46.62582)"
       fill="#ffffff"
       id="path1215" />
    <path
       d="m 568.63047,726.16076 a 1.169,1.169 0 0 0 -1.0591,0.67849 l -7.50719,16.32013 a 1.16568,1.16568 0 0 0 1.05891,1.653 h 157.87222 a 1.1656,1.1656 0 0 0 1.0424,-1.68712 l -8.16006,-16.32012 a 1.15981,1.15981 0 0 0 -1.0424,-0.64434 z"
       transform="translate(-130.62041,-46.62582)"
       fill="#2f2e41"
       id="path1217" />
    <circle
       cx="508.94379"
       cy="577.72845"
       r="1.74859"
       fill="#ffffff"
       id="circle1219" />
    <path
       d="m 624.04664,747.92093 a 1.16751,1.16751 0 0 0 -1.1255,0.86253 l -1.8831,6.99434 a 1.16562,1.16562 0 0 0 1.1255,1.46892 H 657.976 a 1.16545,1.16545 0 0 0 1.10121,-1.54709 l -2.421,-6.99434 a 1.16634,1.16634 0 0 0 -1.10159,-0.78436 z"
       transform="translate(-130.62041,-46.62582)"
       fill="#2f2e41"
       id="path1221" />
    <polygon
       points="588.99,673.901 428.781,673.901 428.901,673.706 428.901,672.346 588.99,672.346 "
       fill="#2f2e41"
       id="polygon1223" />
    <path
       d="m 491.52194,667.13261 a 175.14542,175.14542 0 0 0 8.18151,48.41582 c 0.114,0.36373 0.23344,0.722 0.35286,1.0858 H 530.589 c -0.0326,-0.32576 -0.0652,-0.68949 -0.0978,-1.0858 -2.03588,-23.40445 -13.77337,-165.85054 0.26061,-190.21049 -1.22692,1.97616 -41.59696,67.42819 -39.22992,141.79467 z"
       transform="translate(-130.62041,-46.62582)"
       fill="#e6e6e6"
       id="path1225" />
    <path
       d="m 493.813,715.54843 c 0.25518,0.36373 0.5212,0.72747 0.79265,1.0858 h 22.905 c -0.17373,-0.30946 -0.3746,-0.67319 -0.608,-1.0858 -3.784,-6.82969 -14.984,-27.24816 -25.38058,-48.41582 -11.17289,-22.74753 -21.42285,-46.35825 -20.55963,-54.90349 -0.26614,1.92729 -7.99703,60.67988 22.85056,103.31931 z"
       transform="translate(-130.62041,-46.62582)"
       fill="#e6e6e6"
       id="path1227" />
    <path
       d="m 545.473,221.78479 12.41349,-9.92842 c -9.64348,-1.06394 -13.60582,4.19541 -15.22744,8.35823 -7.53388,-3.12835 -15.73541,0.97151 -15.73541,0.97151 l 24.83709,9.01675 a 18.79465,18.79465 0 0 0 -6.28773,-8.41807 z"
       transform="translate(-130.62041,-46.62582)"
       fill="#3f3d56"
       id="path1229" />
    <path
       d="m 919.35713,170.6795 12.41349,-9.92841 c -9.64349,-1.06394 -13.60582,4.19541 -15.22744,8.35823 -7.53389,-3.12835 -15.73541,0.97151 -15.73541,0.97151 l 24.83709,9.01674 a 18.79483,18.79483 0 0 0 -6.28773,-8.41807 z"
       transform="translate(-130.62041,-46.62582)"
       fill="#3f3d56"
       id="path1231" />
    <path
       d="m 847.87608,302.43457 12.41348,-9.92842 c -9.64348,-1.06394 -13.60581,4.19541 -15.22743,8.35823 -7.53389,-3.12835 -15.73542,0.97151 -15.73542,0.97151 l 24.8371,9.01674 a 18.79481,18.79481 0 0 0 -6.28773,-8.41806 z"
       transform="translate(-130.62041,-46.62582)"
       fill="#3f3d56"
       id="path1233" />
    <ellipse
       cx="320.01291"
       cy="272.58054"
       rx="112.0821"
       ry="228.69276"
       transform="rotate(-10.22048,-5.9871109,979.57994)"
       fill="#e6e6e6"
       id="ellipse1235" />
    <path
       d="m 301.65642,229.77517 q 14.78775,40.21121 26.31876,81.51807 11.509,41.26774 19.68957,83.36863 8.18007,42.08713 12.9707,84.73824 4.767,42.57644 6.1255,85.44331 1.35042,42.82083 -0.7457,85.65769 -0.258,5.24814 -0.56839,10.49347 c -0.21056,3.58181 5.36184,3.56959 5.57167,0 q 2.52606,-42.97206 1.585,-86.05062 -0.94624,-42.83215 -5.3194,-85.49687 -4.38378,-42.78927 -12.14609,-85.146 -7.767,-42.33823 -18.91259,-83.9628 -11.13864,-41.57793 -25.61467,-82.16468 -1.76623,-4.94872 -3.58171,-9.87963 c -1.22732,-3.33733 -6.6142,-1.89487 -5.37265,1.48117 z"
       transform="translate(-130.62041,-46.62582)"
       fill="#3f3d56"
       id="path1237" />
    <path
       d="m 340.048,335.23028 24.68456,-54.8093 6.95744,-15.44818 a 2.87134,2.87134 0 0 0 -0.99943,-3.81155 2.80754,2.80754 0 0 0 -3.81155,0.99942 L 342.19442,316.97 335.237,332.41815 a 2.87134,2.87134 0 0 0 0.99943,3.81155 2.80754,2.80754 0 0 0 3.81155,-0.99942 z"
       transform="translate(-130.62041,-46.62582)"
       fill="#3f3d56"
       id="path1239" />
    <path
       d="m 345.50228,372.68041 -56.28535,-21.10324 -15.86421,-5.948 a 2.80924,2.80924 0 0 0 -3.42691,1.94574 2.84665,2.84665 0 0 0 1.94574,3.42691 l 56.28534,21.10318 15.86421,5.948 a 2.80924,2.80924 0 0 0 3.42691,-1.94574 2.84663,2.84663 0 0 0 -1.94573,-3.42691 z"
       transform="translate(-130.62041,-46.62582)"
       fill="#3f3d56"
       id="path1241" />
    <path
       d="m 301.67218,671.62582 c 0,0 67.78868,-22.28669 130.93431,0"
       transform="translate(-130.62041,-46.62582)"
       fill="#e6e6e6"
       id="path1243" />
    <path
       d="m 604.99788,661.06645 c 13.43289,-0.13986 26.86407,-0.38 40.29636,-0.5625 q 6.717,-0.0913 13.43431,-0.16 c 3.85856,-0.0402 3.86843,-6.04028 0,-6 -13.43289,0.13986 -26.86407,0.38 -40.29636,0.5625 q -6.717,0.0912 -13.43431,0.16 c -3.85856,0.0402 -3.86843,6.04027 0,6 z"
       transform="translate(-130.62041,-46.62582)"
       fill="#e3eef9"
       id="path1245" />
    <path
       d="m 604.99788,675.06645 54.29031,-0.5625 15.44036,-0.16 c 3.85858,-0.04 3.86842,-6.04008 0,-6 l -54.29031,0.5625 -15.44036,0.16 c -3.85858,0.04 -3.86842,6.04008 0,6 z"
       transform="translate(-130.62041,-46.62582)"
       fill="#e3eef9"
       id="path1247" />
    <path
       d="m 604.99788,689.06645 54.29031,-0.5625 15.44036,-0.16 c 3.85858,-0.04 3.86842,-6.04008 0,-6 l -54.29031,0.5625 -15.44036,0.16 c -3.85858,0.04 -3.86842,6.04008 0,6 z"
       transform="translate(-130.62041,-46.62582)"
       fill="#e3eef9"
       id="path1249" />
  </g>
</svg>
