<?xml version="1.0" encoding="UTF-8" standalone="no"?>
<svg
   xmlns:dc="http://purl.org/dc/elements/1.1/"
   xmlns:cc="http://creativecommons.org/ns#"
   xmlns:rdf="http://www.w3.org/1999/02/22-rdf-syntax-ns#"
   xmlns:svg="http://www.w3.org/2000/svg"
   xmlns="http://www.w3.org/2000/svg"
   xmlns:sodipodi="http://sodipodi.sourceforge.net/DTD/sodipodi-0.dtd"
   xmlns:inkscape="http://www.inkscape.org/namespaces/inkscape"
   id="ade88119-7f3a-4b65-9776-bb54acb4e160"
   data-name="Layer 1"
   width="630"
   height="630"
   viewBox="0 0 630.00003 630"
   version="1.1"
   sodipodi:docname="undraw_Process_re_gws7.svg"
   inkscape:version="1.0.2 (e86c870879, 2021-01-15)">
  <metadata
     id="metadata573">
    <rdf:RDF>
      <cc:Work
         rdf:about="">
        <dc:format>image/svg+xml</dc:format>
        <dc:type
           rdf:resource="http://purl.org/dc/dcmitype/StillImage" />
        <dc:title></dc:title>
      </cc:Work>
    </rdf:RDF>
  </metadata>
  <defs
     id="defs571" />
  <sodipodi:namedview
     pagecolor="#ffffff"
     bordercolor="#666666"
     borderopacity="1"
     objecttolerance="10"
     gridtolerance="10"
     guidetolerance="10"
     inkscape:pageopacity="0"
     inkscape:pageshadow="2"
     inkscape:window-width="1920"
     inkscape:window-height="1016"
     id="namedview569"
     showgrid="false"
     inkscape:zoom="0.32264019"
     inkscape:cx="321.30315"
     inkscape:cy="434.80853"
     inkscape:window-x="1366"
     inkscape:window-y="0"
     inkscape:window-maximized="1"
     inkscape:current-layer="ade88119-7f3a-4b65-9776-bb54acb4e160" />
  <g
     id="g8664"
     transform="translate(14.2)">
    <rect
       x="756.96375"
       y="195.50659"
       width="1.67162"
       height="109.19622"
       transform="rotate(-46.40674,450.73576,531.59096)"
       fill="#e6e6e6"
       id="rect480" />
    <polygon
       points="499.457,154.001 498.845,143.982 497.175,144.083 497.679,152.309 489.437,152.21 489.419,153.882 "
       fill="#e6e6e6"
       id="polygon482" />
    <polygon
       points="417.745,76.206 427.781,76.326 427.763,77.998 419.522,77.899 420.026,86.125 418.355,86.226 "
       fill="#e6e6e6"
       id="polygon484" />
    <circle
       cx="458.59955"
       cy="115.10464"
       r="9.1928596"
       fill="#e6e6e6"
       id="circle486" />
    <rect
       x="389.27377"
       y="249.26889"
       width="109.19622"
       height="1.67162"
       transform="rotate(-43.59326,125.4811,556.69519)"
       fill="#e6e6e6"
       id="rect488" />
    <polygon
       points="104.427,143.982 103.815,154.001 113.853,153.882 113.834,152.21 105.593,152.309 106.097,144.083 "
       fill="#e6e6e6"
       id="polygon490" />
    <polygon
       points="175.49,76.326 185.527,76.206 184.916,86.226 183.246,86.125 183.749,77.899 175.508,77.998 "
       fill="#e6e6e6"
       id="polygon492" />
    <circle
       cx="144.67188"
       cy="115.10464"
       r="9.1928596"
       fill="#e6e6e6"
       id="circle494" />
    <path
       d="M 669.36429,325.54286 H 530.63571 a 7.53,7.53 0 0 1 -7.52142,-7.52143 v -175.5 A 7.53,7.53 0 0 1 530.63571,135 h 138.72858 a 7.53,7.53 0 0 1 7.52142,7.52143 v 175.5 a 7.53,7.53 0 0 1 -7.52142,7.52143 z M 530.63571,136.67143 a 5.85658,5.85658 0 0 0 -5.85,5.85 v 175.5 a 5.85658,5.85658 0 0 0 5.85,5.85 h 138.72858 a 5.85658,5.85658 0 0 0 5.85,-5.85 v -175.5 a 5.85658,5.85658 0 0 0 -5.85,-5.85 z"
       transform="translate(-299.2,-135)"
       fill="#3f3d56"
       id="path496" />
    <path
       d="m 588.45985,219.35842 h -30.537 a 3.76488,3.76488 0 0 1 -3.76071,-3.76071 V 179.562 a 3.76488,3.76488 0 0 1 3.76071,-3.76071 h 30.537 a 3.76489,3.76489 0 0 1 3.76072,3.76071 v 36.03569 a 3.76489,3.76489 0 0 1 -3.76072,3.76073 z"
       transform="translate(-299.2,-135)"
       fill="#e3eef9"
       id="path498" />
    <path
       d="m 647.79557,236.07271 h -30.537 a 3.7649,3.7649 0 0 1 -3.76072,-3.76071 v -36.03569 a 3.7649,3.7649 0 0 1 3.76072,-3.76072 h 30.537 a 3.76489,3.76489 0 0 1 3.76071,3.76072 V 232.312 a 3.76489,3.76489 0 0 1 -3.76071,3.76071 z"
       transform="translate(-299.2,-135)"
       fill="#cccccc"
       id="path500" />
    <path
       d="m 600.15985,287.05128 h -30.537 a 3.76488,3.76488 0 0 1 -3.76071,-3.76071 v -36.03569 a 3.76489,3.76489 0 0 1 3.76071,-3.76072 h 30.537 a 3.7649,3.7649 0 0 1 3.76072,3.76072 v 36.03569 a 3.76489,3.76489 0 0 1 -3.76072,3.76071 z"
       transform="translate(-299.2,-135)"
       fill="#ff6584"
       id="path502" />
    <path
       d="M 893.27857,506 H 754.55 a 7.53005,7.53005 0 0 1 -7.52143,-7.52143 v -175.5 a 7.53005,7.53005 0 0 1 7.52143,-7.52143 h 138.72857 a 7.53,7.53 0 0 1 7.52143,7.52143 v 175.5 A 7.53,7.53 0 0 1 893.27857,506 Z M 754.55,317.12857 a 5.85658,5.85658 0 0 0 -5.85,5.85 v 175.5 a 5.85658,5.85658 0 0 0 5.85,5.85 h 138.72857 a 5.85658,5.85658 0 0 0 5.85,-5.85 v -175.5 a 5.85658,5.85658 0 0 0 -5.85,-5.85 z"
       transform="translate(-299.2,-135)"
       fill="#3f3d56"
       id="path504" />
    <path
       d="m 847.73214,354.31786 h -47.63571 a 3.34286,3.34286 0 0 1 0,-6.68572 h 47.63571 a 3.34286,3.34286 0 0 1 0,6.68572 z"
       transform="translate(-299.2,-135)"
       fill="#e3eef9"
       id="path506" />
    <path
       d="m 871.13214,386.075 h -94.43571 a 3.34286,3.34286 0 1 1 0,-6.68571 h 94.43571 a 3.34286,3.34286 0 1 1 0,6.68571 z"
       transform="translate(-299.2,-135)"
       fill="#cccccc"
       id="path508" />
    <path
       d="m 871.13214,403.625 h -94.43571 a 3.34286,3.34286 0 1 1 0,-6.68571 h 94.43571 a 3.34286,3.34286 0 1 1 0,6.68571 z"
       transform="translate(-299.2,-135)"
       fill="#cccccc"
       id="path510" />
    <path
       d="m 871.13214,421.175 h -94.43571 a 3.34286,3.34286 0 1 1 0,-6.68571 h 94.43571 a 3.34286,3.34286 0 1 1 0,6.68571 z"
       transform="translate(-299.2,-135)"
       fill="#cccccc"
       id="path512" />
    <path
       d="m 871.13214,438.725 h -94.43571 a 3.34286,3.34286 0 1 1 0,-6.68571 h 94.43571 a 3.34286,3.34286 0 1 1 0,6.68571 z"
       transform="translate(-299.2,-135)"
       fill="#cccccc"
       id="path514" />
    <path
       d="m 871.13214,456.275 h -94.43571 a 3.34286,3.34286 0 1 1 0,-6.68571 h 94.43571 a 3.34286,3.34286 0 1 1 0,6.68571 z"
       transform="translate(-299.2,-135)"
       fill="#cccccc"
       id="path516" />
    <path
       d="m 871.13214,473.825 h -94.43571 a 3.34286,3.34286 0 1 1 0,-6.68571 h 94.43571 a 3.34286,3.34286 0 1 1 0,6.68571 z"
       transform="translate(-299.2,-135)"
       fill="#cccccc"
       id="path518" />
    <path
       d="M 445.45,506 H 306.72143 A 7.53,7.53 0 0 1 299.2,498.47857 v -175.5 a 7.53,7.53 0 0 1 7.52143,-7.52143 H 445.45 a 7.53005,7.53005 0 0 1 7.52143,7.52143 v 175.5 A 7.53005,7.53005 0 0 1 445.45,506 Z M 306.72143,317.12857 a 5.85658,5.85658 0 0 0 -5.85,5.85 v 175.5 a 5.85658,5.85658 0 0 0 5.85,5.85 H 445.45 a 5.85658,5.85658 0 0 0 5.85,-5.85 v -175.5 a 5.85658,5.85658 0 0 0 -5.85,-5.85 z"
       transform="translate(-299.2,-135)"
       fill="#3f3d56"
       id="path520" />
    <path
       d="m 423.44834,356.89277 h -41.78571 a 3.34286,3.34286 0 0 1 0,-6.68572 h 41.78571 a 3.34286,3.34286 0 1 1 0,6.68572 z"
       transform="translate(-299.2,-135)"
       fill="#3f3d56"
       id="path522" />
    <path
       d="m 423.44834,374.44277 h -41.78571 a 3.34286,3.34286 0 0 1 0,-6.68572 h 41.78571 a 3.34286,3.34286 0 1 1 0,6.68572 z"
       transform="translate(-299.2,-135)"
       fill="#3f3d56"
       id="path524" />
    <path
       d="m 360.22223,384.43578 h -30.537 a 3.76489,3.76489 0 0 1 -3.76072,-3.76071 v -36.03569 a 3.7649,3.7649 0 0 1 3.76072,-3.76072 h 30.537 a 3.76489,3.76489 0 0 1 3.76071,3.76072 v 36.03569 a 3.76488,3.76488 0 0 1 -3.76071,3.76071 z"
       transform="translate(-299.2,-135)"
       fill="#e3eef9"
       id="path526" />
    <path
       d="m 423.1588,410.37848 h -94.43571 a 3.34286,3.34286 0 1 1 0,-6.68571 h 94.43571 a 3.34286,3.34286 0 1 1 0,6.68571 z"
       transform="translate(-299.2,-135)"
       fill="#cccccc"
       id="path528" />
    <path
       d="m 423.1588,427.92848 h -94.43571 a 3.34286,3.34286 0 1 1 0,-6.68571 h 94.43571 a 3.34286,3.34286 0 1 1 0,6.68571 z"
       transform="translate(-299.2,-135)"
       fill="#cccccc"
       id="path530" />
    <path
       d="m 423.1588,445.47848 h -94.43571 a 3.34286,3.34286 0 1 1 0,-6.68571 h 94.43571 a 3.34286,3.34286 0 1 1 0,6.68571 z"
       transform="translate(-299.2,-135)"
       fill="#cccccc"
       id="path532" />
    <path
       d="m 423.1588,463.02848 h -94.43571 a 3.34286,3.34286 0 1 1 0,-6.68571 h 94.43571 a 3.34286,3.34286 0 1 1 0,6.68571 z"
       transform="translate(-299.2,-135)"
       fill="#cccccc"
       id="path534" />
    <path
       d="m 423.1588,480.57848 h -94.43571 a 3.34286,3.34286 0 1 1 0,-6.68571 h 94.43571 a 3.34286,3.34286 0 1 1 0,6.68571 z"
       transform="translate(-299.2,-135)"
       fill="#cccccc"
       id="path536" />
    <path
       d="m 497.89518,607.71863 v -36.03569 a 3.76489,3.76489 0 0 1 3.76071,-3.76071 h 30.537 a 3.76489,3.76489 0 0 1 3.76071,3.76071 v 36.03569 a 3.7649,3.7649 0 0 1 -3.76071,3.76072 h -30.537 a 3.7649,3.7649 0 0 1 -3.76071,-3.76072 z"
       transform="translate(-299.2,-135)"
       fill="#e6e6e6"
       id="path538" />
    <path
       d="m 508.89518,595.71863 v -36.03569 a 3.76489,3.76489 0 0 1 3.76071,-3.76071 h 30.537 a 3.76489,3.76489 0 0 1 3.76071,3.76071 v 36.03569 a 3.7649,3.7649 0 0 1 -3.76071,3.76072 h -30.537 a 3.7649,3.7649 0 0 1 -3.76071,-3.76072 z"
       transform="translate(-299.2,-135)"
       fill="#e3eef9"
       id="path540" />
    <path
       d="m 645.78429,584.18843 a 9.07776,9.07776 0 0 1 -2.39821,-13.71145 l -9.4656,-69.18787 19.71756,0.9678 3.09564,67.48557 a 9.12692,9.12692 0 0 1 -10.94939,14.446 z"
       transform="translate(-299.2,-135)"
       fill="#a0616a"
       id="path542" />
    <path
       d="m 656.34418,503.17871 a 3.70494,3.70494 0 0 1 -1.5051,1.06441 l -17.71963,6.76294 a 3.72283,3.72283 0 0 1 -4.729,-1.96465 l -15.69629,-35.27523 a 14.73962,14.73962 0 0 1 -0.7212,-10.43132 14.33679,14.33679 0 0 1 10.91159,-9.78216 13.67275,13.67275 0 0 1 5.89,0.0832 14.27981,14.27981 0 0 1 10.26305,8.92147 l 13.956,36.89 a 3.73032,3.73032 0 0 1 -0.64942,3.73138 z"
       transform="translate(-299.2,-135)"
       fill="#cccccc"
       id="path544" />
    <polygon
       points="252.547,618.06 248.102,570.549 264.809,570.773 264.807,618.06 "
       fill="#a0616a"
       id="polygon546" />
    <path
       d="m 243.79024,614.55666 h 23.64387 v 14.88687 h -38.53073 v 0 a 14.88686,14.88686 0 0 1 14.88686,-14.88687 z"
       fill="#2f2e41"
       id="path548" />
    <polygon
       points="309.547,618.06 303.715,570.772 321.809,570.773 321.807,618.06 "
       fill="#a0616a"
       id="polygon550" />
    <path
       d="m 300.79024,614.55666 h 23.64387 v 14.88687 h -38.53073 v 0 a 14.88686,14.88686 0 0 1 14.88686,-14.88687 z"
       fill="#2f2e41"
       id="path552" />
    <path
       d="m 622.54889,736.23552 -19.25513,-1.42578 a 4.50578,4.50578 0 0 1 -4.16235,-4.27051 L 594.838,641.80876 a 3.50008,3.50008 0 0 0 -6.92481,-0.5332 L 570.002,728.68278 a 4.50575,4.50575 0 0 1 -4.76709,3.582 l -17.40576,-1.39257 a 4.4995,4.4995 0 0 1 -4.1189,-4.93262 L 559.858,564.46306 a 4.49952,4.49952 0 0 1 5.43359,-3.94922 l 61.406,13.34863 a 4.511,4.511 0 0 1 3.543,4.48145 l -2.85992,153.48828 a 4.5022,4.5022 0 0 1 -4.489,4.416 c -0.11378,10e-6 -0.22804,-0.005 -0.34278,-0.0127 z"
       transform="translate(-299.2,-135)"
       fill="#2f2e41"
       id="path554" />
    <circle
       cx="306.50339"
       cy="269.88757"
       r="24.561029"
       fill="#a0616a"
       id="circle556" />
    <path
       d="m 567.59552,576.9152 a 21.96161,21.96161 0 0 1 -7.2937,-16.86621 c 0,-35.30078 30.55566,-114.168 31.51367,-116.6289 0.0935,-0.59278 0.89966,-0.84864 5.12939,-3.70606 4.23242,-2.85937 10.335,-3.29883 18.13941,-1.30566 a 4.47911,4.47911 0 0 1 3.25,3.31836 l 1.4519,2.09765 a 3.49144,3.49144 0 0 0 2.02881,2.40625 c 6.29346,2.65137 26.29809,14.87793 19.48144,60.89161 -6.33227,42.74316 -8.90185,67.88086 -9.71264,76.70507 a 4.49122,4.49122 0 0 1 -4.07154,4.06543 c -3.08569,0.27637 -8.38183,0.64356 -14.68945,0.64356 -14.62109,0 -34.67627,-1.97266 -45.22729,-11.6211 z"
       transform="translate(-299.2,-135)"
       fill="#cccccc"
       id="path558" />
    <path
       d="m 538.24736,563.83729 a 9.07771,9.07771 0 0 1 5.649,-12.72182 l 30.69308,-62.72547 15.83345,11.79069 -35.034,57.76251 a 9.12692,9.12692 0 0 1 -17.14158,5.89414 z"
       transform="translate(-299.2,-135)"
       fill="#a0616a"
       id="path560" />
    <path
       d="m 592.15633,502.454 a 3.7049,3.7049 0 0 1 -1.8429,0.0452 l -18.48219,-4.25807 a 3.72282,3.72282 0 0 1 -2.832,-4.26646 l 6.62251,-38.03759 a 14.73969,14.73969 0 0 1 5.21371,-9.06366 14.33681,14.33681 0 0 1 14.51142,-2.04255 13.67258,13.67258 0 0 1 4.84448,3.35107 14.27983,14.27983 0 0 1 3.55082,13.12686 l -8.96734,38.40871 a 3.7303,3.7303 0 0 1 -2.61851,2.73652 z"
       transform="translate(-299.2,-135)"
       fill="#cccccc"
       id="path562" />
    <path
       d="m 599.95291,427.0789 a 10.58407,10.58407 0 0 1 -2.83917,-9.3866 c 0.85636,-4.47943 1.35942,-7.41039 1.45471,-8.47667 v 0 c 0.32608,-3.64766 -3.36133,-6.60057 -7.01009,-7.07047 -0.1414,-0.0184 -0.25976,-0.0307 -0.35857,-0.0386 0.0929,0.0913 0.19279,0.18445 0.2804,0.267 0.693,0.65084 1.55573,1.46153 1.35064,2.29769 -0.12362,0.50327 -0.58364,0.86075 -1.40663,1.09087 -5.70622,1.59678 -10.1009,0.13087 -13.83068,-4.61645 a 11.026,11.026 0 0 1 -2.10511,-4.598 c -1.33593,-6.5549 2.2239,-12.14277 5.4458,-15.67537 2.6567,-2.91295 6.96354,-6.44907 12.39419,-6.75209 4.2234,-0.23583 9.24563,2.19448 10.74888,6.57423 a 8.15937,8.15937 0 0 1 6.36123,-3.58618 14.662,14.662 0 0 1 8.15827,2.26914 c 11.90914,6.8219 17.02732,23.07258 11.17684,35.48763 -3.68038,7.80914 -11.65421,13.62273 -20.80981,15.17209 a 10.39312,10.39312 0 0 1 -1.7349,0.14668 10.11515,10.11515 0 0 1 -7.276,-3.10485 z"
       transform="translate(-299.2,-135)"
       fill="#2f2e41"
       id="path564" />
    <path
       d="m 484.77874,765 h 195 a 1,1 0 0 0 0,-2 h -195 a 1,1 0 1 0 0,2 z"
       transform="translate(-299.2,-135)"
       fill="#3f3d56"
       id="path566" />
  </g>
</svg>
