<?xml version="1.0" encoding="UTF-8" standalone="no"?>
<svg
   xmlns:dc="http://purl.org/dc/elements/1.1/"
   xmlns:cc="http://creativecommons.org/ns#"
   xmlns:rdf="http://www.w3.org/1999/02/22-rdf-syntax-ns#"
   xmlns:svg="http://www.w3.org/2000/svg"
   xmlns="http://www.w3.org/2000/svg"
   xmlns:sodipodi="http://sodipodi.sourceforge.net/DTD/sodipodi-0.dtd"
   xmlns:inkscape="http://www.inkscape.org/namespaces/inkscape"
   id="f2473fb9-9653-4ee7-8806-669bab6c6842"
   data-name="Layer 1"
   width="903.80707"
   height="903.80707"
   viewBox="0 0 903.80709 903.80706"
   version="1.1"
   sodipodi:docname="profile.svg"
   inkscape:version="1.0.2 (e86c870879, 2021-01-15)">
  <metadata
     id="metadata648">
    <rdf:RDF>
      <cc:Work
         rdf:about="">
        <dc:format>image/svg+xml</dc:format>
        <dc:type
           rdf:resource="http://purl.org/dc/dcmitype/StillImage" />
        <dc:title />
      </cc:Work>
    </rdf:RDF>
  </metadata>
  <defs
     id="defs646" />
  <sodipodi:namedview
     pagecolor="#ffffff"
     bordercolor="#666666"
     borderopacity="1"
     objecttolerance="10"
     gridtolerance="10"
     guidetolerance="10"
     inkscape:pageopacity="0"
     inkscape:pageshadow="2"
     inkscape:window-width="1280"
     inkscape:window-height="960"
     id="namedview644"
     showgrid="false"
     inkscape:zoom="0.49361231"
     inkscape:cx="308.97944"
     inkscape:cy="80.703156"
     inkscape:window-x="3286"
     inkscape:window-y="0"
     inkscape:window-maximized="1"
     inkscape:current-layer="f2473fb9-9653-4ee7-8806-669bab6c6842"
     inkscape:document-rotation="0" />
  <path
     d="m 67.99919,706.22153 -0.95117,-1.75879 c 12.75342,-6.89746 28.62573,-15.481 36.916,-29.56738 8.17236,-13.88623 8.35571,-32.74268 0.47851,-49.21094 -6.70361,-14.01562 -19.01782,-26.57226 -35.61108,-36.313 -3.273,-1.92138 -6.70874,-3.74218 -10.0315,-5.50341 -8.03149,-4.25635 -16.33642,-8.65821 -23.18432,-14.90284 -9.43164,-8.60107 -16.56787,-23.03466 -11.249,-35.89111 a 23.85567,23.85567 0 0 1 20.6775,-14.46728 l 0.11279,1.99707 a 21.86061,21.86061 0 0 0 -18.94776,13.248 c -4.94262,11.94727 1.83863,25.50489 10.75415,33.63574 6.66065,6.07374 14.85181,10.415 22.7732,14.61329 3.34155,1.771 6.79712,3.60254 10.10766,5.54589 16.93848,9.94336 29.52637,22.79786 36.40259,37.17432 8.1604,17.06055 7.94629,36.63672 -0.55908,51.08887 -8.57276,14.56601 -24.71656,23.29696 -37.68849,30.31157 z"
     fill="#f1f1f1"
     id="path575" />
  <ellipse
     cx="57.719906"
     cy="520.64795"
     rx="17.5"
     ry="8.5"
     fill="#f1f1f1"
     id="ellipse577" />
  <ellipse
     cx="71.719902"
     cy="576.64795"
     rx="17.5"
     ry="8.5"
     fill="#f1f1f1"
     id="ellipse579" />
  <ellipse
     cx="39.719906"
     cy="585.64795"
     rx="17.5"
     ry="8.5"
     fill="#f1f1f1"
     id="ellipse581" />
  <ellipse
     cx="89.719902"
     cy="632.64795"
     rx="17.5"
     ry="8.5"
     fill="#f1f1f1"
     id="ellipse583" />
  <ellipse
     cx="124.7199"
     cy="632.64795"
     rx="17.5"
     ry="8.5"
     fill="#f1f1f1"
     id="ellipse585" />
  <rect
     id="bc1144e2-c94b-4f66-aa77-0b454dfd4174"
     data-name="Rectangle 62"
     x="341.01114"
     y="212.76038"
     width="562.79596"
     height="267.05643"
     fill="#999999"
     style="fill:#999999;fill-opacity:1" />
  <rect
     id="ad6bb9d5-2e55-4525-b077-6ac2d5f26b45"
     data-name="Rectangle 75"
     x="357.10446"
     y="235.66093"
     width="530.61005"
     height="222.81354"
     fill="#ffffff" />
  <rect
     id="a1fdfaec-ef9f-458a-9330-7bb8c38fec43"
     data-name="Rectangle 80"
     x="340.77115"
     width="562.79596"
     height="23.909241"
     fill="#091454"
     y="197.33095"
     style="fill:#091454;fill-opacity:1" />
  <circle
     id="ac9f2818-2064-46b1-8104-b7d94390836e"
     data-name="Ellipse 90"
     cx="358.5387"
     cy="208.39008"
     r="4.4314899"
     fill="#ffffff" />
  <circle
     id="bd067119-2054-4d5f-9303-2e8fa40cc410"
     data-name="Ellipse 91"
     cx="375.35916"
     cy="208.39008"
     r="4.4314899"
     fill="#ffffff" />
  <circle
     id="ee5e9ca0-6fca-449b-8f84-cf683813bd65"
     data-name="Ellipse 92"
     cx="392.18042"
     cy="208.39008"
     r="4.4314899"
     fill="#ffffff" />
  <path
     id="acae6c4c-8028-4596-98db-d9926d2ed09f"
     data-name="Path 142"
     d="m 594.43233,288.53882 a 2.14688,2.14688 0 0 0 0,4.29376 h 117.80392 a 2.14688,2.14688 0 0 0 0,-4.29376 z"
     fill="#999999"
     style="fill:#999999" />
  <path
     id="a061bcdc-636b-4d12-a036-d7339f47b36a"
     data-name="Path 143"
     d="m 594.43233,301.42132 a 2.14689,2.14689 0 0 0 0,4.29377 h 60.14129 a 2.14689,2.14689 0 0 0 0,-4.29377 z"
     fill="#999999"
     style="fill:#999999" />
  <path
     id="e4e4593e-e83d-4128-8cd7-f0323b36c2f2"
     data-name="Path 142"
     d="m 591.46796,363.77465 a 2.14688,2.14688 0 0 0 0,4.29376 h 220.88293 a 2.14688,2.14688 0 0 0 0,-4.29376 z"
     fill="#999999"
     style="fill:#999999" />
  <path
     id="bf45783c-1d79-4b4f-82bb-39fc8a52f7aa"
     data-name="Path 143"
     d="m 591.46796,376.65715 a 2.14689,2.14689 0 0 0 0,4.29377 h 163.22029 a 2.14689,2.14689 0 0 0 0,-4.29377 z"
     fill="#999999"
     style="fill:#999999" />
  <path
     id="b544fc92-6fc6-4255-93fb-dee32d880d89"
     data-name="Path 142"
     d="m 591.46796,389.24819 a 2.14689,2.14689 0 0 0 0,4.29377 h 220.88293 a 2.14689,2.14689 0 0 0 0,-4.29377 z"
     fill="#999999"
     style="fill:#999999" />
  <path
     id="e14bb681-aaa1-4454-9da9-28d0809a146c"
     data-name="Path 143"
     d="m 591.46796,402.1307 a 2.14689,2.14689 0 0 0 0,4.29377 h 163.22029 a 2.14689,2.14689 0 0 0 0,-4.29377 z"
     fill="#999999"
     style="fill:#999999" />
  <circle
     cx="475.98886"
     cy="353.79324"
     r="18.694281"
     fill="#a0616a"
     id="circle599" />
  <path
     d="m 470.06899,338.8378 c 0,0 8.724,2.33677 13.24179,3.2715 4.51779,0.93473 4.05043,-1.71365 4.05043,-1.71365 0,0 5.91986,0.77892 5.60828,0.15578 -0.31158,-0.62314 2.49256,-3.89463 -0.77893,-7.6335 -3.27149,-3.73887 -2.33679,-6.543 -2.33679,-6.543 h -2.80414 l -0.77893,-1.09051 h -4.362 c 0,0 -4.8226,-4.22888 -13.39083,-2.98259 -8.56823,1.24629 -18.701,4.54044 -19.63575,9.68138 -0.12678,0.6973 -0.29369,1.472 -0.48751,2.29025 -2.34294,9.89144 2.63523,19.14638 7.79851,27.90255 1.26893,2.15193 7.40685,6.8444 7.24985,3.62493 -0.157,-3.21947 -5.52527,-10.44986 -1.78641,-10.91722 3.73886,-0.46736 10.12607,-9.97028 8.41243,-16.04592 z"
     fill="#2f2e41"
     id="path601" />
  <path
     d="m 465.38397,414.22853 a 65.38,65.38 0 0 1 -10.69912,-1.75788 l 0.19683,-3.728 1.63684,-29.64212 0.0148,-0.22735 h 32.93056 l 5.1679,27.29315 0.697,3.68251 c -1.36375,0.53046 -2.743,1.03058 -4.15193,1.47 -0.0155,0 -0.0155,0.0152 -0.0303,0.0152 -1.955,0.60612 -3.9403,1.13658 -5.94116,1.576 a 68.55812,68.55812 0 0 1 -8.06189,1.24267 62.04526,62.04526 0 0 1 -6.30374,0.30311 c -1.81884,9e-5 -3.65247,-0.0757 -5.45575,-0.22726 z"
     fill="#939dac"
     id="path603"
     style="fill:#939dac" />
  <path
     d="m 444.2129,408.95481 c -1.36375,-0.591 -2.68237,-1.2275 -3.98544,-1.8943 l -0.56089,-0.28794 c -0.37886,-0.197 -0.77252,-0.4092 -1.15139,-0.62138 q -0.77363,-0.43178 -1.50064,-0.86372 c -0.46988,-0.27287 -0.95455,-0.56071 -1.42443,-0.84865 -0.0303,-0.0152 -0.0451,-0.0303 -0.0755,-0.0303 -1.6368,-1.04566 -3.24326,-2.12166 -4.789,-3.28848 q -0.38626,-0.29553 -0.77326,-0.591 l -0.27231,-4.36448 0.39366,-0.24253 26.44479,-16.82146 0.36333,-0.22735 0.0303,-0.0151 3.72794,0.0151 v 13.88151 c 2.10667,3.04605 3.5311,9.426 4.41017,17.77612 0.12136,1.19726 0.22717,2.42476 0.33373,3.69769 a 65.38,65.38 0 0 1 -10.69912,-1.75788 c -0.37886,-0.0758 -0.74293,-0.16667 -1.12179,-0.27277 a 62.70234,62.70234 0 0 1 -6.51611,-2.09132 c -0.6519,-0.24252 -1.28827,-0.50012 -1.92464,-0.75772 l -0.0607,-0.0303 c -0.27309,-0.12123 -0.57574,-0.2424 -0.84878,-0.36366 z"
     fill="#2f2e41"
     id="path605" />
  <path
     d="m 438.51518,406.15119 q -0.77363,-0.43178 -1.50064,-0.86372 c -0.46988,-0.27287 -0.95455,-0.56071 -1.42443,-0.84865 -0.0303,-0.0152 -0.0451,-0.0303 -0.0755,-0.0303 -1.6368,-1.04566 -3.24326,-2.12166 -4.789,-3.28848 q -0.38626,-0.29553 -0.77326,-0.591 c -0.12062,-0.10609 -0.242,-0.197 -0.37886,-0.30311 -0.96935,-0.74255 -1.90911,-1.51544 -2.81852,-2.33375 -0.0451,-0.0303 -0.0755,-0.0758 -0.12135,-0.10609 a 10.42192,10.42192 0 0 1 3.04642,-1.62153 l 1.07591,0.31827 7.66823,2.30341 0.0451,3.10664 z"
     fill="#2f2e41"
     id="path607" />
  <path
     d="m 503.08802,406.19669 c -0.45508,0.24243 -0.90941,0.485 -1.36375,0.71222 -0.10656,0.0607 -0.19683,0.10609 -0.28785,0.1516 -0.60677,0.30311 -1.19726,0.60612 -1.80329,0.89406 -0.0155,0.0152 -0.0459,0.0152 -0.0459,0.0303 -0.0303,0.0152 -0.0755,0.0303 -0.10582,0.0455 -1.36375,0.65163 -2.743,1.25776 -4.15267,1.81846 -1.36375,0.53046 -2.743,1.03058 -4.15193,1.47 -0.0155,0 -0.0155,0.0152 -0.0303,0.0152 -1.955,0.60612 -3.9403,1.13658 -5.94116,1.576 a 12.50562,12.50562 0 0 1 0.48542,-3.68252 l 0.0148,-0.21218 1.30381,-21.09495 -1.74335,-9.04724 5.00141,-0.74256 27.50515,14.80594 c 0,0 -3.03089,3.03089 -15.47262,9.48669 -1.1001,0.57086 0.51501,2.47021 0.78806,3.77347 z"
     fill="#2f2e41"
     id="path609" />
  <path
     d="m 476.81052,410.51567 c -1.97052,0.18185 -3.97064,0.27286 -5.97076,0.27286 -1.94018,0 -3.86482,-0.0758 -5.78947,-0.25769 0.12136,1.19726 0.22717,2.42476 0.33373,3.69769 1.80328,0.1516 3.63691,0.22735 5.45574,0.22735 a 62.04526,62.04526 0 0 0 6.30374,-0.30311 68.55812,68.55812 0 0 0 8.06189,-1.24267 12.50562,12.50562 0 0 1 0.48542,-3.68252 l 0.0148,-0.21218 a 62.99621,62.99621 0 0 1 -8.89509,1.50027 z M 534.07844,325.469 a 66.97189,66.97189 0 1 0 -115.73392,63.61837 c 0.606,0.75772 1.2276,1.51545 1.864,2.24283 0.0607,0.0606 0.091,0.10609 0.13615,0.15151 a 63.82062,63.82062 0 0 0 4.98587,5.13737 c 0.42474,0.394 0.86354,0.78806 1.30308,1.16692 0.0459,0.0302 0.0762,0.0758 0.12135,0.10609 0.90941,0.81831 1.84917,1.5912 2.81852,2.33375 0.13689,0.1061 0.25824,0.197 0.37886,0.30311 q 0.38736,0.29553 0.77326,0.591 c 1.54578,1.16682 3.15224,2.24282 4.789,3.28848 0.0303,0 0.0451,0.0152 0.0755,0.0303 0.46988,0.28794 0.95455,0.57578 1.42443,0.84865 q 0.72813,0.43189 1.50064,0.86372 c 0.37887,0.21218 0.77253,0.42436 1.15139,0.62138 l 0.56089,0.28794 c 1.30307,0.6668 2.62169,1.30326 3.98544,1.8943 0.273,0.12126 0.57569,0.24243 0.84873,0.36369 l 0.0607,0.0303 c 0.63637,0.2576 1.27274,0.5152 1.92464,0.75772 a 62.70234,62.70234 0 0 0 6.51611,2.09132 c 0.37886,0.1061 0.74293,0.197 1.12179,0.27277 a 65.38,65.38 0 0 0 10.69912,1.75788 c 1.80328,0.1516 3.63691,0.22735 5.45574,0.22735 a 62.04526,62.04526 0 0 0 6.30374,-0.30311 68.55812,68.55812 0 0 0 8.06189,-1.24267 c 2.00086,-0.43945 3.98618,-0.96991 5.94116,-1.576 0.0148,0 0.0148,-0.0152 0.0303,-0.0152 1.40889,-0.43945 2.78818,-0.93957 4.15193,-1.47 1.40963,-0.5607 2.78892,-1.16683 4.15267,-1.81846 0.0303,-0.0152 0.0755,-0.0303 0.10582,-0.0455 0,-0.0152 0.0303,-0.0152 0.0459,-0.0303 0.606,-0.28794 1.19652,-0.591 1.80329,-0.89406 0.091,-0.0455 0.18129,-0.0909 0.28785,-0.1516 0.45434,-0.22726 0.90867,-0.46979 1.36375,-0.71222 0.0303,-0.0152 0.0451,-0.0303 0.0755,-0.0455 1.19725,-0.66671 2.37971,-1.36385 3.54664,-2.1064 0.31818,-0.197 0.63636,-0.394 0.95455,-0.62138 0.46987,-0.28794 0.92421,-0.60613 1.36375,-0.9244 0.59123,-0.4092 1.18172,-0.83348 1.75815,-1.273 a 4.67929,4.67929 0 0 0 0.54535,-0.40911 c 1.40963,-1.06083 2.77338,-2.18224 4.07646,-3.36433 a 66.91395,66.91395 0 0 0 18.67,-71.98356 z m -19.80658,68.07378 a 64.7919,64.7919 0 0 1 -5.15236,4.36448 c -0.39366,0.303 -0.8036,0.60613 -1.212,0.87889 -0.3944,0.30311 -0.78806,0.59105 -1.19726,0.86382 -0.34853,0.24252 -0.697,0.48495 -1.06111,0.7123 -0.0303,0.0303 -0.0755,0.0454 -0.10582,0.0758 -0.25824,0.18184 -0.53055,0.34852 -0.78806,0.5152 -0.80359,0.50012 -1.63679,1.00024 -2.45519,1.47 -0.19683,0.1061 -0.37886,0.22727 -0.57569,0.33336 -0.10656,0.0607 -0.21237,0.12126 -0.33373,0.18184 -0.45433,0.2577 -0.90941,0.485 -1.36375,0.72748 -0.0607,0.0454 -0.13615,0.0606 -0.19683,0.10609 a 0.11229,0.11229 0 0 0 -0.0607,0.0303 c -0.31819,0.16677 -0.63637,0.31827 -0.95455,0.46978 -0.27305,0.13643 -0.53056,0.27277 -0.8036,0.394 -1.10625,0.53046 -2.24283,1.03049 -3.37941,1.50028 -1.19726,0.48495 -2.40932,0.92449 -3.63692,1.33359 -0.30338,0.1061 -0.62157,0.22736 -0.93975,0.31828 -1.44,0.45461 -2.8792,0.86381 -4.3495,1.19717 a 62.99621,62.99621 0 0 1 -8.89509,1.50027 c -1.97052,0.18185 -3.97064,0.27286 -5.97076,0.27286 -1.94018,0 -3.86482,-0.0758 -5.78947,-0.25769 a 62.3735,62.3735 0 0 1 -10.16856,-1.78821 c -0.12136,-0.0303 -0.25751,-0.0606 -0.37886,-0.0909 a 58.11093,58.11093 0 0 1 -8.01676,-2.72777 c -0.13615,-0.0606 -0.28784,-0.1061 -0.4092,-0.16668 -0.15169,-0.0607 -0.28784,-0.10609 -0.4092,-0.16677 -0.15169,-0.0606 -0.28784,-0.12117 -0.424,-0.18185 -1.13658,-0.5 -2.24282,-1.04566 -3.34907,-1.60636 l -0.51575,-0.27277 c -0.98489,-0.5152 -1.955,-1.04566 -2.90953,-1.63671 -0.333,-0.18184 -0.68151,-0.39393 -1.01523,-0.60612 -0.37886,-0.22735 -0.75772,-0.46978 -1.12178,-0.7123 q -0.13542,-0.0909 -0.27231,-0.18185 c -0.84874,-0.57588 -1.71227,-1.15175 -2.53067,-1.773 -0.57569,-0.42437 -1.13659,-0.83348 -1.69748,-1.273 -0.36406,-0.27276 -0.72738,-0.5607 -1.0759,-0.86372 -0.22717,-0.16677 -0.45434,-0.36378 -0.68225,-0.5608 -0.30264,-0.2576 -0.606,-0.5152 -0.90867,-0.788 -0.46988,-0.37886 -0.90942,-0.80323 -1.33416,-1.19726 a 60.22928,60.22928 0 0 1 -4.83417,-5.00095 c -0.515,-0.57587 -1.00043,-1.15175 -1.46957,-1.75787 a 3.64682,3.64682 0 0 1 -0.30338,-0.37886 63.2983,63.2983 0 1 1 93.04807,6.74374 z"
     fill="#3f3d56"
     id="path611" />
  <polygon
     points="163.436,496.698 175.696,496.697 181.528,449.409 163.434,449.41 "
     fill="#a0616a"
     id="polygon613"
     transform="translate(-1.5258789e-5,197.33095)" />
  <path
     d="m 160.30903,690.02605 24.144,-0.001 h 10e-4 a 15.38731,15.38731 0 0 1 15.38649,15.38625 v 0.5 l -39.53076,10e-4 z"
     fill="#2f2e41"
     id="path615" />
  <polygon
     points="209.436,496.698 221.696,496.697 227.528,449.409 209.434,449.41 "
     fill="#a0616a"
     id="polygon617"
     transform="translate(-1.5258789e-5,197.33095)" />
  <path
     d="m 206.30903,690.02605 24.144,-0.001 h 10e-4 a 15.38731,15.38731 0 0 1 15.38649,15.38625 v 0.5 l -39.53076,10e-4 z"
     fill="#2f2e41"
     id="path619" />
  <path
     d="m 126.23652,507.17097 a 10.05579,10.05579 0 0 0 -1.88328,-15.30389 l 8.51818,-34.70475 -17.49238,6.233 -5.40724,32.00063 a 10.11028,10.11028 0 0 0 16.26472,11.775 z"
     fill="#9e616a"
     id="path621" />
  <path
     d="m 256.37761,504.17097 a 10.05576,10.05576 0 0 1 1.88329,-15.30389 l -8.51818,-34.70475 17.49238,6.233 5.40723,32.00063 a 10.11027,10.11027 0 0 1 -16.26472,11.775 z"
     fill="#9e616a"
     id="path623" />
  <polygon
     points="236.736,279.728 151.319,271.078 142.367,285.513 159.36,484.578 184.224,482.311 194.175,328.461 203.033,389.379 204.807,486.145 227.307,484.645 239.801,380.545 "
     fill="#2f2e41"
     id="polygon625"
     transform="translate(-1.5258789e-5,197.33095)" />
  <circle
     cx="189.11209"
     cy="275.91339"
     r="25.78574"
     fill="#a0616a"
     id="circle627" />
  <path
     d="m 180.9466,255.28478 c 0,0 12.03336,3.22321 18.26491,4.51252 6.23155,1.28931 5.58691,-2.36371 5.58691,-2.36371 0,0 8.1655,1.0744 7.73572,0.21487 -0.42978,-0.85953 3.43809,-5.372 -1.0744,-10.52917 -4.51249,-5.15717 -3.22322,-9.025 -3.22322,-9.025 h -3.86786 l -1.07442,-1.50418 h -6.01672 c 0,0 -6.652,-5.833 -18.4705,-4.114 -11.8185,1.719 -25.79505,6.26281 -27.08434,13.3539 -0.17487,0.96182 -0.4051,2.03038 -0.67243,3.159 -3.23171,13.64365 3.63487,26.40934 10.75677,38.48707 1.75029,2.96823 10.21656,9.44074 10,5 -0.21656,-4.44074 -7.62122,-14.41389 -2.46407,-15.05854 5.15715,-0.64465 13.96734,-13.75238 11.60365,-22.13276 z"
     fill="#2f2e41"
     id="path629" />
  <path
     d="m 162.27952,310.50744 h 45.41173 l 32.10968,169.575 c 0,0 -27.99385,2.3937 -43.99385,8.3937 -16,6 -42.59842,-13.70585 -42.59842,-13.70585 z"
     fill="#b7bec8"
     id="path631"
     style="fill:#b7bec8" />
  <path
     d="m 167.9488,329.65722 v -19.14978 l -5.14174,-0.0313 -37.56693,23.885 8.15165,130.86273 c 0,0 9.64794,43.65782 24.28161,43.20506 14.63367,-0.45276 25.91713,-156.09058 10.27541,-178.77168 z"
     fill="#2f2e41"
     id="path633" />
  <path
     d="m 137.30706,337.97611 -12.06693,-3.615 c 0,0 -8.93307,2.615 -8.93307,11.615 0,9 -7.69685,136.86794 -7.69685,136.86794 l 24.45076,2.16092 5.24609,-65.02886 z"
     fill="#2f2e41"
     id="path635" />
  <path
     d="m 204.30706,322.97611 -2.40535,-12.46867 6.90535,-1.03133 25,10 c 0,0 22.5,164.5 12.5,169.5 -10,5 -16.752,1.12615 -16.752,1.12615 0,0 -32.89122,-121.32613 -27.06961,-137.72614 z"
     fill="#2f2e41"
     id="path637" />
  <path
     d="m 216.30706,321.97611 4.26656,-1.85711 c 0,0 12.52311,-6.20565 19.62828,6.32573 7.10517,12.53138 32.10516,152.53138 32.10516,152.53138 l -20.57029,3.86794 -15.37853,-50.38368 z"
     fill="#2f2e41"
     id="path639" />
  <path
     d="m 381.99998,706.47611 h -381 a 1,1 0 1 1 0,-2 h 381 a 1,1 0 0 1 0,2 z"
     fill="#cacaca"
     id="path641" />
</svg>
