<?xml version="1.0" encoding="UTF-8" standalone="no"?>
<svg
   xmlns:dc="http://purl.org/dc/elements/1.1/"
   xmlns:cc="http://creativecommons.org/ns#"
   xmlns:rdf="http://www.w3.org/1999/02/22-rdf-syntax-ns#"
   xmlns:svg="http://www.w3.org/2000/svg"
   xmlns="http://www.w3.org/2000/svg"
   xmlns:sodipodi="http://sodipodi.sourceforge.net/DTD/sodipodi-0.dtd"
   xmlns:inkscape="http://www.inkscape.org/namespaces/inkscape"
   id="a4823bb7-9e55-4f02-88e9-605b119b3f07"
   data-name="Layer 1"
   width="826.3819"
   height="826.3819"
   viewBox="0 0 826.38189 826.38189"
   version="1.1"
   sodipodi:docname="references.svg"
   inkscape:version="1.0.2 (e86c870879, 2021-01-15)">
  <metadata
     id="metadata77">
    <rdf:RDF>
      <cc:Work
         rdf:about="">
        <dc:format>image/svg+xml</dc:format>
        <dc:type
           rdf:resource="http://purl.org/dc/dcmitype/StillImage" />
        <dc:title></dc:title>
      </cc:Work>
    </rdf:RDF>
  </metadata>
  <defs
     id="defs75" />
  <sodipodi:namedview
     pagecolor="#ffffff"
     bordercolor="#666666"
     borderopacity="1"
     objecttolerance="10"
     gridtolerance="10"
     guidetolerance="10"
     inkscape:pageopacity="0"
     inkscape:pageshadow="2"
     inkscape:window-width="1366"
     inkscape:window-height="704"
     id="namedview73"
     showgrid="false"
     inkscape:zoom="0.54052622"
     inkscape:cx="562.17534"
     inkscape:cy="227.15233"
     inkscape:window-x="0"
     inkscape:window-y="312"
     inkscape:window-maximized="1"
     inkscape:current-layer="a4823bb7-9e55-4f02-88e9-605b119b3f07" />
  <g
     id="g939"
     transform="translate(2.8486328e-5,160.62595)">
    <path
       id="e73ea6d0-018f-4f1a-b9fb-ec835afd7d29"
       data-name="Path 438"
       d="m 958.436,653.57547 a 24.21462,24.21462 0 0 1 -23.38268,-4.11877 c -8.18977,-6.87442 -10.758,-18.196 -12.84671,-28.68191 l -6.17973,-31.01657 12.9377,8.90836 c 9.30465,6.40641 18.81827,13.01866 25.26011,22.29785 6.44184,9.27919 9.25223,21.94708 4.07792,31.988"
       transform="translate(-186.80906,-197.435)"
       fill="#e6e6e6" />
    <path
       id="adfa37d6-6055-4e93-a6c7-1993979ff9f6"
       data-name="Path 439"
       d="m 956.43833,693.286 c 1.62839,-11.86369 3.30382,-23.88079 2.15884,-35.87167 -1.01466,-10.64933 -4.26373,-21.04881 -10.87831,-29.57938 A 49.20592,49.20592 0 0 0 935.0942,616.39456 c -1.26215,-0.79648 -2.42409,1.20354 -1.16733,1.997 a 46.7794,46.7794 0 0 1 18.50446,22.32562 c 4.02858,10.24607 4.67545,21.41582 3.98154,32.30029 -0.41944,6.58218 -1.31074,13.12121 -2.20588,19.65252 a 1.19816,1.19816 0 0 0 0.808,1.4225 1.16347,1.16347 0 0 0 1.42253,-0.808 z"
       transform="translate(-186.80906,-197.435)"
       fill="#f2f2f2" />
    <path
       id="ab8f3b7e-46a3-4c45-91c1-6e6ed9e46d7b"
       data-name="Path 442"
       d="m 944.7173,674.24958 a 17.82512,17.82512 0 0 1 -15.53141,8.01861 c -7.8644,-0.37318 -14.41806,-5.85972 -20.31713,-11.07026 l -17.452,-15.40881 11.54987,-0.5528 c 8.3062,-0.39784 16.82672,-0.771 24.73814,1.79338 7.91142,2.56438 15.20757,8.72639 16.654,16.9154"
       transform="translate(-186.80906,-197.435)"
       fill="#e6e6e6" />
    <path
       id="a06078c2-c2e6-4e9e-9e9d-932246ef76f7"
       data-name="Path 443"
       d="m 961.04131,700.10571 c -7.83972,-13.87142 -16.93234,-29.28794 -33.1808,-34.21551 a 37.02581,37.02581 0 0 0 -13.95544,-1.44105 c -1.4819,0.128 -1.1118,2.41174 0.367,2.28454 a 34.39821,34.39821 0 0 1 22.27164,5.89215 c 6.27994,4.27453 11.16975,10.21755 15.30781,16.51907 2.53511,3.8605 4.80577,7.88445 7.07642,11.903 0.72555,1.28451 2.84738,0.35697 2.11337,-0.9422 z"
       transform="translate(-186.80906,-197.435)"
       fill="#f2f2f2" />
    <polygon
       points="494.22,150.5 494.22,282.58 189.16,282.58 189.16,352.71 108.51,352.71 108.51,150.5 "
       fill="#ffffff"
       id="polygon6" />
    <path
       d="m 291.80906,344.435 v 209.22 h 84.16015 v -7.01 h -77.15015 v -195.2 h 378.71 v 128.57 h 7.01 v -135.58 z"
       transform="translate(-186.80906,-197.435)"
       fill="#e5e5e5"
       id="path8" />
    <rect
       x="189.35419"
       y="225.34781"
       width="244.49561"
       height="8.6308203"
       fill="#e5e5e5"
       id="rect10" />
    <rect
       x="189.35419"
       y="247.78793"
       width="244.49561"
       height="8.6308203"
       fill="#e5e5e5"
       id="rect12" />
    <rect
       x="189.35419"
       y="270.22806"
       width="244.49561"
       height="8.6308203"
       fill="#e5e5e5"
       id="rect14" />
    <circle
       cx="174.51341"
       cy="229.98892"
       r="5.6326599"
       fill="#e5e5e5"
       id="circle16" />
    <polygon
       points="389.22,3.5 389.22,135.58 84.16,135.58 84.16,205.71 3.51,205.71 3.51,3.5 "
       fill="#ffffff"
       id="polygon18" />
    <path
       d="m 186.80906,197.435 v 209.22 h 84.16015 v -7.01 h -77.15015 v -195.2 h 378.71 v 128.57 h 7.01 v -135.58 z"
       transform="translate(-186.80906,-197.435)"
       fill="#f1f1f1"
       id="path20" />
    <rect
       x="84.354187"
       y="78.347809"
       width="244.49561"
       height="8.6308203"
       fill="#f1f1f1"
       id="rect22" />
    <rect
       x="84.354187"
       y="100.78794"
       width="244.49561"
       height="8.6308203"
       fill="#f1f1f1"
       id="rect24" />
    <rect
       x="84.354187"
       y="123.22806"
       width="244.49561"
       height="8.6308203"
       fill="#f1f1f1"
       id="rect26" />
    <circle
       cx="69.51342"
       cy="82.988922"
       r="5.6326599"
       fill="#f1f1f1"
       id="circle28" />
    <rect
       x="209.77618"
       y="299.41412"
       width="385.71729"
       height="202.20937"
       fill="#ffffff"
       id="rect30" />
    <path
       d="M 785.80906,702.565 H 393.07873 V 493.3426 H 785.80906 Z M 400.09177,695.552 H 778.796 V 500.35564 H 400.09177 Z"
       transform="translate(-186.80906,-197.435)"
       fill="#cbcbcb"
       id="path32" />
    <rect
       x="290.20038"
       y="374.57657"
       width="244.49561"
       height="8.6308203"
       fill="#091454"
       id="rect34" />
    <rect
       x="290.20038"
       y="397.01669"
       width="244.49561"
       height="8.6308203"
       fill="#091454"
       id="rect36" />
    <rect
       x="290.20038"
       y="419.45682"
       width="244.49561"
       height="8.6308203"
       fill="#091454"
       id="rect38" />
    <circle
       cx="275.35962"
       cy="379.21768"
       r="5.6326599"
       fill="#091454"
       id="circle40" />
    <path
       d="m 725.44621,493.35007 a 10.06737,10.06737 0 0 1 3.92234,-14.93042 l 27.89641,-87.347 19.4284,10.09245 -33.53042,82.68569 a 10.12188,10.12188 0 0 1 -17.71673,9.49924 z"
       transform="translate(-186.80906,-197.435)"
       fill="#9f616a"
       id="path42" />
    <path
       d="m 748.2368,403.1514 a 4.50917,4.50917 0 0 1 0.0212,-3.75868 l 9.55481,-20.54247 a 12.53637,12.53637 0 0 1 24.06046,7.05209 l -3.1935,22.50386 a 4.51406,4.51406 0 0 1 -5.7515,3.69356 l -21.85912,-6.47651 a 4.509,4.509 0 0 1 -2.83234,-2.47185 z"
       transform="translate(-186.80906,-197.435)"
       fill="#091454"
       id="path44" />
    <polygon
       points="587.475,249.702 586.696,228.663 642.019,209.183 640.461,231.001 "
       fill="#9f616a"
       id="polygon46" />
    <path
       d="m 761.038,374.671 17.14237,-12.46718 28.05117,-7.792 23.376,4.67519 3.896,36.62235 -4.67519,23.376 -60.77752,14.02558 -6.2336,-10.90878 c 0,0 -14.02558,-14.02558 -3.11679,-29.60956 z"
       transform="translate(-186.80906,-197.435)"
       fill="#091454"
       id="path48" />
    <path
       d="m 754.80436,342.67164 v -20.46311 a 32.64353,32.64353 0 1 1 65.28706,0 v 20.46311 a 4.3899,4.3899 0 0 1 -4.385,4.385 h -56.5171 a 4.38991,4.38991 0 0 1 -4.38496,-4.385 z"
       transform="translate(-186.80906,-197.435)"
       fill="#2f2e41"
       id="path50" />
    <circle
       cx="599.32678"
       cy="125.4871"
       r="23.93309"
       fill="#9f616a"
       id="circle52" />
    <path
       d="m 761.54594,322.82992 a 2.43626,2.43626 0 0 1 -0.57024,-1.9422 l 2.835,-19.7418 a 2.43962,2.43962 0 0 1 1.37838,-1.86989 c 14.47068,-6.7725 29.145,-6.78107 43.61567,-0.0257 a 2.4548,2.4548 0 0 1 1.39218,1.98408 l 1.89249,19.76749 a 2.43565,2.43565 0 0 1 -2.42514,2.66827 h -4.79961 a 2.44551,2.44551 0 0 1 -2.20747,-1.4055 l -2.07138,-4.43825 a 1.46155,1.46155 0 0 0 -2.77486,0.43679 l -0.40918,3.27253 a 2.4396,2.4396 0 0 1 -2.41729,2.13443 H 763.387 a 2.43621,2.43621 0 0 1 -1.84106,-0.84026 z"
       transform="translate(-186.80906,-197.435)"
       fill="#2f2e41"
       id="path54" />
    <path
       d="m 865.4392,483.15889 a 10.06731,10.06731 0 0 1 -6.97655,-13.77062 l -37.11265,-83.8472 21.23033,-5.34724 29.80474,84.10047 a 10.12188,10.12188 0 0 1 -6.94588,18.86459 z"
       transform="translate(-186.80906,-197.435)"
       fill="#9f616a"
       id="path56" />
    <path
       d="m 822.61484,400.56782 a 4.50922,4.50922 0 0 1 -2.479,-2.82535 L 813.647,376.03573 a 12.53637,12.53637 0 0 1 22.67679,-10.69584 l 12.54864,18.95135 a 4.514,4.514 0 0 1 -1.85016,6.5802 l -20.64827,9.66518 a 4.509,4.509 0 0 1 -3.75916,0.0312 z"
       transform="translate(-186.80906,-197.435)"
       fill="#091454"
       id="path58" />
    <polygon
       points="619.419,438.253 639.355,438.254 639.353,490.356 625.845,490.355 "
       fill="#9f616a"
       id="polygon60" />
    <path
       d="m 829.60666,700.88487 -43.55544,-0.002 v -0.5509 a 16.95391,16.95391 0 0 1 16.953,-16.95273 h 10e-4 l 26.60219,10e-4 z"
       transform="translate(-186.80906,-197.435)"
       fill="#2f2e41"
       id="path62" />
    <polygon
       points="577.378,359.413 590.97,344.828 629.087,380.349 619.878,390.231 "
       fill="#9f616a"
       id="polygon64" />
    <path
       d="m 827.8241,584.18961 -29.69366,31.86476 -0.40305,-0.37556 a 16.95391,16.95391 0 0 1 -0.84575,-23.96 l 7.4e-4,-7.9e-4 18.13594,-19.46185 z"
       transform="translate(-186.80906,-197.435)"
       fill="#2f2e41"
       id="path66" />
    <path
       d="m 830.38667,428.43574 4.32015,4.32016 c 21.60958,21.60958 26.92973,51.573 24.33455,82.02316 a 85.20579,85.20579 0 0 1 -2.16194,13.39415 c -7.792,31.168 -3.1168,130.90543 -18.70078,137.139 l -3.11679,10.90879 -30.38876,-1.12278 0.7792,-9.786 c 0,0 -7.01279,-14.80478 -2.3376,-24.15517 4.67519,-9.35039 14.80478,-78.6991 14.80478,-78.6991 l -5.45439,-56.88152 -40.51835,20.25917 c 0,0 21.03837,11.688 19.48,19.48 0,0 12.46718,3.11679 9.35038,10.90878 l 4.6752,9.35039 -10.90879,17.14238 c 0,0 -73.2447,-43.63515 -67.01111,-65.45272 6.23359,-21.81757 45.19354,-37.40155 45.19354,-37.40155 l 3.1168,-23.376 -2.68732,-12.73714 54.51749,-20.95656 z"
       transform="translate(-186.80906,-197.435)"
       fill="#2f2e41"
       id="path68" />
    <path
       d="M 1012.1909,702.565 H 568.19094 a 1,1 0 0 1 0,-2 h 443.99996 a 1,1 0 0 1 0,2 z"
       transform="translate(-186.80906,-197.435)"
       fill="#cbcbcb"
       id="path70" />
  </g>
</svg>
