<?xml version="1.0" encoding="UTF-8" standalone="no"?>
<svg
   xmlns:dc="http://purl.org/dc/elements/1.1/"
   xmlns:cc="http://creativecommons.org/ns#"
   xmlns:rdf="http://www.w3.org/1999/02/22-rdf-syntax-ns#"
   xmlns:svg="http://www.w3.org/2000/svg"
   xmlns="http://www.w3.org/2000/svg"
   xmlns:sodipodi="http://sodipodi.sourceforge.net/DTD/sodipodi-0.dtd"
   xmlns:inkscape="http://www.inkscape.org/namespaces/inkscape"
   id="ac370e99-250f-4203-ae2c-c306a69114f3"
   data-name="Layer 1"
   width="1144"
   height="1144"
   viewBox="0 0 1144 1144"
   version="1.1"
   sodipodi:docname="settings.svg"
   inkscape:version="1.0.2 (e86c870879, 2021-01-15)">
  <metadata
     id="metadata194">
    <rdf:RDF>
      <cc:Work
         rdf:about="">
        <dc:format>image/svg+xml</dc:format>
        <dc:type
           rdf:resource="http://purl.org/dc/dcmitype/StillImage" />
        <dc:title>personal settings</dc:title>
      </cc:Work>
    </rdf:RDF>
  </metadata>
  <sodipodi:namedview
     pagecolor="#ffffff"
     bordercolor="#666666"
     borderopacity="1"
     objecttolerance="10"
     gridtolerance="10"
     guidetolerance="10"
     inkscape:pageopacity="0"
     inkscape:pageshadow="2"
     inkscape:window-width="1920"
     inkscape:window-height="1016"
     id="namedview192"
     showgrid="false"
     inkscape:zoom="0.41595932"
     inkscape:cx="387.40228"
     inkscape:cy="442.10326"
     inkscape:window-x="1366"
     inkscape:window-y="0"
     inkscape:window-maximized="1"
     inkscape:current-layer="ac370e99-250f-4203-ae2c-c306a69114f3" />
  <defs
     id="defs9">
    <linearGradient
       id="b5f20e7f-16f1-44c3-85ac-2c33fb8e67f8"
       x1="2612.03"
       y1="795.17999"
       x2="2612.03"
       y2="399.51999"
       gradientTransform="matrix(-1,0,0,1,3436,0)"
       gradientUnits="userSpaceOnUse">
      <stop
         offset="0"
         stop-color="gray"
         stop-opacity="0.25"
         id="stop2" />
      <stop
         offset="0.54"
         stop-color="gray"
         stop-opacity="0.12"
         id="stop4" />
      <stop
         offset="1"
         stop-color="gray"
         stop-opacity="0.1"
         id="stop6" />
    </linearGradient>
  </defs>
  <title
     id="title11">personal settings</title>
  <g
     id="g1108"
     transform="translate(-1.7204337e-4,223.005)">
    <path
       d="m 1172,516.31 a 180.56,180.56 0 0 1 -26.12,93.88 c 0,34.62 -16.14,66 -42.32,88.87 a 144.74,144.74 0 0 1 -21.08,15.28 c -0.3,0.19 -0.61,0.37 -0.92,0.55 -0.56,0.33 -1.12,0.66 -1.69,1 l -0.53,0.31 v 0 A 164.61,164.61 0 0 1 998.24,737 H 245.17 q -9,0 -17.84,-0.72 a 211.15,211.15 0 0 1 -61.06,-14.14 q -5.72,-2.26 -11.22,-4.86 -2.62,-1.23 -5.19,-2.53 c -1.07,-0.54 -2.14,-1.1 -3.2,-1.66 A 187.42,187.42 0 0 1 112.2,689.7 C 78.2,660.47 57.12,620.09 57.12,575.49 A 180.5,180.5 0 0 1 28,476.82 c 0,-99.14 79.24,-179.51 177,-179.51 3,0 6,0.09 9,0.25 0.43,0 0.85,0 1.28,0.06 16.48,-28.09 38.51,-53.9 65,-76.62 72.24,-61.9 177.82,-100.92 295.43,-100.92 98.82,0 189.15,27.55 258.34,73.07 A 174.18,174.18 0 0 1 920,170.6 c 97.74,0 177,80.37 177,179.51 a 184.9,184.9 0 0 1 -1,18.78 180,180 0 0 1 76,147.42 z"
       transform="translate(-28,-101)"
       fill="#052c4c"
       opacity="0.1"
       id="path13" />
    <g
       opacity="0.2"
       id="g29">
      <path
         d="m 166.37,720.79 c 0,0.46 -0.05,0.91 -0.1,1.35 q -5.72,-2.26 -11.22,-4.86 a 9.1,9.1 0 0 1 -5.19,-2.53 c -1.07,-0.54 -2.14,-1.1 -3.2,-1.66 a 13.68,13.68 0 0 1 0.81,-1.46 c 2.06,-3.26 5.19,-5.3 8.64,-5.19 3.45,0.11 6.44,2.34 8.29,5.71 a 16.87,16.87 0 0 1 1.97,8.64 z"
         transform="translate(-28,-101)"
         fill="#3f3d56"
         id="path15" />
      <path
         d="m 166.91,703.67 a 16.88,16.88 0 0 1 -2.51,8.48 c -2.06,3.25 -5.19,5.29 -8.64,5.18 l -0.71,-0.05 a 9.1,9.1 0 0 1 -5.19,-2.53 12.53,12.53 0 0 1 -2.39,-3.12 17.55,17.55 0 0 1 0.54,-17.12 c 2.06,-3.26 5.19,-5.3 8.64,-5.19 3.45,0.11 6.44,2.34 8.29,5.71 a 16.87,16.87 0 0 1 1.97,8.64 z"
         transform="translate(-28,-101)"
         fill="#3f3d56"
         id="path17" />
      <ellipse
         cx="156.75"
         cy="686.21002"
         rx="14.01"
         ry="10.7"
         transform="rotate(-88.19,90.649909,650.17111)"
         fill="#3f3d56"
         id="ellipse19" />
      <ellipse
         cx="157.28999"
         cy="669.09003"
         rx="14.01"
         ry="10.7"
         transform="rotate(-88.19,91.187466,633.05314)"
         fill="#3f3d56"
         id="ellipse21" />
      <ellipse
         cx="157.83"
         cy="651.96997"
         rx="14.01"
         ry="10.7"
         transform="matrix(0.03,-1,1,0.03,-526.79,688.16)"
         fill="#3f3d56"
         id="ellipse23" />
      <path
         d="m 121.47,533.55 a 49.66,49.66 0 0 1 -3.8,-6 l 28.26,-3.73 -30.42,-0.73 a 51.38,51.38 0 0 1 0.31,-40.64 l 40.12,22.45 -36.75,-28.85 a 51.28,51.28 0 1 1 82.84,60 51.12,51.12 0 0 1 5.55,9.53 l -37.09,17.81 39.33,-11.83 a 51.34,51.34 0 0 1 -9.82,47.91 51.28,51.28 0 1 1 -80.56,-2.54 51.28,51.28 0 0 1 2,-63.38 z"
         transform="translate(-28,-101)"
         fill="#052c4c"
         id="path25" />
      <path
         d="m 212,568.13 a 51.06,51.06 0 0 1 -12,31.34 51.28,51.28 0 1 1 -80.56,-2.54 C 112.87,588 212.18,562.37 212,568.13 Z"
         transform="translate(-28,-101)"
         opacity="0.1"
         id="path27" />
    </g>
    <path
       d="M 986,239.41 V 718.59 A 18.41,18.41 0 0 1 967.59,737 H 232.41 A 18.13,18.13 0 0 1 227.33,736.28 18.38,18.38 0 0 1 214,718.59 V 504.75 c 0,-1.09 0,-2.17 0,-3.25 V 297.56 c 0.43,0 0.85,0 1.28,0.06 16.48,-28.09 38.51,-53.9 65,-76.62 H 967.59 A 18.41,18.41 0 0 1 986,239.41 Z"
       transform="translate(-28,-101)"
       fill="#ffffff"
       id="path31" />
    <rect
       x="712.16998"
       y="182.23"
       width="137.83"
       height="35.959999"
       rx="17.98"
       fill="#3f3d56"
       id="rect33" />
    <rect
       x="721.15002"
       y="188.24001"
       width="119.86"
       height="23.93"
       rx="11.97"
       opacity="0.1"
       id="rect35" />
    <rect
       x="794.72998"
       y="189.55"
       width="43.279999"
       height="21.309999"
       rx="10.65"
       fill="#052c4c"
       id="rect37" />
    <circle
       cx="816.03998"
       cy="200.21001"
       r="6.6599998"
       fill="#ffffff"
       id="circle39" />
    <rect
       x="712.16998"
       y="419.28"
       width="137.83"
       height="35.959999"
       rx="17.98"
       fill="#3f3d56"
       id="rect41" />
    <rect
       x="721.15002"
       y="425.29001"
       width="119.86"
       height="23.93"
       rx="11.97"
       opacity="0.1"
       id="rect43" />
    <rect
       x="794.72998"
       y="426.60001"
       width="43.279999"
       height="21.309999"
       rx="10.65"
       fill="#052c4c"
       id="rect45" />
    <circle
       cx="816.03998"
       cy="437.26001"
       r="6.6599998"
       fill="#ffffff"
       id="circle47" />
    <rect
       x="712.16998"
       y="537.79999"
       width="137.83"
       height="35.959999"
       rx="17.98"
       fill="#3f3d56"
       id="rect49" />
    <rect
       x="721.15002"
       y="543.82001"
       width="119.86"
       height="23.93"
       rx="11.97"
       opacity="0.1"
       id="rect51" />
    <rect
       x="794.72998"
       y="545.13"
       width="43.279999"
       height="21.309999"
       rx="10.65"
       fill="#052c4c"
       id="rect53" />
    <circle
       cx="816.03998"
       cy="555.78003"
       r="6.6599998"
       fill="#ffffff"
       id="circle55" />
    <rect
       x="294"
       y="159.59"
       width="80.57"
       height="21.309999"
       rx="10.65"
       fill="#052c4c"
       id="rect57" />
    <rect
       x="294"
       y="189.55"
       width="223.73"
       height="21.309999"
       rx="10.65"
       fill="#052c4c"
       id="rect59" />
    <rect
       x="294"
       y="219.52"
       width="223.73"
       height="21.309999"
       rx="10.65"
       fill="#052c4c"
       id="rect61" />
    <g
       opacity="0.5"
       id="g69">
      <rect
         x="294"
         y="278.10999"
         width="80.57"
         height="21.309999"
         rx="10.65"
         fill="#052c4c"
         id="rect63" />
      <rect
         x="294"
         y="308.07999"
         width="167"
         height="21.309999"
         rx="10.65"
         fill="#052c4c"
         id="rect65" />
      <rect
         x="294"
         y="338.04001"
         width="223.73"
         height="21.309999"
         rx="10.65"
         fill="#052c4c"
         id="rect67" />
    </g>
    <rect
       x="294"
       y="396.64001"
       width="80.57"
       height="21.309999"
       rx="10.65"
       fill="#052c4c"
       id="rect71" />
    <rect
       x="294"
       y="426.60001"
       width="223.73"
       height="21.309999"
       rx="10.65"
       fill="#052c4c"
       id="rect73" />
    <rect
       x="294"
       y="456.57001"
       width="139"
       height="21.309999"
       rx="10.65"
       fill="#052c4c"
       id="rect75" />
    <rect
       x="294"
       y="515.15997"
       width="80.57"
       height="21.309999"
       rx="10.65"
       fill="#052c4c"
       id="rect77" />
    <rect
       x="294"
       y="545.13"
       width="223.73"
       height="21.309999"
       rx="10.65"
       fill="#052c4c"
       id="rect79" />
    <rect
       x="294"
       y="575.09003"
       width="180"
       height="21.309999"
       rx="10.65"
       fill="#052c4c"
       id="rect81" />
    <line
       x1="260"
       y1="259.98999"
       x2="912"
       y2="259.98999"
       fill="none"
       stroke="#3f3d56"
       stroke-linecap="round"
       stroke-miterlimit="10"
       opacity="0.7"
       id="line83" />
    <line
       x1="260"
       y1="380.48999"
       x2="912"
       y2="380.48999"
       fill="none"
       stroke="#3f3d56"
       stroke-linecap="round"
       stroke-miterlimit="10"
       opacity="0.7"
       id="line85" />
    <line
       x1="260"
       y1="500.98999"
       x2="912"
       y2="500.98999"
       fill="none"
       stroke="#3f3d56"
       stroke-linecap="round"
       stroke-miterlimit="10"
       opacity="0.7"
       id="line87" />
    <line
       x1="260"
       y1="624.48999"
       x2="912"
       y2="624.48999"
       fill="none"
       stroke="#3f3d56"
       stroke-linecap="round"
       stroke-miterlimit="10"
       opacity="0.7"
       id="line89" />
    <ellipse
       cx="795"
       cy="687.48999"
       rx="147.67999"
       ry="10.5"
       fill="#052c4c"
       opacity="0.1"
       id="ellipse91" />
    <circle
       cx="70.519997"
       cy="141.17999"
       r="21.629999"
       fill="#052c4c"
       opacity="0.1"
       id="circle93" />
    <circle
       cx="160.67"
       cy="21.629999"
       r="21.629999"
       fill="#052c4c"
       opacity="0.1"
       id="circle95" />
    <circle
       cx="153.34"
       cy="103.76"
       r="36.25"
       fill="#052c4c"
       opacity="0.1"
       id="circle97" />
    <rect
       x="712.16998"
       y="300.75"
       width="137.83"
       height="35.959999"
       rx="17.98"
       fill="#3f3d56"
       id="rect99" />
    <rect
       x="721.15002"
       y="306.76999"
       width="119.86"
       height="23.93"
       rx="11.97"
       opacity="0.1"
       id="rect101" />
    <path
       d="m 753.17,762 c 1.57,-0.23 3.14,-0.55 4.68,-0.91 a 14.62,14.62 0 0 1 -1.32,4.44 c -1.53,2.9 -4.52,4.65 -7.27,6.43 a 2.25,2.25 0 0 0 -2.84,-0.19 c -3.31,2 -5.95,4.82 -9.46,6.54 -1.23,0.6 -2.51,1.08 -3.71,1.75 a 20,20 0 0 0 -7,7.23 c -1,1.55 -1.81,3.59 -0.83,5.13 a 4.44,4.44 0 0 0 1.42,1.27 8.08,8.08 0 0 0 4.87,1.45 c 1,-0.09 2,-0.47 3.09,-0.64 1.37,-0.24 2.77,-0.12 4.15,-0.24 a 24.26,24.26 0 0 0 5.84,-1.51 l 6.87,-2.4 a 39.68,39.68 0 0 0 5.65,-2.32 c 1.09,-0.59 2.12,-1.28 3.23,-1.82 a 26,26 0 0 1 3.86,-1.36 l 3.9,-1.14 a 3.8,3.8 0 0 1 1.76,-0.23 c 0.54,0.1 1,0.44 1.55,0.58 a 4.68,4.68 0 0 0 2.5,-0.24 l 4.52,-1.28 a 8.52,8.52 0 0 0 2.69,-1.12 c 2.07,-1.47 2.44,-4.39 2.43,-6.94 a 52.57,52.57 0 0 0 -1.3,-11.48 3.57,3.57 0 0 0 -1.47,1.11 21.44,21.44 0 0 0 -1.49,-1.87 22.31,22.31 0 0 1 -4.51,-8.33 14.66,14.66 0 0 0 4,-4.52 c -2.39,-9.11 -4.84,-18.36 -9.7,-26.4 -1.59,-2.62 -3.41,-5.08 -5,-7.66 -4.73,-7.5 -5.7,-17 -11.11,-24 a 4.16,4.16 0 0 1 0,-4.88 c 0.62,-0.82 1.62,-1.59 1.43,-2.61 -0.14,-0.73 -0.9,-1.4 -0.61,-2.08 0.14,-0.33 0.48,-0.51 0.74,-0.75 0.92,-0.86 0.8,-2.31 0.89,-3.57 0.2,-3.18 2.09,-6 3.91,-8.56 a 5.26,5.26 0 0 1 1.44,-1.56 c 0.49,-0.3 1.07,-0.44 1.56,-0.74 1.72,-1.09 1.6,-3.62 2.42,-5.5 1.08,-2.48 3.8,-3.73 5.58,-5.74 2.27,-2.56 2.85,-6.12 5.24,-8.35 a 6.13,6.13 0 0 1 0.79,-0.64 40.24,40.24 0 0 0 -1.41,11.65 c -0.23,13.53 3.13,27.53 1.56,41 -1.24,10.66 5.27,21.29 14.5,26.62 a 69.31,69.31 0 0 0 11.29,4.79 c 5.78,2.07 11.54,4.2 17.21,6.58 q 6,2.52 11.84,5.41 a 147.35,147.35 0 0 1 14,7.81 c 5.56,3.57 11.13,7.19 15.08,12.52 a 11.94,11.94 0 0 0 6.66,-2.45 c 1.52,1.2 3.36,2.11 4.79,3.44 a 14.46,14.46 0 0 1 3.8,7.46 h -0.6 c 0.07,1.33 0.13,2.66 0.2,4 a 1.7,1.7 0 0 1 -0.15,1 1.81,1.81 0 0 1 -0.54,0.49 l -3.08,2.09 c -2.24,1.51 -4.71,3.42 -4.83,6.13 a 3.12,3.12 0 0 0 0.67,2.19 4.72,4.72 0 0 0 2.74,1.24 c 5.36,1.13 10.85,2.23 16.28,1.5 2.58,-0.35 5.25,-1.2 6.93,-3.2 1.54,-1.82 2,-4.29 2.42,-6.64 0.67,-4 1.23,-8.09 1.67,-12.15 a 26.86,26.86 0 0 1 1.66,-8.07 1,1 0 0 1 0.43,-0.54 c 0.23,-0.1 0.5,0 0.74,-0.1 0.24,-0.1 0.4,-0.47 0.48,-0.77 a 47.71,47.71 0 0 0 1.43,-12.08 8.14,8.14 0 0 0 -0.47,-3.11 6.28,6.28 0 0 0 -4.28,-3.3 34.09,34.09 0 0 0 -5.53,-0.66 27.46,27.46 0 0 1 -4.59,-0.84 4.2,4.2 0 0 0 -1.91,-0.25 1.34,1.34 0 0 0 -1.16,1.33 1.71,1.71 0 0 0 0.24,0.65 l -1.56,-0.31 c -1.26,-0.23 -3,-0.78 -4.89,-1.24 q 0,-0.48 0.06,-1 a 1.89,1.89 0 0 0 -1.06,-1.72 l -26.42,-14.12 -4.94,-2.64 c -10.82,-5.79 -22,-11.14 -32.85,-16.93 -0.72,0.22 -1.32,-0.61 -1.53,-1.35 -0.21,-0.74 -0.36,-1.62 -1.05,-1.95 -0.34,-0.16 -0.79,-0.15 -1,-0.44 a 1.19,1.19 0 0 1 -0.19,-0.89 c 0.35,-5.27 4.12,-10.13 3.37,-15.35 -0.32,-2.23 -1.47,-4.43 -1,-6.62 0.35,-1.51 1.43,-2.74 2,-4.18 1.3,-3.22 0,-7.09 1.42,-10.24 a 23.71,23.71 0 0 0 1.91,-6.52 44.79,44.79 0 0 1 4,-12.94 23.35,23.35 0 0 1 3.72,-5.67 c 0.79,-0.86 1.68,-1.63 2.44,-2.52 2.3,-2.75 3.15,-6.41 3.8,-10 1.18,-6.41 2,-13.06 0.52,-19.42 -0.5,-2.16 -1.26,-4.31 -1.23,-6.53 0,-2.66 1.07,-5.71 -0.22,-7.84 a 6.9,6.9 0 0 0 2.49,-4.27 5.52,5.52 0 0 1 0.35,-1.77 5.14,5.14 0 0 1 1.67,-1.5 6.91,6.91 0 0 0 2.58,-6.87 c 1.37,0.62 2.81,-0.77 3.46,-2.14 0.65,-1.37 1.14,-3 2.53,-3.62 0.94,-0.4 2,-0.16 3,-0.42 1.59,-0.41 2.56,-2 3.68,-3.17 2.28,-2.46 5.51,-3.73 8.5,-5.24 8.86,-4.51 16.08,-11.64 23.15,-18.66 a 78.38,78.38 0 0 0 10,-11.26 c 0.79,-1.17 1.51,-2.38 2.19,-3.62 l 0.18,-0.09 0.06,0.22 c 0.11,0.44 0.24,0.88 0.37,1.31 0.32,1 0.68,2.07 1,3.09 1.08,3 2.25,6.2 4.45,8.47 a 10.48,10.48 0 0 0 2.28,1.77 15.3,15.3 0 0 0 5.87,1.76 c 0.78,0.1 1.57,0.16 2.36,0.2 0.79,0.04 1.58,0.07 2.36,0.09 l 16.18,0.43 c -5.56,-8.06 -6,-18.54 -5.63,-28.35 0.93,-25.2 5.84,-50.63 1.28,-75.43 -0.55,-3 -1.28,-6 -3.11,-8.41 -2.4,-3.15 -6.34,-4.67 -10.18,-5.56 -3.84,-0.89 -7.83,-1.32 -11.42,-2.93 -3,-1.37 -5.76,-3.57 -9,-4.29 a 19.82,19.82 0 0 0 -7.2,0.12 q -4.38,0.65 -8.71,1.54 l -0.7,0.15 H 874 l -0.48,0.11 h -0.13 l -0.43,0.1 h -0.16 l -0.4,0.11 -0.18,0.05 -0.37,0.12 -0.21,0.07 -0.34,0.11 -0.22,0.09 -0.32,0.12 -0.24,0.1 -0.29,0.13 -0.24,0.12 -0.27,0.13 -0.24,0.14 -0.25,0.14 -0.24,0.16 -0.23,0.15 -0.24,0.17 -0.2,0.16 -0.23,0.2 -0.19,0.17 a 2.39,2.39 0 0 0 -0.22,0.23 l -0.17,0.17 a 3,3 0 0 0 -0.22,0.28 c 0,0.05 -0.09,0.1 -0.13,0.16 -0.04,0.06 -0.18,0.26 -0.27,0.41 v 0.06 a 6.09,6.09 0 0 0 -0.55,1.19 c -0.07,0.21 -0.14,0.42 -0.19,0.63 a 9.54,9.54 0 0 0 -0.22,1.3 c 0,0.22 0,0.45 -0.05,0.67 0,0.44 0,0.89 0,1.33 a 19.62,19.62 0 0 0 0.25,2.24 24.37,24.37 0 0 0 -1.16,41.23 10.94,10.94 0 0 1 0.08,1.19 v 0.26 a 33,33 0 0 1 -0.44,4.22 58.66,58.66 0 0 0 -12,-1.07 c -2.4,0 -4.82,0.22 -7.24,0.41 a 109.13,109.13 0 0 1 -7.24,-9.8 l -5.34,-7.83 a 74.58,74.58 0 0 1 -5,-8 c -1.31,-2.54 -2.33,-5.24 -3.79,-7.7 -3,-5.07 -7.9,-9.38 -8.51,-15.25 l -1.41,0.29 c -0.77,-1.26 -1.74,-2.59 -2.1,-3.32 a 65.55,65.55 0 0 1 -4.44,-13 c -0.49,-2.32 -0.86,-4.74 -2.13,-6.74 a 15.19,15.19 0 0 0 -3.11,-3.3 20.57,20.57 0 0 0 -6.66,-4.2 8.61,8.61 0 0 0 -6.81,0.4 10,10 0 0 0 -1,-0.4 8.25,8.25 0 0 0 -7.56,0.88 c -2.1,1.61 -3,4.37 -3.32,7 a 17.28,17.28 0 0 0 1.78,10.62 c 2,3.58 5.58,6 8.54,8.84 a 34.59,34.59 0 0 1 5.37,6.68 73.16,73.16 0 0 1 -0.41,16.21 c -0.38,2.3 -1,4.56 -1.18,6.88 -0.73,8.38 3.63,16.76 2.07,25 a 6.1,6.1 0 0 0 2.83,6.47 c 2.24,1.21 4.86,1.37 7.32,2 4.83,1.24 9,4.33 13.88,5.48 2.25,0.54 4.59,0.64 6.83,1.24 l 0.35,0.11 a 16.27,16.27 0 0 0 -3.59,6.82 c -1,4.2 -0.06,8.69 -1.06,12.89 -0.82,3.46 -2.88,6.48 -4.91,9.41 q -5.86,8.48 -11.74,17 a 104.13,104.13 0 0 1 -8.65,11.37 c -5.39,5.89 -14.69,10.56 -17.43,17.64 -0.06,-0.17 -0.14,-0.34 -0.2,-0.51 -3.88,2.85 -5.33,8.16 -8.42,11.85 -1.51,1.79 -3.37,3.24 -5,4.9 a 56.54,56.54 0 0 0 -5.53,6.87 c -4.6,6.38 -9.23,12.79 -12.52,19.94 -1.72,3.72 -3.05,7.59 -4.42,11.44 -5.38,15.17 -14.16,29.56 -17.81,45.25 -0.89,3.83 -3.22,7.29 -3.57,11.21 -0.39,4.18 1.52,8.2 3.5,11.89 3,5.64 6.34,11.12 9,16.92 1.57,3.38 2.93,6.87 4.68,10.17 1.91,3.6 4.25,6.94 6.25,10.49 4.87,9.11 7.67,19.18 10.26,29.11 z m 66.16,-286.55 -0.48,-0.24 A 16.57,16.57 0 0 1 814,472 c -4.31,-4.6 -6.16,-11.53 -7.51,-17.72 -0.16,-0.74 -0.3,-1.47 -0.43,-2.21 5.23,7.43 10.17,15.11 13.27,23.4 z"
       transform="translate(-28,-101)"
       fill="url(#b5f20e7f-16f1-44c3-85ac-2c33fb8e67f8)"
       id="path103"
       style="fill:url(#b5f20e7f-16f1-44c3-85ac-2c33fb8e67f8)" />
    <path
       d="m 799.68,415.4 c -0.49,-2.31 -0.85,-4.71 -2.12,-6.69 a 15.16,15.16 0 0 0 -3.12,-3.28 20.74,20.74 0 0 0 -6.68,-4.17 8.34,8.34 0 0 0 -7.56,0.87 c -2.11,1.6 -3,4.34 -3.33,7 a 17.07,17.07 0 0 0 1.78,10.55 c 2.05,3.56 5.59,5.94 8.56,8.78 a 34.39,34.39 0 0 1 5.58,7 20.21,20.21 0 0 0 2.54,3.72 4.84,4.84 0 0 0 4,1.61 7,7 0 0 0 3.27,-1.93 c 1.22,-1.07 4.5,-3 4.6,-4.67 0.08,-1.37 -2.48,-4.47 -3.11,-5.76 a 65.41,65.41 0 0 1 -4.41,-13.03 z"
       transform="translate(-28,-101)"
       fill="#fbbebe"
       id="path105" />
    <path
       d="m 799.68,415.4 c -0.49,-2.31 -0.85,-4.71 -2.12,-6.69 a 15.16,15.16 0 0 0 -3.12,-3.28 20.74,20.74 0 0 0 -6.68,-4.17 8.34,8.34 0 0 0 -7.56,0.87 c -2.11,1.6 -3,4.34 -3.33,7 a 17.07,17.07 0 0 0 1.78,10.55 c 2.05,3.56 5.59,5.94 8.56,8.78 a 34.39,34.39 0 0 1 5.58,7 20.21,20.21 0 0 0 2.54,3.72 4.84,4.84 0 0 0 4,1.61 7,7 0 0 0 3.27,-1.93 c 1.22,-1.07 4.5,-3 4.6,-4.67 0.08,-1.37 -2.48,-4.47 -3.11,-5.76 a 65.41,65.41 0 0 1 -4.41,-13.03 z"
       transform="translate(-28,-101)"
       opacity="0.1"
       id="path107" />
    <path
       d="m 868.85,481.23 a 58.88,58.88 0 0 0 -16.18,-2 c -9.11,0.13 -18.49,2.34 -27.17,-0.46 A 47.4,47.4 0 0 1 819,476 a 16.58,16.58 0 0 1 -4.86,-3.19 c -4.32,-4.57 -6.18,-11.46 -7.52,-17.6 a 117.44,117.44 0 0 1 -2.05,-18.73 c -2.25,1.05 -4.63,2.08 -7.1,1.87 -2.47,-0.21 -5,-2.11 -5,-4.59 0.37,5.82 0.64,11.71 -0.33,17.45 -0.38,2.28 -1,4.53 -1.17,6.83 -0.74,8.33 3.63,16.65 2.07,24.86 a 6,6 0 0 0 2.83,6.42 c 2.24,1.21 4.87,1.36 7.33,2 4.83,1.23 9,4.3 13.9,5.45 2.25,0.53 4.6,0.63 6.84,1.23 3.19,0.85 6.1,2.68 9.36,3.25 2.44,0.44 5,0.14 7.43,0.35 2.15,0.18 4.25,0.74 6.41,0.8 5.28,0.13 10.26,-2.85 13.76,-6.81 3.5,-3.96 5.73,-9.59 7.95,-14.36 z"
       transform="translate(-28,-101)"
       fill="#f86d70"
       id="path109" />
    <path
       d="m 868.85,481.23 a 58.88,58.88 0 0 0 -16.18,-2 c -9.11,0.13 -18.49,2.34 -27.17,-0.46 A 47.4,47.4 0 0 1 819,476 a 16.58,16.58 0 0 1 -4.86,-3.19 c -4.32,-4.57 -6.18,-11.46 -7.52,-17.6 a 117.44,117.44 0 0 1 -2.05,-18.73 c -2.25,1.05 -4.63,2.08 -7.1,1.87 -2.47,-0.21 -5,-2.11 -5,-4.59 0.37,5.82 0.64,11.71 -0.33,17.45 -0.38,2.28 -1,4.53 -1.17,6.83 -0.74,8.33 3.63,16.65 2.07,24.86 a 6,6 0 0 0 2.83,6.42 c 2.24,1.21 4.87,1.36 7.33,2 4.83,1.23 9,4.3 13.9,5.45 2.25,0.53 4.6,0.63 6.84,1.23 3.19,0.85 6.1,2.68 9.36,3.25 2.44,0.44 5,0.14 7.43,0.35 2.15,0.18 4.25,0.74 6.41,0.8 5.28,0.13 10.26,-2.85 13.76,-6.81 3.5,-3.96 5.73,-9.59 7.95,-14.36 z"
       transform="translate(-28,-101)"
       opacity="0.1"
       id="path111" />
    <path
       d="m 883.31,738.67 a 13.69,13.69 0 0 1 4.67,1.46 11,11 0 0 1 4.06,5.48 c 2.18,5.38 2.63,11.3 2.73,17.11 0.08,4.69 -0.08,9.49 -1.76,13.87 a 8.83,8.83 0 0 1 -2.31,3.63 8.33,8.33 0 0 1 -3.18,1.54 c -2.51,0.69 -5.41,0.68 -7.46,-0.92 -2.28,-1.78 -2.85,-4.93 -3.33,-7.78 -0.65,-3.84 -1.57,-7.93 -4.43,-10.58 -2.12,-2 -5.16,-3 -6.7,-5.42 -1.84,-2.91 -0.87,-6.71 0.3,-9.95 1,-2.81 2.51,-8.5 5.45,-9.94 2.94,-1.44 8.91,0.95 11.96,1.5 z"
       transform="translate(-28,-101)"
       fill="#fbbebe"
       id="path113" />
    <path
       d="m 775,752.47 a 22.15,22.15 0 0 0 4.58,8.51 c 1.3,1.5 2.93,3.32 2.25,5.18 a 4.82,4.82 0 0 1 -1.23,1.65 c -9.66,9.44 -23.17,14 -36.57,15.72 a 1.29,1.29 0 0 1 -0.65,0 c -0.39,-0.17 -0.49,-0.67 -0.53,-1.1 a 13.51,13.51 0 0 1 0,-4.21 c 0.65,-3.27 3.52,-5.58 6.33,-7.39 2.81,-1.81 5.88,-3.55 7.44,-6.5 1.95,-3.66 1.13,-8.43 3.45,-11.86 1.88,-2.79 5.38,-4 8.71,-4.5 1.15,-0.18 3.6,-1.44 4.58,-0.86 0.98,0.58 1.3,4.21 1.64,5.36 z"
       transform="translate(-28,-101)"
       fill="#fbbebe"
       id="path115" />
    <path
       d="m 884.63,738.33 a 1.33,1.33 0 0 1 1.16,-1.32 4.35,4.35 0 0 1 1.91,0.24 26.5,26.5 0 0 0 4.59,0.85 34.07,34.07 0 0 1 5.54,0.65 6.27,6.27 0 0 1 4.29,3.27 8.12,8.12 0 0 1 0.47,3.1 47.06,47.06 0 0 1 -1.43,12 c -0.08,0.3 -0.2,0.65 -0.49,0.76 -0.29,0.11 -0.5,0 -0.73,0.11 a 0.9,0.9 0 0 0 -0.43,0.54 26.42,26.42 0 0 0 -1.67,8 c -0.44,4 -1,8.06 -1.67,12.06 -0.39,2.34 -0.88,4.8 -2.42,6.6 -1.69,2 -4.36,2.83 -6.94,3.18 -5.44,0.72 -10.93,-0.37 -16.3,-1.49 a 4.77,4.77 0 0 1 -2.75,-1.23 3.09,3.09 0 0 1 -0.67,-2.18 c 0.12,-2.69 2.6,-4.59 4.83,-6.09 l 3.09,-2.07 a 1.6,1.6 0 0 0 0.54,-0.49 1.67,1.67 0 0 0 0.15,-1 l -0.2,-4 a 11.33,11.33 0 0 1 9.87,6.14 c 0.42,0.85 0.83,1.84 1.71,2.17 a 2.26,2.26 0 0 0 2.69,-1.63 6.93,6.93 0 0 0 -0.09,-3.47 c -1.81,-9.67 -1.38,-19.61 -2.48,-29.38 a 6.63,6.63 0 0 0 -1,-3.1 c -0.47,-0.67 -1.46,-1.32 -1.57,-2.22 z"
       transform="translate(-28,-101)"
       fill="#f86d70"
       id="path117" />
    <rect
       x="752.15002"
       y="409.07999"
       width="43.279999"
       height="21.309999"
       rx="10.65"
       transform="rotate(180,759.79,369.235)"
       fill="#052c4c"
       id="rect119" />
    <circle
       cx="746.12"
       cy="318.73001"
       r="6.6599998"
       fill="#ffffff"
       id="circle121" />
    <path
       d="m 750.11,775.82 c -0.45,0.75 -1.16,1.33 -1.58,2.1 a 1.8,1.8 0 0 0 0.34,2.35 2.32,2.32 0 0 0 1.43,0.14 48.11,48.11 0 0 0 26,-11.78 18.21,18.21 0 0 0 3.19,-3.49 c 0.85,-1.29 1.57,-2.87 3,-3.41 a 51.92,51.92 0 0 1 1.34,11.45 c 0,2.54 -0.36,5.43 -2.43,6.9 a 8.63,8.63 0 0 1 -2.7,1.1 l -4.52,1.28 a 4.81,4.81 0 0 1 -2.51,0.24 c -0.53,-0.14 -1,-0.48 -1.55,-0.58 a 3.8,3.8 0 0 0 -1.76,0.23 l -3.91,1.14 a 24.86,24.86 0 0 0 -3.86,1.35 c -1.12,0.53 -2.15,1.21 -3.24,1.8 a 38.78,38.78 0 0 1 -5.66,2.3 l -6.87,2.39 a 24.91,24.91 0 0 1 -5.85,1.5 c -1.38,0.12 -2.79,0 -4.16,0.23 -1,0.18 -2,0.56 -3.1,0.64 a 8.11,8.11 0 0 1 -4.87,-1.44 4.53,4.53 0 0 1 -1.42,-1.26 c -1,-1.53 -0.13,-3.55 0.83,-5.1 a 20.16,20.16 0 0 1 7,-7.18 c 1.2,-0.66 2.49,-1.14 3.72,-1.74 3.51,-1.7 6.16,-4.54 9.47,-6.48 3.13,-1.83 5.14,2.9 3.67,5.32 z"
       transform="translate(-28,-101)"
       fill="#f86d70"
       id="path123" />
    <path
       d="m 846.69,498.94 a 28.57,28.57 0 0 0 12.16,4.73 49.5,49.5 0 0 0 6.88,0.37 174.85,174.85 0 0 0 28.63,-2.39 c -3.76,-4.15 -7.57,-8.59 -9,-14 a 23.11,23.11 0 0 1 -0.44,-8.77 66,66 0 0 1 2.68,-11 77.63,77.63 0 0 1 -12.1,-0.31 c -2.29,-0.24 -7.91,-2.32 -9.9,-0.74 -1.99,1.58 -0.46,6.67 -0.43,9.06 a 2.26,2.26 0 0 1 0,0.26 28.93,28.93 0 0 1 -2.31,10.58 c -2.86,6.46 -9.06,11.78 -16.17,12.21 z"
       transform="translate(-28,-101)"
       fill="#fbbebe"
       id="path125" />
    <path
       d="m 865.18,475.84 a 24.06,24.06 0 0 0 19.75,3 66,66 0 0 1 2.68,-11 77.63,77.63 0 0 1 -12.1,-0.31 c -2.29,-0.24 -7.91,-2.32 -9.9,-0.74 -1.99,1.58 -0.46,6.66 -0.43,9.05 z"
       transform="translate(-28,-101)"
       opacity="0.1"
       id="path127" />
    <circle
       cx="850.38"
       cy="353.54001"
       r="24.110001"
       fill="#fbbebe"
       id="circle129" />
    <path
       d="m 776.09,576.53 a 11.23,11.23 0 0 0 5.44,9.67 21.69,21.69 0 0 0 5.9,2.08 c 11,2.66 22.32,4.8 33.65,4.15 a 18.49,18.49 0 0 0 7.14,-1.5 7.66,7.66 0 0 0 4.41,-5.51 5.18,5.18 0 0 1 0.34,-1.75 5.11,5.11 0 0 1 1.67,-1.49 6.84,6.84 0 0 0 2.59,-6.82 c 1.37,0.62 2.81,-0.77 3.46,-2.13 0.65,-1.36 1.15,-3 2.53,-3.59 0.94,-0.4 2,-0.16 3,-0.42 1.59,-0.41 2.56,-2 3.68,-3.15 2.28,-2.44 5.53,-3.7 8.51,-5.21 8.88,-4.47 16.11,-11.56 23.2,-18.53 a 77.76,77.76 0 0 0 10,-11.18 41.2,41.2 0 0 0 2.2,-3.6 101.82,101.82 0 0 0 5.55,-12.71 c 0.9,-2.34 1.81,-4.8 1.44,-7.28 0,-0.22 -0.08,-0.44 -0.13,-0.67 a 14,14 0 0 0 -2.19,-4.42 c -2.45,-3.6 -5.66,-7 -9.88,-8.12 -4.22,-1.12 -8.42,0.23 -12.71,1.14 a 31.85,31.85 0 0 1 -4.31,0.66 c -4.54,0.32 -9,-0.9 -13.42,-2.11 l -4.78,-1.32 c -2.39,-0.66 -3.59,-3.55 -6,-4.06 a 8.12,8.12 0 0 0 -3.25,0.17 c -4.91,0.93 -9.87,2.14 -14.2,4.64 a 21.32,21.32 0 0 0 -2.76,1.88 17.47,17.47 0 0 0 -6.42,9.47 c -1,4.17 -0.06,8.63 -1.06,12.8 -0.82,3.44 -2.89,6.44 -4.91,9.34 L 803,543.83 a 104.13,104.13 0 0 1 -8.66,11.28 C 788,562 776.26,567.18 776.09,576.53 Z"
       transform="translate(-28,-101)"
       fill="#f86d70"
       id="path131" />
    <path
       d="m 807.53,415.4 c -0.49,-2.31 -0.85,-4.71 -2.12,-6.69 a 15.16,15.16 0 0 0 -3.12,-3.28 20.74,20.74 0 0 0 -6.68,-4.17 8.34,8.34 0 0 0 -7.56,0.87 c -2.11,1.6 -3,4.34 -3.33,7 a 17.07,17.07 0 0 0 1.78,10.55 c 2,3.56 5.59,5.94 8.56,8.78 a 34.39,34.39 0 0 1 5.58,7 20.21,20.21 0 0 0 2.54,3.72 4.84,4.84 0 0 0 4,1.61 7,7 0 0 0 3.27,-1.93 c 1.22,-1.07 4.5,-3 4.6,-4.67 0.08,-1.37 -2.48,-4.47 -3.11,-5.76 a 65.41,65.41 0 0 1 -4.41,-13.03 z"
       transform="translate(-28,-101)"
       fill="#fbbebe"
       id="path133" />
    <path
       d="m 722.81,694.64 c 3,5.6 6.34,11 9.05,16.8 1.57,3.37 2.93,6.83 4.68,10.11 1.91,3.57 4.26,6.89 6.26,10.41 5,8.9 7.83,18.94 10.42,28.83 a 57.39,57.39 0 0 0 20.52,-7.22 12.9,12.9 0 0 0 1.23,-0.79 14.52,14.52 0 0 0 4.14,-4.57 c -2.39,-9 -4.84,-18.23 -9.71,-26.22 -1.59,-2.6 -3.41,-5 -5,-7.61 -4.73,-7.45 -5.71,-16.84 -11.12,-23.81 a 4.08,4.08 0 0 1 0,-4.84 c 0.62,-0.81 1.62,-1.58 1.43,-2.59 -0.14,-0.73 -0.9,-1.39 -0.61,-2.07 0.14,-0.33 0.48,-0.51 0.74,-0.75 0.92,-0.84 0.8,-2.29 0.89,-3.53 0.2,-3.16 2.09,-5.93 3.92,-8.51 a 5.34,5.34 0 0 1 1.44,-1.55 c 0.49,-0.3 1.07,-0.44 1.56,-0.74 1.72,-1.07 1.6,-3.59 2.43,-5.46 1.08,-2.46 3.8,-3.71 5.59,-5.7 2.27,-2.54 2.84,-6.07 5.24,-8.29 a 7.11,7.11 0 0 1 0.79,-0.64 39.7,39.7 0 0 0 -1.41,11.61 c -0.23,13.44 3.13,27.34 1.56,40.69 -1.24,10.58 5.28,21.14 14.52,26.44 a 70.28,70.28 0 0 0 11.31,4.76 c 5.78,2.05 11.56,4.16 17.23,6.53 4,1.66 8,3.46 11.86,5.37 a 146,146 0 0 1 14,7.76 c 5.57,3.54 11.15,7.14 15.1,12.43 3.83,-0.1 7.34,-2.4 9.76,-5.37 2.42,-2.97 3.93,-6.56 5.34,-10.11 1.23,-3.07 2.45,-6.22 2.54,-9.53 a 1.9,1.9 0 0 0 -1.06,-1.71 l -26.46,-14 -5,-2.62 c -10.83,-5.75 -22,-11.07 -32.89,-16.81 -0.73,0.21 -1.33,-0.62 -1.54,-1.34 -0.21,-0.72 -0.36,-1.62 -1.05,-1.94 -0.35,-0.16 -0.79,-0.16 -1,-0.44 a 1.2,1.2 0 0 1 -0.18,-0.88 c 0.35,-5.24 4.13,-10.06 3.37,-15.25 -0.32,-2.22 -1.47,-4.4 -1,-6.57 0.35,-1.51 1.43,-2.73 2,-4.16 1.29,-3.2 0,-7 1.42,-10.17 a 23.34,23.34 0 0 0 1.91,-6.48 43.88,43.88 0 0 1 4.05,-12.84 23.18,23.18 0 0 1 3.72,-5.64 c 0.8,-0.85 1.69,-1.62 2.44,-2.5 2.31,-2.73 3.15,-6.37 3.81,-9.88 1.18,-6.37 2,-13 0.52,-19.29 -0.5,-2.15 -1.26,-4.28 -1.23,-6.49 0,-2.91 1.31,-6.32 -0.71,-8.43 a 6.6,6.6 0 0 0 -3,-1.52 90.43,90.43 0 0 0 -14.35,-2.65 L 790.22,582 a 20.28,20.28 0 0 1 -7.35,-1.91 c -3,-1.65 -5,-4.72 -6.2,-7.92 -3.88,2.83 -5.34,8.1 -8.43,11.76 -1.51,1.79 -3.37,3.23 -5,4.87 a 55.11,55.11 0 0 0 -5.54,6.83 c -4.61,6.33 -9.25,12.71 -12.55,19.8 -1.71,3.69 -3,7.54 -4.42,11.36 -5.39,15.07 -14.18,29.37 -17.83,44.94 -0.9,3.81 -3.23,7.24 -3.58,11.14 -0.41,4.13 1.5,8.13 3.49,11.77 z"
       transform="translate(-28,-101)"
       fill="#434175"
       id="path135" />
    <path
       d="m 838.53,569.54 a 6.85,6.85 0 0 1 0.81,3.26 c -0.49,-2.44 -3.85,-3.79 -4.06,-6.2 -0.1,-1.11 0.1,-1.06 0.79,-0.47 1.05,0.87 1.5,2.45 2.46,3.41 z"
       transform="translate(-28,-101)"
       opacity="0.1"
       id="path137" />
    <path
       d="m 828.32,576.94 a 5.15,5.15 0 0 1 1.53,2.26 5.75,5.75 0 0 1 0.3,3.93 c -0.49,-0.23 -0.66,-0.83 -0.81,-1.36 a 9.38,9.38 0 0 0 -1,-2.33 c -0.4,-0.63 -2.23,-2.13 -2.21,-2.82 -0.03,-1.04 1.7,-0.05 2.19,0.32 z"
       transform="translate(-28,-101)"
       opacity="0.1"
       id="path139" />
    <path
       d="m 827.14,495.35 a 25.23,25.23 0 0 0 5.08,3.38 c 4.78,2.42 10.07,3.69 14.88,6 a 72.17,72.17 0 0 1 6.9,4 c 4.77,3 9.53,6 14.29,9.05 a 15.75,15.75 0 0 1 3.15,2.39 c 1.72,1.84 1.71,5 3.28,7 a 9.4,9.4 0 0 0 6.93,3.2 22.5,22.5 0 0 0 7.73,-1.3 38.24,38.24 0 0 0 4.42,-1.61 20.47,20.47 0 0 0 4.24,-2.42 12.19,12.19 0 0 0 5,-7.89 15.58,15.58 0 0 0 -0.85,-6.44 25.11,25.11 0 0 0 -1.52,-3.91 15.17,15.17 0 0 0 -1.22,-2.05 c -3.28,-4.65 -9.06,-6.84 -14.65,-7.93 -2.95,-0.57 -5.95,-0.92 -8.91,-1.42 a 31.85,31.85 0 0 1 -4.31,0.66 c -4.54,0.32 -9,-0.9 -13.42,-2.11 l -4.78,-1.32 c -2.39,-0.66 -3.59,-3.55 -6,-4.06 a 8.12,8.12 0 0 0 -3.25,0.17 c -4.91,0.93 -9.87,2.14 -14.2,4.64 a 21.32,21.32 0 0 0 -2.79,1.97 z"
       transform="translate(-28,-101)"
       opacity="0.1"
       id="path141" />
    <path
       d="m 815.49,431.36 c 0.61,5.83 5.53,10.11 8.53,15.14 1.46,2.45 2.48,5.13 3.79,7.66 a 75,75 0 0 0 5,8 l 5.35,7.77 c 3.15,4.57 6.33,9.18 10.35,13 7,1.19 12.9,6.4 19.55,8.93 5.33,2 11.13,2.3 16.72,3.39 5.59,1.09 11.37,3.27 14.65,7.93 a 20.83,20.83 0 0 1 2.74,6 15.54,15.54 0 0 1 0.85,6.43 12.19,12.19 0 0 1 -5,7.9 27.71,27.71 0 0 1 -8.65,4 22.74,22.74 0 0 1 -7.73,1.3 9.44,9.44 0 0 1 -6.94,-3.2 c -1.56,-2 -1.55,-5.19 -3.27,-7 a 15.75,15.75 0 0 0 -3.15,-2.39 l -14.29,-9 a 72.17,72.17 0 0 0 -6.9,-4 c -4.81,-2.35 -10.1,-3.62 -14.88,-6 -4.78,-2.38 -9.23,-6.41 -10.17,-11.68 -2.91,-16.19 -14.12,-29.84 -23.7,-43.21 0.31,-0.06 0.22,-0.78 0.33,-1.08 a 14,14 0 0 1 7,-7.08 c 3.08,-1.67 6.5,-2.1 9.82,-2.81 z"
       transform="translate(-28,-101)"
       fill="#f86d70"
       id="path143" />
    <path
       d="m 866,431.48 a 8.87,8.87 0 0 1 1,-5.08 c 1.59,-2.64 4.91,-3.57 7.93,-4.19 3.02,-0.62 5.8,-1.1 8.72,-1.52 a 20.1,20.1 0 0 1 7.21,-0.13 c 3.26,0.72 6,2.91 9,4.26 3.6,1.61 7.6,2 11.44,2.92 3.84,0.92 7.79,2.39 10.2,5.52 1.83,2.37 2.56,5.4 3.11,8.35 4.57,24.63 -0.35,49.89 -1.28,74.92 -0.37,9.74 0.07,20.15 5.64,28.16 l -16.21,-0.43 c -4.15,-0.11 -8.61,-0.33 -11.87,-2.89 -2.88,-2.25 -4.24,-5.88 -5.46,-9.31 a 29,29 0 0 1 -2.08,-8.35 c -0.25,-5.88 3.09,-11.65 2,-17.44 -0.81,-4.32 -4,-7.82 -7.32,-10.65 -3.32,-2.83 -7.1,-5.3 -9.83,-8.75 -4.85,-6.15 -5.78,-14.54 -5.18,-22.35 0.36,-4.64 1.2,-9.29 0.79,-13.93 a 17.53,17.53 0 0 0 -3.67,-9.76 c -2.55,-3.08 -3.9,-5 -4.14,-9.35 z"
       transform="translate(-28,-101)"
       fill="#434175"
       id="path145" />
    <path
       d="m 867,426.4 c 1.56,-2.6 4.8,-3.54 7.77,-4.15 a 7.67,7.67 0 0 0 -3.85,3 9,9 0 0 0 -1,5.09 c 0.22,4.35 1.57,6.27 4.15,9.35 a 17.44,17.44 0 0 1 3.68,9.76 c 0.4,4.64 -0.43,9.28 -0.79,13.93 -0.61,7.8 0.32,16.2 5.18,22.35 2.72,3.45 6.47,5.91 9.83,8.75 3.36,2.84 6.51,6.33 7.32,10.65 1.08,5.78 -2.26,11.56 -2,17.44 a 28.51,28.51 0 0 0 2.07,8.34 c 1.23,3.44 2.59,7.07 5.46,9.32 3.26,2.56 7.73,2.78 11.88,2.89 l 11.48,0.3 c 0.25,0.42 0.52,0.84 0.8,1.25 l -16.21,-0.43 c -4.15,-0.11 -8.61,-0.33 -11.87,-2.89 -2.88,-2.25 -4.24,-5.88 -5.46,-9.31 a 29,29 0 0 1 -2.08,-8.35 c -0.25,-5.88 3.09,-11.65 2,-17.44 -0.81,-4.32 -4,-7.82 -7.32,-10.65 -3.32,-2.83 -7.1,-5.3 -9.83,-8.75 -4.85,-6.15 -5.78,-14.54 -5.18,-22.35 0.36,-4.64 1.2,-9.29 0.79,-13.93 a 17.53,17.53 0 0 0 -3.67,-9.76 c -2.58,-3.08 -3.93,-5 -4.16,-9.35 A 8.87,8.87 0 0 1 867,426.4 Z"
       transform="translate(-28,-101)"
       opacity="0.1"
       id="path147" />
    <path
       d="M 745.22,680.23 775,752.78 a 14.52,14.52 0 0 0 4.14,-4.57 c -2.39,-9 -4.84,-18.23 -9.71,-26.22 -1.59,-2.6 -3.41,-5 -5,-7.61 -4.73,-7.45 -5.71,-16.84 -11.12,-23.81 a 4.08,4.08 0 0 1 0,-4.84 c 0.62,-0.81 1.62,-1.58 1.43,-2.59 -0.14,-0.73 -0.9,-1.39 -0.61,-2.07 0.14,-0.33 0.48,-0.51 0.74,-0.75 0.92,-0.84 0.8,-2.29 0.89,-3.53 0.2,-3.16 2.09,-5.93 3.92,-8.51 a 5.34,5.34 0 0 1 1.44,-1.55 c 0.49,-0.3 1.07,-0.44 1.56,-0.74 1.72,-1.07 1.6,-3.59 2.43,-5.46 1.08,-2.46 3.8,-3.71 5.59,-5.7 2.27,-2.54 2.84,-6.07 5.24,-8.29 l 0.21,-0.52 -2.25,-14 z"
       transform="translate(-28,-101)"
       opacity="0.1"
       id="path149" />
    <ellipse
       cx="977.04999"
       cy="659.34998"
       rx="33.950001"
       ry="6.5300002"
       fill="#052c4c"
       id="ellipse151" />
    <ellipse
       cx="977.62"
       cy="656.57001"
       rx="3.95"
       ry="5.1700001"
       fill="#3f3d56"
       id="ellipse153" />
    <ellipse
       cx="977.62"
       cy="650.25"
       rx="3.95"
       ry="5.1700001"
       fill="#3f3d56"
       id="ellipse155" />
    <ellipse
       cx="977.62"
       cy="643.91998"
       rx="3.95"
       ry="5.1700001"
       fill="#3f3d56"
       id="ellipse157" />
    <ellipse
       cx="977.62"
       cy="637.59998"
       rx="3.95"
       ry="5.1700001"
       fill="#3f3d56"
       id="ellipse159" />
    <ellipse
       cx="977.62"
       cy="631.27002"
       rx="3.95"
       ry="5.1700001"
       fill="#3f3d56"
       id="ellipse161" />
    <ellipse
       cx="977.62"
       cy="624.95001"
       rx="3.95"
       ry="5.1700001"
       fill="#3f3d56"
       id="ellipse163" />
    <ellipse
       cx="977.62"
       cy="618.63"
       rx="3.95"
       ry="5.1700001"
       fill="#3f3d56"
       id="ellipse165" />
    <path
       d="m 990.82,676.35 a 18.78,18.78 0 0 1 -1.47,-2.17 l 10.38,-1.71 -11.23,0.09 a 19,19 0 0 1 -0.36,-15 l 15.07,7.81 -13.9,-10.21 a 18.94,18.94 0 1 1 31.27,21.19 18.34,18.34 0 0 1 2.16,3.45 l -13.48,7 14.38,-4.82 a 19.07,19.07 0 0 1 1,6.07 18.85,18.85 0 0 1 -4.06,11.71 18.93,18.93 0 1 1 -29.76,0 18.94,18.94 0 0 1 0,-23.41 z"
       transform="translate(-28,-101)"
       fill="#052c4c"
       id="path167" />
    <path
       d="m 1024.64,688.05 a 18.85,18.85 0 0 1 -4.06,11.71 18.93,18.93 0 1 1 -29.76,0 c -2.54,-3.22 33.82,-13.83 33.82,-11.71 z"
       transform="translate(-28,-101)"
       opacity="0.1"
       id="path169" />
    <ellipse
       cx="1043.17"
       cy="586.83002"
       rx="22.83"
       ry="4.3899999"
       fill="#052c4c"
       id="ellipse171" />
    <ellipse
       cx="1043.5601"
       cy="584.96997"
       rx="2.6600001"
       ry="3.48"
       fill="#3f3d56"
       id="ellipse173" />
    <ellipse
       cx="1043.5601"
       cy="580.71997"
       rx="2.6600001"
       ry="3.48"
       fill="#3f3d56"
       id="ellipse175" />
    <ellipse
       cx="1043.5601"
       cy="576.46002"
       rx="2.6600001"
       ry="3.48"
       fill="#3f3d56"
       id="ellipse177" />
    <ellipse
       cx="1043.5601"
       cy="572.21002"
       rx="2.6600001"
       ry="3.48"
       fill="#3f3d56"
       id="ellipse179" />
    <ellipse
       cx="1043.5601"
       cy="567.96002"
       rx="2.6600001"
       ry="3.48"
       fill="#3f3d56"
       id="ellipse181" />
    <ellipse
       cx="1043.5601"
       cy="563.71002"
       rx="2.6600001"
       ry="3.48"
       fill="#3f3d56"
       id="ellipse183" />
    <ellipse
       cx="1043.5601"
       cy="559.45001"
       rx="2.6600001"
       ry="3.48"
       fill="#3f3d56"
       id="ellipse185" />
    <path
       d="m 1061.61,631.36 a 11,11 0 0 1 -1,-1.46 l 7,-1.15 -7.55,0.06 a 12.62,12.62 0 0 1 -1.17,-5.32 12.78,12.78 0 0 1 0.92,-4.77 l 10.14,5.26 -9.35,-6.87 a 12.73,12.73 0 1 1 21,14.25 12.56,12.56 0 0 1 1.45,2.32 l -9.06,4.71 9.66,-3.25 a 12.77,12.77 0 0 1 -2.05,12 12.74,12.74 0 1 1 -20,0 12.71,12.71 0 0 1 0,-15.74 z"
       transform="translate(-28,-101)"
       fill="#052c4c"
       id="path187" />
    <path
       d="m 1084.34,639.23 a 12.72,12.72 0 0 1 -2.72,7.87 12.74,12.74 0 1 1 -20,0 c -1.72,-2.17 22.72,-9.3 22.72,-7.87 z"
       transform="translate(-28,-101)"
       opacity="0.1"
       id="path189" />
  </g>
</svg>
