<?xml version="1.0" encoding="UTF-8" standalone="no"?>
<svg
   xmlns:dc="http://purl.org/dc/elements/1.1/"
   xmlns:cc="http://creativecommons.org/ns#"
   xmlns:rdf="http://www.w3.org/1999/02/22-rdf-syntax-ns#"
   xmlns:svg="http://www.w3.org/2000/svg"
   xmlns="http://www.w3.org/2000/svg"
   xmlns:sodipodi="http://sodipodi.sourceforge.net/DTD/sodipodi-0.dtd"
   xmlns:inkscape="http://www.inkscape.org/namespaces/inkscape"
   id="b7b32b39-b294-42d6-81e0-024e7ed9ae70"
   data-name="Layer 1"
   width="920.30414"
   height="920.30414"
   viewBox="0 0 920.30414 920.30418"
   version="1.1"
   sodipodi:docname="undraw_Throw_away_re_x60k.svg"
   inkscape:version="1.0.2 (e86c870879, 2021-01-15)">
  <metadata
     id="metadata1044">
    <rdf:RDF>
      <cc:Work
         rdf:about="">
        <dc:format>image/svg+xml</dc:format>
        <dc:type
           rdf:resource="http://purl.org/dc/dcmitype/StillImage" />
        <dc:title></dc:title>
      </cc:Work>
    </rdf:RDF>
  </metadata>
  <defs
     id="defs1042" />
  <sodipodi:namedview
     pagecolor="#ffffff"
     bordercolor="#666666"
     borderopacity="1"
     objecttolerance="10"
     gridtolerance="10"
     guidetolerance="10"
     inkscape:pageopacity="0"
     inkscape:pageshadow="2"
     inkscape:window-width="1920"
     inkscape:window-height="1016"
     id="namedview1040"
     showgrid="false"
     inkscape:zoom="0.55807659"
     inkscape:cx="372.84528"
     inkscape:cy="470.22789"
     inkscape:window-x="1366"
     inkscape:window-y="0"
     inkscape:window-maximized="1"
     inkscape:current-layer="b7b32b39-b294-42d6-81e0-024e7ed9ae70" />
  <g
     id="g8409"
     transform="translate(-1.5908203e-5,202.6088)">
    <path
       id="a935b196-91fc-4d65-bd04-49275a33d175"
       data-name="Path 1"
       d="m 333.52692,705.58229 h -140.6 c 0,0 -2.85,-41.8 14.012,-42.275 16.862,-0.475 14.962,18.525 36.1,-7.6 21.138,-26.125 46.787,-24.7 50.112,-9.262 3.325,15.438 -6.412,27.787 11.4,23.987 17.812,-3.8 43.463,6.17497 28.976,35.15 z"
       transform="translate(-139.84793,-192.45672)"
       fill="#e6e6e6" />
    <path
       id="af9a6d89-7824-4af5-a475-6980c18ad0f3"
       data-name="Path 2"
       d="m 260.85394,705.5923 -0.475,-0.019 c 1.107,-27.52 6.87,-45.2 11.511,-55.19 5.038,-10.844 9.893,-15.234 9.942,-15.277 l 0.316,0.355 c -0.048,0.043 -4.846,4.389 -9.844,15.16 -4.61501,9.94396 -10.347,27.554 -11.45,54.971 z"
       transform="translate(-139.84793,-192.45672)"
       fill="#ffffff" />
    <path
       id="ae138407-70d7-43ff-b006-9d3240c337f6"
       data-name="Path 3"
       d="m 311.73993,705.6483 -0.456,-0.133 a 73.682,73.682 0 0 1 18.551,-30.863 l 0.319,0.352 a 73.183,73.183 0 0 0 -18.414,30.644 z"
       transform="translate(-139.84793,-192.45672)"
       fill="#ffffff" />
    <path
       id="a7d931fe-d47e-4aa5-ae01-a0d26a3448cc"
       data-name="Path 4"
       d="m 215.07292,705.61531 -0.471,-0.065 a 51.73206,51.73206 0 0 0 -4.653,-30.238 41.63309,41.63309 0 0 0 -7.34,-10.71606 l 0.329,-0.343 a 42.15523,42.15523 0 0 1 7.441,10.848 52.20594,52.20594 0 0 1 4.694,30.51406 z"
       transform="translate(-139.84793,-192.45672)"
       fill="#ffffff" />
    <path
       id="b274f1e0-b558-44b1-a0b2-dcd77bbddb14"
       data-name="Path 5"
       d="m 352.60792,706.21727 h -174.845 l -0.04,-0.592 c -0.1,-1.473 -2.331,-36.228 8.93,-48.629 a 12.33392,12.33392 0 0 1 9.013,-4.325 c 7.34,-0.209 11.953,2.541 15.674,4.747 7.013,4.16 11.645,6.909 28.49,-13.91 18.247,-22.553 37.936,-27.406 49.254,-24.708 7.313,1.744 12.353,6.671 13.828,13.52 1.4,6.485 0.952,12.578 0.594,17.475 -0.383,5.239 -0.685,9.376 1.467,11.252 1.8,1.565 5.381,1.707 11.281,0.448 12,-2.56 28.748,-0.37 37.153,10.491 4.522,5.843 8.085,16.463 -0.623,33.88 z m -173.652,-1.271 h 172.865 c 6.489,-13.165 6.692,-24.287 0.581,-32.182 -7.711,-9.963 -23.888,-12.585 -35.883,-10.026 -6.411,1.368 -10.23,1.142 -12.381,-0.732 -2.631,-2.292 -2.308,-6.71 -1.9,-12.3 0.352,-4.815 0.789,-10.808 -0.569,-17.115 -1.368,-6.351 -6.063,-10.926 -12.881,-12.551 -10.957,-2.614 -30.1,2.177 -47.971,24.27 -17.534,21.672 -22.817,18.54 -30.126,14.2 -3.767,-2.234 -8.043,-4.767 -14.99,-4.57 a 11.10885,11.10885 0 0 0 -8.108,3.909 c -10.118,11.146 -8.884,42.398 -8.636,47.097 z"
       transform="translate(-139.84793,-192.45672)"
       fill="#2f2e41" />
    <path
       id="bca7d782-7e31-494e-97b0-f49b8df7894d"
       data-name="Path 8"
       d="m 923.90791,706.92328 h -172.216 l -0.033,-0.965 -8.223,-235.18 h 188.727 z m -170.284,-2 h 168.352 l 8.117,-232.145 h -184.587 z"
       transform="translate(-139.84793,-192.45672)"
       fill="#3f3d56" />
    <g
       id="e7d5632f-8461-4dcf-9cd9-df8e3f64d5e2"
       data-name="Group 1">
      <rect
         id="ad932c98-7027-4b28-8e73-a76d8a4136e0"
         data-name="Rectangle 17"
         x="639.82599"
         y="321.89658"
         width="13.099"
         height="162.097"
         fill="#3f3d56" />
      <rect
         id="ae1e5d8b-7977-4a56-a24c-fbb057f76b38"
         data-name="Rectangle 18"
         x="691.40204"
         y="321.89658"
         width="13.099"
         height="162.097"
         fill="#3f3d56" />
      <rect
         id="bffa0855-fc38-45cc-9e39-6daa1d3e4103"
         data-name="Rectangle 19"
         x="742.97803"
         y="321.89658"
         width="13.099"
         height="162.097"
         fill="#3f3d56" />
    </g>
    <path
       d="m 1041.5974,539.83884 -0.8457,-0.53418 -213.91408,-135.1831 18.55566,-29.36182 0.84571,0.53418 213.91311,135.18262 z M 829.59738,403.49949 1040.9744,537.07908 1057.3924,511.09959 846.01638,377.51853 Z"
       transform="translate(-139.84793,-192.45672)"
       fill="#3f3d56"
       id="path1017" />
    <path
       id="b31113e7-cae2-4653-b248-af5e4acb0a6c"
       data-name="Path 10"
       d="m 989.9499,393.22629 a 38.459,38.459 0 0 0 -58.62,38.07 l 10.2,6.446 a 30.344,30.344 0 1 1 28.98,18.321 l 10.2,6.446 a 38.459,38.459 0 0 0 9.249,-69.283 z"
       transform="translate(-139.84793,-192.45672)"
       fill="#3f3d56" />
    <rect
       id="bbfb7505-c422-4cd7-b125-b9dee40ff3b1"
       data-name="Rectangle 21"
       y="513.08655"
       width="909"
       height="2"
       fill="#3f3d56"
       x="0" />
    <g
       id="b91459ce-423d-4e92-a857-d0ba85dc07c7"
       data-name="Group 6">
      <path
         id="bc369f15-2cd9-428d-9eec-3a8fd8cc1bba"
         data-name="Path 111"
         d="m 536.88489,691.89628 h -14.564 l -6.932,-56.174 h 21.5 z"
         transform="translate(-139.84793,-192.45672)"
         fill="#feb8b8" />
      <path
         id="fafca8b8-1a63-4513-a3fa-e64917847011"
         data-name="Path 112"
         d="m 494.23393,705.41828 h 45.771 v -17.684 h -28.332 a 17.439,17.439 0 0 0 -17.439,17.439 v 0 z"
         transform="translate(-139.84793,-192.45672)"
         fill="#2f2e41" />
      <path
         id="a38ea43e-f1b1-406e-84c8-61e7480f01b4"
         data-name="Path 113"
         d="m 531.766,604.85129 10.046,10.545 45.452,-33.727 -14.826,-15.563 z"
         transform="translate(-139.84793,-192.45672)"
         fill="#feb8b8" />
      <path
         id="b5ba90e2-8a51-4a77-95c4-5b486c8770ec"
         data-name="Path 114"
         d="m 552.16123,620.2275 -19.54908,-20.51237 -12.80321,12.202 31.582,33.1382 0.17738,-0.169 a 17.4414,17.4414 0 0 0 0.59292,-24.65874 z"
         transform="translate(-139.84793,-192.45672)"
         fill="#2f2e41" />
      <path
         id="b1536285-e66e-494f-8c4f-a2304265e4c3"
         data-name="Path 115"
         d="m 430.39593,450.95329 a 11.94591,11.94591 0 0 1 5.715,-17.4 l 57.179,-145.727 22.288,13.345 -63.518,139.8 a 12.01,12.01 0 0 1 -21.664,9.982 z"
         transform="translate(-139.84793,-192.45672)"
         fill="#feb8b8" />
      <path
         id="acd6249e-4699-4411-813c-091b3a750afe"
         data-name="Path 116"
         d="m 647.42792,461.3983 a 11.94507,11.94507 0 0 1 -10.727,-14.85 l -84.354,-131.869 23.891,-10.2 75.836,133.523 a 12.01,12.01 0 0 1 -4.646,23.4 z"
         transform="translate(-139.84793,-192.45672)"
         fill="#feb8b8" />
      <path
         id="ece4d731-f277-435f-bbc1-e3b70679d22f"
         data-name="Path 117"
         d="m 493.8529,436.36129 14.931,221.913 35.682,-3.148 7.34595,-163.722 19.94,70.314 43.028,3.148 -17.031,-139 z"
         transform="translate(-139.84793,-192.45672)"
         fill="#2f2e41" />
      <path
         id="b91f5bf0-a8c5-41a2-a26e-8e2fd84207c6"
         data-name="Path 118"
         d="m 578.04889,551.2243 -6.3,10.495 -44.073,30.434 31.484,16.792 c 0,0 60.869,-33.583 55.622,-44.078 z"
         transform="translate(-139.84793,-192.45672)"
         fill="#2f2e41" />
      <path
         id="b0b7866d-f3ba-460a-97cc-8103175b89de"
         data-name="Path 119"
         d="m 462.60693,346.57728 12.421,-35 a 62.4941,62.4941 0 0 1 32.332,-35.668 v 0 a 89.42706,89.42706 0 0 1 52.484,-2.873 l 4.52,1.122 a 87.36364,87.36364 0 0 1 33.128,16 c 7.654,6.034 14.54,13.674 15.153,21.892 a 0.24435,0.24435 0 0 0 0.015,0.051 c 2.12,9.292 3.169,57.567 3.169,57.567 h -18.7 l 2.958,65.067 -0.239,-0.471 c 0,0 -107.856,20.411 -107.856,9.916 v -67.168 l -2.211,-24.32 z"
         transform="translate(-139.84793,-192.45672)"
         fill="#cccccc" />
      <circle
         id="bd3b9138-8795-4826-98b2-48d72249760b"
         data-name="Ellipse 12"
         cx="423.43201"
         cy="41.592571"
         r="29.889"
         fill="#feb8b8" />
      <path
         id="e83e2647-99b5-4c80-ac3e-9e5d1f9bc81d"
         data-name="Path 120"
         d="m 567.757,220.64529 23.208,0.93 c 2.92,-0.009 6.108,-0.112 8.332,-2 3.35,-2.849 2.789,-8.225 0.995,-12.241 -5,-11.182 -16.153,-15.188 -28.4,-14.859 -12.247,0.329 -25.08,4.48 -31.675,14.8 -6.595,10.32 -8.377,23.352 -5.893,35.344 a 38.534,38.534 0 0 1 31.508,-21.97 z"
         transform="translate(-139.84793,-192.45672)"
         fill="#2f2e41" />
    </g>
    <g
       id="ff061cc6-72bd-494d-9c36-32e4a4020cd7"
       data-name="Group 4">
      <path
         id="bc404282-8d4f-43f7-bc12-02f97785eba1"
         data-name="Path 81"
         d="m 705.57123,513.00138 -84.00157,-58.87289 a 3.60743,3.60743 0 0 1 -0.882,-5.01481 L 686.619,355.0409 a 3.60743,3.60743 0 0 1 5.01481,-0.882 l 84.00156,58.87289 a 3.60742,3.60742 0 0 1 0.882,5.01481 l -65.92963,94.07033 a 3.60742,3.60742 0 0 1 -5.01651,0.88445 z"
         transform="translate(-139.84793,-192.45672)"
         fill="#e3eef9" />
      <path
         id="ae4af9f3-88ec-4cab-9b9e-a4fc234f7062"
         data-name="Path 82"
         d="m 724.46214,449.12032 -49.29069,-34.54561 a 5.3006309,5.3006309 0 1 1 6.08441,-8.6814 l 49.29069,34.54561 a 5.3006309,5.3006309 0 0 1 -6.08441,8.6814 z"
         transform="translate(-139.84793,-192.45672)"
         fill="#ffffff" />
      <path
         id="fe48f3fd-992f-41c2-af3b-c30882e26a16"
         data-name="Path 83"
         d="m 713.14975,465.26118 -49.29069,-34.54561 a 5.30063,5.30063 0 1 1 6.0844,-8.6814 l 49.29069,34.54561 a 5.30063,5.30063 0 0 1 -6.0844,8.6814 z"
         transform="translate(-139.84793,-192.45672)"
         fill="#ffffff" />
      <path
         id="e216638f-22ba-49ea-a46c-300c78c4e875"
         data-name="Path 84"
         d="M 701.71568,481.57565 652.425,447.03 a 5.3006321,5.3006321 0 1 1 6.0844,-8.68141 l 49.29069,34.54561 a 5.3006321,5.3006321 0 0 1 -6.0844,8.68141 z"
         transform="translate(-139.84793,-192.45672)"
         fill="#ffffff" />
      <path
         id="ee43e3d8-5f22-4b53-a964-043fec166479"
         data-name="Path 85"
         d="m 724.32359,417.19028 -19.09171,-13.38052 a 5.30063,5.30063 0 1 1 6.0844,-8.6814 l 19.09172,13.38051 a 5.300635,5.300635 0 0 1 -6.08441,8.68141 z"
         transform="translate(-139.84793,-192.45672)"
         fill="#ffffff" />
    </g>
  </g>
</svg>
