<?xml version="1.0" encoding="UTF-8" standalone="no"?>
<svg
   xmlns:dc="http://purl.org/dc/elements/1.1/"
   xmlns:cc="http://creativecommons.org/ns#"
   xmlns:rdf="http://www.w3.org/1999/02/22-rdf-syntax-ns#"
   xmlns:svg="http://www.w3.org/2000/svg"
   xmlns="http://www.w3.org/2000/svg"
   xmlns:sodipodi="http://sodipodi.sourceforge.net/DTD/sodipodi-0.dtd"
   xmlns:inkscape="http://www.inkscape.org/namespaces/inkscape"
   id="f0862836-4e64-470e-8684-783773d4b1d8"
   data-name="Layer 1"
   width="1055.5234"
   height="1055.5234"
   viewBox="0 0 1055.5235 1055.5234"
   version="1.1"
   sodipodi:docname="waiting.svg"
   inkscape:version="1.0.2 (e86c870879, 2021-01-15)">
  <metadata
     id="metadata1163">
    <rdf:RDF>
      <cc:Work
         rdf:about="">
        <dc:format>image/svg+xml</dc:format>
        <dc:type
           rdf:resource="http://purl.org/dc/dcmitype/StillImage" />
        <dc:title>Waiting _for_you</dc:title>
      </cc:Work>
    </rdf:RDF>
  </metadata>
  <defs
     id="defs1161" />
  <sodipodi:namedview
     pagecolor="#ffffff"
     bordercolor="#666666"
     borderopacity="1"
     objecttolerance="10"
     gridtolerance="10"
     guidetolerance="10"
     inkscape:pageopacity="0"
     inkscape:pageshadow="2"
     inkscape:window-width="1920"
     inkscape:window-height="1016"
     id="namedview1159"
     showgrid="false"
     inkscape:zoom="0.70088431"
     inkscape:cx="515.76399"
     inkscape:cy="468.92817"
     inkscape:window-x="1366"
     inkscape:window-y="0"
     inkscape:window-maximized="1"
     inkscape:current-layer="f0862836-4e64-470e-8684-783773d4b1d8"
     inkscape:document-rotation="0" />
  <title
     id="title1046">Waiting _for_you</title>
  <ellipse
     cx="502.36285"
     cy="923.62366"
     rx="250.30368"
     ry="8.9394197"
     fill="#3f3d56"
     id="ellipse1048" />
  <circle
     cx="385.68161"
     cy="434.62198"
     r="89.563133"
     fill="#ff6584"
     id="circle1050" />
  <ellipse
     cx="280.1586"
     cy="893.21533"
     rx="75.485748"
     ry="6.9581099"
     fill="#3f3d56"
     id="ellipse1052" />
  <path
     d="m 417.67634,924.23509 c 0,0 62.65145,-167.07054 28.11283,-269.88318 -34.53862,-102.81264 -61.84823,-98.79652 -61.84823,-98.79652 0,0 -46.587,-12.04835 -104.41908,23.29349 -57.83208,35.34184 -73.09336,45.78375 -106.02554,31.32573 -32.93218,-14.45802 -39.358,-36.9483 -119.68033,-34.53863 0,0 42.57085,-23.29348 84.33849,-2.40967 41.76764,20.88381 69.88046,32.12895 112.45132,0 42.57086,-32.12895 101.20619,-73.89659 158.23508,-48.99659 0,0 -41.76764,-40.96442 -55.42244,-40.96442 -13.6548,0 -77.9127,-6.42579 -98.79652,-28.11283 0,0 -29.71928,-20.88381 -82.732,30.52251 C 118.8772,537.0813 131.72873,537.0813 84.33853,533.06518 36.94833,529.04906 0,505.75552 0,505.75552 c 0,0 55.42243,22.49026 89.15783,11.24513 33.7354,-11.24513 62.65145,-53.816 92.37073,-68.274 29.71928,-14.458 47.3902,-33.73539 87.55139,-12.85158 0,0 -16.8677,-69.07724 -48.99665,-63.45467 -32.12895,5.62257 15.26125,-16.06448 15.26125,-16.06448 0,0 -8.83546,-117.27066 -25.70316,-125.3029 -16.8677,-8.03224 -6.42579,-28.916 -37.75151,-32.93217 0,0 38.55474,-4.81935 45.78375,21.687 7.22901,26.50635 57.02888,169.48021 57.02888,169.48021 0,0 30.52251,61.045 64.2579,46.587 33.73539,-14.458 -12.85158,-95.58362 -12.85158,-95.58362 l -57.8321,-26.50639 c 0,0 43.37409,-1.60645 69.88047,23.29348 26.50638,24.89993 28.11283,105.22231 28.11283,105.22231 0,0 66.66757,9.63869 82.732,45.78376 0,0 10.4419,-32.12895 -9.63869,-51.40632 -5.02015,-4.81934 -10.2913,-13.203 -15.3742,-23.06758 -19.438,-37.72422 -26.0323,-80.72643 -19.91733,-122.72121 2.99238,-20.55024 4.834,-40.64371 1.55613,-45.37846 -7.229,-10.44191 -37.75151,-74.69981 -40.16118,-91.56751 -2.40967,-16.8677 2.40967,-52.20954 2.40967,-52.20954 0,0 0.80322,43.37408 10.44191,57.02888 9.63869,13.6548 36.94829,81.1256 36.94829,81.1256 0,0 0,85.14172 22.49026,126.90935 22.49026,41.76763 65.86435,88.35461 63.45468,118.87712 v 17.67092 c 0,0 48.19342,-45.78375 44.98053,-61.045 -3.21289,-15.26125 -7.229,-51.40632 -37.75152,-73.09336 -30.52252,-21.68704 -50.60305,-56.22567 -28.91601,-106.02554 21.68704,-49.79987 21.687,-58.63533 21.687,-58.63533 l -14.458,61.84823 c 0,0 -8.03224,55.42243 14.458,74.6998 22.49024,19.27737 52.20954,54.61922 52.20954,54.61922 l -6.42579,-115.66422 20.88382,45.78375 c 0,0 44.98053,-57.83211 97.9933,-77.10948 53.01277,-19.27737 85.94498,-86.7482 85.94498,-86.7482 l 44.98053,-35.34185 -36.9483,44.17735 c 0,0 -11.24513,52.20954 -74.6998,89.15784 -63.45467,36.9483 -104.41912,91.5675 -106.82876,125.3029 -2.40964,33.7354 -4.81936,63.45467 -4.81936,63.45467 0,0 118.87711,-4.01611 145.38349,-56.22566 26.50638,-52.20955 28.91606,-155.8254 54.61922,-172.6931 25.70316,-16.8677 73.89658,-37.75152 73.89658,-37.75152 l -53.816,44.17731 c 0,0 -11.24513,36.14507 -8.83546,61.84823 2.40967,25.70316 -17.67089,49.79983 -17.67089,49.79983 l -15.26125,44.98053 -16.86769,38.55478 c 0,0 69.07724,1.60644 105.22231,42.57086 36.14507,40.96442 126.10609,53.01276 126.10609,53.01276 l -50.60306,13.65481 c 0,0 -48.19344,-16.06448 -93.97719,-45.78374 -45.78375,-29.71926 -40.96441,-56.22566 -97.9933,-26.50638 -57.02889,29.71928 -134.94158,54.61921 -134.94158,54.61921 0,0 44.98053,-20.88383 126.10612,29.71926 81.12559,50.60309 -40.16118,-8.83546 -76.30625,10.44191 -36.14507,19.27737 -53.01277,-4.81934 -67.4708,43.37408 -14.45803,48.19342 -40.96441,179.92212 -10.4419,253.8187 l 30.5225,73.89659 z"
     fill="#216778"
     id="path1054"
     style="fill:#216778" />
  <path
     d="m 720.10366,392.50094 c -21.53454,42.41677 -104.03814,53.02354 -134.23047,55.51024 -0.84665,10.88865 -1.40489,17.7746 -1.40489,17.7746 0,0 118.87713,-4.01616 145.38343,-56.2257 26.5063,-52.20954 28.9161,-155.8254 54.61934,-172.6931 2.72588,-1.78887 5.7067,-3.62311 8.85412,-5.47266 0.88295,-3.24187 1.47837,-5.16067 1.47837,-5.16067 l 53.816,-44.1773 c 0,0 -48.19331,20.88379 -73.89654,37.75149 -25.70323,16.8677 -28.11291,120.48357 -54.61936,172.6931 z"
     opacity="0.1"
     id="path1056" />
  <path
     d="m 581.58788,311.35448 c -0.17537,19.776 -2.74209,31.538 -2.74209,31.538 0,0 44.96169,-57.80737 97.96,-77.097 3.13225,-1.98157 6.31,-3.93256 9.56245,-5.82645 63.45472,-36.94834 74.6999,-89.15788 74.6999,-89.15788 l 36.94828,-44.1773 -44.98057,35.34187 c 0,0 -32.93219,67.47081 -85.9448,86.74816 -36.13583,13.14025 -68.53373,44.18963 -85.50317,62.6306 z"
     opacity="0.1"
     id="path1058" />
  <path
     d="m 512.1782,502.73405 v 17.67092 c 0,0 48.19345,-45.78373 44.98044,-61.045 -2.457,-11.67126 -5.39881,-35.55224 -20.29224,-55.84417 6.71326,15.335 8.75655,30.29325 10.54416,38.785 2.304,10.94376 -21.82519,37.58133 -35.66283,51.77819 a 36.62966,36.62966 0 0 1 0.43047,8.65506 z"
     opacity="0.1"
     id="path1060" />
  <path
     d="m 447.53114,381.46705 c 0.38168,0.81408 0.77525,1.61514 1.19233,2.38987 12.31718,22.87472 30.88681,47.19025 44.78053,69.52548 -11.22897,-22.11888 -30.77064,-47.41218 -45.97286,-71.91535 z"
     opacity="0.1"
     id="path1062" />
  <path
     d="m 486.69019,347.27099 c -6.4772,-15.87053 -7.54443,-34.755 -0.10308,-56.88411 a 173.59159,173.59159 0 0 1 1.385,-23.992 l 12.64754,-54.10334 c -2.33186,7.80221 -7.66715,22.854 -19.87664,50.8904 -15.45661,35.49309 -9.68803,63.22787 5.94718,84.08905 z"
     opacity="0.1"
     id="path1064" />
  <path
     d="m 841.39059,463.98784 c -25.06676,-28.409 -65.96552,-37.88655 -88.68555,-41.02891 l -6.78867,15.51718 c 0,0 69.07724,1.60651 105.2223,42.57086 20.044,22.71661 56.63273,36.53737 85.25696,44.346 l 31.101,-8.39227 c 0,0 -89.96099,-12.04843 -126.10604,-53.01286 z"
     opacity="0.1"
     id="path1066" />
  <path
     d="m 349.92691,452.93416 c 33.73541,-14.45805 -12.85147,-95.58362 -12.85147,-95.58362 l -1.27443,-0.58412 c 11.61436,24.50481 28.45871,68.78824 4.37782,79.1086 -22.5332,9.65713 -43.63,-14.36887 -55.15808,-31.39127 0.41856,1.20393 0.64837,1.86346 0.64837,1.86346 0,0 30.52239,61.045 64.25779,46.58695 z"
     opacity="0.1"
     id="path1068" />
  <path
     d="m 459.96866,505.14372 c 0,0 10.1653,-31.33364 -8.93133,-50.67956 4.6829,16.66623 -0.81675,33.62042 -0.81675,33.62042 -12.4271,-27.96079 -55.12834,-40.05739 -73.83214,-44.10292 0.72543,9.30906 0.84814,15.37833 0.84814,15.37833 0,0 66.66759,9.63866 82.73208,45.78373 z"
     opacity="0.1"
     id="path1070" />
  <path
     d="m 500.61961,212.29152 c 1.81006,-6.05648 1.81051,-7.74495 1.81051,-7.74495 z"
     opacity="0.1"
     id="path1072" />
  <path
     d="m 99.63697,534.21323 c 0.162,-0.0521 0.32649,-0.0998 0.48743,-0.15343 33.7354,-11.24518 62.65151,-53.81605 92.37083,-68.274 29.71932,-14.45795 47.39009,-33.73541 87.55122,-12.85162 0,0 -7.02606,-28.7597 -20.64148,-47.65448 a 187.3908,187.3908 0 0 1 10.89341,30.59534 c -40.16114,-20.88378 -57.83206,-1.60643 -87.55123,12.85162 -29.71932,14.458 -58.63542,57.02884 -92.37083,68.274 -33.73541,11.24516 -89.15781,-11.24519 -89.15781,-11.24519 0,0 36.94827,23.29351 84.33851,27.3096 5.42112,0.4594 10.04676,0.8648 14.07995,1.14816 z"
     opacity="0.1"
     id="path1074" />
  <path
     d="m 434.51073,924.23509 c 14.71731,-45.116 50.11121,-169.87381 22.24509,-252.8241 -12.03412,-35.82272 -23.18857,-58.66584 -32.61819,-73.23894 7.0518,13.7954 14.76164,32.043 22.87011,56.17981 34.53859,102.81264 -28.11291,269.88323 -28.11291,269.88323 z"
     opacity="0.1"
     id="path1076" />
  <path
     d="m 120.82925,582.09672 a 81.99255,81.99255 0 0 1 28.29182,8.18873 c 32.98678,16.49331 57.46154,26.9535 87.26282,14.80484 6.78881,-3.58629 14.38234,-8.02413 23.13948,-13.30751 0.68274,-0.49822 1.35893,-0.97643 2.0491,-1.49733 42.57079,-32.129 101.20621,-73.89662 158.2349,-48.99668 0,0 -11.52572,-11.30089 -24.44576,-22.03179 -52.27082,-12.82268 -104.6175,24.59591 -143.53722,53.96933 -42.57094,32.129 -70.68367,20.88379 -112.4514,0 -41.76773,-20.88379 -84.3385,2.40965 -84.3385,2.40965 31.03451,-0.93108 51.03224,1.8569 65.79476,6.46076 z"
     opacity="0.1"
     id="path1078" />
  <path
     d="m 202.35917,223.25543 a 21.01179,21.01179 0 0 0 3.30316,4.22284 23.705,23.705 0 0 0 -3.30316,-4.22284 z"
     opacity="0.1"
     id="path1080" />
  <path
     d="m 349.12373,354.13772 a 39.10828,39.10828 0 0 1 3.48224,3.75437 c -3.51854,-8.45832 -7.86364,-15.77227 -13.23032,-20.8135 -26.50631,-24.9 -69.88046,-23.29351 -69.88046,-23.29351 l 54.39563,24.93133 a 77.67982,77.67982 0 0 1 25.23291,15.42131 z"
     opacity="0.1"
     id="path1082" />
  <path
     d="m 406.84643,245.511 c 3.278,4.73474 1.43627,24.82825 -1.55616,45.37848 -6.11486,41.99478 0.4794,84.997 19.91739,122.72119 a 142.93383,142.93383 0 0 0 8.55858,14.69181 c -18.50924,-37.151 -24.71543,-79.23377 -18.7279,-120.35386 2.99243,-20.55023 4.83418,-40.64374 1.55616,-45.37848 -7.22895,-10.44189 -37.75149,-74.69983 -40.16114,-91.56754 a 116.89363,116.89363 0 0 1 -0.5032,-19.7093 c -6.23935,-17.70312 -6.83522,-49.55937 -6.83522,-49.55937 0,0 -4.8193,35.34191 -2.40965,52.20954 2.40965,16.86763 32.93218,81.12564 40.16114,91.56753 z"
     opacity="0.1"
     id="path1084" />
  <path
     d="m 482.2011,134.46829 a 22.98529,22.98529 0 0 0 -1.45813,-4.62147 c 0,0 0.61728,1.73353 1.45813,4.62147 z"
     opacity="0.1"
     id="path1086" />
  <path
     d="m 198.49912,215.36338 c 7.079,0.86658 15.22185,3.03854 21.4331,8.07567 -0.40518,-1.37038 -0.75859,-2.59885 -1.04,-3.63121 -7.2291,-26.50638 -45.7838,-21.687 -45.7838,-21.687 17.42339,2.23376 21.92378,9.68605 25.3907,17.24254 z"
     opacity="0.1"
     id="path1088" />
  <path
     d="m 398.13742,889.91563 c 5.72694,21.17024 25.343,34.2815 25.343,34.2815 0,0 10.33087,-21.21248 4.60392,-42.38271 -5.72695,-21.17023 -25.343,-34.2815 -25.343,-34.2815 0,0 -10.33087,21.21247 -4.60392,42.38271 z"
     fill="#3f3d56"
     id="path1090" />
  <path
     d="m 406.55273,885.36592 c 15.71483,15.29775 17.63428,38.81395 17.63428,38.81395 0,0 -23.55932,-1.28635 -39.27414,-16.5841 -15.71482,-15.29775 -17.63428,-38.814 -17.63428,-38.814 0,0 23.55935,1.2864 39.27414,16.58415 z"
     fill="#e3eef9"
     id="path1092" />
  <path
     d="m 354.46698,311.37439 c -1.36616,21.88859 -17.95525,38.66653 -17.95525,38.66653 0,0 -14.37407,-18.71048 -13.0079,-40.59908 1.36617,-21.8886 17.95522,-38.66652 17.95522,-38.66652 0,0 14.3741,18.71048 13.00793,40.59907 z"
     fill="#e3eef9"
     id="path1094" />
  <path
     d="m 181.54073,172.99856 c 18.55193,11.69627 25.31859,34.29955 25.31859,34.29955 0,0 -23.312,3.63987 -41.86388,-8.0564 -18.55188,-11.69627 -25.31859,-34.29956 -25.31859,-34.29956 0,0 23.31198,-3.63987 41.86388,8.05641 z"
     fill="#e3eef9"
     id="path1096" />
  <path
     d="m 140.11143,439.85217 c 18.55192,11.69628 25.31858,34.29955 25.31858,34.29955 0,0 -23.31195,3.63987 -41.86388,-8.05641 -18.55193,-11.69628 -25.31859,-34.29955 -25.31859,-34.29955 0,0 23.31196,-3.63986 41.86389,8.05641 z"
     fill="#e3eef9"
     id="path1098" />
  <path
     d="m 238.81073,542.20698 c 18.55193,11.69628 25.31858,34.29956 25.31858,34.29956 0,0 -23.312,3.63987 -41.86388,-8.0564 -18.55188,-11.69627 -25.31858,-34.29956 -25.31858,-34.29956 0,0 23.31193,-3.63986 41.86388,8.0564 z"
     fill="#e3eef9"
     id="path1100" />
  <path
     d="m 517.26417,212.01041 c -5.59474,21.20556 -25.12864,34.439 -25.12864,34.439 0,0 -10.463,-21.14761 -4.86828,-42.35317 5.59472,-21.20556 25.12865,-34.439 25.12865,-34.439 0,0 10.46302,21.14761 4.86827,42.35317 z"
     fill="#e3eef9"
     id="path1102" />
  <path
     d="m 693.74762,228.54489 c -6.57575,20.92215 -26.70446,33.23195 -26.70446,33.23195 0,0 -9.46731,-21.61171 -2.89155,-42.53386 6.57576,-20.92215 26.70445,-33.23195 26.70445,-33.23195 0,0 9.46731,21.61169 2.89156,42.53386 z"
     fill="#e3eef9"
     id="path1104" />
  <path
     d="m 884.49849,461.39864 c -11.91153,18.41446 -34.59208,24.91744 -34.59208,24.91744 0,0 -3.36814,-23.35276 8.54338,-41.76723 11.91152,-18.41447 34.59208,-24.91743 34.59208,-24.91743 0,0 3.36814,23.35276 -8.54338,41.76722 z"
     fill="#e3eef9"
     id="path1106" />
  <path
     d="m 585.0352,611.97294 c 0,0 -1.91331,7.01549 1.91332,9.56657 3.82663,2.55108 5.10217,14.66875 5.10217,14.66875 l -7.65326,21.04646 -20.4087,3.82663 -7.65326,-14.66875 v -21.68423 c 0,0 2.55109,-10.84212 1.91332,-14.031 -0.63777,-3.18888 26.78641,1.27557 26.78641,1.27557 z"
     fill="#ffb9b9"
     id="path1108" />
  <path
     d="m 585.0352,611.97294 c 0,0 -1.91331,7.01549 1.91332,9.56657 3.82663,2.55108 5.10217,14.66875 5.10217,14.66875 l -7.65326,21.04646 -20.4087,3.82663 -7.65326,-14.66875 v -21.68423 c 0,0 2.55109,-10.84212 1.91332,-14.031 -0.63777,-3.18888 26.78641,1.27557 26.78641,1.27557 z"
     opacity="0.2"
     id="path1110" />
  <path
     d="m 605.4439,732.51179 16.58206,3.18886 c 0,0 1.27554,18.49538 0,22.95978 -1.27554,4.4644 -2.55109,9.56658 -1.27554,10.84212 1.27555,1.27554 -5.74,33.8019 -5.10218,35.71521 0.63782,1.91331 1.91332,7.65326 1.27555,11.47989 -0.63777,3.82663 -2.55109,2.55109 -1.27555,6.37772 1.27554,3.82663 2.55109,4.4644 1.27555,7.01549 -1.27554,2.55109 -7.65326,64.41494 -9.56658,65.05271 -1.91332,0.63777 -19.13315,1.27555 -19.13315,0 0,-1.27555 5.73994,-10.84211 3.82663,-13.3932 -1.91331,-2.55109 0.63777,-45.91956 0.63777,-47.83288 0,-1.91332 3.82663,-5.10217 1.91332,-6.37772 -1.91331,-1.27555 -3.18886,-2.55108 -2.55109,-4.4644 0.63777,-1.91332 1.91331,-2.55108 0.63777,-4.4644 -1.27554,-1.91332 -1.27554,-40.17962 -5.73994,-41.45516 0,0 -5.74,28.062 -3.82663,35.07744 1.91337,7.01544 -0.63778,9.56658 -0.63778,9.56658 l 8.92881,7.65326 -12.11766,22.95978 -12.75544,-14.66875 c 0,0 0,-3.82663 -2.55109,-4.4644 -2.55109,-0.63777 -3.82663,-1.27554 -3.82663,-3.18886 0,-1.91332 -4.4644,-14.031 -4.4644,-14.031 0,0 -12.75543,-40.17961 -6.37771,-60.58831 6.37772,-20.4087 8.8347,-19.73317 8.8347,-19.73317 z"
     fill="#2f2e41"
     id="path1112" />
  <polygon
     points="605.444,771.725 615.648,762.797 622.664,770.45 620.113,791.496 614.373,791.496 "
     fill="#ffb9b9"
     id="polygon1114"
     transform="translate(0,101.73393)" />
  <path
     d="m 620.11264,878.56151 c 0,0 -2.55108,5.74 -4.4644,4.4644 -1.91332,-1.2756 -2.54752,-3.18886 -5.41927,-3.18886 -2.87175,0 -5.42285,0.63778 -4.78507,1.91332 0.63778,1.27554 8.291,15.30652 8.291,15.30652 a 18.02808,18.02808 0 0 1 0,15.30652 c -3.82663,8.291 10.20434,12.75543 12.75543,3.82663 2.55109,-8.9288 3.18886,-19.13315 2.55109,-22.95978 -0.63777,-3.82663 3.18886,-23.59755 3.18886,-23.59755 0,0 -10.3031,-4.74977 -13.44258,-4.926 3e-5,10e-6 2.60049,11.30371 1.32494,13.8548 z"
     fill="#2f2e41"
     id="path1116" />
  <path
     d="m 602.89281,892.59249 2.55109,7.65326 c 0,0 0,7.65326 2.55108,11.47989 2.55108,3.82663 5.10218,12.11766 -5.10217,12.75543 -10.20435,0.63777 -14.66875,-3.18886 -14.66875,-3.18886 0,0 1.91331,-5.10217 0,-7.01548 -1.91331,-1.91331 0,-5.73995 0,-5.73995 l 1.91331,-15.30652 z"
     fill="#2f2e41"
     id="path1118" />
  <path
     d="m 585.67297,828.81532 h 5.74 l 28.69972,37.62853 c 0,0 -5.10217,12.11766 -12.75543,13.3932 0,0 -1.27554,-0.63777 -7.01549,-4.4644 -5.73995,-3.82663 -21.04646,-22.95978 -21.04646,-22.95978 l -1.91337,-10.84215 z"
     fill="#2f2e41"
     id="path1120" />
  <circle
     cx="571.64203"
     cy="599.85529"
     r="20.408689"
     fill="#ffb9b9"
     id="circle1122" />
  <path
     d="m 596.51509,626.00392 -6.37772,-2.55109 c 0,0 -0.63777,22.322 -12.75543,22.322 -12.11766,0 -24.8731,-3.18886 -24.8731,-9.56658 0,-6.37772 -10.20434,11.47989 -10.20434,11.47989 0,0 9.56657,63.77717 8.9288,64.41495 -0.63777,0.63778 7.01549,34.43967 7.01549,34.43967 0,0 32.52636,1.27554 43.36847,-3.18886 10.84211,-4.4644 14.031,-12.75544 14.031,-12.75544 l -4.4644,-56.12391 -8.9288,-43.36847 z"
     fill="#e3eef9"
     id="path1124" />
  <path
     d="m 585.67666,620.26397 c 0,0 2.5474,-2.55109 6.374,0 3.8266,2.55109 27.42418,8.291 27.42418,10.20435 v 24.23532 c 0,0 0.63777,3.82663 -1.27554,6.37772 -1.91331,2.55109 -6.37772,12.11766 -3.82663,16.58206 2.55109,4.4644 12.11766,56.12391 10.20435,62.50163 -1.91331,6.37772 -7.01549,12.11766 -7.01549,12.11766 0,0 -27.42419,-58.03722 -27.42419,-74.61929 0,-16.58207 0.26616,-36.92547 0.26616,-36.92547 z"
     fill="#575a89"
     id="path1126" />
  <path
     d="m 613.73493,631.10609 h 5.73994 c 0,0 21.68424,41.45516 21.68424,49.74619 0,8.29103 -14.031,54.2106 -15.30652,54.84837 -1.27552,0.63777 -5.10217,-7.01549 -5.10217,-7.01549 l -3.18886,-25.51087 c 0,0 6.37771,-15.30652 4.4644,-17.85761 -1.91331,-2.55109 -11.47989,-22.322 -11.47989,-22.322 z"
     fill="#575a89"
     id="path1128" />
  <path
     d="m 557.27865,620.26397 c 0,0 -7.32089,5.10217 -8.59644,7.01549 -1.27555,1.91332 -20.40869,12.75543 -21.04646,15.30652 -0.63777,2.55109 14.66875,24.23532 14.66875,24.23532 0,0 6.37771,35.71522 6.37771,38.26631 0,2.55109 2.55109,45.91956 2.55109,45.91956 0,0 26.14864,7.65326 26.14864,3.18886 0,-4.4644 0.63777,-68.24157 -3.18886,-82.27255 -3.82663,-14.03098 -16.91443,-51.65951 -16.91443,-51.65951 z"
     fill="#575a89"
     id="path1130" />
  <path
     d="m 561.43765,752.28272 c 0,0 21.68424,29.3375 10.20434,28.69973 -11.4799,-0.63777 -19.13315,-25.51087 -19.13315,-25.51087 z"
     fill="#ffb9b9"
     id="path1132" />
  <path
     d="m 535.28901,640.67266 -7.65326,1.91332 c 0,0 -6.37772,56.12391 -2.55109,63.77717 3.82663,7.65326 24.23533,57.39945 24.23533,55.48614 0,-1.91331 17.95311,-5.32362 17.26758,-7.12621 -0.68553,-1.80259 -4.51215,-9.45586 -5.78769,-12.00694 -1.27554,-2.55108 -3.18886,-5.74 -2.55109,-8.92881 0.63777,-3.18881 -7.01549,-16.83817 -7.01549,-16.83817 0,0 -1.91331,-8.03492 -2.55109,-11.86155 -0.63778,-3.82663 -6.37771,-45.91957 -6.37771,-45.91957 z"
     fill="#575a89"
     id="path1134" />
  <path
     d="m 591.65233,584.05672 a 5.07147,5.07147 0 0 0 -2.30937,-2.83725 10.86663,10.86663 0 0 0 -0.4876,-3.74431 c -1.27037,-3.535 -4.27984,-3.33236 -7.11936,-4.89523 -1.232,-0.67808 -1.15586,-1.27739 -1.79719,-2.39112 a 9.154,9.154 0 0 0 -3.633,-3.48894 13.51113,13.51113 0 0 0 -5.89982,-2.35585 c -4.529,-0.29055 -8.00135,3.719 -12.33005,5.00579 -1.908,0.56716 -3.95817,0.59054 -5.87622,1.12674 -1.91805,0.5362 -3.83167,1.81652 -4.11753,3.68048 -0.132,0.86053 0.10085,1.74332 -0.033,2.60361 -0.2661,1.70987 -1.85988,2.90739 -2.9268,4.31377 -2.35935,3.11 -2.08949,7.50359 -0.20272,10.88741 a 15.22051,15.22051 0 0 0 1.3605,2.00391 11.79459,11.79459 0 0 0 1.43647,4.57764 c 1.88677,3.38382 5.13345,5.9124 8.525,8.01316 a 17.89627,17.89627 0 0 1 -0.50306,-3.417 2.22989,2.22989 0 0 1 0.15437,-1.13217 c 0.37771,-0.74316 1.37574,-0.9408 2.1367,-1.34781 a 4.98194,4.98194 0 0 0 2.23976,-4.41443 c 0.0456,-1.70576 -0.33848,-3.41434 -0.14861,-5.11123 a 2.72956,2.72956 0 0 1 1.01575,-2.05441 3.68529,3.68529 0 0 1 1.915,-0.42974 c 3.22931,-0.124 6.60342,-0.17985 9.45186,-1.61723 a 14.36252,14.36252 0 0 1 2.94191,-1.40075 c 2.42072,-0.59417 4.89483,1.00282 6.28995,2.95736 1.39512,1.95454 2.09069,4.28046 3.37787,6.29956 1.28718,2.0191 3.51089,3.81966 5.9996,3.58045 a 1.02434,1.02434 0 0 0 0.74324,-0.31108 0.99817,0.99817 0 0 0 0.13692,-0.596 l 0.139,-8.9542 a 12.77455,12.77455 0 0 0 -0.47957,-4.55113 z"
     fill="#2f2e41"
     id="path1136" />
  <ellipse
     cx="930.04639"
     cy="944.8501"
     rx="125.47705"
     ry="8.9394197"
     fill="#3f3d56"
     id="ellipse1138" />
  <path
     d="m 886.12725,923.89872 c 0,0 -10.71231,9.0209 -16.35036,8.45709 -5.63805,-0.56381 -16.35037,-0.56381 -11.83992,5.63806 4.51045,6.20187 23.116,9.58469 31.00931,10.1485 7.89331,0.56381 25.37126,1.12761 24.24365,-2.25522 -1.12761,-3.38283 -2.25523,-19.1694 -6.76567,-20.297 -4.51044,-1.1276 -20.29701,-1.69143 -20.29701,-1.69143 z"
     fill="#575a89"
     id="path1140" />
  <path
     d="m 947.61013,915.04193 c 0,0 -7.8937,11.568 -13.4759,12.5402 -5.5821,0.9722 -15.90032,3.85121 -9.88899,8.61268 6.01129,4.76147 24.84149,3.01947 32.59589,1.44116 7.7544,-1.57831 24.7409,-5.73258 22.7456,-8.6879 -1.9953,-2.95532 -7.3242,-17.858 -11.9717,-17.73192 -4.6476,0.12608 -20.0049,3.82578 -20.0049,3.82578 z"
     fill="#575a89"
     id="path1142" />
  <path
     d="m 879.85214,749.60319 c 0,0 -7.25623,49.69448 -5.56481,58.71537 1.69142,9.02089 2.819,23.116 2.819,23.116 0,0 -1.12761,11.83992 0,17.478 1.12761,5.63808 7.89328,59.1996 7.89328,60.32722 0,1.12762 -1.12761,4.51044 0,7.32947 1.12761,2.81903 3.38283,0.56381 0,5.07425 -3.38283,4.51044 -1.12761,5.63806 -0.56381,5.63806 0.5638,0 22.55223,2.25522 23.67984,0 1.12761,-2.25522 -0.5638,-2.819 0,-5.63806 0.5638,-2.81906 1.12762,-3.38283 2.25523,-3.94664 1.12761,-0.56381 3.38283,0.56381 1.69141,-2.25522 -1.69142,-2.81903 -5.63805,-6.20186 -4.51044,-7.89328 1.12761,-1.69142 -0.56381,-14.09514 -0.56381,-14.09514 0,0 -1.12761,-27.62648 -1.69141,-44.54066 -0.5638,-16.91418 5.07425,-34.39215 5.07425,-34.39215 a 64.50785,64.50785 0 0 0 14.659,37.775 c 14.65896,17.478 21.98846,50.17871 21.98846,50.17871 0,0 3.3828,5.07425 1.6914,9.58469 -1.6914,4.51044 -6.7657,1.69142 -1.6914,4.51045 5.0742,2.81903 22.5522,-1.12761 24.2436,-2.819 1.6914,-1.69139 -2.2552,-3.94664 -1.1276,-8.45708 1.1276,-4.51044 5.6381,-3.38284 1.6914,-5.63806 -3.9466,-2.25522 -5.0742,-1.69142 -5.0742,-3.94664 0,-2.25522 -10.1485,-51.30632 -25.9351,-65.40147 l -1.1276,-51.30632 c 0,0 14.0951,-36.08356 -0.5638,-39.4664 -14.65897,-3.38284 -59.27289,10.0689 -59.27289,10.0689 z"
     fill="#2f2e41"
     id="path1144" />
  <path
     d="m 890.07389,616.06081 c 0,0 9.5847,23.67984 7.32948,27.06268 -2.25522,3.38284 27.62648,-11.27612 27.62648,-11.27612 0,0 -9.5847,-23.67984 -9.5847,-26.49887 0,-2.81903 -25.37126,10.71231 -25.37126,10.71231 z"
     fill="#a0616a"
     id="path1146" />
  <circle
     cx="897.12146"
     cy="601.11993"
     r="20.860809"
     fill="#a0616a"
     id="circle1148" />
  <path
     d="m 925.02985,622.26272 c 0,0 -14.659,-1.69142 -21.98843,7.32947 -7.32943,9.02089 -8.45708,11.27611 -8.45708,11.27611 0,0 -17.478,28.19029 -14.09515,42.28543 a 40.78305,40.78305 0 0 1 2.25523,3.94664 c 1.12761,2.25523 1.12761,33.82835 0,38.9026 -1.12761,5.07425 -2.25523,6.76567 -1.12761,14.09514 1.12762,7.32947 -9.0209,19.16939 2.819,21.42462 11.8399,2.25523 20.86082,0.5638 24.80746,-4.51045 3.94664,-5.07425 0.5638,-8.45708 12.96753,-8.45708 a 29.835,29.835 0 0 0 20.29703,-8.45709 c 0,0 -6.2019,-6.76567 -3.9467,-7.89328 2.2552,-1.12761 0,-3.94664 -1.1276,-6.76567 -1.1276,-2.81903 -1.1276,-5.07425 0.5638,-5.07425 1.6914,0 0.5638,-1.12761 -0.5638,-3.94664 -1.1276,-2.81903 19.7332,-51.30632 7.3295,-65.40146 -12.4037,-14.09514 -18.60559,-21.98843 -18.60559,-21.98843 0,0 2.25529,-8.45712 -1.12759,-6.76566 z"
     fill="#e3eef9"
     id="path1150" />
  <path
     d="m 892.89292,675.82422 v 24.8075 l -18.04178,59.76341 c 0,0 -11.83992,31.00931 0,31.00931 11.83992,0 11.20559,-29.59722 11.20559,-29.59722 l 25.4418,-44.82518 c 0,0 10.1485,-35.51976 9.02089,-38.33879 -1.12761,-2.81903 -27.6265,-2.81903 -27.6265,-2.81903 z"
     fill="#a0616a"
     id="path1152" />
  <path
     d="m 902.47762,639.17685 c 0,0 -16.91417,6.76567 -12.40373,24.80745 4.51044,18.04178 0,17.478 0,17.478 0,0 23.116,-2.25523 30.44551,2.819 l 1.69142,-6.76566 c 0,0 6.76571,-38.9026 -19.7332,-38.33879 z"
     fill="#e3eef9"
     id="path1154" />
  <path
     d="m 889.99825,585.45928 a 8.3233,8.3233 0 0 1 -7.81835,-1.21664 6.29832,6.29832 0 0 1 -1.77652,-7.43529 c 1.07954,-2.11867 3.38862,-3.281 5.60284,-4.14784 a 52.07494,52.07494 0 0 1 15.26061,-3.44579 c 2.49409,-0.17738 5.11352,-0.14928 7.33924,0.99008 1.10128,0.56374 2.0578,1.37737 3.14849,1.96134 2.00551,1.07378 4.33928,1.31252 6.50663,2.00363 a 16.286,16.286 0 0 1 9.95284,9.14876 19.62412,19.62412 0 0 1 1.226,4.54149 25.2961,25.2961 0 0 1 -1.3156,12.66327 c -2.40334,6.39891 -7.444,11.99316 -7.72846,18.82259 -3.08523,-2.23834 -4.22927,-6.27842 -6.70163,-9.17948 a 12.48588,12.48588 0 0 0 -7.12621,-4.13344 3.96909,3.96909 0 0 1 -2.12417,-0.77452 3.41973,3.41973 0 0 1 -0.77575,-1.80982 l -2.111,-9.96715 c -0.42962,-2.02845 -0.97254,-4.24 -2.63979,-5.47267 a 7.98792,7.98792 0 0 0 -3.44066,-1.21215 53.97319,53.97319 0 0 0 -8.81411,-0.80365"
     fill="#2f2e41"
     id="path1156" />
</svg>
