<?xml version="1.0" encoding="UTF-8" standalone="no"?>
<svg
   xmlns:dc="http://purl.org/dc/elements/1.1/"
   xmlns:cc="http://creativecommons.org/ns#"
   xmlns:rdf="http://www.w3.org/1999/02/22-rdf-syntax-ns#"
   xmlns:svg="http://www.w3.org/2000/svg"
   xmlns="http://www.w3.org/2000/svg"
   xmlns:sodipodi="http://sodipodi.sourceforge.net/DTD/sodipodi-0.dtd"
   xmlns:inkscape="http://www.inkscape.org/namespaces/inkscape"
   version="1.1"
   id="Capa_1"
   x="0px"
   y="0px"
   width="512"
   height="512"
   viewBox="0 0 512.00001 512.00001"
   xml:space="preserve"
   sodipodi:docname="full.svg"
   inkscape:version="1.0.2 (e86c870879, 2021-01-15)"><metadata
   id="metadata47"><rdf:RDF><cc:Work
       rdf:about=""><dc:format>image/svg+xml</dc:format><dc:type
         rdf:resource="http://purl.org/dc/dcmitype/StillImage" /><dc:title></dc:title></cc:Work></rdf:RDF></metadata><defs
   id="defs45">
	

		
		
		
	</defs><sodipodi:namedview
   pagecolor="#ff6fff"
   bordercolor="#666666"
   borderopacity="1"
   objecttolerance="10"
   gridtolerance="10"
   guidetolerance="10"
   inkscape:pageopacity="0"
   inkscape:pageshadow="2"
   inkscape:window-width="1280"
   inkscape:window-height="960"
   id="namedview43"
   showgrid="false"
   showguides="true"
   inkscape:guide-bbox="true"
   inkscape:zoom="1.4311354"
   inkscape:cx="176.51513"
   inkscape:cy="279.67949"
   inkscape:window-x="3286"
   inkscape:window-y="0"
   inkscape:window-maximized="1"
   inkscape:current-layer="Capa_1"
   inkscape:document-rotation="0"><sodipodi:guide
     position="256,225.751"
     orientation="1,0"
     id="guide125" /></sodipodi:namedview>
<polygon
   points="257.336,87.897 191.49,0 125.645,87.896 191.491,118.328 "
   id="polygon2"
   transform="translate(64.509)"
   style="fill:#d40000;stroke:#ffffff;stroke-opacity:1;stroke-width:10;stroke-miterlimit:4;stroke-dasharray:none" /><polygon
   points="112.745,115.116 60.115,185.372 191.491,251.631 322.867,185.372 270.236,115.116 191.491,151.509 "
   id="polygon4"
   transform="translate(64.509)"
   style="fill:#999999" /><polygon
   points="1.491,273.629 191.49,382.982 381.491,273.629 336.252,213.24 191.491,286.249 46.73,213.24 "
   id="polygon6"
   transform="translate(64.509)" /><polygon
   points="1.491,273.629 191.49,382.982 381.491,273.629 336.252,213.24 191.491,286.249 46.73,213.24 "
   id="polygon49"
   transform="translate(64.509)"
   style="fill:#808080" /><g
   id="g66"
   style="opacity:1;fill:#666666"
   transform="translate(320.55943,151.31901)"><path
     style="color:#000000;font-style:normal;font-variant:normal;font-weight:normal;font-stretch:normal;font-size:medium;line-height:normal;font-family:sans-serif;font-variant-ligatures:normal;font-variant-position:normal;font-variant-caps:normal;font-variant-numeric:normal;font-variant-alternates:normal;font-variant-east-asian:normal;font-feature-settings:normal;font-variation-settings:normal;text-indent:0;text-align:start;text-decoration:none;text-decoration-line:none;text-decoration-style:solid;text-decoration-color:#000000;letter-spacing:normal;word-spacing:normal;text-transform:none;writing-mode:lr-tb;direction:ltr;text-orientation:mixed;dominant-baseline:auto;baseline-shift:baseline;text-anchor:start;white-space:normal;shape-padding:0;shape-margin:0;inline-size:0;clip-rule:nonzero;display:inline;overflow:visible;visibility:visible;isolation:auto;mix-blend-mode:normal;color-interpolation:sRGB;color-interpolation-filters:linearRGB;solid-color:#000000;solid-opacity:1;vector-effect:none;fill:#666666;fill-opacity:1;fill-rule:nonzero;stroke:none;stroke-width:0.993746;stroke-linecap:butt;stroke-linejoin:miter;stroke-miterlimit:4;stroke-dasharray:none;stroke-dashoffset:0;stroke-opacity:1;color-rendering:auto;image-rendering:auto;shape-rendering:auto;text-rendering:auto;enable-background:accumulate;stop-color:#000000;stop-opacity:1"
     d="M -273.91408,150.04262 -309.10174,200.8431 -64.559435,348.8996 186.93038,196.86418 145.26867,150.04262 -64.559435,268.35123 Z"
     id="path68"
     sodipodi:nodetypes="ccccccc" /></g>
<g
   id="g12"
   transform="translate(64.509,64.509)">
</g>
<g
   id="g14"
   transform="translate(64.509,64.509)">
</g>
<g
   id="g16"
   transform="translate(64.509,64.509)">
</g>
<g
   id="g18"
   transform="translate(64.509,64.509)">
</g>
<g
   id="g20"
   transform="translate(64.509,64.509)">
</g>
<g
   id="g22"
   transform="translate(64.509,64.509)">
</g>
<g
   id="g24"
   transform="translate(64.509,64.509)">
</g>
<g
   id="g26"
   transform="translate(64.509,64.509)">
</g>
<g
   id="g28"
   transform="translate(64.509,64.509)">
</g>
<g
   id="g30"
   transform="translate(64.509,64.509)">
</g>
<g
   id="g32"
   transform="translate(64.509,64.509)">
</g>
<g
   id="g34"
   transform="translate(64.509,64.509)">
</g>
<g
   id="g36"
   transform="translate(64.509,64.509)">
</g>
<g
   id="g38"
   transform="translate(64.509,64.509)">
</g>
<g
   id="g40"
   transform="translate(64.509,64.509)">
</g>
<path
   style="fill:#00aa44;stroke:#ffffff;stroke-width:13.8232;paint-order:markers stroke fill;fill-opacity:1"
   d="M 190.53978,218.25583 125.26534,185.25212 150.90431,150.876 c 14.10143,-18.90686 25.8502,-34.58734 26.10836,-34.84551 0.25817,-0.25817 18.15333,7.70973 39.76703,17.70644 l 39.29764,18.17584 39.13531,-18.11618 c 31.34704,-14.5109 39.34597,-17.89889 40.19384,-17.02431 0.58219,0.60052 12.35451,16.23 26.1607,34.73217 l 25.10218,33.64031 -16.61449,8.54978 c -13.49333,6.94365 -112.26978,56.75027 -113.80869,57.38643 -0.23758,0.0982 -29.80547,-14.6731 -65.70641,-32.82514 z"
   id="path851" /><path
   style="fill:#00aa44;fill-opacity:1;stroke:#ffffff;stroke-width:13.8232;paint-order:markers stroke fill"
   d="m 254.30231,382.00481 c -0.83155,-0.1821 -1.51191,-0.6662 -1.51191,-1.07578 0,-0.40957 -1.36072,-1.23672 -3.02382,-1.8381 -1.6631,-0.60139 -3.02382,-1.37396 -3.02382,-1.71682 0,-0.34286 -1.36072,-1.07247 -3.02382,-1.62134 -1.6631,-0.54888 -3.02382,-1.31854 -3.02382,-1.71039 0,-0.39183 -1.06914,-1.14791 -2.37586,-1.68017 -2.99972,-1.22185 -7.14448,-3.62753 -8.66907,-5.03164 -0.64415,-0.59325 -2.11594,-1.31576 -3.27064,-1.60557 -1.1547,-0.28982 -2.09945,-0.84839 -2.09945,-1.2413 0,-0.39291 -1.36072,-1.20641 -3.02382,-1.80779 -1.6631,-0.60139 -3.02382,-1.37396 -3.02382,-1.71683 0,-0.34285 -1.36072,-1.07246 -3.02382,-1.62133 -1.6631,-0.54888 -3.02382,-1.31854 -3.02382,-1.71039 0,-0.39183 -1.06914,-1.15453 -2.37586,-1.69488 -1.30672,-0.54034 -3.93097,-1.93138 -5.83165,-3.09119 -1.90069,-1.15982 -4.42774,-2.59791 -5.61567,-3.19576 -1.18793,-0.59784 -2.67303,-1.57691 -3.30022,-2.17571 -0.62719,-0.59878 -2.08511,-1.32583 -3.23981,-1.61564 -1.1547,-0.28981 -2.09945,-0.84839 -2.09945,-1.2413 0,-0.3929 -1.36072,-1.2064 -3.02382,-1.80779 -1.6631,-0.60139 -3.02382,-1.36608 -3.02382,-1.6993 0,-0.33323 -1.06914,-1.04798 -2.37586,-1.58833 -1.30672,-0.54034 -3.93097,-1.93138 -5.83165,-3.0912 -1.90069,-1.15981 -4.42774,-2.5979 -5.61567,-3.19575 -1.18793,-0.59784 -2.67303,-1.57691 -3.30022,-2.17571 -0.62719,-0.59878 -2.08511,-1.32583 -3.23981,-1.61564 -1.1547,-0.28981 -2.09945,-0.84839 -2.09945,-1.2413 0,-0.3929 -1.36072,-1.20641 -3.02382,-1.80779 -1.6631,-0.60139 -3.02382,-1.37396 -3.02382,-1.71682 0,-0.34286 -1.36072,-1.07247 -3.02382,-1.62134 -1.6631,-0.54888 -3.02382,-1.31854 -3.02382,-1.71039 0,-0.39183 -1.06914,-1.14791 -2.37586,-1.68017 -2.99973,-1.22185 -7.14448,-3.62753 -8.66907,-5.03164 -0.64415,-0.59325 -2.11593,-1.31576 -3.27064,-1.60557 -1.1547,-0.28981 -2.09945,-0.84839 -2.09945,-1.2413 0,-0.3929 -1.36072,-1.20641 -3.02382,-1.80779 -1.66311,-0.60139 -3.02382,-1.37396 -3.02382,-1.71682 0,-0.34286 -1.36072,-1.07247 -3.02382,-1.62134 -1.6631,-0.54888 -3.02382,-1.31854 -3.02382,-1.71039 0,-0.39183 -1.06914,-1.14791 -2.37586,-1.68017 -2.99973,-1.22185 -7.14448,-3.62753 -8.66907,-5.03164 -0.64415,-0.59325 -2.11594,-1.31576 -3.27064,-1.60557 -1.1547,-0.28981 -2.09946,-0.8264 -2.09946,-1.19241 0,-0.36601 -1.26352,-1.18219 -2.80783,-1.81374 -1.544306,-0.63154 -3.321571,-1.65065 -3.949477,-2.26468 -0.627905,-0.61403 -1.669271,-1.11642 -2.314147,-1.11642 -0.644877,0 -1.704821,-0.53232 -2.355431,-1.18293 -1.302817,-1.30282 -10.956647,-6.90284 -14.707552,-8.5316 -1.306722,-0.56742 -2.375859,-1.28805 -2.375859,-1.6014 0,-0.31335 -1.263524,-1.09293 -2.807832,-1.73241 -5.209461,-2.15716 -7.392131,-5.17485 -4.53573,-6.27096 0.712757,-0.27351 1.295923,-1.05106 1.295923,-1.72789 0,-0.67684 0.583165,-1.45439 1.295922,-1.7279 0.712758,-0.27351 1.295923,-1.05107 1.295923,-1.7279 0,-0.67683 0.583165,-1.45438 1.295923,-1.72789 0.712758,-0.27352 1.295923,-1.05107 1.295923,-1.7279 0,-0.67683 0.583165,-1.45439 1.295922,-1.7279 0.712758,-0.27351 1.295923,-1.05106 1.295923,-1.7279 0,-0.67683 0.583165,-1.45438 1.295923,-1.72789 0.712758,-0.27351 1.295923,-1.05107 1.295923,-1.7279 0,-0.67683 0.583165,-1.45439 1.295923,-1.7279 0.712757,-0.27351 1.295922,-1.05106 1.295922,-1.72789 0,-0.67684 0.583165,-1.45439 1.295923,-1.7279 0.712758,-0.27351 1.295923,-1.05107 1.295923,-1.7279 0,-0.67683 0.583165,-1.45438 1.295923,-1.72789 0.712757,-0.27352 1.295922,-1.05107 1.295922,-1.7279 0,-0.67683 0.583166,-1.45439 1.295923,-1.7279 0.712758,-0.27351 1.295923,-1.09266 1.295923,-1.82033 0,-0.72767 0.400978,-1.32304 0.891063,-1.32304 0.490085,0 1.148691,-0.68036 1.463569,-1.51191 0.314878,-0.83155 0.983035,-1.95024 1.484795,-2.48598 0.501759,-0.53574 1.495455,-1.83553 2.208212,-2.88842 0.712758,-1.05288 1.879088,-2.61936 2.591846,-3.48107 0.712757,-0.8617 1.879086,-2.41681 2.591846,-3.45579 0.71276,-1.03899 1.87909,-2.59409 2.59184,-3.4558 0.71276,-0.8617 1.87909,-2.43418 2.59185,-3.4944 2.44762,-3.6408 5.19518,-5.95039 6.4884,-5.45414 0.70793,0.27166 1.28714,0.86405 1.28714,1.31643 0,0.45237 0.38877,0.58222 0.86395,0.28855 0.47517,-0.29367 0.86394,-0.0993 0.86394,0.43198 0,0.53125 0.38878,0.72564 0.86395,0.43197 0.47517,-0.29367 0.86395,-0.0993 0.86395,0.43197 0,0.53126 0.35557,0.74617 0.79016,0.47758 0.43459,-0.26859 0.92056,-0.1132 1.07994,0.3453 0.15937,0.4585 21.28372,11.20847 46.94299,23.88881 25.65927,12.68035 46.78362,23.39019 46.943,23.79966 0.15938,0.40947 0.64535,0.52473 1.07993,0.25614 0.43459,-0.26859 0.79016,-0.0537 0.79016,0.47758 0,0.53126 0.38878,0.72565 0.86395,0.43197 0.47517,-0.29367 0.86395,-0.0993 0.86395,0.43198 0,0.53126 0.35557,0.74617 0.79016,0.47758 0.43458,-0.26859 0.92055,-0.14201 1.07993,0.2813 0.15938,0.42331 8.37453,4.81009 18.25589,9.7484 l 17.96611,8.97875 45.96608,-22.74395 c 25.28135,-12.50918 46.09647,-23.11639 46.25585,-23.57158 0.15939,-0.45519 0.64536,-0.60787 1.07994,-0.33928 0.43458,0.26859 0.79016,0.0537 0.79016,-0.47758 0,-0.53125 0.38878,-0.72564 0.86395,-0.43197 0.47517,0.29367 0.86395,0.0993 0.86395,-0.43197 0,-0.53126 0.35557,-0.74617 0.79015,-0.47758 0.43459,0.26859 0.92056,0.11471 1.07994,-0.34195 0.35507,-1.01737 46.13818,-23.37103 47.86681,-23.37103 0.67983,0 1.23606,0.59537 1.23606,1.32304 0,0.72767 0.58316,1.54682 1.29592,1.82033 0.71276,0.27351 1.29592,1.05106 1.29592,1.72789 0,0.67684 0.58317,1.45439 1.29593,1.7279 0.71275,0.27351 1.29592,1.05106 1.29592,1.7279 0,0.67683 0.58316,1.45438 1.29592,1.72789 0.71276,0.27351 1.29592,1.05107 1.29592,1.7279 0,0.67683 0.58317,1.45439 1.29593,1.7279 0.71275,0.27351 1.29592,1.05106 1.29592,1.7279 0,0.67683 0.58317,1.45438 1.29592,1.72789 0.71276,0.27351 1.29593,1.05107 1.29593,1.7279 0,0.67683 0.58316,1.45438 1.29592,1.7279 0.71276,0.27351 1.29592,1.05106 1.29592,1.72789 0,0.67684 0.58317,1.45439 1.29592,1.7279 0.71276,0.27351 1.29593,1.05106 1.29593,1.7279 0,0.67683 0.58316,1.45438 1.29592,1.72789 0.71276,0.27351 1.29592,1.05107 1.29592,1.7279 0,0.67683 0.58317,1.45439 1.29592,1.7279 0.71276,0.27351 1.29593,1.05106 1.29593,1.7279 0,0.67683 0.58316,1.45438 1.29592,1.72789 0.71276,0.27351 1.29592,1.05107 1.29592,1.7279 0,0.67683 0.58317,1.45438 1.29593,1.7279 0.71275,0.27351 1.29592,1.05106 1.29592,1.72789 0,0.67684 0.58316,1.45439 1.29592,1.7279 0.71276,0.27351 1.29592,1.05106 1.29592,1.7279 0,0.67683 0.58317,1.45438 1.29593,1.72789 0.71275,0.27351 1.29592,0.85677 1.29592,1.29612 0,0.43936 2.19298,3.71246 4.87327,7.27356 2.68031,3.56111 4.72139,6.59193 4.53573,6.73517 -0.18564,0.14324 -1.60107,0.76348 -3.14537,1.37831 -1.54431,0.61483 -2.80784,1.38138 -2.80784,1.70345 0,0.32206 -1.36072,1.07761 -3.02382,1.679 -1.6631,0.60139 -3.02382,1.45704 -3.02382,1.90145 0,0.44442 -0.52368,0.80803 -1.16373,0.80803 -0.64004,0 -2.06025,0.77756 -3.15601,1.7279 -1.09575,0.95034 -2.48819,1.7279 -3.0943,1.7279 -0.60611,0 -1.61576,0.50238 -2.24366,1.11642 -0.62791,0.61403 -2.40518,1.63314 -3.94948,2.26468 -1.54431,0.63155 -2.80784,1.41178 -2.80784,1.73384 0,0.32207 -1.36072,1.07762 -3.02382,1.67901 -1.6631,0.60138 -3.02382,1.37894 -3.02382,1.7279 0,0.34895 -1.36072,1.12651 -3.02382,1.72789 -1.6631,0.60139 -3.02382,1.37894 -3.02382,1.7279 0,0.34896 -1.36072,1.12651 -3.02382,1.7279 -1.6631,0.60138 -3.02382,1.45704 -3.02382,1.90145 0,0.44442 -0.52368,0.80803 -1.16373,0.80803 -0.64004,0 -2.06025,0.77755 -3.15601,1.72789 -1.09575,0.95035 -2.48819,1.7279 -3.0943,1.7279 -0.60611,0 -1.61576,0.50239 -2.24366,1.11642 -0.62791,0.61404 -2.40518,1.63314 -3.94949,2.26469 -1.5443,0.63154 -2.80783,1.41177 -2.80783,1.73384 0,0.32207 -1.36072,1.07762 -3.02382,1.679 -1.6631,0.60139 -3.02382,1.37894 -3.02382,1.7279 0,0.34896 -1.36072,1.12651 -3.02382,1.7279 -1.6631,0.60138 -3.02382,1.45704 -3.02382,1.90145 0,0.44442 -0.52368,0.80803 -1.16373,0.80803 -0.64004,0 -2.06025,0.77755 -3.15601,1.7279 -1.09575,0.95034 -2.48819,1.72789 -3.0943,1.72789 -0.60611,0 -1.61577,0.50239 -2.24367,1.11642 -0.6279,0.61404 -2.40517,1.63314 -3.94948,2.26469 -1.5443,0.63154 -2.80783,1.41178 -2.80783,1.73384 0,0.32207 -1.36072,1.07762 -3.02382,1.67901 -1.6631,0.60138 -3.02382,1.37893 -3.02382,1.72789 0,0.34896 -1.36072,1.12651 -3.02382,1.7279 -1.6631,0.60139 -3.02382,1.45704 -3.02382,1.90145 0,0.44442 -0.52368,0.80803 -1.16373,0.80803 -0.64004,0 -2.06026,0.77755 -3.15601,1.7279 -1.09575,0.95034 -2.48819,1.72789 -3.0943,1.72789 -0.60611,0 -1.61577,0.50239 -2.24367,1.11642 -0.62791,0.61404 -2.40517,1.63314 -3.94948,2.26469 -1.5443,0.63155 -2.80783,1.41178 -2.80783,1.73384 0,0.32207 -1.36072,1.07762 -3.02382,1.67901 -1.6631,0.60138 -3.02382,1.37894 -3.02382,1.72789 0,0.34896 -1.36072,1.12651 -3.02382,1.7279 -1.6631,0.60139 -3.02382,1.45704 -3.02382,1.90146 0,0.44441 -0.52368,0.80802 -1.16373,0.80802 -0.64005,0 -2.06026,0.77756 -3.15601,1.7279 -1.09575,0.95034 -2.48819,1.7279 -3.0943,1.7279 -0.60611,0 -1.61577,0.50238 -2.24367,1.11642 -0.62791,0.61403 -2.40517,1.63313 -3.94948,2.26468 -1.5443,0.63155 -2.80783,1.41178 -2.80783,1.73384 0,0.32207 -1.36072,1.07762 -3.02382,1.67901 -1.6631,0.60138 -3.02382,1.37894 -3.02382,1.7279 0,0.34895 -1.36072,1.12651 -3.02382,1.72789 -1.6631,0.60139 -3.02382,1.37894 -3.02382,1.7279 0,0.34896 -1.36072,1.12651 -3.02382,1.7279 -1.6631,0.60138 -3.02382,1.41488 -3.02382,1.80779 0,0.39291 -0.97194,0.95831 -2.15987,1.25646 -1.18793,0.29816 -2.15987,0.89331 -2.15987,1.32258 0,0.42927 -1.36072,1.22957 -3.02382,1.77844 -1.6631,0.54888 -3.02382,1.31443 -3.02382,1.70124 0,0.38681 -0.94475,0.9404 -2.09946,1.23022 -1.1547,0.28981 -2.61261,1.01232 -3.2398,1.60557 -1.83444,1.73517 -7.0582,3.80242 -8.6999,3.44291 z"
   id="path853" /><path
   style="fill:#0066ff;fill-opacity:1;stroke:#ffffff;stroke-width:13.8232;paint-order:markers stroke fill"
   d="M 136.58932,427.51676 C 71.490804,388.05165 16.836772,354.91425 15.135919,353.8781 l -3.092461,-1.88392 17.086578,-24.62253 c 9.397618,-13.54239 17.629795,-24.57857 18.293726,-24.52484 0.663931,0.0537 47.783139,26.4131 104.709348,58.57639 56.92622,32.16328 104.03933,58.27258 104.69581,58.02066 0.65648,-0.25191 47.37291,-26.4978 103.81429,-58.3242 56.44138,-31.82641 103.24125,-58.10432 103.99969,-58.39536 1.9796,-0.75965 42.42422,44.53531 40.98893,45.90455 -1.70067,1.6224 -247.637,149.96451 -249.20525,150.31383 -0.84569,0.18837 -52.03548,-30.32199 -119.83726,-71.42592 z"
   id="path855" /><path
   style="fill:#ff6600;fill-opacity:1;stroke:#ffffff;stroke-width:13.8232;paint-order:markers stroke fill"
   d="m 190.80442,217.95093 c -35.52036,-17.89112 -64.67946,-32.59963 -64.798,-32.68558 -0.18146,-0.13159 50.02202,-67.38668 51.12516,-68.48982 0.42953,-0.42953 11.04877,4.28542 50.42408,22.38834 15.34396,7.05443 28.20899,12.82624 28.58896,12.82624 0.37997,0 14.45703,-6.34648 31.28237,-14.10328 34.73695,-16.01439 44.89414,-20.45466 46.79038,-20.45466 1.28103,0 52.20925,67.08781 51.48103,67.81603 -0.6034,0.6034 -129.15529,65.23204 -129.7521,65.23204 -0.30767,0 -29.62152,-14.6382 -65.14188,-32.52931 z"
   id="path857" /></svg>
