<svg id="Layer_1" enable-background="new 0 0 511.428 511.428" height="512" viewBox="0 0 511.428 511.428" width="512" xmlns="http://www.w3.org/2000/svg"><g><circle cx="316.314" cy="304.296" r="36.297"/><ellipse cx="305.066" cy="143.369" rx="36.297" ry="36.297" transform="matrix(.972 -.233 .233 .972 -25.035 75.153)"/><path d="m164.969 338.996s10.429-.082 13.61-.137c12.265-.215 24.641-10.985 24.641-34.563 0-32.271-19.292-34.779-25.205-34.779h-13.17z"/><path d="m59.381 0v423.728l196.333 87.701 196.333-87.701v-423.728zm256.933 237.999c36.556 0 66.297 29.741 66.297 66.297s-29.741 66.297-66.297 66.297-66.297-29.741-66.297-66.297c.001-36.556 29.741-66.297 66.297-66.297zm-77.545-94.63c0-36.556 29.741-66.297 66.297-66.297s66.297 29.741 66.297 66.297-29.741 66.297-66.297 66.297c-36.556-.001-66.297-29.741-66.297-66.297zm-92.703-36.297v-30h86.658v30h-28.444v102.594h-30v-102.594zm31.949 132.445c17.177 0 32.111 7.324 42.052 20.622 8.605 11.511 13.153 26.78 13.153 44.157 0 36.859-22.76 64.197-54.118 64.745-8.051.141-44.029.092-44.029.092l-.284-129.616z"/></g></svg>