<?xml version="1.0" encoding="iso-8859-1"?>
<!-- Generator: Adobe Illustrator 16.0.0, SVG Export Plug-In . SVG Version: 6.00 Build 0)  -->
<!DOCTYPE svg PUBLIC "-//W3C//DTD SVG 1.1//EN" "http://www.w3.org/Graphics/SVG/1.1/DTD/svg11.dtd">
<svg version="1.1" id="Capa_1" xmlns="http://www.w3.org/2000/svg" xmlns:xlink="http://www.w3.org/1999/xlink" x="0px" y="0px"
	 width="498.779px" height="498.779px" viewBox="0 0 498.779 498.779" style="enable-background:new 0 0 498.779 498.779;"
	 xml:space="preserve">
<g>
	<g>
		<path d="M36.953,498.779h91.378c-13.269-14.24-21.451-33.285-21.451-54.289c0-44.041,35.698-79.738,79.737-79.738
			s79.738,35.697,79.738,79.738c0,21.004-8.184,40.049-21.451,54.289h91.377c20.41,0,36.953-16.541,36.953-36.951v-84.463
			c12.969,9.125,28.746,14.535,45.809,14.535c44.039,0,79.736-35.697,79.736-79.738c0-44.039-35.697-79.737-79.736-79.737
			c-17.062,0-32.84,5.404-45.809,14.535v-84.462c0-20.41-16.543-36.953-36.953-36.953H251.82
			c9.125-12.968,14.535-28.746,14.535-45.808C266.355,35.698,230.657,0,186.617,0S106.88,35.698,106.88,79.738
			c0,17.062,5.404,32.84,14.535,45.808H36.953C16.542,125.546,0,142.088,0,162.499v299.33C0,482.238,16.542,498.779,36.953,498.779z
			"/>
	</g>
</g>
<g>
</g>
<g>
</g>
<g>
</g>
<g>
</g>
<g>
</g>
<g>
</g>
<g>
</g>
<g>
</g>
<g>
</g>
<g>
</g>
<g>
</g>
<g>
</g>
<g>
</g>
<g>
</g>
<g>
</g>
</svg>
