<?xml version="1.0" encoding="UTF-8" standalone="no"?>
<svg
   xmlns:dc="http://purl.org/dc/elements/1.1/"
   xmlns:cc="http://creativecommons.org/ns#"
   xmlns:rdf="http://www.w3.org/1999/02/22-rdf-syntax-ns#"
   xmlns:svg="http://www.w3.org/2000/svg"
   xmlns="http://www.w3.org/2000/svg"
   xmlns:sodipodi="http://sodipodi.sourceforge.net/DTD/sodipodi-0.dtd"
   xmlns:inkscape="http://www.inkscape.org/namespaces/inkscape"
   version="1.1"
   id="Capa_1"
   x="0px"
   y="0px"
   viewBox="0 0 52 52"
   style="enable-background:new 0 0 52 52;"
   xml:space="preserve"
   width="512px"
   height="512px"
   class=""
   sodipodi:docname="check-circle.svg"
   inkscape:version="1.0.2 (e86c870879, 2021-01-15)"><metadata
   id="metadata15"><rdf:RDF><cc:Work
       rdf:about=""><dc:format>image/svg+xml</dc:format><dc:type
         rdf:resource="http://purl.org/dc/dcmitype/StillImage" /><dc:title></dc:title></cc:Work></rdf:RDF></metadata><defs
   id="defs13" /><sodipodi:namedview
   pagecolor="#ffff00"
   bordercolor="#666666"
   borderopacity="1"
   objecttolerance="10"
   gridtolerance="10"
   guidetolerance="10"
   inkscape:pageopacity="0"
   inkscape:pageshadow="2"
   inkscape:window-width="1366"
   inkscape:window-height="704"
   id="namedview11"
   showgrid="false"
   inkscape:zoom="1.015861"
   inkscape:cx="256.98439"
   inkscape:cy="256"
   inkscape:window-x="0"
   inkscape:window-y="312"
   inkscape:window-maximized="1"
   inkscape:current-layer="Capa_1" /><g
   transform="matrix(0.932065 0 0 0.932065 1.7663 1.7663)"
   id="g8"
   style="stroke:#ffffff;stroke-opacity:1;stroke-width:0.99997217;stroke-miterlimit:4;stroke-dasharray:none"><g
     id="g6"
     style="stroke:#ffffff;stroke-opacity:1;stroke-width:0.99997217;stroke-miterlimit:4;stroke-dasharray:none">
	<path
   d="M26,0C11.664,0,0,11.663,0,26s11.664,26,26,26s26-11.663,26-26S40.336,0,26,0z M26,50C12.767,50,2,39.233,2,26   S12.767,2,26,2s24,10.767,24,24S39.233,50,26,50z"
   data-original="#C17474"
   class="active-path"
   data-old_color="#E41717"
   fill="#FEFEFE"
   id="path2"
   style="stroke:#ffffff;stroke-opacity:1;stroke-width:1.74344064;stroke-miterlimit:4;stroke-dasharray:none" />
	<path
   d="M38.252,15.336l-15.369,17.29l-9.259-7.407c-0.43-0.345-1.061-0.274-1.405,0.156c-0.345,0.432-0.275,1.061,0.156,1.406   l10,8C22.559,34.928,22.78,35,23,35c0.276,0,0.551-0.114,0.748-0.336l16-18c0.367-0.412,0.33-1.045-0.083-1.411   C39.251,14.885,38.62,14.922,38.252,15.336z"
   data-original="#C17474"
   class="active-path"
   data-old_color="#E41717"
   fill="#FEFEFE"
   id="path4"
   style="stroke:#ffffff;stroke-opacity:1;stroke-width:1.74344064;stroke-miterlimit:4;stroke-dasharray:none" />
</g></g> </svg>
