<?xml version="1.0" encoding="UTF-8" standalone="no"?>
<svg
   xmlns:dc="http://purl.org/dc/elements/1.1/"
   xmlns:cc="http://creativecommons.org/ns#"
   xmlns:rdf="http://www.w3.org/1999/02/22-rdf-syntax-ns#"
   xmlns:svg="http://www.w3.org/2000/svg"
   xmlns="http://www.w3.org/2000/svg"
   xmlns:sodipodi="http://sodipodi.sourceforge.net/DTD/sodipodi-0.dtd"
   xmlns:inkscape="http://www.inkscape.org/namespaces/inkscape"
   sodipodi:docname="first-shot-drop.svg"
   inkscape:version="1.0.1 (3bc2e813f5, 2020-09-07)"
   id="svg8"
   version="1.1"
   viewBox="0 0 135.46666 135.46666"
   height="512"
   width="512">
  <defs
     id="defs2" />
  <sodipodi:namedview
     inkscape:document-rotation="0"
     inkscape:window-maximized="1"
     inkscape:window-y="0"
     inkscape:window-x="1366"
     inkscape:window-height="1016"
     inkscape:window-width="1920"
     units="px"
     width="256mm"
     showgrid="false"
     inkscape:current-layer="layer1"
     inkscape:document-units="mm"
     inkscape:cy="243.39895"
     inkscape:cx="297.3536"
     inkscape:zoom="1.4"
     inkscape:pageshadow="2"
     inkscape:pageopacity="0.0"
     borderopacity="1.0"
     bordercolor="#666666"
     pagecolor="#ffffff"
     id="base" />
  <metadata
     id="metadata5">
    <rdf:RDF>
      <cc:Work
         rdf:about="">
        <dc:format>image/svg+xml</dc:format>
        <dc:type
           rdf:resource="http://purl.org/dc/dcmitype/StillImage" />
        <dc:title />
      </cc:Work>
    </rdf:RDF>
  </metadata>
  <g
     transform="translate(0,-161.53335)"
     id="layer1"
     inkscape:groupmode="layer"
     inkscape:label="Layer 1">
    <g
       transform="matrix(0.90714285,0,0,0.90714285,-1.8142857,160.62622)"
       id="g60">
      <path
         style="fill:#976947"
         inkscape:connector-curvature="0"
         d="M 4,44 H 8 V 62 H 4 Z"
         id="path29" />
      <path
         style="fill:#f5cf88"
         inkscape:connector-curvature="0"
         d="m 2,2 h 8 V 44 H 2 Z"
         id="path31" />
      <path
         style="fill:#4d5d7a"
         inkscape:connector-curvature="0"
         d="m 10,37 h 8 v 2 h -8 z"
         id="path33" />
      <path
         style="fill:#4d5d7a"
         inkscape:connector-curvature="0"
         d="M 49.122,38.521 48.861,39 c -0.774,1.419 -1.453,2.883 -2.078,4.37 L 43.414,40 43.707,39.707 42.293,38.293 42,38.586 41.707,38.293 40.293,39.707 40.586,40 38.5,42.086 36.414,40 36.707,39.707 35.293,38.293 35,38.586 34.707,38.293 33.293,39.707 33.586,40 31.5,42.086 29.414,40 29.707,39.707 28.293,38.293 28,38.586 27.707,38.293 26.293,39.707 26.586,40 24.5,42.086 20.707,38.293 20,39 l -0.878,0.479 0.261,0.479 C 23.058,46.695 25,54.312 25,61.985 V 62 l 2,-0.015 c 0,-1.772 -0.116,-3.54 -0.312,-5.297 l 0.019,0.019 1.293,-1.293 2.086,2.086 -2.793,2.793 1.414,1.414 2.793,-2.793 2.793,2.793 L 35,61 l 0.707,0.707 2.793,-2.793 2.793,2.793 1.414,-1.414 -2.793,-2.793 3.832,-3.832 C 43.262,56.413 43,59.201 43,62 l 2,-0.015 c 0,-7.673 1.942,-15.29 5.617,-22.028 l 0.261,-0.479 z M 35,48.414 37.086,50.5 35,52.586 32.914,50.5 Z M 31.5,49.086 29.414,47 31.5,44.914 33.586,47 Z M 36.414,47 38.5,44.914 40.586,47 38.5,49.086 Z M 42,48.414 44.086,50.5 42,52.586 39.914,50.5 Z M 43.414,47 45.5,44.914 l 0.483,0.483 c -0.381,1.035 -0.723,2.082 -1.032,3.14 z M 42,41.414 44.086,43.5 42,45.586 39.914,43.5 Z m -7,0 L 37.086,43.5 35,45.586 32.914,43.5 Z m -7,0 L 30.086,43.5 28,45.586 25.914,43.5 Z M 26.586,47 25.049,48.536 C 24.583,46.94 24.042,45.368 23.413,43.827 Z m -0.241,7.241 C 26.154,53.074 25.926,51.914 25.649,50.764 L 28,48.414 30.086,50.5 Z M 29.414,54 31.5,51.914 33.586,54 31.5,56.086 Z M 35,59.586 32.914,57.5 35,55.414 37.086,57.5 Z M 36.414,54 38.5,51.914 40.586,54 38.5,56.086 Z"
         id="path35" />
      <path
         style="fill:#3d98f7"
         inkscape:connector-curvature="0"
         d="m 18,36 h 34 v 4 H 18 Z"
         id="path37" />
    </g>
    <g
       transform="matrix(0.1873472,0,0,0.1873472,74.319563,200.91837)"
       id="g147">
      <path
         inkscape:connector-curvature="0"
         style="fill:#ffb69e"
         d="m 215.9349,153.48418 -68.88071,-36.39246 c -4.09042,-2.16077 -6.98645,-6.05248 -7.8834,-10.59062 L 124.57896,32.655043 c -1.64251,-8.311571 3.7627,-16.383161 12.07737,-18.023804 8.31157,-1.642514 16.38177,3.764467 18.0238,12.077364 l 13.17463,66.670731 62.41502,32.975896 c 7.49152,3.95775 10.35661,13.23955 6.39843,20.73016 -3.96804,7.50734 -13.25594,10.3499 -20.73331,6.39879 z"
         id="path62" />
      <circle
         style="fill:#f0ab95"
         cx="244.22876"
         cy="65.367592"
         r="35.504002"
         id="circle64" />
      <g
         id="g70">
        <path
           inkscape:connector-curvature="0"
           style="fill:#ffb69e"
           d="m 257.9458,442.41664 -9.205,-109.435 c -0.059,-0.705 -0.082,-1.414 -0.068,-2.121 v -77.52 c 0.225,-11.295 11.131,-20.26 22.401,-20.044 11.295,0.225 18.748,9.564 18.523,20.858 v 76.458 l 9.116,108.376 c 0.947,11.257 -7.411,21.15 -18.669,22.098 -11.232,0.942 -21.15,-7.383 -22.098,-18.67 z"
           id="path66" />
        <path
           inkscape:connector-curvature="0"
           style="fill:#ffb69e"
           d="m 134.06114,402.14963 18.86344,-84.9843 c 0.73249,-3.30428 2.2748,-6.37405 4.48637,-8.93596 l 50.03325,-57.94839 c 7.3834,-8.55052 20.29831,-9.49919 28.85069,-2.11504 8.55053,7.38342 9.49752,20.2998 2.11504,28.85069 l -46.66558,54.04704 -17.74606,79.95027 c -2.44774,11.02869 -13.37333,17.98473 -24.40202,15.53698 -11.02683,-2.44701 -17.9838,-13.37297 -15.53513,-24.40129 z"
           id="path68" />
      </g>
      <path
         inkscape:connector-curvature="0"
         style="fill:#fa870a"
         d="m 289.5968,329.82964 v -75.676 c 0.225,-11.295 -7.227,-20.634 -18.523,-20.858 -11.27,-0.216 -22.175,8.75 -22.401,20.044 v 76.49 z"
         id="path72" />
      <path
         inkscape:connector-curvature="0"
         style="fill:#e37b09"
         d="m 193.64835,329.20728 0.15872,-0.70187 46.94792,-53.80194 c 7.42716,-8.51213 6.54781,-21.43331 -1.96394,-28.86137 -8.51451,-7.42921 -21.43418,-6.54817 -28.86136,1.96394 l -50.33597,57.68563 z"
         id="path74" />
      <circle
         style="fill:#ff640a"
         cx="-64.32856"
         cy="-123.74222"
         r="34.800999"
         id="circle76" />
      <path
         inkscape:connector-curvature="0"
         style="fill:#cd5014"
         d="m -99.181417,-123.74407 c 0,-0.832 0.039,-1.654 0.096,-2.471 h 14.174 c -0.508,-6.731 -3.072,-13.015 -7.439,-18.235 0.997,-1.344 2.087,-2.613 3.262,-3.798 l 0.05,0.057 c 5.336,6.129 8.543,13.905 9.078,21.976 h 13.107 v -32.234 c 0.82,-0.057 1.642,-0.096 2.474,-0.096 0.832,0 1.654,0.04 2.472,0.096 v 32.233 h 13.106 c 0.536,-8.07 3.742,-15.846 9.078,-21.976 l 0.05,-0.058 c 1.176,1.185 2.266,2.454 3.262,3.798 -4.368,5.222 -6.931,11.505 -7.439,18.235 h 14.174 c 0.057,0.817 0.097,1.64 0.097,2.471 0,0.832 -0.039,1.654 -0.097,2.471 h -14.174 c 0.509,6.731 3.072,13.015 7.439,18.235 -0.996,1.344 -2.087,2.613 -3.262,3.798004 l -0.05,-0.058 c -5.336,-6.129004 -8.543,-13.904004 -9.078,-21.975004 h -13.106 v 32.233004 c -0.817,0.057 -1.64,0.097 -2.472,0.097 -0.832,0 -1.654,-0.039 -2.471,-0.097 v -32.231004 h -13.107 c -0.536,8.07 -3.742,15.846 -9.078,21.975004 l -0.05,0.058 c -1.176,-1.185004 -2.266,-2.454004 -3.262,-3.798004 4.368,-5.221 6.931,-11.503 7.439,-18.235 h -14.174 c -0.058,-0.817 -0.099,-1.639 -0.099,-2.471 z"
         id="path78" />
      <path
         inkscape:connector-curvature="0"
         style="fill:#ffa50a"
         d="m 198.8638,276.34064 h 90.732 v -130.176 c 0,-17.59 -14.26,-31.85 -31.85,-31.85 h -27.032 c -17.59,0 -31.85,14.26 -31.85,31.85 z"
         id="path80" />
      <path
         inkscape:connector-curvature="0"
         style="fill:#ffb69e"
         d="m 260.59333,136.14634 c -0.32264,0.15045 -0.65036,0.29003 -0.98719,0.41951 -7.90693,3.04269 -16.78527,-0.90062 -19.82796,-8.80754 L 212.16622,90.070988 152.6937,7.9330327 c -6.58935,-5.3262521 -7.61387,-14.9863461 -2.28629,-21.5752037 5.32716,-6.589764 14.98677,-7.612957 21.57388,-2.286766 l 65.78642,91.449307 c 2.0949,1.693312 3.0045,2.013961 3.97108,4.526915 l 26.67447,36.689705 c 2.91447,7.57281 -0.57762,16.03221 -7.81993,19.40935 z"
         id="path82"
         sodipodi:nodetypes="scccccccccs" />
      <g
         id="g84" />
      <g
         id="g86" />
      <g
         id="g88" />
      <g
         id="g90" />
      <g
         id="g92" />
      <g
         id="g94" />
      <g
         id="g96" />
      <g
         id="g98" />
      <g
         id="g100" />
      <g
         id="g102" />
      <g
         id="g104" />
      <g
         id="g106" />
      <g
         id="g108" />
      <g
         id="g110" />
      <g
         id="g112" />
    </g>
  </g>
</svg>
