<svg id="Layer_1_1_" enable-background="new 0 0 64 64" height="512" viewBox="0 0 64 64" width="512" xmlns="http://www.w3.org/2000/svg"><path d="m51 62h-49v-60h39l10 10z" fill="#50b6cf"/><path d="m51 12h-10v-10z" fill="#3cadc9"/><path d="m51 35c-5 10-30.15985 23.39606-49 23.95081v3.04919h49z" fill="#3cadc9"/><path d="m46 58h2v2h-2z" fill="#223b5a"/><path d="m42 58h2v2h-2z" fill="#223b5a"/><path d="m38 58h2v2h-2z" fill="#223b5a"/><g fill="#ded8d0"><path d="m8 49h8v8h-8z"/><path d="m8 36h8v8h-8z"/><path d="m8 23h8v8h-8z"/><path d="m8 10h8v8h-8z"/></g><path d="m25 38 32-32 4 4-32 32-6 2z" fill="#f5a947"/><path d="m29 42 32-32-1.5-1.5-35 35z" fill="#f09d3a"/><path d="m25 38 4 4-6 2z" fill="#e34e4b"/><path d="m12 16.41406-2.70703-2.70703 1.41406-1.41406 1.29297 1.29297 5.29297-5.29297 1.41406 1.41406z" fill="#223b5a"/><path d="m12 29.41406-2.70703-2.70703 1.41406-1.41406 1.29297 1.29297 5.29297-5.29297 1.41406 1.41406z" fill="#223b5a"/></svg>