<svg id="Capa_1" enable-background="new 0 0 512 512" height="512" viewBox="0 0 512 512" width="512" xmlns="http://www.w3.org/2000/svg"><g><path d="m297.733 131.976h199.267c8.284 0 15-6.716 15-15v-83.468c0-8.284-6.716-15-15-15h-199.267c-8.284 0-15 6.716-15 15v26.734h-159.795c-8.284 0-15 6.716-15 15v110.202h-92.938c-8.284 0-15 6.716-15 15v83.468c0 8.284 6.716 15 15 15h84.633v67.291h-84.633c-8.284 0-15 6.716-15 15v83.468c0 8.284 6.716 15 15 15h199.266c8.284 0 15-6.716 15-15v-26.734h99.165c6.897 31.721 35.178 55.557 68.936 55.557 38.905 0 70.557-31.651 70.557-70.557 0-33.758-23.835-62.039-55.557-68.936v-55.089h84.633c8.284 0 15-6.716 15-15v-83.468c0-8.284-6.716-15-15-15h-199.267c-8.284 0-15 6.716-15 15v83.468c0 8.284 6.716 15 15 15h84.634v55.088c-26.884 5.845-48.091 27.052-53.936 53.936h-99.165v-26.734c0-8.284-6.716-15-15-15h-84.633v-67.291h84.633c8.284 0 15-6.716 15-15v-83.468c0-8.284-6.716-15-15-15h-76.328v-95.201h144.795v26.734c0 8.284 6.716 15 15 15z"/></g></svg>