<?xml version="1.0" encoding="iso-8859-1"?>
<!-- Generator: Adobe Illustrator 19.0.0, SVG Export Plug-In . SVG Version: 6.00 Build 0)  -->
<svg version="1.1" id="Layer_1" xmlns="http://www.w3.org/2000/svg" xmlns:xlink="http://www.w3.org/1999/xlink" x="0px" y="0px"
	 viewBox="0 0 512 512" style="enable-background:new 0 0 512 512;" xml:space="preserve">
<g>
	<g>
		<path d="M128,0H42.667c-17.643,0-32,14.357-32,32v448c0,17.643,14.357,32,32,32H128c17.643,0,32-14.357,32-32V32
			C160,14.357,145.643,0,128,0z M85.333,448c-17.643,0-32-14.357-32-32c0-17.643,14.357-32,32-32c17.643,0,32,14.357,32,32
			C117.333,433.643,102.976,448,85.333,448z M106.667,149.333H64c-5.888,0-10.667-4.779-10.667-10.667S58.112,128,64,128h42.667
			c5.888,0,10.667,4.779,10.667,10.667S112.555,149.333,106.667,149.333z M106.667,106.667H64c-5.888,0-10.667-4.779-10.667-10.667
			S58.112,85.333,64,85.333h42.667c5.888,0,10.667,4.779,10.667,10.667S112.555,106.667,106.667,106.667z M106.667,64H64
			c-5.888,0-10.667-4.779-10.667-10.667S58.112,42.667,64,42.667h42.667c5.888,0,10.667,4.779,10.667,10.667S112.555,64,106.667,64z
			"/>
	</g>
</g>
<g>
	<g>
		<path d="M298.667,0h-85.333c-17.643,0-32,14.357-32,32v448c0,17.643,14.357,32,32,32h85.333c17.643,0,32-14.357,32-32V32
			C330.667,14.357,316.309,0,298.667,0z M256,448c-17.643,0-32-14.357-32-32c0-17.643,14.357-32,32-32s32,14.357,32,32
			C288,433.643,273.643,448,256,448z M277.333,149.333h-42.667c-5.888,0-10.667-4.779-10.667-10.667S228.779,128,234.667,128h42.667
			c5.888,0,10.667,4.779,10.667,10.667S283.221,149.333,277.333,149.333z M277.333,106.667h-42.667
			C228.779,106.667,224,101.888,224,96s4.779-10.667,10.667-10.667h42.667C283.221,85.333,288,90.112,288,96
			S283.221,106.667,277.333,106.667z M277.333,64h-42.667C228.779,64,224,59.221,224,53.333s4.779-10.667,10.667-10.667h42.667
			c5.888,0,10.667,4.779,10.667,10.667S283.221,64,277.333,64z"/>
	</g>
</g>
<g>
	<g>
		<path d="M469.333,0H384c-17.643,0-32,14.357-32,32v448c0,17.643,14.357,32,32,32h85.333c17.643,0,32-14.357,32-32V32
			C501.333,14.357,486.976,0,469.333,0z M426.667,448c-17.643,0-32-14.357-32-32c0-17.643,14.357-32,32-32s32,14.357,32,32
			C458.667,433.643,444.309,448,426.667,448z M448,149.333h-42.667c-5.888,0-10.667-4.779-10.667-10.667S399.445,128,405.333,128
			H448c5.888,0,10.667,4.779,10.667,10.667S453.888,149.333,448,149.333z M448,106.667h-42.667c-5.888,0-10.667-4.779-10.667-10.667
			s4.779-10.667,10.667-10.667H448c5.888,0,10.667,4.779,10.667,10.667S453.888,106.667,448,106.667z M448,64h-42.667
			c-5.888,0-10.667-4.779-10.667-10.667s4.779-10.667,10.667-10.667H448c5.888,0,10.667,4.779,10.667,10.667S453.888,64,448,64z"/>
	</g>
</g>
<g>
</g>
<g>
</g>
<g>
</g>
<g>
</g>
<g>
</g>
<g>
</g>
<g>
</g>
<g>
</g>
<g>
</g>
<g>
</g>
<g>
</g>
<g>
</g>
<g>
</g>
<g>
</g>
<g>
</g>
</svg>
