<?xml version="1.0" encoding="iso-8859-1"?>
<!-- Generator: Adobe Illustrator 16.0.0, SVG Export Plug-In . SVG Version: 6.00 Build 0)  -->
<!DOCTYPE svg PUBLIC "-//W3C//DTD SVG 1.1//EN" "http://www.w3.org/Graphics/SVG/1.1/DTD/svg11.dtd">
<svg version="1.1" id="Capa_1" xmlns="http://www.w3.org/2000/svg" xmlns:xlink="http://www.w3.org/1999/xlink" x="0px" y="0px"
	 width="992.4px" height="992.4px" viewBox="0 0 992.4 992.4" style="enable-background:new 0 0 992.4 992.4;" xml:space="preserve"
	>
<g>
	<circle cx="690.05" cy="794.4" r="98.5"/>
	<circle cx="906.651" cy="920.7" r="71.7"/>
	<path d="M954.55,412.9c0-72.9-51.7-133.7-120.399-147.9c-8.7-1.8-15.301-8.8-16.301-17.6C800.85,108,682.05,0,537.951,0
		c-115.2,0-214.3,69.1-258.1,168.2c-4,9-14,14-23.6,11.6c-15.6-3.9-32-5.9-48.9-5.8c-107.4,0.9-193.3,87.6-193.3,195
		c0,66.2,33,124.7,83.4,159.9c21.4,45.699,67.8,77.4,121.6,77.4c24.7,0,47.8-6.701,67.7-18.301c9.8-5.801,22.5-2.6,28.2,7.301
		C349.651,655.5,414.651,696,489.05,696c58.4,0,111-24.9,147.7-64.801c6.9-7.398,18.1-8.5,26.6-2.898
		c15.801,10.5,34.7,16.6,55.101,16.6c44.399,0,82.1-29.201,94.8-69.4c2.3-7.199,8.4-12.5,15.8-13.801
		C900.35,549.6,954.55,487.6,954.55,412.9z"/>
</g>
<g>
</g>
<g>
</g>
<g>
</g>
<g>
</g>
<g>
</g>
<g>
</g>
<g>
</g>
<g>
</g>
<g>
</g>
<g>
</g>
<g>
</g>
<g>
</g>
<g>
</g>
<g>
</g>
<g>
</g>
</svg>
