<?xml version="1.0" encoding="iso-8859-1"?>
<!-- Generator: Adobe Illustrator 19.0.0, SVG Export Plug-In . SVG Version: 6.00 Build 0)  -->
<svg version="1.1" id="Capa_1" xmlns="http://www.w3.org/2000/svg" xmlns:xlink="http://www.w3.org/1999/xlink" x="0px" y="0px"
	 viewBox="0 0 512 512" style="enable-background:new 0 0 512 512;" xml:space="preserve">
<g>
	<g>
		<path d="M195,0c-24.814,0-45,20.186-45,45c0,24.814,20.186,45,45,45c24.814,0,45-20.186,45-45C240,20.186,219.814,0,195,0z"/>
	</g>
</g>
<g>
	<g>
		<path d="M332,285h-92V165c0-24.814-20.186-45-45-45c-24.814,0-45,20.186-45,45v150c0,16.538,13.462,30,30,30H86.265L60,135
			c0-16.538-13.462-30-30-30c-17.358,0-29.844,14.734-30,30l30,240c0,16.538,13.462,30,30,30v92c0,8.291,6.709,15,15,15
			s15-6.709,15-15v-92h120v92c0,8.291,6.709,15,15,15s15-6.709,15-15v-96.612c8.8-5.237,15-14.431,15-25.388
			c0-16.538-13.462-30-30-30h77v137c0,16.538,13.462,30,30,30c16.538,0,30-13.462,30-30V315C362,298.462,348.538,285,332,285z"/>
	</g>
</g>
<g>
	<g>
		<path d="M407,0c-57.891,0-105,47.109-105,105s47.109,105,105,105s105-47.109,105-105S464.891,0,407,0z M437,120h-30
			c-8.291,0-15-6.709-15-15V75c0-8.291,6.709-15,15-15c8.291,0,15,6.709,15,15v15h15c8.291,0,15,6.709,15,15S445.291,120,437,120z"
			/>
	</g>
</g>
<g>
</g>
<g>
</g>
<g>
</g>
<g>
</g>
<g>
</g>
<g>
</g>
<g>
</g>
<g>
</g>
<g>
</g>
<g>
</g>
<g>
</g>
<g>
</g>
<g>
</g>
<g>
</g>
<g>
</g>
</svg>
