<?xml version="1.0" encoding="iso-8859-1"?>
<!-- Generator: Adobe Illustrator 19.0.0, SVG Export Plug-In . SVG Version: 6.00 Build 0)  -->
<svg version="1.1" id="Layer_1" xmlns="http://www.w3.org/2000/svg" xmlns:xlink="http://www.w3.org/1999/xlink" x="0px" y="0px"
	 viewBox="0 0 512 512" style="enable-background:new 0 0 512 512;" xml:space="preserve">
<polygon style="fill:#E2E2E2;" points="338.848,0 445.872,107.024 445.872,512 59.232,512 59.232,0 "/>
<polygon style="fill:#999999;" points="445.872,107.024 338.832,107.024 338.832,0 "/>
<polygon style="fill:#333333;" points="407.52,422.896 22.048,422.896 22.048,293.008 489.952,293.008 "/>
<polygon style="fill:#999999;" points="59.232,460.08 59.232,422.896 22.048,422.896 "/>
<g>
	<path style="fill:#FFFFFF;" d="M159.472,332.768v19.248h35.008v10.432h-35.008v21.104h37.248v11.92h-51.408v-74.656h51.056v11.936
		h-36.896V332.768z"/>
	<path style="fill:#FFFFFF;" d="M207.264,395.488v-74.656h30.08h3.712c10.096,0,16.912,1.76,20.416,5.28s5.28,10.32,5.28,20.368
		c0,9.984-1.664,16.624-5.024,19.904s-10.144,4.928-20.336,4.928l-3.28,0.048h-16.688v24.128H207.264z M221.424,359.456h16.144
		c6.416,0,10.48-0.752,12.224-2.224c1.728-1.488,2.608-4.976,2.608-10.464c0-6.32-0.736-10.224-2.176-11.728
		s-5.184-2.272-11.232-2.272h-17.568L221.424,359.456L221.424,359.456z"/>
	<path style="fill:#FFFFFF;" d="M331.2,342.608h-13.84c-0.08-0.704-0.112-1.216-0.112-1.536c-0.336-4.208-1.264-6.832-2.8-7.904
		s-5.12-1.632-10.816-1.632c-6.72,0-11.088,0.624-13.152,1.872c-2.064,1.232-3.088,3.84-3.088,7.808
		c0,4.704,0.848,7.536,2.512,8.464c1.664,0.96,7.216,1.68,16.624,2.192c11.12,0.624,18.32,2.224,21.584,4.768
		s4.896,7.856,4.896,15.92c0,9.904-1.92,16.32-5.728,19.216c-3.84,2.896-12.288,4.336-25.328,4.336
		c-11.728,0-19.536-1.424-23.376-4.272s-5.76-8.608-5.76-17.28l-0.064-2.736h13.776l0.064,1.6c0,5.2,0.912,8.384,2.72,9.568
		c1.824,1.168,6.816,1.744,14.944,1.744c6.336,0,10.384-0.672,12.144-2.032c1.744-1.344,2.624-4.448,2.624-9.344
		c0-3.616-0.672-6-2-7.184s-4.208-1.904-8.608-2.16l-7.808-0.496c-11.808-0.688-19.376-2.336-22.656-4.928
		s-4.912-8.144-4.912-16.672c0-8.72,1.968-14.528,5.92-17.424c3.952-2.912,11.856-4.352,23.696-4.352c11.232,0,18.8,1.344,22.704,4
		s5.856,7.856,5.856,15.6v2.864H331.2z"/>
</g>
<g>
</g>
<g>
</g>
<g>
</g>
<g>
</g>
<g>
</g>
<g>
</g>
<g>
</g>
<g>
</g>
<g>
</g>
<g>
</g>
<g>
</g>
<g>
</g>
<g>
</g>
<g>
</g>
<g>
</g>
</svg>
