<?xml version="1.0" encoding="iso-8859-1"?>
<!-- Generator: Adobe Illustrator 19.0.0, SVG Export Plug-In . SVG Version: 6.00 Build 0)  -->
<svg version="1.1" id="Layer_1" xmlns="http://www.w3.org/2000/svg" xmlns:xlink="http://www.w3.org/1999/xlink" x="0px" y="0px"
	 viewBox="0 0 512 512" style="enable-background:new 0 0 512 512;" xml:space="preserve">
<polygon style="fill:#E2E2E2;" points="338.856,0 445.88,107.024 445.88,512 59.24,512 59.24,0 "/>
<polygon style="fill:#999999;" points="445.88,107.024 338.84,107.024 338.84,0 "/>
<polygon style="fill:#333333;" points="407.528,422.896 22.04,422.896 22.04,293.024 489.96,293.024 "/>
<polygon style="fill:#999999;" points="59.24,460.096 59.24,422.896 22.04,422.896 "/>
<g>
	<path style="fill:#FFFFFF;" d="M157.656,333.008v19.248h35.008v10.432h-35.008v21.104h37.248v11.92h-51.408v-74.656h51.072v11.936
		h-36.912V333.008z"/>
	<path style="fill:#FFFFFF;" d="M268.344,321.056l-22.416,36.16l23.904,38.496h-16.624l-10.72-17.936
		c-1.648-2.768-3.216-5.584-4.704-8.416l-1.536-2.96l-1.6-2.912h-0.208l-1.584,2.976c-1.904,3.568-4.048,7.344-6.448,11.312
		l-10.784,17.936h-17.056l24.496-38.496l-22.752-36.16h16.912l9.952,16.624c1.568,2.624,3.04,5.216,4.416,7.776l1.376,2.624
		l1.36,2.624h0.224c0.624-1.168,1.072-2.048,1.376-2.624l1.36-2.576c1.168-2.272,2.624-4.848,4.368-7.76l9.952-16.688
		L268.344,321.056L268.344,321.056z"/>
	<path style="fill:#FFFFFF;" d="M288.68,333.008v19.248h35.008v10.432H288.68v21.104h37.248v11.92H274.52v-74.656h51.056v11.936
		H288.68V333.008z"/>
</g>
<g>
</g>
<g>
</g>
<g>
</g>
<g>
</g>
<g>
</g>
<g>
</g>
<g>
</g>
<g>
</g>
<g>
</g>
<g>
</g>
<g>
</g>
<g>
</g>
<g>
</g>
<g>
</g>
<g>
</g>
</svg>
