<?xml version="1.0" encoding="iso-8859-1"?>
<!-- Generator: Adobe Illustrator 19.0.0, SVG Export Plug-In . SVG Version: 6.00 Build 0)  -->
<svg version="1.1" id="Layer_1" xmlns="http://www.w3.org/2000/svg" xmlns:xlink="http://www.w3.org/1999/xlink" x="0px" y="0px"
	 viewBox="0 0 512 512" style="enable-background:new 0 0 512 512;" xml:space="preserve">
<polygon style="fill:#E2E2E2;" points="338.856,0 445.88,107.024 445.88,512 59.24,512 59.24,0 "/>
<polygon style="fill:#999999;" points="445.88,107.024 338.84,107.024 338.84,0 "/>
<polygon style="fill:#333333;" points="407.528,422.896 22.04,422.896 22.04,293.008 489.96,293.008 "/>
<polygon style="fill:#999999;" points="59.24,460.08 59.24,422.896 22.04,422.896 "/>
<g>
	<path style="fill:#FFFFFF;" d="M210.984,320.8v74.656h-14.176v-40.688c0-3.248,0.096-6.928,0.288-11.04l0.272-5.584l0.288-5.536
		h-0.432l-1.696,5.2l-1.648,5.2c-1.536,4.656-2.72,8.112-3.552,10.336l-16.4,42.112H161l-16.576-41.776
		c-0.912-2.304-2.112-5.744-3.616-10.336l-1.68-5.184l-1.696-5.136h-0.448l0.288,5.424l0.272,5.472
		c0.224,4.224,0.336,7.84,0.336,10.88v40.688h-14.176V320.8h23.072l13.344,34.56c0.912,2.4,2.112,5.856,3.616,10.336l1.648,5.184
		l1.68,5.152h0.496l1.584-5.152l1.648-5.12c1.36-4.336,2.512-7.776,3.504-10.288l13.12-34.688h23.568V320.8z"/>
	<path style="fill:#FFFFFF;" d="M224.12,395.456V320.8h30.08h3.712c10.096,0,16.912,1.76,20.416,5.28s5.28,10.32,5.28,20.368
		c0,9.984-1.68,16.624-5.024,19.904c-3.36,3.28-10.144,4.928-20.336,4.928l-3.28,0.048H238.28v24.128H224.12z M238.28,359.44h16.144
		c6.4,0,10.48-0.752,12.224-2.224c1.728-1.488,2.592-4.976,2.592-10.464c0-6.32-0.72-10.224-2.16-11.728s-5.184-2.272-11.232-2.272
		H238.28V359.44z"/>
	<path style="fill:#FFFFFF;" d="M315.016,362.8v-10.992l2.4,0.048c7.936,0,12.784-0.464,14.496-1.408
		c1.744-0.96,2.592-3.648,2.592-8.048c0-4.928-0.784-7.952-2.32-9.104c-1.568-1.136-5.664-1.712-12.288-1.712
		c-6,0-9.808,0.624-11.376,1.888c-1.568,1.248-2.336,4.336-2.336,9.2v2.192H292.52v-2.784c0-8.72,1.84-14.528,5.536-17.472
		s10.976-4.4,21.808-4.4c10.944,0,18.464,1.392,22.528,4.16c4.096,2.768,6.128,7.888,6.128,15.376c0,10.32-4.128,16.112-12.4,17.376
		v0.384c8.992,0.992,13.504,6.416,13.504,16.304c0,8.784-1.968,14.688-5.936,17.712c-4,3.024-11.744,4.528-23.248,4.528
		c-11.312,0-19.008-1.504-23.056-4.528s-6.096-8.752-6.096-17.168l0.064-4.16h13.84c0.096,1.648,0.16,2.624,0.16,2.96
		c0,5.136,0.848,8.336,2.592,9.632c1.712,1.28,6.064,1.904,13.024,1.904c6.368,0,10.432-0.688,12.128-2.064
		c1.68-1.392,2.528-4.72,2.528-9.968c0-4-0.784-6.64-2.32-7.92c-1.568-1.28-4.784-1.92-9.664-1.92h-6.192h-2.432V362.8z"/>
</g>
<g>
</g>
<g>
</g>
<g>
</g>
<g>
</g>
<g>
</g>
<g>
</g>
<g>
</g>
<g>
</g>
<g>
</g>
<g>
</g>
<g>
</g>
<g>
</g>
<g>
</g>
<g>
</g>
<g>
</g>
</svg>
