<?xml version="1.0" encoding="iso-8859-1"?>
<!-- Generator: Adobe Illustrator 19.0.0, SVG Export Plug-In . SVG Version: 6.00 Build 0)  -->
<svg version="1.1" id="Layer_1" xmlns="http://www.w3.org/2000/svg" xmlns:xlink="http://www.w3.org/1999/xlink" x="0px" y="0px"
	 viewBox="0 0 512 512" style="enable-background:new 0 0 512 512;" xml:space="preserve">
<polygon style="fill:#E2E2E2;" points="338.856,0 445.88,107.024 445.88,512 59.24,512 59.24,0 "/>
<polygon style="fill:#999999;" points="445.88,107.024 338.84,107.024 338.84,0 "/>
<polygon style="fill:#333333;" points="407.528,422.896 22.04,422.896 22.04,293.008 489.96,293.008 "/>
<polygon style="fill:#999999;" points="59.24,460.08 59.24,422.896 22.04,422.896 "/>
<g>
	<path style="fill:#FFFFFF;" d="M209.768,320.8v74.656h-14.16v-40.688c0-3.248,0.096-6.928,0.272-11.04l0.272-5.584l0.272-5.536
		h-0.432l-1.696,5.2l-1.648,5.2c-1.536,4.656-2.72,8.112-3.552,10.336l-16.4,42.112h-12.912l-16.576-41.776
		c-0.912-2.304-2.112-5.744-3.616-10.336l-1.696-5.184l-1.696-5.136h-0.416l0.272,5.424l0.272,5.472
		c0.224,4.224,0.336,7.84,0.336,10.88v40.688h-14.176V320.8h23.072l13.344,34.56c0.912,2.4,2.112,5.856,3.616,10.336l1.648,5.184
		l1.696,5.152h0.496l1.584-5.152l1.648-5.12c1.344-4.336,2.512-7.776,3.504-10.288l13.12-34.688h23.552V320.8z"/>
	<path style="fill:#FFFFFF;" d="M222.904,395.456V320.8h30.08h3.712c10.112,0,16.912,1.76,20.416,5.28
		c3.536,3.52,5.28,10.32,5.28,20.368c0,9.984-1.664,16.624-5.024,19.904c-3.344,3.28-10.128,4.928-20.336,4.928l-3.28,0.048H237.08
		v24.128H222.904z M237.064,359.424h16.128c6.416,0,10.496-0.752,12.224-2.224c1.728-1.488,2.608-4.976,2.608-10.464
		c0-6.32-0.72-10.224-2.176-11.728c-1.44-1.52-5.168-2.272-11.232-2.272h-17.552V359.424z"/>
	<path style="fill:#FFFFFF;" d="M342.248,320.8v47.68h8.56v10.944h-8.56v16.032h-14.192v-16.032h-40.304V363.52l32.608-42.72
		H342.248z M328.056,368.48v-36.96h-0.432l-28.272,36.976h28.704V368.48z"/>
</g>
<g>
</g>
<g>
</g>
<g>
</g>
<g>
</g>
<g>
</g>
<g>
</g>
<g>
</g>
<g>
</g>
<g>
</g>
<g>
</g>
<g>
</g>
<g>
</g>
<g>
</g>
<g>
</g>
<g>
</g>
</svg>
