<?xml version="1.0" encoding="iso-8859-1"?>
<!-- Generator: Adobe Illustrator 19.0.0, SVG Export Plug-In . SVG Version: 6.00 Build 0)  -->
<svg version="1.1" id="Layer_1" xmlns="http://www.w3.org/2000/svg" xmlns:xlink="http://www.w3.org/1999/xlink" x="0px" y="0px"
	 viewBox="0 0 512 512" style="enable-background:new 0 0 512 512;" xml:space="preserve">
<polygon style="fill:#E2E2E2;" points="338.856,0 445.88,107.024 445.88,512 59.24,512 59.24,0 "/>
<polygon style="fill:#999999;" points="445.88,107.024 338.84,107.024 338.84,0 "/>
<polygon style="fill:#333333;" points="407.528,422.896 22.04,422.896 22.04,293.008 489.96,293.008 "/>
<polygon style="fill:#999999;" points="59.24,460.08 59.24,422.896 22.04,422.896 "/>
<g>
	<path style="fill:#FFFFFF;" d="M144.968,395.456V320.8h30.08h3.712c10.096,0,16.912,1.76,20.416,5.28
		c3.52,3.52,5.28,10.32,5.28,20.368c0,9.984-1.68,16.624-5.024,19.904c-3.344,3.28-10.128,4.928-20.336,4.928l-3.28,0.048h-16.672
		v24.128H144.968z M159.128,359.424h16.128c6.416,0,10.496-0.752,12.224-2.224c1.728-1.488,2.608-4.976,2.608-10.464
		c0-6.32-0.72-10.224-2.16-11.728c-1.44-1.52-5.184-2.272-11.232-2.272h-17.552v26.688H159.128z"/>
	<path style="fill:#FFFFFF;" d="M213.496,395.456V320.8h36.688c10.432,0,17.728,2.288,21.904,6.848s6.272,12.544,6.272,23.952
		c0,18.624-1.68,30.592-5.024,35.904c-3.36,5.296-10.928,7.952-22.704,7.952L213.496,395.456L213.496,395.456z M227.656,383.536
		h20.176c6.784,0,11.152-1.568,13.152-4.672c1.984-3.12,2.976-10,2.976-20.656c0-11.008-0.896-18-2.672-20.992
		c-1.792-2.992-5.984-4.464-12.576-4.464h-21.056L227.656,383.536L227.656,383.536z"/>
	<path style="fill:#FFFFFF;" d="M302.856,332.736v20.128h33.456v11.904h-33.456v30.688H288.68V320.8h49.44v11.936H302.856z"/>
</g>
<g>
</g>
<g>
</g>
<g>
</g>
<g>
</g>
<g>
</g>
<g>
</g>
<g>
</g>
<g>
</g>
<g>
</g>
<g>
</g>
<g>
</g>
<g>
</g>
<g>
</g>
<g>
</g>
<g>
</g>
</svg>
