<?xml version="1.0" encoding="iso-8859-1"?>
<!-- Generator: Adobe Illustrator 19.0.0, SVG Export Plug-In . SVG Version: 6.00 Build 0)  -->
<svg version="1.1" id="Layer_1" xmlns="http://www.w3.org/2000/svg" xmlns:xlink="http://www.w3.org/1999/xlink" x="0px" y="0px"
	 viewBox="0 0 512 512" style="enable-background:new 0 0 512 512;" xml:space="preserve">
<polygon style="fill:#E2E2E2;" points="338.856,0 445.88,107.024 445.88,512 59.24,512 59.24,0 "/>
<polygon style="fill:#999999;" points="445.88,107.024 338.84,107.024 338.84,0 "/>
<polygon style="fill:#333333;" points="407.528,422.896 22.04,422.896 22.04,293.008 489.96,293.008 "/>
<polygon style="fill:#999999;" points="59.24,460.08 59.24,422.896 22.04,422.896 "/>
<g>
	<path style="fill:#FFFFFF;" d="M139.512,395.456V320.8h30.08h3.712c10.096,0,16.912,1.76,20.416,5.28S199,336.4,199,346.448
		c0,9.984-1.68,16.624-5.024,19.904c-3.36,3.28-10.144,4.928-20.336,4.928l-3.28,0.048h-16.688v24.128H139.512z M153.656,359.424
		H169.8c6.4,0,10.48-0.752,12.224-2.224c1.728-1.488,2.592-4.976,2.592-10.464c0-6.32-0.72-10.224-2.16-11.728
		s-5.184-2.272-11.232-2.272h-17.568L153.656,359.424L153.656,359.424z"/>
	<path style="fill:#FFFFFF;" d="M208.024,395.456V320.8h30.08h3.712c10.112,0,16.912,1.76,20.416,5.28
		c3.536,3.52,5.28,10.32,5.28,20.368c0,9.984-1.664,16.624-5.024,19.904c-3.344,3.28-10.128,4.928-20.336,4.928l-3.28,0.048H222.2
		v24.128H208.024z M222.2,359.424h16.128c6.416,0,10.496-0.752,12.224-2.224c1.728-1.488,2.608-4.976,2.608-10.464
		c0-6.32-0.72-10.224-2.176-11.728c-1.44-1.52-5.168-2.272-11.232-2.272H222.2V359.424L222.2,359.424z"/>
	<path style="fill:#FFFFFF;" d="M306.296,333.488v61.968H292.12v-61.968h-21.552V320.8H328.6v12.688L306.296,333.488
		L306.296,333.488z"/>
</g>
<g>
</g>
<g>
</g>
<g>
</g>
<g>
</g>
<g>
</g>
<g>
</g>
<g>
</g>
<g>
</g>
<g>
</g>
<g>
</g>
<g>
</g>
<g>
</g>
<g>
</g>
<g>
</g>
<g>
</g>
</svg>
