<?xml version="1.0" encoding="iso-8859-1"?>
<!-- Generator: Adobe Illustrator 19.0.0, SVG Export Plug-In . SVG Version: 6.00 Build 0)  -->
<svg version="1.1" id="Layer_1" xmlns="http://www.w3.org/2000/svg" xmlns:xlink="http://www.w3.org/1999/xlink" x="0px" y="0px"
	 viewBox="0 0 512 512" style="enable-background:new 0 0 512 512;" xml:space="preserve">
<polygon style="fill:#E2E2E2;" points="338.856,0 445.88,107.024 445.88,512 59.24,512 59.24,0 "/>
<polygon style="fill:#999999;" points="445.88,107.024 338.84,107.024 338.84,0 "/>
<polygon style="fill:#333333;" points="407.528,422.896 22.04,422.896 22.04,293.008 489.96,293.008 "/>
<polygon style="fill:#999999;" points="59.24,460.08 59.24,422.896 22.04,422.896 "/>
<g>
	<path style="fill:#FFFFFF;" d="M144.968,395.456V320.8h36.8c9.152,0,15.472,1.6,18.928,4.768c3.472,3.168,5.2,8.928,5.2,17.232
		c0,7.536-0.88,12.704-2.592,15.472c-1.728,2.768-5.28,4.688-10.64,5.744v0.48c8.272,0.512,12.4,5.344,12.4,14.48v16.464h-14.16
		v-13.632c0-7.68-3.792-11.536-11.376-11.536h-20.4v25.152h-14.16V395.456z M159.128,358.368h20.336c4.864,0,8.08-0.864,9.664-2.592
		c1.6-1.728,2.368-5.2,2.368-10.416c0-5.328-0.672-8.768-2.048-10.32c-1.36-1.552-4.352-2.32-8.992-2.32h-21.328V358.368
		L159.128,358.368z"/>
	<path style="fill:#FFFFFF;" d="M246.904,333.488v61.968h-14.176v-61.968h-21.552V320.8h58.032v12.688L246.904,333.488
		L246.904,333.488z"/>
	<path style="fill:#FFFFFF;" d="M290.552,332.736v20.128h33.456v11.904h-33.456v30.688h-14.176V320.8h49.44v11.936H290.552z"/>
</g>
<g>
</g>
<g>
</g>
<g>
</g>
<g>
</g>
<g>
</g>
<g>
</g>
<g>
</g>
<g>
</g>
<g>
</g>
<g>
</g>
<g>
</g>
<g>
</g>
<g>
</g>
<g>
</g>
<g>
</g>
</svg>
