<?xml version="1.0" encoding="UTF-8" standalone="no"?>
<svg
   xmlns:dc="http://purl.org/dc/elements/1.1/"
   xmlns:cc="http://creativecommons.org/ns#"
   xmlns:rdf="http://www.w3.org/1999/02/22-rdf-syntax-ns#"
   xmlns:svg="http://www.w3.org/2000/svg"
   xmlns="http://www.w3.org/2000/svg"
   xmlns:xlink="http://www.w3.org/1999/xlink"
   xmlns:sodipodi="http://sodipodi.sourceforge.net/DTD/sodipodi-0.dtd"
   xmlns:inkscape="http://www.inkscape.org/namespaces/inkscape"
   inkscape:version="1.0 (4035a4fb49, 2020-05-01)"
   height="384.73999"
   width="384.73999"
   sodipodi:docname="computer_display_monochromatic.svg"
   version="1.1"
   viewBox="0 0 384.74 384.73998"
   data-name="Layer 1"
   id="Layer_1">
  <metadata
     id="metadata99">
    <rdf:RDF>
      <cc:Work
         rdf:about="">
        <dc:format>image/svg+xml</dc:format>
        <dc:type
           rdf:resource="http://purl.org/dc/dcmitype/StillImage" />
        <dc:title>19</dc:title>
      </cc:Work>
    </rdf:RDF>
  </metadata>
  <sodipodi:namedview
     inkscape:current-layer="Layer_1"
     inkscape:window-maximized="1"
     inkscape:window-y="201"
     inkscape:window-x="0"
     inkscape:cy="164.53655"
     inkscape:cx="137.17569"
     inkscape:zoom="1.0313022"
     showgrid="false"
     id="namedview97"
     inkscape:window-height="717"
     inkscape:window-width="1366"
     inkscape:pageshadow="2"
     inkscape:pageopacity="0"
     guidetolerance="10"
     gridtolerance="10"
     objecttolerance="10"
     borderopacity="1"
     bordercolor="#666666"
     pagecolor="#ffffff" />
  <defs
     id="defs12">
    <linearGradient
       gradientUnits="userSpaceOnUse"
       y2="255.07001"
       x2="207.05"
       y1="128.92999"
       x1="205.92"
       id="linear-gradient">
      <stop
         id="stop2"
         offset="0" />
      <stop
         id="stop4"
         stop-opacity="0"
         offset="1" />
    </linearGradient>
    <linearGradient
       gradientTransform="translate(-8.9828016,28.893039)"
       xlink:href="#linear-gradient"
       y2="44.82"
       x2="214.38"
       y1="565.70001"
       x1="212.69"
       id="linear-gradient-2" />
    <linearGradient
       gradientTransform="translate(-8.9828016,28.893039)"
       xlink:href="#linear-gradient"
       y2="126.15"
       x2="330.16"
       y1="234.74001"
       x1="247.06"
       id="linear-gradient-3" />
    <linearGradient
       gradientTransform="translate(-8.9828016,28.893039)"
       xlink:href="#linear-gradient"
       y2="128.11"
       x2="95.949997"
       y1="196.81"
       x1="174.78"
       id="linear-gradient-4" />
    <linearGradient
       gradientTransform="translate(-8.9828016,28.893039)"
       xlink:href="#linear-gradient"
       y2="120.16"
       x2="130.05"
       y1="138.74001"
       x1="104.99"
       id="linear-gradient-5" />
    <linearGradient
       gradientTransform="translate(-8.9828016,28.893039)"
       xlink:href="#linear-gradient"
       y2="111"
       x2="110.95"
       y1="137.05"
       x1="122.21"
       id="linear-gradient-6" />
    <linearGradient
       gradientTransform="translate(1.3871984,48.403039)"
       y2="255.07001"
       x2="207.05"
       y1="128.92999"
       x1="205.92"
       gradientUnits="userSpaceOnUse"
       id="linearGradient928"
       xlink:href="#linear-gradient"
       inkscape:collect="always" />
  </defs>
  <title
     id="title14">19</title>
  <path
     id="path16"
     style="isolation:isolate"
     opacity="0.18"
     fill="#0088b6"
     d="m 188.0172,55.513039 a 131.78,131.78 0 0 0 -33.8,15.58 c -10.82,7.06 -18.1,17 -28,24.9 -19.35,15.340001 -43.510002,25.640001 -66.670002,33.620001 -9.21,3.18 -18.64,6.24 -26.63,11.82 -12.26,8.56 -20,22.29 -24.85,36.43 -10.6799996,31.03 -8.8399996,66.85 7.57,95.32 16,27.66 47.38,48.82 79.94,48 41.170002,-1 82.700002,2 124.000002,2 28.77,0.68 57.65,1.35 86.25,-1.87 11.95,-1.35 24,-3.43 34.84,-8.67 20.33,-9.85 37.61,-27.17 43.33,-49.43 a 69.79,69.79 0 0 0 -8.29,-53.65 c -6.06,-9.72 -14.54,-17.92 -19.34,-28.32 -6.45,-14 -5.47,-30.08 -7.36,-45.36 a 118.83,118.83 0 0 0 -22.6,-56.140001 c -7.39,-9.85 -16.64,-18.79 -28.03,-23.66 -7.85,-3.35 -16.41,-4.65 -24.89,-5.64 -27.34,-3.16 -55.43,-3.23 -82,4.07 -1.14,0.32 -2.3,0.65 -3.47,1 z" />
  <rect
     id="rect18"
     fill="#0088b6"
     height="35.139999"
     width="67.010002"
     y="265.36304"
     x="174.74719" />
  <rect
     style="fill:url(#linearGradient928)"
     id="rect20"
     fill="url(#linear-gradient)"
     height="35.139999"
     width="67.010002"
     y="265.36304"
     x="174.74719" />
  <path
     id="path22"
     fill="#ffffff"
     d="m 318.8772,146.94304 v 99.76 a 21,21 0 0 1 -21,21.05 h -185.72 a 21,21 0 0 1 -21.000002,-21.05 v -99.76 a 21,21 0 0 1 21.000002,-21 h 185.68 a 21,21 0 0 1 21.04,21 z" />
  <path
     style="fill:url(#linear-gradient-2)"
     id="path24"
     fill="url(#linear-gradient-2)"
     d="m 318.8772,146.94304 v 99.76 a 21,21 0 0 1 -21,21.05 h -185.72 a 21,21 0 0 1 -21.000002,-21.05 v -99.76 a 21,21 0 0 1 21.000002,-21 h 185.68 a 21,21 0 0 1 21.04,21 z" />
  <path
     id="path26"
     fill="#0088b6"
     d="m 318.8772,239.70304 v 7 a 21,21 0 0 1 -21,21.05 h -185.72 a 21,21 0 0 1 -21.000002,-21.05 v -7 z" />
  <path
     id="path28"
     fill="#282328"
     d="m 309.3872,188.39304 c 0,0 -6.25,20.5 -4.37,24.95 1.88,4.45 22,23.74 22,23.74 l 5.19,-4.31 -15.19,-21.82 c 0,0 5.78,-22.71 0.93,-28.82 -4.85,-6.11 -8.56,6.26 -8.56,6.26 z" />
  <path
     id="path30"
     fill="#473f47"
     d="m 318.4172,178.61304 a 26.47,26.47 0 0 1 8.32,10.45 c 3,6.81 -1.73,22.9 -1.73,22.9 l 20.19,10.81 -2.57,7 c 0,0 -24.44,-9 -27.2,-12.31 -2.76,-3.31 -6.18,-26.28 -6.18,-26.28 z" />
  <path
     id="path32"
     fill="#ffbbab"
     d="m 287.9272,155.94304 -8.14,-3.16 a 10.59,10.59 0 0 0 -2,-0.64 c -0.71,-0.12 -1.43,-0.09 -2.14,-0.15 a 28.61,28.61 0 0 1 -5.17,-1.45 6.65,6.65 0 0 1 -2,-0.85 2.84,2.84 0 0 1 -1.22,-1.7 2.78,2.78 0 0 1 1.85,-2.95 5,5 0 0 1 3.68,0.31 c 1.56,0.7 3.12,1.16 4.67,1.88 1.88,0.87 3.78,1.71 5.69,2.54 a 34.68,34.68 0 0 0 16.73,2.85 c 1.48,0.74 3.05,4.6 3.4,6.22 -0.88,0.22 -11.26,-1.3 -15.35,-2.9 z" />
  <path
     id="path34"
     fill="#ffbbab"
     d="m 134.7972,159.05304 8.73,0.15 a 10.2,10.2 0 0 1 2.14,0.18 c 0.7,0.16 1.35,0.46 2,0.67 a 8.3,8.3 0 0 0 6.36,-0.66 c 1.46,-0.81 2.7,-2.08 4.32,-2.53 a 1.87,1.87 0 0 0 0.9,-0.38 1.07,1.07 0 0 0 0,-1.34 2.35,2.35 0 0 0 -1.2,-0.79 9.05,9.05 0 0 0 -5.23,0.12 14.87,14.87 0 0 1 -3.25,0.38 c -2.69,0.16 -5.38,0.24 -8.08,0.3 a 34.55,34.55 0 0 1 -16.47,-3.69 c -1.65,0.13 -4.57,3.11 -5.51,4.47 0.71,0.53 10.88,3.04 15.29,3.12 z" />
  <path
     id="path36"
     fill="#0088b6"
     d="m 124.8372,150.15304 a 1,1 0 0 1 0.45,0.69 1,1 0 0 1 -0.4,0.65 l -3.45,3.25 a 4.68,4.68 0 0 1 -1.77,1.2 4.3,4.3 0 0 1 -2.22,-0.14 38.79,38.79 0 0 1 -9.84,-4 10.65,10.65 0 0 1 -2.7,-2.05 4.4,4.4 0 0 1 -1.21,-3.09 4.11,4.11 0 0 1 1.87,-3.08 c 2.37,-1.6 4.75,-1.13 7.24,-0.23 a 40.34,40.34 0 0 1 7.92,3.87 41.23,41.23 0 0 1 4.11,2.93 z" />
  <path
     id="path38"
     fill="#ffffff"
     d="m 294.3072,152.70304 v 101.82 a 5.66,5.66 0 0 1 -5.65,5.65 h -151.83 a 5.66,5.66 0 0 1 -5.65,-5.65 v -101.82 a 5.64,5.64 0 0 1 5.65,-5.65 h 151.83 a 5.64,5.64 0 0 1 5.65,5.65 z" />
  <path
     id="path40"
     fill="#0088b6"
     d="m 294.3072,152.70304 v 1.87 h -163.13 v -1.87 a 5.64,5.64 0 0 1 5.65,-5.65 h 151.83 a 5.64,5.64 0 0 1 5.65,5.65 z" />
  <path
     id="path42"
     fill="#ef9786"
     d="m 94.297198,177.52304 c 0,0 -2.94,7.16 -6.28,7.37 -3.34,0.21 -30.73,-2.26 -30.73,-2.26 l -0.79,-3.27 c 0,0 17.29,-2.79 21,-1.85 a 59.09,59.09 0 0 0 5.79,1.22 l 2.48,-1.84 z" />
  <path
     id="path44"
     fill="#ffbbab"
     d="m 102.2572,177.75304 a 4.52,4.52 0 0 1 0,5.12 c -1.81,2.71 -33.590002,18.37 -33.590002,18.37 l -1.51,-3.46 c 0,0 16.69,-15.21 20.47,-15.51 a 3.13,3.13 0 0 0 3.18,-3.71 z" />
  <path
     id="path46"
     fill="#ffbbab"
     d="m 112.9472,162.28304 c 0,0 0.27,3.3 4.67,4.88 4.4,1.58 23.05,0 23.05,0 1.93,0 3.84,1.52 5.73,1.09 1.89,-0.43 3.52,-2.42 2.85,-4.23 a 3.48,3.48 0 0 0 -2.12,-1.92 9.9,9.9 0 0 0 -2.92,-0.46 11.34,11.34 0 0 0 -5.09,0.51 19.91,19.91 0 0 1 -2,1 7.81,7.81 0 0 1 -2.46,0.2 l -10.13,-0.31 c -1.95,-0.06 -4.27,-0.33 -5.17,-2.06 -0.31,-0.59 -0.45,-1.34 -1,-1.68 a 1.82,1.82 0 0 0 -1.22,-0.12 c -1.93,0.3 -2.8,1.83 -4.19,3.1 z" />
  <path
     id="path48"
     fill="#0088b6"
     d="m 111.5272,161.68304 a 1.82,1.82 0 0 0 0.57,0.47 1.75,1.75 0 0 0 0.85,0.13 13.74,13.74 0 0 0 5.52,-1.85 0.4,0.4 0 0 0 0.23,-0.21 0.3,0.3 0 0 0 0,-0.23 l -2,-6.68 a 5.36,5.36 0 0 0 -0.94,-2 3.24,3.24 0 0 0 -2.7,-1 6,6 0 0 0 -2.73,1.09 5.51,5.51 0 0 0 -2,2.18 c -0.67,1.46 0,2.62 0.56,3.95 a 14,14 0 0 0 2.64,4.15 z" />
  <path
     id="path50"
     fill="#ffbbab"
     d="m 126.1072,140.44304 a 5.91,5.91 0 0 0 0,1 1.27,1.27 0 0 1 -0.15,0.91 c -0.22,0.25 -0.6,0.25 -0.91,0.37 -1,0.36 -1.21,1.8 -2.17,2.25 a 2.29,2.29 0 0 1 -1,0.18 3.5,3.5 0 0 1 -2.84,-1.05 c -0.18,-0.22 -0.42,-0.51 -0.67,-0.38 -0.25,0.13 -0.16,0.18 -0.22,0.29 -0.7,1.53 -2.73,2.89 -4.24,1.61 a 6.48,6.48 0 0 1 -1.71,-3.31 c -0.4,-1.39 0.28,-2.85 0.9,-4.09 a 30.8,30.8 0 0 1 2.28,-3.94 c 1.35,-1.91 3.2,-3.68 5.51,-4 a 6.1,6.1 0 0 1 5.14,2 5.11,5.11 0 0 1 1.25,2.51 3.6,3.6 0 0 1 0.11,1.5 11.41,11.41 0 0 1 -0.54,1.81 12.62,12.62 0 0 0 -0.62,2 c -0.09,0.1 -0.11,0.22 -0.12,0.34 z" />
  <path
     id="path52"
     fill="#0088b6"
     d="m 110.0172,156.76304 a 7.32,7.32 0 0 1 -1.14,0.51 c -2,0.74 -4.42,0.91 -5.93,2.34 a 6.31,6.31 0 0 0 -1.53,3.93 29.8,29.8 0 0 0 2.09,14.76 26.78,26.78 0 0 1 -3.33,0.51 48,48 0 0 1 -12.070002,-0.63 c -5.1,-0.79 -10.17,-1.91 -15.33,-2.13 1.61,-1.45 2.4,-3.57 3.4,-5.49 3.67,-7.1 10.45,-11.95 16.31,-17.39 2.7,-2.51 5.25,-5.19 8.170002,-7.45 a 15.09,15.09 0 0 1 4.9,-2.74 c 4.9,-1.44 8.25,1.94 8.88,6.57 0.45,3.49 -1.59,5.57 -4.42,7.21 z" />
  <path
     id="path54"
     fill="#fc682d"
     d="m 127.7272,134.52304 c -0.18,0.49 -0.93,2.23 -1.67,1.32 -0.06,-0.07 -0.1,-0.16 -0.19,-0.19 -0.09,-0.03 -0.22,0 -0.32,0.12 a 6.09,6.09 0 0 1 -7.63,-0.1 l -0.25,0.35 -1.91,2.65 c 0.22,-0.53 -0.58,-1 -1.09,-0.74 a 2,2 0 0 0 -0.85,1.43 13.9,13.9 0 0 1 -0.89,2.92 3.62,3.62 0 0 1 -2.21,2 c -1,0.25 -2.07,-0.11 -3,0.18 -1.47,0.42 -2.18,2 -3.06,3.26 -2.12,3 -6,4.39 -9.640002,4.37 a 9.55,9.55 0 0 1 -2.5,-0.29 6.73,6.73 0 0 1 -4.4,-3.84 6.31,6.31 0 0 1 -0.28,-0.87 6,6 0 0 1 2.18,-6.2 19.47,19.47 0 0 0 3,-1.9 19.5,19.5 0 0 0 1.83,-3.06 8.15,8.15 0 0 1 5.520002,-3.15 61.65,61.65 0 0 1 6.52,-0.37 6.13,6.13 0 0 0 3.39,-1 c 1,-0.77 1.55,-2.06 2.51,-2.92 a 7.09,7.09 0 0 1 2.9,-1.38 c 2.78,-0.75 5.85,-1 8.45,0.23 a 6.77,6.77 0 0 1 3.71,4.49 4.69,4.69 0 0 1 -0.12,2.69 z" />
  <path
     id="path56"
     fill="#0088b6"
     d="m 66.357198,196.89304 a 10.25,10.25 0 0 0 -3.28,1.1 3,3 0 0 0 -1.21,0.85 3,3 0 0 0 -0.43,1.68 18.61,18.61 0 0 0 2.14,9.28 1.28,1.28 0 0 0 0.37,0.49 1.11,1.11 0 0 0 0.84,0.13 3.51,3.51 0 0 0 2.41,-1.8 6.6,6.6 0 0 0 0.76,-3 7.68,7.68 0 0 1 0.19,-1.86 c 0.29,-0.94 1,-1.67 1.41,-2.58 1.05,-2.54 -0.6,-4.6 -3.2,-4.29 z" />
  <path
     id="path58"
     fill="#0088b6"
     d="m 58.557198,178.47304 a 9.75,9.75 0 0 0 -3.4,-0.61 3.09,3.09 0 0 0 -1.48,0.16 3,3 0 0 0 -1.18,1.27 18.57,18.57 0 0 0 -2.57,9.16 1.3,1.3 0 0 0 0.09,0.62 1.12,1.12 0 0 0 0.67,0.51 3.53,3.53 0 0 0 3,-0.42 6.66,6.66 0 0 0 2.08,-2.27 7.94,7.94 0 0 1 1.06,-1.54 c 0.71,-0.69 1.71,-1 2.48,-1.59 2.12,-1.68 1.71,-4.27 -0.75,-5.29 z" />
  <path
     id="path60"
     fill="#0088b6"
     d="m 318.0172,160.26304 a 4.47,4.47 0 0 1 -2.74,1.89 10.69,10.69 0 0 1 -3.39,0.18 c -0.46,0 -0.91,-0.07 -1.37,-0.12 a 37.46,37.46 0 0 1 -5.75,-1 c -1.11,-0.29 -2.2,-0.63 -3.28,-1 a 4.36,4.36 0 0 1 -1.92,-1.12 4.58,4.58 0 0 1 -0.8,-2 c -0.09,-0.39 -0.17,-0.77 -0.26,-1.16 l -0.78,-3.47 a 0.75,0.75 0 0 1 0.8,-1.08 41,41 0 0 1 10.32,0.34 c 1.17,0.19 2.33,0.43 3.47,0.72 2.56,0.66 4.8,1.6 5.87,4.25 a 4.1,4.1 0 0 1 -0.17,3.57 z" />
  <path
     id="path62"
     fill="#0088b6"
     d="m 328.3472,189.20304 a 2.55,2.55 0 0 1 -0.78,0.89 c -2.85,2.3 -6.74,3 -10.39,2.63 a 26.48,26.48 0 0 1 -5,-1 c -1.89,-0.54 -3.74,-1.22 -5.58,-1.9 a 16.09,16.09 0 0 1 0.78,-5.65 c 0.84,-3.66 1.3,-8 0.26,-11.65 l -0.09,-0.28 c -0.59,-1.9 -1.66,-3.63 -2.24,-5.53 a 15.69,15.69 0 0 1 -0.6,-5.53 16.72,16.72 0 0 1 0.72,-4 14.77,14.77 0 0 1 1.68,-3.67 5.51,5.51 0 0 1 1.68,-1.84 h 0.07 a 6,6 0 0 1 3.9,-0.28 c 3.15,0.48 6.31,1.13 8.3,3.83 1.99,2.7 2.56,5.16 3.24,8.53 1.59,8 3.71,15.93 4.18,24.11 a 3,3 0 0 1 -0.13,1.34 z" />
  <path
     style="fill:url(#linear-gradient-3)"
     id="path64"
     fill="url(#linear-gradient-3)"
     d="m 317.8872,173.89304 a 5.85,5.85 0 0 0 -1.27,1.21 3.35,3.35 0 0 0 -0.35,1.43 55.76,55.76 0 0 0 0.13,11.26 c 0.14,1.19 0.22,2.63 -0.73,3.37 a 3.28,3.28 0 0 1 -2,0.5 c -0.5,0 -1,0 -1.49,0 -1.89,-0.54 -3.74,-1.22 -5.58,-1.9 a 16.09,16.09 0 0 1 0.78,-5.65 c 0.84,-3.66 1.3,-8 0.26,-11.65 l -0.09,-0.28 c -0.59,-1.9 -1.66,-3.63 -2.24,-5.53 a 15.69,15.69 0 0 1 -0.6,-5.53 c -1.11,-0.29 -2.2,-0.63 -3.28,-1 a 4.36,4.36 0 0 1 -1.92,-1.12 4.58,4.58 0 0 1 -0.8,-2 c -0.09,-0.39 -0.17,-0.77 -0.26,-1.16 l 0.18,-0.49 a 25.59,25.59 0 0 1 6,1.42 9.55,9.55 0 0 1 4.59,3.94 l 1.06,-0.53 c 0.06,0.66 0.11,1.32 0.18,2 0.07,0.68 0.12,1.44 0.19,2.15 a 2.22,2.22 0 0 0 0.24,1 2.26,2.26 0 0 0 0.86,0.7 c 1.43,0.81 3,1.65 4.63,1.25 1.63,-0.4 2.16,-1.65 3,-2.76 a 19.62,19.62 0 0 1 0.36,3.68 c 0.13,2.1 -0.29,4.36 -1.85,5.69 z" />
  <path
     id="path66"
     fill="#ffbbab"
     d="m 317.2672,167.44304 a 1.51,1.51 0 0 1 -0.41,1.18 l -4.32,5.27 a 3.4,3.4 0 0 1 -0.84,0.81 3,3 0 0 1 -1.19,0.3 c -3.09,0.23 -6.1,-1 -8.91,-2.28 a 41.36,41.36 0 0 0 -7,-2.93 c -1.69,-0.45 -3.5,-0.54 -5.25,-0.9 -1.91,-0.23 -4,1 -5.81,0.4 -1.81,-0.6 -3.21,-2.83 -2.33,-4.54 a 3.45,3.45 0 0 1 2.34,-1.66 10.05,10.05 0 0 1 3,-0.11 11.43,11.43 0 0 1 5,1.12 15.87,15.87 0 0 0 3.49,1.57 34.92,34.92 0 0 0 4.49,1.08 65,65 0 0 1 9.07,1.92 0.54,0.54 0 0 0 0.46,0 0.66,0.66 0 0 0 0.24,-0.4 c 0.47,-1.77 2.21,-5.25 4.5,-4.54 a 4.89,4.89 0 0 1 2.4,1.88 4.62,4.62 0 0 1 1.07,1.83 z" />
  <path
     id="path68"
     fill="#0088b6"
     d="m 318.9472,167.01304 a 2.18,2.18 0 0 1 -0.64,0.37 1.78,1.78 0 0 1 -0.86,0 13.58,13.58 0 0 1 -5.26,-2.5 c -0.09,-0.06 -0.19,-0.13 -0.21,-0.23 a 0.46,0.46 0 0 1 0.05,-0.23 l 2.74,-6.39 c 0.39,-0.9 0.83,-1.77 1.27,-2.64 a 2.79,2.79 0 0 1 0.85,-1.14 2.49,2.49 0 0 1 1.27,-0.28 3.64,3.64 0 0 1 1.18,0.14 3.9,3.9 0 0 1 1.65,1.45 5.36,5.36 0 0 1 0.92,1.49 4.22,4.22 0 0 1 0.2,1.54 13.11,13.11 0 0 1 -1.19,4.88 c -0.43,1.01 -1.01,2.72 -1.97,3.54 z" />
  <path
     id="path70"
     fill="#ffbbab"
     d="m 303.4772,138.55304 c -0.53,1.3 -0.76,2.72 -1.3,4 a 4.36,4.36 0 0 0 -0.32,0.92 1.12,1.12 0 0 0 0.23,0.92 c 0.32,0.32 0.89,0.33 1.15,0.7 a 1.29,1.29 0 0 1 0.19,0.61 l 0.26,1.84 a 1.57,1.57 0 0 0 0.18,0.65 1.5,1.5 0 0 0 0.61,0.47 8.11,8.11 0 0 0 3.65,0.84 3.09,3.09 0 0 1 0.09,2.11 5.56,5.56 0 0 0 0.05,1.82 0.47,0.47 0 0 0 0.1,0.24 0.41,0.41 0 0 0 0.27,0.08 4.42,4.42 0 0 0 1.34,-0.22 l 3.31,-0.91 a 2.18,2.18 0 0 0 1.49,-0.91 3.29,3.29 0 0 0 0.2,-1.09 12.41,12.41 0 0 1 0.63,-2 10.94,10.94 0 0 0 0.36,-3.18 32.32,32.32 0 0 0 -0.15,-4.29 7.48,7.48 0 0 0 -1.93,-4.57 5.94,5.94 0 0 0 -3.64,-1.5 8.26,8.26 0 0 0 -4.29,0.67 5.17,5.17 0 0 0 -2.48,2.8 z" />
  <path
     id="path72"
     fill="#fc682d"
     d="m 302.1272,132.89304 a 3.64,3.64 0 0 0 0.1,2.39 5,5 0 0 0 4.62,3.22 1.51,1.51 0 0 1 0.56,0.06 1.31,1.31 0 0 1 0.37,0.24 l 2.08,1.71 a 4.67,4.67 0 0 1 1.17,1.22 4.81,4.81 0 0 1 0.49,1.71 2.82,2.82 0 0 1 0.56,-1.12 1,1 0 0 1 1.15,-0.22 1.16,1.16 0 0 1 0.42,0.69 2.82,2.82 0 0 1 -1,2.84 c 0.65,0.15 0.93,0.9 1.1,1.54 l 0.74,2.8 a 0.89,0.89 0 0 0 0.71,-0.61 c 0,0.15 0.21,0.22 0.34,0.14 a 0.67,0.67 0 0 0 0.25,-0.36 c 0.68,-1.81 1.31,-3.65 1.89,-5.49 a 15.53,15.53 0 0 0 1,-5.45 3.36,3.36 0 0 0 -0.31,-1.4 1.52,1.52 0 0 0 -1.1,-0.84 0.67,0.67 0 0 1 -0.25,-0.07 0.44,0.44 0 0 1 -0.13,-0.32 7.77,7.77 0 0 0 -0.37,-1.92 3.86,3.86 0 0 0 -5.2,-2.13 0.64,0.64 0 0 1 -0.48,0.09 0.59,0.59 0 0 1 -0.25,-0.22 3.76,3.76 0 0 0 -2.19,-1.2 10.69,10.69 0 0 0 -2.53,-0.12 3.68,3.68 0 0 0 -1.28,0.18 c -0.6,0.23 -0.73,0.81 -1.2,1.14 a 2.9,2.9 0 0 0 -1.26,1.5 z" />
  <path
     id="path74"
     fill="#473f47"
     d="m 350.4572,225.04304 c 0.32,0.39 0.17,1 0,1.46 l -3.32,10.13 a 2.93,2.93 0 0 1 -0.53,1.11 2.05,2.05 0 0 1 -2.83,-0.16 5.08,5.08 0 0 1 -1.2,-2.88 25,25 0 0 1 -0.09,-7.63 c 0.16,-1.11 0.61,-3.8 2,-4.13 1.39,-0.33 4.69,1.65 5.97,2.1 z" />
  <path
     id="path76"
     fill="#473f47"
     d="m 335.4472,238.19304 c 0,0.5 -0.41,0.9 -0.82,1.2 l -8.52,6.41 a 3.07,3.07 0 0 1 -1.07,0.6 2,2 0 0 1 -2.23,-1.75 5.13,5.13 0 0 1 0.66,-3 25,25 0 0 1 4.3,-6.31 c 0.77,-0.82 2.68,-2.77 4,-2.26 1.32,0.51 2.89,4 3.68,5.11 z" />
  <circle
     id="circle78"
     fill="#ffffff"
     r="2.0799999"
     cy="150.50304"
     cx="136.69719" />
  <circle
     id="circle80"
     fill="#ffffff"
     r="2.0799999"
     cy="150.50304"
     cx="142.36719" />
  <circle
     id="circle82"
     fill="#ffffff"
     r="2.0799999"
     cy="150.50304"
     cx="148.02719" />
  <rect
     id="rect84"
     fill="#0088b6"
     height="6.7600002"
     width="91.510002"
     y="297.13303"
     x="161.50719" />
  <path
     style="fill:url(#linear-gradient-4)"
     id="path86"
     fill="url(#linear-gradient-4)"
     d="m 103.4772,178.30304 a 26.78,26.78 0 0 1 -3.33,0.51 l -7.260002,-0.25 c -2.75,-0.1 -5.63,-0.24 -8,-1.65 3,-1.13 4.84,-4.22 5.75,-7.3 0.91,-3.08 1.15,-6.35 2.22,-9.38 a 4.92,4.92 0 0 1 1.71,-2.6 6.55,6.55 0 0 1 2.45,-0.74 18.49,18.49 0 0 0 9.170002,-4.86 c -0.27,0.26 1.8,3.61 2,4 0.2,0.39 0.49,0.84 0.67,1.22 -2,0.74 -4.42,0.91 -5.93,2.34 a 6.31,6.31 0 0 0 -1.53,3.93 29.8,29.8 0 0 0 2.08,14.78 z" />
  <path
     style="fill:url(#linear-gradient-5)"
     id="path88"
     fill="url(#linear-gradient-5)"
     d="m 115.3472,147.57304 a 0.82,0.82 0 0 1 0.74,0 40.49,40.49 0 0 1 7.42,4 0.66,0.66 0 0 1 0.3,0.34 c 0.05,0.22 -0.12,0.42 -0.29,0.57 -0.92,0.87 -1.86,1.71 -2.83,2.52 -1.65,1.38 -2.85,1.44 -3.59,-0.6 -0.28,-0.73 -2.45,-6.34 -1.75,-6.83 z" />
  <rect
     id="rect90"
     opacity="0.28"
     fill="#0088b6"
     height="37.27"
     width="55.75"
     y="165.41304"
     x="218.10719" />
  <rect
     id="rect92"
     opacity="0.18"
     fill="#0088b6"
     height="31.530001"
     width="123.75"
     y="213.22305"
     x="150.10719" />
  <path
     style="fill:url(#linear-gradient-6)"
     id="path94"
     fill="url(#linear-gradient-6)"
     d="m 115.7572,138.67304 c 0.22,-0.53 -0.58,-1 -1.09,-0.74 a 2,2 0 0 0 -0.85,1.43 13.9,13.9 0 0 1 -0.89,2.92 3.62,3.62 0 0 1 -2.21,2 c -1,0.25 -2.07,-0.11 -3,0.18 -1.47,0.42 -2.18,2 -3.06,3.26 -2.12,3 -6,4.39 -9.640002,4.37 a 9.55,9.55 0 0 1 -2.5,-0.29 6.73,6.73 0 0 1 -4.4,-3.84 10.88,10.88 0 0 0 5.55,-0.09 l 0.18,-0.77 c 5.520002,-0.1 9.450002,-6.12 14.940002,-6.61 a 2.15,2.15 0 0 0 -1.64,-1 16.61,16.61 0 0 1 8.49,-4 2.53,2.53 0 0 1 2.08,0.59 z" />
</svg>
