<?xml version="1.0" encoding="UTF-8" standalone="no"?>
<svg
   xmlns:dc="http://purl.org/dc/elements/1.1/"
   xmlns:cc="http://creativecommons.org/ns#"
   xmlns:rdf="http://www.w3.org/1999/02/22-rdf-syntax-ns#"
   xmlns:svg="http://www.w3.org/2000/svg"
   xmlns="http://www.w3.org/2000/svg"
   xmlns:xlink="http://www.w3.org/1999/xlink"
   xmlns:sodipodi="http://sodipodi.sourceforge.net/DTD/sodipodi-0.dtd"
   xmlns:inkscape="http://www.inkscape.org/namespaces/inkscape"
   inkscape:version="1.0 (4035a4fb49, 2020-05-01)"
   height="331.67999"
   width="331.67999"
   sodipodi:docname="great_idea_monochromatic.svg"
   version="1.1"
   viewBox="0 0 331.68 331.68"
   data-name="Layer 1"
   id="Layer_1">
  <metadata
     id="metadata106">
    <rdf:RDF>
      <cc:Work
         rdf:about="">
        <dc:format>image/svg+xml</dc:format>
        <dc:type
           rdf:resource="http://purl.org/dc/dcmitype/StillImage" />
        <dc:title>22</dc:title>
      </cc:Work>
    </rdf:RDF>
  </metadata>
  <sodipodi:namedview
     inkscape:current-layer="Layer_1"
     inkscape:window-maximized="1"
     inkscape:window-y="201"
     inkscape:window-x="0"
     inkscape:cy="205.82827"
     inkscape:cx="103.88152"
     inkscape:zoom="1.1630765"
     showgrid="false"
     id="namedview104"
     inkscape:window-height="717"
     inkscape:window-width="1366"
     inkscape:pageshadow="2"
     inkscape:pageopacity="0"
     guidetolerance="10"
     gridtolerance="10"
     objecttolerance="10"
     borderopacity="1"
     bordercolor="#666666"
     pagecolor="#ffffff" />
  <defs
     id="defs15">
    <linearGradient
       gradientUnits="userSpaceOnUse"
       y2="59.259998"
       x2="204.44"
       y1="181.02"
       x1="390.28"
       id="linear-gradient">
      <stop
         id="stop2"
         offset="0.01" />
      <stop
         id="stop4"
         stop-opacity="0.69"
         offset="0.13" />
      <stop
         id="stop6"
         stop-opacity="0.32"
         offset="0.25" />
      <stop
         id="stop8"
         stop-opacity="0"
         offset="1" />
    </linearGradient>
    <linearGradient
       gradientTransform="translate(0,42)"
       xlink:href="#linear-gradient"
       y2="158.69"
       x2="242.06"
       y1="124.63"
       x1="242.17999"
       id="linear-gradient-2" />
    <linearGradient
       gradientTransform="translate(0,42)"
       xlink:href="#linear-gradient"
       y2="167.59"
       x2="240.2"
       y1="132.94"
       x1="242.33"
       id="linear-gradient-3" />
    <linearGradient
       gradientTransform="translate(0,42)"
       xlink:href="#linear-gradient"
       y2="170.11"
       x2="240.7"
       y1="142.34"
       x1="241.89"
       id="linear-gradient-4" />
    <linearGradient
       gradientTransform="translate(-32.42,30.33)"
       xlink:href="#linear-gradient"
       y2="94"
       x2="85.489998"
       y1="63.470001"
       x1="131.77"
       id="linear-gradient-5" />
    <linearGradient
       gradientTransform="translate(-32.42,30.33)"
       y2="59.259998"
       x2="204.44"
       y1="181.02"
       x1="390.28"
       gradientUnits="userSpaceOnUse"
       id="linearGradient931"
       xlink:href="#linear-gradient"
       inkscape:collect="always" />
  </defs>
  <title
     id="title17">22</title>
  <path
     id="path19"
     style="isolation:isolate"
     opacity="0.18"
     fill="#68e1fd"
     d="m 266.05,55.98 c 23.91,21.69 20,61.07 38.09,87.82 6.82,10.1 16.63,18.13 22.05,29 5.76,11.58 5.92,25.1 5.17,38 -0.65,11.3 -1.95,22.78 -6.5,33.15 -8.33,18.94 -26.87,32 -46.75,37.79 -19.88,5.79 -41.07,5 -61.6,2.49 -20.53,-2.51 -40.89,-6.84 -61.54,-8.06 -14.9,-0.88 -29.85,-0.15 -44.73,1 -15.91,1.2 -32.14,2.81 -47.66,-0.9 -20.38,-4.86 -38,-18.94 -48.84,-36.94 -10.84,-18 -15,-39.51 -13.43,-60.42 0.84,-11.48 3.41,-23 9,-33.08 8.43,-15.29 23,-26.1 37.23,-36.2 Q 62.86,98.05 79.45,86.86 c 19.35,-13.06 39.16,-25.82 61,-34.09 23.47,-8.89 44.31,-8.29 68.74,-6.85 20.87,1.26 39.15,-6 56.86,10.06 z" />
  <path
     id="path21"
     style="isolation:isolate"
     fill="#ffffff"
     d="m 282.21,127.81 a 39.1,39.1 0 0 1 -10.83,24 c -5.54,5.81 -9.79,12.34 -11.62,20.24 -0.55,2.36 -0.83,4.78 -1.26,7.36 h -34.62 c -0.26,-1.75 -0.43,-3.51 -0.77,-5.23 a 40.34,40.34 0 0 0 -10.18,-19.75 c -4.48,-4.86 -8.31,-10 -10.62,-16.3 -8.92,-24.07 6.81,-51 32.14,-55 1.1,-0.17 2.2,-0.31 3.28,-0.39 a 41.27,41.27 0 0 1 44.48,45.06 z" />
  <path
     style="fill:url(#linearGradient931)"
     id="path23"
     fill="url(#linear-gradient)"
     d="m 275.44,127.81 a 39.1,39.1 0 0 1 -10.83,24 c -5.54,5.81 -9.79,12.34 -11.62,20.24 -0.55,2.36 -0.83,4.78 -1.26,7.36 h -27.85 c -0.26,-1.75 -0.43,-3.51 -0.77,-5.23 a 40.34,40.34 0 0 0 -10.18,-19.75 c -4.48,-4.86 -8.31,-10 -10.62,-16.3 -8.92,-24.07 6.81,-51 32.14,-55 1.1,-0.17 2.2,-0.31 3.28,-0.39 a 40.88,40.88 0 0 1 10.1,2.12 41.33,41.33 0 0 1 27.61,42.95 z" />
  <path
     id="path25"
     style="isolation:isolate"
     opacity="0.18"
     fill="#68e1fd"
     d="m 86.58,244.66 a 22.08,22.08 0 0 0 -7.88,2.26 8.69,8.69 0 0 0 -4.62,6.43 c -0.3,3.31 2,6.41 4.87,8.06 2.87,1.65 6.25,2.15 9.53,2.62 l 23.58,3.35 c 4.77,0.68 9.54,1.36 14.35,1.73 a 29.78,29.78 0 0 0 6.19,0 69.46,69.46 0 0 0 6.78,-1.6 c 7.51,-1.78 15.36,-1 23.07,-1.2 a 14.06,14.06 0 0 0 5.51,-1 5.32,5.32 0 0 0 3.24,-4.27 c 0.21,-4.25 -5.48,-8.26 -9.31,-8.62 -1.85,-0.17 -3.68,0 -5.54,-0.35 -3.12,-0.59 -6.19,-1.62 -9.27,-2.39 a 192.2,192.2 0 0 0 -38.63,-6.06 119.38,119.38 0 0 0 -21.87,1.04 z" />
  <path
     id="path27"
     fill="#ffbbab"
     d="m 121.8,252.98 a 14.67,14.67 0 0 0 1.17,6.28 10.48,10.48 0 0 0 4.57,4.24 18,18 0 0 0 13.33,1.31 2.61,2.61 0 0 0 1.54,-0.93 2.31,2.31 0 0 0 0.28,-1.32 c -0.1,-2.45 -1.75,-4.55 -3.5,-6.27 -1.75,-1.72 -3.72,-3.31 -4.81,-5.51 -2,-4.13 -0.52,-15.12 -8.3,-13.36 -6.5,1.47 -4.5,10.96 -4.28,15.56 z" />
  <path
     id="path29"
     fill="#68e1fd"
     d="m 120.72,260.42 c 0,0 -1.1,2.72 0.25,4.31 1.35,1.59 15.33,10.28 24.73,3.28 9.4,-7 -12.75,-7.89 -12.75,-7.89 z" />
  <path
     id="path31"
     fill="#ffffff"
     d="m 121.26,254.1 a 2,2 0 0 1 2.52,0.65 8.17,8.17 0 0 0 7.48,2.68 c 3.07,-0.73 4.29,-4.26 5.82,-4.28 1.53,-0.02 9.66,6.9 10.11,9.88 0.45,2.98 -3.69,5.15 -8.29,5.44 -4.6,0.29 -15,-2.89 -17,-5.3 -2,-2.41 -1.7,-7.55 -0.64,-9.07 z" />
  <path
     id="path33"
     fill="#ffbbab"
     d="m 151.38,247.61 a 14.67,14.67 0 0 0 1.17,6.28 10.43,10.43 0 0 0 4.57,4.24 18,18 0 0 0 13.33,1.31 2.57,2.57 0 0 0 1.54,-0.93 2.29,2.29 0 0 0 0.28,-1.32 c -0.1,-2.45 -1.75,-4.55 -3.5,-6.27 -1.75,-1.72 -3.72,-3.31 -4.81,-5.51 -2,-4.13 -0.52,-15.12 -8.3,-13.36 -6.49,1.48 -4.46,10.97 -4.28,15.56 z" />
  <path
     id="path35"
     fill="#282328"
     d="m 146.88,150.82 c 2.58,1.35 2.61,5.15 3.41,8.15 q 3.66,13.85 6.61,27.88 2.95,14.03 5.18,28.18 c 0.37,2.39 4.5,27.63 3.65,27.85 -1.27,0.33 -17.53,2.35 -17.54,1.91 a 158.73,158.73 0 0 0 -8.78,-47.82 c -5.54,-15.9 -11.94,-30.82 -15.42,-47.34 l 13.77,0.48 c 2.51,0.08 5.17,-0.07 7.65,0.26 a 4.23,4.23 0 0 1 1.47,0.45 z" />
  <path
     id="path37"
     fill="#282328"
     d="m 135.79,151.33 c 0.75,2.74 0.4,6.32 0.49,9 0.18,4.89 0.2,9.78 0.23,14.66 l 0.39,72.57 -17.11,-0.27 c -1.71,-17.25 -3.6,-60.82 -6.05,-69.86 -2.55,-9.37 -6.24,-16.82 -4.86,-27 1.49,-11 8.73,-13.31 17.61,-7.77 2.6,1.63 6.86,4.15 8.53,6.83 a 7.35,7.35 0 0 1 0.77,1.84 z" />
  <path
     id="path39"
     fill="#ffffff"
     d="m 168.72,111.95 c -0.2,2.45 -1,4.57 -3.2,5.22 a 3.16,3.16 0 0 1 -0.55,0.14 c -3.94,0.68 -9,-2.43 -12.52,-5.13 a 48.79,48.79 0 0 1 -4.19,-3.59 l 0.68,-26.26 18.56,20 a 30.06,30.06 0 0 1 1.22,9.62 z" />
  <path
     id="path41"
     fill="#ffffff"
     d="m 152.49,112.1 a 101.39,101.39 0 0 0 -2.07,14.39 c -0.67,8 -2,16 -3.33,23.94 -7.63,1.38 -15.41,0.58 -23.1,-0.8 -2.68,-0.48 -5.35,-1 -8,-1.57 -0.9,-0.18 -1.7,-0.65 -2.59,-0.89 -4.41,-1.22 -5.63,-23 -5.86,-29.85 q -0.33,-9.73 0.11,-19.48 c 0.22,-4.71 0.72,-9.79 3.89,-13.26 4.21,-4.63 12.21,-7.56 18.25,-8.51 a 20.33,20.33 0 0 1 5.93,-0.18 25.2,25.2 0 0 1 7.94,2.93 c 2.95,1.55 5.57,2.87 7,5.86 a 40.25,40.25 0 0 1 3.05,10.83 c 0.76,5.55 -0.01,11.15 -1.22,16.59 z" />
  <path
     id="path43"
     opacity="0.1"
     fill="#020202"
     d="m 123.99,149.63 c -2.68,-0.48 -5.35,-1 -8,-1.57 -0.9,-0.18 -1.7,-0.65 -2.59,-0.89 -4.41,-1.22 -5.63,-23 -5.86,-29.85 l 11,-12 c 0,0 -3.91,35.33 5.45,44.31 z" />
  <path
     id="path45"
     fill="#ffbbab"
     d="m 139.81,70.7 a 4.36,4.36 0 0 1 -2.8,1.31 14,14 0 0 1 -2.67,0 h -0.49 a 0.52,0.52 0 0 0 -0.37,0 0.57,0.57 0 0 0 -0.17,0.4 29.66,29.66 0 0 0 -0.24,5.33 v 0 l 0.06,1 a 1.78,1.78 0 0 1 -0.11,1 1.65,1.65 0 0 1 -1.1,0.68 8,8 0 0 1 -2.42,0.35 10.79,10.79 0 0 1 -4.86,-1.85 49.51,49.51 0 0 0 -0.24,-9.11 c -0.46,-3.9 -1.38,-7.82 -0.86,-11.71 a 7.66,7.66 0 0 1 1.71,-4.2 c 1.45,-1.54 3.73,-2 5.84,-1.93 a 14.67,14.67 0 0 1 7.89,2.36 3.08,3.08 0 0 1 1.12,2.38 c 0.27,1.54 0.47,3.1 0.6,4.66 0.15,1.77 0.21,3.55 0.19,5.34 a 6,6 0 0 1 -1.08,3.99 z" />
  <path
     id="path47"
     fill="#473f47"
     d="m 137.07,54.93 a 17.28,17.28 0 0 1 -2,0.38 12.36,12.36 0 0 0 -4,0.48 c -2.66,1 -3.87,4.39 -3.06,7.11 -0.77,0.25 -0.87,-1.12 -1.44,-1.69 -0.57,-0.57 -1.92,0.14 -2,1.09 a 5.86,5.86 0 0 0 0.77,2.72 8,8 0 0 1 0.21,5.33 c -0.12,0.41 -0.44,0.89 -0.85,0.77 -0.41,-0.12 -0.69,-0.83 -0.94,-1.15 -0.86,-1.11 -1.45,-2.08 -3,-1.7 a 2.54,2.54 0 0 1 -1.61,0.05 c -0.5,-0.22 -0.77,-1 -0.34,-1.32 a 5.27,5.27 0 0 1 -3.38,0.63 c -1.12,-0.32 -1.92,-1.85 -1.12,-2.7 a 3.34,3.34 0 0 1 -1.56,-5.13 2.32,2.32 0 0 1 -0.85,-3.11 5.6,5.6 0 0 1 2.68,-2.29 12,12 0 0 0 3.12,-1.78 2.78,2.78 0 0 1 0.16,-3.89 5.47,5.47 0 0 1 4,-1.34 4.91,4.91 0 0 1 8.31,-4 c 1.27,-0.82 2.93,-0.49 4.39,-0.13 a 15.83,15.83 0 0 1 4.36,1.54 5.42,5.42 0 0 1 2.79,3.53 3.33,3.33 0 0 1 -2,3.73 3.54,3.54 0 0 1 0.92,1.8 c 0,0.68 -0.47,1.45 -1.16,1.38 a 7,7 0 0 1 -1,-0.4 3.36,3.36 0 0 0 -1.4,0.09 z" />
  <path
     id="path49"
     fill="#e0a194"
     d="m 134.34,71.99 h -0.49 a 0.52,0.52 0 0 0 -0.37,0 0.57,0.57 0 0 0 -0.17,0.4 29.66,29.66 0 0 0 -0.24,5.33 v 0 c 0,0 -5.06,-1.43 -4.73,-7.7 a 29.7,29.7 0 0 0 6,1.93 z" />
  <path
     id="path51"
     fill="#ffbbab"
     d="m 195.25,91.09 c -1.09,0.65 -2.57,0.81 -3.27,1.88 -0.84,1.26 -0.1,2.9 0.06,4.4 a 6.36,6.36 0 0 1 -1.46,4.57 7.87,7.87 0 0 1 -1,1.09 9.76,9.76 0 0 1 -6,2 c 0,0 -1.07,-4.8 -1,-5.29 0.19,-1.65 1.38,-3.18 1.61,-4.92 a 53.29,53.29 0 0 1 0.65,-5.52 11.65,11.65 0 0 1 6.74,-7.97 c 0.42,-0.18 1,-0.27 1.23,0.13 a 0.83,0.83 0 0 1 0.05,0.54 v 0 c -0.3,1.9 -1.59,3.49 -2.83,5 a 14.14,14.14 0 0 1 3.51,-1.31 c 0.54,-0.13 1.34,0 1.33,0.53 0,0.27 -0.23,0.47 -0.43,0.64 -1.11,1 -2.21,1.9 -3.33,2.84 a 10,10 0 0 1 4.11,-0.34 1.11,1.11 0 0 1 0.64,0.23 c 0.37,0.47 -0.08,1.19 -0.61,1.5 z" />
  <path
     id="path53"
     fill="#e0a194"
     d="m 195.25,91.09 c -1.09,0.65 -2.57,0.81 -3.27,1.88 -0.84,1.26 -0.1,2.9 0.06,4.4 a 6.36,6.36 0 0 1 -1.46,4.57 6.17,6.17 0 0 1 -1.23,0.53 1.36,1.36 0 0 1 -0.93,0 1.2,1.2 0 0 1 -0.53,-1.45 9.1,9.1 0 0 1 0.76,-1.49 3.74,3.74 0 0 0 0.22,-2.75 5.83,5.83 0 0 1 -0.64,-2.26 3.42,3.42 0 0 1 0.58,-1.35 l 1,-1.64 a 2.22,2.22 0 0 0 0.36,-0.8 0.71,0.71 0 0 0 -0.35,-0.75 1,1 0 0 0 -0.92,0.22 c -0.56,0.38 -1.91,2 -1.71,0.47 a 9.23,9.23 0 0 1 1.22,-3 33.74,33.74 0 0 1 3.83,-5.23 4.78,4.78 0 0 1 0.51,-0.49 v 0 c -0.3,1.9 -1.59,3.49 -2.83,5 a 14.14,14.14 0 0 1 3.51,-1.31 c 0.54,-0.13 1.34,0 1.33,0.53 0,0.27 -0.23,0.47 -0.43,0.64 -1.11,1 -2.21,1.9 -3.33,2.84 a 10,10 0 0 1 4.11,-0.34 1.11,1.11 0 0 1 0.64,0.23 c 0.48,0.52 0.03,1.24 -0.5,1.55 z" />
  <path
     id="path55"
     fill="#ffffff"
     d="m 184.79,105.59 a 37.45,37.45 0 0 1 -9.38,8.88 18.28,18.28 0 0 1 -8.69,2.86 3,3 0 0 1 -1.2,-0.17 3.24,3.24 0 0 1 -1.62,-1.19 9.53,9.53 0 0 1 -2.07,-5.49 c -0.07,-5.23 5.67,-8.12 5.67,-8.12 0,0 13,-3.78 14.51,-3.07 0.84,0.39 1.58,2.22 2.1,3.81 0.47,1.33 0.68,2.49 0.68,2.49 z" />
  <rect
     id="rect57"
     fill="#ffffff"
     transform="rotate(11.24)"
     rx="9.6800003"
     height="45.59"
     width="19.370001"
     y="60.300396"
     x="121.77344" />
  <path
     id="path59"
     fill="#ffffff"
     d="m 104.38,116 -22,-0.48 -1.47,11.7 c 0,0 26.22,8.6 31.66,4.14 5.44,-4.46 6.5,-7.49 6.5,-7.49 0,0 -2.37,-9.11 -14.69,-7.87 z" />
  <path
     id="path61"
     fill="#ffbbab"
     d="m 75.82,127.74 a 8.6,8.6 0 0 0 2.26,0.42 c 1,0.09 2.09,0.14 3.13,0.15 a 11.71,11.71 0 0 0 3.5,-0.36 4.82,4.82 0 0 0 2.8,-2 1.1,1.1 0 0 0 0.18,-0.58 c 0,-0.65 -0.88,-0.85 -1.54,-0.85 -3.13,0 -6.26,0 -9.39,0 -0.92,0 -2.74,-0.17 -3.06,1.06 -0.29,1.01 1.31,1.87 2.12,2.16 z" />
  <rect
     id="rect63"
     fill="#68e1fd"
     rx="1.62"
     height="3.24"
     width="43.349998"
     y="122.41"
     x="62.639999" />
  <path
     id="path65"
     opacity="0.1"
     fill="#020202"
     d="m 184.79,105.59 a 37.45,37.45 0 0 1 -9.38,8.88 18.28,18.28 0 0 1 -8.69,2.86 3,3 0 0 1 -1.2,-0.17 3.16,3.16 0 0 1 -0.55,0.14 c -3.94,0.68 -9,-2.43 -12.52,-5.13 v -0.08 l 1.45,-7.76 a 30.93,30.93 0 0 0 7.93,6.2 11.51,11.51 0 0 0 6.89,1.46 7,7 0 0 0 1.88,-0.51 61.44,61.44 0 0 0 13.51,-8.33 c 0.47,1.28 0.68,2.44 0.68,2.44 z" />
  <path
     id="path67"
     fill="#68e1fd"
     d="m 150.3,255.05 c 0,0 -1.1,2.72 0.25,4.31 1.35,1.59 15.33,10.28 24.73,3.28 9.4,-7 -12.7,-7.89 -12.7,-7.89 z" />
  <path
     id="path69"
     fill="#ffffff"
     d="m 150.84,248.73 a 2,2 0 0 1 2.52,0.65 8.2,8.2 0 0 0 7.48,2.69 c 3.07,-0.74 4.29,-4.27 5.82,-4.29 1.53,-0.02 9.66,6.91 10.11,9.88 0.45,2.97 -3.69,5.15 -8.29,5.45 -4.6,0.3 -15,-2.9 -17,-5.31 -2,-2.41 -1.7,-7.55 -0.64,-9.07 z" />
  <circle
     id="circle71"
     fill="#68e1fd"
     r="4.5599999"
     cy="173.42"
     cx="241.25999" />
  <rect
     id="rect73"
     fill="#68e1fd"
     height="52.509998"
     width="2.0599999"
     y="116.34"
     x="240.06" />
  <polygon
     transform="translate(0,42)"
     id="polygon75"
     fill="#68e1fd"
     points="241.2,66.61 236.88,75.24 245.8,75.24 " />
  <path
     id="path77"
     fill="#68e1fd"
     d="m 245.58,132.99 h -4.26 v -2.15 h 4.26 a 4.14,4.14 0 0 0 4.14,-4.14 v -3.32 h 2.15 v 3.32 a 6.29,6.29 0 0 1 -6.29,6.29 z" />
  <rect
     id="rect79"
     fill="#68e1fd"
     height="6.8600001"
     width="6.8600001"
     y="119.22"
     x="247.38" />
  <path
     id="path81"
     fill="#68e1fd"
     d="m 242.19,148.17 h -2.15 v -3.84 a 3.19,3.19 0 0 0 -3.18,-3.18 6.29,6.29 0 0 1 -6.29,-6.29 v -8.77 h 2.15 v 8.81 a 4.15,4.15 0 0 0 4.14,4.14 5.33,5.33 0 0 1 5.33,5.33 z" />
  <rect
     id="rect83"
     fill="#68e1fd"
     transform="scale(-1)"
     rx="3.4300001"
     height="6.8600001"
     width="6.8600001"
     y="-131.01999"
     x="-235.08" />
  <rect
     id="rect85"
     fill="#68e1fd"
     rx="4.5100002"
     height="9.0299997"
     width="43.360001"
     y="179.44"
     x="220.44" />
  <rect
     id="rect87"
     fill="#68e1fd"
     rx="4.0300002"
     height="8.0699997"
     width="38.759998"
     y="187.03999"
     x="221.96001" />
  <rect
     id="rect89"
     fill="#68e1fd"
     rx="3.5"
     height="7"
     width="33.630001"
     y="193.63"
     x="224.53" />
  <rect
     style="fill:url(#linear-gradient-2)"
     id="rect91"
     fill="url(#linear-gradient-2)"
     rx="4.5100002"
     height="9.0299997"
     width="43.360001"
     y="179.44"
     x="220.44" />
  <rect
     style="fill:url(#linear-gradient-3)"
     id="rect93"
     fill="url(#linear-gradient-3)"
     rx="4.0300002"
     height="8.0699997"
     width="38.759998"
     y="187.03999"
     x="221.96001" />
  <rect
     style="fill:url(#linear-gradient-4)"
     id="rect95"
     fill="url(#linear-gradient-4)"
     rx="3.5"
     height="7"
     width="33.630001"
     y="193.63"
     x="224.53" />
  <path
     id="path97"
     fill="#68e1fd"
     d="M 97.64,120.75 89.13,97.83 a 2.35,2.35 0 0 0 -2.08,-1.5 l -31.37,-1.69 8.7,28 31,1.28 a 2.35,2.35 0 0 0 2.26,-3.17 z" />
  <path
     style="fill:url(#linear-gradient-5)"
     id="path99"
     fill="url(#linear-gradient-5)"
     d="M 97.58,120.67 88.93,97.33 a 1.48,1.48 0 0 0 -1.3,-1 l -31.95,-1.69 8.7,28 30.86,1.28 a 2.42,2.42 0 0 0 2.34,-3.25 z" />
  <path
     id="path101"
     fill="#68e1fd"
     d="M 95.58,121.2 86.84,97.64 a 2.06,2.06 0 0 0 -1.8,-1.31 L 56.4,94.8 a 2,2 0 0 0 -2.06,2.65 l 7.4,23.82 a 2.06,2.06 0 0 0 1.84,1.44 l 30,1.24 a 2,2 0 0 0 2,-2.75 z" />
</svg>
