<?xml version="1.0" encoding="UTF-8" standalone="no"?>
<svg
   xmlns:dc="http://purl.org/dc/elements/1.1/"
   xmlns:cc="http://creativecommons.org/ns#"
   xmlns:rdf="http://www.w3.org/1999/02/22-rdf-syntax-ns#"
   xmlns:svg="http://www.w3.org/2000/svg"
   xmlns="http://www.w3.org/2000/svg"
   xmlns:xlink="http://www.w3.org/1999/xlink"
   xmlns:sodipodi="http://sodipodi.sourceforge.net/DTD/sodipodi-0.dtd"
   xmlns:inkscape="http://www.inkscape.org/namespaces/inkscape"
   inkscape:version="1.0 (4035a4fb49, 2020-05-01)"
   height="369.39001"
   width="369.39001"
   sodipodi:docname="information_carousel_monochromatic.svg"
   version="1.1"
   viewBox="0 0 369.39 369.39001"
   data-name="Layer 1"
   id="Layer_1">
  <metadata
     id="metadata167">
    <rdf:RDF>
      <cc:Work
         rdf:about="">
        <dc:format>image/svg+xml</dc:format>
        <dc:type
           rdf:resource="http://purl.org/dc/dcmitype/StillImage" />
        <dc:title>1</dc:title>
      </cc:Work>
    </rdf:RDF>
  </metadata>
  <sodipodi:namedview
     inkscape:current-layer="Layer_1"
     inkscape:window-maximized="1"
     inkscape:window-y="201"
     inkscape:window-x="0"
     inkscape:cy="167.36092"
     inkscape:cx="109.89575"
     inkscape:zoom="1.2270458"
     showgrid="false"
     id="namedview165"
     inkscape:window-height="717"
     inkscape:window-width="1366"
     inkscape:pageshadow="2"
     inkscape:pageopacity="0"
     guidetolerance="10"
     gridtolerance="10"
     objecttolerance="10"
     borderopacity="1"
     bordercolor="#666666"
     pagecolor="#ffffff" />
  <defs
     id="defs16">
    <linearGradient
       gradientUnits="userSpaceOnUse"
       y2="-37.84"
       x2="214"
       y1="114.4"
       x1="13.54"
       id="linear-gradient">
      <stop
         id="stop2"
         offset="0.01" />
      <stop
         id="stop4"
         stop-opacity="0.69"
         offset="0.13" />
      <stop
         id="stop6"
         stop-opacity="0.32"
         offset="0.25" />
      <stop
         id="stop8"
         stop-opacity="0"
         offset="1" />
    </linearGradient>
    <linearGradient
       gradientTransform="translate(-10.97,9.92)"
       xlink:href="#linear-gradient"
       y2="-13.1"
       x2="406.17999"
       y1="279.97"
       x1="-90.519997"
       id="linear-gradient-2" />
    <linearGradient
       gradientTransform="translate(-10.97,9.92)"
       xlink:href="#linear-gradient"
       y2="-84.769997"
       x2="125.32"
       y1="119.81"
       x1="359.39999"
       id="linear-gradient-3" />
    <linearGradient
       gradientTransform="translate(-10.97,9.92)"
       xlink:href="#linear-gradient"
       y2="122.5"
       x2="-32.560001"
       y1="186.25"
       x1="424.17999"
       id="linear-gradient-4" />
    <linearGradient
       gradientTransform="translate(-10.97,9.92)"
       xlink:href="#linear-gradient"
       y2="262.54001"
       x2="114.04"
       y1="135.03"
       x1="393.16"
       id="linear-gradient-5" />
    <linearGradient
       gradientTransform="translate(-10.97,9.92)"
       xlink:href="#linear-gradient"
       y2="167.46001"
       x2="198.34"
       y1="169.36"
       x1="408.63"
       id="linear-gradient-6" />
    <linearGradient
       gradientTransform="translate(-10.97,9.92)"
       y2="-37.84"
       x2="214"
       y1="114.4"
       x1="13.54"
       gradientUnits="userSpaceOnUse"
       id="linearGradient992"
       xlink:href="#linear-gradient"
       inkscape:collect="always" />
  </defs>
  <title
     id="title18">1</title>
  <path
     id="path20"
     style="isolation:isolate"
     opacity="0.18"
     fill="#0088b6"
     d="m 27.03,216.17 c 10.86,-18.23 21.65,-36.48 26.64,-57 5.83,-24 2.47,-50.37 11.71,-73.54 7.65,-19.15 19.01,-41.71 37.58,-52.33 11.63,-6.68 25.44,-8.31 38.83,-9 31.3,-1.51 63.51,1.76 92.66,13.81 29.36,12.15 44.27,29.71 53.12,60.47 5.87,20.43 9.67,42.12 21.88,59.52 8.92,12.7 21.67,22.14 32.19,33.55 37.44,40.61 41.42,119.89 -15.75,145.41 -22.81,10.2 -48.63,10.61 -73.61,10.85 l -130.53,1.25 c -16.85,0.16 -35.93,4.18 -52.26,0.7 a 116.5,116.5 0 0 1 -47.37,-22.2 c -6.09,-4.74 -11.76,-10.22 -15.7,-16.88 -12.93,-21.86 -4.27,-50 7.76,-72.38 4.04,-7.48 8.44,-14.87 12.85,-22.23 z" />
  <ellipse
     id="ellipse22"
     style="isolation:isolate"
     opacity="0.47"
     fill="#ffffff"
     ry="31.83"
     rx="136.07001"
     cy="311.92001"
     cx="180.55" />
  <polygon
     transform="translate(0,24)"
     id="polygon24"
     fill="#0088b6"
     points="176.85,271.01 118.7,271.01 126.74,285.34 86.56,285.34 86.56,284.34 125.03,284.34 117,270.01 177.26,270.01 210.68,303.42 243.43,303.42 225.75,287.42 257.47,287.42 247.27,277.21 247.97,276.51 259.89,288.42 228.34,288.42 246.02,304.42 210.26,304.42 " />
  <polygon
     transform="translate(0,24)"
     id="polygon26"
     fill="#0088b6"
     points="197.74,290.69 197.74,291.69 181.75,291.69 202.66,312.59 201.95,313.3 179.34,290.69 " />
  <polygon
     transform="translate(0,24)"
     id="polygon28"
     fill="#0088b6"
     points="115.74,284.57 123.63,297.45 160.66,297.45 166.32,306.13 165.48,306.68 160.12,298.45 123.07,298.45 114.89,285.1 " />
  <polygon
     transform="translate(0,24)"
     id="polygon30"
     fill="#0088b6"
     points="76.98,297.45 91.85,297.45 84.14,280.6 85.05,280.19 93.41,298.45 76.98,298.45 " />
  <path
     id="path32"
     fill="#0088b6"
     d="m 247.77,301.41 c -1.83,0 -4.94,-0.38 -4.94,-1.81 0,-1.43 3.11,-1.82 4.94,-1.82 1.83,0 4.94,0.38 4.94,1.82 0,1.44 -3.1,1.81 -4.94,1.81 z m 0,-2.63 c -2.34,0 -3.81,0.55 -4,0.85 0.14,0.23 1.61,0.78 4,0.78 2.39,0 3.72,-0.51 3.93,-0.81 -0.21,-0.3 -1.67,-0.82 -3.93,-0.82 z" />
  <path
     id="path34"
     fill="#0088b6"
     d="m 202.67,340.08 c -1.83,0 -4.94,-0.38 -4.94,-1.82 0,-1.44 3.11,-1.82 4.94,-1.82 1.83,0 4.94,0.39 4.94,1.82 0,1.43 -3.1,1.82 -4.94,1.82 z m 0,-2.64 c -2.34,0 -3.81,0.55 -3.94,0.85 0.13,0.24 1.6,0.79 3.94,0.79 2.34,0 3.72,-0.52 3.93,-0.82 -0.21,-0.34 -1.66,-0.82 -3.93,-0.82 z" />
  <path
     id="path36"
     fill="#0088b6"
     d="m 166.8,333.54 c -1.84,0 -4.94,-0.39 -4.94,-1.82 0,-1.43 3.1,-1.82 4.94,-1.82 1.84,0 4.94,0.39 4.94,1.82 0,1.43 -3.11,1.82 -4.94,1.82 z m 0,-2.64 c -2.34,0 -3.81,0.55 -4,0.85 0.14,0.24 1.61,0.79 4,0.79 2.39,0 3.72,-0.52 3.93,-0.82 -0.21,-0.3 -1.7,-0.8 -3.93,-0.8 z" />
  <path
     id="path38"
     fill="#0088b6"
     d="m 73.43,323.76 c -1.84,0 -4.94,-0.38 -4.94,-1.82 0,-1.44 3.1,-1.81 4.94,-1.81 1.84,0 4.94,0.38 4.94,1.81 0,1.43 -3.11,1.82 -4.94,1.82 z m 0,-2.63 c -2.34,0 -3.81,0.55 -4,0.84 0.14,0.24 1.61,0.79 4,0.79 2.39,0 3.72,-0.51 3.93,-0.82 -0.21,-0.3 -1.66,-0.81 -3.93,-0.81 z" />
  <path
     id="path40"
     fill="#0088b6"
     d="m 84.8,304.92 c -1.83,0 -4.94,-0.39 -4.94,-1.82 0,-1.43 3.11,-1.82 4.94,-1.82 1.83,0 4.94,0.38 4.94,1.82 0,1.44 -3.1,1.82 -4.94,1.82 z m 0,-2.64 c -2.34,0 -3.81,0.55 -3.94,0.85 0.13,0.23 1.6,0.79 3.94,0.79 2.34,0 3.72,-0.52 3.93,-0.82 -0.21,-0.34 -1.7,-0.86 -3.93,-0.86 z" />
  <path
     id="path42"
     opacity="0.1"
     fill="#020202"
     d="m 131.14,309.33 a 3.82,3.82 0 0 0 -2,1.86 c -1,2.64 3.32,4.91 2.72,7.67 -0.73,3.28 -6.48,1.84 -8.47,4.55 -1.28,1.73 -0.19,4.37 1.65,5.49 1.84,1.12 4.12,1.12 6.27,1.1 q 36.44,-0.42 72.84,-2.46 c 15.58,-0.87 31.55,-2.05 45.73,-8.56 a 5.17,5.17 0 0 0 2.82,-2.27 4.36,4.36 0 0 0 -0.54,-3.83 c -3.61,-6.43 -12.28,-7.48 -19.65,-7.77 1.21,-3.3 -1,-7.06 -4.1,-8.78 -3.1,-1.72 -6.73,-1.88 -10.25,-2 l -10.81,-0.41 c -4.44,-0.17 -9.21,-0.24 -12.88,2.24 -3,2 -4.75,5.41 -7.51,7.71 -6.44,5.35 -16,3.4 -24.11,1.44 -5.41,-1.31 -11.55,-2.45 -17,-0.89 -2.34,0.67 -4.07,2.37 -6.27,3.12 -2.81,0.92 -5.69,0.38 -8.44,1.79 z" />
  <path
     id="path44"
     fill="#ffbbab"
     d="m 152.64,289.04 c -1.06,2.32 -2.15,4.72 -2.13,7.27 a 12.45,12.45 0 0 0 2.55,6.94 21.3,21.3 0 0 0 13.4,8.56 3.08,3.08 0 0 0 2.12,-0.16 2.71,2.71 0 0 0 1,-1.25 c 1.21,-2.64 0.59,-5.75 -0.33,-8.51 -0.92,-2.76 -2.16,-5.5 -2.12,-8.41 0.07,-5.46 7.57,-16.27 -1.6,-18.58 -7.65,-1.98 -10.6,9.19 -12.89,14.14 z" />
  <path
     id="path46"
     fill="#ffbbab"
     d="m 202.47,280.6 c -0.75,2.43 -1.5,5 -1.15,7.48 a 12.47,12.47 0 0 0 3.46,6.54 21.31,21.31 0 0 0 14.41,6.7 3.12,3.12 0 0 0 2.09,-0.44 2.69,2.69 0 0 0 0.83,-1.38 c 0.85,-2.78 -0.18,-5.77 -1.46,-8.38 -1.28,-2.61 -2.87,-5.17 -3.22,-8.06 -0.66,-5.42 5.34,-17.13 -4.06,-18.2 -7.85,-0.94 -9.29,10.52 -10.9,15.74 z" />
  <path
     id="path48"
     fill="#282328"
     d="m 187.8,186.42 c 6.27,5.71 12.38,11.63 18.22,17.78 a 152.44,152.44 0 0 1 10.07,11.94 c 4.78,6.16 6.55,11.12 6.82,19.08 0.41,11.8 0.8,23.74 -1.65,35.29 -0.58,2.72 -1.48,5.64 -3.8,7.17 -3.42,2.26 -8.33,0.13 -10.54,-3.33 -2.21,-3.46 -2.48,-7.76 -2.8,-11.86 -0.7,-8.85 -1.66,-18 -3.86,-26.67 -1.26,-4.94 -5.48,-6.46 -9.51,-9.13 -7.63,-5 -20.32,-11.77 -24.07,-20.62 a 151.05,151.05 0 0 1 -6.3,-19.88 z" />
  <path
     id="path50"
     fill="#282328"
     d="m 175.36,187.46 q 3.67,12.63 6.89,25.4 c 1.66,6.55 3.26,13.13 4.6,19.75 1.13,5.63 3.62,13.94 2.42,19.48 a 25.27,25.27 0 0 1 -2.93,6.78 l -12.84,23.11 a 10.74,10.74 0 0 1 -2.91,3.77 c -2.67,1.87 -8.62,-1.05 -10.82,-2.89 -2.2,-1.84 -2.82,-4.38 -2.68,-7.18 0.71,-13.94 7.83,-20.17 8.92,-34.09 0,0 -26.83,-23.87 -23.53,-54 3.3,-30.13 32.88,-0.13 32.88,-0.13 z" />
  <path
     id="path52"
     fill="#ffffff"
     d="m 212.27,140.13 c -0.17,2.91 -1.11,5.45 -3.64,6.29 a 4.11,4.11 0 0 1 -0.65,0.18 c -4.65,0.93 -10.75,-2.61 -15,-5.7 a 58.36,58.36 0 0 1 -5.08,-4.13 v -31.13 l 22.62,23.16 c 0,0 2.07,6.22 1.75,11.33 z" />
  <path
     id="path54"
     fill="#ffffff"
     d="m 193.03,140.8 a 120.53,120.53 0 0 0 -2,17.12 c -0.55,9.55 -1.88,19 -3.21,28.49 -9,1.88 -18.26,1.16 -27.42,-0.23 -3.2,-0.49 -6.38,-1.05 -9.54,-1.62 -1.07,-0.19 -2,-0.72 -3.1,-1 -5.26,-1.31 -7.38,-27.12 -7.86,-35.21 q -0.69,-11.55 -0.47,-23.11 c 0.11,-5.59 0.55,-11.63 4.2,-15.85 4.86,-5.62 14.25,-9.34 21.38,-10.65 a 24.06,24.06 0 0 1 7,-0.39 29.84,29.84 0 0 1 9.51,3.23 c 3.54,1.75 6.69,3.23 8.43,6.73 a 47.78,47.78 0 0 1 3.95,12.75 c 1.13,6.59 0.39,13.26 -0.87,19.74 z" />
  <path
     id="path56"
     opacity="0.1"
     fill="#020202"
     d="m 160.38,186.19 c -3.2,-0.49 -6.38,-1.05 -9.54,-1.62 -1.07,-0.19 -2,-0.72 -3.1,-1 -5.26,-1.31 -7.38,-27.12 -7.86,-35.21 l 12.68,-14.57 c 0,0 -3.53,42.03 7.82,52.4 z" />
  <path
     id="path58"
     fill="#ffbbab"
     d="m 176.71,92.1 a 5.18,5.18 0 0 1 -3.28,1.64 17.56,17.56 0 0 1 -3.16,0.06 h -0.59 a 0.63,0.63 0 0 0 -0.43,0.08 0.67,0.67 0 0 0 -0.19,0.47 35.22,35.22 0 0 0 -0.12,6.33 v 0 c 0,0.38 0.06,0.76 0.1,1.14 a 2.18,2.18 0 0 1 -0.1,1.19 2,2 0 0 1 -1.28,0.84 9.34,9.34 0 0 1 -2.86,0.49 c -2.08,0 -4,-1.05 -5.82,-2.05 A 59,59 0 0 0 158.41,91.5 c -0.67,-4.58 -1.88,-9.25 -1.38,-13.88 a 9,9 0 0 1 1.9,-5 c 1.67,-1.87 4.36,-2.48 6.87,-2.47 a 17.38,17.38 0 0 1 9.43,2.58 c 1,0.71 1.16,1.61 1.4,2.79 0.36,1.82 0.65,3.66 0.85,5.5 q 0.35,3.15 0.39,6.33 c 0.02,1.64 -0.08,3.47 -1.16,4.75 z" />
  <path
     id="path60"
     fill="#fc682d"
     d="m 173.03,73.78 c -2.37,0.4 -5,0 -7.18,0.9 -3.12,1.27 -4.45,5.32 -3.41,8.52 -0.9,0.33 -1.06,-1.3 -1.76,-2 -0.7,-0.7 -2.27,0.22 -2.38,1.35 a 6.8,6.8 0 0 0 1,3.21 9.57,9.57 0 0 1 0.42,6.31 c -0.14,0.49 -0.5,1.07 -1,0.94 -0.5,-0.13 -0.84,-1 -1.14,-1.33 a 13.18,13.18 0 0 0 -1.57,-1.6 c -1.1,-1 -2.31,-1.81 -3.43,-2.75 -2,-1.67 -3.85,-3.93 -3.73,-6.53 a 5.78,5.78 0 0 1 1,-3 6.72,6.72 0 0 1 1.94,-1.89 c 0.32,-0.2 0.68,-0.42 0.75,-0.78 a 1.4,1.4 0 0 0 -0.07,-0.61 c -0.69,-2.64 0.78,-5.47 2.95,-7.11 a 17.29,17.29 0 0 1 7.61,-2.71 c 1.74,-0.31 3.5,-0.56 5.25,-0.76 a 11.81,11.81 0 0 0 4.21,-1 11.64,11.64 0 0 0 -1.39,-2.69 13.88,13.88 0 0 1 3.51,1.67 5.61,5.61 0 0 0 -0.47,-1.75 c 1.91,0.65 3.92,1.38 5.18,3 a 6.21,6.21 0 0 1 0.18,7 c -1.35,2.13 -3.48,3 -5.83,3.55 z" />
  <path
     id="path62"
     fill="#e0a194"
     d="m 170.27,93.8 h -0.59 a 0.63,0.63 0 0 0 -0.43,0.08 0.67,0.67 0 0 0 -0.19,0.47 35.22,35.22 0 0 0 -0.12,6.33 v 0 c 0,0 -6,-1.54 -5.84,-9 a 35.32,35.32 0 0 0 7.13,2.12 z" />
  <path
     id="path64"
     fill="#ffbbab"
     d="m 243.09,114.57 c -1.28,0.81 -3,1 -3.83,2.34 -0.95,1.51 0,3.44 0.21,5.21 a 7.5,7.5 0 0 1 -1.54,5.46 8.69,8.69 0 0 1 -1.24,1.33 11.58,11.58 0 0 1 -7,2.59 c 0,0 -1.41,-5.66 -1.37,-6.24 0.17,-2 1.54,-3.82 1.76,-5.89 a 65,65 0 0 1 0.6,-6.56 13.81,13.81 0 0 1 7.75,-9.65 c 0.49,-0.22 1.19,-0.35 1.46,0.12 a 1,1 0 0 1 0.07,0.64 v 0 c -0.3,2.27 -1.78,4.19 -3.21,6 a 16.58,16.58 0 0 1 4.12,-1.67 c 0.64,-0.17 1.59,-0.07 1.6,0.59 a 1.16,1.16 0 0 1 -0.49,0.78 l -3.86,3.46 a 12,12 0 0 1 4.86,-0.53 1.27,1.27 0 0 1 0.76,0.26 c 0.48,0.51 -0.04,1.38 -0.65,1.76 z" />
  <path
     id="path66"
     fill="#e0a194"
     d="m 243.09,114.57 c -1.28,0.81 -3,1 -3.83,2.34 -0.95,1.51 0,3.44 0.21,5.21 a 7.5,7.5 0 0 1 -1.54,5.46 7.27,7.27 0 0 1 -1.44,0.67 1.64,1.64 0 0 1 -1.11,0.09 1.43,1.43 0 0 1 -0.67,-1.7 11,11 0 0 1 0.86,-1.8 4.43,4.43 0 0 0 0.17,-3.26 7,7 0 0 1 -0.83,-2.66 4,4 0 0 1 0.65,-1.62 l 1.17,-2 a 2.46,2.46 0 0 0 0.4,-1 0.85,0.85 0 0 0 -0.43,-0.88 1.19,1.19 0 0 0 -1.09,0.29 c -0.65,0.47 -2.2,2.46 -2,0.61 a 11,11 0 0 1 1.35,-3.55 39.77,39.77 0 0 1 4.39,-6.31 4.66,4.66 0 0 1 0.58,-0.6 v 0 c -0.3,2.27 -1.78,4.19 -3.21,6 a 16.58,16.58 0 0 1 4.12,-1.67 c 0.64,-0.17 1.59,-0.07 1.6,0.59 a 1.16,1.16 0 0 1 -0.49,0.78 l -3.86,3.46 a 12,12 0 0 1 4.86,-0.53 1.27,1.27 0 0 1 0.76,0.26 c 0.51,0.57 -0.01,1.44 -0.62,1.82 z" />
  <path
     id="path68"
     fill="#ffbbab"
     d="m 87.4,113.3 c 1.28,0.81 3,1.05 3.83,2.34 1,1.51 0,3.44 -0.21,5.21 a 7.5,7.5 0 0 0 1.54,5.46 8.69,8.69 0 0 0 1.24,1.33 11.58,11.58 0 0 0 7,2.59 c 0,0 1.41,-5.66 1.37,-6.24 -0.17,-2 -1.54,-3.82 -1.76,-5.89 a 65,65 0 0 0 -0.6,-6.56 13.81,13.81 0 0 0 -7.71,-9.62 c -0.49,-0.22 -1.19,-0.35 -1.46,0.12 a 1,1 0 0 0 -0.07,0.64 v 0 c 0.3,2.27 1.78,4.19 3.21,6 a 16.58,16.58 0 0 0 -4.12,-1.67 c -0.63,-0.17 -1.63,-0.09 -1.63,0.59 a 1.16,1.16 0 0 0 0.49,0.78 l 3.86,3.46 a 12,12 0 0 0 -4.86,-0.53 1.27,1.27 0 0 0 -0.76,0.26 c -0.49,0.48 0.03,1.35 0.64,1.73 z" />
  <path
     id="path70"
     fill="#e0a194"
     d="m 87.4,113.3 c 1.28,0.81 3,1.05 3.83,2.34 1,1.51 0,3.44 -0.21,5.21 a 7.5,7.5 0 0 0 1.54,5.46 7.27,7.27 0 0 0 1.44,0.67 1.64,1.64 0 0 0 1.11,0.09 1.43,1.43 0 0 0 0.67,-1.7 11,11 0 0 0 -0.86,-1.8 4.43,4.43 0 0 1 -0.17,-3.26 7,7 0 0 0 0.83,-2.66 4,4 0 0 0 -0.65,-1.62 l -1.17,-2 a 2.46,2.46 0 0 1 -0.4,-1 0.85,0.85 0 0 1 0.43,-0.88 1.19,1.19 0 0 1 1.09,0.29 c 0.65,0.47 2.2,2.46 2,0.61 a 11,11 0 0 0 -1.35,-3.55 39.77,39.77 0 0 0 -4.39,-6.31 4.66,4.66 0 0 0 -0.58,-0.6 v 0 c 0.3,2.27 1.78,4.19 3.21,6 a 16.58,16.58 0 0 0 -4.12,-1.67 c -0.62,-0.08 -1.62,0 -1.62,0.68 a 1.16,1.16 0 0 0 0.49,0.78 l 3.86,3.46 a 12,12 0 0 0 -4.86,-0.53 1.27,1.27 0 0 0 -0.76,0.26 c -0.49,0.48 0.03,1.35 0.64,1.73 z" />
  <path
     id="path72"
     fill="#ffffff"
     d="m 231.13,132.09 a 44.48,44.48 0 0 1 -10.86,10.83 21.68,21.68 0 0 1 -10.24,3.66 3.63,3.63 0 0 1 -1.43,-0.16 3.84,3.84 0 0 1 -2,-1.36 11.35,11.35 0 0 1 -2.62,-6.45 c -0.25,-6.2 6.47,-9.81 6.47,-9.81 0,0 15.3,-4.88 17.12,-4.08 1,0.43 1.94,2.58 2.6,4.45 0.61,1.56 0.96,2.92 0.96,2.92 z" />
  <rect
     id="rect74"
     fill="#ffffff"
     transform="rotate(41.86)"
     rx="11.49"
     height="54.09"
     width="22.969999"
     y="-23.703716"
     x="179.93407" />
  <path
     id="path76"
     fill="#ffffff"
     d="m 126.47,134.23 -22.21,-13.8 -8.56,11.07 c 0,0 21.57,24.61 29.81,23.34 8.24,-1.27 11.17,-3.71 11.17,-3.71 0,0 3.11,-10.72 -10.21,-16.9 z" />
  <path
     id="path78"
     opacity="0.1"
     fill="#020202"
     d="m 231.13,132.09 a 44.48,44.48 0 0 1 -10.86,10.83 21.68,21.68 0 0 1 -10.24,3.66 3.63,3.63 0 0 1 -1.43,-0.16 4.11,4.11 0 0 1 -0.65,0.18 c -4.65,0.93 -10.75,-2.61 -15,-5.7 v -0.1 l 1.44,-9.3 a 36.66,36.66 0 0 0 9.59,7.11 13.72,13.72 0 0 0 8.22,1.52 8.52,8.52 0 0 0 2.21,-0.67 72.29,72.29 0 0 0 15.76,-10.29 c 0.61,1.56 0.96,2.92 0.96,2.92 z" />
  <path
     id="path80"
     fill="#0088b6"
     d="m 198.35,288.51 c 0,0 -2.3,2.61 -1.4,4.92 0.9,2.31 13.13,17.51 26.4,13.36 13.27,-4.15 -11.19,-13.87 -11.19,-13.87 z" />
  <path
     id="path82"
     fill="#ffffff"
     d="m 201.44,281.64 a 2.36,2.36 0 0 1 2.56,1.72 c 0.6,2 3.61,5.55 7.33,5.93 3.72,0.38 6.47,-3.09 8.19,-2.51 1.72,0.58 8.11,11.51 7.45,15 -0.66,3.49 -6.16,4.33 -11.42,2.86 -5.26,-1.47 -15.65,-9.12 -16.92,-12.6 -1.27,-3.48 1.02,-9.12 2.81,-10.4 z" />
  <path
     id="path84"
     opacity="0.33"
     fill="#ffffff"
     d="m 176.6,63.51 a 0.73,0.73 0 0 1 -1,0.4 2.29,2.29 0 0 1 -0.88,-0.73 5,5 0 0 0 -0.11,3 3.88,3.88 0 0 1 -0.37,2.91 c -0.26,0.35 -0.62,0.6 -0.9,0.93 a 1.32,1.32 0 0 0 -0.41,1.17 c 0.17,0.68 1.05,0.88 1.74,0.77 a 4.36,4.36 0 0 0 2.89,-1.78 8.23,8.23 0 0 0 1.14,-3.81 c 0.14,-1.17 0.36,-2.23 -0.45,-3.15 -0.22,-0.25 -1.1,-1.06 -1.45,-0.9 -0.49,0.19 -0.09,0.74 -0.2,1.19 z" />
  <path
     id="path86"
     opacity="0.33"
     fill="#ffffff"
     d="m 176.14,84.58 c -0.06,0.07 -0.13,0.14 -0.19,0.22 a 1.26,1.26 0 0 0 0,1.22 3.64,3.64 0 0 0 0.79,1 c 0.08,0.07 0.16,0.15 0.26,0.14 0.1,-0.01 0.21,-0.14 0.26,-0.26 a 7.17,7.17 0 0 0 0.21,-3.13 c -0.14,-1.6 -0.33,-3.16 -0.57,-4.72 a 11.2,11.2 0 0 0 -1,-4.2 1.64,1.64 0 0 0 -2,-0.63 c -1.12,0.48 -0.39,1.72 -0.08,2.53 a 14.42,14.42 0 0 1 0.54,3.07 4.84,4.84 0 0 0 1.16,2.85 6.73,6.73 0 0 1 0.72,0.69 0.93,0.93 0 0 1 0.17,0.94 1.14,1.14 0 0 1 -0.27,0.28 z" />
  <path
     id="path88"
     opacity="0.33"
     fill="#ffffff"
     d="m 212.48,131.99 a 4.62,4.62 0 0 1 -1.43,0.15 4.88,4.88 0 0 1 -1.74,-0.67 18.83,18.83 0 0 1 -3.59,-2.32 6.45,6.45 0 0 1 -2.19,-3.57 c 2.76,0.77 5,3.34 7.85,3.32 a 9.24,9.24 0 0 0 2.68,-0.57 l 4.21,-1.35 c 2.87,-0.91 5.86,-1.84 8.83,-1.4 a 0.5,0.5 0 0 1 0.32,0.14 0.39,0.39 0 0 1 0.06,0.33 c -0.19,1.16 -1.48,1.36 -2.38,1.69 -1.4,0.52 -2.74,1.21 -4.14,1.74 a 61.11,61.11 0 0 1 -8.48,2.51 z" />
  <path
     id="path90"
     opacity="0.33"
     fill="#ffffff"
     d="m 180.59,115.4 a 37.05,37.05 0 0 1 6.14,14.2 c 0.65,3.27 0.91,6.76 2.79,9.5 1.31,-0.8 1.53,-2.58 1.54,-4.11 a 89.58,89.58 0 0 0 -1.65,-15.2 32.52,32.52 0 0 0 -1.74,-7.09 16.48,16.48 0 0 0 -12.18,-9.78 1.26,1.26 0 0 0 -1.77,1.58 12.93,12.93 0 0 0 4.55,8.13" />
  <path
     style="fill:url(#linearGradient992)"
     id="path92"
     fill="url(#linear-gradient)"
     d="M 102.21,33.92 V 86 C 67.28,80.24 44.47,70.73 44.47,60 c 0,-10.73 22.81,-20.3 57.74,-26.08 z" />
  <path
     style="fill:url(#linear-gradient-2)"
     id="path94"
     fill="url(#linear-gradient-2)"
     d="m 142.2,90.52 v 199.4 c -14.48,-1 -27.95,-2.53 -40,-4.52 -34.93,-5.76 -57.74,-15.27 -57.74,-26 V 59.97 c 0,10.76 22.81,20.27 57.74,26 12.05,2.02 25.52,3.56 40,4.55 z" />
  <path
     style="fill:url(#linear-gradient-3)"
     id="path96"
     fill="url(#linear-gradient-3)"
     d="M 252.21,33.92 V 86 c 34.93,-5.76 57.74,-15.27 57.74,-26 0,-10.73 -22.81,-20.3 -57.74,-26.08 z" />
  <path
     style="fill:url(#linear-gradient-4)"
     id="path98"
     fill="url(#linear-gradient-4)"
     d="m 212.22,90.52 v 199.4 c 14.48,-1 27.95,-2.53 40,-4.52 34.93,-5.76 57.74,-15.27 57.74,-26 V 59.97 c 0,10.76 -22.81,20.27 -57.74,26 -12.05,2.02 -25.52,3.56 -40,4.55 z" />
  <path
     style="fill:url(#linear-gradient-5)"
     id="path100"
     fill="url(#linear-gradient-5)"
     d="m 239.47,131.16 v 142.41 c 10.34,-0.71 20,-1.81 28.56,-3.23 24.95,-4.11 41.24,-10.9 41.24,-18.59 V 109.34 c 0,7.69 -16.29,14.48 -41.24,18.59 -8.59,1.42 -18.22,2.52 -28.56,3.23 z" />
  <path
     id="path102"
     fill="#ffffff"
     d="m 252.21,117.98 v 142.41 c 10.34,-0.7 20,-1.8 28.56,-3.22 24.95,-4.12 41.24,-10.91 41.24,-18.6 V 96.16 c 0,7.69 -16.29,14.48 -41.24,18.6 -8.6,1.42 -18.22,2.52 -28.56,3.22 z" />
  <path
     style="fill:url(#linear-gradient-6)"
     id="path104"
     fill="url(#linear-gradient-6)"
     d="m 252.21,117.98 v 142.41 c 10.34,-0.7 20,-1.8 28.56,-3.22 24.95,-4.12 41.24,-10.91 41.24,-18.6 V 96.16 c 0,7.69 -16.29,14.48 -41.24,18.6 -8.6,1.42 -18.22,2.52 -28.56,3.22 z" />
  <line
     id="line106"
     fill="none"
     y2="289.91"
     x2="142.21001"
     y1="299.10999"
     x1="142.21001" />
  <line
     id="line108"
     fill="none"
     y2="80.630005"
     x2="142.21001"
     y1="90.519997"
     x1="142.21001" />
  <ellipse
     id="ellipse110"
     fill="#0088b6"
     transform="rotate(-4.05)"
     ry="43.700001"
     rx="20.93"
     cy="176.47777"
     cx="49.890915" />
  <ellipse
     id="ellipse112"
     fill="#0088b6"
     transform="rotate(-4.05)"
     ry="43.700001"
     rx="20.93"
     cy="176.47777"
     cx="49.890915" />
  <ellipse
     id="ellipse114"
     opacity="0.29"
     fill="#020202"
     transform="rotate(-4.05)"
     ry="43.700001"
     rx="20.93"
     cy="176.47777"
     cx="49.890915" />
  <path
     id="path116"
     fill="#0088b6"
     d="m 75.33,194.56 c -2.78,12.77 -8.8,21.58 -16.34,22.12 -11.53,0.82 -22.26,-18 -24,-42.11 -1.74,-24.11 6.26,-44.26 17.79,-45.08 11.53,-0.82 22.27,18 24,42.12 a 82,82 0 0 1 -1.45,22.95 z" />
  <path
     id="path118"
     fill="#0088b6"
     d="m 309.66,135.44 -0.35,-0.93 a 33.52,33.52 0 0 0 7,-3.43 l 0.57,0.83 a 34.66,34.66 0 0 1 -7.22,3.53 z" />
  <path
     id="path120"
     fill="#0088b6"
     d="m 294.74,139.53 -0.2,-1 c 2.07,-0.44 4.08,-0.9 6,-1.37 l 0.25,1 c -1.94,0.48 -3.96,0.94 -6.05,1.37 z" />
  <path
     id="path122"
     fill="#0088b6"
     d="m 268.45,143.41 -0.09,-1 c 0.05,0 5.07,-0.44 11.89,-1.4 l 0.14,1 c -6.85,0.91 -11.89,1.39 -11.94,1.4 z" />
  <path
     id="path124"
     fill="#0088b6"
     d="m 277.69,157.46 -0.08,-1 c 0,0 2.94,-0.23 7.2,-0.81 8.23,-1.14 23.27,-3.88 31.52,-9.47 l 0.57,0.82 c -8.42,5.71 -23.63,8.49 -31.95,9.64 -4.3,0.59 -7.23,0.82 -7.26,0.82 z" />
  <path
     id="path126"
     fill="#0088b6"
     d="m 306.86,144.92 -0.3,-1 a 38.46,38.46 0 0 0 9.77,-4.33 l 0.57,0.82 a 39.15,39.15 0 0 1 -10.04,4.51 z" />
  <path
     id="path128"
     fill="#0088b6"
     d="m 291.19,148.47 -0.11,-1 a 88.24,88.24 0 0 0 11.54,-2.36 l 0.25,1 a 92,92 0 0 1 -11.68,2.36 z" />
  <path
     id="path130"
     fill="#0088b6"
     d="m 270.49,150.92 -0.06,-1 c 0.07,0 6.53,-0.4 14.71,-1.52 l 0.13,1 c -8.24,1.13 -14.71,1.52 -14.78,1.52 z" />
  <path
     id="path132"
     fill="#0088b6"
     d="m 279.03,172.37 -0.08,-1 c 0.25,0 25.35,-1.95 37.36,-10.1 l 0.57,0.83 c -12.22,8.29 -36.79,10.19 -37.85,10.27 z" />
  <path
     id="path134"
     fill="#0088b6"
     d="m 279.03,165.44 -0.08,-1 c 0.25,0 25.35,-2 37.36,-10.11 l 0.57,0.83 c -12.22,8.3 -36.79,10.2 -37.85,10.28 z" />
  <path
     id="path136"
     fill="#0088b6"
     d="m 268.43,188.69 v -1 c 0.26,0 26.86,-1.54 40.11,-7.6 l 0.42,0.9 c -13.48,6.15 -40.26,7.68 -40.53,7.7 z" />
  <path
     id="path138"
     fill="#0088b6"
     d="m 280.35,202.38 -0.07,-1 c 0.24,0 24,-1.78 36.05,-9.92 l 0.57,0.82 c -12.24,8.3 -36.31,10.08 -36.55,10.1 z" />
  <path
     id="path140"
     fill="#0088b6"
     d="m 280.35,195.05 -0.07,-1 c 0.24,0 24,-1.77 36.05,-9.92 l 0.57,0.83 c -12.24,8.3 -36.31,10.08 -36.55,10.09 z" />
  <path
     id="path142"
     fill="#0088b6"
     d="m 268.43,216 v -1 c 0.26,0 26.86,-1.53 40.11,-7.6 l 0.42,0.91 c -13.48,6.15 -40.26,7.68 -40.53,7.69 z" />
  <path
     id="path144"
     fill="#0088b6"
     d="m 280.35,229.69 -0.07,-1 c 0.24,0 24,-1.77 36.05,-9.92 l 0.57,0.83 c -12.24,8.32 -36.31,10.07 -36.55,10.09 z" />
  <path
     id="path146"
     fill="#0088b6"
     d="m 280.35,222.37 -0.07,-1 c 0.24,0 24,-1.78 36.05,-9.92 l 0.57,0.82 c -12.24,8.3 -36.31,10.08 -36.55,10.1 z" />
  <path
     id="path148"
     fill="#0088b6"
     d="M 75.33,194.56 52.81,169.7 v -40.21 c 11.53,-0.82 22.27,18 24,42.12 a 82,82 0 0 1 -1.48,22.95 z" />
  <path
     id="path150"
     fill="#ffffff"
     d="M 75.33,194.56 52.81,169.7 v -40.21 c 11.53,-0.82 22.27,18 24,42.12 a 82,82 0 0 1 -1.48,22.95 z" />
  <path
     id="path152"
     fill="#0088b6"
     d="M 75.33,194.56 52.81,169.7 v -40.21 c 11.53,-0.82 22.27,18 24,42.12 a 82,82 0 0 1 -1.48,22.95 z" />
  <path
     id="path154"
     opacity="0.29"
     fill="#020202"
     d="M 75.33,194.56 52.81,169.7 v -40.21 c 11.53,-0.82 22.27,18 24,42.12 a 82,82 0 0 1 -1.48,22.95 z" />
  <path
     id="path156"
     fill="#0088b6"
     d="m 147.74,294.51 c 0,0 -2.72,2.16 -2.24,4.6 0.48,2.44 9.83,19.55 23.63,17.81 13.8,-1.74 -8.57,-15.59 -8.57,-15.59 z" />
  <path
     id="path158"
     fill="#ffffff"
     d="m 152.03,288.3 a 2.37,2.37 0 0 1 2.22,2.14 c 0.24,2.06 2.57,6.1 6.16,7.13 3.59,1.03 6.92,-1.9 8.51,-1 1.59,0.9 5.95,12.77 4.68,16.1 -1.27,3.33 -6.82,3.17 -11.74,0.79 -4.92,-2.38 -13.8,-11.73 -14.43,-15.38 -0.63,-3.65 2.6,-8.83 4.6,-9.78 z" />
  <path
     id="path160"
     fill="#0088b6"
     d="m 52.81,129.49 8.13,-0.53 c 0,0 13.45,-0.5 20.17,28.54 a 81.26,81.26 0 0 1 0.08,38.08 l -5.86,-1 c 0,0 5.49,-59.21 -22.52,-65.09 z" />
  <path
     id="path162"
     opacity="0.62"
     fill="#020202"
     d="m 52.81,129.49 8.13,-0.53 c 0,0 13.45,-0.5 20.17,28.54 a 81.26,81.26 0 0 1 0.08,38.08 l -5.86,-1 c 0,0 5.49,-59.21 -22.52,-65.09 z" />
</svg>
