<?xml version="1.0" encoding="UTF-8" standalone="no"?>
<svg
   xmlns:dc="http://purl.org/dc/elements/1.1/"
   xmlns:cc="http://creativecommons.org/ns#"
   xmlns:rdf="http://www.w3.org/1999/02/22-rdf-syntax-ns#"
   xmlns:svg="http://www.w3.org/2000/svg"
   xmlns="http://www.w3.org/2000/svg"
   xmlns:xlink="http://www.w3.org/1999/xlink"
   xmlns:sodipodi="http://sodipodi.sourceforge.net/DTD/sodipodi-0.dtd"
   xmlns:inkscape="http://www.inkscape.org/namespaces/inkscape"
   inkscape:version="1.0 (4035a4fb49, 2020-05-01)"
   height="378.97"
   width="378.97"
   sodipodi:docname="online_storage_monochromatic.svg"
   version="1.1"
   viewBox="0 0 378.97 378.96999"
   data-name="Layer 1"
   id="Layer_1">
  <metadata
     id="metadata162">
    <rdf:RDF>
      <cc:Work
         rdf:about="">
        <dc:format>image/svg+xml</dc:format>
        <dc:type
           rdf:resource="http://purl.org/dc/dcmitype/StillImage" />
        <dc:title>13</dc:title>
      </cc:Work>
    </rdf:RDF>
  </metadata>
  <sodipodi:namedview
     inkscape:current-layer="Layer_1"
     inkscape:window-maximized="1"
     inkscape:window-y="201"
     inkscape:window-x="0"
     inkscape:cy="259.78704"
     inkscape:cx="102.09592"
     inkscape:zoom="0.95903824"
     showgrid="false"
     id="namedview160"
     inkscape:window-height="717"
     inkscape:window-width="1366"
     inkscape:pageshadow="2"
     inkscape:pageopacity="0"
     guidetolerance="10"
     gridtolerance="10"
     objecttolerance="10"
     borderopacity="1"
     bordercolor="#666666"
     pagecolor="#ffffff" />
  <defs
     id="defs23">
    <linearGradient
       gradientUnits="userSpaceOnUse"
       y2="235.39"
       x2="32.619999"
       y1="249.86"
       x1="189.67"
       id="linear-gradient">
      <stop
         id="stop2"
         offset="0.01" />
      <stop
         id="stop4"
         stop-opacity="0.69"
         offset="0.13" />
      <stop
         id="stop6"
         stop-opacity="0.32"
         offset="0.25" />
      <stop
         id="stop8"
         stop-opacity="0"
         offset="1" />
    </linearGradient>
    <linearGradient
       gradientTransform="translate(0,40)"
       xlink:href="#linear-gradient"
       y2="200.12"
       x2="-29.49"
       y1="202.23"
       x1="221.08"
       id="linear-gradient-2" />
    <linearGradient
       gradientTransform="translate(-11.87,33.98)"
       xlink:href="#linear-gradient"
       y2="226.14"
       x2="292.51999"
       y1="204.03999"
       x1="220.45"
       id="linear-gradient-3" />
    <linearGradient
       gradientTransform="translate(0,40)"
       xlink:href="#linear-gradient"
       y2="130.97"
       x2="-26.879999"
       y1="157.42999"
       x1="225.10001"
       id="linear-gradient-4" />
    <linearGradient
       gradientTransform="translate(-11.87,33.98)"
       xlink:href="#linear-gradient"
       y2="191.05"
       x2="181.35001"
       y1="128.23"
       x1="226.88"
       id="linear-gradient-5" />
    <linearGradient
       gradientTransform="translate(-11.87,33.98)"
       xlink:href="#linear-gradient"
       y2="71.199997"
       x2="93.470001"
       y1="92.019997"
       x1="285.81"
       id="linear-gradient-6" />
    <linearGradient
       gradientTransform="translate(-11.87,33.98)"
       xlink:href="#linear-gradient"
       y2="200.35001"
       x2="270.45999"
       y1="237.14"
       x1="272.04001"
       id="linear-gradient-7" />
    <linearGradient
       gradientTransform="translate(-11.87,33.98)"
       xlink:href="#linear-gradient"
       y2="187.84"
       x2="274"
       y1="255.60001"
       x1="269.76001"
       id="linear-gradient-8" />
    <linearGradient
       gradientTransform="translate(0,40)"
       xlink:href="#linear-gradient"
       y2="307.22"
       x2="452.98001"
       y1="208.77"
       x1="155.5"
       id="linear-gradient-9" />
    <linearGradient
       gradientTransform="translate(0,40)"
       xlink:href="#linear-gradient"
       y2="298.17999"
       x2="430.16"
       y1="213.56"
       x1="174.47"
       id="linear-gradient-10" />
    <linearGradient
       gradientTransform="translate(-11.87,33.98)"
       xlink:href="#linear-gradient"
       y2="248.05"
       x2="292.10001"
       y1="248.05"
       x1="271.45001"
       id="linear-gradient-11" />
    <linearGradient
       xlink:href="#linear-gradient"
       y2="85.629997"
       x2="175.34"
       y1="129.84"
       x1="224.05"
       id="linear-gradient-12" />
    <linearGradient
       gradientTransform="translate(-11.87,33.98)"
       xlink:href="#linear-gradient"
       y2="296.41"
       x2="46.59"
       y1="223.36"
       x1="132.35001"
       id="linear-gradient-13" />
    <linearGradient
       gradientTransform="translate(0,40)"
       y2="235.39"
       x2="32.619999"
       y1="249.86"
       x1="189.67"
       gradientUnits="userSpaceOnUse"
       id="linearGradient987"
       xlink:href="#linear-gradient"
       inkscape:collect="always" />
  </defs>
  <title
     id="title25">13</title>
  <path
     id="path27"
     style="isolation:isolate"
     opacity="0.18"
     fill="#0088b6"
     d="m 266,87.82 c 7.21,13.39 14.55,28 20.13,42 5.67,14.24 17.89,26.28 29.14,36.25 12.42,11 25.92,20.79 37.61,32.56 11.69,11.77 21.67,26 24.92,42.24 3.68,18.38 -1.66,37.63 -10.81,54 a 59.09,59.09 0 0 1 -10.86,14.57 c -4.52,4.22 -10,7.29 -15.51,10.06 -14.76,7.38 -30.28,13.11 -46.67,15.32 -17.06,2.3 -34.41,1.28 -51.44,-0.83 -22.9,-2.83 -45.59,-7.62 -68.63,-9 -16.61,-1 -33.28,-0.18 -49.87,1.07 -17.75,1.33 -35.85,3.13 -53.16,-1 C 48.13,319.65 28.44,303.98 16.41,283.9 5.92,266.44 -5.87,233.24 3.31,213.66 c 9.78,-20.85 36.29,-35 53.65,-48.67 7,-5.53 14,-11.62 18,-19.62 4.46,-8.92 4.79,-19.25 6.64,-29 6,-31.75 30,-59.45 60.63,-69.87 43,-14.66 94.94,-4.93 120.28,35.34 1.23,1.92 2.39,3.94 3.49,5.98 z" />
  <polygon
     transform="translate(0,40)"
     id="polygon29"
     fill="#0088b6"
     points="284.46,242.52 291.7,242.52 291.7,177.74 263.78,177.74 263.78,81.98 238.15,81.98 238.15,81.29 264.47,81.29 264.47,177.05 292.4,177.05 292.4,243.21 284.46,243.21 " />
  <polygon
     transform="translate(0,40)"
     id="polygon31"
     fill="#0088b6"
     points="132.71,109.59 150.58,109.59 150.58,88.92 151.27,88.92 151.27,110.29 133.41,110.29 133.41,132.49 132.71,132.49 " />
  <rect
     id="rect33"
     fill="#0088b6"
     rx="10.43"
     height="39.169998"
     width="112.76"
     y="268.84"
     x="117.71" />
  <rect
     id="rect35"
     fill="#0088b6"
     rx="10.43"
     height="39.169998"
     width="112.76"
     y="222.25"
     x="117.71" />
  <rect
     style="fill:url(#linearGradient987)"
     id="rect37"
     fill="url(#linear-gradient)"
     rx="10.43"
     height="39.169998"
     width="112.76"
     y="268.84"
     x="117.71" />
  <rect
     style="fill:url(#linear-gradient-2)"
     id="rect39"
     fill="url(#linear-gradient-2)"
     rx="10.43"
     height="39.169998"
     width="112.76"
     y="222.25"
     x="117.71" />
  <rect
     id="rect41"
     fill="#0088b6"
     rx="10.43"
     height="39.169998"
     width="112.76"
     y="268.84"
     x="128.82001" />
  <path
     id="path43"
     fill="#0088b6"
     d="m 241.58,232.68 v 18.3 a 10.42,10.42 0 0 1 -10.45,10.45 h -91.87 a 10.43,10.43 0 0 1 -10.43,-10.45 v -18.3 a 10.43,10.43 0 0 1 10.43,-10.43 h 91.87 a 10.43,10.43 0 0 1 10.45,10.43 z" />
  <path
     style="fill:url(#linear-gradient-3)"
     id="path45"
     fill="url(#linear-gradient-3)"
     d="m 241.58,235.75 v 15.23 a 10.46,10.46 0 0 1 -4.08,8.28 c -0.08,-3.24 -0.26,-12.26 0,-16.26 a 9.88,9.88 0 0 1 4.08,-7.25 z" />
  <rect
     id="rect47"
     fill="#0088b6"
     rx="10.43"
     height="39.169998"
     width="112.76"
     y="172.49001"
     x="117.71" />
  <rect
     style="fill:url(#linear-gradient-4)"
     id="rect49"
     fill="url(#linear-gradient-4)"
     rx="10.43"
     height="39.169998"
     width="112.76"
     y="172.49001"
     x="117.71" />
  <rect
     id="rect51"
     fill="#0088b6"
     rx="10.43"
     height="39.169998"
     width="112.76"
     y="172.49001"
     x="128.82001" />
  <path
     style="fill:url(#linear-gradient-5)"
     id="path53"
     fill="url(#linear-gradient-5)"
     d="m 211.23,199.28 a 2,2 0 0 0 -1.15,2.2 c 0.1,0.89 0.52,1.73 0.66,2.61 0.41,2.57 -1.73,5.06 -4.24,5.71 -3.29,0.84 -6.66,-0.82 -9.58,-2.55 a 4.51,4.51 0 0 1 -1,-0.71 4.18,4.18 0 0 1 -0.82,-2.13 23.51,23.51 0 0 1 -0.53,-4.41 c 0,-3.39 1.49,-6.63 1.57,-10 a 12.6,12.6 0 0 0 -6.74,-11.29 40,40 0 0 0 -5.25,-1.89 31.58,31.58 0 0 1 -4.56,-2 c -0.92,-0.48 -1.93,-1.16 -2,-2.19 a 10,10 0 0 1 4.92,-0.84 h 29 a 2,2 0 0 1 1.06,0.19 2,2 0 0 1 0.7,1 c 1.94,4.65 1.71,9.8 2.11,14.73 a 30,30 0 0 0 1.33,7.09 c 0.41,1.25 1.75,3.64 0.91,4.95 -1.58,2.44 -4.61,-0.95 -6.39,-0.47 z" />
  <path
     id="path55"
     fill="#ffffff"
     d="m 238.13,115.81 a 13.11,13.11 0 0 1 -13.12,13.11 h -89.88 a 13.12,13.12 0 1 1 0,-26.23 h 3 a 25.85,25.85 0 0 1 24.89,-32.84 h 7.65 a 25.81,25.81 0 0 1 22.94,13.94 15.42,15.42 0 0 1 7.06,-1.7 h 2 a 15.55,15.55 0 0 1 15.55,15.55 v 0.77 a 15.53,15.53 0 0 1 -0.6,4.28 h 7.44 a 13.13,13.13 0 0 1 13.07,13.12 z" />
  <path
     style="fill:url(#linear-gradient-6)"
     id="path57"
     fill="url(#linear-gradient-6)"
     d="m 173.03,115.91 a 10.5,10.5 0 0 0 1.1,-2.48 72.4,72.4 0 0 1 3.37,-7.72 9.27,9.27 0 0 1 2.26,-3.18 c 1.81,-1.48 4.36,-1.52 6.7,-1.49 1.56,0 3.34,0.15 4.28,1.39 a 5,5 0 0 1 0.73,2.74 69.77,69.77 0 0 1 -2.63,23.81 q -6.45,0.33 -12.92,0.57 c -2.93,0.12 -8.78,1.52 -11.18,-0.58 -6.13,-5.34 6.26,-10.16 8.29,-13.06 z" />
  <path
     id="path59"
     fill="#ffffff"
     d="m 271.58,259.28 a 2.35,2.35 0 0 1 -2.35,-2.3 v -15.23 a 10,10 0 1 0 -20,0 v 15.23 a 2.35,2.35 0 0 1 -4.7,0 v -15.23 a 14.7,14.7 0 1 1 29.4,0 v 15.23 a 2.35,2.35 0 0 1 -2.35,2.3 z" />
  <path
     style="fill:url(#linear-gradient-7)"
     id="path61"
     fill="url(#linear-gradient-7)"
     d="m 273.93,241.75 v 15.23 a 2.33,2.33 0 0 1 -1.16,2 2.29,2.29 0 0 1 -1.19,0.33 2.35,2.35 0 0 1 -2.35,-2.33 v -15.23 a 10,10 0 0 0 -8.81,-9.93 11.7,11.7 0 0 0 -1.19,-0.07 10,10 0 0 0 -10,10 v 15.23 a 2.35,2.35 0 0 1 -1.16,2 2.32,2.32 0 0 1 -1.2,0.33 2.36,2.36 0 0 1 -2.35,-2.35 v -15.21 a 14.72,14.72 0 0 1 14.71,-14.7 11.71,11.71 0 0 1 1.19,0.06 14.7,14.7 0 0 1 13.51,14.64 z" />
  <path
     style="fill:url(#linear-gradient-8)"
     id="path63"
     fill="url(#linear-gradient-8)"
     d="m 273.93,241.75 v 15.23 a 1.34,1.34 0 1 1 -2.31,0 v -15.23 a 10,10 0 0 0 -10,-10 11.9,11.9 0 0 0 -1.2,0.07 11.7,11.7 0 0 0 -1.19,-0.07 10,10 0 0 0 -10,10 v 15.23 a 1.34,1.34 0 1 1 -2.32,0 v -15.23 a 13.55,13.55 0 1 1 27,0 z" />
  <rect
     id="rect65"
     fill="#0088b6"
     rx="9.04"
     height="51.880001"
     width="51.880001"
     y="256.91998"
     x="232.58" />
  <rect
     style="fill:url(#linear-gradient-9)"
     id="rect67"
     fill="url(#linear-gradient-9)"
     rx="9.0299997"
     height="51.869999"
     width="51.869999"
     y="256.92999"
     x="232.58" />
  <rect
     style="fill:url(#linear-gradient-10)"
     id="rect69"
     fill="url(#linear-gradient-10)"
     rx="9.0299997"
     height="51.869999"
     width="42.880001"
     y="256.92999"
     x="241.58" />
  <path
     style="fill:url(#linear-gradient-11)"
     id="path71"
     fill="url(#linear-gradient-11)"
     d="m 262.97,281.17 v 0 a 3.3,3.3 0 1 1 2,0 l 2.57,8.16 h -6.89 z" />
  <circle
     id="circle73"
     fill="#ffffff"
     r="4.4299998"
     cy="192.5"
     cx="146.49001" />
  <circle
     id="circle75"
     fill="#ffffff"
     r="4.4299998"
     cy="192.5"
     cx="159.81" />
  <circle
     id="circle77"
     fill="#ffffff"
     r="4.4299998"
     cy="192.5"
     cx="173.14" />
  <circle
     id="circle79"
     fill="#ffffff"
     r="4.4299998"
     cy="241.84"
     cx="146.49001" />
  <circle
     id="circle81"
     fill="#ffffff"
     r="4.4299998"
     cy="241.84"
     cx="159.81" />
  <circle
     id="circle83"
     fill="#ffffff"
     r="4.4299998"
     cy="241.84"
     cx="173.14" />
  <circle
     id="circle85"
     fill="#ffffff"
     r="4.4299998"
     cy="291.17999"
     cx="146.49001" />
  <circle
     id="circle87"
     fill="#ffffff"
     r="4.4299998"
     cy="291.17999"
     cx="159.81" />
  <circle
     id="circle89"
     fill="#ffffff"
     r="4.4299998"
     cy="291.17999"
     cx="173.14" />
  <path
     id="path91"
     fill="#ffbbab"
     d="m 214.13,189.61 a 8.52,8.52 0 0 0 0.2,3.63 6,6 0 0 0 2.27,2.73 10.21,10.21 0 0 0 7.43,1.72 1.45,1.45 0 0 0 0.94,-0.41 1.26,1.26 0 0 0 0.25,-0.73 5.59,5.59 0 0 0 -1.51,-3.79 12.59,12.59 0 0 1 -2.31,-3.47 c -0.84,-2.48 0.82,-8.57 -3.7,-8.15 -3.74,0.35 -3.29,5.84 -3.57,8.47 z" />
  <path
     id="path93"
     fill="#282328"
     d="m 197.72,155.84 a 84.15,84.15 0 0 1 10.26,1 c 6,0.92 9.84,3.47 11.32,9.49 1.36,5.5 2.72,11.07 2.7,16.74 a 5.19,5.19 0 0 1 -1.07,3.74 c -1.39,1.4 -3.91,0.88 -5.28,-0.52 -1.37,-1.4 -1.93,-3.41 -2.49,-5.3 -0.94,-3.21 -2.13,-10.82 -5.53,-11.67 -5.76,-1.44 -11.68,2.19 -17.32,0 a 25.57,25.57 0 0 1 -5.71,-2.84 10.6,10.6 0 0 1 -3.94,-4.9 11.44,11.44 0 0 1 -0.59,-3.29 14.13,14.13 0 0 1 0.06,-2.76 c 0.18,-1.06 0.36,-0.94 1.43,-0.93 1.81,0 3.61,0.14 5.41,0.31 3.58,0.3 7.16,0.83 10.75,0.93 z" />
  <path
     id="path95"
     fill="#0088b6"
     d="m 213.01,193.73 c 0,0 -0.82,1.45 -0.17,2.45 0.65,1 7.9,6.93 13.72,3.68 5.82,-3.25 -6.62,-5.4 -6.62,-5.4 z" />
  <path
     id="path97"
     fill="#ffffff"
     d="m 213.79,190.2 a 1.13,1.13 0 0 1 1.37,0.55 4.67,4.67 0 0 0 4,2.07 c 1.78,-0.19 2.74,-2.09 3.6,-2 0.86,0.09 4.94,4.61 5,6.32 0.06,1.71 -2.46,2.64 -5.08,2.47 -2.62,-0.17 -8.25,-2.74 -9.19,-4.25 a 5.57,5.57 0 0 1 0.3,-5.16 z" />
  <path
     id="path99"
     fill="#ffbbab"
     d="m 201.46,195.79 a 8.47,8.47 0 0 0 -0.4,3.62 5.92,5.92 0 0 0 1.79,3.06 10.17,10.17 0 0 0 7.05,2.92 1.48,1.48 0 0 0 1,-0.25 1.3,1.3 0 0 0 0.37,-0.68 5.63,5.63 0 0 0 -0.87,-4 12.48,12.48 0 0 1 -1.71,-3.8 c -0.43,-2.58 2.21,-8.32 -2.32,-8.65 -3.79,-0.26 -4.24,5.25 -4.91,7.78 z" />
  <path
     id="path101"
     fill="#473f47"
     d="m 190.75,159.79 a 85.59,85.59 0 0 1 10,2.61 c 5.73,1.89 9.13,5 9.61,11.22 0.43,5.65 0.86,11.37 -0.08,17 a 5.2,5.2 0 0 1 -1.67,3.51 c -1.6,1.15 -4,0.23 -5.13,-1.38 -1.13,-1.61 -1.34,-3.67 -1.58,-5.63 -0.41,-3.32 -0.33,-11 -3.55,-12.42 -3.4,-1.48 -7.19,-1 -10.8,-1.2 -1.88,-0.1 -3.86,-0.47 -5.7,-0.51 -6.15,-0.13 -7.43,-4.71 -7.64,-5.43 a 22.55,22.55 0 0 1 -1.14,-7.14 18.1,18.1 0 0 1 0.57,-3.51 c 0.23,-1.07 0.24,-1.19 1.4,-1 1.79,0.3 3.55,0.73 5.29,1.19 3.46,0.88 6.89,2 10.42,2.69 z" />
  <path
     id="path103"
     fill="#0088b6"
     d="m 199.64,199.67 c 0,0 -1,1.3 -0.57,2.39 0.43,1.09 6.65,8.13 12.93,5.87 6.28,-2.26 -5.64,-6.41 -5.64,-6.41 z" />
  <path
     id="path105"
     fill="#ffffff"
     d="m 200.98,196.32 a 1.14,1.14 0 0 1 1.27,0.77 4.66,4.66 0 0 0 3.63,2.7 c 1.79,0.1 3,-1.62 3.88,-1.38 0.88,0.24 4.12,5.36 3.87,7 -0.25,1.64 -2.86,2.2 -5.41,1.6 -2.55,-0.6 -7.69,-4.05 -8.37,-5.69 a 5.56,5.56 0 0 1 1.13,-5 z" />
  <polygon
     transform="translate(0,40)"
     id="polygon107"
     fill="#0088b6"
     points="208.27,125.47 223.95,116.62 212.78,113 197.27,118.66 " />
  <polygon
     transform="translate(0,40)"
     style="fill:url(#linear-gradient-12)"
     id="polygon109"
     fill="url(#linear-gradient-12)"
     points="208.27,125.47 223.95,116.62 212.78,113 197.27,118.66 " />
  <polygon
     transform="translate(0,40)"
     id="polygon111"
     fill="#0088b6"
     points="208.27,125.47 197.27,118.66 196.57,120.23 208.62,128.58 228.76,120.23 236.49,104.66 213.2,111.66 " />
  <path
     id="path113"
     fill="#ffffff"
     d="m 199.13,143.18 c -1.2,0.72 -2.46,1 -3.48,0.27 l -0.25,-0.21 c -1.62,-1.59 -1.88,-5 -1.81,-7.49 a 27.66,27.66 0 0 1 0.26,-3.13 l 6.12,-7.44 3.16,14.23 a 17.22,17.22 0 0 1 -4,3.77 z" />
  <path
     id="path115"
     fill="#ffffff"
     d="m 199.18,139.62 c -0.11,0.68 -0.12,1.4 -0.22,2.1 -0.55,3.82 -2,7.62 -1.45,11.53 a 4.11,4.11 0 0 1 -0.06,2.6 3.13,3.13 0 0 1 -1.82,1.3 c -3.64,1.35 -7.61,1.34 -11.49,1.31 -2.91,0 -7.09,0.23 -9.5,-1.7 a 4.82,4.82 0 0 1 -1.41,-3.37 58.9,58.9 0 0 1 0,-12.31 l 0.12,-1.6 q 0.5,-5.53 1.4,-11 c 0.45,-2.64 1.08,-5.48 3.11,-7.23 2.7,-2.33 7.42,-3.43 10.9,-3.56 a 11.52,11.52 0 0 1 3.37,0.29 14.42,14.42 0 0 1 4.29,2.2 c 1.56,1.08 2.95,2 3.53,3.79 a 23,23 0 0 1 1,6.33 21.86,21.86 0 0 1 -0.76,6 c -0.25,0.95 -0.64,1.88 -0.88,2.83 -0.07,0.14 -0.1,0.31 -0.13,0.49 z" />
  <path
     id="path117"
     opacity="0.1"
     fill="#020202"
     d="m 180.41,158.98 c -1.16,0.16 -3.56,-1.23 -4.39,-1.51 -0.49,-0.16 -0.92,-0.48 -1.4,-0.68 -2.44,-1 -1.69,-8.15 -1.66,-10.1 0.1,-5.15 -0.14,-10.53 0.55,-15.61 a 17.15,17.15 0 0 1 1.53,-5.69 6.73,6.73 0 0 1 4.41,-3.65 1.92,1.92 0 0 1 1.14,0 c 1.48,0.62 1.43,3.21 1.51,4.48 a 10.12,10.12 0 0 0 0.79,3.72 c 0.58,1.25 1.51,1.71 2.41,2.64 a 21.1,21.1 0 0 1 4.93,7.05 c 0.52,1.4 0.79,2.88 1.25,4.31 a 31,31 0 0 0 5,8.65 c 0.72,1 1.49,2.2 1.07,3.34 a 3.06,3.06 0 0 1 -1.91,1.63 6.69,6.69 0 0 1 -3.25,0.45 c -2.61,-0.34 -4.58,-2.45 -6.91,-3.66 -0.81,-0.42 -2.36,-1.13 -3.28,-0.73 -0.92,0.4 -1.24,1.63 -1.38,2.46 -0.08,0.53 0.36,2.25 0.11,2.59 a 0.73,0.73 0 0 1 -0.52,0.31 z" />
  <path
     id="path119"
     fill="#ffbbab"
     d="m 194.79,115.34 a 2.49,2.49 0 0 1 -1.67,0.55 7.72,7.72 0 0 1 -1.51,-0.2 h -0.27 a 0.25,0.25 0 0 0 -0.21,0 0.3,0.3 0 0 0 -0.13,0.21 17.78,17.78 0 0 0 -0.5,3 v 0 0.55 a 1,1 0 0 1 -0.13,0.55 1,1 0 0 1 -0.67,0.31 4.33,4.33 0 0 1 -1.39,0 6.06,6.06 0 0 1 -2.62,-1.39 27.91,27.91 0 0 0 0.48,-5.16 c 0,-2.24 -0.24,-4.51 0.32,-6.68 a 3.65,3.65 0 0 1 4.64,-2.94 8.33,8.33 0 0 1 4.3,1.88 1.79,1.79 0 0 1 0.47,1.43 c 0,0.89 0.05,1.78 0,2.67 -0.05,0.89 -0.13,2 -0.26,3 a 3.48,3.48 0 0 1 -0.85,2.22 z" />
  <path
     id="path121"
     fill="#fc682d"
     d="m 194.33,106.38 c -1.14,0 -2.35,-0.35 -3.47,-0.07 a 3.35,3.35 0 0 0 -2.21,3.81 c -0.46,0.09 -0.42,-0.7 -0.7,-1.06 -0.28,-0.36 -1.1,0 -1.23,0.48 a 3.27,3.27 0 0 0 0.25,1.59 4.58,4.58 0 0 1 -0.25,3 c -0.1,0.22 -0.31,0.47 -0.53,0.38 -0.22,-0.09 -0.34,-0.52 -0.45,-0.72 a 7.79,7.79 0 0 0 -0.61,-0.81 c -0.45,-0.53 -1,-1 -1.43,-1.54 a 4.15,4.15 0 0 1 -1.31,-3.37 2.71,2.71 0 0 1 0.69,-1.33 3,3 0 0 1 1.05,-0.76 c 0.16,-0.08 0.35,-0.16 0.41,-0.32 a 0.76,0.76 0 0 0 0,-0.3 3.41,3.41 0 0 1 1.9,-3.17 8.31,8.31 0 0 1 3.79,-0.8 c 0.85,0 1.7,0 2.55,0 a 5.77,5.77 0 0 0 2.07,-0.18 6.08,6.08 0 0 0 -0.47,-1.38 6.71,6.71 0 0 1 1.55,1 2.59,2.59 0 0 0 -0.1,-0.87 5.31,5.31 0 0 1 2.26,1.77 3,3 0 0 1 -0.41,3.35 4.21,4.21 0 0 1 -3,1.28 z" />
  <path
     id="path123"
     fill="#e0a194"
     d="m 191.61,115.69 h -0.27 a 0.25,0.25 0 0 0 -0.21,0 0.3,0.3 0 0 0 -0.13,0.21 17.78,17.78 0 0 0 -0.5,3 v 0 a 4.06,4.06 0 0 1 -2.14,-4.68 17.13,17.13 0 0 0 3.23,1.51 z" />
  <path
     id="path125"
     fill="#ffbbab"
     d="m 217.63,148.45 c -0.67,-0.28 -1.24,-0.91 -2,-0.88 -0.76,0.03 -1.37,0.92 -2,1.5 a 3.59,3.59 0 0 1 -2.5,0.91 4.16,4.16 0 0 1 -0.86,-0.13 5.53,5.53 0 0 1 -2.94,-2.09 c 0,0 1.86,-2.09 2.1,-2.23 0.82,-0.47 1.93,-0.43 2.81,-0.9 a 28.84,28.84 0 0 1 2.76,-1.54 6.61,6.61 0 0 1 5.93,0.45 c 0.22,0.13 0.46,0.37 0.34,0.61 a 0.46,0.46 0 0 1 -0.23,0.2 v 0 a 6.11,6.11 0 0 1 -3.24,0.35 8.1,8.1 0 0 1 1.78,1.18 c 0.24,0.21 0.46,0.61 0.2,0.8 a 0.56,0.56 0 0 1 -0.44,0 l -2.42,-0.59 a 5.8,5.8 0 0 1 1.53,1.78 0.66,0.66 0 0 1 0.1,0.38 c -0.12,0.31 -0.6,0.34 -0.92,0.2 z" />
  <path
     id="path127"
     fill="#e0a194"
     d="m 217.63,148.45 c -0.67,-0.28 -1.24,-0.91 -2,-0.88 -0.76,0.03 -1.37,0.92 -2,1.5 a 3.59,3.59 0 0 1 -2.5,0.91 3.69,3.69 0 0 1 -0.66,-0.39 0.8,0.8 0 0 1 -0.33,-0.42 0.68,0.68 0 0 1 0.49,-0.72 5.88,5.88 0 0 1 1,-0.15 2.14,2.14 0 0 0 1.33,-0.82 c 0.27,-0.36 0.44,-0.82 0.83,-1 a 2,2 0 0 1 0.82,-0.18 l 1.1,-0.07 a 1.16,1.16 0 0 0 0.49,-0.1 0.41,0.41 0 0 0 0.23,-0.41 c 0,-0.19 -0.23,-0.29 -0.41,-0.36 -0.36,-0.13 -1.57,-0.2 -0.79,-0.63 a 5.39,5.39 0 0 1 1.78,-0.42 19,19 0 0 1 3.69,0 2.92,2.92 0 0 1 0.39,0.07 v 0 a 6.11,6.11 0 0 1 -3.24,0.35 8.1,8.1 0 0 1 1.78,1.18 c 0.24,0.21 0.46,0.61 0.2,0.8 a 0.56,0.56 0 0 1 -0.44,0 l -2.42,-0.59 a 5.8,5.8 0 0 1 1.53,1.78 0.66,0.66 0 0 1 0.1,0.38 c -0.17,0.28 -0.65,0.31 -0.97,0.17 z" />
  <path
     id="path129"
     fill="#ffffff"
     d="m 207.45,148.47 a 21.18,21.18 0 0 1 -7.23,-1.37 10.36,10.36 0 0 1 -4.22,-3.05 1.77,1.77 0 0 1 -0.33,-0.6 1.81,1.81 0 0 1 0,-1.15 5.53,5.53 0 0 1 1.84,-2.79 c 2.39,-1.78 5.64,-0.1 5.64,-0.1 0,0 6.09,4.74 6.26,5.68 0.1,0.51 -0.49,1.47 -1.06,2.23 -0.57,0.76 -0.9,1.15 -0.9,1.15 z" />
  <rect
     id="rect131"
     fill="#ffffff"
     transform="rotate(-11.13)"
     rx="5.5100002"
     height="25.959999"
     width="11.03"
     y="153.92085"
     x="146.36092" />
  <path
     id="path133"
     opacity="0.1"
     fill="#020202"
     d="m 207.45,148.47 a 21.18,21.18 0 0 1 -7.23,-1.37 c -0.29,-0.11 -1.78,-1 -2,-0.91 a 0.49,0.49 0 0 0 -0.18,0.28 l -0.81,2.31 a 1.82,1.82 0 0 1 -0.82,-1.45 c -0.06,-0.58 0,-1.16 -0.06,-1.73 a 10.73,10.73 0 0 0 -0.89,-2.55 c -1.09,-2.78 -0.89,-5.88 -0.68,-8.86 L 197,140 a 6.51,6.51 0 0 0 0.76,1.57 6.63,6.63 0 0 0 1,1 18,18 0 0 0 5.37,3.31 c 0.34,0.14 4.08,1.73 4.28,1.44 -0.52,0.66 -0.96,1.15 -0.96,1.15 z" />
  <path
     id="path135"
     fill="#ffbbab"
     d="m 208.56,160.68 c -0.6,-0.53 -1,-1.39 -1.77,-1.59 -0.77,-0.2 -1.56,0.54 -2.31,1 a 3.29,3.29 0 0 1 -2.75,0.09 4.31,4.31 0 0 1 -0.83,-0.42 6.86,6.86 0 0 1 -2.47,-3.21 c 0,0 2.29,-1.64 2.56,-1.71 0.92,-0.23 2,0.17 3,0 a 27.51,27.51 0 0 1 3.07,-0.76 6.91,6.91 0 0 1 5.8,2.43 c 0.19,0.22 0.37,0.56 0.21,0.77 a 0.4,0.4 0 0 1 -0.27,0.14 v 0 a 6.06,6.06 0 0 1 -3.3,-0.68 9.39,9.39 0 0 1 1.51,1.85 c 0.2,0.3 0.33,0.8 0,0.92 -0.14,0 -0.3,0 -0.44,-0.13 l -2.28,-1.43 a 7.37,7.37 0 0 1 1.14,2.42 0.71,0.71 0 0 1 0,0.43 c -0.1,0.26 -0.59,0.18 -0.87,-0.12 z" />
  <path
     id="path137"
     fill="#e0a194"
     d="m 208.56,160.68 c -0.6,-0.53 -1,-1.39 -1.77,-1.59 -0.77,-0.2 -1.56,0.54 -2.31,1 a 3.29,3.29 0 0 1 -2.75,0.09 4.27,4.27 0 0 1 -0.57,-0.63 1,1 0 0 1 -0.25,-0.56 0.66,0.66 0 0 1 0.65,-0.62 5.57,5.57 0 0 1 1,0.15 1.85,1.85 0 0 0 1.5,-0.44 c 0.35,-0.3 0.62,-0.74 1,-0.86 a 1.77,1.77 0 0 1 0.85,0.07 l 1.12,0.29 a 1.22,1.22 0 0 0 0.5,0 0.39,0.39 0 0 0 0.32,-0.37 0.72,0.72 0 0 0 -0.33,-0.51 c -0.33,-0.26 -1.52,-0.74 -0.65,-0.94 a 4.84,4.84 0 0 1 1.85,0.12 19.12,19.12 0 0 1 3.67,1.24 2.81,2.81 0 0 1 0.38,0.2 v 0 a 6.06,6.06 0 0 1 -3.3,-0.68 9.39,9.39 0 0 1 1.51,1.85 c 0.2,0.3 0.33,0.8 0,0.92 -0.14,0 -0.3,0 -0.44,-0.13 l -2.28,-1.43 a 7.37,7.37 0 0 1 1.14,2.42 0.71,0.71 0 0 1 0,0.43 c -0.07,0.36 -0.56,0.28 -0.84,-0.02 z" />
  <path
     id="path139"
     fill="#ffffff"
     d="m 191.88,143.98 10.34,9.19 -3.42,6.21 c 0,0 -19.67,-9.21 -20.67,-13.66 -1,-4.45 4.2,-4.28 4.2,-4.28 0,0 4.3,-3.34 9.55,2.54 z" />
  <rect
     id="rect141"
     fill="#0088b6"
     height="42.09"
     width="42.09"
     y="154.16"
     x="246.91" />
  <rect
     id="rect143"
     style="isolation:isolate"
     opacity="0.18"
     fill="#0088b6"
     height="42.09"
     width="30.860001"
     y="134.66"
     x="84.019997" />
  <rect
     id="rect145"
     fill="#ffffff"
     height="42.09"
     width="30.860001"
     y="141.48001"
     x="76.5" />
  <path
     id="path147"
     fill="#0088b6"
     d="m 61.68,259.34 a 13.34,13.34 0 0 0 2.17,6 c 4.8,8.48 10.18,16.83 17.61,23.12 10.93,9.24 25.23,13.23 39.05,17 -1.23,-0.6 -2.72,-7 -3.27,-8.37 -1.07,-2.74 -2.07,-5.51 -3.09,-8.27 -1.63,-4.35 -5,-7.85 -8.36,-11.06 A 66,66 0 0 0 79.13,262.08 62.79,62.79 0 0 0 61.68,259.34 Z" />
  <path
     style="fill:url(#linear-gradient-13)"
     id="path149"
     fill="url(#linear-gradient-13)"
     d="m 61.68,259.34 a 13.34,13.34 0 0 0 2.17,6 c 4.8,8.48 10.18,16.83 17.61,23.12 10.93,9.24 25.23,13.23 39.05,17 -1.23,-0.6 -2.72,-7 -3.27,-8.37 -1.07,-2.74 -2.07,-5.51 -3.09,-8.27 -1.63,-4.35 -5,-7.85 -8.36,-11.06 A 66,66 0 0 0 79.13,262.08 62.79,62.79 0 0 0 61.68,259.34 Z" />
  <path
     id="path151"
     fill="#0088b6"
     d="m 115.75,264.09 c -1.13,-7.89 -2.29,-15.88 -5.46,-23.19 -3.17,-7.31 -8.67,-14 -16.14,-16.73 q -0.33,16.94 -0.65,33.87 c -0.13,6.52 -0.24,13.17 1.63,19.42 3.29,11 14.68,23.81 25.65,27.43 1.63,-5.26 -1.1,-13.23 -1.88,-18.7 z" />
  <rect
     id="rect153"
     fill="#ffffff"
     height="3.5699999"
     width="34.669998"
     y="240.05"
     x="195.78999" />
  <rect
     id="rect155"
     fill="#ffffff"
     height="3.5699999"
     width="34.669998"
     y="289.39001"
     x="195.78999" />
  <path
     id="path157"
     fill="#ffffff"
     d="m 257.13,168.17 10.6,-5.54 10.17,5.51 c 0,0 -1.89,13.61 -9.92,17.51 -0.02,0 -9.98,-3.81 -10.85,-17.48 z" />
</svg>
