<?xml version="1.0" encoding="UTF-8" standalone="no"?>
<svg
   xmlns:dc="http://purl.org/dc/elements/1.1/"
   xmlns:cc="http://creativecommons.org/ns#"
   xmlns:rdf="http://www.w3.org/1999/02/22-rdf-syntax-ns#"
   xmlns:svg="http://www.w3.org/2000/svg"
   xmlns="http://www.w3.org/2000/svg"
   xmlns:xlink="http://www.w3.org/1999/xlink"
   xmlns:sodipodi="http://sodipodi.sourceforge.net/DTD/sodipodi-0.dtd"
   xmlns:inkscape="http://www.inkscape.org/namespaces/inkscape"
   inkscape:version="1.0 (4035a4fb49, 2020-05-01)"
   height="273.95999"
   width="273.95999"
   sodipodi:docname="settings_monochromatic.svg"
   version="1.1"
   viewBox="0 0 273.96 273.95999"
   data-name="Layer 1"
   id="Layer_1">
  <metadata
     id="metadata85">
    <rdf:RDF>
      <cc:Work
         rdf:about="">
        <dc:format>image/svg+xml</dc:format>
        <dc:type
           rdf:resource="http://purl.org/dc/dcmitype/StillImage" />
        <dc:title>23</dc:title>
      </cc:Work>
    </rdf:RDF>
  </metadata>
  <sodipodi:namedview
     inkscape:current-layer="Layer_1"
     inkscape:window-maximized="1"
     inkscape:window-y="201"
     inkscape:window-x="0"
     inkscape:cy="150.97304"
     inkscape:cx="126.48498"
     inkscape:zoom="1.7320137"
     showgrid="false"
     id="namedview83"
     inkscape:window-height="717"
     inkscape:window-width="1366"
     inkscape:pageshadow="2"
     inkscape:pageopacity="0"
     guidetolerance="10"
     gridtolerance="10"
     objecttolerance="10"
     borderopacity="1"
     bordercolor="#666666"
     pagecolor="#ffffff" />
  <defs
     id="defs12">
    <linearGradient
       gradientUnits="userSpaceOnUse"
       y2="152.45"
       x2="122.41"
       y1="133.63"
       x1="128.14"
       id="linear-gradient">
      <stop
         id="stop2"
         offset="0.01" />
      <stop
         id="stop4"
         stop-opacity="0.69"
         offset="0.13" />
      <stop
         id="stop6"
         stop-opacity="0.32"
         offset="0.25" />
      <stop
         id="stop8"
         stop-opacity="0"
         offset="1" />
    </linearGradient>
    <linearGradient
       xlink:href="#linear-gradient"
       y2="126.45"
       x2="138.28999"
       y1="160.10001"
       x1="139.7"
       id="linear-gradient-2" />
    <linearGradient
       y2="152.45"
       x2="122.41"
       y1="133.63"
       x1="128.14"
       gradientUnits="userSpaceOnUse"
       id="linearGradient910"
       xlink:href="#linear-gradient"
       inkscape:collect="always" />
  </defs>
  <title
     id="title14">23</title>
  <path
     id="path16"
     style="isolation:isolate"
     opacity="0.18"
     fill="#0088b6"
     d="m 161.03,24.92 c -18.53,6.19 -32.7,21 -49.6,30.85 -20.24,11.74 -44.27,16.12 -63.75,29.07 -20.36,13.53 -34,35.49 -41.5,58.75 -6.43,20 -8.64,41.88 -2.74,62 5.9,20.12 20.74,38.29 40.68,44.94 20.49,6.83 42.74,1.12 64.32,0.22 29.51,-1.24 59.41,6.66 88.38,0.91 a 96.56,96.56 0 0 0 60.06,-39.51 53.43,53.43 0 0 0 8.18,-16.85 c 1.86,-7.29 1.47,-14.93 1.76,-22.45 0.69,-18.32 5.49,-36.27 6.8,-54.56 1,-13.86 -0.2,-28.71 -6.62,-41.27 C 259.61,62.54 246.3,56.76 233.91,47.49 212.19,31.21 189.88,15.29 161.03,24.92 Z" />
  <g
     transform="translate(0,22)"
     id="Q83r0t">
    <path
       id="path18"
       fill="#0088b6"
       transform="translate(-30.12,-8)"
       d="m 276.08,127.68 a 4.56,4.56 0 0 1 -2.82,-2.18 c -0.45,-0.79 -0.86,-1.61 -1.32,-2.39 a 4.14,4.14 0 0 0 -4.31,-2.22 4.21,4.21 0 0 0 -3.72,3.12 c -0.3,0.93 -0.53,1.87 -0.84,2.79 a 4.59,4.59 0 0 1 -5.77,3 c -1.74,-0.49 -3.49,-1 -5.23,-1.53 a 4.65,4.65 0 0 1 -3.23,-5.82 c 0.25,-0.93 0.57,-1.85 0.81,-2.79 a 4.15,4.15 0 0 0 -1.55,-4.52 4,4 0 0 0 -4.65,-0.45 c -0.81,0.41 -1.59,0.88 -2.4,1.3 a 4.73,4.73 0 0 1 -6.46,-2 c -0.92,-1.64 -1.83,-3.28 -2.72,-4.94 a 4.58,4.58 0 0 1 1.89,-6.43 c 0.76,-0.43 1.55,-0.82 2.31,-1.26 a 4,4 0 0 0 2.19,-4.14 4.12,4.12 0 0 0 -2.94,-3.75 c -0.92,-0.32 -1.87,-0.54 -2.79,-0.84 a 4.65,4.65 0 0 1 -3.18,-6.08 c 0.48,-1.65 1,-3.31 1.46,-5 a 4.57,4.57 0 0 1 5.45,-3.29 c 1,0.2 1.93,0.52 2.89,0.8 a 4.25,4.25 0 0 0 4.85,-1.33 4.2,4.2 0 0 0 0.28,-5 c -0.41,-0.74 -0.83,-1.47 -1.21,-2.23 a 4.53,4.53 0 0 1 1.82,-6.17 c 1.77,-1 3.57,-2 5.39,-2.87 a 4.7,4.7 0 0 1 6.18,1.91 c 0.47,0.81 0.89,1.66 1.37,2.46 a 4.05,4.05 0 0 0 4.17,2.11 4.11,4.11 0 0 0 3.71,-3 c 0.28,-0.87 0.5,-1.75 0.77,-2.62 a 4.71,4.71 0 0 1 6.13,-3.26 l 4.86,1.43 a 4.68,4.68 0 0 1 3.36,5.92 c -0.21,0.85 -0.48,1.68 -0.73,2.52 a 4.37,4.37 0 0 0 6.34,5.11 c 0.74,-0.4 1.48,-0.82 2.23,-1.21 a 4.72,4.72 0 0 1 6.41,1.87 q 1.44,2.54 2.81,5.1 a 4.55,4.55 0 0 1 -1.86,6.3 c -0.82,0.46 -1.66,0.87 -2.48,1.34 a 4,4 0 0 0 -2.13,3.89 4,4 0 0 0 2.6,3.8 c 0.95,0.39 2,0.62 3,0.93 a 4.28,4.28 0 0 1 3.12,5.53 c -0.49,1.91 -1.05,3.81 -1.66,5.68 a 4.37,4.37 0 0 1 -5.78,3 c -0.87,-0.24 -1.74,-0.54 -2.62,-0.74 a 4.07,4.07 0 0 0 -4.4,1.6 4,4 0 0 0 -0.39,4.58 c 0.43,0.83 0.92,1.63 1.36,2.46 a 4.59,4.59 0 0 1 -1.85,6.32 c -1.69,1 -3.4,1.87 -5.11,2.79 a 4.55,4.55 0 0 1 -3.61,0.4 z M 250.42,90.15 A 15,15 0 1 0 269.1,80 15,15 0 0 0 250.42,90.15 Z" />
  </g>
  <g
     transform="translate(0,22)"
     data-name="Q83r0t"
     id="Q83r0t-2">
    <path
       id="path21"
       fill="#0088b6"
       transform="translate(-30.12,-8)"
       d="m 212.56,207.31 a 10.42,10.42 0 0 1 -7.52,-3 c -1.48,-1.42 -2.88,-2.94 -4.38,-4.34 -3.14,-2.94 -6.76,-3.82 -10.77,-2.09 a 9.53,9.53 0 0 0 -6.11,9.15 c -0.05,2.2 0.05,4.4 -0.05,6.59 a 10.37,10.37 0 0 1 -10.61,10.21 q -6.17,0 -12.34,0 a 10.54,10.54 0 0 1 -10.73,-10.59 c -0.05,-2.2 0,-4.4 0,-6.59 a 9.32,9.32 0 0 0 -6.22,-8.82 9.16,9.16 0 0 0 -10.41,2 c -1.5,1.4 -2.89,2.92 -4.38,4.34 a 10.71,10.71 0 0 1 -15.28,-0.12 q -4.56,-4.47 -9,-9 c -4.41,-4.49 -4.39,-10.7 0,-15.19 1.39,-1.42 2.85,-2.76 4.22,-4.2 a 9.2,9.2 0 0 0 2.14,-10.39 9.35,9.35 0 0 0 -8.79,-6.28 c -2.19,-0.1 -4.39,0 -6.59,-0.06 -6.58,-0.24 -10.75,-4.6 -10.76,-11.18 0,-3.9 0,-7.8 0,-11.7 a 10.32,10.32 0 0 1 9.75,-10.61 c 2.26,-0.19 4.54,-0.12 6.8,-0.12 4.52,0 7.75,-2 9.54,-6.16 1.69,-3.91 0.75,-7.7 -2.57,-11 -1.35,-1.35 -2.74,-2.68 -4,-4.07 a 10.29,10.29 0 0 1 0,-14.57 q 4.82,-5 9.88,-9.67 A 10.65,10.65 0 0 1 129,80 c 1.54,1.46 3,3 4.55,4.48 a 9.16,9.16 0 0 0 10.42,1.92 9.31,9.31 0 0 0 6.16,-8.86 c 0.05,-2 0,-4.11 0,-6.16 0.15,-6.61 4.61,-11 11.23,-11 h 11.49 c 6.35,0 10.81,4.33 11,10.73 0.08,2 0,4 0,6 a 9.47,9.47 0 0 0 6.1,9.35 c 3.86,1.7 7.77,0.83 10.92,-2.27 1.36,-1.35 2.69,-2.73 4.07,-4.06 a 10.69,10.69 0 0 1 15.12,0 q 4.74,4.59 9.36,9.29 a 10.31,10.31 0 0 1 0,14.87 c -1.48,1.53 -3.06,3 -4.54,4.48 a 9,9 0 0 0 -2.16,9.82 9.16,9.16 0 0 0 8.08,6.59 c 2.31,0.25 4.67,0.1 7,0.15 6.17,0.11 10.1,3.85 10.3,10 0.14,4.46 0.15,8.93 0,13.4 -0.22,6.37 -4.25,10.15 -10.64,10.23 -2,0 -4.11,-0.07 -6.16,0 a 9.24,9.24 0 0 0 -8.55,6.28 9,9 0 0 0 2.06,10.2 c 1.47,1.53 3,3 4.53,4.49 a 10.38,10.38 0 0 1 0,14.89 c -3.07,3.16 -6.2,6.23 -9.34,9.32 a 10.46,10.46 0 0 1 -7.44,3.17 z M 122.69,142 A 44.3,44.3 0 1 0 167.12,97.81 44.21,44.21 0 0 0 122.69,142 Z" />
  </g>
  <g
     transform="translate(0,22)"
     opacity="0.19"
     data-name="Q83r0t"
     id="Q83r0t-3">
    <path
       id="path24"
       fill="#020202"
       transform="translate(-30.12,-8)"
       d="m 212.56,207.31 a 10.42,10.42 0 0 1 -7.52,-3 c -1.48,-1.42 -2.88,-2.94 -4.38,-4.34 -3.14,-2.94 -6.76,-3.82 -10.77,-2.09 a 9.53,9.53 0 0 0 -6.11,9.15 c -0.05,2.2 0.05,4.4 -0.05,6.59 a 10.37,10.37 0 0 1 -10.61,10.21 q -6.17,0 -12.34,0 a 10.54,10.54 0 0 1 -10.73,-10.59 c -0.05,-2.2 0,-4.4 0,-6.59 a 9.32,9.32 0 0 0 -6.22,-8.82 9.16,9.16 0 0 0 -10.41,2 c -1.5,1.4 -2.89,2.92 -4.38,4.34 a 10.71,10.71 0 0 1 -15.28,-0.12 q -4.56,-4.47 -9,-9 c -4.41,-4.49 -4.39,-10.7 0,-15.19 1.39,-1.42 2.85,-2.76 4.22,-4.2 a 9.2,9.2 0 0 0 2.14,-10.39 9.35,9.35 0 0 0 -8.79,-6.28 c -2.19,-0.1 -4.39,0 -6.59,-0.06 -6.58,-0.24 -10.75,-4.6 -10.76,-11.18 0,-3.9 0,-7.8 0,-11.7 a 10.32,10.32 0 0 1 9.75,-10.61 c 2.26,-0.19 4.54,-0.12 6.8,-0.12 4.52,0 7.75,-2 9.54,-6.16 1.69,-3.91 0.75,-7.7 -2.57,-11 -1.35,-1.35 -2.74,-2.68 -4,-4.07 a 10.29,10.29 0 0 1 0,-14.57 q 4.82,-5 9.88,-9.67 A 10.65,10.65 0 0 1 129,80 c 1.54,1.46 3,3 4.55,4.48 a 9.16,9.16 0 0 0 10.42,1.92 9.31,9.31 0 0 0 6.16,-8.86 c 0.05,-2 0,-4.11 0,-6.16 0.15,-6.61 4.61,-11 11.23,-11 h 11.49 c 6.35,0 10.81,4.33 11,10.73 0.08,2 0,4 0,6 a 9.47,9.47 0 0 0 6.1,9.35 c 3.86,1.7 7.77,0.83 10.92,-2.27 1.36,-1.35 2.69,-2.73 4.07,-4.06 a 10.69,10.69 0 0 1 15.12,0 q 4.74,4.59 9.36,9.29 a 10.31,10.31 0 0 1 0,14.87 c -1.48,1.53 -3.06,3 -4.54,4.48 a 9,9 0 0 0 -2.16,9.82 9.16,9.16 0 0 0 8.08,6.59 c 2.31,0.25 4.67,0.1 7,0.15 6.17,0.11 10.1,3.85 10.3,10 0.14,4.46 0.15,8.93 0,13.4 -0.22,6.37 -4.25,10.15 -10.64,10.23 -2,0 -4.11,-0.07 -6.16,0 a 9.24,9.24 0 0 0 -8.55,6.28 9,9 0 0 0 2.06,10.2 c 1.47,1.53 3,3 4.53,4.49 a 10.38,10.38 0 0 1 0,14.89 c -3.07,3.16 -6.2,6.23 -9.34,9.32 a 10.46,10.46 0 0 1 -7.44,3.17 z M 122.69,142 A 44.3,44.3 0 1 0 167.12,97.81 44.21,44.21 0 0 0 122.69,142 Z" />
  </g>
  <path
     id="path27"
     fill="#ff681c"
     d="m 105.42,137.4 a 4.59,4.59 0 0 1 0.72,3.2 19.13,19.13 0 0 1 -0.46,3.2 c -0.5,2.09 -1.35,4.27 -0.69,6.31 a 17.8,17.8 0 0 0 2.06,3.48 6.59,6.59 0 0 1 1,4 4.4,4.4 0 0 1 -2.17,3.41 c -1.65,-3.06 -4.28,-5.45 -6.45,-8.17 -2.17,-2.72 -4,-6.09 -3.43,-9.52 a 8.05,8.05 0 0 1 3.62,-5.44 c 1.43,-0.87 4.36,-2.22 5.8,-0.47 z" />
  <path
     id="path29"
     opacity="0.19"
     fill="#020202"
     d="m 105.42,137.4 a 4.59,4.59 0 0 1 0.72,3.2 19.13,19.13 0 0 1 -0.46,3.2 c -0.5,2.09 -1.35,4.27 -0.69,6.31 a 17.8,17.8 0 0 0 2.06,3.48 6.59,6.59 0 0 1 1,4 4.4,4.4 0 0 1 -2.17,3.41 c -1.65,-3.06 -4.28,-5.45 -6.45,-8.17 -2.17,-2.72 -4,-6.09 -3.43,-9.52 a 8.05,8.05 0 0 1 3.62,-5.44 c 1.43,-0.87 4.36,-2.22 5.8,-0.47 z" />
  <g
     transform="translate(0,22)"
     data-name="Q83r0t"
     id="Q83r0t-4">
    <path
       id="path31"
       fill="#0088b6"
       transform="translate(-30.12,-8)"
       d="m 209.64,207.34 a 10.36,10.36 0 0 1 -7.51,-3 c -1.48,-1.42 -2.88,-2.93 -4.38,-4.34 -3.14,-2.94 -6.77,-3.82 -10.77,-2.09 a 9.56,9.56 0 0 0 -6.12,9.15 c -0.05,2.2 0,4.4 0,6.59 a 10.39,10.39 0 0 1 -10.62,10.21 q -6.16,0 -12.33,0 a 10.54,10.54 0 0 1 -10.73,-10.59 c 0,-2.19 0.05,-4.4 0,-6.59 a 9.32,9.32 0 0 0 -6.21,-8.82 9.17,9.17 0 0 0 -10.42,2 c -1.5,1.4 -2.89,2.92 -4.38,4.34 a 10.71,10.71 0 0 1 -15.28,-0.12 c -3,-3 -6.06,-6 -9,-9 -4.41,-4.49 -4.39,-10.7 0,-15.19 1.39,-1.42 2.86,-2.76 4.23,-4.2 a 9.19,9.19 0 0 0 2.14,-10.39 9.35,9.35 0 0 0 -8.89,-6.3 c -2.2,-0.1 -4.4,0 -6.6,-0.06 C 86.2,158.73 82,154.36 82,147.78 c 0,-3.9 0,-7.8 0,-11.7 a 10.33,10.33 0 0 1 9.76,-10.61 c 2.25,-0.19 4.53,-0.12 6.8,-0.12 a 9.61,9.61 0 0 0 9.53,-6.16 c 1.7,-3.91 0.76,-7.7 -2.57,-11 -1.35,-1.35 -2.73,-2.68 -4,-4.07 a 10.27,10.27 0 0 1 0,-14.56 q 4.8,-5 9.87,-9.68 a 10.66,10.66 0 0 1 14.66,0.23 c 1.54,1.46 3,3 4.54,4.48 a 9.18,9.18 0 0 0 10.41,1.89 9.3,9.3 0 0 0 6.16,-8.87 c 0,-2 0,-4.11 0,-6.16 0.15,-6.61 4.61,-11 11.24,-11 h 11.48 c 6.35,0 10.81,4.33 11.06,10.73 0.08,2 0,4 0,6 a 9.47,9.47 0 0 0 6.1,9.34 c 3.85,1.7 7.76,0.83 10.91,-2.27 1.37,-1.34 2.69,-2.73 4.07,-4.06 a 10.71,10.71 0 0 1 15.13,0 c 3.15,3.06 6.28,6.15 9.35,9.29 a 10.32,10.32 0 0 1 0,14.87 c -1.49,1.53 -3.07,3 -4.54,4.49 a 9,9 0 0 0 -2.17,9.81 9.16,9.16 0 0 0 8.08,6.59 c 2.32,0.25 4.67,0.1 7,0.15 6.17,0.11 10.11,3.86 10.31,10 0.14,4.46 0.14,8.94 0,13.4 -0.18,6.4 -4.18,10.21 -10.61,10.26 -2.06,0 -4.12,-0.07 -6.17,0 a 9.25,9.25 0 0 0 -8.55,6.28 9,9 0 0 0 2.06,10.2 c 1.47,1.53 3.06,3 4.54,4.49 a 10.39,10.39 0 0 1 0,14.9 c -3.06,3.15 -6.2,6.22 -9.33,9.31 a 10.43,10.43 0 0 1 -7.48,3.11 z m -89.87,-65.28 a 44.3,44.3 0 1 0 44.44,-44.2 44.22,44.22 0 0 0 -44.44,44.2 z" />
  </g>
  <path
     id="path34"
     opacity="0.19"
     fill="#020202"
     d="m 141.96,214 a 11.74,11.74 0 0 0 2.25,2.31 3.89,3.89 0 0 1 1.29,1.12 4,4 0 0 1 0.3,1.17 c 0.41,2.27 2.59,4.36 4.84,3.85 l 1.08,-7.56 a 3.7,3.7 0 0 0 0,-1.75 3.62,3.62 0 0 0 -1,-1.32 44.1,44.1 0 0 1 -7,-8.93 5.78,5.78 0 0 0 -1.91,-2.29 c -0.81,-0.47 0,-1.06 -0.92,-0.8 -2.42,0.68 -4.07,0.64 -9.69,0.59 0,0 1.77,2.4 2.55,3.36 l 4.13,5.13 c 0.52,0.71 3.31,5.12 4.08,5.12 z" />
  <g
     transform="translate(0,22)"
     opacity="0.27"
     data-name="Q83r0t"
     id="Q83r0t-5">
    <path
       id="path36"
       fill="#020202"
       transform="translate(-30.12,-8)"
       d="m 276.08,127.68 a 4.56,4.56 0 0 1 -2.82,-2.18 c -0.45,-0.79 -0.86,-1.61 -1.32,-2.39 a 4.14,4.14 0 0 0 -4.31,-2.22 4.21,4.21 0 0 0 -3.72,3.12 c -0.3,0.93 -0.53,1.87 -0.84,2.79 a 4.59,4.59 0 0 1 -5.77,3 c -1.74,-0.49 -3.49,-1 -5.23,-1.53 a 4.65,4.65 0 0 1 -3.23,-5.82 c 0.25,-0.93 0.57,-1.85 0.81,-2.79 a 4.15,4.15 0 0 0 -1.55,-4.52 4,4 0 0 0 -4.65,-0.45 c -0.81,0.41 -1.59,0.88 -2.4,1.3 a 4.73,4.73 0 0 1 -6.46,-2 c -0.92,-1.64 -1.83,-3.28 -2.72,-4.94 a 4.58,4.58 0 0 1 1.89,-6.43 c 0.76,-0.43 1.55,-0.82 2.31,-1.26 a 4,4 0 0 0 2.19,-4.14 4.12,4.12 0 0 0 -2.94,-3.75 c -0.92,-0.32 -1.87,-0.54 -2.79,-0.84 a 4.65,4.65 0 0 1 -3.18,-6.08 c 0.48,-1.65 1,-3.31 1.46,-5 a 4.57,4.57 0 0 1 5.45,-3.29 c 1,0.2 1.93,0.52 2.89,0.8 a 4.25,4.25 0 0 0 4.85,-1.33 4.2,4.2 0 0 0 0.28,-5 c -0.41,-0.74 -0.83,-1.47 -1.21,-2.23 a 4.53,4.53 0 0 1 1.82,-6.17 c 1.77,-1 3.57,-2 5.39,-2.87 a 4.7,4.7 0 0 1 6.18,1.91 c 0.47,0.81 0.89,1.66 1.37,2.46 a 4.05,4.05 0 0 0 4.17,2.11 4.11,4.11 0 0 0 3.71,-3 c 0.28,-0.87 0.5,-1.75 0.77,-2.62 a 4.71,4.71 0 0 1 6.13,-3.26 l 4.86,1.43 a 4.68,4.68 0 0 1 3.36,5.92 c -0.21,0.85 -0.48,1.68 -0.73,2.52 a 4.37,4.37 0 0 0 6.34,5.11 c 0.74,-0.4 1.48,-0.82 2.23,-1.21 a 4.72,4.72 0 0 1 6.41,1.87 q 1.44,2.54 2.81,5.1 a 4.55,4.55 0 0 1 -1.86,6.3 c -0.82,0.46 -1.66,0.87 -2.48,1.34 a 4,4 0 0 0 -2.13,3.89 4,4 0 0 0 2.6,3.8 c 0.95,0.39 2,0.62 3,0.93 a 4.28,4.28 0 0 1 3.12,5.53 c -0.49,1.91 -1.05,3.81 -1.66,5.68 a 4.37,4.37 0 0 1 -5.78,3 c -0.87,-0.24 -1.74,-0.54 -2.62,-0.74 a 4.07,4.07 0 0 0 -4.4,1.6 4,4 0 0 0 -0.39,4.58 c 0.43,0.83 0.92,1.63 1.36,2.46 a 4.59,4.59 0 0 1 -1.85,6.32 c -1.69,1 -3.4,1.87 -5.11,2.79 a 4.55,4.55 0 0 1 -3.61,0.4 z M 250.42,90.15 A 15,15 0 1 0 269.1,80 15,15 0 0 0 250.42,90.15 Z" />
  </g>
  <g
     transform="translate(0,22)"
     data-name="Q83r0t"
     id="Q83r0t-6">
    <path
       id="path39"
       fill="#0088b6"
       transform="translate(-30.12,-8)"
       d="m 274.35,128.47 a 4.6,4.6 0 0 1 -2.82,-2.19 c -0.45,-0.79 -0.85,-1.6 -1.32,-2.38 a 4.12,4.12 0 0 0 -4.3,-2.23 4.22,4.22 0 0 0 -3.73,3.13 c -0.29,0.92 -0.52,1.87 -0.84,2.78 a 4.58,4.58 0 0 1 -5.76,3 q -2.62,-0.75 -5.23,-1.53 a 4.66,4.66 0 0 1 -3.24,-5.82 c 0.25,-0.94 0.57,-1.86 0.81,-2.8 a 4.12,4.12 0 0 0 -1.54,-4.51 4.06,4.06 0 0 0 -4.66,-0.46 c -0.81,0.41 -1.59,0.88 -2.4,1.3 a 4.73,4.73 0 0 1 -6.46,-1.94 q -1.38,-2.46 -2.72,-4.94 a 4.59,4.59 0 0 1 1.89,-6.44 c 0.77,-0.43 1.56,-0.82 2.31,-1.25 a 4.08,4.08 0 0 0 2.2,-4.14 4.14,4.14 0 0 0 -2.95,-3.76 c -0.92,-0.31 -1.87,-0.53 -2.79,-0.84 a 4.64,4.64 0 0 1 -3.17,-6.07 q 0.72,-2.49 1.45,-5 a 4.56,4.56 0 0 1 5.45,-3.29 c 1,0.2 1.94,0.51 2.9,0.79 a 4.24,4.24 0 0 0 4.8,-1.43 4.16,4.16 0 0 0 0.28,-5 c -0.4,-0.74 -0.83,-1.47 -1.21,-2.22 a 4.54,4.54 0 0 1 1.82,-6.17 q 2.65,-1.52 5.39,-2.88 a 4.72,4.72 0 0 1 6.19,1.91 c 0.47,0.82 0.88,1.66 1.37,2.46 a 4,4 0 0 0 4.17,2.11 4.11,4.11 0 0 0 3.71,-3 c 0.28,-0.86 0.5,-1.75 0.78,-2.61 a 4.7,4.7 0 0 1 6.12,-3.26 l 4.87,1.42 a 4.69,4.69 0 0 1 3.36,5.92 c -0.22,0.85 -0.48,1.69 -0.73,2.53 a 4.37,4.37 0 0 0 6.33,5.11 c 0.75,-0.4 1.48,-0.83 2.23,-1.22 a 4.72,4.72 0 0 1 6.41,1.88 q 1.44,2.52 2.82,5.1 a 4.55,4.55 0 0 1 -1.87,6.29 c -0.81,0.47 -1.66,0.88 -2.48,1.34 a 4,4 0 0 0 -2.13,3.89 4,4 0 0 0 2.61,3.8 c 1,0.39 2,0.62 3,0.93 a 4.28,4.28 0 0 1 3.12,5.54 c -0.49,1.91 -1,3.81 -1.66,5.68 a 4.37,4.37 0 0 1 -5.78,3 c -0.87,-0.25 -1.73,-0.54 -2.62,-0.75 a 4.08,4.08 0 0 0 -4.4,1.6 4,4 0 0 0 -0.39,4.58 c 0.43,0.84 0.93,1.64 1.37,2.47 a 4.58,4.58 0 0 1 -1.91,6.4 c -1.69,1 -3.4,1.87 -5.11,2.79 a 4.63,4.63 0 0 1 -3.54,0.38 z M 248.69,90.94 a 15,15 0 1 0 18.68,-10.16 15,15 0 0 0 -18.68,10.16 z" />
  </g>
  <path
     id="path42"
     fill="#ffbaa8"
     d="m 171.48,174.54 a 3.76,3.76 0 0 1 1,-0.68 1.08,1.08 0 0 1 1.12,0.17 1.21,1.21 0 0 1 0.2,1.12 c -0.1,0.38 -0.3,0.74 -0.39,1.12 a 6.27,6.27 0 0 1 -0.24,1.06 2.7,2.7 0 0 1 -1.31,1.13 22.58,22.58 0 0 0 -6.12,5 3.12,3.12 0 0 1 -0.55,0.54 2.33,2.33 0 0 1 -2.23,-0.09 11.17,11.17 0 0 1 -3.7,-3.35 1.13,1.13 0 0 1 -0.26,-0.48 0.91,0.91 0 0 1 0.08,-0.49 c 1,-2.6 3.67,-1.71 5.83,-2.07 a 14,14 0 0 0 6.57,-2.98 z" />
  <path
     id="path44"
     fill="#473f47"
     d="m 102.29,188.45 c 0,0 5.86,7.28 13.9,3.7 8.04,-3.58 17.46,-15.4 17.46,-15.4 0,0 12.23,4.39 20.47,4.25 l 5.54,0.19 a 3.92,3.92 0 0 0 1.91,-4.32 c 0,0 -24.27,-9.12 -26.57,-9.36 a 13.84,13.84 0 0 0 -8,1.33 c -3.25,1.54 -15.79,7.43 -15.79,7.43 z" />
  <path
     id="path46"
     opacity="0.19"
     fill="#020202"
     d="m 102.29,188.45 c 0,0 5.86,7.28 13.9,3.7 8.04,-3.58 17.46,-15.4 17.46,-15.4 0,0 12.23,4.39 20.47,4.25 l 5.54,0.19 a 3.92,3.92 0 0 0 1.91,-4.32 c 0,0 -24.27,-9.12 -26.57,-9.36 a 13.84,13.84 0 0 0 -8,1.33 c -3.25,1.54 -15.79,7.43 -15.79,7.43 z" />
  <path
     id="path48"
     fill="#473f47"
     d="m 103.88,181 c 0,0 -1.83,9.65 6.44,12.67 8.27,3.02 24.23,0.75 24.23,0.75 0,0 5.73,11.67 11.74,17.3 l 3.84,4 a 3.91,3.91 0 0 0 4.38,-1.77 c 0,0 -11.09,-23.44 -12.57,-25.21 a 13.91,13.91 0 0 0 -6.7,-4.64 c -3.4,-1.15 -22.82,-8.06 -22.82,-8.06 z" />
  <path
     id="path50"
     fill="#ffbaa8"
     d="m 163.27,219.19 a 3.62,3.62 0 0 1 1.18,0.21 1.07,1.07 0 0 1 0.69,0.91 1.17,1.17 0 0 1 -0.64,0.93 c -0.33,0.21 -0.72,0.33 -1.05,0.54 a 6.81,6.81 0 0 1 -0.91,0.6 2.72,2.72 0 0 1 -1.73,-0.11 22.35,22.35 0 0 0 -7.85,-0.68 2.84,2.84 0 0 1 -0.77,0 2.31,2.31 0 0 1 -1.54,-1.62 11.14,11.14 0 0 1 -0.33,-5 1.12,1.12 0 0 1 0.15,-0.53 1,1 0 0 1 0.4,-0.29 c 2.52,-1.17 3.82,1.32 5.63,2.57 a 14,14 0 0 0 6.77,2.47 z" />
  <polygon
     transform="translate(0,22)"
     id="polygon52"
     fill="#0088b6"
     points="116.98,148.3 131.6,144.26 135.15,124.77 136.99,125 133.19,145.61 117.21,149.71 " />
  <polygon
     transform="translate(0,22)"
     id="polygon54"
     fill="#0088b6"
     points="131.6,144.26 131.96,137.94 126.04,139.04 116.98,148.3 " />
  <polygon
     transform="translate(0,22)"
     style="fill:url(#linearGradient910)"
     id="polygon56"
     fill="url(#linear-gradient)"
     points="131.6,144.26 131.96,137.94 126.04,139.04 116.98,148.3 " />
  <polygon
     transform="translate(0,22)"
     id="polygon58"
     fill="#0088b6"
     points="130.43,144.23 131.92,138.6 129.53,139.04 123.8,145.61 " />
  <polygon
     transform="translate(0,22)"
     id="polygon60"
     fill="#0088b6"
     points="130.74,144.74 134.39,124.42 144.74,119.54 145.45,119.86 131.6,144.26 " />
  <path
     id="path62"
     fill="#ffbaa8"
     d="m 105.21,141.44 c 0.39,0.46 1.06,0.66 1.36,1.19 0.3,0.53 0,1.41 -0.13,2.13 -0.18,1 0.1,2 -0.07,3.05 a 1.16,1.16 0 0 1 -0.25,0.59 1.4,1.4 0 0 1 -0.47,0.28 7.41,7.41 0 0 1 -2.12,0.48 0.62,0.62 0 0 0 -0.41,0.12 0.56,0.56 0 0 0 -0.12,0.4 11.51,11.51 0 0 0 1,5.43 c 0.25,0.56 0.54,1.25 0.18,1.75 a 1.27,1.27 0 0 1 -0.51,0.37 c -1.3,0.55 -2.78,-0.24 -3.87,-1.14 a 16.13,16.13 0 0 1 -2.61,-2.74 2.93,2.93 0 0 1 -0.52,-0.93 3.5,3.5 0 0 1 0,-1.37 22.58,22.58 0 0 0 0,-4.65 c -0.22,-2 -0.7,-4 -0.25,-5.93 a 3.08,3.08 0 0 1 0.94,-1.73 3.92,3.92 0 0 1 2,-0.68 c 1.44,-0.18 3,-0.25 4.18,0.63 0.27,0.31 1.19,2.18 1.67,2.75 z" />
  <path
     id="path64"
     fill="#ffffff"
     d="m 96.78,152.52 c 0,0 6.37,2.07 8.53,4.15 2.16,2.08 5.36,3.37 5,8.06 -0.36,4.69 2.14,11.34 2.14,11.34 0,0 -1.22,8.44 -7.13,11.5 -5.91,3.06 -4.32,2.13 -4.32,2.13 0,0 -5.79,-14.3 -7.77,-18.22 -1.98,-3.92 -2.28,-18.67 3.55,-18.96 z" />
  <path
     id="path66"
     opacity="0.19"
     fill="#020202"
     d="m 107.38,184.45 a 2.2,2.2 0 0 1 -0.11,1.39 2.79,2.79 0 0 1 -0.82,0.82 9.11,9.11 0 0 1 -2.48,1.45 3,3 0 0 1 -2.75,-0.31 4.39,4.39 0 0 1 -1,-1.27 59.15,59.15 0 0 1 -5.8,-11.58 25.65,25.65 0 0 1 -1.28,-12.77 l 3.93,4.43 a 33.32,33.32 0 0 0 5.4,5.22 11.12,11.12 0 0 0 7,2.27 c 2.89,-0.2 3.12,1.59 1.89,4 -1.23,2.41 -2.62,1.18 -4.67,0.83 -0.99,1.58 0.4,3.85 0.69,5.52 z" />
  <path
     id="path68"
     fill="#ff681c"
     d="m 100.93,151.64 a 9.48,9.48 0 0 1 0.29,3 3,3 0 0 1 -0.28,1.18 3.1,3.1 0 0 1 -0.84,0.89 13.84,13.84 0 0 1 -2.75,1.63 21.6,21.6 0 0 0 -2.69,1.2 l -0.07,0.05 a 6.21,6.21 0 0 0 -2.68,3.5 c -0.1,0.34 -0.9,-0.64 -0.93,-0.69 a 11.26,11.26 0 0 1 -0.59,-1.32 15.5,15.5 0 0 1 -0.66,-3.44 c -0.42,-2.48 -3.51,-6.74 -2,-9.16 0.52,-0.84 1.44,-1.34 2.09,-2.08 v 0 c 1.41,-1.65 1.24,-4.08 2,-6.11 a 7.19,7.19 0 0 1 3.76,-4.1 c 2.39,-1.08 7,-1.06 7.23,2.43 0.11,1.55 -0.86,2.55 -1.66,3.73 a 7.88,7.88 0 0 0 -1.58,4.06 c -0.05,1.79 0.91,3.47 1.36,5.23 z" />
  <path
     id="path70"
     fill="#ffffff"
     d="m 100.33,159.87 c 0,0 5.36,9.4 6.21,10 0.85,0.6 -6.28,6.35 -6.28,6.35 0,0 -6.74,-8.89 -7.19,-13.16 -0.45,-4.27 3.71,-6.69 7.26,-3.19 z" />
  <path
     id="path72"
     fill="#ffbaa8"
     d="m 100.04,174.87 c 0,0 0.8,3.18 4.75,2.46 l 17.55,-3.15 c 1.1,-0.82 2.72,-1.19 3.45,-2.35 0.35,-0.55 0.46,-1.22 0.79,-1.79 a 3.66,3.66 0 0 1 2,-1.49 10.1,10.1 0 0 1 2.46,-0.47 1.06,1.06 0 0 0 -0.25,-1.34 2.46,2.46 0 0 0 -1.4,-0.48 8,8 0 0 0 -5.82,1.83 6.91,6.91 0 0 1 -1.53,1.17 5,5 0 0 1 -1.33,0.3 c -5.12,0.59 -10.3,0.34 -15.41,0.95 a 8.93,8.93 0 0 0 -3.46,1 4.19,4.19 0 0 0 -1.8,3.36 z" />
  <path
     id="path74"
     opacity="0.1"
     fill="#020202"
     d="m 94.38,144.32 c -0.07,1.84 0.65,3.66 0.44,5.5 a 24.43,24.43 0 0 1 -1,3.6 c -0.41,1.6 -0.6,3.71 0.28,5.19 a 7.59,7.59 0 0 1 0.5,1 6.21,6.21 0 0 0 -2.68,3.5 c -0.1,0.34 -0.9,-0.64 -0.93,-0.69 a 11.26,11.26 0 0 1 -0.59,-1.32 15.5,15.5 0 0 1 -0.66,-3.44 c -0.42,-2.48 -3.51,-6.74 -2,-9.16 0.52,-0.84 1.44,-1.34 2.09,-2.08 v 0 a 5.52,5.52 0 0 0 0.63,-0.55 22.19,22.19 0 0 0 2.13,-3.25 9.91,9.91 0 0 1 5.17,-3.92 7.11,7.11 0 0 0 -3.38,5.62 z" />
  <polygon
     transform="translate(0,22)"
     id="polygon76"
     fill="#0088b6"
     points="145.45,119.86 135.15,124.77 131.6,144.26 133.19,145.61 141.22,139.87 " />
  <polygon
     transform="translate(0,22)"
     style="fill:url(#linear-gradient-2)"
     id="polygon78"
     fill="url(#linear-gradient-2)"
     points="145.45,119.86 135.15,124.77 131.6,144.26 133.19,145.61 141.22,139.87 " />
  <polygon
     transform="translate(0,22)"
     id="polygon80"
     fill="#0088b6"
     points="121.76,144.04 124.43,141.2 127.2,140.9 124.64,143.92 " />
</svg>
