<?xml version="1.0" encoding="UTF-8" standalone="no"?>
<svg
   xmlns:dc="http://purl.org/dc/elements/1.1/"
   xmlns:cc="http://creativecommons.org/ns#"
   xmlns:rdf="http://www.w3.org/1999/02/22-rdf-syntax-ns#"
   xmlns:svg="http://www.w3.org/2000/svg"
   xmlns="http://www.w3.org/2000/svg"
   xmlns:sodipodi="http://sodipodi.sourceforge.net/DTD/sodipodi-0.dtd"
   xmlns:inkscape="http://www.inkscape.org/namespaces/inkscape"
   id="Capa_1"
   enable-background="new 0 0 512 512"
   height="512"
   viewBox="0 0 512 512"
   width="512"
   version="1.1"
   sodipodi:docname="full.svg"
   inkscape:version="1.0.2 (e86c870879, 2021-01-15)">
  <metadata
     id="metadata13">
    <rdf:RDF>
      <cc:Work
         rdf:about="">
        <dc:format>image/svg+xml</dc:format>
        <dc:type
           rdf:resource="http://purl.org/dc/dcmitype/StillImage" />
      </cc:Work>
    </rdf:RDF>
  </metadata>
  <defs
     id="defs11" />
  <sodipodi:namedview
     pagecolor="#ffffff"
     bordercolor="#666666"
     borderopacity="1"
     objecttolerance="10"
     gridtolerance="10"
     guidetolerance="10"
     inkscape:pageopacity="0"
     inkscape:pageshadow="2"
     inkscape:window-width="1920"
     inkscape:window-height="1016"
     id="namedview9"
     showgrid="false"
     inkscape:zoom="1.1993869"
     inkscape:cx="217.20218"
     inkscape:cy="257.589"
     inkscape:window-x="1366"
     inkscape:window-y="0"
     inkscape:window-maximized="1"
     inkscape:current-layer="Capa_1"
     inkscape:document-rotation="0" />
  <g
     id="g6"
     style="fill:#999999">
    <path
       d="m381.148 160.07s-20.652 54.278-59.78 42.54c-32.684-9.805-30.809-54.137-15.091-90.711 27.233-63.371-50.539-111.899-50.539-111.899s1.216 64.276-48.22 88.759c-42.359 20.979-53.983 66.736-34.241 100.91 18.305 31.686-1.109 50.899-18.157 57.743-43.368 17.412-68.606-36.458-68.606-36.458-18.246 29.978-28.742 65.182-28.742 102.837 0 108.984 87.953 197.393 196.749 198.189-49.745-.791-89.989-41.476-90.036-91.396-.229-19.778 4.514-40.885 14.095-62.737l5.293-12.072 26.814 7.837c4.302-21.175 15.154-40.033 31.966-55.284 15.853-14.381 31.32-20.48 33.032-21.128l18.258-6.914 1.977 19.423c2.021 19.872 7.155 36.313 15.692 50.264 7.657 12.494 14.76 22.975 23.066 34.865 8.363 11.994 12.922 28.219 12.845 45.7-.008 24.425-9.528 47.39-26.809 64.67-17.276 17.278-40.259 26.792-64.717 26.792h.003c109.478 0 198.228-88.729 198.228-198.208 0-62.019-28.49-117.386-73.08-153.722z"
       id="path2"
       style="fill:#999999" />
    <path
       d="m317.522 420.435c.054-11.202-2.66-21.562-7.445-28.425-7.448-10.661-15.522-22.454-24.05-36.367-7.479-12.221-12.894-25.697-16.366-40.809-13.545 9.978-30.488 28.421-31.059 58.467l-.373 19.617-36.971-10.806c-4.647 13.453-6.922 26.255-6.775 38.194l.001.185c.013 33.927 27.606 61.509 61.512 61.509 16.444 0 31.895-6.394 43.505-18.003 11.621-11.622 18.021-27.066 18.021-43.49z"
       id="path4"
       style="fill:#999999" />
  </g>
  <path
     style="fill:#aa0000;fill-opacity:1;stroke:#ffffff;stroke-width:13.3401;paint-order:markers stroke fill"
     d="m 61.457017,349.57406 c -0.242478,-0.39234 -1.080005,-5.96042 -1.861171,-12.37351 -1.918346,-15.74893 -1.342994,-41.37189 1.26103,-56.15926 3.803084,-21.5964 9.371907,-38.1876 19.457975,-57.97113 4.946928,-9.70325 6.051172,-11.34801 6.781851,-10.10151 7.552147,12.8836 17.013998,23.82397 25.777378,29.80538 14.31168,9.76837 30.27195,10.79691 46.38183,2.98902 7.74712,-3.75475 16.62672,-12.77815 19.13023,-19.44003 4.35545,-11.58989 3.24321,-19.73696 -5.10148,-37.36806 -7.43664,-15.71254 -9.43429,-24.24662 -8.72024,-37.25339 0.76129,-13.86696 4.0596,-23.78472 11.78445,-35.43477 7.72102,-11.64429 15.99144,-18.547913 35.95785,-30.015339 24.29842,-13.955443 40.27208,-42.875103 43.4606,-78.6836181 l 0.62155,-6.98031938 7.08695,5.30611908 c 9.72682,7.2826244 25.17624,22.9526104 31.54938,31.9997804 12.84552,18.235238 18.28154,36.46367 16.11981,54.054065 -0.90066,7.328853 -3.06255,14.673462 -7.82611,26.587792 -1.82558,4.56604 -6.89238,9.49286 -118.63333,115.3556 -64.19946,60.82221 -118.090112,111.89324 -119.756992,113.49118 -1.666881,1.59793 -3.229083,2.58434 -3.471561,2.192 z"
     id="path869" />
  <path
     style="fill:#ff5555;fill-opacity:1;stroke:#ffffff;stroke-width:13.3401;paint-order:markers stroke fill"
     d="M 101.201,437.02206 C 84.682637,416.24802 72.049718,391.08531 64.732795,364.38333 l -2.051566,-7.48687 2.815592,-1.50414 c 1.548576,-0.82726 11.915071,-10.13353 23.036655,-20.68059 11.121586,-10.54705 53.438784,-50.65533 94.038234,-89.12948 40.59944,-38.47417 83.10315,-78.93664 94.4527,-89.91659 11.34955,-10.97996 20.62899,-19.64661 20.62099,-19.25922 -0.008,0.38739 -0.56937,4.08106 -1.24746,8.20817 -6.04589,36.79696 9.2854,60.82935 37.93191,59.45974 6.456,-0.30867 8.15975,-0.74262 13.73648,-3.49879 11.04479,-5.45863 21.34082,-16.66342 29.49158,-32.09456 l 4.00874,-7.58941 6.01309,5.16248 6.0131,5.16248 -2.735,2.64283 c -1.50425,1.45356 -25.62961,24.35788 -53.61189,50.8985 -46.61281,44.21126 -51.25976,48.38771 -55.445,49.83119 -24.17708,8.33861 -47.52852,27.43897 -60.25265,49.28379 -3.03102,5.20365 -6.89094,13.86076 -7.39172,16.57827 -0.15919,0.86383 -2.46144,3.65507 -5.11612,6.20273 l -4.82668,4.63214 -9.54591,-2.75221 c -5.25025,-1.51371 -10.02938,-2.56668 -10.6203,-2.33992 -1.32408,0.5081 -10.63292,22.81119 -13.25349,31.75412 -1.826,6.23138 -2.24564,6.86516 -8.60485,12.99578 -14.92105,14.38468 -55.32581,52.57129 -55.59183,52.53992 -0.15686,-0.0185 -2.58524,-2.92623 -5.3964,-6.46163 z"
     id="path877" />
  <path
     style="fill:#ff5555;fill-opacity:1;stroke:#ffffff;stroke-width:13.3401;paint-order:markers stroke fill"
     d="m 321.83897,356.08697 c 0,-0.35187 -2.4466,-4.48604 -5.43689,-9.18703 -13.10372,-20.60017 -17.83838,-34.89177 -20.68146,-62.42715 l -1.05508,-10.2185 9.62636,-8.8959 c 5.2945,-4.89275 26.88518,-25.25332 47.97929,-45.24572 21.09411,-19.9924 40.16538,-38.01143 42.38059,-40.0423 l 4.02767,-3.69249 2.868,3.29483 c 14.86173,17.07349 23.32556,29.61712 32.03993,47.48407 3.57857,7.33708 6.73439,14.13318 7.01294,15.10244 0.47683,1.65923 -22.95958,24.25698 -116.81139,112.63136 -1.07248,1.00988 -1.94996,1.54826 -1.94996,1.19639 z"
     id="path879" />
  <path
     style="fill:#ff5555;fill-opacity:1;stroke:#ffffff;stroke-width:13.3401;paint-order:markers stroke fill"
     d="m 167.17663,490.5126 c -19.33465,-9.8253 -34.12016,-20.45898 -49.41407,-35.53841 -6.85556,-6.75942 -7.58568,-7.75817 -6.47984,-8.864 0.68543,-0.68544 2.36055,-1.64304 3.72248,-2.128 1.36193,-0.48496 13.25014,-11.10678 26.41825,-23.60403 13.16811,-12.49725 24.06283,-22.60147 24.21049,-22.45381 0.14766,0.14766 -0.14625,3.61923 -0.65314,7.71461 -1.25715,10.15723 -0.42928,27.36742 1.73638,36.09668 3.3544,13.5208 9.15884,25.38813 17.45046,35.67794 l 4.09819,5.0858 -5.97853,5.93862 c -3.2882,3.26625 -6.3449,5.9272 -6.79269,5.91323 -0.44778,-0.014 -4.19088,-1.74136 -8.31798,-3.83863 z"
     id="path881" />
  <path
     style="fill:#ff5555;fill-opacity:1;stroke:#ffffff;stroke-width:13.3401;paint-order:markers stroke fill"
     d="m 207.6296,457.89967 c -4.03838,-4.8432 -9.91429,-17.44456 -11.37168,-24.38746 -2.1259,-10.12762 -1.19907,-27.75058 2.12454,-40.39655 1.44035,-5.48038 2.75583,-10.10134 2.92328,-10.2688 0.16746,-0.16745 8.59635,2.11452 18.73088,5.07106 l 18.42643,5.37552 0.0189,-6.36247 c 0.0335,-11.25693 1.55947,-26.20456 3.31617,-32.48302 3.3536,-11.98578 9.8802,-22.43291 20.31278,-32.51464 5.86392,-5.66672 8.03499,-6.72665 8.03499,-3.92275 0,1.93965 4.86659,16.12179 7.89835,23.01726 3.00914,6.84402 10.22071,19.26199 17.2988,29.78772 2.25183,3.34866 3.97574,6.41687 3.8309,6.81825 -0.35975,0.9969 -87.66502,83.37401 -88.3727,83.38428 -0.31054,0.004 -1.73778,-1.39878 -3.17165,-3.1184 z"
     id="path883" />
  <path
     style="fill:#ff5555;fill-opacity:1;stroke:#ffffff;stroke-width:13.3401;paint-order:markers stroke fill"
     d="m 284.51948,507.78881 c 38.46794,-13.41169 63.17842,-47.48718 63.16268,-87.10065 -0.008,-19.15907 -4.1322,-32.92281 -14.53309,-48.49696 l -6.7428,-10.09655 24.60509,-23.22195 c 50.03927,-47.22641 90.13418,-85.70971 91.01627,-87.3579 0.81851,-1.5294 0.98396,-1.56021 1.68185,-0.31315 1.32797,2.37294 6.35049,23.0402 7.93474,32.65076 2.16438,13.12983 2.15263,47.02489 -0.0208,60.03067 -9.92805,59.4093 -43.95532,109.85464 -94.27526,139.76289 -23.03738,13.69254 -52.30414,23.89386 -75.1127,26.18154 l -5.00256,0.50176 z"
     id="path885" />
  <path
     style="fill:#ff5555;fill-opacity:1;stroke:#ffffff;stroke-width:13.3401;paint-order:markers stroke fill"
     d="m 244.92771,480.60822 c -8.01211,-1.51758 -15.23519,-4.40782 -21.95148,-8.78366 -4.95708,-3.22966 -8.50265,-6.36701 -7.78385,-6.88765 0.18826,-0.13636 1.16112,-0.60305 2.16191,-1.03709 1.86663,-0.80954 18.8432,-16.56797 61.79641,-57.36224 13.44844,-12.77249 24.54486,-23.09026 24.65871,-22.92838 0.11384,0.16188 1.54449,2.17029 3.17923,4.46313 7.24641,10.16365 9.81647,18.5711 9.83546,32.1748 0.0203,14.5626 -3.74371,25.87217 -12.4957,37.54509 -7.57779,10.10684 -20.68932,18.80986 -33.0673,21.94904 -7.6232,1.93332 -18.76663,2.30019 -26.33339,0.86696 z"
     id="path887" />
  <path
     style="fill:#ff5555;fill-opacity:1;stroke:#ffffff;stroke-width:13.3401;paint-order:markers stroke fill"
     d="m 221.37098,508.56725 c -12.91264,-2.33714 -36.42323,-9.08231 -37.45054,-10.74453 -0.22369,-0.36195 1.80642,-2.84814 4.51137,-5.52486 l 4.91809,-4.86678 3.45412,3.1206 c 7.49615,6.77231 19.30576,13.38066 30.6812,17.16837 8.45332,2.81473 6.35934,3.10488 -6.11424,0.8472 z"
     id="path889" />
  <path
     style="fill:#ff9955;fill-opacity:1;stroke:#ffffff;stroke-width:13.3401;paint-order:markers stroke fill"
     d="m 315.29944,344.27321 c -12.66792,-21.21337 -16.77107,-34.55269 -19.74985,-64.20667 l -0.5478,-5.4534 49.86358,-47.07344 c 27.42496,-25.89039 50.78433,-47.80617 51.9097,-48.70172 l 2.04612,-1.62829 3.68429,4.12956 c 12.48293,13.9916 25.18896,33.6813 34.03373,52.73989 l 3.98642,8.58988 -7.02493,7.11806 c -8.56156,8.67506 -48.99388,47.35817 -79.56199,76.11992 -12.38133,11.64968 -24.57506,23.16888 -27.09718,25.59823 l -4.58568,4.41699 z"
     id="path891" />
  <path
     style="fill:#ff9955;fill-opacity:1;stroke:#ffffff;stroke-width:13.3401;paint-order:markers stroke fill"
     d="m 208.65768,458.28856 c -2.8264,-3.08033 -6.62235,-9.82938 -9.32324,-16.57634 -3.29671,-8.23535 -4.3462,-17.94512 -3.32221,-30.73677 0.89409,-11.16892 4.62848,-27.4888 6.29011,-27.4888 0.83939,0 24.14997,6.49818 34.61934,9.65068 1.19983,0.36128 1.44213,-0.74138 1.88505,-8.57841 1.40253,-24.81647 3.51231,-34.2736 10.1903,-45.67839 4.13161,-7.05604 18.61331,-22.72952 20.13325,-21.79014 0.45462,0.28097 1.08877,1.90845 1.40923,3.61663 1.87109,9.97378 10.88317,29.09525 21.47974,45.57489 3.22412,5.01411 6.0126,9.71703 6.19661,10.45094 0.2209,0.88103 -6.26086,7.5908 -19.07869,19.74983 -34.77309,32.98584 -63.95535,60.21565 -66.39513,61.95292 l -2.38873,1.70093 z"
     id="path893" />
  <path
     style="fill:#ff9955;fill-opacity:1;stroke:#ffffff;stroke-width:13.3401;paint-order:markers stroke fill"
     d="m 164.67535,488.70314 c -17.59196,-9.20807 -30.12829,-18.30453 -44.56585,-32.33729 l -9.54796,-9.28026 3.4477,-2.17643 c 4.35556,-2.74955 8.20002,-6.13984 29.84442,-26.31871 9.64219,-8.98932 18.31995,-17.01782 19.28391,-17.84112 l 1.75267,-1.4969 -0.42957,12.78193 c -0.2451,7.29278 -0.0234,16.22596 0.51624,20.80162 1.74657,14.80948 8.70315,31.61598 18.08743,43.6977 l 4.46889,5.75345 -5.57026,5.62787 c -3.06365,3.09533 -6.14312,5.61905 -6.84327,5.60827 -0.70015,-0.0108 -5.40011,-2.17984 -10.44435,-4.82013 z"
     id="path895" />
  <path
     style="fill:#00aad4;fill-opacity:1;stroke:#ffffff;stroke-width:13.3401;paint-order:markers stroke fill"
     d="m 286.4042,507.43227 c 19.03054,-7.09532 36.02283,-20.36253 46.35916,-36.19619 10.46649,-16.03307 14.93115,-31.41246 14.9112,-51.36457 -0.0132,-13.17747 -1.85388,-23.15316 -6.06547,-32.87172 -2.48921,-5.74404 -4.87918,-9.80661 -13.59092,-23.10241 -1.10131,-1.68081 -0.51655,-2.38234 11.12843,-13.35062 29.31453,-27.611 77.57813,-73.60595 90.3767,-86.1285 l 13.89757,-13.59785 1.26689,4.42649 c 6.0537,21.15156 7.3492,29.7665 7.83201,52.08215 0.48293,22.3212 -0.36185,33.85299 -3.50238,47.81 -11.95758,53.14137 -43.75229,98.33353 -88.85873,126.30148 -19.49441,12.08737 -46.52506,22.64954 -68.21868,26.65631 -9.58799,1.77088 -11.46393,1.54568 -5.53578,-0.66457 z"
     id="path897" />
  <path
     style="fill:#00aad4;fill-opacity:1;stroke:#ffffff;stroke-width:13.3401;paint-order:markers stroke fill"
     d="m 243.04872,479.85589 c -7.20769,-1.66343 -13.19994,-4.21333 -19.49659,-8.29645 -6.48715,-4.20665 -8.64496,-6.42459 -6.84061,-7.03121 2.1072,-0.70844 11.1838,-9.08121 67.45216,-62.22164 10.2319,-9.66312 18.89462,-17.6742 19.25047,-17.80241 0.72653,-0.26176 5.6529,6.89921 8.25443,11.99864 4.50469,8.82991 6.02042,27.97158 3.09563,39.09378 -5.20458,19.79173 -20.41585,35.91388 -40.22908,42.63808 -7.97895,2.70789 -23.34872,3.49927 -31.48641,1.62121 z"
     id="path899" />
  <path
     style="fill:#00aad4;fill-opacity:1;stroke:#ffffff;stroke-width:13.3401;paint-order:markers stroke fill"
     d="m 217.20218,507.31095 c -10.18593,-2.18512 -28.72419,-7.4052 -31.41774,-8.84674 -1.65519,-0.88583 -1.51784,-1.1492 2.90693,-5.57397 l 4.6442,-4.6442 2.76195,2.2643 c 8.29877,6.80346 19.06188,12.98117 29.44226,16.89899 6.55545,2.47419 3.48563,2.43797 -8.3376,-0.0984 z"
     id="path901" />
</svg>
