<?xml version="1.0" encoding="UTF-8" standalone="no"?>
<svg
   xmlns:dc="http://purl.org/dc/elements/1.1/"
   xmlns:cc="http://creativecommons.org/ns#"
   xmlns:rdf="http://www.w3.org/1999/02/22-rdf-syntax-ns#"
   xmlns:svg="http://www.w3.org/2000/svg"
   xmlns="http://www.w3.org/2000/svg"
   xmlns:sodipodi="http://sodipodi.sourceforge.net/DTD/sodipodi-0.dtd"
   xmlns:inkscape="http://www.inkscape.org/namespaces/inkscape"
   id="Capa_1"
   enable-background="new 0 0 512 512"
   height="512"
   viewBox="0 0 512 512"
   width="512"
   version="1.1"
   sodipodi:docname="highest.svg"
   inkscape:version="1.0.1 (3bc2e813f5, 2020-09-07)">
  <metadata
     id="metadata13">
    <rdf:RDF>
      <cc:Work
         rdf:about="">
        <dc:format>image/svg+xml</dc:format>
        <dc:type
           rdf:resource="http://purl.org/dc/dcmitype/StillImage" />
      </cc:Work>
    </rdf:RDF>
  </metadata>
  <defs
     id="defs11" />
  <sodipodi:namedview
     pagecolor="#ffffff"
     bordercolor="#666666"
     borderopacity="1"
     objecttolerance="10"
     gridtolerance="10"
     guidetolerance="10"
     inkscape:pageopacity="0"
     inkscape:pageshadow="2"
     inkscape:window-width="1920"
     inkscape:window-height="1016"
     id="namedview9"
     showgrid="false"
     inkscape:zoom="1.0761719"
     inkscape:cx="258.32305"
     inkscape:cy="256"
     inkscape:window-x="1366"
     inkscape:window-y="0"
     inkscape:window-maximized="1"
     inkscape:current-layer="Capa_1" />
  <g
     id="g6"
     style="fill:#aa0000">
    <path
       d="m381.148 160.07s-20.652 54.278-59.78 42.54c-32.684-9.805-30.809-54.137-15.091-90.711 27.233-63.371-50.539-111.899-50.539-111.899s1.216 64.276-48.22 88.759c-42.359 20.979-53.983 66.736-34.241 100.91 18.305 31.686-1.109 50.899-18.157 57.743-43.368 17.412-68.606-36.458-68.606-36.458-18.246 29.978-28.742 65.182-28.742 102.837 0 108.984 87.953 197.393 196.749 198.189-49.745-.791-89.989-41.476-90.036-91.396-.229-19.778 4.514-40.885 14.095-62.737l5.293-12.072 26.814 7.837c4.302-21.175 15.154-40.033 31.966-55.284 15.853-14.381 31.32-20.48 33.032-21.128l18.258-6.914 1.977 19.423c2.021 19.872 7.155 36.313 15.692 50.264 7.657 12.494 14.76 22.975 23.066 34.865 8.363 11.994 12.922 28.219 12.845 45.7-.008 24.425-9.528 47.39-26.809 64.67-17.276 17.278-40.259 26.792-64.717 26.792h.003c109.478 0 198.228-88.729 198.228-198.208 0-62.019-28.49-117.386-73.08-153.722z"
       id="path2"
       style="fill:#aa0000" />
    <path
       d="m317.522 420.435c.054-11.202-2.66-21.562-7.445-28.425-7.448-10.661-15.522-22.454-24.05-36.367-7.479-12.221-12.894-25.697-16.366-40.809-13.545 9.978-30.488 28.421-31.059 58.467l-.373 19.617-36.971-10.806c-4.647 13.453-6.922 26.255-6.775 38.194l.001.185c.013 33.927 27.606 61.509 61.512 61.509 16.444 0 31.895-6.394 43.505-18.003 11.621-11.622 18.021-27.066 18.021-43.49z"
       id="path4"
       style="fill:#aa0000" />
  </g>
</svg>
