<?xml version="1.0" encoding="UTF-8" standalone="no"?>
<svg
   xmlns:dc="http://purl.org/dc/elements/1.1/"
   xmlns:cc="http://creativecommons.org/ns#"
   xmlns:rdf="http://www.w3.org/1999/02/22-rdf-syntax-ns#"
   xmlns:svg="http://www.w3.org/2000/svg"
   xmlns="http://www.w3.org/2000/svg"
   xmlns:sodipodi="http://sodipodi.sourceforge.net/DTD/sodipodi-0.dtd"
   xmlns:inkscape="http://www.inkscape.org/namespaces/inkscape"
   id="Capa_1"
   enable-background="new 0 0 512 512"
   height="512"
   viewBox="0 0 512 512"
   width="512"
   version="1.1"
   sodipodi:docname="none.svg"
   inkscape:version="1.0.1 (3bc2e813f5, 2020-09-07)">
  <metadata
     id="metadata13">
    <rdf:RDF>
      <cc:Work
         rdf:about="">
        <dc:format>image/svg+xml</dc:format>
        <dc:type
           rdf:resource="http://purl.org/dc/dcmitype/StillImage" />
      </cc:Work>
    </rdf:RDF>
  </metadata>
  <defs
     id="defs11" />
  <sodipodi:namedview
     pagecolor="#ffffff"
     bordercolor="#666666"
     borderopacity="1"
     objecttolerance="10"
     gridtolerance="10"
     guidetolerance="10"
     inkscape:pageopacity="0"
     inkscape:pageshadow="2"
     inkscape:window-width="1920"
     inkscape:window-height="1016"
     id="namedview9"
     showgrid="false"
     inkscape:zoom="1.6038919"
     inkscape:cx="227.67629"
     inkscape:cy="256"
     inkscape:window-x="1366"
     inkscape:window-y="0"
     inkscape:window-maximized="1"
     inkscape:current-layer="Capa_1"
     inkscape:document-rotation="0" />
  <g
     id="g6"
     style="fill:#999999">
    <path
       d="m381.148 160.07s-20.652 54.278-59.78 42.54c-32.684-9.805-30.809-54.137-15.091-90.711 27.233-63.371-50.539-111.899-50.539-111.899s1.216 64.276-48.22 88.759c-42.359 20.979-53.983 66.736-34.241 100.91 18.305 31.686-1.109 50.899-18.157 57.743-43.368 17.412-68.606-36.458-68.606-36.458-18.246 29.978-28.742 65.182-28.742 102.837 0 108.984 87.953 197.393 196.749 198.189-49.745-.791-89.989-41.476-90.036-91.396-.229-19.778 4.514-40.885 14.095-62.737l5.293-12.072 26.814 7.837c4.302-21.175 15.154-40.033 31.966-55.284 15.853-14.381 31.32-20.48 33.032-21.128l18.258-6.914 1.977 19.423c2.021 19.872 7.155 36.313 15.692 50.264 7.657 12.494 14.76 22.975 23.066 34.865 8.363 11.994 12.922 28.219 12.845 45.7-.008 24.425-9.528 47.39-26.809 64.67-17.276 17.278-40.259 26.792-64.717 26.792h.003c109.478 0 198.228-88.729 198.228-198.208 0-62.019-28.49-117.386-73.08-153.722z"
       id="path2"
       style="fill:#999999" />
    <path
       d="m317.522 420.435c.054-11.202-2.66-21.562-7.445-28.425-7.448-10.661-15.522-22.454-24.05-36.367-7.479-12.221-12.894-25.697-16.366-40.809-13.545 9.978-30.488 28.421-31.059 58.467l-.373 19.617-36.971-10.806c-4.647 13.453-6.922 26.255-6.775 38.194l.001.185c.013 33.927 27.606 61.509 61.512 61.509 16.444 0 31.895-6.394 43.505-18.003 11.621-11.622 18.021-27.066 18.021-43.49z"
       id="path4"
       style="fill:#999999" />
  </g>
  <g
     id="g893"
     transform="matrix(0.30465507,0,0,0.30465507,107.76996,178.41698)"
     style="fill:#333333">
    <g
       id="g836"
       style="fill:#333333">
      <path
         d="m 502.29,788.199 h -47 c -33.1,0 -60,26.9 -60,60 v 64.9 c 0,33.1 26.9,60 60,60 h 47 c 33.101,0 60,-26.9 60,-60 v -64.9 c 0,-33.199 -26.899,-60 -60,-60 z"
         id="path832"
         style="fill:#333333" />
      <path
         d="m 170.89,285.8 86.7,10.8 c 27.5,3.4 53.6,-12.4 63.5,-38.3 12.5,-32.7 29.9,-58.5 52.2,-77.3 31.601,-26.6 70.9,-40 117.9,-40 48.7,0 87.5,12.8 116.3,38.3 28.8,25.6 43.1,56.2 43.1,92.1 0,25.8 -8.1,49.4 -24.3,70.8 -10.5,13.6 -42.8,42.2 -96.7,85.9 -54,43.7 -89.899,83.099 -107.899,118.099 -18.4,35.801 -24.8,75.5 -26.4,115.301 -1.399,34.1 25.8,62.5 60,62.5 h 49 c 31.2,0 57,-23.9 59.8,-54.9 2,-22.299 5.7,-39.199 11.301,-50.699 9.399,-19.701 33.699,-45.701 72.699,-78.1 C 723.59,477.8 772.79,428.4 795.891,392 c 23,-36.3 34.6,-74.8 34.6,-115.5 0,-73.5 -31.3,-138 -94,-193.4 -62.6,-55.4 -147,-83.1 -253,-83.1 -100.8,0 -182.1,27.3 -244.1,82 -52.8,46.6 -84.9,101.8 -96.2,165.5 -3.501,18.6 9.199,36 27.699,38.3 z"
         id="path834"
         style="fill:#333333" />
    </g>
    <g
       id="g838"
       style="fill:#333333" />
    <g
       id="g840"
       style="fill:#333333" />
    <g
       id="g842"
       style="fill:#333333" />
    <g
       id="g844"
       style="fill:#333333" />
    <g
       id="g846"
       style="fill:#333333" />
    <g
       id="g848"
       style="fill:#333333" />
    <g
       id="g850"
       style="fill:#333333" />
    <g
       id="g852"
       style="fill:#333333" />
    <g
       id="g854"
       style="fill:#333333" />
    <g
       id="g856"
       style="fill:#333333" />
    <g
       id="g858"
       style="fill:#333333" />
    <g
       id="g860"
       style="fill:#333333" />
    <g
       id="g862"
       style="fill:#333333" />
    <g
       id="g864"
       style="fill:#333333" />
    <g
       id="g866"
       style="fill:#333333" />
  </g>
</svg>
